<?xml version="1.0" encoding="UTF-8" standalone="no"?>
<!--?xml version="1.0" encoding="UTF-8" standalone="no"?-->

<!--?xml version="1.0" encoding="UTF-8" standalone="no"?-->

<!--
************* Copyright (c) 2015 Pareto Softare, LLC DBA Simplemaps.com *******************		
************* Free for Commercial Use, full terms at  http://simplemaps.com/resources/svg-license ************
************* Attribution is appreciated! http://simplemaps.com ***************************
-->

<svg
   xmlns:dc="http://purl.org/dc/elements/1.1/"
   xmlns:cc="http://creativecommons.org/ns#"
   xmlns:rdf="http://www.w3.org/1999/02/22-rdf-syntax-ns#"
   xmlns:svg="http://www.w3.org/2000/svg"
   xmlns="http://www.w3.org/2000/svg"
   xmlns:sodipodi="http://sodipodi.sourceforge.net/DTD/sodipodi-0.dtd"
   xmlns:inkscape="http://www.inkscape.org/namespaces/inkscape"
   enable_background="new 0 0 1000 1585"
   height="549.01257"
   pretty_print="True"
   style="fill:none;stroke:#000000;stroke-linejoin:round"
   version="1.1"
   viewBox="0 0 354.46857 549.01257"
   width="354.46857"
   id="svg2"
   inkscape:version="0.91 r13725"
   sodipodi:docname="Amazonas.svg"><sodipodi:namedview
   pagecolor="#ffffff"
   bordercolor="#666666"
   borderopacity="0.05098039"
   objecttolerance="10"
   gridtolerance="10"
   guidetolerance="10"
   inkscape:pageopacity="0"
   inkscape:pageshadow="2"
   inkscape:window-width="1920"
   inkscape:window-height="1017"
   id="namedview37"
   showgrid="false"
   inkscape:zoom="1.6572312"
   inkscape:cx="-5.4221069"
   inkscape:cy="289.31279"
   inkscape:window-x="-8"
   inkscape:window-y="-8"
   inkscape:window-maximized="1"
   inkscape:current-layer="svg2"
   showborder="true"
   fit-margin-top="10"
   fit-margin-left="10"
   fit-margin-right="10"
   fit-margin-bottom="10"
   borderlayer="false"
   inkscape:showpageshadow="false"
   inkscape:snap-to-guides="false"
   inkscape:snap-grids="false"
   showguides="false" />























utf-8<defs
   id="defs4">
  <style
     type="text/css"
     id="style6">path { fill-rule: evenodd; }utf-8utf-8</style>
</defs>























utf-8<metadata
   id="metadata8">
utf-8utf-8<views>
utf-8utf-8utf-8<view
   h="1585.21431143"
   padding="0"
   w="1000">
utf-8utf-8utf-8utf-8<proj
   flip="auto"
   id="robinson"
   lon0="-80.0286400104" />























utf-8utf-8utf-8utf-8<bbox
   h="307.01"
   w="193.79"
   x="-1203.32"
   y="0.49" />























utf-8utf-8utf-8</view>























utf-8utf-8</views>























utf-8<rdf:rdf>
  <cc:work
     rdf:about="">
    <dc:format>image/svg+xml</dc:format>
    <dc:type
       rdf:resource="http://purl.org/dc/dcmitype/StillImage" />
  </cc:work>
</rdf:rdf>
<rdf:rdf>
  <cc:work
     rdf:about="">
    <dc:format>image/svg+xml</dc:format>
    <dc:type
       rdf:resource="http://purl.org/dc/dcmitype/StillImage" />
    <dc:title />
  </cc:work>
</rdf:rdf>
<rdf:RDF>
  <cc:Work
     rdf:about="">
    <dc:format>image/svg+xml</dc:format>
    <dc:type
       rdf:resource="http://purl.org/dc/dcmitype/StillImage" />
    <dc:title />
  </cc:Work>
</rdf:RDF>
</metadata>























utf-8<path
   inkscape:label=""
   inkscape:connector-curvature="0"
   style="fill:#ffffff;fill-opacity:1;stroke:#808080;stroke-width:0.5;stroke-miterlimit:4;stroke-dasharray:none;stroke-opacity:1"
   id="EDUCACION_BAGUA"
   d="m 156.9619,384.9851 c 0,-0.12036 -1.25621,-1.67557 -2.79152,-3.4563 -1.53537,-1.78068 -3.02046,-3.67487 -3.30019,-4.2091 -0.27993,-0.53438 -1.24758,-1.88227 -2.15081,-2.99555 l -1.64203,-2.02395 -4.64595,0 -4.64599,0 -0.82851,-2.67161 c -0.50895,-1.64132 -2.16104,-5.10684 -4.28394,-8.9864 -3.67434,-6.71476 -5.18989,-9.96058 -6.13619,-13.14216 l -0.58593,-1.96983 1.18618,-3.77822 1.18622,-3.77825 1.40923,0 1.40927,0 0.69656,-1.80987 c 0.38312,-0.99545 0.69651,-1.86786 0.69651,-1.93892 0,-0.0709 -0.59137,-0.50032 -1.31432,-0.95402 l -1.3144,-0.82499 1.63673,-2.35403 c 0.9002,-1.29467 2.07902,-2.67917 2.61973,-3.0766 0.98099,-0.72123 2.85594,-4.12068 4.7177,-8.55354 0.94333,-2.24592 1.79698,-3.38604 1.79698,-2.39966 0,0.28148 -0.16176,1.59319 -0.35938,2.91449 -0.30441,2.03711 -0.28292,2.51909 0.14253,3.17066 0.41301,0.63222 0.70536,2.37841 0.84683,5.05907 0.0118,0.2227 0.42438,0.40639 0.91701,0.40807 2.61313,0.004 3.30205,0.34106 4.30142,2.06298 1.1714,2.01833 2.11339,3.03771 4.37807,4.73782 l 1.73582,1.30307 1.75401,-0.6795 c 1.67242,-0.64772 1.95873,-0.94993 6.15096,-6.49052 l 4.39688,-5.8112 3.2569,-1.71822 3.25693,-1.71809 0.0944,-2.24115 0.094,-2.24132 -1.14218,-0.61154 -1.14221,-0.61164 0.65231,-0.91078 c 0.57702,-0.80581 0.88435,-0.92204 2.66163,-1.00703 l 2.0094,-0.0966 0.61568,-2.42892 0.61574,-2.42868 7.98342,-6.06964 c 4.39091,-3.33832 8.08316,-6.00836 8.20509,-5.93343 0.12128,0.0745 0.87576,1.74869 1.67517,3.71948 l 1.45339,3.58333 1.22135,0.001 1.2215,10e-4 0,-2.06467 0,-2.06476 2.88617,-0.55744 c 2.7385,-0.52884 2.94263,-0.52851 3.98977,0.003 2.23539,1.14322 4.70807,3.3163 5.56108,4.88721 0.75237,1.38584 2.02736,4.99997 1.81089,5.13383 -0.0438,0.008 -0.98519,0.73112 -2.09116,1.56406 -1.96289,1.4783 -2.06684,1.51438 -4.35802,1.51438 l -2.34719,0 0.20294,1.21446 c 1.04136,6.22798 1.04688,6.48714 0.15785,7.44424 -1.43332,1.54277 -2.81716,3.79282 -5.52083,8.97698 l -2.61818,5.01999 0.68525,3.32566 0.68524,3.32572 -0.90601,0.73831 c -0.49836,0.406 -1.52879,1.13467 -2.28979,1.61906 -1.19064,0.75814 -1.38475,1.03905 -1.39218,2.01447 -0.0293,3.20169 -1.43501,6.33355 -3.97671,8.82735 l -1.90081,1.86475 0.6627,3.41388 c 0.36447,1.87773 0.66253,3.66376 0.66253,3.96907 0,0.37356 -0.53237,0.74336 -1.62848,1.13026 -1.43769,0.50771 -1.62842,0.68316 -1.62842,1.49764 0,1.02152 -1.74592,3.55396 -4.53642,6.58002 -1.57559,1.70851 -1.83162,1.86206 -3.10529,1.86206 -1.03528,0 -1.68459,-0.23385 -2.55413,-0.92125 -0.64134,-0.50678 -1.98777,-1.17839 -2.99221,-1.49252 l -1.82609,-0.57111 -2.01954,1.54636 c -3.97695,3.04536 -3.81069,2.77528 -3.81069,6.18862 l 0,3.00988 -2.3436,1.22036 c -1.28895,0.67126 -2.75457,1.60994 -3.25695,2.08605 -0.50236,0.47612 -0.91337,0.7673 -0.91337,0.64701 z" />
<path
   inkscape:label=""
   inkscape:connector-curvature="0"
   style="fill:#ffffff;fill-opacity:1;stroke:#808080;stroke-width:0.5;stroke-miterlimit:4;stroke-dasharray:none;stroke-opacity:1"
   id="EDUCACION_CONDORCANQUI"
   d="m 196.99163,284.30244 c -0.99413,-1.86102 -1.56996,-3.27612 -1.38047,-3.39264 0.39687,-0.2446 2.47865,-3.4495 3.15225,-4.85387 0.46188,-0.96319 0.43954,-1.11963 -0.39347,-2.75361 -1.5491,-3.03962 -2.34903,-5.67841 -3.26197,-10.76008 -0.40522,-2.25548 -0.61919,-2.70636 -2.15106,-4.53362 -2.12007,-2.52883 -3.54225,-4.73094 -3.54225,-5.48486 0,-0.31674 -0.48515,-1.01537 -1.07828,-1.55188 -0.59301,-0.53656 -1.49934,-1.85184 -2.01418,-2.92292 -0.92341,-1.92092 -0.92853,-1.96303 -0.37585,-3.11534 0.63249,-1.31872 1.58953,-6.59939 2.17929,-12.02452 l 0.3958,-3.64057 2.23796,-1.82043 c 1.23091,-1.00126 2.23792,-2.01118 2.23792,-2.24438 0,-0.23318 -0.59854,-2.04787 -1.33025,-4.03285 l -1.33017,-3.60922 1.35875,-3.68364 1.3589,-3.6834 -0.54587,-1.86699 c -0.77936,-2.66567 -1.86423,-4.62028 -3.36567,-6.06413 -1.25597,-1.20777 -1.34588,-1.23983 -2.38939,-0.85084 -0.59642,0.22224 -2.97793,0.49567 -5.2923,0.6075 l -4.20789,0.20295 -1.27462,3.80514 c -1.15842,3.45812 -1.34632,3.80498 -2.06167,3.80498 -0.75743,0 -0.78713,-0.0856 -0.78713,-2.2669 0,-1.24665 -0.1102,-2.26753 -0.2445,-2.26843 -0.13475,-9.5e-4 -0.93253,0.24434 -1.77365,0.54334 -1.31808,0.4699 -1.70688,0.48682 -2.81485,0.12387 -2.04208,-0.67025 -2.01497,-0.6012 -1.34266,-3.42199 0.3389,-1.42242 0.62136,-2.76718 0.62746,-2.98834 0.006,-0.22108 -0.78533,-0.84906 -1.75883,-1.39526 l -1.76999,-0.99318 1.2769,-2.32886 c 0.70222,-1.28091 1.27888,-2.43569 1.28139,-2.56625 0.007,-0.39067 -2.99786,-1.76029 -4.30332,-1.96137 -1.20364,-0.18513 -1.22241,-0.17069 -2.23589,1.7198 -1.33154,2.48383 -3.00438,4.40275 -4.48341,5.1428 -1.15286,0.57689 -1.33793,0.57569 -6.56026,-0.0118 -2.95568,-0.34766 -5.39176,-0.65671 -5.41354,-0.68576 -0.0254,-0.0118 -0.26061,-1.26473 -0.53123,-2.74609 l -0.49164,-2.69306 1.58503,-0.86903 c 1.57512,-0.86348 1.58504,-0.8794 1.58978,-2.52939 l 0.004,-1.66034 -2.75662,-0.68737 c -1.51618,-0.37817 -2.89652,-0.68754 -3.06752,-0.68754 -0.17077,0 -0.6415,0.54656 -1.04538,1.2144 -0.40401,0.66805 -0.76252,1.25538 -0.79668,1.30547 -0.037,0.0502 -0.50718,-0.16219 -1.05113,-0.47325 l -0.98889,-0.56427 2.2574,-4.48046 c 1.24155,-2.4642 2.1871,-4.59336 2.10119,-4.73146 -0.0859,-0.13808 -1.23967,-1.09518 -2.56401,-2.12647 l -2.40784,-1.87533 0.15673,-3.28268 c 0.15399,-3.22548 0.17517,-3.29948 1.2375,-4.25402 0.59446,-0.53441 1.6016,-1.93363 2.23814,-3.10957 1.12857,-2.08503 1.14511,-2.1672 0.66529,-3.30898 -0.71645,-1.70489 -0.65379,-1.88644 1.13648,-3.29649 l 1.62846,-1.28256 0,-4.00759 0,-4.00767 2.11705,-3.49357 c 1.16436,-1.92146 2.11698,-3.5934 2.11698,-3.71539 0,-0.12087 -0.7512,-1.08053 -1.66945,-2.13023 l -1.6694,-1.90844 0.38402,-1.54723 c 0.94564,-3.81063 0.99724,-3.9303 1.74022,-4.03526 0.69988,-0.099 1.85503,-1.86362 2.28166,-3.48571 0.15306,-0.58164 0.43344,-0.66552 2.24085,-0.67028 l 2.06609,-0.002 1.24173,-2.28728 c 1.19746,-2.20604 1.22251,-2.31631 0.70518,-3.10148 -0.61444,-0.93242 -0.55543,-1.27588 0.84775,-4.92934 l 1.00788,-2.6243 1.39923,0 1.39931,0 0.74716,-1.86213 c 0.41093,-1.02405 1.43763,-3.34142 2.28156,-5.14959 l 1.53444,-3.28774 -1.26513,-1.52226 c -0.69586,-0.837238 -1.19085,-1.641735 -1.10006,-1.787726 0.0902,-0.146047 0.60299,-0.361108 1.13837,-0.478215 l 0.97333,-0.212401 0,-7.143668 0,-7.143713 1.7551,-1.987651 1.75517,-1.987715 0.90767,-5.799177 c 0.86364,-5.518512 0.88224,-5.869025 0.38547,-7.242648 l -0.5221,-1.443559 3.15189,0.219151 c 3.71917,0.258034 5.31076,0.633398 5.98197,1.410163 0.30045,0.347674 0.77431,2.513777 1.222,5.587513 0.40212,2.760764 0.77304,5.062573 0.82432,5.115284 0.0517,0.05282 1.799,-0.194124 3.88391,-0.548882 4.00939,-0.681868 4.6735,-0.992283 6.7681,-3.162938 l 1.19811,-1.244141 -0.63168,-3.886048 c -0.51706,-3.184563 -0.76381,-3.996475 -1.3607,-4.480498 -1.90819,-1.547717 -2.19472,-1.884301 -2.19472,-2.57876 0,-0.638595 0.37993,-0.882704 2.64926,-1.702247 1.75742,-0.634609 2.73929,-1.174773 2.9167,-1.604415 0.14742,-0.356269 0.73167,-1.787057 1.29883,-3.17962 1.51612,-3.722129 3.20579,-6.011261 8.19815,-11.105994 l 4.47863,-4.5706 0.003,-2.391797 0.003,-2.391854 3.91112,-4.746235 3.9112,-4.746181 3.32831,-1.441541 c 3.66263,-1.586321 7.68202,-2.979998 7.91797,-2.745456 0.0838,0.08275 0.65501,1.853457 1.27114,3.935279 l 1.12016,3.785159 0.50338,12.208769 c 0.57887,14.038582 1.04863,21.970595 1.48397,25.057829 0.37409,2.65131 1.01835,4.323937 3.91543,10.164011 2.06093,4.154402 2.38106,4.620666 3.64446,5.308415 3.05246,1.661481 4.65909,3.109283 5.09629,4.592117 0.22902,0.777045 1.06504,2.783963 1.85776,4.459931 l 1.44139,3.047134 -0.4827,3.753453 c -0.26518,2.064343 -0.65604,5.686682 -0.8678,8.049872 l -0.38479,4.29646 2.27613,2.34213 c 2.46991,2.5414 4.59627,5.29353 6.51702,8.4355 l 1.22414,2.00241 0.70633,6.96236 0.70657,6.96247 -2.69985,11.73418 -2.6997,11.73394 1.1556,7.46758 1.15569,7.46745 -1.38484,4.43842 -1.38468,4.43828 -2.86438,1.3368 c -2.85173,1.33098 -2.86518,1.34299 -3.09411,2.75258 -0.12674,0.77871 -0.59112,3.23724 -1.03274,5.46364 -1.50845,7.60501 -2.05955,8.72796 -4.29937,8.76104 -1.14137,0.005 -1.36017,0.23552 -5.89785,5.91003 l -4.71254,5.8924 -0.27399,2.59074 c -0.1506,1.42486 -0.50515,3.02782 -0.78855,3.56216 -0.31637,0.59737 -0.56744,2.0941 -0.6507,3.88592 l -0.13515,2.91458 1.96859,2.70302 c 1.08274,1.48646 2.12023,3.26314 2.30573,3.94796 0.21715,0.8032 0.80784,1.64568 1.66294,2.37348 1.32172,1.12484 1.3295,1.14536 2.5895,6.73842 1.09365,4.85481 1.26495,6.15508 1.27236,9.65819 l 0.003,4.04787 -2.36122,2.43548 c -1.29855,1.33952 -4.48528,5.05547 -7.0813,8.25771 -6.43479,7.93726 -14.94574,17.64232 -15.47157,17.64232 -0.23761,0 -1.36048,-0.43716 -2.49612,-0.97125 -1.13565,-0.53426 -2.28472,-0.97298 -2.55347,-0.97507 -0.26904,-10e-4 -1.76371,0.47149 -3.32234,1.05222 l -2.83371,1.0559 -0.0975,1.34726 -0.0979,1.34719 -1.70553,-3.19285 z" />
<path
   inkscape:label=""
   inkscape:connector-curvature="0"
   id="EDUCACION_AMAZONAS"
   d="m 166.39503,393.87078 -2.84509,-3.45758 4.74191,-2.82885 1.58061,-4.08621 -0.63226,-3.45738 5.05798,-3.14332 5.37413,1.88596 4.10963,0.94303 2.84521,-3.14334 3.16119,-5.34344 0.63228,-1.57157 3.16125,-1.88586 -0.31584,-3.77185 -0.94841,-3.45768 -0.63226,-0.94291 5.37413,-5.02904 1.58057,-4.08623 0.31597,-1.88591 2.84515,-1.88585 2.52898,-3.14326 -2.52898,-3.45762 -0.31595,-1.88581 5.69027,-10.37246 3.79358,-4.08635 -0.9484,-5.65768 -1.26458,-2.51452 4.42588,0.62853 3.47731,-0.94289 2.21277,-4.08623 -4.42562,-7.54363 0,-1.88593 21.4964,-24.51699 2.21289,5.02913 1.89686,7.22933 0.63223,2.20026 -1.26453,9.42964 -1.89677,2.20018 -2.21286,3.14329 -0.94842,3.7718 -1.26451,3.14323 1.58065,3.45753 -0.63218,4.71472 0.31595,5.34357 -0.31595,2.51452 -0.63233,2.82884 -2.529,1.88597 0,8.17225 0,6.28643 c 0,0 6.63865,3.14325 7.90317,3.4576 1.26455,0.31395 5.05801,4.40028 5.05801,4.40028 l -1.26451,9.74408 4.42567,5.65778 7.58706,0.31399 0,2.20027 6.32256,0.94288 -0.94834,2.82901 6.0063,-3.77189 4.10967,2.51451 1.89675,0.62876 1.26451,-3.45758 4.74179,5.65783 2.213,4.08617 9.16759,2.82884 6.95474,1.88589 -2.21284,3.77193 5.05796,6.60064 4.10963,8.17237 -1.58064,2.20024 -0.94827,3.14319 -6.32258,-0.31434 -5.058,-5.65771 -3.79357,-0.94301 -0.31535,3.77187 1.89676,3.77188 0.3153,3.77181 -4.7419,0.31433 1.26456,2.82891 -1.26456,2.20028 -0.94831,3.45743 -2.84526,6.60071 -5.69019,5.02918 -3.16128,0.31365 3.47743,6.2864 1.26443,7.85806 -3.16119,-1.5716 -3.16137,-3.77189 -3.79343,0.31402 -3.79351,0.94301 -2.84511,-2.20033 -0.94838,-2.51447 -6.63858,-4.08621 -1.89684,-0.943 -4.42566,1.57158 -4.10965,0 -3.47732,5.02927 0,6.60071 -0.63238,5.34344 -3.79351,3.77183 4.74192,5.97203 1.8968,5.65778 -3.47735,2.5146 -1.58062,0 -6.9548,1.88589 -3.16125,-1.25727 -7.27089,2.20027 -5.37408,-0.31402 -3.16131,-3.45751 1.89675,-6.91504 -5.69027,-17.91632 -0.31567,-2.51452 -3.16129,-3.14317 -2.52899,-1.88588 -1.26453,-8.48677 -2.52896,0 -1.26446,-5.97204 -9.48376,-11.62986 -11.69666,-6.28643 -2.84511,-10.05815 z"
   style="fill:#ffffff;fill-opacity:1;fill-rule:nonzero;stroke:#808080;stroke-width:0.5;stroke-linecap:butt;stroke-linejoin:miter;stroke-miterlimit:4;stroke-dasharray:none;stroke-opacity:1" />
<path
   inkscape:label=""
   inkscape:connector-curvature="0"
   style="fill:#ffffff;fill-opacity:1;stroke:#808080;stroke-width:0.5;stroke-miterlimit:4;stroke-dasharray:none;stroke-opacity:1"
   id="EDUCACION_BAGUA_CAPITAL"
   d="m 146.8119,324.87243 -3.58037,-4.19869 -1.90529,0 -1.90528,0 1.33311,-1.5831 c 0.73318,-0.87084 1.33309,-1.66034 1.33309,-1.75477 0,-0.0944 -0.54963,-0.50016 -1.22138,-0.90181 -0.67168,-0.40153 -1.26543,-0.76094 -1.31935,-0.79837 -0.054,-0.0118 0.20272,-1.23884 0.57002,-2.66943 0.45944,-1.7893 0.66795,-3.63532 0.66795,-5.91425 l 0,-3.31312 2.69913,-2.67165 c 1.48453,-1.46948 2.97325,-3.17785 3.30844,-3.79656 l 0.60925,-1.12489 -1.17179,-2.06565 c -0.6444,-1.13613 -2.34342,-3.49808 -3.77536,-5.24871 -3.45449,-4.22324 -9.2689,-10.85883 -9.53694,-10.88379 -0.11733,-0.004 -0.85026,0.51039 -1.6285,1.15859 l -1.41498,1.17879 -0.10216,-1.01683 c -0.0996,-0.99038 -0.14411,-1.01673 -1.72783,-1.01673 l -1.62575,0 -0.7709,-1.73322 c -1.12747,-2.53482 -1.47313,-4.93539 -1.47313,-10.23158 l 0,-4.72162 4.39685,-4.36273 c 5.32385,-5.28258 5.35535,-5.38418 2.61452,-8.4384 -1.08995,-1.21449 -1.86126,-2.40431 -1.98547,-3.06249 -0.11721,-0.62073 0.39043,-5.4025 1.19921,-11.29917 l 1.40234,-10.22291 -0.74891,-5.5902 c -1.02877,-7.6797 -1.31439,-8.99136 -1.95669,-8.98707 -0.28836,0.001 -1.22114,0.21337 -2.07202,0.47041 l -1.54702,0.46673 0,-1.80858 0,-1.80845 2.11697,-1.92876 2.117,-1.92894 0,-3.3876 c 0,-2.45573 0.14196,-3.66003 0.51523,-4.37825 l 0.51519,-0.99053 0.88682,0.84477 c 0.48773,0.46464 1.01592,0.84475 1.17373,0.84475 0.15767,0 0.96197,-0.56597 1.78711,-1.25784 l 1.50016,-1.25763 1.57021,0.59253 c 0.86366,0.3258 1.62639,0.64855 1.69507,0.71692 0.0688,0.0681 -0.75869,0.76041 -1.83848,1.53819 -1.07975,0.77775 -1.89405,1.59316 -1.80955,1.81193 0.0845,0.21865 0.56147,1.85965 1.06016,3.64628 l 0.90675,3.24847 1.79988,0.19288 c 3.48691,0.37427 6.50986,1.16199 7.43786,1.93842 l 0.9115,0.7626 2.75058,-1.23213 c 2.73008,-1.22303 2.76207,-1.25123 4.28279,-3.78061 0.84275,-1.40167 1.68296,-2.79751 1.86707,-3.10175 0.31323,-0.51772 0.42778,-0.51919 1.77931,-0.006 l 1.4445,0.53233 -1.19452,2.21951 -1.19458,2.21951 0.67469,0.55402 c 0.37108,0.30485 1.14031,0.91845 1.70941,1.36371 l 1.03471,0.80949 -0.60491,2.29577 -0.60503,2.29587 1.33831,1.65431 1.33828,1.65428 2.0029,0.005 2.00287,0.005 0.59079,1.63379 0.59082,1.63369 1.62234,-0.0951 1.62229,-0.0946 1.28992,-3.60035 1.28987,-3.60047 2.96214,-0.22157 c 2.82365,-0.21144 4.97802,-0.56824 6.16365,-1.02063 0.43249,-0.16505 0.54393,-0.004 0.54393,0.75003 0,0.96046 1.22492,2.92412 2.55789,4.10035 0.60049,0.52991 0.69906,0.96779 0.69906,3.10638 l 0,2.48948 -1.17749,0.61771 -1.17745,0.6177 0.17552,2.78063 c 0.12933,2.04619 0.45154,3.49132 1.21974,5.47212 l 1.04394,2.6914 -0.7751,0.60256 c -0.42619,0.33115 -1.3796,0.99116 -2.11864,1.46646 l -1.34362,0.86402 -0.38646,3.42409 c -0.65314,5.78689 -1.64198,10.776 -2.52243,12.72665 l -0.84015,1.86134 1.30693,2.70836 c 0.71888,1.48954 1.68426,3.05791 2.1453,3.48534 0.46098,0.42739 1.44291,2.06255 2.18185,3.63346 1.22102,2.59585 1.4691,2.90978 2.7205,3.44325 l 1.37705,0.58681 0.41171,2.67432 c 0.54443,3.53621 1.76806,7.66462 2.97823,10.04828 l 0.97978,1.92987 -0.64505,1.25689 c -1.88046,3.66524 -5.99942,7.50509 -17.36081,16.18469 l -3.50121,2.67474 0,1.59797 0,1.59789 -2.22859,0 c -2.21096,0 -2.23339,0.003 -2.83968,1.12836 l -0.61117,1.12832 1.21125,2.2297 c 0.66621,1.2263 1.21126,2.30633 1.21126,2.40005 0,0.15591 -5.66948,4.40302 -8.00743,5.99757 -0.63566,0.43352 -1.95244,2.31519 -3.58263,5.11937 -2.01738,3.47023 -2.79001,4.521 -3.55474,4.8345 -2.26519,0.92867 -2.04166,1.0592 -5.86021,-3.41899 l 0,0 z" />
</svg>
