<?xml version="1.0" encoding="UTF-8" standalone="no"?>
<!--?xml version="1.0" encoding="UTF-8" standalone="no"?-->

<!--?xml version="1.0" encoding="UTF-8" standalone="no"?-->

<!--
************* Copyright (c) 2015 Pareto Softare, LLC DBA Simplemaps.com *******************		
************* Free for Commercial Use, full terms at  http://simplemaps.com/resources/svg-license ************
************* Attribution is appreciated! http://simplemaps.com ***************************
-->

<svg
   xmlns:dc="http://purl.org/dc/elements/1.1/"
   xmlns:cc="http://creativecommons.org/ns#"
   xmlns:rdf="http://www.w3.org/1999/02/22-rdf-syntax-ns#"
   xmlns:svg="http://www.w3.org/2000/svg"
   xmlns="http://www.w3.org/2000/svg"
   xmlns:sodipodi="http://sodipodi.sourceforge.net/DTD/sodipodi-0.dtd"
   xmlns:inkscape="http://www.inkscape.org/namespaces/inkscape"
   enable_background="new 0 0 1000 1585"
   height="549.01257"
   pretty_print="True"
   style="fill:none;stroke:#000000;stroke-linejoin:round"
   version="1.1"
   viewBox="0 0 354.46857 549.01257"
   width="354.46857"
   id="svg2"
   inkscape:version="0.91 r13725"
   sodipodi:docname="Ancash.svg"><sodipodi:namedview
   pagecolor="#ffffff"
   bordercolor="#666666"
   borderopacity="0.05098039"
   objecttolerance="10"
   gridtolerance="10"
   guidetolerance="10"
   inkscape:pageopacity="0"
   inkscape:pageshadow="2"
   inkscape:window-width="1920"
   inkscape:window-height="1017"
   id="namedview37"
   showgrid="false"
   inkscape:zoom="1.431634"
   inkscape:cx="-100.89172"
   inkscape:cy="300.83608"
   inkscape:window-x="-8"
   inkscape:window-y="-8"
   inkscape:window-maximized="1"
   inkscape:current-layer="svg2"
   showborder="true"
   fit-margin-top="10"
   fit-margin-left="10"
   fit-margin-right="10"
   fit-margin-bottom="10"
   borderlayer="false"
   inkscape:showpageshadow="false"
   inkscape:snap-to-guides="false"
   inkscape:snap-grids="false"
   showguides="false" />























utf-8<defs
   id="defs4">
  <style
     type="text/css"
     id="style6">path { fill-rule: evenodd; }utf-8utf-8</style>
</defs>























utf-8<metadata
   id="metadata8">
utf-8utf-8<views>
utf-8utf-8utf-8<view
   h="1585.21431143"
   padding="0"
   w="1000">
utf-8utf-8utf-8utf-8<proj
   flip="auto"
   id="robinson"
   lon0="-80.0286400104" />























utf-8utf-8utf-8utf-8<bbox
   h="307.01"
   w="193.79"
   x="-1203.32"
   y="0.49" />























utf-8utf-8utf-8</view>























utf-8utf-8</views>























utf-8<rdf:rdf>
  <cc:work
     rdf:about="">
    <dc:format>image/svg+xml</dc:format>
    <dc:type
       rdf:resource="http://purl.org/dc/dcmitype/StillImage" />
  </cc:work>
</rdf:rdf>
<rdf:rdf>
  <cc:work
     rdf:about="">
    <dc:format>image/svg+xml</dc:format>
    <dc:type
       rdf:resource="http://purl.org/dc/dcmitype/StillImage" />
    <dc:title />
  </cc:work>
</rdf:rdf>
<rdf:RDF>
  <cc:Work
     rdf:about="">
    <dc:format>image/svg+xml</dc:format>
    <dc:type
       rdf:resource="http://purl.org/dc/dcmitype/StillImage" />
    <dc:title />
  </cc:Work>
</rdf:RDF>
</metadata>























utf-8<path
   inkscape:label="UGEL SANTA"
   inkscape:connector-curvature="0"
   style="fill:#ffffff;fill-opacity:1;stroke:#808080;stroke-width:0.50000006;stroke-miterlimit:4;stroke-dasharray:none;stroke-opacity:1"
   id="EDUCACION_SANTA"
   d="m 81.465044,205.79845 c -0.315169,-0.99294 -5.041554,-3.55753 -7.491646,-4.06583 -1.292881,-0.26782 -1.695188,-0.6553 -2.870734,-2.76454 -1.632807,-2.92987 -1.651578,-3.06907 -0.410876,-3.06907 0.891484,0 1.038282,-0.32844 1.902839,-4.26098 0.515407,-2.3436 0.867388,-4.44349 0.782584,-4.66664 -0.08355,-0.22296 -1.693298,-1.72468 -3.574635,-3.33655 -3.241021,-2.7773 -3.526817,-2.9309 -5.451328,-2.9309 l -2.030932,0 0,-3.86882 0,-3.86864 -2.571387,-2.30409 c -1.414249,-1.2673 -3.774876,-2.88847 -5.245777,-3.60275 -1.470777,-0.71428 -2.742578,-1.34663 -2.825933,-1.40511 -0.08318,-0.0589 0.518116,-0.88803 1.337,-1.84308 0.81894,-0.9548 1.488933,-1.92496 1.488933,-2.15602 0,-0.23147 -0.579452,-1.01675 -1.287665,-1.74618 -0.941103,-0.96907 -1.300957,-1.73895 -1.337146,-2.85993 l -0.01478,-1.53388 2.826531,-0.72018 c 1.554465,-0.39675 2.97224,-0.87345 3.150445,-1.06104 0.538035,-0.566 1.581504,-7.82838 1.878306,-13.07194 0.268392,-4.73239 0.348456,-5.06811 2.043547,-8.45164 1.708371,-3.41099 1.841423,-3.55791 4.174389,-4.60289 2.616378,-1.17216 8.189959,-3.03443 12.507619,-4.17933 2.407584,-0.6386 2.900036,-0.95025 4.311866,-2.72918 1.508381,-1.90108 1.698699,-2.00833 3.556163,-2.00833 1.633065,0 1.962266,-0.12742 1.962266,-0.75778 0,-1.02168 0.958264,-1.81911 3.988265,-3.31939 2.446244,-1.21121 2.760329,-1.26183 7.837742,-1.26183 2.90913,0 5.46508,-0.17032 5.68021,-0.37743 0.23867,-0.23002 1.27042,-0.005 2.65364,0.53615 2.11594,0.85364 2.27115,1.01155 2.39054,2.43026 l 0.12757,1.51731 3.41874,0 3.4189,0 0.49365,-1.76016 0.49362,-1.76009 6.65685,0.13516 c 6.86076,0.14034 10.77807,0.53254 12.6943,1.27287 l 1.10024,0.42496 -2.08398,4.94606 -2.08433,4.94602 1.55959,3.71243 c 1.6246,3.8672 1.64154,4.23302 0.35055,7.59227 -0.11486,0.29752 0.3531,0.86208 1.05793,1.2779 1.17334,0.69177 1.2628,0.90951 1.2628,3.07424 l 0,2.32972 2.70679,1.69401 2.70687,1.69419 -0.28103,4.20395 -0.28127,4.20395 -4.58849,4.72294 c -2.52371,2.59753 -5.9113,6.10881 -7.52803,7.80297 l -2.93944,3.08007 -0.28338,3.59881 -0.28369,3.59888 1.43661,0.59889 c 1.68127,0.70147 2.75268,1.6741 2.75268,2.49975 0,0.44969 -0.63846,0.58672 -2.73035,0.58672 l -2.73025,0 0.23908,1.74531 c 0.13264,0.96004 0.3653,2.97201 0.51982,4.47119 0.26974,2.63174 0.33472,2.75647 1.87317,3.61976 0.87662,0.49196 1.59373,1.03238 1.59373,1.2015 0,0.1698 -0.53557,0.81992 -1.19038,1.44608 l -1.19042,1.13838 -5.70092,-0.89738 -5.70099,-0.89738 -3.49714,-2.97922 c -3.37839,-2.87805 -3.62737,-3.00918 -7.33383,-3.86033 -4.97172,-1.14173 -5.27319,-1.12425 -6.03741,0.35106 -0.74497,1.43761 -0.75455,1.44 -2.26082,0.55189 l -1.153542,-0.68014 -2.64359,2.63078 c -1.454062,1.44716 -3.861432,3.33787 -5.349937,4.20191 -2.373916,1.37769 -2.740811,1.75618 -2.986603,3.08004 -0.398855,2.14796 -2.532747,7.04635 -3.677238,8.44163 -0.948236,1.15588 -0.976557,1.16282 -1.251656,0.29753 l 0,0 z" />
<path
   inkscape:label="UGEL SIHUAS"
   inkscape:connector-curvature="0"
   style="fill:#ffffff;fill-opacity:1;stroke:#808080;stroke-width:0.50000006;stroke-miterlimit:4;stroke-dasharray:none;stroke-opacity:1"
   id="EDUCACION_SIHUAS"
   d="m 170.24946,72.29548 c 1.51804,-0.60859 3.1707,-1.30436 4.88195,-2.05977 l 5.00864,-2.21072 1.50028,-2.77208 1.50033,-2.77221 3.02679,0 3.02696,0 1.49924,-2.46359 c 0.88954,-1.46172 1.86379,-2.55246 2.39553,-2.68203 0.4927,-0.12061 2.65513,-0.54963 4.80467,-0.95433 l 3.90861,-0.73565 0.12873,-1.30497 c 0.11209,-1.14085 0.28161,-1.305 1.33717,-1.305 1.17387,0 1.20821,0.058 1.20821,2.03188 l 0,2.03197 2.12261,0.12385 2.1228,0.12398 0.75407,2.25886 c 1.7603,5.27287 1.98699,5.69304 3.14176,5.82731 1.1255,0.13073 1.50599,1.24489 4.32886,12.67446 0.19123,0.77471 0.90539,1.35622 2.73994,2.23153 l 2.48119,1.18382 0,2.35046 c 0,2.32113 0.006,2.37192 2.08166,4.09005 l 2.08172,1.73963 -2.59586,1.62356 c -3.03634,1.89903 -5.20603,3.84568 -5.70378,5.11787 -0.30399,0.7767 -0.71663,0.92114 -2.93015,1.02652 l -2.57632,0.12282 -1.11119,2.22398 c -1.0866,2.17407 -2.06358,5.51581 -2.60804,8.92062 -0.24335,1.51592 -0.1309,1.85895 1.03348,3.18296 l 1.30517,1.48381 -1.60197,0 c -1.34078,0 -2.27055,0.48794 -5.69971,2.99487 -2.25376,1.64711 -5.03618,3.67131 -6.18321,4.49803 l -2.08579,1.50304 -3.46851,-3.50249 0,0 9e-5,0 c -3.11963,-3.15 -8.18634,-7.49328 -10.00172,-8.57369 -0.62549,-0.37206 -0.50168,-0.9706 1.32293,-6.38979 l 2.01321,-5.97904 -1.03422,-2.02925 c -0.69961,-1.37273 -1.09984,-2.95923 -1.23654,-4.90392 l -0.2013,-2.87473 -2.90261,-3.28541 c -1.59652,-1.80707 -3.35988,-3.78948 -3.91851,-4.40525 -1.06364,-1.17255 -1.04855,-1.63973 0.20585,-6.37521 0.23795,-0.89886 0.15885,-0.92397 -2.88901,-0.92397 l -2.75254,0 z" />
<path
   inkscape:label="UGEL CORONGO"
   inkscape:connector-curvature="0"
   style="fill:#ffffff;fill-opacity:1;stroke:#808080;stroke-width:0.50000006;stroke-miterlimit:4;stroke-dasharray:none;stroke-opacity:1"
   id="EDUCACION_CORONGO"
   d="m 168.32844,73.15846 0,1.64283 c 0,0.9034 0.0706,1.64264 0.15542,1.64264 0.0856,0 0.84611,-0.28827 1.69016,-0.64006 1.82282,-0.7602 2.0162,-0.65196 1.45739,0.81529 -0.2329,0.61066 -0.42329,1.33618 -0.42329,1.61228 0,0.27535 1.82885,3.03483 4.06418,6.1309 l 4.06408,5.62944 -0.66374,1.84234 -0.66366,1.84245 2.17713,2.20058 2.17729,2.20068 -1.3604,0.38759 c -1.16637,0.33099 -1.37716,0.59046 -1.47692,1.81148 -0.32191,3.94756 -0.94051,5.6667 -2.56684,7.13322 -0.8841,0.79718 -2.54736,1.92493 -3.69656,2.50621 l -2.08911,1.05677 -1.19007,-0.8459 -1.19001,-0.84584 -6.85134,1.71157 c -4.87753,1.2184 -6.91157,1.90128 -7.05993,2.3703 -0.65023,2.05652 -1.13211,2.9093 -2.58234,4.56968 l -1.6057,1.8384 -5.07462,-5.03069 -5.07444,-5.03101 -4.35492,0 c -2.39505,0 -5.75505,-0.11794 -7.46653,-0.26221 l -3.11187,-0.26218 -1.27022,-2.87059 c -0.69856,-1.5787 -1.2702,-3.01707 -1.2702,-3.19635 0,-0.17942 0.63081,-0.53359 1.40174,-0.78756 0.77108,-0.25346 5.43056,-2.85508 10.3545,-5.78031 l 8.95265,-5.31846 1.2684,-2.8621 1.2682,-2.86202 5.19676,-2.31674 5.1965,-2.31689 0.71503,-2.63683 c 0.73462,-2.70912 1.39496,-3.42804 3.1617,-3.443 0.90665,-0.003 3.68804,-0.91829 7.28612,-2.34743 z" />
<path
   inkscape:label="UGEL HUAYLAS"
   inkscape:connector-curvature="0"
   style="fill:#ffffff;fill-opacity:1;stroke:#808080;stroke-width:0.50000006;stroke-miterlimit:4;stroke-dasharray:none;stroke-opacity:1"
   id="EDUCACION_HUAYLAS"
   d="m 147.12292,192.59176 -6.28086,-1.02511 -1.78166,0.64007 -1.78172,0.63995 -2.6149,-1.39354 c -1.43816,-0.76651 -2.63353,-1.40771 -2.65656,-1.42504 -0.0624,-0.009 0.77162,-5.62255 0.85429,-5.70516 0.008,-0.008 0.97603,-0.2078 2.08094,-0.37213 2.76374,-0.41328 3.89764,-0.9159 3.90755,-1.72907 0.002,-0.48406 -1.71292,-2.13507 -4.11667,-3.95546 -1.30372,-0.98721 -2.37034,-1.82499 -2.37034,-1.86141 0,-0.23775 0.97059,-2.58641 1.32334,-3.20157 1.27861,-2.2309 4.96724,-6.79314 10.85109,-13.42137 l 3.08888,-3.47958 0.32292,-4.74356 0.32231,-4.74346 -3.24349,-4.77435 c -1.78415,-2.62562 -3.24368,-4.83948 -3.24368,-4.91951 0,-0.0803 0.26897,-0.58148 0.59719,-1.11442 l 0.5973,-0.96881 -2.05341,-4.89838 -2.05316,-4.89825 2.13647,-4.13174 c 1.1751,-2.27242 2.19755,-4.10947 2.27228,-4.08241 0.0743,0.006 1.10516,1.22478 2.28972,2.66147 2.46185,2.9861 4.74976,5.32402 5.41706,5.53536 0.30596,0.097 0.59426,0.005 0.87306,-0.23174 0.66795,-0.60353 2.13926,-3.11979 3.43647,-5.87772 l 1.20358,-2.55869 3.05726,-0.95827 c 1.68154,-0.52735 3.99417,-1.25134 5.13918,-1.60944 l 2.08195,-0.65119 2.63603,0.66768 c 1.44964,0.36805 2.78067,0.66773 2.95781,0.66773 0.1761,0 1.46649,-0.61604 2.86533,-1.36895 l 2.54327,-1.36883 2.78012,2.86419 c 4.7796,4.92404 8.11226,7.68963 12.93408,10.73308 1.32416,0.83576 2.4287,1.53745 2.45451,1.55917 0.006,0.005 -0.23236,1.85629 -0.57337,4.07661 -0.70994,4.61983 -1.68998,9.52684 -2.29834,11.50821 -0.22928,0.74702 -0.41761,1.42887 -0.41843,1.51516 -9e-4,0.0865 0.98746,0.1568 2.19652,0.1568 1.20903,0 2.1982,0.0845 2.1982,0.18788 0,0.1027 -0.19755,0.83159 -0.43944,1.61941 -0.6019,1.96265 -1.71248,4.01656 -2.91085,5.38378 -1.36893,1.56126 -2.0727,3.09409 -2.83781,6.18006 l -0.64889,2.61673 -1.135,0.11416 c -1.44574,0.14371 -2.7689,0.82788 -6.11514,3.15839 -3.46346,2.4122 -4.9553,3.21788 -6.71029,3.62433 -1.94347,0.44955 -2.83687,0.81882 -5.16708,2.13369 l -1.99276,1.12447 0.001,7.77509 c 0.002,7.45767 -0.18209,10.34154 -0.72586,11.21865 -0.1394,0.22543 -2.31109,-0.1053 -6.22117,-0.94426 -0.36972,-0.0793 -0.69188,0.18731 -1.62931,1.34474 -0.64258,0.7938 -1.65989,1.77991 -2.26069,2.19127 -1.2497,0.85555 -3.26256,1.60436 -4.21325,1.56736 -0.35664,-0.004 -3.47401,-0.4865 -6.92842,-1.05034 z" />
<path
   inkscape:label="UGEL POMABAMBA"
   inkscape:connector-curvature="0"
   style="fill:#ffffff;fill-opacity:1;stroke:#808080;stroke-width:0.50000006;stroke-miterlimit:4;stroke-dasharray:none;stroke-opacity:1"
   id="EDUCACION_POMABAMBA"
   d="m 206.38253,145.68176 c -1.94606,-0.3924 -4.24584,-1.13396 -6.59473,-2.12559 -1.49704,-0.6319 -2.74843,-1.17011 -2.7812,-1.1958 -0.10134,-0.0795 0.37005,-2.00443 0.93389,-3.81529 0.29669,-0.95035 0.92111,-2.3609 1.38928,-3.13478 l 0.85133,-1.40687 -0.35525,-4.59536 -0.35478,-4.59525 3.09249,-3.0869 3.09252,-3.08695 1.92444,-0.31154 c 1.05845,-0.17085 2.37602,-0.46167 2.92793,-0.64628 1.07061,-0.35815 2.32207,-1.19341 2.50652,-1.6731 0.0647,-0.16676 -0.51598,-1.03602 -1.36608,-2.04368 l -1.47816,-1.75219 1.35103,-4.8417 c 0.74304,-2.66313 1.3509,-4.87178 1.3509,-4.90807 0,-0.008 0.43281,-0.11509 0.9621,-0.17455 1.11869,-0.1264 2.87287,-1.24391 5.83596,-3.71999 3.88242,-3.24388 5.73922,-4.37657 7.1751,-4.37657 0.87914,0 0.89151,-0.003 0.89151,-0.7315 0,-0.40131 0.009,-0.73123 0.0948,-0.73123 0.0526,0 0.68792,0.40753 1.41308,0.9049 2.12294,1.45732 2.80838,1.81989 3.73881,1.97843 l 0.8777,0.14997 1.03759,2.92444 c 1.48157,4.17585 2.04561,6.80865 2.04802,9.55945 l 0.001,2.24646 1.98485,0 c 1.88842,0 1.98992,0.005 2.08767,0.47029 0.3324,1.51632 1.39757,7.93194 1.32951,7.99983 -0.009,0.009 -0.31133,-0.33794 -0.59146,-0.85068 -0.28042,-0.51242 -0.55902,-0.93122 -0.61899,-0.93019 -0.0596,10e-4 -3.72283,1.95593 -8.13962,4.34409 l -8.03059,4.34228 -1.39054,3.07002 -1.39053,3.07004 -1.99231,0.002 -1.99206,0.002 -0.46804,2.14883 c -0.25686,1.18176 -0.46801,2.29292 -0.46801,2.46916 0,0.17636 2.08464,2.195 4.63268,4.48624 l 4.63264,4.1662 -0.91648,0.1409 c -1.11675,0.17258 -18.50117,0.39962 -19.23557,0.25169 z" />
<path
   inkscape:label=""
   inkscape:connector-curvature="0"
   style="fill:#ffffff;fill-opacity:1;stroke:#808080;stroke-width:0.50000006;stroke-miterlimit:4;stroke-dasharray:none;stroke-opacity:1"
   id="EDUCACION_MARISCAL_LUZURIAGA"
   d="m 209.85898,157.60239 c -1.15141,-0.87083 -2.21104,-1.65038 -2.35463,-1.7322 -0.20084,-0.11498 -0.0619,-1.14127 0.6047,-4.4678 l 0.86583,-4.31888 1.55168,1.28112 c 0.8533,0.70458 1.59953,1.35861 1.65822,1.45341 0.22536,0.3631 0.67314,0.12775 2.25639,-1.18614 l 1.63684,-1.35822 6.62569,-0.001 c 7.44681,-0.001 9.30299,-0.17206 10.04359,-0.9104 l 0.4871,-0.48436 -3.94651,-3.95016 c -4.46216,-4.46642 -5.77041,-6.19059 -5.67312,-7.47716 l 0.0622,-0.82048 2.61308,-0.85636 2.6132,-0.85665 0.78631,-2.52558 0.78636,-2.52579 3.82341,-1.82689 c 5.99196,-2.86324 9.19626,-4.92698 9.62021,-6.19641 0.0685,-0.20285 0.46601,-0.009 1.43873,0.56708 1.2429,0.78464 1.37769,0.94425 1.77957,2.10918 0.61662,1.78774 3.00593,5.75105 4.60376,7.63678 1.325,1.56384 4.52847,8.35768 5.44073,11.53882 0.46036,1.60555 1.18722,3.06084 2.21344,4.432 l 0.81446,1.08823 -0.88986,0.51953 c -1.54492,0.90178 -4.06166,1.55245 -10.2064,2.63812 -7.6852,1.35796 -12.77731,2.29095 -13.25062,2.42777 -0.20667,0.0601 -1.76081,1.42289 -3.45435,3.02939 l -3.07931,2.92106 -3.2451,-0.12679 c -4.60161,-0.17943 -8.49933,0.2334 -13.6084,1.4412 -0.4245,0.10018 -0.91945,-0.17491 -2.61696,-1.45962 z" />
<path
   inkscape:label=""
   inkscape:connector-curvature="0"
   style="fill:#ffffff;fill-opacity:1;stroke:#808080;stroke-width:0.50000006;stroke-miterlimit:4;stroke-dasharray:none;stroke-opacity:1"
   id="EDUCACION_HUARI"
   d="m 257.6207,282.68213 c -1.82458,-0.3952 -4.57188,-1.2922 -6.10489,-1.9928 l -2.78761,-1.27392 0.88829,-6.51806 0.8881,-6.51819 -1.27661,-1.5284 c -2.9252,-3.50133 -7.55404,-14.64508 -9.89734,-23.82659 -0.72588,-2.84477 -1.3221,-5.34177 -1.32489,-5.54882 -0.001,-0.20757 0.73007,-1.21183 1.62792,-2.23251 l 1.63264,-1.85623 -1.9593,-3.55706 -1.95947,-3.5571 0.36184,-6.05285 c 0.51006,-8.53361 0.46698,-8.42133 3.23887,-8.42133 2.03105,0 2.34579,-0.16044 2.64275,-1.34073 0.18586,-0.73738 0.18738,-2.27687 0.001,-3.42119 -0.31352,-1.95929 -0.25603,-2.08039 0.99111,-2.08039 1.15615,0 1.32444,-0.22844 1.32444,-1.79873 0,-1.4306 0.61381,-2.50764 2.99995,-5.26338 2.81384,-3.24949 3.13843,-3.46469 5.22812,-3.46469 2.08331,0 2.35683,0.17905 4.21745,2.76335 1.09425,1.51961 2.0153,2.81371 2.04671,2.87538 0.008,0.0617 1.35129,-0.23218 2.93275,-0.65169 1.58158,-0.41981 3.1633,-0.7667 3.51486,-0.77005 0.44275,-0.001 0.68572,1.46224 0.79092,4.79173 l 0.15018,4.79801 4.05236,2.33506 c 2.22874,1.28431 4.83884,2.45008 5.80018,2.59064 1.70704,0.24968 1.82001,0.14238 4.84888,-4.63282 2.7978,-4.41048 3.21662,-5.45522 4.28067,-10.67834 0.64858,-3.18435 1.48398,-7.84848 1.85646,-10.36463 l 0.6773,-4.57509 3.92025,2.14755 c 2.15607,1.18134 6.45021,3.02931 9.5426,4.10693 5.35374,1.86544 5.70261,2.07909 7.30139,4.47383 0.92351,1.38311 2.38918,3.84436 3.25698,5.46959 l 1.57773,2.95496 -0.96533,7.5362 c -0.53077,4.145 -1.07464,7.64549 -1.20833,7.77879 -0.13396,0.13395 -2.05462,-1.44621 -4.26879,-3.51038 -3.95727,-3.68903 -4.02588,-3.79679 -4.02588,-6.33266 0,-2.35223 -0.10906,-2.57956 -1.2314,-2.57956 -1.72012,0 -5.89014,4.25176 -7.72131,7.87282 -0.82299,1.62715 -2.94173,4.90459 -4.70838,7.28297 -3.18139,4.28303 -3.21207,4.35822 -3.21207,7.85453 0,3.11956 -0.1514,3.65455 -1.30889,4.60238 l -1.30872,1.07241 0.81417,5.03996 0.81418,5.03988 -7.93627,7.81249 -7.93612,7.81245 2.46861,4.5166 c 2.4199,4.42761 2.46604,4.59974 2.33293,8.72732 -0.13022,4.05357 -0.20767,4.2844 -2.05414,6.18448 -1.61224,1.65867 -2.26915,1.97379 -4.11576,1.97379 -2.15406,0 -2.21018,0.009 -2.86159,2.36843 l -0.66422,2.36863 -2.43616,-0.009 c -1.33979,-0.005 -3.92884,-0.36501 -5.75342,-0.76106 l 0,0 z" />
<path
   inkscape:label=""
   inkscape:connector-curvature="0"
   style="fill:#ffffff;fill-opacity:1;stroke:#808080;stroke-width:0.50000006;stroke-miterlimit:4;stroke-dasharray:none;stroke-opacity:1"
   id="EDUCACION_ANTONIO_RAYMONDI"
   d="m 264.72378,158.63831 c 2.54955,2.99297 4.1943,4.14681 6.02008,4.43828 1.83651,0.29298 2.66895,0.95372 6.17682,4.90119 3.97059,4.46829 4.12908,4.58035 7.68298,5.43567 1.99573,0.48036 3.76162,1.0061 3.92418,1.16851 0.16262,0.16205 -0.49166,2.835 -1.45336,5.93936 -0.96183,3.10455 -2.14643,7.43816 -2.63254,9.62993 -0.59884,2.70086 -1.69842,5.37218 -3.4117,8.28947 -1.39047,2.36733 -2.68352,4.39845 -2.87351,4.51327 -0.18946,0.11508 -1.91463,-0.58242 -3.83241,-1.5496 l -3.48678,-1.7586 -0.87228,-4.75885 c -0.70013,-3.82068 -0.74447,-4.96327 -0.2238,-5.79493 1.09963,-1.75766 -0.003,-1.90705 -3.99206,-0.53596 l -3.82183,1.31664 -1.59251,-2.11644 c -1.48195,-1.96953 -1.54388,-2.22614 -0.89049,-3.69551 0.45155,-1.01576 0.59482,-2.56474 0.40045,-4.34233 l -0.30069,-2.76319 1.61998,0 c 0.89079,0 1.61976,-0.19231 1.61976,-0.42935 0,-0.49651 -0.95865,-6.1102 -1.3425,-7.86008 -0.23361,-1.06836 -0.0609,-1.18428 1.77524,-1.18428 1.90728,0 2.07853,-0.13313 2.73265,-2.11078 0.75329,-2.27815 0.51118,-3.12975 -1.64555,-5.78419 z" />
<path
   inkscape:label=""
   inkscape:connector-curvature="0"
   style="fill:#ffffff;fill-opacity:1;stroke:#808080;stroke-width:0.50000006;stroke-miterlimit:4;stroke-dasharray:none;stroke-opacity:1"
   id="EDUCACION_CARLOS_FITZCARRALD"
   d="m 263.23436,158.27032 0.33751,2.10546 c 0.18586,1.15776 0.45984,2.61399 0.60914,3.23591 0.23286,0.97025 -0.004,1.17916 -1.76051,1.47319 -3.37232,0.56877 -3.48103,0.74495 -2.81108,4.55574 0.32599,1.85195 0.70523,3.75309 0.84365,4.22492 0.18041,0.61659 -0.36293,1.1033 -1.93466,1.73097 -2.07412,0.82841 -2.16788,0.95993 -1.82685,2.56342 1.11261,5.23147 1.26107,4.84684 -2.15983,5.59156 -2.55571,0.55618 -3.55222,1.12609 -5.80643,3.32077 l -2.72115,2.64933 -2.95499,-2.40262 c -1.62515,-1.32157 -3.42596,-2.55208 -4.00168,-2.73425 -0.76845,-0.24384 -1.04683,-0.79832 -1.04683,-2.0859 0,-1.67006 -0.12694,-1.78453 -2.63646,-2.38555 l -2.63637,-0.63145 0,-10.14706 0,-10.1473 1.45006,-0.57611 c 3.8806,-1.5423 13.63,-3.86976 18.53452,-4.42497 4.49951,-0.50929 5.52851,-0.78904 5.72992,-1.55807 0.13449,-0.5157 0.39632,-0.92717 0.57959,-0.91498 0.18301,0.003 1.52033,1.58457 2.97037,3.49432 0.74114,0.9762 1.41675,1.8394 2.03974,2.60132 z" />
<path
   inkscape:label="UGEL YUNGAY"
   inkscape:connector-curvature="0"
   style="fill:#ffffff;fill-opacity:1;stroke:#808080;stroke-width:0.50000006;stroke-miterlimit:4;stroke-dasharray:none;stroke-opacity:1"
   id="EDUCACION_YUNGAY"
   d="m 139.23047,220.27001 c -0.64741,-0.77341 -1.33886,-1.6145 -1.53642,-1.86902 -0.31709,-0.40802 -0.14626,-0.7184 1.44953,-2.62753 1.70118,-2.03607 1.77862,-2.18576 1.30247,-2.52086 -0.27758,-0.19664 -1.8946,-1.37464 -3.59175,-2.61916 l -3.08558,-2.26276 -0.0719,-5.89838 -0.0716,-5.89834 1.24976,-0.17102 c 1.76169,-0.24063 6.37821,-0.21052 12.17595,0.0814 2.73025,0.13629 6.65424,0.32679 8.7204,0.4198 l 3.75644,0.17105 1.69053,-2.32446 c 1.23423,-1.69702 1.81353,-2.28844 2.14641,-2.19114 0.25091,0.0725 1.25342,0.43955 2.22792,0.81417 l 1.77164,0.68079 2.0524,-1.6569 2.05221,-1.65689 -0.0678,-8.2858 -0.0676,-8.28592 1.12368,-0.8588 c 0.61825,-0.47222 1.7048,-1.06404 2.41495,-1.31489 2.77914,-0.9812 4.65402,-1.82094 6.55415,-2.93517 1.88548,-1.10565 8.08662,-5.33408 9.72914,-6.63451 0.42373,-0.33592 1.05435,-0.78681 1.39991,-1.00227 0.58139,-0.3619 0.63397,-0.59177 0.70412,-3.0734 l 0.0755,-2.682 1.86959,-0.71705 1.86936,-0.71682 0.78342,-2.36971 c 0.43064,-1.30326 0.83202,-2.42464 0.89148,-2.49202 0.0595,-0.0679 0.62514,0.15766 1.2566,0.50353 l 1.14838,0.62605 -0.7533,4.0495 c -0.41457,2.22704 -0.8141,4.30726 -0.88855,4.6223 -0.12063,0.50827 0.23579,0.73909 3.14931,2.04651 l 3.28462,1.47348 10.33015,-1.12005 10.33019,-1.11996 0.0747,3.86487 c 0.009,2.12565 0.003,3.9274 -0.0648,4.0041 -0.0778,0.0762 -2.28363,-0.0622 -4.90415,-0.3083 -2.62062,-0.24533 -4.9759,-0.44681 -5.2341,-0.44416 -0.40294,0.001 -0.47045,0.27675 -0.47428,1.94532 l -10e-4,1.94165 -3.14833,1.64793 -3.1483,1.64772 -2.07894,-1.0482 c -2.62534,-1.32357 -4.79881,-1.83669 -7.80144,-1.84166 l -2.36753,-0.001 -1.38894,1.53444 c -0.76396,0.84391 -1.83184,2.0218 -2.3732,2.6176 l -0.98432,1.08325 1.7262,2.73881 1.72623,2.73853 -1.49183,3.27992 c -0.82041,1.8039 -1.57806,3.366 -1.68349,3.47133 -0.10553,0.10607 -1.37868,-0.18616 -2.82913,-0.64544 -1.88892,-0.59934 -2.69144,-0.74948 -2.82797,-0.5291 -0.10586,0.16983 -0.46811,1.45489 -0.80621,2.85654 -0.58949,2.44036 -0.64641,2.54854 -1.34184,2.54854 -0.99246,0 -1.37012,-0.45785 -1.37012,-1.66061 0,-0.55985 -0.11636,-1.01774 -0.25955,-1.01774 -0.37574,0 -4.62766,2.67301 -5.12228,3.21961 -0.22951,0.25338 -0.64356,1.44869 -0.91953,2.65459 -0.3035,1.32682 -0.66841,2.27728 -0.92364,2.40715 -0.23219,0.11745 -1.5266,0.4829 -2.87664,0.81055 l -2.45448,0.59639 -0.8324,3.3177 c -0.45782,1.82469 -0.8323,3.36698 -0.8323,3.42737 0,0.0609 1.02629,0.8541 2.2808,1.76374 1.25431,0.90961 2.28064,1.76373 2.28064,1.89762 0,0.1338 -0.80299,2.05527 -1.78435,4.26956 l -1.7843,4.02589 -4.21038,0 -4.21037,0 -0.33842,-1.13833 c -0.77624,-2.60144 -0.46314,-2.5971 -4.84333,-0.0678 -4.45783,2.57443 -3.7766,2.67145 -5.99906,-0.85459 l -1.38306,-2.1942 -4.36913,3.33262 c -2.40294,1.83275 -4.47023,3.33252 -4.59411,3.33252 -0.12386,0 -0.75476,-0.63278 -1.40215,-1.40614 z" />
<path
   inkscape:label=""
   inkscape:connector-curvature="0"
   style="fill:#ffffff;fill-opacity:1;stroke:#808080;stroke-width:0.50000006;stroke-miterlimit:4;stroke-dasharray:none;stroke-opacity:1"
   id="EDUCACION_ASUNCION"
   d="m 233.56988,205.18365 c -3.41916,-2.21173 -12.44856,-5.4456 -16.58277,-5.93919 l -2.73588,-0.32713 0,-1.01263 0,-1.01248 -1.35022,0 c -0.74271,0 -1.76114,-0.17119 -2.26348,-0.3806 -0.79875,-0.33323 -0.98181,-0.60256 -1.46072,-2.14984 -0.30134,-0.973 -0.87022,-3.38832 -1.26463,-5.36769 l -0.71741,-3.59841 1.61018,-1.71823 c 1.72334,-1.83905 2.76304,-3.65034 2.76304,-4.81421 0,-0.70998 0.005,-0.71882 1.83603,-0.71882 l 1.83599,0 2.12231,-2.46634 c 3.46712,-4.02929 4.83365,-4.57004 8.9833,-3.55489 l 1.85803,0.45448 10e-4,3.6539 0.001,3.65387 1.13814,0.64417 c 2.22043,1.25677 6.11018,4.43126 10.77437,8.79316 l 2.12306,1.98562 -0.29853,1.60947 c -0.1651,0.88516 -0.72798,2.47422 -1.25104,3.53109 -0.80222,1.62055 -0.95124,2.20162 -0.95124,3.7096 l 0,1.7882 -2.39208,-0.15494 -2.3921,-0.15431 0.15004,2.18096 c 0.0834,1.21696 0.009,2.17314 -0.0902,2.16355 -0.13277,-0.003 -0.78295,-0.36911 -1.44714,-0.79835 z" />
<path
   inkscape:label="UGEL HUARAZ"
   inkscape:connector-curvature="0"
   style="fill:#ffffff;fill-opacity:1;stroke:#808080;stroke-width:0.50000006;stroke-miterlimit:4;stroke-dasharray:none;stroke-opacity:1"
   id="EDUCACION_HUARAZ"
   d="m 165.26375,274.27418 -3.92234,-2.06528 -6.27358,0.21686 c -3.45043,0.11805 -6.88813,0.22296 -7.63934,0.23196 l -1.36593,0.004 -1.78675,-2.13089 c -0.98274,-1.17176 -1.78693,-2.17711 -1.78693,-2.23402 0,-0.0565 0.72442,-0.32187 1.60998,-0.59002 l 1.60991,-0.48638 0,-1.96644 c 0,-1.39445 -0.0967,-1.96642 -0.3358,-1.96655 -0.18416,-3e-5 -1.93763,0.31896 -3.896,0.70883 -1.95838,0.38963 -3.62998,0.63973 -3.71486,0.55502 -0.39884,-0.39759 0.34124,-1.85334 1.93437,-3.808 6.54991,-8.03547 7.21925,-9.03134 7.21925,-10.73914 0,-0.90006 -0.16816,-1.3188 -0.78502,-1.96217 -0.4315,-0.44957 -1.00527,-0.88783 -1.27448,-0.97308 -0.42976,-0.13628 -0.48975,-0.47605 -0.48975,-2.81526 0,-1.46312 0.0573,-2.66036 0.12747,-2.66036 0.0713,0 0.93702,0.30432 1.92578,0.67558 1.08933,0.40881 1.86191,0.57186 1.96066,0.4121 0.0905,-0.14356 0.50272,-1.65374 0.91804,-3.35385 l 0.75508,-3.09085 1.18101,0 1.18092,0 0,-2.74897 0,-2.74924 3.42704,-3.4132 3.42703,-3.41323 1.83356,1.51912 1.8334,1.51905 4.59999,-0.32678 c 6.68494,-0.47419 5.94457,-0.0552 6.30252,-3.56482 0.16665,-1.63608 0.34199,-3.01248 0.38831,-3.05884 0.009,-0.009 1.94964,0.1498 4.22943,0.43549 2.27971,0.28597 4.1814,0.52305 4.22607,0.52731 0.009,0.001 0.004,1.00204 -0.0706,2.21725 l -0.1505,2.20959 3.29009,3.03143 3.29017,3.03146 0.0777,-2.28379 0.0775,-2.28382 2.03337,-0.0774 2.0332,-0.0777 0.74312,-1.87484 0.74291,-1.87472 1.53942,-0.19568 c 1.75111,-0.22227 2.27861,-0.54852 2.27861,-1.40981 0,-0.56018 0.15452,-0.61553 2.2135,-0.79383 3.05541,-0.26377 7.48096,-1.00503 14.54313,-2.43387 l 5.99998,-1.21405 2.31345,1.50532 c 2.83251,1.84307 5.02325,2.75728 7.13434,2.97757 l 1.60347,0.16572 0.002,2.57325 0.002,2.57308 1.33618,0.79182 c 0.73492,0.43601 1.33614,0.86827 1.33614,0.96136 0,0.0925 -0.94982,0.85217 -2.11076,1.68648 l -2.11076,1.5171 1.06367,2.87835 c 1.37521,3.72125 1.77664,5.79992 1.99166,10.31066 0.17092,3.59225 0.18941,3.68259 0.78113,3.68259 0.95189,0 1.81394,1.29483 3.03398,4.55668 0.61966,1.65702 1.09222,3.04462 1.05007,3.08343 -0.50638,0.46699 -3.94239,1.54512 -5.89769,1.85061 -8.28652,1.29463 -15.67887,1.22958 -23.89433,-0.21054 -1.50969,-0.26486 -2.14129,-0.28299 -2.30702,-0.0684 -0.12464,0.16315 -0.85908,1.4723 -1.63034,2.91015 l -1.40216,2.61392 -5.89425,-5.69403 c -3.24182,-3.13178 -6.04024,-5.71866 -6.21862,-5.74834 -0.17862,-0.007 -2.25358,2.16956 -4.61156,4.88777 l -4.28721,4.9423 -2.96383,0 -2.96385,0 -0.31161,1.94188 c -0.17626,1.09423 -1.10938,4.03023 -2.14003,6.72818 l -1.82853,4.78666 -1.61002,0.59602 -1.60981,0.59607 -3.92247,-2.06532 0,0 z" />
<path
   inkscape:label=""
   inkscape:connector-curvature="0"
   style="fill:#ffffff;fill-opacity:1;stroke:#808080;stroke-width:0.50000006;stroke-miterlimit:4;stroke-dasharray:none;stroke-opacity:1"
   id="EDUCACION_CARHUAZ"
   d="m 185.07,220.58722 -1.26985,-4.01741 -4.15421,0 -4.15406,0 0,-1.14322 c 0,-1.21187 -0.63509,-2.3844 -2.30924,-4.26436 -1.11422,-1.25113 -1.71551,-2.40699 -1.71551,-3.29731 0,-0.76358 -0.17077,-0.66894 4.29821,-2.37808 l 2.55402,-0.97699 1.31302,-3.4802 c 1.16598,-3.0903 1.36072,-3.44007 1.73901,-3.12264 2.01251,1.68801 3.1718,2.59301 3.32223,2.59301 0.0986,0 1.14944,-1.44635 2.3358,-3.21407 1.18651,-1.76778 2.24538,-3.21205 2.35306,-3.20941 0.10663,0.001 1.10158,0.24129 2.20832,0.53112 1.10685,0.28943 2.14031,0.52845 2.29657,0.53105 0.15655,0.001 1.03907,-1.84426 1.96183,-4.10392 l 1.6776,-4.1084 -0.91579,-2.81932 -0.91592,-2.81915 1.59149,-1.91074 1.59141,-1.91084 1.57867,0 c 1.9707,0 3.84802,0.71547 6.11532,2.33039 l 1.71058,1.21843 -2.35995,2.36664 -2.35972,2.36647 0.31258,3.29143 c 0.20142,2.13624 0.74015,4.97713 1.53193,8.09521 0.67101,2.64205 1.24883,4.83252 1.28372,4.86736 0.008,0.008 0.93829,-0.27621 2.00704,-0.69139 l 1.94352,-0.75471 0,1.27054 0,1.27062 2.48192,0.16621 c 2.69719,0.17924 6.94745,1.24301 13.21471,3.30535 2.06594,0.67995 3.78627,1.25958 3.82274,1.288 0.14108,0.11138 0.65312,9.82544 0.52432,9.95387 -0.23315,0.23271 -2.35064,-0.95919 -5.40349,-3.04472 l -2.93448,-2.00476 -1.76665,0.17345 c -0.97159,0.0962 -3.69583,0.59884 -6.05415,1.11826 -11.15798,2.45758 -10.47968,2.34904 -14.7922,2.36663 l -4.0652,0.004 -0.1306,0.97027 c -0.21527,1.59846 -1.80272,3.76273 -3.67537,5.01094 -1.34851,0.89909 -4.49451,2.18755 -5.34064,2.18755 -0.1,0 -0.75359,-1.8076 -1.45212,-4.0173 z" />
<path
   inkscape:label=""
   inkscape:connector-curvature="0"
   style="fill:#ffffff;fill-opacity:1;stroke:#808080;stroke-width:0.50000006;stroke-miterlimit:4;stroke-dasharray:none;stroke-opacity:1"
   id="EDUCACION_BOLOGNESI"
   d="m 255.69249,373.76024 c 0.20516,-0.62848 1.75918,-10.44863 1.75383,-11.08383 -0.001,-0.31249 -1.52291,-1.23023 -4.95586,-2.9943 l -4.95194,-2.54445 -0.29635,-1.47324 c -1.11422,-5.55128 -2.32148,-8.83803 -3.24628,-8.83803 -0.11637,0 -1.41126,0.84353 -2.87668,1.87432 -1.46549,1.03144 -2.81499,1.87504 -2.9988,1.87504 -0.28245,0 -1.84623,-0.91218 -4.45542,-2.59845 -0.54689,-0.35324 -0.66461,-0.24864 -2.41475,2.16303 l -1.83991,2.53494 -2.7182,-1.45514 -2.71806,-1.4549 -3.97539,0.69364 c -2.7665,0.4828 -4.08362,0.83029 -4.3316,1.1421 -2.06822,2.60143 -3.01261,4.54267 -3.02072,6.21025 -0.002,1.19121 -0.0567,1.25947 -3.42697,4.59188 l -3.42093,3.38241 -4.21351,0.51144 -4.21355,0.51141 0.1359,-1.08555 c 0.0749,-0.59701 0.22815,-1.89781 0.34193,-2.89065 l 0.20542,-1.80521 -2.5678,-3.20773 c -1.41226,-1.76444 -2.67076,-3.2119 -2.79688,-3.21647 -0.12642,0 -1.16838,0.77346 -2.31678,1.7292 l -2.08792,1.73817 -1.6749,-1.33652 c -1.14031,-0.90983 -1.9226,-1.3365 -2.4509,-1.3365 -0.70796,0 -0.76125,-0.0661 -0.60917,-0.73632 0.53349,-2.35588 1.40372,-4.82549 2.59569,-7.36558 l 1.35116,-2.87923 1.23522,10e-4 c 1.68191,0 3.07602,0.42543 4.02226,1.21908 1.16386,0.97758 2.82961,1.6311 5.38347,2.11115 l 2.26751,0.42677 1.42184,-1.4014 1.42179,-1.4016 0.004,-2.68766 0.004,-2.68723 3.09213,-2.82431 3.09211,-2.82431 3.75677,0.44959 3.75661,0.4487 3.75642,-1.31051 3.75629,-1.31062 1.7278,1.51438 c 0.95038,0.83257 1.78625,1.45582 1.85743,1.38483 0.0716,-0.0719 0.35125,-0.78125 0.62263,-1.57832 l 0.49316,-1.4489 3.77372,-0.0755 3.77368,-0.074 1.6705,2.01572 c 0.9188,1.10888 1.73285,2.016 1.80894,2.016 0.0758,0 1.11621,-0.62729 2.31168,-1.39427 2.86622,-1.83847 4.78661,-2.6089 6.52304,-2.6168 l 1.39845,-0.004 0.29604,-1.13829 c 0.16213,-0.62625 0.52914,-1.98955 0.81526,-3.02998 0.28595,-1.04059 0.52022,-1.96535 0.52022,-2.05501 0,-0.0878 -0.42236,-0.30243 -0.93912,-0.4722 l -0.93914,-0.30866 8.7e-4,-5.80455 c 5e-4,-3.19222 0.0788,-7.86423 0.17483,-10.38211 l 0.1734,-4.57754 2.66086,-1.16891 c 1.46339,-0.64286 2.70467,-1.23989 2.75845,-1.32669 0.0531,-0.0865 -0.32622,-2.54371 -0.84339,-5.46006 -0.51755,-2.91635 -0.87392,-5.36929 -0.79206,-5.45068 0.0816,-0.0817 3.00148,0.0565 6.48866,0.30702 3.48716,0.25093 6.38274,0.41336 6.43469,0.36201 0.0526,-0.0526 -0.2627,-1.20371 -0.70019,-2.5598 -0.43672,-1.35622 -0.79425,-2.58622 -0.79425,-2.73361 0,-0.16303 1.18979,-0.26788 3.03237,-0.26788 l 3.03205,0 1.25115,-2.07571 c 1.53287,-2.54297 2.55193,-4.81928 2.77155,-6.19091 0.27933,-1.74697 0.42283,-1.80176 2.02982,-0.77578 2.79494,1.78475 2.37966,1.87619 4.54535,-0.99994 2.1867,-2.90395 2.00504,-2.89066 3.85539,-0.28324 1.52757,2.15222 2.03425,3.20954 3.21274,6.70469 0.54534,1.61759 2.49569,6.30926 4.33394,10.42618 1.8382,4.1171 3.59738,8.33761 3.90934,9.37932 0.68487,2.28744 0.848,2.51113 2.30373,3.1554 1.11948,0.49539 1.14044,0.52876 1.14044,1.828 0,1.21308 0.42021,11.41473 0.62037,15.05615 l 0.0835,1.54038 -1.84795,0 c -2.28819,0 -4.72661,0.78055 -8.78675,2.81288 l -2.94942,1.47664 0,1.12036 c 0,0.61634 0.25035,5.27023 0.55721,10.34228 0.3056,5.07234 0.45741,9.31391 0.33539,9.42567 -0.12148,0.11196 -1.67067,0.84012 -3.44161,1.61761 l -3.21976,1.41422 -2.72409,-0.71319 c -1.49831,-0.39208 -2.89678,-0.71354 -3.10774,-0.71354 -0.24532,0 -0.85311,1.24994 -1.69122,3.48163 l -1.30768,3.48178 -2.70463,0 -2.70475,0 -2.12612,2.87918 c -2.82296,3.82313 -8.75793,11.47961 -9.80959,12.65521 -0.52768,0.5902 -0.77593,0.74508 -0.66934,0.41899 z" />
<path
   inkscape:label=""
   inkscape:connector-curvature="0"
   style="fill:#ffffff;fill-opacity:1;stroke:#808080;stroke-width:0.50000006;stroke-miterlimit:4;stroke-dasharray:none;stroke-opacity:1"
   id="EDUCACION_RECUAY"
   d="m 191.56163,342.21133 -5.79807,-2.28958 -0.41771,-1.30368 -0.4175,-1.30365 1.45303,-0.92773 1.45308,-0.92781 0,-2.67163 0,-2.6717 -2.46572,-0.0778 -2.4656,-0.0778 -1.70815,-3.88328 -1.70808,-3.88384 0.40996,-2.39512 c 0.22613,-1.3176 0.36224,-2.44343 0.30342,-2.5022 -0.0591,-0.058 -1.44466,-0.29638 -3.07957,-0.52689 l -2.97263,-0.41977 -1.2114,-2.27301 c -0.66624,-1.25018 -1.15486,-2.32939 -1.08638,-2.39794 0.069,-0.0698 0.52567,0.12319 1.01532,0.4242 1.97537,1.21855 7.00441,2.30729 14.90168,3.22601 l 4.09184,0.47603 0,-3.56785 0,-3.56795 1.19715,0 c 1.18213,0 1.20081,-0.004 1.49873,-1.13849 0.85656,-3.23165 1.3127,-4.77965 1.49873,-5.08503 0.4054,-0.66429 7.97527,-8.77524 8.19087,-8.77524 0.12074,0 1.00288,0.31317 1.96013,0.69562 l 1.74039,0.69545 1.95184,-0.73159 c 1.07343,-0.4022 2.03436,-0.80573 2.13541,-0.89621 0.23939,-0.21662 -0.66769,-4.69345 -1.21809,-6.00662 -0.23602,-0.56159 -0.85543,-1.51953 -1.37808,-2.1291 -0.52289,-0.60951 -1.38828,-2.01835 -1.92338,-3.13064 -1.18592,-2.46491 -3.04274,-6.73446 -3.04274,-6.99629 0,-0.10437 0.5525,-1.17199 1.22793,-2.3707 l 1.22808,-2.17986 -0.7151,-1.21805 c -0.39264,-0.66976 -0.67425,-1.24253 -0.62432,-1.27247 0.009,-0.007 0.77413,-0.62294 1.60933,-1.31803 0.83513,-0.69496 1.66364,-1.26362 1.84098,-1.26362 0.17773,0 2.34519,0.55889 4.81708,1.24212 l 4.49446,1.24216 6.00699,-1.10835 c 3.30379,-0.60956 6.14229,-1.10815 6.30754,-1.10815 0.16523,0 0.45327,0.54541 0.64051,1.21217 0.18735,0.66667 0.44872,1.27903 0.58086,1.36066 0.13302,0.0818 1.74467,-0.82281 3.5826,-2.00988 l 3.34192,-2.15855 0.96389,0.84489 c 1.06606,0.93447 2.52197,2.97479 3.92415,5.50029 l 0.91867,1.65446 -0.89642,5.95368 -0.89632,5.95381 1.28188,1.29904 c 1.79116,1.81544 3.15699,2.69852 4.44224,2.87223 l 1.1014,0.1486 1.28348,5.08876 c 0.70579,2.79876 1.28679,5.17747 1.29087,5.28578 0.002,0.10707 -0.43817,0.47852 -0.98219,0.82209 l -0.98965,0.62537 -1.99037,-0.77158 c -1.09458,-0.42415 -2.03753,-0.724 -2.0954,-0.66666 -0.0586,0.0592 0.11569,6.664 0.38365,14.68024 0.26921,8.0166 0.4613,14.61385 0.42721,14.66162 -0.008,0.009 -1.91145,0.78197 -4.17159,1.63283 l -4.10926,1.54707 -3.1989,-2.07049 -3.1989,-2.07008 -0.89719,0.52838 c -1.68328,0.99159 -11.48491,2.37171 -20.41399,2.87525 l -4.34966,0.2446 -3.49849,3.02607 -3.49868,3.0258 0,1.77158 c 0,0.97407 -0.16649,2.32395 -0.37011,2.9999 -0.37078,1.23041 -1.38366,2.89877 -1.72744,2.84552 -0.10008,-0.004 -2.79194,-1.05854 -5.98086,-2.31794 l 0,0 z" />
<path
   inkscape:label=""
   inkscape:connector-curvature="0"
   style="fill:#ffffff;fill-opacity:1;stroke:#808080;stroke-width:0.50000006;stroke-miterlimit:4;stroke-dasharray:none;stroke-opacity:1"
   id="EDUCACION_AIJA"
   d="m 162.90077,295.35297 c -0.0609,-0.18314 -0.49369,-2.68909 -0.9631,-5.56683 l -0.85319,-5.23222 -3.16892,-1.15833 -3.16912,-1.15831 -2.57014,0.61862 -2.57016,0.61843 -1.80833,-1.97752 c -0.99457,-1.0877 -2.02844,-2.25661 -2.29735,-2.59772 l -0.48911,-0.62022 6.61224,0 6.61221,0 4.81979,1.99827 4.81991,1.99861 2.07026,-0.80931 2.07044,-0.80926 2.38304,-6.66194 2.38294,-6.662 1.37343,0.54623 c 0.75532,0.29998 1.51654,0.60365 1.69151,0.67379 0.17502,0.0706 0.64401,-0.39432 1.04222,-1.03275 0.39837,-0.63803 0.75293,-1.19511 0.78815,-1.2377 0.008,-0.009 0.87859,0.22803 1.87398,0.60256 0.99564,0.37427 1.91664,0.68017 2.04663,0.68017 0.12912,0 0.23725,-1.18839 0.23725,-2.64078 l 0,-2.6408 2.41479,-2.20309 c 1.32828,-1.21171 2.41485,-2.13526 2.41485,-2.05239 0,0.0829 -0.30344,0.95531 -0.67428,1.93891 -0.37039,0.98339 -0.64247,1.81181 -0.60372,1.84073 0.009,0.007 1.15731,0.31829 2.48546,0.64186 4.78709,1.16828 4.21653,0.7934 5.44024,3.5754 0.59926,1.36264 1.95496,4.57602 3.0128,7.1408 2.76482,6.70404 3.83225,8.83126 5.49875,10.95697 l 1.47641,1.88358 0,2.698 c 0,1.48375 -0.0664,2.6977 -0.14759,2.6977 -0.0816,0 -0.52695,-0.19625 -0.99109,-0.43635 -1.55518,-0.80272 -7.41528,-1.36742 -20.10433,-1.93744 l -4.74157,-0.21232 -1.00972,-0.88487 c -1.33638,-1.17119 -2.93882,-1.87273 -4.29471,-1.87994 -1.05839,0 -1.2278,0.12194 -4.16396,3.14123 -3.06405,3.15052 -3.98959,4.49574 -3.98959,5.79873 l 0,0.69628 -2.42325,0 c -1.70101,0 -2.45604,-0.10092 -2.53326,-0.33467 z" />
<path
   inkscape:label=""
   inkscape:connector-curvature="0"
   style="fill:#ffffff;fill-opacity:1;stroke:#808080;stroke-width:0.50000006;stroke-miterlimit:4;stroke-dasharray:none;stroke-opacity:1"
   id="EDUCACION_HUARMEY"
   d="m 153.01995,391.75678 c -0.72145,-0.7958 -0.99646,-1.90202 -1.17091,-4.70888 l -0.16923,-2.7164 -3.81975,-3.20198 c -3.63313,-3.0447 -3.84238,-3.27399 -4.28197,-4.68678 -0.77478,-2.48993 -2.013,-4.51773 -3.67502,-6.01904 l -1.5609,-1.40996 0,-3.09452 0,-3.09438 -3.3539,-2.63555 -3.35399,-2.63573 0,-2.69484 0,-2.69493 -2.13377,-1.72688 -2.13367,-1.72709 -0.003,-4.1692 -0.004,-4.16955 -5.50043,-5.18025 c -3.02531,-2.84933 -5.5008,-5.31206 -5.50101,-5.47284 -2.5e-4,-0.16043 -0.18569,-2.74219 -0.41079,-5.73685 l -0.4108,-5.44432 -3.47945,-7.8062 -3.47939,-7.80621 0,-3.9319 0,-3.9321 -1.20741,-0.70626 c -0.66407,-0.3885 -1.20737,-0.80696 -1.20737,-0.92975 0,-0.12193 0.61121,-2.59716 1.35819,-5.49863 0.98935,-3.84229 1.28044,-5.369 1.07204,-5.61975 -0.26508,-0.32028 2.70978,-2.90151 10.76482,-9.34105 l 1.27567,-1.02007 2.56131,0.81907 c 1.40879,0.4505 2.69705,0.81897 2.86295,0.81897 0.1663,0 1.29889,-0.9039 2.51784,-2.00872 1.21921,-1.10483 2.32248,-2.00867 2.45184,-2.00867 0.12914,0 1.13788,0.34356 2.24134,0.76279 1.10336,0.41932 2.85734,1.08368 3.89744,1.47583 l 1.89124,0.713 1.59686,4.44326 1.59701,4.44301 3.58461,2.82491 3.58473,2.82483 3.25733,-0.17086 c 1.79163,-0.0927 3.70113,-0.0967 4.24324,-0.003 0.97537,0.16157 0.99604,0.19112 1.96276,2.87651 1.33502,3.70703 2.2836,7.4624 2.2836,9.04006 l 0,1.3129 1.00617,-0.15929 c 0.5533,-0.0884 2.39071,-0.36348 4.08292,-0.61615 l 3.07691,-0.45688 0.17663,-0.8639 c 0.259,-1.26244 1.19238,-2.5263 4.18649,-5.66663 l 2.6711,-2.80145 1.80599,1.52912 c 0.99352,0.8414 1.89004,1.5302 1.99225,1.53098 0.10165,7.8e-4 3.08373,0.29853 6.62539,0.66477 3.54194,0.36383 7.67727,0.74355 9.19,0.84157 1.5127,0.0968 2.75017,0.23238 2.75017,0.29779 0,0.0652 -0.90909,1.09625 -2.02031,2.29012 -4.48518,4.81922 -8.44395,12.37014 -8.44395,16.10605 0,0.80305 -0.11613,1.22391 -0.33571,1.22209 -0.76239,0 -7.23397,-1.07776 -9.72656,-1.60997 -1.47567,-0.31409 -3.74847,-0.99483 -5.05059,-1.51026 -1.30213,-0.51576 -3.02262,-1.00478 -3.82344,-1.08723 l -1.45596,-0.14967 0,2.52288 0,2.52251 1.68411,1.66628 1.6841,1.66607 2.34058,0 2.34058,0 0,3.32243 0,3.32229 1.27451,0.73897 c 0.70103,0.40709 1.36317,0.86999 1.47168,1.03004 0.10696,0.15845 0.19851,1.40593 0.20081,2.76845 l 0.002,2.47723 2.68319,0 c 2.47403,0 2.68313,0.009 2.68313,0.51834 0,1.01306 -0.53556,1.89667 -1.59205,2.62608 l -1.0707,0.73933 -0.003,3.92765 -0.003,3.9276 -1.34165,0.82384 -1.34156,0.82426 0,4.12004 0,4.12073 -0.83839,0.16814 c -0.4613,0.0921 -2.44394,0.16777 -4.40606,0.16777 l -3.56738,0 -0.14121,0.73634 c -0.078,0.40474 -0.40799,4.17153 -0.73288,8.36959 l -0.59148,7.63328 -2.63061,2.89031 -2.63066,2.89063 0.92591,2.02791 c 1.51748,3.32405 2.03701,5.32357 2.19825,8.4623 l 0.14774,2.87893 -1.25874,0 c -1.48679,0 -2.61001,-0.51251 -3.96736,-1.81006 l -0.99126,-0.94782 -1.9602,1.50825 c -1.07814,0.82969 -2.63838,2.04997 -3.46738,2.71154 -1.41209,1.12744 -1.5337,1.17427 -1.92662,0.74085 l 0,0 z" />
<path
   inkscape:label="UGEL CASMA"
   inkscape:connector-curvature="0"
   style="fill:#ffffff;fill-opacity:1;stroke:#808080;stroke-width:0.50000006;stroke-miterlimit:4;stroke-dasharray:none;stroke-opacity:1"
   id="EDUCACION_CASMA"
   d="m 103.96978,269.53338 c -3.07156,-3.29886 -4.60238,-5.30362 -5.02425,-6.5799 -0.53282,-1.61166 -2.033198,-3.93018 -5.769605,-8.91624 l -3.593256,-4.79491 0,-3.21563 0,-3.21564 -2.187758,-4.34913 -2.187736,-4.34923 0.884755,-5.4296 c 0.48642,-2.98634 0.816942,-5.49737 0.734159,-5.5801 -0.08315,-0.0824 -1.257312,-0.43145 -2.609774,-0.77488 -1.352647,-0.34362 -2.519,-0.68402 -2.591816,-0.75686 -0.181344,-0.18156 -1.154387,-3.95822 -1.160164,-4.50302 -0.0014,-0.283 0.304125,-0.49851 0.867444,-0.60644 1.486276,-0.28593 1.638437,-0.4844 1.190675,-1.55414 -0.380455,-0.91022 -0.372441,-0.94823 0.314523,-1.35456 2.227094,-1.31585 3.88216,-4.01734 4.951706,-8.08317 0.346964,-1.3175 0.80131,-2.49322 1.010395,-2.61276 0.209802,-0.11844 1.678007,-0.71136 3.264544,-1.3153 l 2.884316,-1.09773 0,-1.41707 0,-1.41704 2.4382,-0.97418 c 3.128692,-1.24993 5.598922,-1.76054 8.513252,-1.75979 l 2.33014,7.5e-4 3.89058,3.11114 c 2.13994,1.71127 4.26335,3.39764 4.71898,3.74757 0.74374,0.57131 1.24857,0.66332 4.96377,0.90376 2.27453,0.14771 4.89027,0.33839 5.81256,0.42551 l 1.67695,0.15668 0,4.37609 0,4.3762 3.21764,2.87601 3.21772,2.87595 -0.98964,1.23026 c -0.54421,0.67661 -1.3474,1.64807 -1.7848,2.15879 l -0.79515,0.9286 2.25641,2.11212 c 1.24109,1.1618 2.7642,2.40941 3.38476,2.77254 1.09574,0.64127 1.15522,0.64743 2.07165,0.21232 0.5192,-0.24492 2.41996,-1.45153 4.22456,-2.6795 1.80452,-1.22785 3.34758,-2.18785 3.42871,-2.13328 0.0817,0.0552 0.68556,1.11694 1.34249,2.36084 l 1.1949,2.26172 -1.52772,2.26837 c -1.93113,2.86715 -2.33762,4.02691 -2.33762,6.66848 l 0,2.10899 -4.02472,0 c -2.21347,0 -4.02477,0.0921 -4.02477,0.2053 0,0.11197 1.1931,2.31222 2.65144,4.88786 l 2.65117,4.68306 -0.92769,1.78363 c -0.98077,1.8856 -1.76768,2.78503 -3.30147,3.77421 -0.7132,0.45973 -1.28729,1.29818 -2.3848,3.48305 l -1.44539,2.87759 -3.42763,0 -3.42747,0 -0.74635,1.94169 c -0.41039,1.06805 -0.76337,1.97221 -0.78441,2.00924 -0.005,0.009 -1.82758,-0.29381 -4.01486,-0.73657 -2.18714,-0.4418 -4.06395,-0.80389 -4.17082,-0.80389 -0.10652,0 -0.68239,0.64524 -1.27898,1.43386 -1.12732,1.49061 -4.40051,4.23862 -8.44099,7.08663 -1.29287,0.91144 -2.4009,1.65712 -2.46235,1.65712 -0.0621,0 -1.26159,-1.23543 -2.66723,-2.74544 l 0,0 z" />
<path
   inkscape:label="UGEL OCROS"
   inkscape:connector-curvature="0"
   style="fill:#ffffff;fill-opacity:1;stroke:#808080;stroke-width:0.50000006;stroke-miterlimit:4;stroke-dasharray:none;stroke-opacity:1"
   id="EDUCACION_OCROS"
   d="m 198.21951,421.73888 c -0.2922,-2.33405 0.0727,-12.20385 0.55182,-14.91211 0.23165,-1.30811 0.67143,-2.95929 0.97776,-3.66993 l 0.55664,-1.29189 -0.79482,-2.08872 c -0.77191,-2.0284 -0.82228,-2.09051 -1.75372,-2.17 -1.56024,-0.13459 -3.10959,0.4329 -4.29776,1.57286 -0.82494,0.7916 -1.31809,1.05333 -1.98307,1.05333 -0.66096,0 -0.88712,-0.12049 -0.89307,-0.46884 -0.006,-1.53112 -0.80478,-7.94534 -0.98432,-8.10581 -0.11748,-0.1065 -1.36219,-0.33665 -2.76416,-0.51466 -1.40187,-0.17777 -2.73753,-0.375 -2.96783,-0.43954 -0.22951,-0.0664 -1.8841,0.83936 -3.67496,2.00842 l -3.256,2.12576 -0.70879,-1.20762 c -0.38963,-0.66378 -0.66819,-1.23169 -0.61825,-1.26212 0.009,-0.007 0.98226,-0.41166 2.07195,-0.84932 l 1.9813,-0.79448 2.47094,-5.62477 2.47097,-5.62427 5.1429,-2.56387 c 2.82856,-1.41021 5.31413,-2.79622 5.52347,-3.07993 0.35487,-0.48206 0.69837,-0.51047 5.14286,-0.43337 l 4.76201,0.0828 3.44069,-3.42681 3.44053,-3.42654 0.003,-2.14656 0.003,-2.14655 2.18754,-1.87502 c 3.68582,-3.15874 2.98252,-2.88852 6.24918,-2.40386 1.56745,0.23219 3.89066,0.7891 5.1628,1.23692 l 2.31289,0.81517 0.95704,-1.16239 c 0.52656,-0.63924 1.32362,-1.56642 1.77172,-2.06044 l 0.81465,-0.89845 2.09754,1.90213 c 1.15352,1.0461 2.24497,1.90135 2.42539,1.90135 0.18036,0 0.62066,-0.3131 0.97843,-0.69678 0.35766,-0.38289 1.56853,-1.5249 2.69026,-2.5368 l 2.03974,-1.8402 1.41888,5.33381 1.41893,5.3339 4.38953,1.81525 c 2.99615,1.23922 4.38698,1.94525 4.38116,2.22515 -0.002,0.22455 -0.23696,2.67386 -0.51377,5.44167 l -0.50541,5.03225 -1.10117,0.99386 c -0.87042,0.78584 -1.14991,1.26471 -1.33353,2.28584 -0.20125,1.12207 -0.12757,1.56167 0.56387,3.34804 l 0.79596,2.05596 -0.73033,2.47735 c -0.40126,1.36257 -0.80992,2.4778 -0.90734,2.4778 -0.0968,0 -1.27857,-0.34468 -2.62474,-0.76644 l -2.44827,-0.76584 -4.44429,0.96789 -4.44471,0.96775 -3.96091,4.17977 c -2.1786,2.29906 -5.73646,6.0433 -7.90612,8.32099 l -3.94517,4.14044 0.3868,2.65971 c 0.21158,1.46276 0.45239,3.04061 0.53185,3.50634 l 0.14404,0.84691 -1.95306,0.16658 c -1.07424,0.0924 -4.87547,0.33126 -8.44746,0.53098 l -6.49439,0.36275 -1.99522,1.80372 c -1.09753,0.99214 -2.36152,2.03514 -2.80881,2.31777 l -0.81321,0.51403 -0.19441,-1.55314 0,0 z" />
<path
   inkscape:label="UGEL PALLASCA"
   inkscape:connector-curvature="0"
   style="fill:#ffffff;fill-opacity:1;stroke:#808080;stroke-width:0.50000006;stroke-miterlimit:4;stroke-dasharray:none;stroke-opacity:1"
   id="EDUCACION_PALLASCA"
   d="m 112.75817,111.66926 0,-1.93814 -2.86827,-0.002 -2.8681,-10e-4 2.8985,-2.64737 2.8987,-2.64733 -0.91066,-5.89814 -0.91052,-5.89833 3.23392,-3.24712 3.23396,-3.2472 1.41768,-5.06377 c 0.7797,-2.7848 1.55516,-6.30425 1.72312,-7.82051 0.28391,-2.56331 0.4527,-2.90796 2.40209,-4.90333 l 2.09641,-2.14626 -0.64928,-1.5515 c -0.35696,-0.85336 -0.6496,-1.73171 -0.6496,-1.95196 0,-0.22063 1.29067,-1.31995 2.86837,-2.44344 1.57757,-1.12367 4.58915,-3.72294 6.69253,-5.77597 l 3.8243,-3.73312 4.87887,-1.48533 c 2.68331,-0.81703 5.00185,-1.6226 5.15237,-1.79021 0.14988,-0.16675 1.65155,-4.45594 3.3361,-9.529839 2.19627,-6.615079 3.24504,-9.2253 3.70681,-9.2253 0.35417,0 1.17993,0.572531 1.83507,1.272351 0.89154,0.952813 1.57044,1.272428 2.70315,1.272428 1.8251,0 17.20128,-1.548069 22.6783,-2.283362 3.65083,-0.489919 4.01193,-0.470348 5.20538,0.283315 0.70537,0.445516 1.28215,0.869068 1.28215,0.940729 0,0.07134 -0.66275,0.922336 -1.47305,1.890356 l -1.47311,1.760066 1.80708,2.214515 c 1.60934,1.972254 2.26402,3.163938 2.96857,5.402671 0.1278,0.4059 1.15983,0.87744 2.64146,1.20843 l 2.43176,0.54326 -0.30004,4.62371 c -0.28895,4.44264 -0.26702,4.62368 0.55051,4.62368 0.46856,0 1.18305,0.12754 1.58873,0.28275 0.70445,0.26979 -0.12927,0.56983 -8.10431,2.91263 -1.90823,0.56067 -2.24992,0.856 -3.35362,2.89899 l -1.22891,2.27466 -2.39241,-0.72306 -2.3924,-0.72294 -4.12467,4.69001 -4.12466,4.6902 -8.18496,2.39791 -8.18503,2.39799 -0.3629,1.53373 c -0.23817,1.00439 -1.17313,2.34214 -2.70932,3.8755 l -2.34619,2.34195 -1.39934,-0.86339 -1.39939,-0.8632 -0.70935,2.13207 -0.70941,2.1318 -2.28416,0 -2.28409,0 0.58898,1.66634 0.58891,1.66619 -2.06865,1.93137 c -2.77784,2.59381 -8.10537,6.01181 -14.49007,9.29668 -2.89614,1.48986 -5.54458,2.79711 -5.88545,2.90505 -0.50905,0.16121 -0.36972,0.91025 0.78184,4.19588 0.77091,2.20001 1.50234,4.33408 1.62541,4.74225 0.20039,0.6639 -0.13646,0.74231 -3.19689,0.74231 -3.41576,0 -3.42096,0.001 -3.55512,1.16627 -0.0966,0.83523 -0.40622,1.20504 -1.09059,1.30201 -0.87187,0.12398 -0.95609,-0.009 -0.95609,-1.80257 l 0,0 z" />
</svg>
