<?xml version="1.0" encoding="UTF-8" standalone="no"?>
<!--?xml version="1.0" encoding="UTF-8" standalone="no"?-->

<!--?xml version="1.0" encoding="UTF-8" standalone="no"?-->

<!--
************* Copyright (c) 2015 Pareto Softare, LLC DBA Simplemaps.com *******************		
************* Free for Commercial Use, full terms at  http://simplemaps.com/resources/svg-license ************
************* Attribution is appreciated! http://simplemaps.com ***************************
-->

<svg
   xmlns:dc="http://purl.org/dc/elements/1.1/"
   xmlns:cc="http://creativecommons.org/ns#"
   xmlns:rdf="http://www.w3.org/1999/02/22-rdf-syntax-ns#"
   xmlns:svg="http://www.w3.org/2000/svg"
   xmlns="http://www.w3.org/2000/svg"
   xmlns:sodipodi="http://sodipodi.sourceforge.net/DTD/sodipodi-0.dtd"
   xmlns:inkscape="http://www.inkscape.org/namespaces/inkscape"
   enable_background="new 0 0 1000 1585"
   height="549.01257"
   pretty_print="True"
   style="fill:none;stroke:#000000;stroke-linejoin:round"
   version="1.1"
   viewBox="0 0 354.46857 549.01257"
   width="354.46857"
   id="svg2"
   inkscape:version="0.91 r13725"
   sodipodi:docname="Apurimac.svg"><sodipodi:namedview
   pagecolor="#ffffff"
   bordercolor="#666666"
   borderopacity="0.05098039"
   objecttolerance="10"
   gridtolerance="10"
   guidetolerance="10"
   inkscape:pageopacity="0"
   inkscape:pageshadow="2"
   inkscape:window-width="1920"
   inkscape:window-height="1017"
   id="namedview37"
   showgrid="false"
   inkscape:zoom="1.431634"
   inkscape:cx="30.174222"
   inkscape:cy="263.28435"
   inkscape:window-x="-8"
   inkscape:window-y="-8"
   inkscape:window-maximized="1"
   inkscape:current-layer="svg2"
   showborder="true"
   fit-margin-top="10"
   fit-margin-left="10"
   fit-margin-right="10"
   fit-margin-bottom="10"
   borderlayer="false"
   inkscape:showpageshadow="false"
   inkscape:snap-to-guides="false"
   inkscape:snap-grids="false"
   showguides="false" />























utf-8<defs
   id="defs4">
  <style
     type="text/css"
     id="style6">path { fill-rule: evenodd; }utf-8utf-8</style>
</defs>























utf-8<metadata
   id="metadata8">
utf-8utf-8<views>
utf-8utf-8utf-8<view
   h="1585.21431143"
   padding="0"
   w="1000">
utf-8utf-8utf-8utf-8<proj
   flip="auto"
   id="robinson"
   lon0="-80.0286400104" />























utf-8utf-8utf-8utf-8<bbox
   h="307.01"
   w="193.79"
   x="-1203.32"
   y="0.49" />























utf-8utf-8utf-8</view>























utf-8utf-8</views>























utf-8<rdf:rdf>
  <cc:work
     rdf:about="">
    <dc:format>image/svg+xml</dc:format>
    <dc:type
       rdf:resource="http://purl.org/dc/dcmitype/StillImage" />
  </cc:work>
</rdf:rdf>
<rdf:rdf>
  <cc:work
     rdf:about="">
    <dc:format>image/svg+xml</dc:format>
    <dc:type
       rdf:resource="http://purl.org/dc/dcmitype/StillImage" />
    <dc:title />
  </cc:work>
</rdf:rdf>
<rdf:RDF>
  <cc:Work
     rdf:about="">
    <dc:format>image/svg+xml</dc:format>
    <dc:type
       rdf:resource="http://purl.org/dc/dcmitype/StillImage" />
    <dc:title />
  </cc:Work>
</rdf:RDF>
</metadata>























utf-8<path
   style="fill:#ffffff;fill-opacity:1;fill-rule:evenodd;stroke:#808080;stroke-width:0.5;stroke-linecap:butt;stroke-linejoin:miter;stroke-miterlimit:4;stroke-dasharray:none;stroke-opacity:1"
   d="m 150.17059,203.63973 -0.95526,-7.00889 0,-4.46017 -0.95534,-6.05334 -0.95528,-5.416 -1.59214,-7.00892 0,-3.50441 0,-6.37191 -1.59223,-5.09733 1.27381,-3.18598 4.1396,2.54874 4.13958,-2.54874 0,7.00904 2.22905,2.54866 6.36864,2.86736 3.8211,2.23016 1.59214,3.82296 5.09489,4.46027 3.50273,4.14178 0.95521,3.50432 -1.59201,4.14177 -3.18436,1.91157 -3.82115,0.63708 -4.7766,1.59297 -3.50265,3.18578 -2.22891,1.27459 -1.59224,-0.31868 -3.18429,2.54869 z"
   id="EDUCACION_HUANCARAMA"
   inkscape:connector-curvature="0"
   inkscape:label="" />
<path
   style="fill:#ffffff;fill-opacity:1;fill-rule:evenodd;stroke:#808080;stroke-width:0.5;stroke-linecap:butt;stroke-linejoin:miter;stroke-miterlimit:4;stroke-dasharray:none;stroke-opacity:1"
   d="m 102.22728,300.72113 -3.50269,-5.09754 -4.458171,-7.64615 -1.273619,-2.54864 3.184372,-5.73462 1.910558,-3.82313 3.8211,-12.10627 -9.552921,-15.29226 -4.139551,-8.60204 0,-8.60186 -4.139611,-5.09745 -0.63684,-6.05325 -4.776447,-4.77873 -3.502674,-8.92054 -4.45807,-5.09743 0,-3.82312 9.55284,-2.86726 4.776556,0.63715 2.865743,0 2.229134,-6.05318 0.955209,-5.41594 -1.273724,-5.41603 6.368698,-0.63723 2.865818,0.95572 9.87127,-5.09738 -0.63683,-3.82311 -2.22898,-4.14165 2.22898,-5.7346 0.63683,-2.86734 7.00556,-0.63708 12.73705,2.86717 7.32403,-0.63708 3.82113,0.95576 0.63675,7.009 -0.95526,3.50435 1.27375,6.37186 1.27381,4.77889 0.31857,4.77879 1.27372,7.32764 0.95528,4.77875 0.63684,6.05324 -5.09489,1.9115 -4.1396,-0.31867 -4.13968,6.37185 -1.59209,3.18594 -5.41319,0.95571 -3.18427,0 -2.22908,17.20384 -0.95531,7.9648 -2.54751,0.9557 -0.95518,9.87619 0.31852,4.77892 3.50276,4.77888 -0.31895,6.69027 1.2738,2.54873 -6.05022,3.18597 -3.50274,5.73459 -3.82109,10.8321 -2.22898,4.77867 z"
   id="EDUCACION_CHANKA"
   inkscape:connector-curvature="0"
   inkscape:label="" />
<path
   style="fill:#ffffff;fill-opacity:1;fill-rule:evenodd;stroke:#808080;stroke-width:0.5;stroke-linecap:butt;stroke-linejoin:miter;stroke-miterlimit:4;stroke-dasharray:none;stroke-opacity:1"
   d="m 235.45968,321.60625 1.59215,-10.83198 -1.27373,-6.37171 -0.63679,-5.09744 1.27373,-4.14183 -1.27373,-5.09743 -1.91064,-3.50442 -3.50269,-4.46028 -2.22898,-2.23011 -4.77649,-0.31898 -2.86587,-0.31868 -2.54747,-7.96466 -3.50272,-4.14174 -4.45802,0.31868 -2.22902,3.50447 -2.22904,-1.59299 -7.32388,0.63723 -0.63683,-2.86739 -5.09494,-3.82309 1.59227,-4.1416 -0.95539,-3.82308 5.09489,-8.92057 4.13956,1.27436 3.50278,-5.73442 0.95532,-9.87642 6.68704,-4.77883 1.27376,-5.73462 6.6869,-4.14162 5.41334,-5.09751 -4.45806,-7.32747 11.14508,-7.00893 3.8212,3.82306 5.09479,-1.27435 4.13971,1.27435 1.59218,2.8673 -1.59218,5.09744 0,7.64611 3.18423,5.09746 0.63693,8.28332 0,6.0532 2.8658,0.31868 0.95538,4.14172 2.54745,2.23007 3.18417,1.59304 2.5475,6.05313 -4.13958,5.09743 -1.27378,3.82307 -4.13952,-0.63722 -2.54742,-1.91142 -2.86592,2.23005 3.50274,5.41608 5.09489,6.37168 4.45809,0 3.82111,2.86738 -2.8659,2.86725 -0.95521,3.18598 1.59215,10.19481 -2.22915,5.41607 -7.00538,1.59293 -8.91604,8.60184 3.18429,7.00903 0.95535,9.23908 z"
   id="EDUCACION_GRAU"
   inkscape:connector-curvature="0"
   inkscape:label="" />
<path
   style="fill:#ffffff;fill-opacity:1;fill-rule:evenodd;stroke:#808080;stroke-width:0.5;stroke-linecap:butt;stroke-linejoin:miter;stroke-miterlimit:4;stroke-dasharray:none;stroke-opacity:1"
   d="m 177.09756,315.64156 -1.27372,-3.18591 3.50281,-4.14158 -1.27378,-7.00895 1.91055,-4.14183 -0.9553,-4.14153 -2.22897,-2.54874 -4.77648,-4.77884 -0.95525,-4.14168 -2.8659,-1.91147 -1.59207,-2.86736 1.9105,-4.14166 2.54747,-2.54876 0.31861,-2.23002 -3.82109,-9.87631 2.22897,-4.14172 2.86585,-1.91142 6.36859,0.63716 3.5027,2.2301 2.22909,2.54867 2.54736,-1.59292 1.5922,0 0.63682,4.77879 -1.27367,4.77884 2.22892,2.54881 2.22913,1.91155 0.9552,3.82297 3.82124,0 3.82119,-0.95574 2.86585,2.86726 3.82108,-3.82303 3.50275,-0.63711 2.86596,5.09732 2.54742,7.64616 7.32381,-0.319 3.18428,4.14165 2.86596,3.50446 2.54732,7.00901 -0.95523,4.77876 0,4.46021 0.95523,11.46932 -0.63675,6.05317 -5.09478,0.95568 -7.00568,-1.59289 -5.41326,-1.27437 -3.50265,-2.2301 -8.91595,0.63717 -3.82134,6.3718 -13.69241,-1.91161 -5.73179,-4.77876 z"
   id="EDUCACION_ANTABAMBA"
   inkscape:connector-curvature="0"
   inkscape:label="" />
<path
   inkscape:label=""
   inkscape:connector-curvature="0"
   style="fill:#ffffff;fill-opacity:1;stroke:#808080;stroke-width:0.5;stroke-miterlimit:4;stroke-dasharray:none;stroke-opacity:1"
   id="EDUCACION_COTABAMBAS"
   d="m 263.45807,283.67214 0,-4.73362 2.52766,-1.42251 c 2.2645,-1.27391 2.44661,-1.55357 1.74778,-2.68227 -1.38371,-2.2365 -5.32522,-4.5902 -6.54324,-3.90773 -0.88402,0.49546 -2.00241,-0.39389 -6.05763,-4.81702 -2.73517,-2.98372 -4.82443,-5.66582 -4.64249,-5.96113 0.56357,-0.9127 1.91324,-0.59329 3.11589,0.73721 0.84911,0.93901 1.95772,1.27263 4.23012,1.27263 l 3.07948,0 0,-2.51393 c 0,-2.20032 0.35656,-2.81222 2.86051,-4.90774 l 2.86044,-2.39399 -1.57129,-1.29725 c -1.26726,-1.04602 -1.60517,-1.97296 -1.74815,-4.79357 l -0.17668,-3.4966 -3.01926,-0.54972 c -2.98642,-0.54329 -3.01911,-0.57606 -3.01911,-3.00984 0,-2.09015 -0.28756,-2.60875 -1.90682,-3.44763 -1.04872,-0.54311 -1.92292,-1.19465 -1.94251,-1.44803 -0.004,-0.25286 -0.25565,-3.38919 -0.52237,-6.96793 -0.35012,-4.67314 -0.78701,-6.83914 -1.55321,-7.68681 -1.58665,-1.75541 -1.48674,-10.47083 0.15836,-13.88198 1.04564,-2.16731 2.47339,-7.15744 4.12071,-14.40418 0.34326,-1.50975 0.71097,-1.74993 2.67804,-1.74993 1.65285,0 2.61162,0.42255 3.48609,1.53542 1.52939,1.94683 7.25226,4.82838 9.58908,4.82838 1.35834,0 1.78214,-0.30244 1.78214,-1.27264 0,-2.20377 2.77642,-1.60189 4.78756,1.0382 1.1308,1.48466 3.20315,2.96583 5.79593,4.14274 3.38641,1.53757 4.03549,2.08678 4.03549,3.41668 0,1.15854 0.34084,1.58485 1.26661,1.58485 0.99009,0 2.18448,1.84171 5.46865,8.43223 2.31101,4.63789 4.68248,9.00483 5.26965,9.70495 0.95017,1.13247 1.03035,2.72393 0.72869,14.43859 l -0.33872,13.16559 -1.74795,1.82435 c -1.46606,1.53052 -1.74936,2.38318 -1.75734,5.28991 -0.004,4.90008 -0.90166,6.17546 -5.71106,8.19937 -3.60157,1.51547 -4.15884,1.97634 -4.34482,3.59347 -0.16214,1.40602 -1.2637,2.70177 -4.55284,5.35524 -3.46329,2.79352 -4.42093,3.95199 -4.74372,5.74043 -0.54712,3.03107 -0.75134,3.26259 -5.00412,5.67474 -3.21972,1.82691 -3.92036,2.00759 -5.31485,1.37144 -1.21195,-0.55288 -1.82296,-0.55288 -2.48861,3.8e-4 -0.73918,0.61397 -0.8822,-0.009 -0.8822,-4.00075 z" />
<path
   inkscape:label=""
   inkscape:connector-curvature="0"
   style="fill:#ffffff;fill-opacity:1;stroke:#808080;stroke-width:0.5;stroke-miterlimit:4;stroke-dasharray:none;stroke-opacity:1"
   id="EDUCACION_ABANCAY"
   d="m 187.69939,250.25063 c -1.6944,-1.4273 -2.15019,-1.55577 -3.00482,-0.84563 -0.86283,0.71715 -1.24801,0.54375 -2.68853,-1.21118 -1.33486,-1.62611 -2.15779,-2.047 -3.99423,-2.04241 -2.58254,0 -2.62143,-0.083 -3.40107,-7.94943 -0.20777,-2.10006 -0.97877,-7.46502 -1.7121,-11.92202 l -1.33347,-8.10391 -3.24744,-1.86553 c -3.24478,-1.86465 -13.70051,-11.1489 -13.09946,-11.63208 0.17395,-0.14085 1.39168,-1.16763 2.70421,-2.28199 2.04186,-1.73347 2.62376,-1.93591 4.02905,-1.40076 1.48719,0.56593 1.90761,0.3303 4.44072,-2.4906 2.0717,-2.30676 3.41824,-3.22726 5.1872,-3.54494 1.31412,-0.23594 3.83859,-0.87652 5.60997,-1.42411 2.81737,-0.87061 3.45438,-1.4032 5.08497,-4.25122 1.02526,-1.79136 1.96189,-3.48122 2.08162,-3.75637 0.12064,-0.27528 -2.35945,-3.19924 -5.50936,-6.49779 -3.14982,-3.29895 -6.08006,-6.97549 -6.51139,-8.16984 -0.67894,-1.88012 -1.61799,-2.58246 -6.99024,-5.22898 -5.07569,-2.50054 -6.26332,-3.3564 -6.52129,-4.70021 -0.17342,-0.90341 -0.25531,-1.70481 -0.17987,-1.78094 0.0744,-0.0767 1.14011,0.17098 2.36844,0.54752 1.94883,0.59915 2.65374,0.47303 5.53324,-0.98774 1.81479,-0.92101 4.59765,-1.85229 6.18391,-2.07016 2.31219,-0.31746 3.29989,-0.88261 4.98281,-2.85089 2.04582,-2.39298 2.20666,-2.45528 6.3285,-2.45528 l 4.22936,0 0,1.82128 c 0,1.70501 0.23032,1.86789 3.60183,2.54548 1.98107,0.39801 4.78399,0.72434 6.22851,0.72434 l 2.62664,0 -0.2594,2.2272 c -0.25801,2.21342 -0.24391,2.2275 2.24882,2.2275 1.91289,0 3.35495,0.60703 6.073,2.55576 1.96047,1.40539 5.24236,3.48175 7.29341,4.61351 2.05098,1.13205 4.95492,2.90247 6.45307,3.9343 2.27774,1.56865 3.57325,1.93913 7.90581,2.26025 3.65409,0.2705 5.83731,0.78469 7.40632,1.74191 1.22346,0.74665 3.94067,1.98982 6.03812,2.76318 3.84986,1.41933 8.54224,4.28797 8.56728,5.23808 0.004,0.28301 -0.25076,0.35166 -0.57371,0.15114 -0.72714,-0.44978 -2.81601,5.04414 -3.85996,10.15254 -0.42876,2.10008 -1.16378,4.53434 -1.63239,5.40932 l -0.85245,1.59095 -0.80485,-2.06805 -0.80467,-2.06829 -5.47915,0 c -5.25326,0 -5.50953,-0.0687 -6.21602,-1.61937 l -0.73683,-1.61946 -6.21954,3.19865 c -9.42622,4.848 -9.05674,4.38001 -6.37202,8.07079 3.9507,5.43137 3.98855,5.30936 -3.27405,10.56437 -6.15704,4.45497 -6.39007,4.71046 -6.05688,6.64447 0.3267,1.8951 0.12848,2.1436 -3.43011,4.30791 l -3.7763,2.2971 -0.74953,4.60144 c -0.98638,6.05476 -1.7121,9.3948 -2.1325,9.81594 -0.18835,0.18818 -1.27174,0.004 -2.40845,-0.37932 -2.34336,-0.81763 -2.09617,-1.05444 -5.3889,5.15056 l -1.98787,3.74581 -1.99743,-1.68279 0,0 z" />
<path
   inkscape:label=""
   inkscape:connector-curvature="0"
   style="fill:#ffffff;fill-opacity:1;stroke:#808080;stroke-width:0.5;stroke-miterlimit:4;stroke-dasharray:none;stroke-opacity:1"
   id="EDUCACION_AYMARAES"
   d="m 108.54242,304.02302 c 1.02306,0 1.1634,-0.38872 1.1634,-3.21993 0,-2.38522 0.43322,-4.08295 1.67229,-6.55138 0.91971,-1.83253 2.35049,-5.22359 3.17984,-7.53522 2.89614,-8.0759 4.02636,-9.75527 7.52076,-11.17563 l 3.12845,-1.27104 -0.78868,-6.50628 c -0.60691,-5.00695 -1.06114,-6.79659 -1.97127,-7.7662 -0.98788,-1.05298 -1.23802,-2.31805 -1.52094,-7.68816 l -0.33877,-6.42828 1.68428,-0.19147 c 1.55093,-0.17795 1.69685,-0.39964 1.8462,-2.81306 0.19802,-3.20503 1.54277,-10.81847 3.09222,-17.50997 l 1.15513,-4.98986 4.09852,-1.0641 c 2.25423,-0.58528 4.18483,-1.35378 4.29021,-1.7077 0.10438,-0.35408 0.33592,-1.31091 0.51258,-2.12711 0.17702,-0.8167 1.049,-2.44512 1.93892,-3.61874 1.34165,-1.76988 1.98546,-2.13782 3.77235,-2.15542 1.50361,-0.004 2.59393,-0.46103 3.60871,-1.47723 0.79985,-0.80069 1.8937,-1.45579 2.43081,-1.45579 0.53721,0 2.84112,1.76893 5.11978,3.93104 4.2748,4.05581 8.50006,7.52643 10.53289,8.65065 1.51482,0.83752 2.43963,6.35992 2.9647,17.70027 l 0.39053,8.44439 -3.26445,2.32964 c -2.47124,1.76286 -3.26546,2.68288 -3.26748,3.78494 0,2.10709 1.94398,9.27281 3.15676,11.61442 l 1.03869,2.00536 -1.58566,1.26631 c -1.12734,0.8997 -1.81873,2.25666 -2.39083,4.6913 -1.19376,5.08129 -1.12744,5.33111 1.79441,6.75213 2.36623,1.15127 2.61741,1.47004 2.61741,3.32551 0,1.73424 0.55547,2.61318 3.58932,5.6784 l 3.58964,3.62606 -0.86688,2.21293 c -0.70354,1.79681 -0.76161,3.19123 -0.30755,7.41178 0.5319,4.9558 0.49976,5.24553 -0.68709,6.20797 -0.90275,0.73192 -1.24494,1.66012 -1.24494,3.37656 0,2.31885 -0.008,2.36006 -1.74363,2.01789 -2.22499,-0.44565 -3.49109,0.58849 -3.49109,2.8517 0,1.60066 -0.13563,1.72039 -1.5995,1.41377 -5.69913,-1.19342 -5.18991,-1.27926 -5.94207,1.00286 -0.67446,2.04621 -0.76612,2.09846 -3.7,2.11431 -2.42131,0.004 -3.45445,0.35341 -5.29332,1.74705 -2.00167,1.51677 -2.76331,1.73094 -6.15111,1.73094 -3.37593,0 -4.04036,0.18539 -5.23752,1.46132 -0.75423,0.80354 -1.78123,1.34348 -2.28253,1.19923 -0.50124,-0.14305 -2.01696,-0.54787 -3.36796,-0.89716 -1.92548,-0.4979 -2.84786,-1.20504 -4.26664,-3.26946 -0.99557,-1.44884 -2.11493,-2.53468 -2.4873,-2.41308 -1.20623,0.39394 -4.96018,6.28981 -5.96494,9.36752 -0.72766,2.22946 -1.75511,3.69673 -4.01644,5.73591 -1.67106,1.50694 -3.36833,3.53795 -3.77193,4.51323 -0.4033,0.97523 -0.89786,1.7612 -1.09902,1.74703 -0.20091,-0.004 -1.67427,-1.20335 -3.2739,-2.64199 l 0,6.9e-4 c -1.59947,-1.43864 -3.49715,-2.76554 -4.21678,-2.94893 -0.71968,-0.18248 -1.30909,-0.36973 -1.30943,-0.4159 -5.5e-4,-0.009 -0.38391,-2.26246 -0.85242,-4.92702 -1.05896,-6.02494 -0.651506,-6.96268 3.13375,-7.21221 l 2.6159,-0.17291 0.82248,-3.38666 c 0.80885,-3.32881 0.7954,-3.43668 -0.79346,-6.3594 l -1.61622,-2.9733 1.58629,-1.26639 c 1.57424,-1.25686 1.58137,-1.29463 0.93231,-4.99629 z" />
<path
   inkscape:label=""
   inkscape:connector-curvature="0"
   style="fill:#ffffff;fill-opacity:1;stroke:#808080;stroke-width:0.5;stroke-miterlimit:4;stroke-dasharray:none;stroke-opacity:1"
   id="EDUCACION_CHINCHEROS"
   d="m 76.77819,187.70349 c -1.791824,-1.88054 -3.414428,-4.04416 -3.605681,-4.80728 -0.26964,-1.07495 -1.330494,-1.78036 -4.707861,-3.13065 -3.103515,-1.24016 -4.426541,-2.07856 -4.590683,-2.90865 -0.127333,-0.64138 -0.674527,-3.78678 -1.217042,-6.98982 -0.542214,-3.20272 -1.448045,-7.52644 -2.012555,-9.60871 -2.010779,-7.41525 -2.471709,-11.86904 -1.701259,-16.44213 0.559079,-3.31892 1.047437,-4.52283 2.301403,-5.67297 l 1.591786,-1.46046 -1.443552,-3.33291 -1.443654,-3.33294 1.876022,-3.36904 c 2.291025,-4.11408 4.515637,-6.57179 5.949129,-6.57179 0.993835,0 1.046059,0.38877 0.689108,5.1222 l -0.38662,5.12201 4.000465,1.70021 c 2.20039,0.93538 6.265711,3.21645 9.034288,5.06928 2.819457,1.88652 5.680927,3.36855 6.504792,3.36855 1.156439,0 1.510239,0.32898 1.655038,1.5415 0.158372,1.3268 0.870604,1.83683 5.115545,3.66533 4.872111,2.0985 4.940911,2.15678 5.704861,4.86445 0.6745,2.39127 0.97268,2.74155 2.33861,2.74956 2.96482,0.004 3.26714,0.70356 1.69147,3.84156 -2.4266,4.83296 -2.43882,5.17634 -0.33224,9.24535 1.05957,2.04597 1.80109,3.82802 1.64789,3.9599 -0.15251,0.13129 -2.10054,1.29739 -4.32789,2.58941 -3.756011,2.17919 -4.144028,2.28684 -5.357919,1.49078 -1.15456,-0.75753 -1.762928,-0.7551 -5.162512,0.004 -2.11947,0.48428 -3.973236,0.99974 -4.119597,1.14654 -0.146398,0.1464 0.05037,1.51669 0.433205,3.04522 0.642206,2.55399 0.562534,3.17185 -0.984623,7.64137 l -1.683541,4.86247 -2.09971,0 c -1.803467,0 -2.558882,-0.48236 -5.357303,-3.41949 z" />
</svg>
