<?xml version="1.0" encoding="UTF-8" standalone="no"?>
<!--?xml version="1.0" encoding="UTF-8" standalone="no"?-->

<!--?xml version="1.0" encoding="UTF-8" standalone="no"?-->

<!--
************* Copyright (c) 2015 Pareto Softare, LLC DBA Simplemaps.com *******************		
************* Free for Commercial Use, full terms at  http://simplemaps.com/resources/svg-license ************
************* Attribution is appreciated! http://simplemaps.com ***************************
-->

<svg
   xmlns:dc="http://purl.org/dc/elements/1.1/"
   xmlns:cc="http://creativecommons.org/ns#"
   xmlns:rdf="http://www.w3.org/1999/02/22-rdf-syntax-ns#"
   xmlns:svg="http://www.w3.org/2000/svg"
   xmlns="http://www.w3.org/2000/svg"
   xmlns:sodipodi="http://sodipodi.sourceforge.net/DTD/sodipodi-0.dtd"
   xmlns:inkscape="http://www.inkscape.org/namespaces/inkscape"
   enable_background="new 0 0 1000 1585"
   height="549.01257"
   pretty_print="True"
   style="fill:none;stroke:#000000;stroke-linejoin:round"
   version="1.1"
   viewBox="0 0 354.46857 549.01257"
   width="354.46857"
   id="svg2"
   inkscape:version="0.91 r13725"
   sodipodi:docname="Arequipa.svg"><sodipodi:namedview
   pagecolor="#ffffff"
   bordercolor="#666666"
   borderopacity="0.05098039"
   objecttolerance="10"
   gridtolerance="10"
   guidetolerance="10"
   inkscape:pageopacity="0"
   inkscape:pageshadow="2"
   inkscape:window-width="1920"
   inkscape:window-height="1017"
   id="namedview37"
   showgrid="false"
   inkscape:zoom="1.431634"
   inkscape:cx="-100.89172"
   inkscape:cy="259.96397"
   inkscape:window-x="-8"
   inkscape:window-y="-8"
   inkscape:window-maximized="1"
   inkscape:current-layer="svg2"
   showborder="true"
   fit-margin-top="10"
   fit-margin-left="10"
   fit-margin-right="10"
   fit-margin-bottom="10"
   borderlayer="false"
   inkscape:showpageshadow="false"
   inkscape:snap-to-guides="false"
   inkscape:snap-grids="false"
   showguides="false" />























utf-8<defs
   id="defs4">
  <style
     type="text/css"
     id="style6">path { fill-rule: evenodd; }utf-8utf-8</style>
</defs>























utf-8<metadata
   id="metadata8">
utf-8utf-8<views>
utf-8utf-8utf-8<view
   h="1585.21431143"
   padding="0"
   w="1000">
utf-8utf-8utf-8utf-8<proj
   flip="auto"
   id="robinson"
   lon0="-80.0286400104" />























utf-8utf-8utf-8utf-8<bbox
   h="307.01"
   w="193.79"
   x="-1203.32"
   y="0.49" />























utf-8utf-8utf-8</view>























utf-8utf-8</views>























utf-8<rdf:rdf>
  <cc:work
     rdf:about="">
    <dc:format>image/svg+xml</dc:format>
    <dc:type
       rdf:resource="http://purl.org/dc/dcmitype/StillImage" />
  </cc:work>
</rdf:rdf>
<rdf:rdf>
  <cc:work
     rdf:about="">
    <dc:format>image/svg+xml</dc:format>
    <dc:type
       rdf:resource="http://purl.org/dc/dcmitype/StillImage" />
    <dc:title />
  </cc:work>
</rdf:rdf>
<rdf:RDF>
  <cc:Work
     rdf:about="">
    <dc:format>image/svg+xml</dc:format>
    <dc:type
       rdf:resource="http://purl.org/dc/dcmitype/StillImage" />
    <dc:title />
  </cc:Work>
</rdf:RDF>
</metadata>























utf-8<path
   style="fill:#ffffff;fill-opacity:1;fill-rule:evenodd;stroke:#808080;stroke-width:0.49999997;stroke-linecap:butt;stroke-linejoin:miter;stroke-miterlimit:4;stroke-dasharray:none;stroke-opacity:1"
   d="m 229.2091,279.4164 3.77884,-6.53982 0,-4.3025 -3.43528,-3.61412 -2.40471,-2.0652 -1.37418,-7.74449 3.26358,-0.17173 3.26356,-7.40032 1.88939,-3.9582 0.68708,-5.33517 0.68708,-3.95831 2.57641,-4.13038 -0.51527,-4.30249 4.98124,-1.72103 0.17177,-2.0652 -3.43528,-4.30249 3.09174,-0.68834 2.23294,-1.89316 1.20246,-2.23726 1.71767,-0.68846 1.20226,-1.72092 -2.57642,-2.4094 7.21413,-3.26994 0.68705,-2.06518 -2.74821,-1.03261 -0.17163,-2.06522 3.77892,-3.614 -0.34355,-4.30252 1.37418,-1.89309 -2.233,-2.75363 -0.85885,-3.44198 0.68705,-2.40936 1.7177,-2.06522 1.20235,-2.23732 2.40476,1.54889 1.54583,4.47456 3.26354,2.75365 2.57651,0.8605 2.57644,2.92571 -2.57644,4.30249 -3.77887,2.23732 -1.37408,2.75359 3.77883,0.86041 5.84001,-0.68834 3.9506,2.23728 3.43529,3.95836 2.06124,-1.37689 1.37411,-4.30248 1.88938,-1.03258 3.26354,0.8605 2.57651,-3.26985 -1.71765,-2.75368 -0.34355,-1.20464 3.09178,0 3.09179,3.26984 4.98117,4.47466 3.09181,2.75355 4.63762,-3.61407 1.54591,-1.03259 2.74824,1.89311 3.77885,3.61406 -2.4047,1.89307 1.03058,3.44202 -2.23294,3.61412 1.71763,2.92563 1.03057,4.64672 -1.71762,4.99091 0.68705,2.58154 1.71766,0 3.09175,-2.40944 0.68711,2.75356 2.40468,-1.54884 1.88943,-1.03259 3.09181,3.61409 -1.03063,3.44197 1.20233,5.67929 3.77888,2.92566 1.71767,2.75363 0.3435,3.09772 2.23295,2.40944 -3.09172,2.75365 1.20234,4.47455 0.51523,4.47459 4.1224,2.23731 -0.51526,2.75355 -3.43528,-0.51627 -3.09183,1.8931 -4.29414,0.68836 -3.09177,0.51635 -2.06116,1.0326 -0.17162,-1.8931 -4.46592,0.68841 -1.03058,1.0326 -2.7483,1.20472 -2.23292,0 -1.71766,-1.37685 -0.85881,-3.09778 -3.60707,0 -1.20235,0 0.34357,4.47463 0,1.03259 -2.40476,1.3768 -1.71765,1.37674 -0.34351,3.95833 0.34351,2.06515 1.20233,0 1.71766,2.06518 -0.17162,3.95829 -3.60702,5.67933 c 0,0 -0.51534,1.72102 -1.20237,1.72102 -0.68709,0 -4.29412,-0.86046 -4.29412,-0.86046 l -4.12235,1.72093 -3.95072,1.72107 2.06122,2.58143 1.37412,1.89308 -3.26355,1.54891 -3.43536,2.75359 -0.51519,2.92574 -1.5459,3.26983 c 0,0 -1.54586,0.86056 -2.57651,0.86056 -1.03054,0 -1.71764,-0.17225 -1.71764,-0.17225 l -3.09175,-3.44208 -2.06121,-2.06518 2.40474,-2.40934 0,-2.23731 -3.26358,-2.2373 -2.74823,-1.37688 2.0612,-1.89304 -1.54594,-4.47463 -3.4353,-3.26987 -3.09176,-3.44201 -1.03061,-3.2699 -3.2635,-1.37683 -3.26353,-0.86042 -2.23301,-0.34425 -1.88939,2.75359 -2.40473,2.23735 -1.54588,-2.92572 0.68708,-4.47456 -0.51529,-2.40948 0,-2.75355 -0.34355,-1.54888 -2.23296,1.54888 -1.88943,0.68835 -2.06114,0 -1.88944,3.78623 -1.20235,0.68845 -1.5459,1.54883 -0.34349,1.54892 z"
   id="EDUCACION_AREQUIPA_NORTE"
   inkscape:connector-curvature="0"
   inkscape:label="" />
<path
   style="fill:#ffffff;fill-opacity:1;fill-rule:evenodd;stroke:#808080;stroke-width:0.49999997;stroke-linecap:butt;stroke-linejoin:miter;stroke-miterlimit:4;stroke-dasharray:none;stroke-opacity:1"
   d="m 256.71905,331.21838 5.49655,-3.78625 3.60702,-2.92565 4.46592,0.17193 1.71769,0 0.85883,-4.30246 2.57643,-1.54893 -0.68706,-1.20474 -3.6071,-0.34415 -1.03054,-2.75362 0.1716,-2.5815 -2.23294,-2.23727 -2.74827,-2.06528 0.51532,-2.06514 1.88942,-2.23731 -1.20233,-0.86046 -1.37415,-1.54891 -2.40474,-0.86049 -1.88943,-1.03258 1.71768,-2.06519 0.34352,-3.09783 -3.09174,-3.09776 -3.0918,-3.09781 -2.233,-5.16301 -3.26348,-1.54886 -3.4353,-0.17177 -2.0612,2.75366 -3.43532,2.4093 -1.37413,-2.23729 -1.03061,-3.78616 0.85884,-2.92572 -0.68706,-2.75356 0.17158,-1.721 -2.40466,1.721 -2.23294,-0.34425 -1.88945,4.30256 -2.57647,0.51629 -0.34354,2.58153 -3.26355,-0.86053 -0.34347,3.09783 -5.49656,0 -0.51526,1.89301 1.03062,2.40944 -1.54587,1.37677 -1.20237,2.40937 0,2.75362 -1.54595,2.06521 -2.40477,0 -0.68697,2.58146 0,2.4094 -1.20238,-0.86052 -2.40474,3.44201 0.17129,2.58155 -0.85883,2.58143 -7.55766,2.40948 1.5459,2.58148 4.2941,0.8605 3.43535,-0.51636 3.26351,1.54891 6.87069,1.20472 3.77879,-2.75363 2.91999,-3.09777 2.57649,-0.34419 -1.03052,2.92571 -3.26362,3.61411 -1.37413,2.06519 3.43533,1.20463 5.32473,5.50722 0.85883,2.92571 2.91997,0.6884 1.88946,1.54892 2.40467,-0.34418 3.95066,0.51623 1.88944,1.20473 2.23288,-4.99091 3.60709,-3.95826 2.06121,-1.2047 1.03061,2.75355 z"
   id="UGEL_LA_JOYA"
   inkscape:connector-curvature="0"
   inkscape:label="" />
<path
   style="fill:#ffffff;fill-opacity:1;fill-rule:evenodd;stroke:#808080;stroke-width:0.49999997;stroke-linecap:butt;stroke-linejoin:miter;stroke-miterlimit:4;stroke-dasharray:none;stroke-opacity:1"
   d="m 202.09767,301.78934 -1.03061,-5.50722 -1.88938,-2.40936 0,-3.95831 -0.34357,-2.75362 -2.4047,-1.03259 0.51528,-2.7536 -0.68705,-1.89307 0.17177,-3.26993 -2.23298,-2.92568 0,-1.89311 1.03064,-1.54888 0.85886,-0.68843 1.88936,1.89314 2.06117,-0.68841 1.7177,0.34418 2.74824,1.54892 0.68705,-0.51633 -0.34352,-2.40943 -1.03061,-2.75353 -1.20238,-1.37676 1.54592,0 0,-1.37688 2.74824,-0.34417 2.74821,-2.75364 1.03062,-1.72094 -2.92003,-3.95826 -1.2023,-2.58152 -2.23295,-1.72099 -2.233,-5.33506 -1.20232,-1.37686 -3.9506,1.03258 -1.71766,-3.78613 -1.54589,-4.13043 3.4353,-2.58154 3.43529,0.68842 2.23299,0.6884 2.06117,-1.37682 3.26353,-2.06514 3.09178,-3.6141 -0.85885,-1.721 -1.20232,-2.75363 0.51524,-3.61406 -2.91996,0.51628 -0.17213,-1.72096 0.5153,-4.6467 1.54589,-2.92569 0.34355,-1.54887 0.6871,-2.23733 -0.34357,-2.06521 2.06117,-0.68839 -1.20232,-1.37678 1.71768,-0.86054 -1.20245,-1.20467 0.34358,-1.37682 0.51528,-2.06516 -1.54586,-2.06522 4.9812,-1.89313 -0.51533,-1.54889 2.4047,-0.86046 2.233,-2.58148 3.26355,-1.03263 2.23293,-2.5815 1.54585,-2.4094 -0.34349,-1.37677 -0.1718,-2.40941 0.1718,-2.40937 3.60709,-0.86051 3.09173,-1.20469 3.09179,-1.03265 2.0612,0.51627 0.34351,3.09785 2.74826,3.09775 1.71765,1.37683 1.20232,0 0.51536,-2.58148 -0.51536,-5.3351 -0.51527,-5.67928 2.40479,-3.95829 2.23291,-2.06523 4.12235,4.30252 -1.3741,3.78615 2.23287,2.92576 -0.85877,4.47457 -2.06117,1.0326 -0.34351,3.09778 1.20231,4.13034 2.23298,1.89317 -1.8895,0.68837 -0.34348,4.9909 -2.23298,2.40941 -0.51529,3.44203 2.23297,1.54884 -2.23297,1.89313 -3.77878,1.5489 -1.88946,1.20468 2.57647,2.92569 -2.57647,1.37685 -0.17164,1.37677 -1.88937,0 -1.71769,2.75363 -3.09173,1.20467 3.09173,4.47453 0.68713,1.03262 -4.29415,2.23735 0,3.26982 -2.7483,6.3677 -0.17144,3.95832 -0.51534,3.61406 -1.03053,2.75363 -1.71769,2.23732 -1.03058,2.23729 -0.85882,2.7536 -1.5459,1.37679 -0.17146,0.68842 -2.40473,-0.34422 1.54595,9.46545 3.77878,3.44198 1.88938,2.58149 -0.51525,3.26992 -3.09177,5.16304 -0.34351,3.78611 -4.80945,0.34425 -1.20238,2.06519 0.68709,2.75359 -1.71765,2.0652 -0.68708,3.61411 -0.85883,2.23729 -3.09179,0.8605 -0.68708,2.75358 -3.09172,-2.40943 -1.88944,2.92574 -2.23292,0.17264 -2.23302,0.34421 z"
   id="UGEL_CASTILLA"
   inkscape:connector-curvature="0"
   inkscape:label="" />
<path
   style="fill:#ffffff;fill-opacity:1;fill-rule:evenodd;stroke:#808080;stroke-width:0.49999997;stroke-linecap:butt;stroke-linejoin:miter;stroke-miterlimit:4;stroke-dasharray:none;stroke-opacity:1"
   d="m 146.82245,217.88832 0.97168,-4.25929 0.48587,-2.06879 2.55051,0.12163 3.1579,0.73015 2.91495,-0.12173 0.97166,-2.92064 2.06475,-3.52911 1.82185,-2.92057 2.18619,-1.58208 2.42912,-2.55554 1.09316,-1.82535 0,-1.70373 0.72875,-0.85184 0.48575,-3.28571 0,-2.43385 1.9433,-1.09529 -0.60724,-2.06872 -2.30766,-2.4339 -1.21458,-2.31217 2.06476,-3.40736 2.30766,-3.77251 3.64372,-2.7989 3.64365,0.48678 1.4575,-0.48678 1.70038,-3.04235 2.06479,-3.77246 1.70038,-2.43389 1.70039,0.85187 2.79346,-0.3651 1.09317,2.31219 3.15791,-0.36507 2.67202,0 3.15778,2.0688 2.42917,-1.94712 4.1295,-0.12151 3.40077,0 0.24312,1.4603 -2.0647,2.31218 1.57883,3.52911 2.18627,1.4603 2.18624,2.31219 4.6153,0.85182 3.76515,0.48677 0.12149,2.79893 0.72874,1.82539 -2.67199,3.52907 -2.79352,1.21693 -1.33599,0.48686 -1.45752,1.21688 -1.45746,1.82542 -3.40075,0.60844 1.33596,1.21696 -4.12946,1.82534 -1.57897,0 1.70037,1.8254 1.21461,2.06879 0.12137,1.3386 -0.97158,1.21698 0.3643,1.33854 -1.09307,0.48683 0.85024,1.58201 -1.579,0.48677 -2.67206,0.60844 -1.82181,-0.24348 -1.09311,0.73016 -1.21452,0.85186 -1.21461,-0.97364 -1.57893,1.8255 -0.8502,-1.46034 -2.06478,1.58202 -3.03641,1.21692 -2.55055,0.12171 -1.70044,-0.36502 -1.57894,0.48674 -0.60727,2.31218 -1.336,1.8254 -1.94336,0.8518 -0.36428,1.0953 0.24309,2.4338 -1.70036,2.43386 -1.45752,0.60855 -2.672,-0.36512 -2.30768,-0.48684 -1.5789,0.85196 -0.7288,1.33856 -0.72868,3.28568 -0.48586,2.19052 -3.88663,3.16402 -1.21453,1.09522 -3.03646,0.73017 -2.79347,-0.60849 -3.76518,-2.79891 -2.55055,-4.13762 -1.70039,-3.89412 -1.70039,-1.82543 z"
   id="EDUCACION_AREQUIPA"
   inkscape:connector-curvature="0"
   inkscape:label="" />
<path
   style="fill:#ffffff;fill-opacity:1;fill-rule:evenodd;stroke:#808080;stroke-width:0.49999997;stroke-linecap:butt;stroke-linejoin:miter;stroke-miterlimit:4;stroke-dasharray:none;stroke-opacity:1"
   d="m 199.53457,299.80278 -0.48584,-2.31221 -0.12136,-0.85176 -0.8502,-2.67731 -1.9433,-2.43386 -0.36436,-1.46034 0.12135,-2.7989 0,-0.85186 -1.45741,-0.60843 -1.21457,-1.21695 0.48587,-1.82539 -0.48587,-2.43385 0,-1.21693 0.24313,-2.31213 -1.33601,-1.46035 -0.97161,-2.79896 0.48581,-2.31215 1.21453,-1.33864 0.36439,-1.70373 0.60729,-1.33861 0.97158,2.67728 0.72875,0.85187 1.94334,0 0.85023,-0.73016 1.70037,0.48673 1.7004,1.46034 0,-1.582 -0.3644,-0.97354 -0.36434,-0.97358 -0.72877,-0.48673 -0.48583,-1.21692 1.09315,-0.7302 -0.12137,-1.82539 3.76517,-0.73014 1.45745,-1.46029 1.09314,-1.46032 -0.85023,-1.33863 -1.09308,-1.2169 -0.8502,-3.16407 -0.97162,-1.21691 -1.21458,-0.36511 -0.72877,-1.4603 -0.60728,-1.09523 -1.09307,-2.19045 -0.60729,-0.85189 -0.97166,-1.33854 -1.21457,0.48672 -2.06478,0.60849 -0.72872,-2.19052 -0.97166,-1.82535 -0.97167,-0.85184 0,-0.97358 -1.57884,-2.3122 0.24311,-1.46025 2.18617,-1.70373 2.30764,-1.33856 2.18622,0.24341 1.70039,0.73022 1.82188,-0.60846 1.45744,-0.97349 2.18623,-0.85188 1.70042,-2.43385 0.97164,-1.33866 -1.21456,-1.70375 -0.60733,-1.58199 0.60733,-2.43381 -1.70039,0.73013 -0.97166,-1.94705 -0.24312,-1.09528 0.60731,-2.06877 -0.24313,-2.06877 0.85017,-2.55551 0.97165,-1.70373 0,-1.33865 0.97165,-1.33862 -0.60727,-1.94707 -0.48582,-0.36504 -1.33601,0.48672 -2.06479,-0.12162 -1.57889,1.09527 -0.36441,0.73018 -1.45746,-0.85188 -1.57896,1.46032 -0.60726,0.36507 -0.97165,-1.21691 -2.55058,1.58197 -2.55056,0.60843 -1.57903,0.12174 -2.42907,-0.48671 -0.48579,0.9735 -0.72878,1.70366 -0.97164,0.97353 -0.2431,1.09531 -1.94333,0.60843 0.12137,2.19047 -0.85017,2.06876 -1.33608,2.31223 -1.45745,0 -2.67205,-0.36506 -1.33603,-0.3651 -1.70038,0 -1.21456,1.82537 -0.24308,1.582 -0.24309,2.79897 -2.18627,2.19045 -3.03642,1.94704 -0.85019,1.09525 -1.57894,0.97359 -1.82183,0.48675 -0.6073,0.73014 -3.52227,-2.31211 -2.06475,-1.21701 -1.33599,1.8254 -0.48585,2.43388 0,3.2857 0.12135,2.31216 0.48584,1.58197 1.21461,2.19051 1.21454,3.52912 1.09309,1.58198 4.12957,1.09526 1.33603,3.52913 0.9716,1.94702 3.03643,-1.58193 1.94333,-0.36509 2.79349,1.46028 -0.8502,2.19053 -1.21458,1.33854 2.67207,1.3386 1.57891,2.1905 -2.42915,1.94708 -1.336,2.19051 2.42917,1.09522 2.79345,0.73016 3.40075,0.73014 1.09318,1.33865 0.60722,2.06875 1.7004,3.16403 0.12137,2.06877 0.72873,2.55556 1.21457,1.8254 0.72873,3.40742 0.48585,3.52905 1.336,1.33867 3.76515,2.55552 2.0648,1.7037 1.09303,1.46031 1.45748,2.0688 2.67205,2.31217 1.57894,0.85177 0.48586,-1.21689 z"
   id="UGEL_CONDESUYOS"
   inkscape:connector-curvature="0"
   inkscape:label="" />
<path
   style="fill:#ffffff;fill-opacity:1;fill-rule:evenodd;stroke:#808080;stroke-width:0.49999997;stroke-linecap:butt;stroke-linejoin:miter;stroke-miterlimit:4;stroke-dasharray:none;stroke-opacity:1"
   d="m 12.715282,227.16733 2.30768,-2.92066 0,-4.25922 2.914924,-2.67724 0.121636,-3.65084 3.157851,-5.59784 4.250969,-2.55553 4.250958,-1.33866 2.42915,-2.06874 2.914962,-0.48676 2.064757,1.94706 4.008056,0 2.914992,0.60844 4.008052,0.24352 2.429117,0 4.250992,2.19051 3.643656,-0.24353 2.550616,0 0.850222,4.74607 -0.971645,4.50262 2.307635,2.19053 3.157881,3.04222 0.728743,3.52915 0.485833,4.98937 1.700351,1.09526 6.437199,0.36509 3.522238,-0.60848 0.850215,-4.25926 3.522212,-1.58198 3.522246,0.12162 1.214586,3.16402 0,2.92066 -2.42917,1.70368 -0.364361,3.04233 -0.850162,3.77246 0,2.79895 2.550592,0.1214 2.672035,-1.94704 1.45747,-3.77248 5.344093,-6.32805 3.036417,-2.31224 1.21455,-3.04228 -0.60725,-4.50257 3.27935,-2.55559 3.40073,1.09523 2.55062,3.7725 2.672,2.31212 4.0081,2.19051 3.52225,-0.85185 2.672,-1.46035 5.10117,-1.21691 6.43723,-2.67723 1.45741,2.31216 5.9514,0.97356 4.00805,-1.33863 3.03644,5.59785 2.30763,3.77248 0.97169,1.46033 -1.57895,2.67723 -0.12161,4.01585 0.12161,3.16407 -1.94333,1.09522 -0.24311,3.7725 -1.21452,3.0423 0.36432,3.40736 -0.12135,2.79901 0.24313,2.31211 1.21455,1.46031 0.36435,1.46037 0.48578,1.94699 0.12147,2.92067 -0.60722,1.33861 -0.97167,0 0.72873,3.65081 0.48584,3.40736 0.60722,2.55559 0.9717,3.52907 0.24312,1.70368 0.48584,4.13757 0.48585,2.55557 -1.82195,0.85187 -0.72874,2.31213 -1.336,2.79895 -2.55059,2.1905 -1.21452,-0.12151 -2.06479,-2.31216 -8.13752,-3.40738 -2.91501,-0.24349 -4.37243,-2.19047 -4.49388,-1.09524 -4.25091,-0.97353 -3.64375,-0.73018 -0.48598,0.60849 -2.91496,-2.43389 -10.3238,-4.746 -1.45745,-2.06877 -4.979736,-3.89415 -3.157891,-2.06882 -1.700356,-1.58201 -0.364408,-2.92063 -6.801581,-4.13753 -8.623355,-3.7725 -2.429205,-1.70369 -1.578871,-1.33859 -5.951359,0.48675 -4.85829,-2.43381 -1.943283,-4.01593 -2.429147,-2.67717 -13.238755,-5.35455 -8.501968,-4.62427 -5.222618,-2.06888 z"
   id="UGEL_CARAVELI"
   inkscape:connector-curvature="0"
   sodipodi:nodetypes="cccccccccccccccccccccccccccccccccccccccccccccccccccccccccccccccccccccccccccccccccccccccccccccccccccccccccccccccc"
   inkscape:label="" />
<path
   style="fill:#ffffff;fill-opacity:1;fill-rule:evenodd;stroke:#808080;stroke-width:0.49999997;stroke-linecap:butt;stroke-linejoin:miter;stroke-miterlimit:4;stroke-dasharray:none;stroke-opacity:1"
   d="m 230.14163,343.7643 -3.88668,-2.67724 -1.70037,-0.7302 -1.94328,-1.2169 -0.48591,-2.5556 -1.45734,-1.21696 -0.85025,-1.582 -2.55062,-1.21695 -2.79344,-2.67714 -2.91497,-2.06883 -1.57899,-1.58199 -8.9877,-1.82537 -8.98782,-1.82547 -3.76514,-0.48666 -1.33608,0 -3.76513,-3.52913 -3.88658,-3.52908 -3.76515,-2.3122 -4.00807,-0.12175 -5.22263,-1.58195 -3.40077,-2.43387 -2.30768,-0.85188 -1.82185,-0.97352 -2.67201,-1.70372 -4.97974,-1.09522 -2.18621,-0.85185 -2.30768,-0.60846 2.67203,-1.8254 1.57894,-0.73018 1.09309,-2.55548 1.21456,-2.06885 0.12149,-0.97349 2.18622,-0.60849 0,-1.82541 -0.36439,-2.19046 -0.24308,-0.97353 -0.48579,-2.43385 -0.48585,-1.58202 0.48585,-0.97353 -0.97165,-1.46032 -0.60734,-2.79894 0,-2.43384 -0.36433,-1.21692 -0.60734,-2.19048 -0.36433,-1.58203 1.45743,-0.24347 0,-1.70373 0,-1.09524 -0.60721,-0.97352 0.48578,-2.06877 -0.60725,-0.85187 0.2431,-1.94706 -0.36437,-1.46031 -1.57888,-0.36504 0,-2.92071 0,-1.33859 0.24314,-1.09528 -0.12125,-2.06874 0.12125,-1.8254 1.21449,-1.70368 -0.60728,-1.70375 0.48585,-1.33861 1.5789,1.94711 0.85024,0.73014 0.48579,1.70372 0,2.06878 0.85021,1.4603 1.70042,1.09522 1.82182,0.97356 0.60729,-0.48679 1.33604,0.60854 0.60729,1.70359 0.24307,1.58199 1.21459,1.46041 1.5789,0.48677 0.48585,-0.24346 1.336,-0.97362 0.97168,-0.97351 1.45748,0.48681 1.45746,0.97354 -2.06471,1.21696 -0.24314,1.46025 1.33605,1.33864 1.09307,0.73017 1.21459,0.24345 0.85015,1.46035 -1.94324,0.60848 -1.45749,1.4603 0.12148,1.82538 0.36438,1.58196 1.70038,0.12176 1.33606,1.21696 1.5789,0 1.21461,-0.24347 2.0647,0.36505 1.57896,1.46029 0.36437,2.43392 2.18621,3.164 -0.72873,2.19055 1.21457,1.70359 1.21457,3.04235 0.36439,2.19048 0.7287,3.77242 0.60722,1.21701 2.7935,1.09523 1.45757,1.33862 2.55055,2.19043 1.33606,1.94709 2.42912,2.55556 2.42907,1.46033 1.7004,0.97355 0.8502,-2.0688 -0.12136,-0.8518 1.70042,-0.36513 0.36442,-1.70371 1.94326,-0.24347 1.09312,0.73009 1.94334,-1.33861 0.97159,-2.43387 1.70042,1.70377 -0.72876,1.58196 -1.336,3.04232 0.12136,3.52912 -4.49384,1.58203 -2.30773,0.97351 -2.18623,1.582 1.57894,2.79895 2.06473,0.9735 3.15791,0.36508 3.76514,0.12139 2.79349,1.33859 2.91499,0.85191 4.49387,-0.12173 2.91494,-1.21686 2.42911,-2.92061 1.33605,-1.4604 1.45747,0.12163 -2.06475,2.55556 -2.79352,2.92061 -0.97163,2.67725 2.79353,0.97362 2.55057,0.85176 2.7935,3.04232 2.06474,2.79898 -0.60726,1.4603 -2.79349,0.24352 -1.09309,1.46025 0.36431,3.40742 1.94331,0 2.18622,0.48675 0.72872,1.33866 -1.8218,2.31218 z"
   id="UGEL_CAMANA"
   inkscape:connector-curvature="0"
   inkscape:label="" />
<path
   style="fill:#ffffff;fill-opacity:1;fill-rule:evenodd;stroke:#808080;stroke-width:0.49999997;stroke-linecap:butt;stroke-linejoin:miter;stroke-miterlimit:4;stroke-dasharray:none;stroke-opacity:1"
   d="m 233.92598,344.12931 1.21454,-3.28565 1.70042,-1.21696 0,-1.33859 -1.57891,-1.46034 -2.30774,-0.48677 -1.45744,-0.85186 0.36435,-2.19046 3.1579,-0.85182 2.06473,-0.2435 1.94333,1.82539 1.9433,-0.36511 1.09316,0.85189 2.55053,0 2.55059,0.6085 1.70044,1.0952 5.34406,-8.15344 0.97164,-0.97352 1.70044,1.58196 -0.60736,2.92065 -0.60728,2.55553 0,0.97362 2.30765,-1.09528 3.4008,-2.5556 2.67204,-1.46025 2.18622,-1.82544 1.82189,0 4.25095,-0.36503 4.85822,-0.85192 2.06483,-0.36498 1.57893,1.0952 1.09308,-0.12164 0.72871,0.97351 0.60732,2.55563 1.09306,0.97351 1.579,0.48677 1.45747,0.48677 2.18619,0.4868 0,4.01585 0.97165,4.86769 0.48583,2.55558 -1.57893,1.582 3.27931,1.58201 1.33605,2.79895 3.15787,1.21691 2.4291,4.13751 0,3.0424 -6.31571,6.32801 -3.52224,3.16397 -3.03645,0.48686 -0.97164,2.31209 -2.30763,-0.48673 -4.37245,-1.70371 -12.87441,-4.74605 -6.07282,-1.0952 -3.15787,-2.92065 -4.1295,-3.65076 -2.42912,-3.04232 -4.0081,-1.70373 -2.79349,-0.85183 -3.88655,-0.24353 -2.18629,-4.25927 -1.21448,-0.1215 z"
   id="UGEL_ISLAY"
   inkscape:connector-curvature="0"
   inkscape:label="" />
<path
   inkscape:label=""
   inkscape:connector-curvature="0"
   id="EDUCACION_AREQUIPA_SUR"
   d="m 294.1851,329.48109 3.09781,-3.54993 3.54039,-0.44364 1.99145,1.99668 3.54031,-1.10938 -1.10634,-6.43415 3.54033,-6.65585 0.22128,-7.54337 10.1786,0.22183 4.20423,-0.22183 3.09772,3.10588 3.98296,-1.99676 -0.44251,-3.54978 -0.44262,-2.8843 -0.44257,-5.99038 2.65531,-0.66553 3.76158,-1.10941 2.87654,-1.77498 0.88498,-1.77484 -1.10616,-2.21878 -0.88523,-3.10602 -0.88499,-0.88739 0.88499,-2.21873 -0.88499,-2.21875 2.65537,-3.99369 2.6552,-0.22181 -1.10637,-4.88099 -1.99148,-0.88749 -0.4425,-1.10917 -2.43411,-0.22186 -2.43395,1.55303 -3.319,0.44381 -3.76173,0.22184 -1.99129,1.77504 -2.21281,0.44359 -0.66381,-1.77484 -3.7617,0.44377 -0.88515,1.10948 -1.77015,0.66534 -1.77011,1.77506 -1.99147,-0.88763 -1.99141,-1.99673 -1.32761,-1.33112 -0.22134,-2.21864 -2.43406,-0.22184 0,2.21867 1.32761,2.44051 -2.43397,2.21883 -2.87652,1.33102 0,3.77182 1.99145,0.66551 0.66382,3.5499 0,3.54987 -2.21276,4.21562 -2.43394,3.32788 -1.99148,0.44388 -3.09781,-0.66575 -5.31048,2.4405 -0.8851,0.44381 1.32753,1.99667 0.22131,2.21865 -3.54032,2.8843 -2.65526,3.10622 1.10633,1.99682 -2.43393,2.66239 -0.88508,0.44374 -1.10641,1.10934 -3.98288,0 -0.22131,1.33115 0.66381,1.99677 3.76163,-0.44364 0.66383,2.66232 -2.43402,1.10943 -0.88508,2.21854 0,2.21881 3.9829,-1.10942 2.87658,-0.2218 1.10633,1.1094 2.21275,-0.22189 0.22132,2.21857 1.32753,2.66231 4.86807,1.10938 z"
   style="fill:#ffffff;fill-opacity:1;fill-rule:evenodd;stroke:#808080;stroke-width:0.49999997;stroke-linecap:butt;stroke-linejoin:miter;stroke-miterlimit:4;stroke-dasharray:none;stroke-opacity:1" />
</svg>
