<?xml version="1.0" encoding="UTF-8" standalone="no"?>
<!--?xml version="1.0" encoding="UTF-8" standalone="no"?-->

<!--?xml version="1.0" encoding="UTF-8" standalone="no"?-->

<!--
************* Copyright (c) 2015 Pareto Softare, LLC DBA Simplemaps.com *******************		
************* Free for Commercial Use, full terms at  http://simplemaps.com/resources/svg-license ************
************* Attribution is appreciated! http://simplemaps.com ***************************
-->

<svg
   xmlns:dc="http://purl.org/dc/elements/1.1/"
   xmlns:cc="http://creativecommons.org/ns#"
   xmlns:rdf="http://www.w3.org/1999/02/22-rdf-syntax-ns#"
   xmlns:svg="http://www.w3.org/2000/svg"
   xmlns="http://www.w3.org/2000/svg"
   xmlns:sodipodi="http://sodipodi.sourceforge.net/DTD/sodipodi-0.dtd"
   xmlns:inkscape="http://www.inkscape.org/namespaces/inkscape"
   enable_background="new 0 0 1000 1585"
   height="549.01257"
   pretty_print="True"
   style="fill:none;stroke:#000000;stroke-linejoin:round"
   version="1.1"
   viewBox="0 0 354.46857 549.01257"
   width="354.46857"
   id="svg2"
   inkscape:version="0.91 r13725"
   sodipodi:docname="Ayacucho.svg"><sodipodi:namedview
   pagecolor="#ffffff"
   bordercolor="#666666"
   borderopacity="0.05098039"
   objecttolerance="10"
   gridtolerance="10"
   guidetolerance="10"
   inkscape:pageopacity="0"
   inkscape:pageshadow="2"
   inkscape:window-width="1920"
   inkscape:window-height="1017"
   id="namedview37"
   showgrid="false"
   inkscape:zoom="1.431634"
   inkscape:cx="-63.867997"
   inkscape:cy="328.77618"
   inkscape:window-x="-8"
   inkscape:window-y="-8"
   inkscape:window-maximized="1"
   inkscape:current-layer="svg2"
   showborder="true"
   fit-margin-top="10"
   fit-margin-left="10"
   fit-margin-right="10"
   fit-margin-bottom="10"
   borderlayer="false"
   inkscape:showpageshadow="false"
   inkscape:snap-to-guides="false"
   inkscape:snap-grids="false"
   showguides="false" />























utf-8<defs
   id="defs4">
  <style
     type="text/css"
     id="style6">path { fill-rule: evenodd; }utf-8utf-8</style>
</defs>























utf-8<metadata
   id="metadata8">
utf-8utf-8<views>
utf-8utf-8utf-8<view
   h="1585.21431143"
   padding="0"
   w="1000">
utf-8utf-8utf-8utf-8<proj
   flip="auto"
   id="robinson"
   lon0="-80.0286400104" />























utf-8utf-8utf-8utf-8<bbox
   h="307.01"
   w="193.79"
   x="-1203.32"
   y="0.49" />























utf-8utf-8utf-8</view>























utf-8utf-8</views>























utf-8<rdf:rdf>
  <cc:work
     rdf:about="">
    <dc:format>image/svg+xml</dc:format>
    <dc:type
       rdf:resource="http://purl.org/dc/dcmitype/StillImage" />
  </cc:work>
</rdf:rdf>
<rdf:rdf>
  <cc:work
     rdf:about="">
    <dc:format>image/svg+xml</dc:format>
    <dc:type
       rdf:resource="http://purl.org/dc/dcmitype/StillImage" />
    <dc:title />
  </cc:work>
</rdf:rdf>
<rdf:RDF>
  <cc:Work
     rdf:about="">
    <dc:format>image/svg+xml</dc:format>
    <dc:type
       rdf:resource="http://purl.org/dc/dcmitype/StillImage" />
    <dc:title />
  </cc:Work>
</rdf:RDF>
</metadata>























utf-8<path
   inkscape:label=""
   inkscape:connector-curvature="0"
   style="fill:#ffffff;fill-opacity:1;stroke:#808080;stroke-width:0.49999991;stroke-miterlimit:4;stroke-dasharray:none;stroke-opacity:1"
   id="EDUCACION_HUANTA"
   d="m 170.59214,141.09962 c 0,-1.48773 -0.37285,-2.70437 -1.45445,-4.75963 -1.42116,-2.70027 -1.43984,-2.79748 -0.85536,-4.4515 l 0.59754,-1.69104 -1.5985,-1.10599 c -1.34346,-0.9297 -1.67035,-1.45222 -2.04956,-3.27577 -0.8847,-4.25484 -0.84678,-4.40704 1.26208,-5.07297 l 1.88312,-0.59501 0.6408,-3.06097 c 0.63539,-3.03692 0.632,-3.08378 -0.43277,-5.9217 l -1.07356,-2.86059 -2.17188,0 c -1.19488,0 -2.17059,-0.13853 -2.16865,-0.30864 0,-0.16983 0.46434,-3.18086 1.02739,-6.69091 0.56313,-3.51038 1.02561,-6.706783 1.02758,-7.103059 0,-0.590727 -0.36834,-0.720506 -2.05848,-0.720506 -1.99232,0 -2.06216,-0.0095 -2.06216,-1.174252 0,-0.731731 -0.44692,-1.641271 -1.18596,-2.413482 -1.63343,-1.706454 -2.93799,-5.386644 -2.93799,-8.288121 0,-2.144944 -0.1305,-2.501151 -1.35991,-3.690227 l -1.35983,-1.316198 -4.98559,0 -4.9855,0 -0.27909,-1.856832 c -0.222,-1.48531 -0.85787,-2.55867 -3.16957,-5.359449 -2.85839,-3.462629 -2.88539,-3.518258 -2.41123,-4.95286 0.34851,-1.053172 0.66692,-1.394755 1.16387,-1.246472 1.22302,0.363902 6.29354,1.159359 6.41612,1.006352 0.0654,-0.08249 0.57492,-0.927181 1.1316,-1.878327 l 1.01244,-1.729252 1.00232,1.832121 c 1.00041,1.828481 1.00716,1.832109 3.29332,1.832109 2.21889,0 2.35861,-0.06779 4.44202,-2.174636 l 2.15098,-2.174701 0.003,-3.898824 c 0.004,-4.181941 0.27594,-5.880902 0.87526,-5.510934 0.20584,0.1271 0.92995,1.329529 1.60862,2.671486 l 1.23381,2.440856 2.10018,0 c 1.98704,0 2.20419,0.110611 4.03596,2.058878 1.4918,1.586269 2.22073,2.058541 3.17736,2.058541 1.14395,0 1.28261,0.161714 1.76946,2.05794 0.6241,2.431507 0.84014,2.616867 2.3682,2.037065 0.83097,-0.315396 1.2027,-0.313123 1.30981,0.005 0.19049,0.569918 2.90169,1.955786 5.72067,2.924192 l 2.18115,0.749189 1.19087,-1.000326 c 0.65496,-0.550187 1.5981,-2.002172 2.09588,-3.226873 l 0.90515,-2.226589 2.30926,-0.288599 c 1.82903,-0.227785 2.98574,-0.08795 5.56404,0.6769 l 3.25483,0.965011 -0.30081,1.85284 c -0.58201,3.583491 -0.6767,3.417405 3.9183,6.867661 l 4.28968,3.220702 1.87009,4.117608 c 1.50075,3.303561 1.91623,4.72767 2.10279,7.205451 l 0.23244,3.088187 1.56234,0.38561 c 1.47706,0.364627 1.5474,0.454145 1.28703,1.646942 -0.45632,2.088863 -3.38221,10.327438 -4.76161,13.407778 l -1.29123,2.88309 -2.16501,0 c -1.82873,0 -2.67286,0.29667 -5.43761,1.90695 l -3.27286,1.90689 0.18531,4.47535 0.18532,4.47544 -0.98077,0 c -1.63804,0 -3.89013,0.77442 -5.55069,1.89981 -1.53604,1.04079 -1.6473,1.05491 -4.57244,0.58389 -2.98696,-0.48112 -3.00314,-0.47874 -4.4541,0.67728 -0.80103,0.63806 -1.45637,1.26937 -1.45637,1.40281 0,0.13298 0.89797,2.00393 1.99553,4.15607 1.09739,2.15238 2.18695,4.66689 2.42137,5.58852 0.41125,1.6185 0.36419,1.75331 -1.38299,3.97614 l -1.80875,2.30054 -2.63556,0 c -2.40353,0 -2.78619,-0.12461 -4.34798,-1.42804 l -1.71239,-1.42855 -1.16065,1.32559 c -0.63844,0.72888 -1.5549,1.97396 -2.03673,2.76661 l -0.876,1.44121 0,-1.99849 0,0 z" />
<path
   inkscape:label=""
   inkscape:connector-curvature="0"
   style="fill:#ffffff;fill-opacity:1;stroke:#808080;stroke-width:0.49999991;stroke-miterlimit:4;stroke-dasharray:none;stroke-opacity:1"
   id="EDUCACION_HUAMANGA"
   d="m 184.86998,195.41488 c -2.2749,-1.5488 -2.50634,-1.87156 -2.50634,-3.49558 0,-1.44804 -0.31916,-2.06854 -1.67101,-3.25418 -1.38601,-1.21488 -1.67096,-1.7891 -1.67096,-3.36915 0,-1.46989 -0.23823,-2.0315 -1.04216,-2.46143 -0.88208,-0.4711 -1.1688,-0.40089 -1.8668,0.46 -1.13218,1.39592 -4.23089,1.43875 -4.59135,0.0639 -0.1363,-0.52426 -0.44416,-0.95309 -0.68193,-0.95309 -0.23795,0 -2.17988,0.8773 -4.31587,1.94943 -3.40497,1.70936 -4.14169,1.91096 -5.97788,1.63599 -1.65239,-0.24665 -3.03971,7.4e-4 -6.57376,1.17632 l -4.47919,1.48992 -1.82555,-0.93932 c -1.00398,-0.5168 -3.5118,-2.39932 -5.57307,-4.18361 l -3.74741,-3.24418 0.30038,-2.2623 0.30025,-2.26245 -3.10591,0.28941 c -1.86391,0.1735 -3.34922,0.0939 -3.71417,-0.19921 -0.33451,-0.26946 -1.2967,-0.63666 -2.13817,-0.81616 -0.99902,-0.21317 -1.63349,-0.68726 -1.8281,-1.36587 -0.81828,-2.85159 -0.87794,-2.70751 1.12263,-2.70751 1.53378,0 2.04619,-0.24535 2.73823,-1.31099 0.46823,-0.72093 2.01333,-2.72689 3.43379,-4.45769 l 2.58236,-3.14664 6.45909,-0.32313 c 5.86452,-0.29381 6.60153,-0.43205 8.00471,-1.50087 0.97486,-0.74205 2.17351,-1.17691 3.24601,-1.17691 1.67845,0 1.70474,-0.009 2.02882,-2.38407 0.28434,-2.06485 0.15755,-2.67379 -0.94087,-4.54658 l -1.26925,-2.16235 1.72519,-3.08012 c 0.94875,-1.69413 1.96939,-3.08014 2.26766,-3.08014 0.29831,0 1.54351,0.84258 2.7668,1.87243 2.21619,1.8658 7.6874,3.85622 8.01127,2.91431 0.0823,-0.23725 1.12494,-1.7048 2.31908,-3.26152 l 2.17111,-2.83042 1.97738,1.09322 c 1.08772,0.60145 2.78624,1.24135 3.77478,1.4222 1.63202,0.29811 1.98313,0.15764 3.81925,-1.52425 2.37785,-2.1788 5.32291,-4.45251 5.76711,-4.45251 0.17176,0 0.31295,0.9633 0.31295,2.14095 0,1.58631 0.23386,2.28732 0.90622,2.70592 0.73947,0.46113 0.81445,0.76581 0.40849,1.65587 -0.37247,0.81583 -0.32983,1.32574 0.16803,2.02155 0.36641,0.51173 2.20169,3.03944 4.07887,5.61714 5.77145,7.92541 7.87192,12.26706 10.18414,21.0496 0.51371,1.95077 0.73773,2.15486 4.13395,3.76528 l 3.5908,1.70272 -0.14014,2.19279 c -0.0761,1.20604 0.10008,2.94371 0.39601,3.86135 0.29524,0.9176 0.6708,2.63327 0.83576,3.81326 0.28901,2.06346 0.27068,2.10417 -0.46299,1.07099 -0.61641,-0.86813 -0.94053,-0.97921 -1.68929,-0.57951 -0.77611,0.41495 -0.92651,0.33773 -0.92651,-0.47482 0,-0.83986 -0.3044,-0.96977 -2.26767,-0.96751 -2.22006,0 -2.30224,0.058 -3.91119,2.56812 l -1.64354,2.56548 -1.30562,-0.96363 c -1.14476,-0.845 -1.34611,-1.39423 -1.63301,-4.45366 l -0.32751,-3.48973 -2.1725,-0.3261 c -1.89869,-0.2842 -2.61419,-0.10651 -5.67491,1.40516 -3.3205,1.6404 -3.50225,1.8137 -3.50225,3.34393 0,0.88776 0.32206,1.881 0.71617,2.20728 0.47421,0.39285 0.7161,1.45972 0.7161,3.15684 l 0,2.56309 -1.79027,-0.009 c -1.23472,-0.005 -2.56806,-0.55939 -4.29672,-1.73659 l 0,0 z" />
<path
   inkscape:label=""
   inkscape:connector-curvature="0"
   style="fill:#ffffff;fill-opacity:1;stroke:#808080;stroke-width:0.49999991;stroke-miterlimit:4;stroke-dasharray:none;stroke-opacity:1"
   id="EDUCACION_HUANCASANCOS"
   d="m 155.38989,272.58306 c -0.77495,-0.59321 -2.30341,-0.71212 -8.11586,-0.63086 -6.42949,0.0908 -7.38069,0 -9.30948,-0.91208 -1.18152,-0.55638 -2.75539,-1.01643 -3.49739,-1.02203 -1.30946,-0.004 -1.34475,-0.0759 -1.20744,-2.27477 l 0.14106,-2.26398 -2.6684,-0.14119 c -2.12962,-0.11197 -2.89771,-0.38487 -3.80391,-1.34792 l -1.13537,-1.20664 -2.68772,3.00018 c -2.61862,2.92299 -2.72241,2.98446 -4.03443,2.38745 -1.0036,-0.45661 -1.18309,-0.71343 -0.70468,-1.00855 0.53266,-0.32845 0.50817,-0.92757 -0.14389,-3.52086 -0.85207,-3.38658 -1.07318,-15.80432 -0.47811,-26.85201 l 0.3079,-5.7214 7.07108,-1.07686 7.07123,-1.0767 0.55568,-1.73758 c 0.30563,-0.95588 0.69082,-1.87616 0.85604,-2.04528 0.50862,-0.52067 8.88209,1.81556 9.02982,2.51964 0.0752,0.35615 1.14894,1.23339 2.38704,1.9494 1.23798,0.71557 3.27225,2.19934 4.52033,3.29687 2.96033,2.60295 4.06176,2.57307 8.40002,-0.22865 1.89418,-1.22356 3.58458,-2.22439 3.75635,-2.22439 0.17163,0 0.82099,0.47698 1.4425,1.05988 1.12443,1.05502 1.57919,0.8994 2.15816,-0.73831 0.0763,-0.2162 1.48183,-0.24127 3.12295,-0.0567 l 2.98377,0.33697 1.30087,2.67186 c 1.29294,2.65491 1.32017,2.67629 4.40413,3.41514 l 3.10324,0.74333 0.40644,2.36935 c 0.3691,2.15153 0.66129,2.56136 3.17671,4.46 2.61774,1.97618 2.78721,2.22896 3.08396,4.6007 0.25254,2.02024 0.12222,2.88532 -0.67016,4.43606 -1.21078,2.3697 -1.21165,2.44128 -0.008,2.44128 1.78934,0 1.09016,1.59824 -2.78269,6.3623 -2.32672,2.86192 -3.1504,3.49337 -6.68606,5.12398 -3.86647,1.78353 -4.23567,1.85996 -8.97848,1.85996 -4.14351,0 -4.94596,0.11892 -4.94596,0.73711 0,0.74464 -4.37057,3.07658 -5.72899,3.05652 -0.39399,-0.004 -1.14569,-0.33941 -1.6708,-0.74111 z" />
<path
   inkscape:label=""
   inkscape:connector-curvature="0"
   style="fill:#ffffff;fill-opacity:1;stroke:#808080;stroke-width:0.49999991;stroke-miterlimit:4;stroke-dasharray:none;stroke-opacity:1"
   id="EDUCACION_CENTRO_AYACUCHO"
   d="m 188.32497,212.63933 -3.25064,-2.24088 -8.87461,-0.3968 -8.87453,-0.39676 -5.37333,-2.11325 c -4.734,-1.86236 -5.81692,-2.11375 -9.10296,-2.11375 -2.11172,0 -5.2039,0.38617 -7.12749,0.89044 l -3.39757,0.89086 -5.65622,-2.97834 -5.65629,-2.97814 -3.80383,1.59434 c -3.09791,1.29819 -4.44317,1.59696 -7.24758,1.61064 l -3.44351,0.004 -1.33055,-2.71989 c -1.08392,-2.21596 -1.64028,-2.81883 -3.00141,-3.25317 -1.34007,-0.42797 -2.03705,-1.16366 -3.51951,-3.71505 -1.70364,-2.93238 -1.97507,-3.18178 -3.46136,-3.18178 l -1.61265,0 0,-3.27928 0,-3.2789 2.10939,-1.72588 c 1.99115,-1.6293 2.30241,-1.72571 5.55325,-1.72571 2.59826,0 3.81925,-0.23226 4.97226,-0.94346 l 1.52836,-0.94279 1.36241,1.41972 c 1.62456,1.69296 2.13391,1.71749 8.32675,0.4009 4.0403,-0.85912 4.79228,-1.16179 4.79228,-1.92846 0,-0.78673 0.24089,-0.8687 1.79021,-0.60782 3.27809,0.55215 3.26271,0.53902 3.06539,2.60449 -0.29795,3.1211 0.19144,4.28701 1.79895,4.28701 1.0734,0 1.90378,0.58009 3.69078,2.57805 1.95176,2.18218 2.72967,2.68832 5.06442,3.29488 2.64027,0.68629 2.95379,0.66521 7.32265,-0.49022 3.44811,-0.91216 4.82442,-1.0889 5.62809,-0.72333 0.86394,0.39314 1.84348,0.12148 5.21184,-1.44436 4.01085,-1.86459 4.1791,-1.90004 5.0905,-1.07652 0.82136,0.74194 1.26658,0.78679 3.4588,0.34786 1.38396,-0.27704 2.68046,-0.34572 2.88129,-0.1537 0.20111,0.19192 1.32263,2.48157 2.49282,5.08647 l 2.12776,4.73552 2.75869,1.24601 c 1.51714,0.68516 3.90333,1.51494 5.30249,1.8441 2.37494,0.55819 2.52409,0.6771 2.24461,1.78876 -0.92572,3.68287 -0.91507,3.73652 0.96228,4.84261 l 1.78282,1.0503 -1.26043,1.31342 c -0.81472,0.84893 -1.26048,1.84205 -1.26048,2.80858 0,0.82243 -0.18227,1.60819 -0.40681,1.74584 -0.22361,0.13853 -1.86962,-0.75752 -3.65743,-1.98999 l 0,0 z" />
<path
   inkscape:label=""
   inkscape:connector-curvature="0"
   style="fill:#ffffff;fill-opacity:1;stroke:#808080;stroke-width:0.49999991;stroke-miterlimit:4;stroke-dasharray:none;stroke-opacity:1"
   id="EDUCACION_UGEL_VICTOR_FAJARDO"
   d="m 199.23556,267.78916 c -1.02176,-1.11116 -2.35096,-2.82072 -2.95389,-3.79965 l -1.0964,-1.77977 -1.92169,0.9788 c -1.05691,0.53841 -2.04156,0.85912 -2.18801,0.71303 -0.14727,-0.14666 0.21491,-2.08322 0.80236,-4.30431 0.58757,-2.22121 0.94189,-4.24285 0.7874,-4.49267 -0.15486,-0.25025 -1.13934,-0.59877 -2.18823,-0.77575 l -1.90715,-0.3215 0,-5.90554 0,-5.9051 -2.42998,-1.91776 c -1.33643,-1.05494 -2.71263,-1.91762 -3.05829,-1.91762 -0.39087,0 -0.75064,-0.88662 -0.95134,-2.34339 -0.31358,-2.28038 -0.4068,-2.39277 -3.4323,-4.15934 -1.71022,-0.99862 -3.96823,-2.83982 -5.01797,-4.09161 -1.78141,-2.12411 -2.05789,-2.27588 -4.15509,-2.27588 -2.13436,0 -2.27686,-0.0833 -2.85086,-1.66803 -0.53439,-1.47543 -1.46771,-2.28352 -1.51443,-1.31103 -0.004,0.19665 -0.5375,0.99328 -1.17348,1.77038 l -1.1564,1.41268 -1.09417,-1.00059 c -0.60184,-0.55035 -1.60715,-1.1559 -2.2342,-1.34648 -1.01307,-0.30712 -1.11279,-0.22111 -0.89686,0.77936 0.13384,0.61907 0.37669,1.44723 0.53952,1.84054 0.22197,0.53475 -0.50905,1.04235 -2.90338,2.01489 -3.75317,1.52485 -3.23018,1.72208 -9.67054,-3.64706 l -4.04575,-3.37273 -4.97234,-0.98171 -4.97237,-0.98135 -1.08187,2.4425 -1.0816,2.44214 -4.69994,0.61157 c -2.58495,0.33599 -5.37389,0.89092 -6.19759,1.23291 l -1.49778,0.62188 -0.29983,-5.07746 c -0.16496,-2.79236 -0.41588,-6.6861 -0.55731,-8.65231 l -0.25691,-3.57489 7.22182,-1.77437 7.22174,-1.77434 6.07434,3.18443 6.0745,3.18479 2.15798,-1.54751 2.158,-1.54716 5.20952,0.49283 c 4.43252,0.41933 5.67424,0.73348 8.32313,2.10629 3.10689,1.60988 3.13414,1.6143 13.11122,2.14911 l 9.99773,0.53604 2.17615,1.82718 c 2.85204,2.395 3.61171,2.76064 6.55523,3.15744 1.35819,0.18275 2.78253,0.58318 3.16509,0.88904 0.38297,0.30555 2.19982,2.80842 4.038,5.56102 1.83831,2.7527 4.08546,5.75584 4.99394,6.67358 1.14546,1.15692 2.33329,3.38507 3.87618,7.27146 2.43253,6.12693 2.57207,6.79315 1.50849,7.20064 -0.57998,0.2218 -0.71604,1.33241 -0.71604,5.84124 0,4.49392 -0.19624,6.10455 -1.01882,8.3567 l -1.01897,2.7896 -3.27787,0 c -1.80273,0 -3.27782,-0.17312 -3.27782,-0.38572 0,-0.21164 -0.31527,-0.80177 -0.70092,-1.31057 -0.64023,-0.84558 -0.70214,-0.66404 -0.71608,2.09828 -0.004,2.6299 0.10939,3.05656 0.93968,3.27321 0.96052,0.2512 1.31887,1.76399 0.53262,2.24899 -0.23216,0.14239 -1.25802,-0.64843 -2.27968,-1.75927 z" />
<path
   inkscape:label=""
   inkscape:connector-curvature="0"
   style="fill:#ffffff;fill-opacity:1;stroke:#808080;stroke-width:0.49999991;stroke-miterlimit:4;stroke-dasharray:none;stroke-opacity:1"
   id="EDUCACION_VILCASHUAMAN"
   d="m 211.92895,239.34029 c -0.79502,-1.24529 -1.81062,-3.51556 -2.2572,-5.04456 -0.53651,-1.83738 -1.52691,-3.61621 -2.91947,-5.24344 -2.47238,-2.88897 -6.0178,-8.23351 -6.96754,-10.50271 -0.51958,-1.24173 -1.25485,-1.84645 -3.32512,-2.7353 -2.40379,-1.03214 -2.63108,-1.25539 -2.37543,-2.3331 0.15543,-0.65536 0.80444,-1.73937 1.44219,-2.40935 l 1.15934,-1.21764 -1.40193,-2.2069 c -1.2053,-1.89787 -1.47092,-2.94527 -1.89411,-7.47038 -0.33616,-3.59807 -0.8047,-5.875 -1.48052,-7.19766 l -0.98854,-1.93453 3.00203,-1.37377 c 1.65106,-0.75564 3.72343,-1.52119 4.60512,-1.70122 l 1.60316,-0.32677 -0.37596,2.55168 c -0.7034,4.77385 -0.69962,4.78485 2.14345,6.31278 l 2.58672,1.39016 1.23254,-1.38557 c 0.67801,-0.76177 1.80117,-2.11484 2.49586,-3.00662 l 1.26329,-1.62111 1.31493,1.03257 c 0.72324,0.56824 2.11463,1.16051 3.09197,1.31637 1.75911,0.28158 1.78676,0.32028 2.76133,3.92661 1.24496,4.60766 2.00176,8.79499 2.00176,11.0765 0,2.16259 1.59578,3.69361 5.1973,4.9865 1.89602,0.68081 2.46285,1.13168 2.68335,2.13381 0.15392,0.69881 1.02142,1.98844 1.92828,2.86591 0.90689,0.87769 1.64888,1.73398 1.64888,1.90329 0,0.16983 -1.28897,0.69729 -2.86438,1.17355 -2.58535,0.78171 -2.86457,0.99228 -2.86457,2.16108 0,1.05707 -0.26305,1.34722 -1.43019,1.58044 -3.00326,0.59974 -3.65813,1.45243 -3.99839,5.20639 -0.1713,1.89509 -0.77038,5.00065 -1.33064,6.90132 -1.00409,3.40679 -1.04116,3.45579 -2.63034,3.45579 -1.40176,0 -1.80013,-0.29543 -3.05714,-2.26412 l 0,0 z" />
<path
   inkscape:label=""
   inkscape:connector-curvature="0"
   style="fill:#ffffff;fill-opacity:1;stroke:#808080;stroke-width:0.49999991;stroke-miterlimit:4;stroke-dasharray:none;stroke-opacity:1"
   id="EDUCACION_LUCANAS"
   d="m 166.43686,413.45278 c -1.17489,-2.76071 -1.23185,-3.19758 -0.76096,-5.83916 0.27905,-1.57022 0.61891,-3.23052 0.75322,-3.68927 0.20046,-0.68421 -0.0612,-0.83414 -1.45879,-0.83414 -1.49836,0 -1.70324,-0.14342 -1.70324,-1.19181 0,-1.04327 -0.20666,-1.19173 -1.66327,-1.19173 -1.15378,0 -2.09626,-0.40185 -3.07658,-1.31101 l -1.41302,-1.31056 0.53705,-6.08065 0.53714,-6.08074 -1.36928,-1.42652 c -1.27012,-1.32382 -1.61542,-1.42699 -4.77633,-1.42699 -2.86777,0 -4.04363,-0.27588 -7.42792,-1.73987 -3.87853,-1.67786 -4.12207,-1.72192 -6.88711,-1.23773 -2.59677,0.45453 -2.94191,0.41539 -3.66931,-0.41785 -0.76754,-0.87961 -1.03492,-0.89192 -6.08701,-0.28538 l -5.28409,0.63324 0,-1.08843 c 0,-0.78263 -0.35892,-1.17863 -1.27738,-1.40856 -1.1549,-0.28975 -0.83036,-0.54416 3.38686,-2.65804 4.38673,-2.19871 4.64587,-2.41031 4.35745,-3.55803 -0.8736,-3.47501 -0.85864,-3.87042 0.16533,-4.41822 0.79281,-0.42363 1.0057,-0.98932 1.0057,-2.67244 0,-1.78268 -0.24259,-2.35119 -1.46992,-3.44599 l -1.46976,-1.31124 1.05121,-1.33421 c 0.99166,-1.25888 1.01729,-1.49351 0.45317,-4.14753 -0.53185,-2.502 -0.92096,-3.12275 -3.52199,-5.61648 -1.60827,-1.54212 -3.58352,-3.14389 -4.38903,-3.55988 -2.66173,-1.37419 -2.87444,-2.0535 -1.02308,-3.26535 1.42913,-0.93542 1.7149,-1.4679 2.25239,-4.19855 0.3383,-1.71973 0.71499,-3.39512 0.83688,-3.72269 0.36904,-0.99473 -0.86764,-0.65341 -5.59225,1.54235 -2.9361,1.36457 -4.70474,1.94513 -5.05187,1.65738 -0.29399,-0.24407 -1.13656,-1.54816 -1.87322,-2.89929 l -1.3391,-2.45663 3.19903,-3.05577 c 4.20182,-4.01373 4.09074,-4.484 -1.2592,-5.33075 -4.06741,-0.64401 -4.15224,-0.68469 -4.46821,-2.14749 -0.45279,-2.09612 -2.02698,-5.06191 -2.85507,-5.37886 -0.41018,-0.15733 -2.02117,0.79809 -3.917116,2.32357 -4.563668,3.67135 -5.229824,4.02257 -8.749647,4.6126 -4.780547,0.80165 -4.571345,0.90296 -5.165152,-2.50198 -0.290191,-1.66602 -0.393267,-3.70406 -0.227313,-4.52853 0.278209,-1.39032 0.205246,-1.49908 -1.012563,-1.49908 -1.225778,0 -1.292575,-0.10186 -1.006536,-1.54904 0.169222,-0.85224 0.947387,-2.58227 1.73064,-3.84498 1.704385,-2.74748 2.07724,-6.77049 0.58872,-6.35184 -0.459483,0.12884 -1.587371,0.37403 -2.506409,0.54434 -0.918983,0.17034 -2.010918,0.40382 -2.426631,0.51888 -0.455993,0.12588 -0.954204,-0.22499 -1.256282,-0.88721 -0.395238,-0.86671 -0.320122,-1.31927 0.358184,-2.15552 0.472115,-0.58217 1.236707,-2.66068 1.699178,-4.61918 l 0.840751,-3.56054 2.96988,-0.98696 c 2.366679,-0.78632 3.084713,-1.26326 3.534983,-2.34877 0.958874,-2.31101 0.486422,-3.51885 -1.649004,-4.21535 -4.055173,-1.32301 -4.19858,-2.0019 -1.936917,-9.17534 0.944219,-2.99497 1.783534,-4.61409 3.268456,-6.30501 l 1.997794,-2.27513 3.985899,1.45333 c 2.192317,0.79888 5.254195,1.5855 6.804285,1.74722 l 2.81819,0.29447 0.52291,-1.49824 c 0.61146,-1.75103 1.07244,-1.82969 3.18639,-0.54293 1.13877,0.69357 2.40518,0.95171 4.66642,0.95171 2.82337,0 3.14218,0.10049 3.5326,1.12667 0.94424,2.48015 4.20711,2.39919 7.00234,-0.17292 2.21206,-2.03602 2.76817,-2.17746 5.53621,-1.41 1.65839,0.45987 1.73812,0.56578 1.24266,1.65164 -0.71885,1.57511 -0.006,2.32662 3.35426,3.60866 2.25248,0.85575 4.01118,1.0613 10.57894,1.23679 6.62858,0.17726 8.22927,0.36691 10.09806,1.19611 l 2.22081,0.98572 3.31207,-1.26346 c 1.82171,-0.69508 3.73543,-1.65774 4.25288,-2.139 0.78866,-0.73358 1.51556,-0.84053 4.49275,-0.66184 3.41426,0.20487 3.7279,0.12966 8.09467,-1.92375 4.0458,-1.90332 4.92476,-2.55953 8.03517,-5.99892 2.8516,-3.15288 3.74856,-3.86171 4.8862,-3.86171 1.65389,0 1.63829,-0.13672 0.46056,4.06156 -0.76806,2.73849 -0.83542,3.60065 -0.38175,4.87574 0.64571,1.81373 0.78062,1.84027 3.16592,0.62544 l 1.81326,-0.9236 1.6289,2.81252 c 1.26084,2.17684 2.42505,3.36581 5.1518,5.26069 3.41,2.36986 3.6013,2.43871 5.96765,2.14404 l 2.44474,-0.30433 0.004,3.71269 c 0.004,2.04258 0.17841,4.3293 0.38223,5.08244 0.39434,1.4626 0.45212,1.4691 4.88371,0.52685 1.31808,-0.27983 1.80257,0.004 5.0129,2.99054 l 3.55362,3.30075 4.05799,-0.52939 4.05794,-0.52934 2.05523,2.51307 c 1.76849,2.16239 2.28809,2.51297 3.72424,2.51297 1.45624,0 1.75808,0.21229 2.36721,1.66844 0.50304,1.20185 0.99677,1.66815 1.76596,1.66811 0.9845,-4.6e-4 1.05496,0.18446 0.90301,2.37373 -0.1553,2.23719 -0.009,2.51805 2.02903,4.87773 1.20652,1.37713 2.19372,2.65893 2.19372,2.84847 0,0.18914 -1.70029,1.26471 -3.77877,2.38924 -3.26734,1.76788 -3.84903,2.27888 -4.2981,3.7752 -0.42693,1.42244 -1.21353,2.18687 -4.41758,4.29235 l -3.89828,2.56173 -6.44186,0.71489 -6.44166,0.71495 -0.88983,3.09839 c -0.69588,2.4234 -0.78824,3.51065 -0.42405,4.99159 0.2564,1.04117 0.29109,2.00638 0.0787,2.14497 -0.21202,0.13852 -1.37676,1.0025 -2.58707,1.92015 -1.91858,1.45424 -2.20241,1.89737 -2.21522,3.45571 -0.004,1.46487 -0.18701,1.78759 -0.96961,1.78759 -0.86785,0 -0.95477,0.31827 -0.95477,3.49131 0,3.48895 0,3.49303 2.62575,6.99511 1.93107,2.57714 2.6257,3.91628 2.6257,5.06189 0,1.20528 0.30572,1.73811 1.35472,2.35654 1.20617,0.71147 1.487,1.38046 2.5612,6.10443 l 1.20628,5.30574 -2.66545,2.74059 -2.66546,2.7407 -4.65295,0 c -4.16425,0 -4.70653,0.0998 -5.16395,0.95332 -0.37029,0.69104 -0.99968,0.95342 -2.28695,0.95342 -1.56568,0 -2.42564,0.56446 -7.26119,4.76668 -5.22984,4.54479 -5.58697,4.76667 -7.66895,4.76667 -1.20073,0 -3.32318,-0.33807 -4.71618,-0.75111 -2.42921,-0.72021 -2.65251,-0.70719 -5.45754,0.31863 -1.60861,0.58808 -2.96974,1.09619 -3.02478,1.12882 -0.29987,0.17886 1.43065,6.30012 2.10253,7.43564 0.76274,1.28934 0.7461,1.40782 -0.45645,3.22209 -0.68663,1.03608 -2.24302,3.10284 -3.4588,4.59285 l -2.21035,2.70974 0.98744,2.91927 c 0.54297,1.60571 0.98737,3.09219 0.98737,3.30348 0,0.21144 -1.04197,0.38415 -2.31539,0.38415 l -2.3154,0 -1.27023,-2.98381 0,0 z" />
<path
   inkscape:label=""
   inkscape:connector-curvature="0"
   style="fill:#ffffff;fill-opacity:1;stroke:#808080;stroke-width:0.49999991;stroke-miterlimit:4;stroke-dasharray:none;stroke-opacity:1"
   id="EDUCACION_SARA_SARA"
   d="m 193.19791,431.69356 c -0.16133,-0.26011 0.15784,-2.07909 0.71008,-4.04163 0.75018,-2.66959 0.87682,-3.80389 0.50265,-4.50197 -0.4313,-0.80466 -0.19683,-1.15048 1.69772,-2.50931 2.16737,-1.55375 2.19403,-1.60569 1.90596,-3.7044 -0.16131,-1.17041 -0.75281,-3.55576 -1.31557,-5.3005 l -1.02332,-3.17235 -2.32092,-0.53484 c -2.24536,-0.51751 -2.45178,-0.46986 -6.35101,1.46089 l -4.03028,1.99566 -0.14055,2.63543 c -0.12425,2.34941 -0.27463,2.68252 -1.37751,3.06789 -0.6805,0.2382 -2.20793,0.2877 -3.39446,0.11005 l -2.15719,-0.32315 -0.55292,-3.34298 -0.55295,-3.34299 3.19651,-4.79426 c 2.87402,-4.31052 3.14625,-4.92085 2.69785,-6.05183 -0.27461,-0.69174 -0.95093,-2.37694 -1.50374,-3.74494 l -1.0053,-2.48714 1.92163,-0.57499 c 1.50178,-0.44908 3.01355,-0.44796 6.91896,0 5.74882,0.6673 4.73328,1.0742 11.12474,-4.45591 3.34096,-2.8907 5.30274,-4.17834 8.17421,-5.36472 3.73197,-1.54182 3.81975,-1.55376 7.17498,-0.97923 l 3.39682,0.58132 3.47939,-3.79182 3.47951,-3.79133 -1.33131,-5.06613 c -1.6395,-6.24015 -3.35092,-10.07157 -6.82995,-15.29176 -2.15754,-3.23741 -2.68408,-4.40691 -2.68408,-5.9628 0,-1.73939 0.15725,-1.9981 1.55163,-2.55246 2.04072,-0.81106 2.02332,-0.78918 1.30279,-1.65594 -0.53436,-0.64285 -0.30265,-1.07607 1.62513,-3.02969 l 2.2487,-2.27937 0.28426,-5.02079 0.28488,-5.02115 5.06385,-0.25145 c 8.27796,-0.41252 9.11735,-0.75542 14.46696,-5.90598 2.54586,-2.45143 4.86001,-4.45685 5.14267,-4.45685 0.28254,0 1.46932,-0.87919 2.63694,-1.95412 l 2.12284,-1.9538 0.81918,1.71532 c 0.7927,1.65977 0.78579,1.7738 -0.21794,3.55663 l -1.03675,1.84197 1.18411,3.47589 c 1.30282,3.82437 1.14758,4.48224 -1.17614,4.99172 -1.60445,0.35216 -4.79449,3.39273 -4.79449,4.57026 0,1.74936 1.41944,8.1334 2.1504,9.67099 0.49321,1.03788 1.4194,1.90419 2.6076,2.43929 1.01355,0.45622 2.54805,1.5562 3.41011,2.44423 1.33372,1.3738 1.89459,1.61446 3.76188,1.61446 l 2.19464,0 0.89147,-2.61846 c 0.78603,-2.30912 1.22074,-2.83033 3.67523,-4.40916 2.29573,-1.47675 2.78451,-2.02381 2.78798,-3.12046 0,-1.34853 1.53207,-4.81322 2.34323,-5.31376 0.24408,-0.14983 2.22251,0.58601 4.39757,1.63614 4.38652,2.11779 7.10827,2.50198 7.10827,1.00377 0,-0.73504 0.65063,-1.05059 3.46104,-1.67786 1.9039,-0.42472 4.71736,-1.40677 6.25241,-2.18204 l 2.79112,-1.40974 1.53539,1.16918 c 1.39714,1.06421 1.62598,1.10593 2.54192,0.46528 0.55372,-0.3868 1.14555,-1.33584 1.31553,-2.10822 0.27238,-1.23846 0.43217,-1.3488 1.35076,-0.93357 0.73357,0.33128 1.60648,0.27565 2.95134,-0.18913 1.5017,-0.51861 1.94194,-0.93025 2.06063,-1.92563 0.0829,-0.69644 0.31944,-1.266 0.52524,-1.266 0.66516,0 4.09671,2.676 5.37216,4.18943 1.19703,1.42039 2.26684,1.85843 8.34076,3.41572 1.57328,0.40336 2.14207,0.85417 2.78602,2.20952 0.44511,0.93661 0.71836,1.79343 0.60697,1.90449 -0.11164,0.11184 -1.3404,-0.004 -2.73167,-0.27676 -4.43696,-0.84016 -4.64469,-0.76556 -8.25261,2.95278 -1.83143,1.88745 -3.85821,4.2291 -4.50425,5.20353 l -1.17447,1.77223 -1.73806,-1.17761 c -1.98824,-1.34726 -2.7635,-1.26652 -6.78092,0.70496 -2.4069,1.18083 -2.64571,1.44384 -2.86446,3.15518 -0.22457,1.75303 -0.44603,1.97827 -3.63177,3.6863 l -3.39311,1.81966 -1.2968,-1.01853 c -1.08201,-0.84986 -1.69724,-0.97127 -3.71348,-0.73288 -1.32925,0.157 -2.5053,0.37443 -2.61354,0.48235 -0.10785,0.10728 -0.32181,1.6814 -0.47405,3.49573 l -0.27684,3.29862 -3.63862,1.47606 c -3.37843,1.37066 -3.65563,1.59015 -3.87719,3.07358 -0.22269,1.4926 -0.48943,1.69822 -4.05805,3.13562 -4.80034,1.93354 -6.76847,2.02637 -7.40709,0.34971 -0.50885,-1.33642 -1.38492,-1.15354 -2.9972,0.62517 -0.72805,0.80305 -1.29709,0.90033 -4.0967,0.70063 l -3.25126,-0.23265 -0.31133,3.99132 c -0.68057,8.72891 -0.49901,10.30537 1.64088,14.23931 2.23978,4.11826 4.97715,7.94577 7.75292,10.84071 1.88606,1.96721 1.91363,2.04258 1.0075,2.76867 -1.79116,1.43518 -5.15407,2.70608 -10.13431,3.82962 -2.76094,0.62278 -5.52967,1.46584 -6.15241,1.87339 -0.94957,0.62122 -1.44091,0.64842 -3.04442,0.16898 -1.80412,-0.5398 -1.9886,-0.49868 -3.26906,0.72608 l -1.35723,1.29815 -3.45803,-2.0534 c -3.30618,-1.96333 -3.5219,-2.20248 -4.90716,-5.43499 l -1.44876,-3.38105 -3.79092,-0.61456 c -3.40622,-0.5522 -4.08203,-0.52678 -6.6614,0.25219 l -2.87034,0.86753 0.33587,5.13516 0.33593,5.13484 -7.45085,7.56773 c -6.66725,6.77193 -7.45153,7.73896 -7.45669,9.19461 0,1.33046 -0.30788,1.82245 -1.66436,2.69952 -1.82909,1.1831 -2.42455,1.30769 -2.8629,0.59966 l 0,0 z" />
<path
   inkscape:label="UGEL PAUCAR DE SARASARA"
   inkscape:connector-curvature="0"
   style="fill:none;fill-opacity:1;stroke:#808080;stroke-width:0.49999991;stroke-miterlimit:4;stroke-dasharray:none;stroke-opacity:1"
   id="EDUCACION_SUR_PAUZA"
   d="m 273.0524,409.18623 c -2.65392,-0.28653 -5.15738,-0.79842 -5.56309,-1.13711 -0.40558,-0.33838 -1.30941,-1.8212 -2.00837,-3.29496 -0.79354,-1.67385 -2.4083,-3.76866 -4.30182,-5.58078 -2.47574,-2.37001 -3.38874,-3.69935 -4.98212,-7.25467 -1.68765,-3.76554 -1.95086,-4.80733 -1.95086,-7.72221 0,-1.85291 0.23243,-4.4523 0.51683,-5.77625 l 0.51703,-2.4066 3.06368,0 c 2.7453,0 3.06355,-0.0974 3.06355,-0.95373 0,-1.20928 0.007,-1.20659 2.80182,0.34327 l 2.32499,1.29592 3.76237,-1.74423 c 2.06924,-0.95951 4.56774,-1.88829 5.5524,-2.06406 0.98471,-0.17687 1.7904,-0.37588 1.7904,-0.4454 0,-0.0675 -0.30506,-0.98891 -0.67831,-2.04481 l -0.67844,-1.91973 4.13961,-1.13627 4.13952,-1.13602 -0.17306,-3.72646 c -0.16034,-3.45395 -0.1072,-3.70672 0.71604,-3.45723 1.2758,0.38645 6.90128,1.25121 8.16828,1.25542 1.4633,0 4.62186,-2.94548 5.83738,-5.45287 0.84974,-1.75236 1.43871,-2.24978 3.95554,-3.33974 1.93473,-0.83749 3.01894,-1.09473 3.13611,-0.74367 0.0992,0.29564 0.60354,0.9314 1.12255,1.41408 0.92038,0.85611 0.92272,0.93474 0.0968,3.25495 l -0.84579,2.37788 2.7947,3.64326 2.79489,3.64312 -1.26998,1.32369 c -1.15288,1.2013 -1.27002,1.66563 -1.27002,5.03543 0,2.99029 -0.18551,3.94763 -0.95475,4.92378 -0.52534,0.66666 -0.95486,1.68043 -0.95486,2.25294 0,0.70161 -1.40086,2.32371 -4.29688,4.97527 -4.0245,3.68472 -4.4937,4.32053 -7.39981,10.02661 l -3.10259,6.09228 -2.26803,-0.58018 c -1.24737,-0.31933 -3.99865,-0.72757 -6.11427,-0.90812 l -3.84626,-0.32813 -1.13469,5.98301 c -0.62398,3.29057 -1.25641,5.94907 -1.40505,5.90826 -0.14881,-0.0411 -2.44214,-0.30887 -5.09599,-0.59581 l 0,0 z" />
<path
   inkscape:label=""
   inkscape:connector-curvature="0"
   style="fill:#ffffff;fill-opacity:1;stroke:#808080;stroke-width:0.49999991;stroke-miterlimit:4;stroke-dasharray:none;stroke-opacity:1"
   id="EDUCACION_UGEL_SUCRE"
   d="m 243.62371,298.01165 c -1.14376,-1.27454 -1.99562,-1.78763 -2.96787,-1.78763 -1.09256,0 -1.81595,-0.56443 -3.63986,-2.84035 -1.70695,-2.12977 -2.51637,-2.78825 -3.23585,-2.63242 -0.52767,0.11301 -2.33817,0.44319 -4.02325,0.7307 l -3.06397,0.5231 -1.86675,-2.18056 c -1.42697,-1.66668 -2.19538,-2.18026 -3.26177,-2.18026 -1.17958,0 -1.39506,-0.1886 -1.39506,-1.22397 0,-0.93561 -0.19682,-1.16949 -0.83552,-0.99331 -0.45948,0.12691 -1.8439,0.36726 -3.0765,0.53372 l -2.24084,0.30407 -0.58156,-1.938 c -0.53095,-1.76945 -0.49171,-2.03371 0.45064,-3.03508 0.56774,-0.60346 1.01403,-1.29799 0.99184,-1.54297 -0.007,-0.24536 -0.88259,-1.16891 -1.91212,-2.05248 -1.78786,-1.5349 -1.9612,-1.58388 -3.8847,-1.09648 -2.39221,0.60625 -2.44563,0.54949 -3.22837,-3.42257 -0.31276,-1.58905 -0.92587,-3.16055 -1.36142,-3.4923 -0.65654,-0.49936 -0.15174,-0.58445 2.94733,-0.4973 l 3.73932,0.10459 1.39278,-3.78676 c 1.18194,-3.21361 1.39278,-4.48558 1.39278,-8.40507 l 0,-4.61899 1.91098,-1.72373 c 1.05426,-0.95091 2.41429,-1.72367 3.03365,-1.72367 0.98713,0 1.25561,-0.44567 2.22477,-3.69411 0.60643,-2.03167 1.18662,-4.76683 1.28964,-6.0775 0.29671,-3.77705 0.48348,-4.24704 2.05745,-5.17524 0.81673,-0.48173 1.54252,-0.8014 1.6131,-0.71031 2.50576,3.23474 5.81926,9.6287 6.29288,12.14337 0.16751,0.88807 1.1333,2.32657 2.38716,3.55516 1.83867,1.80192 2.10603,2.32218 2.10603,4.10042 0,1.75222 0.16034,2.0768 1.14593,2.32394 1.07346,0.26922 1.16664,0.56391 1.47027,4.65655 0.27514,3.70793 0.52616,4.65798 1.65776,6.27597 0.73324,1.04855 2.3562,3.94446 3.60656,6.43498 1.25026,2.49054 3.13799,5.80012 4.19473,7.35465 l 1.9217,2.82638 -0.58411,5.01673 c -0.55432,4.76172 -0.69791,5.1875 -2.82385,8.37515 l -2.2397,3.35859 -1.60423,-1.78756 0,0 z" />
<path
   inkscape:label=""
   inkscape:connector-curvature="0"
   style="fill:#ffffff;fill-opacity:1;stroke:#808080;stroke-width:0.49999991;stroke-miterlimit:4;stroke-dasharray:none;stroke-opacity:1"
   id="EDUCACION_VRAE_LA_MAR"
   d="m 277.79769,187.86671 c -2.9191,-1.04806 -4.00925,-1.27804 -4.42507,-0.93367 -0.42061,0.34893 -0.85515,0.20216 -1.82873,-0.61539 -1.49111,-1.25279 -1.50333,-1.25456 -3.36407,-0.47825 -1.30975,0.54647 -1.83574,0.50048 -6.46054,-0.56715 -2.7691,-0.63897 -5.11149,-1.23829 -5.20516,-1.33209 -0.0927,-0.0943 -0.41062,-0.89673 -0.70367,-1.78401 -0.50281,-1.52228 -0.73677,-1.69415 -4.12016,-3.02937 -3.3061,-1.3046 -3.59659,-1.51254 -3.71158,-2.64821 -0.11685,-1.151 -0.36309,-1.31615 -3.73321,-2.50377 -2.98209,-1.05055 -3.6084,-1.42095 -3.6084,-2.13373 0,-0.70967 -0.89188,-1.24533 -5.05199,-3.03291 -2.77862,-1.19424 -5.21288,-2.32351 -5.40964,-2.50971 -0.31032,-0.29352 0.004,-3.14486 0.80651,-7.06841 0.2075,-1.03073 0.0741,-1.1498 -2.04496,-1.81651 l -2.2674,-0.7136 -2.32766,1.40471 c -2.2272,1.34425 -2.42401,1.60748 -4.5623,6.09497 l -2.23476,4.69012 0.60759,2.04243 c 0.56647,1.90461 0.54668,2.25007 -0.29078,5.0943 l -0.89893,3.05089 -0.84395,-0.97978 c -0.46418,-0.53895 -2.09375,-1.50747 -3.62118,-2.15243 -1.82211,-0.76906 -2.63769,-1.31162 -2.37126,-1.57765 0.69164,-0.69053 0.45904,-1.45577 -1.03757,-3.41262 -1.25876,-1.64601 -1.4434,-2.18691 -1.4434,-4.22907 0,-2.07647 -0.11722,-2.40435 -1.03098,-2.89272 -0.93305,-0.49852 -1.03109,-0.79847 -1.03109,-3.15785 l 0,-2.60682 -1.45623,0 c -0.80549,0 -1.52735,-0.22962 -1.6152,-0.51479 -0.88489,-2.86879 -1.87691,-4.7585 -3.69159,-7.03222 -1.81284,-2.2714 -2.39083,-3.45755 -3.71742,-7.62926 l -1.57099,-4.93952 -2.03381,-0.48735 -2.0337,-0.48713 0.66001,-1.00598 c 0.63473,-0.96721 0.57822,-1.15751 -1.46792,-4.94714 l -2.12803,-3.94137 0.97029,-0.94843 0.96991,-0.94833 2.65698,1.21601 2.65688,1.21651 2.11629,-2.0867 c 1.97731,-1.94973 2.19338,-2.05728 3.2909,-1.64066 2.41194,0.91544 3.1392,-0.46649 3.1696,-6.02225 l 0.006,-3.76735 2.96392,-1.69307 c 2.48347,-1.41887 3.33114,-1.69319 5.23074,-1.69319 l 2.26705,0 1.58289,-3.2413 c 0.87051,-1.78298 1.45364,-3.45042 1.29529,-3.70585 -0.16474,-0.26594 -0.006,-0.46427 0.33626,-0.46427 0.6529,0 0.89372,-0.6677 2.13004,-5.903538 0.40479,-1.71403 0.87216,-3.032352 1.0387,-2.929613 0.16682,0.103222 0.42934,1.066998 0.58368,2.142522 0.23922,1.665599 0.68761,2.395429 3.02852,4.926049 l 2.74791,2.97099 1.77845,-0.45407 c 1.03389,-0.26352 1.92738,-0.30092 2.13405,-0.088 0.19561,0.20151 2.41077,2.86177 4.92301,5.91263 4.35339,5.2877 4.56761,5.63674 4.56761,7.44895 0,1.85293 0.0413,1.9149 1.64961,2.4446 1.61651,0.53269 1.64959,0.58267 1.64959,2.49959 l 0,1.95606 3.5054,2.59204 c 1.92803,1.42575 3.50546,2.71167 3.50546,2.85773 0,0.14679 -0.20855,0.86446 -0.46473,1.59665 -0.44033,1.26135 -0.37665,1.42054 1.22376,3.0485 l 1.68845,1.71777 -1.06499,1.35872 c -1.06141,1.35391 -1.06266,1.36508 -0.36496,3.18916 0.6409,1.67544 0.82022,1.83055 2.11728,1.83055 1.25714,0 1.39342,0.10518 1.20649,0.92643 -0.59532,2.61746 -1.02309,4.66533 -1.0322,4.94101 -0.004,0.16998 0.77867,0.31348 1.74262,0.31992 l 1.75274,0.004 1.22065,2.7265 c 0.67125,1.49958 2.10642,3.69436 3.18912,4.87714 l 1.96859,2.15049 -0.64883,1.9012 -0.6488,1.90098 2.13179,2.37243 c 1.22774,1.36589 2.89546,3.94416 3.93182,6.07803 1.49624,3.08071 2.37774,4.26692 5.22539,7.03198 5.4205,5.26326 8.6599,7.99716 9.47562,7.99716 0.61954,0 0.75458,0.33226 0.75458,1.85285 0,1.23589 -0.17127,1.8357 -0.5155,1.80078 -0.28364,-0.009 -2.25844,-0.67804 -4.38876,-1.44289 l 0,0 z" />
</svg>
