<?xml version="1.0" encoding="UTF-8" standalone="no"?>
<!--?xml version="1.0" encoding="UTF-8" standalone="no"?-->

<!--?xml version="1.0" encoding="UTF-8" standalone="no"?-->

<!--
************* Copyright (c) 2015 Pareto Softare, LLC DBA Simplemaps.com *******************		
************* Free for Commercial Use, full terms at  http://simplemaps.com/resources/svg-license ************
************* Attribution is appreciated! http://simplemaps.com ***************************
-->

<svg
   xmlns:dc="http://purl.org/dc/elements/1.1/"
   xmlns:cc="http://creativecommons.org/ns#"
   xmlns:rdf="http://www.w3.org/1999/02/22-rdf-syntax-ns#"
   xmlns:svg="http://www.w3.org/2000/svg"
   xmlns="http://www.w3.org/2000/svg"
   xmlns:sodipodi="http://sodipodi.sourceforge.net/DTD/sodipodi-0.dtd"
   xmlns:inkscape="http://www.inkscape.org/namespaces/inkscape"
   enable_background="new 0 0 1000 1585"
   height="549.01257"
   pretty_print="True"
   style="fill:none;stroke:#000000;stroke-linejoin:round"
   version="1.1"
   viewBox="0 0 354.46857 549.01257"
   width="354.46857"
   id="svg2"
   inkscape:version="0.91 r13725"
   sodipodi:docname="Cajamarca.svg"><sodipodi:namedview
   pagecolor="#ffffff"
   bordercolor="#666666"
   borderopacity="0.05098039"
   objecttolerance="10"
   gridtolerance="10"
   guidetolerance="10"
   inkscape:pageopacity="0"
   inkscape:pageshadow="2"
   inkscape:window-width="1920"
   inkscape:window-height="1017"
   id="namedview37"
   showgrid="false"
   inkscape:zoom="1.0983419"
   inkscape:cx="-60.48592"
   inkscape:cy="286.35316"
   inkscape:window-x="-8"
   inkscape:window-y="-8"
   inkscape:window-maximized="1"
   inkscape:current-layer="svg2"
   showborder="true"
   fit-margin-top="10"
   fit-margin-left="10"
   fit-margin-right="10"
   fit-margin-bottom="10"
   borderlayer="false"
   inkscape:showpageshadow="false"
   inkscape:snap-to-guides="false"
   inkscape:snap-grids="false"
   showguides="false" />
























utf-8<defs
   id="defs4">
  <style
     type="text/css"
     id="style6">path { fill-rule: evenodd; }utf-8utf-8</style>
</defs>
























utf-8<metadata
   id="metadata8">
utf-8utf-8<views>
utf-8utf-8utf-8<view
   h="1585.21431143"
   padding="0"
   w="1000">
utf-8utf-8utf-8utf-8<proj
   flip="auto"
   id="robinson"
   lon0="-80.0286400104" />
























utf-8utf-8utf-8utf-8<bbox
   h="307.01"
   w="193.79"
   x="-1203.32"
   y="0.49" />
























utf-8utf-8utf-8</view>
























utf-8utf-8</views>
























utf-8<rdf:rdf>
  <cc:work
     rdf:about="">
    <dc:format>image/svg+xml</dc:format>
    <dc:type
       rdf:resource="http://purl.org/dc/dcmitype/StillImage" />
  </cc:work>
</rdf:rdf>
<rdf:rdf>
  <cc:work
     rdf:about="">
    <dc:format>image/svg+xml</dc:format>
    <dc:type
       rdf:resource="http://purl.org/dc/dcmitype/StillImage" />
    <dc:title />
  </cc:work>
</rdf:rdf>
<rdf:RDF>
  <cc:Work
     rdf:about="">
    <dc:format>image/svg+xml</dc:format>
    <dc:type
       rdf:resource="http://purl.org/dc/dcmitype/StillImage" />
    <dc:title />
  </cc:Work>
</rdf:RDF>
</metadata>
























utf-8<path
   inkscape:label=""
   inkscape:connector-curvature="0"
   style="fill:#ffffff;fill-opacity:1;stroke:#808080;stroke-width:0.49999994;stroke-miterlimit:4;stroke-dasharray:none;stroke-opacity:1"
   id="EDUCACION_CHOTA"
   d="m 194.39586,261.55636 c 0.80818,-1.64831 1.46497,-3.15569 1.45954,-3.34964 -0.002,-0.19311 -0.47941,-0.91699 -1.05324,-1.60665 l -1.04349,-1.25387 2.04444,-2.40079 c 1.64394,-1.93081 4.68417,-6.33673 7.94731,-11.51827 0.27452,-0.43496 1.85125,-0.77069 6.23481,-1.32688 3.22745,-0.40904 7.51844,-1.06326 9.5356,-1.45316 2.01707,-0.38965 3.73318,-0.70957 3.81361,-0.71013 0.0811,-6.8e-4 0.0487,-1.38014 -0.0706,-3.0656 -0.1541,-2.17998 -0.55664,-3.942 -1.39357,-6.10454 l -1.17641,-3.04007 1.11523,-3.37389 c 1.08288,-3.27596 1.10076,-3.44066 0.61834,-5.68188 -0.27223,-1.26945 -0.5025,-2.52625 -0.50955,-2.793 -0.006,-0.57756 1.34701,1.02385 2.53059,2.97474 0.46497,0.76629 2.07823,2.82214 3.585,4.56847 1.50689,1.74613 3.13337,3.91503 3.61462,4.81956 1.47946,2.78081 3.28221,4.38562 4.92654,4.38562 0.91249,0 1.02146,0.15013 1.23379,1.69299 0.49287,3.5836 5.26483,12.07055 8.95402,15.92469 1.11484,1.16479 1.85053,2.11767 1.63472,2.11767 -0.41002,0 -1.26179,2.05631 -1.90382,4.59594 -0.36676,1.451 -0.45586,1.51926 -3.47216,2.66102 -3.0938,1.17099 -3.09554,1.17246 -2.91859,2.34815 0.0968,0.64711 0.47023,3.52973 0.8289,6.40575 l 0.65204,5.22926 -1.12892,0.46538 c -0.62096,0.25637 -2.23184,0.85774 -3.57993,1.33715 l -2.45096,0.87158 -1.56702,-1.77388 c -1.39473,-1.57896 -3.26045,-2.77029 -4.33844,-2.77029 -0.20803,0 -0.38532,0.53439 -0.39312,1.18773 -0.006,1.15299 -0.13619,1.24455 -4.16913,3.12372 l -4.1547,1.93581 -1.29095,-0.61347 -1.29074,-0.61338 -4.71739,3.48897 c -2.59457,1.91902 -5.20212,3.99644 -5.79444,4.61657 -0.5926,0.62013 -1.17011,1.11304 -1.28371,1.09545 -0.11443,-0.004 -3.02029,-1.39467 -6.45945,-3.06036 l 0,0 -1.5e-4,0 -6.25305,-3.02852 -1.58123,-3.42675 c -0.86976,-1.88471 -1.65638,-3.6145 -1.74793,-3.84411 -0.092,-0.23098 -1.70013,-0.86172 -1.70013,-0.86172 -0.53967,0 -1.99638,-1.4918 -2.9443,-3.01517 l -0.62537,-1.00497 -5.40948,0 -5.40939,0 -0.6912,-1.27923 c -0.38008,-0.70351 -0.87168,-1.27752 -1.09204,-1.27564 -0.22068,10e-4 -1.4429,0.66222 -2.71661,1.4676 l -2.3161,1.46406 -1.53485,-1.07698 -1.53502,-1.07679 -4.40097,0.5071 c -2.42053,0.27835 -4.75237,0.51419 -5.18185,0.52296 -0.66971,0.004 -1.08414,0.83386 -2.91093,5.76185 -1.64617,4.44031 -2.37843,5.95595 -3.22274,6.66982 -2.42018,2.0466 -2.22079,2.00279 -6.06267,1.33192 -1.93962,-0.33866 -5.17103,-1.09572 -7.18084,-1.6824 -2.00976,-0.58678 -3.69793,-1.02319 -3.75128,-0.97007 -0.0532,0.0534 0.31682,1.63652 0.82188,3.51848 1.02826,3.82869 1.03437,3.8125 -1.59254,4.20514 -0.90018,0.13457 -1.82177,0.29713 -2.04813,0.36187 -0.22624,0.0647 -1.31926,-0.91502 -2.42875,-2.17737 l -1e-5,0 -2.01715,-2.29536 -2.34186,-0.13612 -2.34182,-0.13544 1.33331,-1.58774 c 0.73332,-0.87345 1.33326,-1.63263 1.33326,-1.68722 0,-0.0552 -0.74988,-1.67682 -1.66659,-3.60515 -0.91664,-1.92821 -1.85714,-4.4583 -2.08996,-5.62234 -0.23299,-1.16405 -0.45435,-2.16616 -0.49217,-2.22704 -0.0416,-0.061 -1.32628,0.20987 -2.86338,0.60287 l -2.79471,0.71345 -0.16927,-0.78561 c -0.0931,-0.43186 -0.43048,-2.26573 -0.74951,-4.07482 -0.31872,-1.80895 -1.16918,-5.55298 -1.88937,-8.3197 l -1.30932,-5.03042 1.48166,-3.55822 1.48163,-3.55802 3.60515,-0.62648 c 1.98283,-0.34462 4.13234,-0.72042 4.77665,-0.83513 1.07344,-0.19111 1.18074,-0.33632 1.28358,-1.7402 l 0.11186,-1.53188 3.53268,-0.68701 3.53282,-0.68682 0.72403,-2.42833 c 0.71983,-2.41413 0.73244,-2.42907 2.1519,-2.5467 0.78533,-0.0649 1.6883,-0.35282 2.00671,-0.63945 0.51738,-0.46584 0.72446,-0.16603 1.94716,2.81284 l 1.36829,3.33393 -0.81778,0.86738 c -0.44977,0.47735 -0.73794,0.94703 -0.64028,1.04443 0.0978,0.0965 1.42053,-0.2059 2.93968,-0.67231 l 2.76219,-0.84929 2.16571,1.07344 c 1.19113,0.59035 3.65111,1.95477 5.46649,3.03212 1.92899,1.1446 4.40549,2.25984 5.95883,2.68335 l 2.65795,0.7246 3.3702,-1.9638 3.37005,-1.96372 2.40718,1.88489 c 1.32391,1.03651 3.00153,2.3499 3.72801,2.91844 1.19469,0.93497 1.43718,1.4525 2.54052,5.42191 1.18784,4.2735 1.26678,4.42753 3.01271,5.88437 l 1.79306,1.49595 2.87427,-0.65428 c 3.13053,-0.71242 2.77088,-0.78724 5.79646,1.20563 z" />
<path
   inkscape:label=""
   inkscape:connector-curvature="0"
   style="fill:#ffffff;fill-opacity:1;stroke:#808080;stroke-width:0.49999994;stroke-miterlimit:4;stroke-dasharray:none;stroke-opacity:1"
   id="EDUCACION_JAEN"
   d="m 137.83211,210.7079 -1.36988,-1.25865 1.46158,0 c 0.804,0 1.46169,-0.10458 1.46169,-0.23336 0,-0.12912 0.33852,-2.20922 0.75168,-4.62381 l 0.75163,-4.39006 -1.19031,-1.22396 c -0.6547,-0.67313 -1.33097,-1.22392 -1.50286,-1.22392 -0.17149,0 -1.21535,0.57571 -2.31905,1.27918 -1.1036,0.70361 -2.08589,1.27925 -2.18295,1.27925 -0.0969,0 -0.17652,-0.49349 -0.17652,-1.09641 0,-1.07207 -0.0414,-1.09651 -1.83376,-1.09651 l -1.83373,0 0,-1.76055 0,-1.76057 -2.84229,-0.66475 c -1.56339,-0.36454 -3.02348,-0.73251 -3.24479,-0.81539 -0.22167,-0.083 -1.12913,0.45542 -2.01723,1.19645 l -1.61455,1.3473 -0.11164,-1.69503 -0.11199,-1.69495 -2.99868,0 -2.99861,0 3.56881,-3.56987 c 4.90748,-4.90867 4.93303,-4.35816 -0.72385,-15.61124 l -3.12015,-6.20688 0.2369,-2.56439 c 0.12984,-1.41049 0.82907,-5.66428 1.55392,-9.45266 l 1.31792,-6.88808 -1.14821,-4.30323 c -0.63149,-2.36689 -1.14824,-4.50906 -1.14824,-4.76042 0,-0.34501 1.01021,-0.43012 4.12602,-0.3471 2.26919,0.0601 5.50621,0.0798 7.19323,0.009 l 3.06739,-0.0647 -0.24678,-1.63767 -0.24624,-1.63763 1.9468,0.90306 c 1.24993,0.5799 2.60333,0.90389 3.78069,0.90509 1.82334,10e-4 1.85846,-0.005 6.23467,-4.01782 l 4.40105,-4.01968 -0.16911,-1.91755 c -0.0928,-1.05451 -0.17579,-2.63459 -0.18308,-3.5109 -0.006,-1.55362 0.009,-1.60944 1.63596,-2.23613 3.38094,-1.31712 2.96751,-1.56084 5.16594,3.04469 l 1.98571,4.16017 3.05654,0.37199 c 2.66713,0.32485 3.20681,0.51702 4.23518,1.51024 l 1.17852,1.13821 7.86767,0.001 7.86782,0.002 6.28157,-2.99028 6.28162,-2.99048 0.20488,-1.97275 c 0.23423,-2.26762 0.80301,-3.14771 1.88016,-2.91234 0.41566,0.0903 2.83686,0.9112 5.38029,1.823 l 4.62442,1.65777 3.988,-3.98642 c 3.61189,-3.61047 4.11355,-3.98636 5.32004,-3.98636 0.81381,0 1.72792,-0.3108 2.3496,-0.79749 l 1.01735,-0.79756 1.42683,1.61981 c 0.78485,0.89097 2.51774,3.15652 3.8512,5.03475 l 2.42428,3.41498 -4.16153,4.15877 -4.16162,4.15881 0.66209,1.83491 0.66212,1.83481 -1.66664,1.61407 c -1.21586,1.17766 -2.33597,2.96887 -4.14159,6.62339 -2.39495,4.84716 -2.62323,5.16266 -7.05485,9.74643 -3.6105,3.73456 -4.46869,4.81151 -4.05467,5.08817 0.28892,0.19227 1.14412,0.67683 1.90058,1.07517 0.7564,0.39842 1.37331,0.84433 1.37078,0.99096 -0.001,0.14682 -0.56363,0.62741 -1.24678,1.06834 -0.98763,0.63729 -1.41129,1.31151 -2.0669,3.2892 -0.62494,1.88534 -1.16883,2.78398 -2.24696,3.71203 -1.6912,1.45589 -2.50335,2.89446 -2.50335,4.43435 0,1.0529 -0.38987,1.38091 -5.95972,5.01229 -3.27784,2.13703 -5.9953,3.90757 -6.03861,3.93448 -0.0438,0.007 -0.76414,3.32997 -1.60184,7.34033 l -1.52283,7.2918 -2.22243,2.06088 -2.2224,2.06067 -2.96073,-1.91776 -2.96071,-1.91776 -4.71113,0.40502 c -4.56219,0.39189 -4.72738,0.43625 -5.22585,1.38735 -0.48812,0.93128 -4.9503,3.493 -7.02696,4.03418 -0.76776,0.19985 -0.8235,0.41411 -0.8235,3.16557 0,3.41243 0.64224,2.97469 -5.6847,3.87441 -2.21885,0.31494 -4.36437,0.642 -4.76782,0.72541 -0.47019,0.0966 -1.22528,-0.30002 -2.10342,-1.10695 l 0,0 z" />
<path
   inkscape:label=""
   inkscape:connector-curvature="0"
   style="fill:#ffffff;fill-opacity:1;stroke:#808080;stroke-width:0.49999994;stroke-miterlimit:4;stroke-dasharray:none;stroke-opacity:1"
   id="EDUCACION_SAN_IGNACIO"
   d="m 130.33085,132.62295 -2.26971,-0.12827 -0.4203,-2.08463 c -1.57313,-7.80199 -3.11809,-14.09455 -3.92175,-15.97249 -0.51616,-1.20606 -1.03945,-3.11885 -1.16303,-4.25043 -0.20551,-1.88243 -0.36511,-2.17365 -1.87496,-3.42039 -0.90776,-0.74935 -1.69325,-1.40118 -1.74571,-1.44839 -0.0521,-0.0477 0.23717,-1.69273 0.64231,-3.65702 l 0.73743,-3.571403 -2.23516,-2.512356 -2.23515,-2.512256 1.04282,-0.369463 c 1.82461,-0.645855 2.01841,-0.876815 3.19231,-3.803479 l 1.15136,-2.870068 3.00004,-1.122077 c 2.99898,-1.121737 3.0004,-1.122891 3.41204,-2.787004 1.16228,-4.698673 0.94275,-4.354939 2.85712,-4.477427 l 1.73331,-0.110437 0.10951,-2.503358 0.10939,-2.503156 2.91309,-3.393853 2.91305,-3.393816 7.24667,1.515053 c 7.00507,1.464534 7.3371,1.574537 9.95673,3.298078 1.8043,1.187093 3.22181,1.840469 4.24121,1.954992 l 1.5312,0.171875 2.16607,-7.339412 2.1661,-7.339122 4.75656,-0.101374 4.75663,-0.101772 0.81843,-2.010138 0.81846,-2.010073 -1.2204,-1.279183 -1.22022,-1.279123 0.83272,-1.853587 c 0.45802,-1.019392 1.37814,-2.278939 2.04497,-2.798784 l 1.21214,-0.945446 -1.53769,-1.830189 -1.53768,-1.830253 1.14005,-2.863111 c 1.78532,-4.483366 4.21056,-8.904336 6.00295,-10.942718 l 1.6414,-1.866726 2.82833,-0.255811 c 1.55565,-0.141065 4.38388,-0.751918 6.28526,-1.358908 1.90124,-0.606854 3.49892,-1.049844 3.55026,-0.984345 0.0514,0.06574 0.78518,1.147147 1.63081,2.403374 l 1.53738,2.284247 2.18686,0 c 1.29633,0 2.18687,0.157492 2.18687,0.387555 0,0.213595 0.26561,3.09336 0.59081,6.400473 0.57477,5.848584 0.56964,6.160297 -0.18594,11.398922 -1.44671,10.031536 -2.24066,16.700852 -2.47938,20.82722 l -0.23813,4.111631 2.51447,0 2.51462,0 -5.02598,5.05436 -5.0259,5.054559 0.001,6.366512 c 0.001,7.138955 0.67755,12.389827 1.91188,14.852817 0.75364,1.50375 0.84933,1.56408 2.48032,1.56408 l 1.69623,0 0.67006,1.85709 c 0.36833,1.02123 0.87694,1.93599 1.12965,2.03261 0.25233,0.0966 1.41613,-0.10144 2.58525,-0.43988 l 2.12547,-0.61576 2.18317,2.25084 c 1.20055,1.23785 2.11086,2.32255 2.02266,2.41064 -0.0882,0.0877 -1.38882,0.41615 -2.89028,0.72933 -2.72772,0.56911 -2.73298,0.57261 -6.25813,4.06724 l -3.52819,3.49753 -4.82076,-2.28862 -4.82098,-2.28859 -0.95869,0.881 c -1.16718,1.07235 -1.96448,2.84398 -1.96448,4.36492 0,1.10746 -0.14613,1.20199 -6.7477,4.36541 l -6.74778,3.23349 -6.13092,-0.43719 c -6.53579,-0.46585 -6.59454,-0.48616 -7.85191,-2.72524 -0.26831,-0.47641 -0.49052,-0.44447 -1.65179,0.23821 l -1.34246,0.78938 -2.27621,-1.14065 c -1.25183,-0.62745 -2.37669,-1.29747 -2.49972,-1.48904 -0.12261,-0.19111 -0.84526,-2.47298 -1.60488,-5.0696 -1.1106,-3.7958 -1.51085,-4.72111 -2.04244,-4.72111 -0.90713,0 -1.81368,0.98049 -1.81368,1.96149 0,0.68502 -0.46908,0.98294 -2.98063,1.89263 l -2.9806,1.0798 0.23374,4.56841 0.23397,4.56833 -2.23852,1.26916 c -1.23115,0.6981 -2.71342,1.80814 -3.29379,2.46692 -1.13944,1.29334 -0.82853,1.24869 -6.46486,0.92788 l 0,0 z" />
<path
   inkscape:label=""
   inkscape:connector-curvature="0"
   style="fill:#ffffff;fill-opacity:1;stroke:#808080;stroke-width:0.49999994;stroke-miterlimit:4;stroke-dasharray:none;stroke-opacity:1"
   id="EDUCACION_UGEL_SANTA_CRUZ"
   d="m 144.51999,310.12708 c 0,-0.94259 -1.032,-1.61592 -4.29484,-2.80178 -1.48994,-0.5414 -2.57718,-1.10094 -2.41615,-1.24325 0.16073,-0.1424 2.31453,-1.05083 4.78552,-2.01885 5.18905,-2.03257 4.79154,-1.24365 3.95296,-7.84478 -1.04128,-8.19746 -0.8984,-7.65914 -1.98306,-7.47137 -1.62287,0.28003 -5.71291,0.88718 -6.00421,0.89008 -0.15082,10e-4 -0.27531,-0.40835 -0.27531,-0.91087 0,-0.85274 -0.12261,-0.91374 -1.83371,-0.91374 l -1.83378,0 0,-1.46185 c 0,-1.05567 -0.15222,-1.46172 -0.55019,-1.46172 -0.42702,0 -0.55005,-0.48414 -0.55005,-2.16358 l 0,-2.16334 1.37536,0.379 c 0.75638,0.20794 3.68584,0.8467 6.50973,1.41854 l 5.13456,1.03974 2.0807,-2.08765 c 2.06495,-2.07168 2.09041,-2.124 3.3282,-6.8387 l 1.24729,-4.75122 4.43895,-0.84355 4.43901,-0.84345 2.05345,1.35873 2.05356,1.35867 2.46553,-1.71398 2.4658,-1.71396 0.11523,1.10745 0.11523,1.10741 5.62454,0 5.62467,0 1.91138,2.08408 c 1.05131,1.14619 2.25217,2.78276 2.66849,3.63694 0.44993,0.92285 1.15713,1.71803 1.7433,1.95992 0.87258,0.36044 1.01279,0.66255 1.21907,2.62962 0.12877,1.2224 0.23307,3.39605 0.23307,4.8303 l 0,2.60773 2.49398,3.46029 c 3.32174,4.609 3.20518,4.37404 2.169,4.37404 -0.48496,0 -1.9206,-0.69888 -3.1904,-1.55323 -1.26978,-0.85426 -2.97881,-2.00551 -3.79803,-2.55834 -1.34099,-0.90479 -1.80613,-1.00505 -4.66665,-1.00505 l -3.1772,0 -0.2255,1.6356 c -0.21173,1.5428 -2.42676,6.32223 -4.38999,9.47475 -0.85743,1.37699 -0.86984,1.49339 -0.36389,3.42366 0.63044,2.40581 0.45533,3.00865 -0.87379,3.00865 -0.5547,0 -3.19603,0.27063 -5.86969,0.60336 -4.82936,0.59928 -4.8837,0.59783 -8.32589,-0.22797 l -3.46493,-0.83175 -1.0378,0.74315 c -0.57091,0.40871 -1.52255,1.25169 -2.11504,1.87307 -1.07453,1.12685 -1.08734,1.12988 -5.04284,1.12988 -3.68252,0 -3.96561,-0.05 -3.96561,-0.71034 z" />
<path
   inkscape:label=""
   inkscape:connector-curvature="0"
   style="fill:#ffffff;fill-opacity:1;stroke:#808080;stroke-width:0.49999994;stroke-miterlimit:4;stroke-dasharray:none;stroke-opacity:1"
   id="EDUCACION_UGEL_SAN_MIGUEL"
   d="m 150.86402,356.8715 -1.88509,-3.77687 -1.73048,-0.23702 c -0.95186,-0.12978 -3.81177,-0.23407 -6.35552,-0.23121 -3.59451,0.001 -5.14759,0.1676 -6.97143,0.73765 -1.29061,0.40301 -2.38401,0.68882 -2.42978,0.63484 -1.40855,-1.66035 -5.26013,-8.28642 -9.64785,-16.59732 -0.36289,-0.6881 -0.14613,-1.12971 1.77901,-3.61164 2.4295,-3.13292 2.34133,-2.70519 1.85433,-8.99521 -0.17864,-2.30897 -0.54599,-4.37783 -0.90384,-5.09269 -0.33146,-0.66228 -0.47647,-1.31294 -0.32258,-1.44605 0.15409,-0.13341 1.63255,-1.25391 3.28479,-2.49081 l 3.00407,-2.24891 2.54909,0 c 2.47747,0 2.55606,-0.007 2.79264,-1.00509 0.13385,-0.55282 0.40797,-1.6294 0.60851,-2.39215 l 0.36509,-1.38705 3.44958,2.94034 3.44959,2.94029 5.24217,-3e-4 5.24224,-4.1e-4 1.0645,-1.91828 c 0.58548,-1.05514 1.11763,-1.98273 1.18238,-2.06121 0.0651,-0.079 1.52746,0.48296 3.25017,1.24794 l 3.13212,1.39072 4.12057,-0.797 c 2.26647,-0.43857 5.22125,-0.79435 6.56639,-0.79111 3.7133,0.003 3.60581,0.12979 3.60581,-4.07895 0,-3.45595 0.0564,-3.72296 1.11131,-5.25069 1.65259,-2.39354 3.28907,-6.04282 3.28944,-7.33513 1.8e-4,-1.01413 0.18213,-1.20732 1.6712,-1.77401 1.46295,-0.55685 1.74826,-0.57022 2.29222,-0.10695 6.11663,5.19947 6.40296,5.39558 7.87705,5.39558 1.65285,0 6.53228,1.58402 10.67645,3.46611 l 2.78922,1.26654 0,3.1158 0,3.11577 1.25551,0 1.25576,0 -1.8645,3.38053 c -1.02527,1.85942 -2.09455,3.65025 -2.37593,3.97981 -0.31739,0.37129 -1.37971,0.69171 -2.79649,0.84294 l -2.28491,0.24403 -1.47742,3.17721 c -1.40485,3.02127 -1.55722,3.20422 -3.10453,3.72541 -1.52948,0.51528 -1.63366,0.63631 -1.73571,2.01541 -0.10365,1.39363 -0.24856,1.55471 -2.87837,3.21003 l -2.7699,1.74256 -2.62277,-0.22794 -2.62303,-0.22874 -3.34738,3.12852 -3.34729,3.12854 -0.26665,6.73136 -0.2659,6.7314 -1.92922,1.89867 -1.92943,1.89883 -2.47135,-0.7608 c -2.31771,-0.71339 -9.6596,-1.86137 -11.85845,-1.85434 -0.91303,0.001 -1.11442,0.30705 -2.59999,3.92871 -0.88559,2.15923 -1.71596,4.04597 -1.84519,4.19302 -0.12929,0.14737 -1.08333,-1.43245 -2.12005,-3.50976 l 0,0 z" />
<path
   inkscape:label=""
   inkscape:connector-curvature="0"
   style="fill:#ffffff;fill-opacity:1;stroke:#808080;stroke-width:0.49999994;stroke-miterlimit:4;stroke-dasharray:none;stroke-opacity:1"
   id="EDUCACION_UGEL_BAMBAMARCA"
   d="m 212.90206,307.86171 c 0,-1.76041 -0.0412,-1.82733 -1.03293,-1.82733 -1.01351,0 -1.04514,-0.0645 -1.68248,-3.43667 l -0.64959,-3.43659 -4.92977,-2.31055 -4.92984,-2.31063 -3.07693,-4.74778 c -2.39731,-3.69925 -3.00169,-4.88846 -2.73561,-5.38379 0.34707,-0.64585 2.42589,-1.39293 3.88621,-1.39665 0.4414,-0.001 2.77475,1.33461 5.18487,2.96828 l 4.38224,2.97038 5.38479,-4.70638 c 7.12199,-6.22458 6.77744,-6.03711 8.43215,-4.58917 0.73038,0.63908 1.47465,1.16191 1.65388,1.16191 0.17922,0 0.79239,-0.3832 1.3626,-0.85235 1.54824,-1.27308 5.23426,-3.69279 6.94803,-4.56097 l 1.51031,-0.76524 2.36091,2.66555 2.36081,2.6655 0.65863,4.35257 0.65863,4.35258 -1.08451,2.9239 -1.08444,2.92362 0.86412,3.80685 c 0.4754,2.09382 0.80806,3.86275 0.73949,3.93122 -0.0687,0.0679 -1.01768,0.42619 -2.10896,0.79508 -1.78213,0.60211 -2.00303,0.79331 -2.16775,1.87486 l -0.18328,1.20437 -1.62013,-1.35147 c -1.76879,-1.47533 -3.37714,-2.40316 -4.16573,-2.40316 -0.60444,0 -2.09926,1.51314 -2.09926,2.12503 0,0.83347 -0.64408,0.42104 -1.6069,-1.02867 -0.53399,-0.80398 -1.09225,-1.45646 -1.24066,-1.44986 -0.14835,0.002 -2.33285,1.73287 -4.8542,3.83624 -2.52147,2.10344 -4.70823,3.82492 -4.85949,3.8255 -0.15097,6.7e-4 -0.27534,-0.8211 -0.27534,-1.82618 z" />
<path
   inkscape:label=""
   inkscape:connector-curvature="0"
   style="fill:#ffffff;fill-opacity:1;stroke:#808080;stroke-width:0.49999994;stroke-miterlimit:4;stroke-dasharray:none;stroke-opacity:1"
   id="EDUCACION_UGEL_CELENDIN"
   d="m 269.46824,345.96728 c -0.73035,-0.82631 -5.47377,-8.02817 -6.58245,-9.99406 -0.71222,-1.26263 -1.36861,-1.75334 -4.1518,-3.103 -4.19137,-2.03277 -5.71707,-3.29535 -6.90547,-5.71521 -0.76467,-1.55713 -5.23861,-6.4722 -8.87856,-9.75403 -0.0887,-0.0803 -1.15606,0.38208 -2.37137,1.02775 -1.64083,0.87161 -2.25661,1.0503 -2.39169,0.69402 -0.30009,-0.78998 -3.11341,-11.04542 -3.11341,-11.34736 0,-0.15417 0.40389,-0.27846 0.89781,-0.27846 0.93776,0 5.20908,-3.2627 5.59989,-4.27747 0.11711,-0.30554 -0.0367,-3.04534 -0.32865,-6.08809 l -0.54294,-5.53244 1.38137,-1.6676 1.38133,-1.66756 -1.81039,-5.06275 c -0.99576,-2.78441 -1.81044,-5.19663 -1.81044,-5.36036 0,-0.73371 3.10475,-1.81029 5.82319,-2.01922 l 2.87067,-0.22112 -0.6774,-2.16899 c -0.88898,-2.84604 -2.29779,-10.33908 -2.05971,-10.95422 0.10228,-0.26487 1.37498,-0.89156 2.82778,-1.39209 1.45265,-0.50064 2.77889,-1.07621 2.94691,-1.27914 0.44213,-0.53359 1.53766,-6.06595 1.31558,-6.64289 -0.25288,-0.65801 0.32383,-0.61865 0.88956,0.0609 0.29121,0.35022 1.10168,0.54816 2.23606,0.54816 1.63725,0 1.82827,0.0955 2.39234,1.18778 1.05108,2.0367 3.58277,5.08778 8.16604,9.84106 l 4.41712,4.58113 0.78514,3.61597 c 1.53369,7.06327 2.92268,9.6662 7.6566,14.34741 l 2.82238,2.79103 1.42081,6.13838 c 1.38224,5.97135 1.40831,6.21003 0.95605,8.77134 -0.25572,1.44819 -0.55704,3.16741 -0.66982,3.82072 l -0.20489,1.18772 1.88167,0 c 2.22278,0 2.1253,-0.45494 1.3317,6.21309 -0.29846,2.51259 -0.54527,4.60949 -0.547,4.65973 -0.001,0.0506 0.4089,0.0915 0.91367,0.0915 1.06265,0 1.1034,0.1974 0.39168,1.89397 -0.52269,1.24652 -0.50952,1.28171 2.88656,7.71958 2.54129,4.81765 3.25984,6.46819 2.81722,6.47082 -1.2427,0.003 -4.41054,1.81359 -7.31942,4.17294 l -3.02159,2.45095 -3.19524,-0.0839 c -3.00995,-0.0793 -3.34398,-0.003 -5.76242,1.20682 -3.52873,1.77476 -3.98696,1.88467 -4.6643,1.11809 l 0,0 z" />
<path
   inkscape:label=""
   inkscape:connector-curvature="0"
   style="fill:#ffffff;fill-opacity:1;stroke:#808080;stroke-width:0.49999994;stroke-miterlimit:4;stroke-dasharray:none;stroke-opacity:1"
   id="EDUCACION_UGEL_CONTUMAZA"
   d="m 161.5198,412.46479 c -2.2165,-3.17235 -3.23664,-5.13466 -3.56864,-6.86462 -0.13493,-0.70082 -0.9241,-2.92098 -1.75494,-4.93389 -1.07013,-2.59299 -1.56298,-4.37654 -1.69091,-6.11843 l -0.17994,-2.45869 -2.83249,-2.54865 -2.83252,-2.54863 -2.50341,-0.10939 -2.50345,-0.1096 -1.80212,-2.28545 c -1.24463,-1.57859 -1.8629,-2.73744 -1.99873,-3.7462 -0.10841,-0.80327 -0.29847,-1.46013 -0.42338,-1.45943 -0.12401,6.8e-4 -1.92427,0.32913 -3.99896,0.73096 -2.07475,0.40082 -3.90446,0.72981 -4.06612,0.72981 -0.16167,0 -1.09051,-1.15127 -2.06394,-2.55827 -0.97365,-1.40709 -1.94942,-2.55546 -2.16874,-2.55204 -0.21844,0.002 -1.58642,0.31367 -3.03823,0.68952 -2.58664,0.66954 -2.65242,0.66934 -3.26947,-0.003 -0.70714,-0.7787 -0.73326,-0.73694 2.76902,-4.43185 1.64421,-1.73453 1.64758,-1.73604 4.09834,-1.73604 l 2.45278,0 -0.68079,-2.63736 -0.68077,-2.63755 0.95859,-2.75331 c 0.5271,-1.51425 1.0563,-2.85656 1.17583,-2.98267 0.12014,-0.12665 3.86046,-0.34109 8.31349,-0.47691 l 8.09629,-0.24738 1.88722,4.0401 1.88705,4.04004 1.60147,0 1.60147,0 1.81671,-4.29422 1.81677,-4.29434 1.81857,0.0933 c 1.00021,0.0513 3.91522,0.64495 6.47794,1.31883 4.4157,1.16099 4.76716,1.32306 6.71587,3.0979 1.97007,1.7944 2.09224,1.84947 2.91049,1.3152 0.95046,-0.62051 7.9843,-1.22231 14.54059,-1.24414 l 3.88727,-0.004 4.1813,2.06053 c 2.2997,1.13323 5.37779,2.60418 6.84029,3.26842 1.46235,0.66435 2.65892,1.30205 2.65892,1.41703 0,0.11555 -0.52498,1.13614 -1.16661,2.26921 -1.11154,1.96244 -1.13963,2.10698 -0.59347,3.05541 0.5663,0.98345 0.54667,1.0256 -1.62833,3.50777 -2.51853,2.87431 -3.57657,4.44377 -3.57846,5.30863 -0.001,0.44676 -0.54784,0.70035 -2.1103,0.97827 -1.92411,0.3428 -2.53043,0.26166 -6.92452,-0.92375 l -4.81569,-1.29894 -5.08848,4.5235 c -2.79865,2.48789 -5.97644,5.2774 -7.06175,6.19902 l -1.97337,1.67557 1.2695,0.78164 c 1.79716,1.10692 3.2311,2.50002 3.2311,3.13917 0,0.39115 -0.49078,0.5771 -1.73427,0.65709 -1.72119,0.11005 -1.76086,0.1431 -5.30868,4.31427 -1.966,2.3117 -3.67316,4.5496 -3.79373,4.97325 -0.12088,0.42359 0.006,1.33546 0.30715,2.02605 0.46929,1.1194 0.45736,1.43216 -0.11028,2.88431 -0.58796,1.50386 -0.74684,1.63713 -2.0708,1.7372 -1.40305,0.10641 -1.47422,0.0502 -3.29725,-2.55828 l 0,0 z" />
<path
   inkscape:label=""
   inkscape:connector-curvature="0"
   style="fill:#ffffff;fill-opacity:1;stroke:#808080;stroke-width:0.49999994;stroke-miterlimit:4;stroke-dasharray:none;stroke-opacity:1"
   id="EDUCACION_UGEL_SAN_PABLO"
   d="m 175.48011,355.92646 2.41434,-3.08111 0,-6.02147 0,-6.0213 3.18025,-2.90557 3.18027,-2.90564 2.22934,0.67366 2.22931,0.6733 1.65037,-1.16449 c 4.85854,-3.42825 4.73827,-3.30787 4.75348,-4.75957 0.006,-1.23173 0.14946,-1.41944 1.38964,-1.91473 2.23748,-0.89344 2.33829,-1.00538 3.71902,-4.12831 1.28298,-2.90145 1.36242,-2.99396 2.57526,-3.00042 1.90959,-0.003 4.23006,-1.55061 5.13149,-3.40629 0.4228,-0.8703 0.76868,-1.75962 0.76868,-1.97619 0,-0.42138 1.09276,-0.96666 1.37473,-0.68559 0.0927,0.0923 -0.008,3.42701 -0.25677,7.40929 l -0.42637,7.24056 -1.51521,3.28925 c -2.30597,5.00569 -5.1993,10.10069 -8.71693,15.34979 -3.7471,5.59146 -4.396,6.77476 -4.396,8.0152 0,0.66088 -0.23593,0.97762 -0.82518,1.10927 -2.52858,0.56497 -11.40989,1.29062 -15.80081,1.29104 l -5.07327,4.4e-4 2.41435,-3.08112 z" />
<path
   inkscape:label=""
   inkscape:connector-curvature="0"
   style="fill:#ffffff;fill-opacity:1;stroke:#808080;stroke-width:0.49999994;stroke-miterlimit:4;stroke-dasharray:none;stroke-opacity:1"
   id="EDUCACION_UGEL_CAJAMARCA"
   d="m 216.29466,400.72644 c -5.76101,-0.30553 -6.69109,-0.43636 -6.67757,-0.94094 0.003,-0.32242 0.32798,-3.05313 0.70979,-6.06833 l 0.69408,-5.48198 -2.43491,-2.28423 c -1.57601,-1.4786 -2.74186,-2.28422 -3.3051,-2.28422 -0.75817,0 -0.46492,-0.45312 2.27518,-3.51391 l 3.14543,-3.51393 0,-2.63034 c 0,-2.51026 0.0508,-2.66804 1.12219,-3.45707 2.4016,-1.76945 1.20588,-2.77885 -7.22767,-6.10163 -5.16529,-2.03514 -5.1912,-2.05119 -5.77626,-3.57777 -0.32357,-0.84346 -0.58772,-1.68043 -0.58772,-1.85977 0,-0.17989 1.38621,-2.39421 3.08054,-4.92165 3.36367,-5.01784 6.64803,-10.51316 9.84544,-16.47328 l 2.05866,-3.83749 0.26321,-7.79595 0.26342,-7.79617 4.04421,-3.38295 4.04412,-3.38291 1.70122,0.64408 1.70129,0.64428 1.62269,-1.27943 1.62255,-1.2798 0.98701,1.10104 c 0.68277,0.76132 1.62734,3.06941 3.06422,7.48717 1.14246,3.5126 2.39849,6.73029 2.79126,7.15027 0.81883,0.87583 1.49599,0.93579 3.7594,0.33221 l 1.61753,-0.43102 3.84246,3.55072 c 3.47406,3.21036 3.86204,3.69845 4.04564,5.09081 0.27338,2.07512 2.51605,4.09105 6.57754,5.91396 3.07134,1.37854 3.07413,1.38099 4.25529,3.83289 0.65015,1.34948 1.97276,3.34431 2.93929,4.43286 l 1.75733,1.97934 -0.57644,2.23707 c -0.45249,1.75595 -0.8526,2.45762 -1.86008,3.26226 -3.90065,3.11498 -6.19466,5.90418 -5.63096,6.84607 0.14674,0.24508 1.31165,1.87096 2.58854,3.61258 l 2.32137,3.16646 -0.77592,1.3105 c -0.42679,0.72083 -0.85632,1.3106 -0.95455,1.3106 -0.0987,0 -1.22287,-0.27727 -2.49913,-0.61617 l -2.32042,-0.61613 -2.14085,1.58141 c -3.2667,2.41302 -4.89131,4.08179 -4.89131,5.0244 0,0.78961 0.14215,0.83944 2.38385,0.83944 l 2.38395,0 0,1.24717 c 0,1.21919 -0.0645,1.27134 -2.84238,2.32527 -1.56327,0.59307 -3.1856,1.18522 -3.60501,1.31607 -0.87386,0.27313 -1.54114,3.09872 -1.89182,8.01174 -0.20197,2.83574 -0.20761,2.8488 -1.15835,2.66288 -0.52516,-0.10217 -2.45433,-0.45174 -4.28692,-0.77512 l -3.33195,-0.58832 -2.38345,2.49378 c -1.31085,1.37165 -3.09212,3.27502 -3.95815,4.22991 -1.81454,2.00064 -0.60043,1.87777 -12.39193,1.25294 z" />
<path
   inkscape:label=""
   inkscape:connector-curvature="0"
   style="fill:#ffffff;fill-opacity:1;stroke:#808080;stroke-width:0.49999994;stroke-miterlimit:4;stroke-dasharray:none;stroke-opacity:1"
   id="EDUCACION_UGEL_SAN_MARCOS"
   d="m 306.41347,379.34942 c -0.30282,-0.18729 -1.62298,-0.45545 -2.93401,-0.59722 -4.296,-0.46393 -4.40107,-0.50869 -4.40107,-1.87217 l 0,-1.21381 -2.05418,0.70429 c -2.30446,0.79009 -4.26479,1.90847 -5.31602,3.03289 -0.78447,0.83907 -3.04086,5.41973 -4.39577,8.92355 l -0.88316,2.28417 -6.19877,0 -6.19899,0 -1.64176,1.3406 -1.64156,1.34046 -2.98246,-3.07643 c -1.6402,-1.69213 -4.34686,-4.5156 -6.01449,-6.27437 -2.36744,-2.49704 -3.2513,-3.1983 -4.03235,-3.19951 -0.98087,-0.001 -2.90864,-1.10706 -5.09519,-2.92223 l -1.10068,-0.91365 1.29796,-2.07731 1.29796,-2.07728 2.23572,1.24589 2.23589,1.24615 1.36386,-1.12031 c 0.75013,-0.61624 1.60844,-1.59181 1.90743,-2.16784 0.64394,-1.24086 0.27816,-2.60321 -2.01829,-7.52479 l -1.38762,-2.97323 3.89918,-3.87267 3.89903,-3.87268 6.60157,-0.90376 c 3.63086,-0.49706 7.36795,-1.01348 8.30472,-1.14744 1.51006,-0.21642 2.0293,-0.57045 4.57577,-3.12331 1.71341,-1.71731 3.17413,-2.87932 3.62009,-2.87932 0.41109,0 1.33592,-0.31468 2.05489,-0.6982 l 1.30737,-0.69819 1.1628,2.34989 c 0.90845,1.83565 1.16286,2.82185 1.16286,4.50791 l 0,2.15826 2.56728,2.27366 2.56714,2.27371 0,2.45644 0,2.45631 1.83386,0.7594 1.83376,0.75943 0,3.49225 0,3.49235 1.06252,0 c 1.17537,0 1.19103,0.0534 2.26236,7.59277 z" />
<path
   inkscape:label=""
   inkscape:connector-curvature="0"
   style="fill:#ffffff;fill-opacity:1;stroke:#808080;stroke-width:0.49999994;stroke-miterlimit:4;stroke-dasharray:none;stroke-opacity:1"
   id="EDUCACION_UGEL_CAJABAMBA"
   d="m 309.28527,381.63787 0.3155,2.22082 4.90175,4.67566 4.90181,4.67557 -1.18601,1.12166 c -1.38215,1.30674 -2.42447,1.8621 -6.36566,3.39125 -3.19044,1.23791 -5.48453,2.38133 -6.46499,3.22247 -0.50675,0.43494 -0.64177,1.13652 -0.64177,3.33653 l 0,2.7861 -3.57583,1.23216 c -1.96678,0.67773 -3.71864,1.35803 -3.89318,1.512 -0.17398,0.15416 -0.006,1.04785 0.33654,1.98694 0.41142,1.07404 0.51996,1.79724 0.29219,1.9498 -0.19992,0.13393 -1.92201,1.33397 -3.82756,2.66799 l -3.46483,2.42547 -5.02396,0.77238 c -2.76323,0.42485 -5.24466,0.77228 -5.51446,0.77228 -0.26942,0 -1.18883,-0.98674 -2.04237,-2.19276 -1.52705,-2.15783 -1.5796,-2.19285 -3.30251,-2.19285 l -1.75063,0 -3.82358,4.75254 -3.82364,4.75263 -2.24044,-0.22889 -2.2404,-0.22889 0.17078,2.05457 c 0.16433,1.97221 0.1362,2.0537 -0.69955,2.02924 -0.47886,-0.004 -1.65594,-0.26536 -2.61583,-0.56016 l 0,0 0,-4.4e-4 -1.74532,-0.53475 0.56834,-1.09516 c 0.61869,-1.19229 0.5725,-1.33444 -1.08885,-3.35131 -1.09326,-1.32719 -1.19002,-1.36413 -3.5916,-1.37047 l -2.46812,-0.002 -0.78554,-1.53456 c -1.29517,-2.52982 -3.29169,-5.34365 -4.22288,-5.95171 -0.67888,-0.44357 -0.87449,-0.89615 -0.87449,-2.02446 0,-1.34647 0.0748,-1.45348 1.02154,-1.45348 l 1.02159,0 0.42594,-4.29427 c 0.23373,-2.36178 0.63594,-4.82874 0.89257,-5.48204 0.43595,-1.10969 0.58212,-1.18783 2.21995,-1.18783 l 1.75335,0 0,-2.01005 0,-2.01006 -2.20047,0 c -1.2103,0 -2.20046,-0.0694 -2.20046,-0.15402 0,-0.1867 1.80737,-7.8208 2.05367,-8.67494 0.20073,-0.69708 6.18115,-2.68958 9.1747,-3.05693 l 1.87615,-0.22977 4.13665,5.23548 c 2.27518,2.87956 4.34601,5.40768 4.60185,5.61812 0.25599,0.21054 1.71691,0.67663 3.24717,1.03609 l 2.78201,0.65353 1.48138,-1.16923 1.48143,-1.16911 6.09808,0.13327 6.0982,0.13327 1.15918,-2.92366 c 1.98231,-4.99947 3.19781,-7.24026 4.92665,-9.08213 l 1.66808,-1.77728 4.58935,0.24376 c 2.52415,0.13406 5.16702,0.32582 5.87303,0.42547 z" />
<path
   inkscape:label=""
   inkscape:connector-curvature="0"
   style="fill:#ffffff;fill-opacity:1;stroke:#808080;stroke-width:0.49999994;stroke-miterlimit:4;stroke-dasharray:none;stroke-opacity:1"
   id="EDUCACION_CUTERVO"
   d="m 187.81068,255.45688 c -0.4168,-0.2969 -0.50727,-1.44588 -0.50727,-1.44588 l -0.50729,-1.44564 -5.69566,0.12256 -5.69569,0.12206 -0.38487,-1.21904 c -0.21125,-0.67045 -0.82198,-2.69939 -1.35657,-4.50829 l -0.97206,-3.28926 -4.63661,-4.65978 c -2.55013,-2.56294 -4.77021,-4.65977 -4.93345,-4.65977 -0.16314,0 -1.55692,0.84717 -3.09685,1.88275 l -2.79983,1.88266 -2.77655,-0.42229 c -2.68264,-0.40837 -3.43519,-0.71474 -9.45725,-3.85029 -1.94779,-1.01414 -3.29764,-1.44273 -5.11279,-1.62305 l -2.46628,-0.24512 -0.76335,-1.82728 c -1.37555,-3.29248 -2.41238,-4.9562 -3.35571,-5.38462 -0.67611,-0.30673 -0.99637,-0.31181 -1.17935,-0.004 -0.1376,0.22243 -0.93578,-1.30785 -1.77253,-3.40136 -1.37627,-3.44342 -1.45524,-3.80626 -0.8274,-3.80626 0.75828,0 1.95809,-1.68542 3.20556,-4.50302 l 0.78005,-1.76195 3.11842,2.61676 3.11832,2.6168 2.40799,-0.79859 c 1.32444,-0.43906 4.01001,-1.07981 5.968,-1.42349 l 3.55974,-0.62498 0.10543,-2.92842 0.10542,-2.92834 2.96469,-1.20805 c 1.91362,-0.77958 3.43657,-1.69132 4.29556,-2.57161 1.2612,-1.2923 1.50384,-1.38275 4.6317,-1.72573 l 3.30071,-0.3623 3.35456,1.95287 3.35447,1.95292 2.88026,-1.93238 2.88026,-1.93223 1.95001,-7.87961 1.94988,-7.87985 3.44329,-1.55612 c 3.39601,-1.53483 3.45158,-1.58051 4.03305,-3.325 0.58134,-1.74428 0.61288,-1.77019 2.27868,-1.87922 1.67245,-0.1095 1.69531,-0.1279 2.30758,-1.93774 l 0.61829,-1.82739 0.2719,2.01001 c 0.57297,4.22201 1.59911,7.73311 2.86106,9.79055 1.84396,3.00625 5.66334,10.08418 8.52186,15.79254 1.35886,2.71365 2.5046,4.97268 2.54605,5.01997 0.0416,0.0478 2.20933,0.26973 4.81766,0.4945 3.05594,0.26293 4.93278,0.58925 5.27725,0.9167 0.46809,0.44491 0.43006,1.50491 -0.30435,8.50276 l -0.83927,7.99474 1.09567,2.16293 c 0.60257,1.18954 1.20981,2.92182 1.3494,3.84944 0.21797,1.45078 0.1597,1.71451 -0.42414,1.8885 -2.26779,0.67591 -12.95636,2.48606 -15.80661,2.67697 -1.86585,0.12451 -3.39241,0.38015 -3.39241,0.56713 0,0.92631 -2.78755,5.74721 -4.0233,6.9579 -0.8211,0.80452 -1.78558,2.32535 -2.31788,3.65474 -0.80414,2.00877 -1.03955,2.28988 -1.99815,2.38724 l -1.08667,0.11047 c 0.28162,1.86867 1.41553,3.71315 0.28454,4.89886 -1.18214,1.2395 -3.75219,0.95913 -5.14826,-0.009 z" />
</svg>
