<?xml version="1.0" encoding="UTF-8" standalone="no"?>
<!--?xml version="1.0" encoding="UTF-8" standalone="no"?-->

<!--?xml version="1.0" encoding="UTF-8" standalone="no"?-->

<!--
************* Copyright (c) 2015 Pareto Softare, LLC DBA Simplemaps.com *******************		
************* Free for Commercial Use, full terms at  http://simplemaps.com/resources/svg-license ************
************* Attribution is appreciated! http://simplemaps.com ***************************
-->

<svg
   xmlns:dc="http://purl.org/dc/elements/1.1/"
   xmlns:cc="http://creativecommons.org/ns#"
   xmlns:rdf="http://www.w3.org/1999/02/22-rdf-syntax-ns#"
   xmlns:svg="http://www.w3.org/2000/svg"
   xmlns="http://www.w3.org/2000/svg"
   xmlns:sodipodi="http://sodipodi.sourceforge.net/DTD/sodipodi-0.dtd"
   xmlns:inkscape="http://www.inkscape.org/namespaces/inkscape"
   enable_background="new 0 0 1000 1585"
   height="549.01257"
   pretty_print="True"
   style="fill:none;stroke:#000000;stroke-linejoin:round"
   version="1.1"
   viewBox="0 0 354.46857 549.01257"
   width="354.46857"
   id="svg2"
   inkscape:version="0.91 r13725"
   sodipodi:docname="Callao.svg"><sodipodi:namedview
   pagecolor="#ffffff"
   bordercolor="#666666"
   borderopacity="0.05098039"
   objecttolerance="10"
   gridtolerance="10"
   guidetolerance="10"
   inkscape:pageopacity="0"
   inkscape:pageshadow="2"
   inkscape:window-width="1920"
   inkscape:window-height="1017"
   id="namedview37"
   showgrid="false"
   inkscape:zoom="0.62063314"
   inkscape:cx="-386.8164"
   inkscape:cy="372.77061"
   inkscape:window-x="-8"
   inkscape:window-y="-8"
   inkscape:window-maximized="1"
   inkscape:current-layer="svg2"
   showborder="true"
   fit-margin-top="10"
   fit-margin-left="10"
   fit-margin-right="10"
   fit-margin-bottom="10"
   borderlayer="false"
   inkscape:showpageshadow="false"
   inkscape:snap-to-guides="false"
   inkscape:snap-grids="false"
   showguides="false" />
























utf-8<defs
   id="defs4">
  <style
     type="text/css"
     id="style6">path { fill-rule: evenodd; }utf-8utf-8</style>
</defs>
























utf-8<metadata
   id="metadata8">
utf-8utf-8<views>
utf-8utf-8utf-8<view
   h="1585.21431143"
   padding="0"
   w="1000">
utf-8utf-8utf-8utf-8<proj
   flip="auto"
   id="robinson"
   lon0="-80.0286400104" />
























utf-8utf-8utf-8utf-8<bbox
   h="307.01"
   w="193.79"
   x="-1203.32"
   y="0.49" />
























utf-8utf-8utf-8</view>
























utf-8utf-8</views>
























utf-8<rdf:rdf>
  <cc:work
     rdf:about="">
    <dc:format>image/svg+xml</dc:format>
    <dc:type
       rdf:resource="http://purl.org/dc/dcmitype/StillImage" />
  </cc:work>
</rdf:rdf>
<rdf:rdf>
  <cc:work
     rdf:about="">
    <dc:format>image/svg+xml</dc:format>
    <dc:type
       rdf:resource="http://purl.org/dc/dcmitype/StillImage" />
    <dc:title />
  </cc:work>
</rdf:rdf>
<rdf:RDF>
  <cc:Work
     rdf:about="">
    <dc:format>image/svg+xml</dc:format>
    <dc:type
       rdf:resource="http://purl.org/dc/dcmitype/StillImage" />
    <dc:title />
  </cc:Work>
</rdf:RDF>
</metadata>
























utf-8<path
   style="fill:none;fill-rule:evenodd;stroke:#000000;stroke-width:1px;stroke-linecap:butt;stroke-linejoin:miter;stroke-opacity:1"
   d="m 214.81845,213.31879 12.39579,10.18848 7.29162,2.18323 9.47914,2.18326 10.2083,3.63874 5.10413,-1.45551 -3.64581,-6.54972 0,-4.36649 -2.1875,-3.63875 -6.56246,-5.09423 1.45833,-8.73299 8.02078,-3.63872 0.72918,-5.82199 6.56246,-3.63874 0,-13.09946 2.18751,-5.822 -0.72919,-5.82197 -7.29161,-5.82199 4.37497,-6.54973 -2.91666,-4.3665 -1.45831,-7.27747 -1.45835,-2.91098 -6.56247,-4.3665 0.72917,-6.54973 3.64583,-5.09424 -2.91666,-2.18323 -5.8333,-1.45551 -8.74996,-5.09424 -3.64584,-5.82198 0,-5.09423 -4.37499,-5.094237 0.72918,-5.821985 2.91666,-3.638739 -15.31245,-13.099465 -10.93745,1.455496 -6.56248,0.727747 -8.74995,-0.727747 -6.56249,-0.727747 -14.58326,8.732975 -8.0208,0 -3.64582,-1.455495 -5.83329,-0.727749 -3.64583,3.638741 -2.18749,-0.727747 -11.66661,-0.72775 3.64582,6.549731 0,5.821985 4.37497,6.549736 12.39578,2.18324 10.20829,13.09946 10.2083,17.46595 8.02079,18.92146 4.37497,10.91623 2.91667,7.27747 -2.91667,7.27747 7.29164,8.00524 0,8.73297 2.1875,10.18847 4.37499,10.91622 z"
   id="EDUCACION_VENTANILLA"
   inkscape:connector-curvature="0"
   inkscape:label="" />
<path
   style="fill:none;fill-rule:evenodd;stroke:#000000;stroke-width:1px;stroke-linecap:butt;stroke-linejoin:miter;stroke-opacity:1"
   d="m 161.58951,374.32912 16.77076,-2.18324 2.91666,-4.36649 4.37499,-6.54973 2.18747,-2.18326 0.72918,-5.09423 0.72916,-5.09424 3.64582,-2.18325 4.37498,-4.36647 -4.37498,-2.18326 -5.83331,0 -2.18749,-8.73298 13.85411,-10.9162 8.74996,-17.46597 0,-19.64918 0,-9.46072 2.18749,-7.27749 0,-12.37173 -2.91665,-12.37171 -3.64583,-9.46071 -2.91665,-11.64399 12.39578,-1.45548 4.37498,8.00523 10.2083,11.64397 0,8.73298 0,8.00522 7.29162,6.54973 2.18752,8.73296 -7.29165,11.64398 2.18748,5.822 2.91665,2.91098 4.37499,-2.91098 5.83331,4.36647 7.29164,4.3665 5.10415,5.09424 10.93745,8.73297 -0.72918,8.73297 -5.10413,5.82198 -5.10414,5.82198 1.45832,5.822 5.10414,2.91098 10.93746,-0.72774 1.45832,8.00523 4.37498,5.82197 1.45833,3.63875 -6.56248,2.18324 -5.83329,0 -2.91668,6.54975 -0.72913,4.36647 -10.2083,0 -8.74996,0 -3.64583,11.64396 -2.18747,5.09424 -5.83332,3.63875 -35.72903,-11.64396 -6.56246,-2.911 -13.12495,2.911 -4.37497,6.54972 -8.74998,-0.72773 -5.83331,-2.18326 -3.64582,-0.72776 z"
   id="EDUCACION_CALLAO"
   inkscape:connector-curvature="0"
   inkscape:label="" />
</svg>
