<?xml version="1.0" encoding="UTF-8" standalone="no"?>
<!--?xml version="1.0" encoding="UTF-8" standalone="no"?-->

<!--?xml version="1.0" encoding="UTF-8" standalone="no"?-->

<!--
************* Copyright (c) 2015 Pareto Softare, LLC DBA Simplemaps.com *******************		
************* Free for Commercial Use, full terms at  http://simplemaps.com/resources/svg-license ************
************* Attribution is appreciated! http://simplemaps.com ***************************
-->

<svg
   xmlns:dc="http://purl.org/dc/elements/1.1/"
   xmlns:cc="http://creativecommons.org/ns#"
   xmlns:rdf="http://www.w3.org/1999/02/22-rdf-syntax-ns#"
   xmlns:svg="http://www.w3.org/2000/svg"
   xmlns="http://www.w3.org/2000/svg"
   xmlns:sodipodi="http://sodipodi.sourceforge.net/DTD/sodipodi-0.dtd"
   xmlns:inkscape="http://www.inkscape.org/namespaces/inkscape"
   enable_background="new 0 0 1000 1585"
   height="549.01257"
   pretty_print="True"
   style="fill:none;stroke:#000000;stroke-linejoin:round"
   version="1.1"
   viewBox="0 0 354.46857 549.01257"
   width="354.46857"
   id="svg2"
   inkscape:version="0.91 r13725"
   sodipodi:docname="Cusco.svg"><sodipodi:namedview
   pagecolor="#ffffff"
   bordercolor="#666666"
   borderopacity="0.05098039"
   objecttolerance="10"
   gridtolerance="10"
   guidetolerance="10"
   inkscape:pageopacity="0"
   inkscape:pageshadow="2"
   inkscape:window-width="1920"
   inkscape:window-height="1017"
   id="namedview37"
   showgrid="false"
   inkscape:zoom="1.0358581"
   inkscape:cx="-5.0637904"
   inkscape:cy="286.80782"
   inkscape:window-x="-8"
   inkscape:window-y="-8"
   inkscape:window-maximized="1"
   inkscape:current-layer="svg2"
   showborder="true"
   fit-margin-top="10"
   fit-margin-left="10"
   fit-margin-right="10"
   fit-margin-bottom="10"
   borderlayer="false"
   inkscape:showpageshadow="false"
   inkscape:snap-to-guides="false"
   inkscape:snap-grids="false"
   showguides="false" />























utf-8<defs
   id="defs4">
  <style
     type="text/css"
     id="style6">path { fill-rule: evenodd; }utf-8utf-8</style>
</defs>























utf-8<metadata
   id="metadata8">
utf-8utf-8<views>
utf-8utf-8utf-8<view
   h="1585.21431143"
   padding="0"
   w="1000">
utf-8utf-8utf-8utf-8<proj
   flip="auto"
   id="robinson"
   lon0="-80.0286400104" />























utf-8utf-8utf-8utf-8<bbox
   h="307.01"
   w="193.79"
   x="-1203.32"
   y="0.49" />























utf-8utf-8utf-8</view>























utf-8utf-8</views>























utf-8<rdf:rdf>
  <cc:work
     rdf:about="">
    <dc:format>image/svg+xml</dc:format>
    <dc:type
       rdf:resource="http://purl.org/dc/dcmitype/StillImage" />
  </cc:work>
</rdf:rdf>
<rdf:rdf>
  <cc:work
     rdf:about="">
    <dc:format>image/svg+xml</dc:format>
    <dc:type
       rdf:resource="http://purl.org/dc/dcmitype/StillImage" />
    <dc:title />
  </cc:work>
</rdf:rdf>
<rdf:RDF>
  <cc:Work
     rdf:about="">
    <dc:format>image/svg+xml</dc:format>
    <dc:type
       rdf:resource="http://purl.org/dc/dcmitype/StillImage" />
    <dc:title />
  </cc:Work>
</rdf:RDF>
</metadata>























utf-8<path
   inkscape:label=""
   inkscape:connector-curvature="0"
   style="fill:#ffffff;fill-opacity:1;stroke:#808080;stroke-width:0.49999988;stroke-miterlimit:4;stroke-dasharray:none;stroke-opacity:1"
   id="UGEL_DE_CALCA"
   d="m 217.10718,256.88445 c -1.23558,-1.87422 -1.5576,-2.1406 -4.37473,-3.61979 l -3.04094,-1.59648 -0.5789,0.79539 -0.57885,0.79555 -2.13651,-1.28658 c -2.12308,-1.27842 -2.13642,-1.29497 -2.13642,-2.63246 0,-1.47635 0.072,-1.45446 -2.57371,-0.7899 l -0.80327,0.20189 0,-2.13106 c 0,-1.90891 -0.084,-2.20852 -0.80928,-2.87585 -0.44504,-0.40974 -1.07291,-1.33212 -1.39531,-2.04979 -0.32245,-0.71771 -1.31904,-2.16982 -2.21465,-3.22678 -1.32315,-1.56129 -1.66923,-2.20976 -1.84557,-3.45816 -0.11819,-0.84507 -0.35965,-2.38966 -0.53381,-3.43251 l -0.3169,-1.89606 -1.70727,-0.69359 c -0.93896,-0.38159 -2.41026,-0.85203 -3.26948,-1.04562 l -1.56218,-0.35234 -0.58407,-2.44794 c -0.51552,-2.16029 -0.71769,-2.54861 -1.71999,-3.30315 l -1.13584,-0.85521 0.76826,-2.72177 c 0.74401,-2.63592 0.75108,-2.74778 0.22402,-3.5527 -0.30995,-0.47347 -1.32368,-1.17597 -2.3564,-1.63274 -1.33967,-0.59278 -1.76229,-0.92281 -1.61989,-1.26524 0.46529,-1.11882 0.39983,-1.45011 -0.50159,-2.53739 -0.94335,-1.13823 -0.9826,-1.15251 -3.18562,-1.15251 l -2.23048,0 -2.19296,-4.83997 c -2.1218,-4.68342 -2.20928,-4.97241 -2.70189,-8.93432 l -0.50927,-4.09454 1.38887,-1.43695 c 0.76391,-0.7904 1.54781,-1.74826 1.74213,-2.12851 0.34817,-0.68122 0.44068,-0.69139 6.34706,-0.69139 l 5.99375,0 1.18832,-0.95579 c 1.07589,-0.86548 1.30962,-1.33775 2.47139,-4.99368 1.32002,-4.15379 2.25862,-6.34242 2.71999,-6.34242 0.14506,0 0.43509,0.20714 0.64537,0.46093 0.25847,0.3122 0.95304,0.46098 2.14928,0.46098 l 1.76705,0 0.51307,2.04453 c 0.38375,1.52846 0.82743,2.40059 1.75973,3.45696 1.64925,1.86891 1.79295,2.32843 1.79295,5.7349 l 0,2.89941 1.15119,0.004 c 1.06198,0 1.21682,0.12311 1.99551,1.53651 0.46419,0.84269 1.01685,1.54144 1.22795,1.553 0.2111,0.004 0.91627,1.10853 1.56696,2.4377 1.09158,2.22984 1.14745,2.46777 0.72238,3.07549 -0.41646,0.59511 -0.3864,0.9444 0.31308,3.63135 0.72542,2.78679 0.87722,3.07559 2.42438,4.61221 1.40607,1.39638 1.65058,1.80845 1.65058,2.78097 0,1.12462 -0.0372,1.15997 -2.50025,2.35563 -2.12025,1.02933 -2.6605,1.4544 -3.55432,2.79762 l -1.05398,1.58359 2.32621,3.48472 2.3263,3.48464 0,5.00245 0,5.0026 1.228,2.4447 c 0.82438,1.64113 1.22804,2.85122 1.22804,3.68086 l 0,1.23611 1.45831,0.006 1.4582,0.006 2.50936,3.17026 2.50931,3.17038 -1.2046,1.17732 c -0.66243,0.64771 -1.2045,1.29493 -1.2045,1.43854 0,0.1433 0.41038,0.40398 0.91207,0.57905 0.72204,0.25173 0.95294,0.55298 1.10796,1.44361 0.10795,0.61903 0.44572,2.43926 0.75125,4.04481 l 0.55546,2.91943 -0.71332,0.7322 -0.71338,0.73223 -1.33381,-2.02323 z" />
<path
   inkscape:label=""
   inkscape:connector-curvature="0"
   style="fill:#ffffff;fill-opacity:1;stroke:#808080;stroke-width:0.49999988;stroke-miterlimit:4;stroke-dasharray:none;stroke-opacity:1"
   id="EDUCACION_URUBAMBA"
   d="m 191.55093,254.12137 c -2.21071,-1.08769 -2.31855,-1.1911 -2.70412,-2.59253 -0.22126,-0.8028 -0.49714,-1.45802 -0.61392,-1.45609 -0.11698,0 -0.93514,0.19641 -1.81845,0.43178 l -1.60598,0.42766 -1.38446,-1.05791 c -1.3235,-1.01143 -1.57161,-1.45923 -1.76471,-3.18536 -0.0783,-0.69647 -0.31546,-0.81772 -2.54192,-1.29574 -1.35076,-0.29017 -3.5612,-0.61338 -4.91204,-0.71816 -2.39189,-0.18551 -2.48543,-0.2229 -3.58277,-1.4442 l -1.1269,-1.25368 -1.42416,0.54462 -1.42434,0.54432 0.21417,2.50278 c 0.21116,2.47246 0.20627,2.49632 -0.38961,1.96505 -0.43484,-0.38762 -1.12711,-0.53773 -2.47729,-0.53773 -1.6036,0 -1.90199,0.0898 -2.06853,0.61397 -0.10718,0.33772 -0.4963,0.68022 -0.86498,0.76124 -1.5045,0.33094 -5.53514,0.77199 -5.68491,0.62218 -0.35954,-0.3601 -0.94074,-5.10263 -0.96035,-7.83604 -0.008,-2.77361 -0.11117,-3.16514 -1.82324,-7.83623 -1.2274,-3.34818 -1.69108,-4.97778 -1.45362,-5.10769 0.1918,-0.10448 1.03957,-0.35255 1.88381,-0.54993 1.25201,-0.29252 1.95948,-0.26983 3.83754,0.12375 2.29341,0.48079 2.31365,0.49384 5.13305,3.30021 l 2.83071,2.81772 4.01776,-0.48206 c 3.65765,-0.43886 4.09845,-0.55949 4.91736,-1.34475 0.49475,-0.47441 0.9838,-1.31228 1.0869,-1.86202 l 0.18738,-0.99948 1.91424,1.05329 c 1.05296,0.57929 2.28275,1.05329 2.73302,1.05329 0.7791,0 0.81882,-0.0745 0.81882,-1.55338 l 0,-1.5534 1.40792,0.0938 c 1.34194,0.0893 1.45716,0.17324 2.45345,1.7839 0.57496,0.9295 1.21216,2.39407 1.41608,3.25441 l 0.37065,1.56467 1.70427,0.35711 c 0.93734,0.19657 2.40579,0.68508 3.2631,1.0857 l 1.55914,0.72872 0.54133,2.57392 c 0.29759,1.41546 0.74427,3.49535 0.99237,4.62176 l 0.4511,2.04821 1.51638,0.36415 1.51636,0.36394 0.003,1.42922 c 0.004,1.30946 0.10685,1.50025 1.2095,2.28066 l 1.20302,0.85176 -0.47349,1.60663 c -0.26092,0.88368 -0.49843,1.63416 -0.52873,1.66781 -0.0306,0.0332 -0.64983,-0.0906 -1.3767,-0.27462 -1.08742,-0.27632 -1.50911,-0.24643 -2.37976,0.16938 -0.58203,0.27795 -1.15717,0.49642 -1.27811,0.48547 -0.12088,-0.004 -1.25601,-0.52936 -2.52229,-1.15232 l 0,0 z" />
<path
   inkscape:label=""
   inkscape:connector-curvature="0"
   style="fill:#ffffff;fill-opacity:1;stroke:#808080;stroke-width:0.49999988;stroke-miterlimit:4;stroke-dasharray:none;stroke-opacity:1"
   id="EDUCACION_CHUMBIVILCAS"
   d="m 190.713,376.23815 c -2.07819,-2.29184 -2.11399,-2.41142 -1.34047,-4.47163 0.27709,-0.73831 -2.31141,-1.65158 -4.64658,-1.6392 -1.66407,0.004 -2.33945,0.22844 -3.57714,1.1662 -1.02621,0.77717 -1.97959,1.15671 -2.91274,1.15923 -0.76294,0 -2.31458,0.43602 -3.44819,0.96407 -1.92695,0.89798 -2.27902,0.93831 -5.4225,0.61946 -3.03343,-0.30787 -3.44825,-0.44941 -4.2483,-1.45005 -0.48766,-0.61004 -0.88743,-1.2403 -0.88849,-1.40062 0,-0.16045 -0.49143,-0.29162 -1.08973,-0.29162 -0.9054,0 -1.23082,-0.2949 -1.94193,-1.75982 -1.05838,-2.18066 -1.05786,-2.2119 0.0655,-3.98268 0.89118,-1.40463 0.9077,-1.57566 0.53455,-5.53131 -0.34178,-3.62504 -0.51275,-4.24415 -1.52688,-5.52984 l -1.14199,-1.44786 1.287,-1.12527 c 3.48029,-3.04271 3.69928,-3.17084 5.42101,-3.17359 1.46638,0 1.80895,-0.17026 2.57249,-1.26354 1.87593,-2.68556 1.82915,-2.6517 3.07094,-2.21828 1.03523,0.36122 1.40912,0.22657 3.77501,-1.36168 1.44433,-0.96948 2.84659,-1.76265 3.11633,-1.76265 0.27533,0 0.69252,-0.90451 0.95152,-2.06266 0.41609,-1.86102 0.72575,-2.28721 3.16886,-4.361 2.13143,-1.80954 2.70765,-2.5251 2.70765,-3.36171 0,-0.89746 0.22699,-1.12632 1.4563,-1.46815 0.80114,-0.22247 1.66613,-0.4057 1.92244,-0.407 0.256,0 1.25996,-1.11618 2.2307,-2.47782 1.64786,-2.31167 1.73606,-2.5585 1.33087,-3.72205 -0.39956,-1.14733 -0.33757,-1.3464 0.77913,-2.49958 l 1.21322,-1.25274 -8.5e-4,-7.75654 0,-7.75664 2.53413,0.13075 c 2.48891,0.12888 2.54413,0.15464 3.10654,1.50215 0.31482,0.75436 1.09867,1.97127 1.74186,2.70445 0.64302,0.73339 1.66704,2.33156 2.27559,3.5517 1.00217,2.00961 1.07809,2.438 0.80658,4.55103 -0.55996,4.3579 -0.51952,4.53877 1.51978,6.81805 l 1.8851,2.10683 2.87254,-0.50566 c 1.57988,-0.27797 3.43717,-0.60284 4.12734,-0.72171 1.19329,-0.20582 1.29367,-0.1254 2.04898,1.63845 0.72889,1.70222 0.74324,1.91089 0.17462,2.53927 -0.52272,0.57793 -0.53991,0.81168 -0.11036,1.4993 0.44308,0.7103 0.88437,0.81485 3.4396,0.81485 l 2.93128,0 0.65361,-3.11204 c 0.60314,-2.87177 0.60596,-3.3237 0.0362,-5.84978 -0.33975,-1.50569 -0.51726,-2.83806 -0.39449,-2.96107 0.12285,-0.1231 2.19704,0.55767 4.60965,1.51204 l 4.38668,1.73506 1.26221,2.45448 c 1.47157,2.86152 1.67338,4.46057 0.51677,4.0931 -0.9261,-0.29427 -1.09031,0.17753 -1.77781,5.10436 -0.286,2.04811 -0.69693,3.90152 -0.91378,4.11856 -0.26643,0.26676 -0.12075,0.76502 0.45128,1.53895 l 0.84534,1.14448 -1.35713,1.12095 c -0.74646,0.61674 -1.85347,1.3309 -2.4601,1.58713 -1.02528,0.43327 -1.08593,0.57888 -0.8624,2.07059 0.23867,1.59394 0.22793,1.61078 -1.51864,2.46036 l -1.75913,0.85544 0,2.10911 0,2.10893 -1.51764,0.25668 c -2.00677,0.33948 -2.63385,0.86248 -3.26914,2.72734 -0.46667,1.37008 -0.68976,1.56875 -1.87567,1.67125 l -1.34606,0.11613 0.167,2.31357 0.16751,2.31328 -1.21184,0 c -1.08744,0 -1.21176,0.12028 -1.21176,1.16627 0,1.0461 -0.12449,1.16635 -1.20934,1.16635 -0.66521,0 -1.90868,-0.39354 -2.76347,-0.8743 l -1.55411,-0.87429 -1.22289,1.41631 c -1.20069,1.39026 -2.5769,4.53105 -2.57315,5.87194 0.004,1.35757 -0.80816,0.62733 -2.00571,-1.80348 l -1.22358,-2.48351 0.83888,-1.06773 c 0.46139,-0.58702 0.83879,-1.22398 0.83879,-1.41562 0,-0.86521 -5.47732,-4.98942 -6.62676,-4.98942 -0.39766,0 -1.43036,1.04676 -2.46601,2.49944 l -1.78174,2.49924 0,3.64941 c 0,2.00692 0.17843,4.61714 0.39727,5.80033 0.33396,1.80874 0.28775,2.39513 -0.291,3.68456 l -0.68855,1.53359 -2.05933,-2.27111 z" />
<path
   inkscape:label="UGEL CUSCO"
   inkscape:connector-curvature="0"
   style="fill:#ffffff;fill-opacity:1;stroke:#808080;stroke-width:0.49999988;stroke-miterlimit:4;stroke-dasharray:none;stroke-opacity:1"
   id="UGEL_CUSCO"
   d="m 191.18595,272.57606 c -0.9595,-0.51122 -2.20056,-1.36684 -2.75787,-1.90142 -0.94383,-0.90503 -0.98618,-1.09046 -0.61728,-2.7037 0.41138,-1.79952 0.72461,-1.98153 2.34769,-1.3638 0.75695,0.28815 1.48615,0.13968 3.3424,-0.6802 2.18037,-0.96305 2.41461,-1.18709 2.86812,-2.74158 0.4037,-1.38409 0.97277,-2.06432 3.11928,-3.72896 2.55902,-1.98441 2.66406,-2.02558 4.15077,-1.62839 1.20116,0.32104 1.5254,0.59316 1.5254,1.28065 0,0.65959 0.59265,1.22049 2.42683,2.29646 2.35103,1.37935 2.4863,1.40999 4.33032,0.984 1.04678,-0.24161 1.96653,-0.37658 2.04366,-0.29947 0.20062,0.20083 -0.89907,8.42047 -1.16143,8.68307 -0.2058,0.20626 -1.92434,-0.32183 -4.84794,-1.48838 -1.19677,-0.47745 -1.33433,-0.44992 -1.97252,0.39734 -0.65407,0.86781 -0.87064,0.90396 -4.63666,0.77458 -2.8567,-0.0971 -3.95046,-0.004 -3.95021,0.3238 5.7e-4,0.57576 -1.76264,1.82401 -3.30079,2.3371 -0.96198,0.32088 -1.46931,0.22684 -2.90977,-0.54116 l 0,0 z" />
<path
   inkscape:label=""
   inkscape:connector-curvature="0"
   id="EDUCACION_PARURO"
   d="m 137.54792,258.75999 6.81787,-2.3203 0.68177,-0.95551 2.99988,0 0,-1.0918 2.18176,-1.36498 1.22714,-2.45686 0.81817,3.68534 2.04539,-0.1363 5.99964,-0.95545 2.04539,-1.36473 2.86352,1.77424 1.36357,0.27298 0.68176,-0.54593 -1.36354,-2.45682 0.40908,-3.13922 2.18164,0.81888 3.68172,1.63799 3.68164,0 2.18168,0.68235 1.0909,2.86649 3.6816,2.18378 2.59082,0.1363 2.31803,3.0028 3.81797,1.6378 3.54537,-0.5459 -0.95453,1.63798 -3.40895,3.27578 -2.1816,2.04715 -1.90908,0.40953 -3.13631,-0.27316 -0.81799,1.5014 -0.13619,3.13925 2.45442,3.00278 4.90886,1.50128 3.27257,-1.63792 2.04536,-1.63788 3.95437,0.273 3.13621,-0.95536 1.22719,-0.68251 5.31789,2.32035 0,2.59337 1.77266,3.13916 1.22722,-0.27299 0.13617,1.2286 -1.7726,5.59599 0.27255,3.27571 0.40915,0.95562 0.27259,3.68507 0.68179,2.04738 0.95455,0.27299 0.54541,1.22828 1.77259,3.00277 1.77272,1.9109 1.0908,2.32025 0.4091,4.64074 c 0,0 0.54542,1.77446 0.95449,2.59321 0.40904,0.81904 1.22728,2.5934 1.22728,2.5934 l 0.40907,2.04749 0.68176,3.54868 -0.40907,3.82165 -0.40916,1.63782 -1.77266,0.40951 -1.77257,0.13621 -1.90902,-0.40932 0,-0.81907 0.68178,-1.36489 -0.68178,-2.59327 -1.09086,-1.50142 -1.49988,-0.2732 -1.7727,0.54593 -3.81792,0.95547 -1.09093,0 -1.49992,-1.63784 -1.63631,-1.77446 -0.40905,-1.36467 0.54549,-4.64088 -0.54549,-3.00275 -1.36355,-2.86628 -3.27249,-3.95817 -1.36366,-1.77446 -1.90903,0 -1.77258,-0.40935 -1.49996,0.27318 -0.13618,-1.77447 -0.9544,-2.45678 -4.90888,-9.55428 -1.49992,-0.81884 -0.4091,-1.22846 -2.45442,-0.95544 -0.81817,-1.36479 -1.77261,-1.09207 -3.95439,-2.7298 -2.59076,1.09203 -6.54508,-3.13927 -2.18183,-2.7299 -5.45422,-2.32015 -4.63619,-2.04741 -3.95438,-0.54608 -4.63612,-1.77439 -1.63625,-1.6378 -6.27243,-3.82167 z"
   style="fill:#ffffff;fill-opacity:1;fill-rule:evenodd;stroke:#808080;stroke-width:0.49999988;stroke-linecap:butt;stroke-linejoin:miter;stroke-miterlimit:4;stroke-dasharray:none;stroke-opacity:1" />
<path
   inkscape:label=""
   inkscape:connector-curvature="0"
   id="EDUCACION_QUISPICANCHI"
   d="m 222.8984,313.5615 6.66028,2.13836 0.75404,-3.14467 2.89027,-1.76098 2.38762,0.62897 1.75928,1.38356 0.87969,0.88039 1.88506,0.50325 1.25661,-2.13827 0.25116,-1.2579 -0.25116,-1.00648 -1.885,-2.38971 -2.01069,-2.01279 -1.50794,-1.76093 -1.00533,-1.38379 2.01068,-2.76714 3.64426,-1.25785 1.00527,0 1.75937,-0.37747 0.1263,-2.39002 1.2567,-0.629 2.13626,1.13219 1.25671,0.37735 2.13625,0 1.25668,-0.50307 1.00535,-1.50955 1.00526,-2.64164 0.754,-2.64148 2.01076,0.37737 2.51324,0.50313 -1.00531,-2.13835 1.63359,-2.01259 1.00533,-0.25119 1.3824,0.62885 1.38227,-1.63519 2.51332,-1.88668 3.64439,1.25775 1.38225,-1.63522 2.26201,0 5.78051,2.89316 3.51865,2.51569 1.50808,1.00626 1.13093,-3.0189 1.63369,0 0.62825,2.13838 2.51346,-1.761 2.13607,3.01893 4.90113,0.37731 3.26726,0.37752 1.0053,-0.25143 -2.26191,-4.52849 -0.50272,-3.27062 1.25677,-1.88664 0.3769,-2.76726 1.885,-1.25793 2.01076,1.00639 5.52923,-4.77989 4.3982,-1.88696 -0.12567,-2.76722 3.14168,-2.76746 3.14161,-4.0251 0.75391,-0.75479 -0.62833,-2.13847 1.50798,-5.40878 2.76476,-0.2515 1.50799,-0.50332 0.62819,-2.89284 2.01068,-0.88062 -0.62822,-1.76104 -3.39302,-0.88055 -0.754,-1.38363 2.01072,-2.89319 1.00524,-1.50939 -1.50813,-1.00617 -2.63887,-1.25788 -3.51872,-0.88066 -5.65486,-1.50936 -2.51334,-2.13841 -3.51861,-1.63532 -3.39279,0.12616 -6.28339,1.13211 -2.51322,-0.37733 -3.51883,-2.01246 -5.52921,0.25124 -4.14706,3.64803 -3.39284,5.66028 -1.13105,3.52189 -2.01067,2.01273 -2.51326,0.1263 -1.50799,1.50948 -4.77532,4.78014 -1.88494,4.27673 0.62831,5.15724 -1.00532,3.52216 -2.26198,2.26414 -3.77001,-1.50943 -4.52391,-3.14481 -3.64428,-0.88059 -2.26199,-0.37721 -2.13633,2.89305 -2.26195,2.13823 -4.02131,-2.64145 -2.51332,-1.63514 -0.50262,1.13197 0,4.15116 0.50262,4.4024 -2.5133,1.25805 -3.01596,-1.88688 -1.88505,-1.38358 -1.63363,1.25772 -0.25122,3.0189 -1.88489,1.1322 -0.87964,1.00624 -3.5187,-3.77369 -1.13098,-2.38984 -0.754,-0.37743 -1.25663,1.63538 -1.75932,-3.01902 -1.38231,-1.00623 -1.63369,-1.50943 -0.87961,0.50301 0.50261,3.01894 -0.50261,1.76097 -1.13104,1.13229 0.50265,1.50941 -0.25114,2.64152 0.62831,1.50939 1.50799,1.63509 1.00534,1.88691 -0.12591,1.88687 -1.88504,3.89935 0.12591,2.64153 0.62838,0.88051 0.75391,4.65412 0.50272,1.38374 1.13101,0.62906 -0.12627,1.00621 2.01065,2.38983 1.88499,2.76751 1.13097,2.13846 -0.12629,3.52197 z"
   style="fill:#ffffff;fill-opacity:1;fill-rule:evenodd;stroke:#808080;stroke-width:0.49999988;stroke-linecap:butt;stroke-linejoin:miter;stroke-miterlimit:4;stroke-dasharray:none;stroke-opacity:1" />
<path
   inkscape:label=""
   inkscape:connector-curvature="0"
   id="EDUCACION_CUSCO"
   d="m 77.51394,216.90511 -3.698826,-0.15469 1.232909,-4.47356 -1.387053,-0.61719 -2.003576,-3.23956 -3.852953,-2.62249 -1.695294,-2.00547 0,-1.69699 -1.849405,-1.38849 -1.695268,-4.01094 -4.161193,-5.39939 -2.465937,-2.15966 -2.465856,0 -2.311794,-2.93121 -1.541178,-2.15958 -0.924709,-3.54823 -1.232918,-1.2341 -1.849428,-1.08 c 0,0 -1.54113,-4.78224 -1.54113,-5.55347 0,-0.77161 -0.462408,-2.62259 -0.462408,-2.62259 l -6.318823,-6.01647 0.154152,-4.47368 3.0824,-3.23984 1.695312,0.9257 4.777613,0 3.390597,-1.07984 4.93176,1.85114 5.240082,3.23988 2.311764,5.39914 1.695303,0.46274 0.154066,3.39397 0.616355,2.77688 -1.232909,0.92559 -1.078848,0.15453 -2.157644,2.31392 -1.387062,-0.30852 -0.924667,-0.46273 -0.154059,1.85116 1.69526,1.85105 2.928247,0.15469 -1.07885,2.77677 0.616518,2.77679 0.308119,1.69714 2.928302,1.38826 1.541153,2.46813 -0.462378,0.77139 2.157671,1.85134 -0.308088,2.62259 2.928209,1.85105 -0.154061,3.08538 -1.387082,1.07998 0.462422,1.54252 2.465872,1.38844 2.774104,0 0,1.54269 0.154053,1.69702 0.770605,1.85122 0.770629,1.23406 1.078845,2.62268 2.619932,0.15406 z"
   style="fill:#ffffff;fill-opacity:1;fill-rule:evenodd;stroke:#808080;stroke-width:0.49999988;stroke-linecap:butt;stroke-linejoin:miter;stroke-miterlimit:4;stroke-dasharray:none;stroke-opacity:1" />
<path
   inkscape:label=""
   inkscape:connector-curvature="0"
   id="EDUCACION_LA_CONVENCION"
   d="m 80.230574,217.89014 4.315323,-5.55373 -2.157567,-2.1596 -3.390668,-5.86221 -0.308175,-3.08544 -3.39058,-0.92547 0.308121,-4.93669 -2.465828,-1.85123 -1.232935,-3.39399 -1.541183,-2.1594 0.308073,-1.8514 -1.849405,-1.23404 -2.465907,-1.85133 -0.308071,-4.62801 0,-2.46824 -3.390674,0 3.698893,-2.77684 2.157642,-5.24508 2.774129,-4.011 0,-4.93663 3.082359,-1.23401 3.698816,-0.9257 3.0824,-4.01101 1.541154,-3.70228 4.62356,-2.46835 3.082338,0 -0.924713,-4.01106 -2.157625,-1.85122 -1.23297,-7.09628 -2.157657,-0.9256 -0.616473,-2.46805 -0.61646,-0.30873 -1.232968,-5.55361 -2.465849,-4.62821 -2.157694,-0.92533 -4.315318,-1.54276 -1.849328,-5.24534 -1.849465,-3.08522 0.616458,-6.47923 4.931794,-4.93659 4.007071,-2.159532 3.082331,-2.468631 -0.616454,-4.319369 11.096531,-10.181639 23.426,-3.702401 3.39049,-2.776735 2.46592,7.404836 3.39063,3.702424 8.32242,1.542612 5.85645,-2.159856 5.85652,4.628227 4.00694,1.542532 3.69892,1.234179 6.47299,-4.010905 7.08941,-2.776789 6.47301,-3.702424 4.31531,-0.617089 2.46586,4.628145 -6.16474,4.010862 -0.92471,4.627995 -2.15764,6.170748 -1.8494,3.39383 -0.61641,6.17069 -1.23304,2.15975 -3.39058,3.3938 -1.23295,2.46845 2.46588,4.31943 3.39069,2.15962 0.308,5.86225 -0.9247,4.01093 4.62352,2.15983 1.23298,3.70248 0.92462,2.46827 8.0142,0.30854 5.54828,0.6171 0,3.39397 -0.61646,5.86205 3.69885,3.70238 8.01412,2.777 -0.92477,4.31948 -4.007,5.245 -3.69886,4.62803 -2.15763,3.394 -3.69887,10.79871 -2.77418,2.15973 -5.85643,0.61709 -4.62352,-0.61709 -4.62355,5.24515 0,5.24506 0.61645,4.01087 4.0071,6.78785 1.8494,2.15981 3.6988,1.54267 1.54119,0.9255 3.69884,4.011 0.92475,3.08539 -0.92475,2.46831 -3.39058,0.3086 -0.9247,2.77666 c 0,0 -0.61649,-2.15965 -1.84943,-2.46833 -1.233,-0.30818 -1.54125,-0.30818 -1.54125,-0.30818 l -3.08227,4.01095 -2.46594,0.92535 -5.85652,-0.92535 -3.69881,-4.01095 -5.24,-0.92584 -3.39057,-0.61688 -2.46598,0.30847 -0.30801,4.31955 2.77409,5.55349 -0.30812,5.24515 1.54113,2.46812 c 0,0 -0.30811,2.16004 -1.23283,3.39418 -0.92473,1.23411 -1.84946,2.46839 -1.84946,2.46839 l -8.63063,2.15957 -1.84938,1.85126 -2.1577,0 -2.77415,0 -2.77416,-2.15983 -3.0823,0 -2.15767,-2.15965 -6.47293,1.23414 -2.15768,2.15962 -2.15758,-0.92554 -4.62361,4.0109 -2.77409,-2.77678 -3.08234,1.23427 -1.54125,-2.46839 -4.623546,-0.30857 c 0,0 -4.623537,-5.24501 -5.54821,-6.47922 -0.924702,-1.23435 -2.465889,-3.08534 -2.465889,-3.08534 l -3.698835,-5.86228 -1.232936,-3.70249 -0.616563,-2.15962 -2.774129,-3.3939 -1.232884,-1.54284 z"
   style="fill:#ffffff;fill-opacity:1;fill-rule:evenodd;stroke:#808080;stroke-width:0.49999988;stroke-linecap:butt;stroke-linejoin:miter;stroke-miterlimit:4;stroke-dasharray:none;stroke-opacity:1" />
<path
   style="fill:#ffffff;fill-opacity:1;fill-rule:evenodd;stroke:#808080;stroke-width:0.49999988;stroke-linecap:butt;stroke-linejoin:miter;stroke-miterlimit:4;stroke-dasharray:none;stroke-opacity:1"
   d="m 212.84159,369.78556 2.38887,6.29943 1.41162,2.71524 3.04042,2.38946 2.93177,1.62917 1.52018,2.38937 -0.97722,4.01863 -3.14902,1.95503 -2.60603,1.52051 -0.21706,1.73781 3.25761,1.19466 4.0177,-0.32583 4.66909,0.97756 1.73737,0.76027 2.28032,2.9325 1.73738,0.76021 2.17166,-2.60659 1.30305,-2.49812 2.49749,-0.97748 3.47465,0.4345 0.65158,-1.41201 -0.65158,-2.38943 -1.08581,-1.41193 -0.21681,-1.30333 1.41162,-0.65166 2.17169,-0.10905 1.73738,0 2.93178,4.01865 3.69188,3.69273 3.25757,2.06357 2.28028,0.2169 1.62876,-2.06358 3.25755,-1.8464 2.06318,1.52054 2.28027,1.955 2.38894,1.84636 -1.52027,1.73782 -1.52018,2.17225 1.62874,2.17216 -1.30296,1.84641 -1.62879,2.49806 1.52018,2.06355 1.5202,2.38945 0.10918,4.23582 -0.76009,3.1497 0.65153,2.49803 3.25755,-0.10905 1.73737,1.19474 4.01763,-1.95501 2.60601,-4.77882 1.95451,-2.28089 1.95461,-2.28083 0.76005,-1.3033 -1.41159,-1.95499 -0.32579,-1.5206 0.32579,-3.04107 -0.10916,-6.19082 -0.65158,-2.06359 -1.08581,-0.97751 -0.10873,-20.85323 1.19444,-2.38944 0.32573,-3.14973 -1.52017,-2.28081 -1.73737,0.97753 -2.60609,0.43442 -1.52016,-2.1722 -1.19444,-1.73777 -0.65149,-1.62919 -1.19448,-1.30331 -0.32575,-1.41193 -2.17171,-1.19467 -1.1944,1.95493 -1.73737,1.19473 -2.82322,-0.9775 -1.41164,1.4119 -1.62877,-1.19464 -1.19449,1.19464 -3.04032,-3.36693 -2.71464,0.3259 -1.84596,-1.30334 -1.6288,-0.21703 -0.43425,1.84635 -2.60616,-1.73778 -2.17166,-0.65165 -0.10917,-1.0861 -0.86874,-0.10917 -3.04035,-0.54304 -0.76011,-1.73776 0.21685,-1.30338 -2.60604,0.54309 -3.8005,-1.08609 -1.73733,-0.97747 -2.71462,-0.54308 0.10839,3.14974 -3.58323,0.76028 -1.3031,2.93245 -2.71457,0.9775 0.6515,2.93252 -1.52022,2.06357 -1.08589,0 -0.32568,1.08613 -0.86874,1.30328 -1.84596,-0.43442 -1.52015,-0.65167 -2.06315,-0.65165 -0.76012,0.10917 z"
   id="EDUCACION_ESPINAR"
   inkscape:connector-curvature="0"
   inkscape:label="" />
<path
   style="fill:#ffffff;fill-opacity:1;fill-rule:evenodd;stroke:#808080;stroke-width:0.49999988;stroke-linecap:butt;stroke-linejoin:miter;stroke-miterlimit:4;stroke-dasharray:none;stroke-opacity:1"
   d="m 230.82969,347.91823 2.06314,-1.08613 1.73735,-1.73778 -0.3258,-2.06364 2.17172,-1.62908 1.62881,-1.30335 0.65146,-0.97749 0.10905,-0.97753 -1.19437,-1.0861 -0.10917,-1.41195 0.7601,-2.49803 0.54292,-2.28081 0.54296,-2.60666 1.19445,-0.86888 -0.10917,-2.93246 -1.41165,-2.71532 -0.76011,-1.52048 -1.19438,-1.30336 -1.95459,-0.54306 -0.4343,-0.32585 0.65151,-1.52057 0.10917,-1.08611 1.62877,-0.9775 0.86873,-0.43439 2.49745,1.52053 1.9545,1.08607 2.28033,1.19473 1.08583,-1.73777 0.10906,-0.43437 1.19444,-2.60662 -0.32575,-1.84643 -1.84599,-2.17227 -2.28025,-2.38939 -0.97724,-1.30333 -0.97728,-0.97747 0.65148,-1.41197 1.30304,-0.65168 2.28025,-0.76026 2.93185,-0.54308 1.19438,-0.21684 -0.32573,-1.52049 0,-0.86895 1.6288,0.54305 3.04039,0.65173 3.36608,-0.76033 1.0859,-1.95497 1.30302,-2.8239 0.43431,-1.62912 2.82323,0.86885 2.28031,0.10929 -0.21684,-1.08612 -0.76009,-1.62912 -0.4343,-0.76023 1.30295,-1.08611 1.62877,0.86886 1.08587,-1.41197 1.52025,-1.30328 1.1944,-0.8689 2.28029,0.54303 1.5202,0.8689 1.4116,-1.7377 1.84588,-0.10918 4.45209,2.0636 2.2803,1.30332 2.38882,1.84638 1.41165,1.08609 0.86871,0.32584 0.97724,-1.955 0.54294,-1.52048 2.28025,1.95497 0.54293,2.49801 -0.65157,0.32583 2.49755,1.84639 2.71458,3.80139 -2.06314,2.2808 -0.97717,1.95499 -0.65158,2.28085 -0.32572,1.84633 -0.10917,1.95502 2.606,2.28083 1.30308,1.52057 -0.65161,2.93247 -4.12615,3.47558 -1.95451,1.41193 -0.43441,3.14974 0.76011,2.28073 -1.08584,3.80138 -1.30299,2.82395 -4.45202,3.04107 -0.76015,1.84633 0.10906,4.12724 -0.54286,3.36689 0.32576,4.45308 -1.30303,2.71529 -2.06314,1.52056 -2.60605,1.84632 -2.06315,0.86895 -2.60601,0.54306 -2.60605,-1.41201 -1.84593,2.60666 -1.62879,0.54306 -2.17173,-0.54306 -1.08583,0.76027 -2.06308,-0.65161 -0.76019,0.21686 -2.06305,-2.38947 -3.0404,0.21687 -1.6288,-1.19472 -3.14895,-0.43445 -0.6515,0.97747 -2.60611,-1.19475 -0.65149,-1.73768 -3.36612,0.10917 -0.21708,-2.28082 -0.76009,-1.08608 -4.01767,0.65166 -2.28027,-0.97746 -1.52021,-0.86895 z"
   id="EDUCACION_CANCHIS"
   inkscape:connector-curvature="0"
   inkscape:label="" />
<path
   inkscape:label=""
   inkscape:connector-curvature="0"
   style="fill:#ffffff;fill-opacity:1;stroke:#808080;stroke-width:0.49999988;stroke-miterlimit:4;stroke-dasharray:none;stroke-opacity:1"
   id="EDUCACION_PAUCARTAMBO"
   d="m 223.9083,269.38414 c -0.45767,-0.54464 -1.05717,-1.47796 -1.33209,-2.07433 -0.27511,-0.59654 -0.73934,-1.29191 -1.03226,-1.54543 -0.40415,-0.34959 -0.61012,-1.30709 -0.85506,-3.97217 -0.29076,-3.16587 -0.63942,-5.33829 -1.10041,-6.8597 -0.11452,-0.37625 0.0744,-0.6279 0.62651,-0.83809 l 0.78942,-0.30051 -1.26886,-2.56082 c -1.16459,-2.35068 -1.40415,-2.63161 -2.91781,-3.42497 -1.56195,-0.81877 -1.64893,-0.92718 -1.64893,-2.05577 0,-1.04944 -0.0872,-1.19169 -0.72914,-1.19169 -0.40098,0 -1.16089,-0.0874 -1.6885,-0.19204 -0.86267,-0.17304 -0.9594,-0.30451 -0.95963,-1.30579 -8e-5,-0.61274 -0.40015,-1.96032 -0.88899,-2.99446 -0.83288,-1.76242 -0.90292,-2.21353 -1.11533,-7.18974 l -0.22683,-5.30934 -1.92038,-2.8752 -1.92055,-2.87504 0.43079,-1.45908 c 0.42358,-1.43417 0.4708,-1.4747 2.80591,-2.41473 2.36182,-0.95073 2.3791,-0.96573 3.08558,-2.71845 l 0.71043,-1.76236 -1.8379,-1.66486 c -1.64108,-1.4866 -1.92522,-1.92734 -2.6533,-4.11566 -0.78351,-2.35517 -0.79743,-2.51208 -0.35604,-4.01932 l 0.45936,-1.56856 -1.20417,-1.86498 c -0.66235,-1.02568 -1.16898,-1.89521 -1.12602,-1.93207 0.043,-0.0373 1.42456,-0.16563 3.07009,-0.28605 3.33292,-0.24384 3.12534,-0.36821 3.45101,2.06604 0.1952,1.45557 0.19837,1.45982 1.3806,1.45982 1.08971,0 1.21486,0.0894 1.55178,1.11124 0.36226,1.09861 0.38249,1.10964 1.80822,0.97235 0.79319,-0.0763 2.43497,-0.59678 3.64851,-1.15658 2.17831,-1.005 2.20658,-1.03318 2.20658,-2.19937 l 0,-1.18143 3.72849,-1.8708 3.7286,-1.87106 1.33314,0.50961 c 0.73316,0.28049 1.62544,0.92082 1.98278,1.42299 0.35733,0.50244 1.37868,1.32506 2.26972,1.82857 1.18627,0.6702 1.66496,1.13991 1.78783,1.75488 0.0922,0.46196 0.66142,1.48691 1.26463,2.27764 1.04477,1.36965 1.09686,1.55358 1.09686,3.87363 l 0,2.43577 2.16632,0.9695 c 1.26683,0.56697 2.95565,1.0488 4.06773,1.16036 1.88135,0.18759 1.9334,0.22036 4.91251,2.95636 l 3.01103,2.766 4.08967,-0.21224 4.08967,-0.21209 0.15706,4.85495 0.15706,4.85496 1.86802,5.64397 c 1.02736,3.10431 2.02665,5.83547 2.22041,6.06929 0.19363,0.23363 0.83483,0.42501 1.42437,0.42501 0.58956,0 1.57422,0.27993 2.18817,0.62204 l 1.11633,0.62187 -2.2608,2.36628 c -1.24349,1.30137 -2.90124,3.11649 -3.68407,4.03331 l -1.4231,1.6674 -0.10176,5.25504 -0.10196,5.25501 -1.26038,1.29969 -1.26044,1.29949 -0.93991,-0.61549 c -4.87415,-3.19205 -8.15642,-4.57073 -12.05217,-5.06225 l -1.59504,-0.20109 -1.23651,2.46181 c -0.68009,1.35381 -1.38256,2.55192 -1.56098,2.6622 -0.45311,0.28048 -2.5528,-1.02476 -4.91107,-3.05272 l -1.99544,-1.71591 -0.99074,1.15477 c -0.54481,0.63515 -0.93456,1.36243 -0.86597,1.61583 0.0686,0.25405 0.28744,1.95931 0.486,3.79065 l 0.36138,3.32908 -0.85753,0.89616 c -0.47171,0.49266 -0.95877,0.89595 -1.08252,0.89595 -0.12336,0 -0.45594,-0.69648 -0.73846,-1.54775 l -0.51352,-1.5475 -2.81135,0.0875 -2.81144,0.0877 -0.0916,1.93023 c -0.084,1.77889 -0.18134,2.01296 -1.22807,2.98774 -0.62499,0.5819 -1.22767,1.06147 -1.33935,1.06609 -0.11163,0.004 -0.57738,-0.43709 -1.03509,-0.98161 l 0,0 z" />
</svg>
