<?xml version="1.0" encoding="UTF-8" standalone="no"?>
<!--?xml version="1.0" encoding="UTF-8" standalone="no"?-->

<!--?xml version="1.0" encoding="UTF-8" standalone="no"?-->

<!--
************* Copyright (c) 2015 Pareto Softare, LLC DBA Simplemaps.com *******************		
************* Free for Commercial Use, full terms at  http://simplemaps.com/resources/svg-license ************
************* Attribution is appreciated! http://simplemaps.com ***************************
-->

<svg
   xmlns:dc="http://purl.org/dc/elements/1.1/"
   xmlns:cc="http://creativecommons.org/ns#"
   xmlns:rdf="http://www.w3.org/1999/02/22-rdf-syntax-ns#"
   xmlns:svg="http://www.w3.org/2000/svg"
   xmlns="http://www.w3.org/2000/svg"
   xmlns:sodipodi="http://sodipodi.sourceforge.net/DTD/sodipodi-0.dtd"
   xmlns:inkscape="http://www.inkscape.org/namespaces/inkscape"
   enable_background="new 0 0 1000 1585"
   height="549.01257"
   pretty_print="True"
   style="fill:none;stroke:#000000;stroke-linejoin:round"
   version="1.1"
   viewBox="0 0 354.46857 549.01257"
   width="354.46857"
   id="svg2"
   inkscape:version="0.91 r13725"
   sodipodi:docname="Huancavelica.svg"><sodipodi:namedview
   pagecolor="#ffffff"
   bordercolor="#666666"
   borderopacity="0.05098039"
   objecttolerance="10"
   gridtolerance="10"
   guidetolerance="10"
   inkscape:pageopacity="0"
   inkscape:pageshadow="2"
   inkscape:window-width="1920"
   inkscape:window-height="1017"
   id="namedview37"
   showgrid="false"
   inkscape:zoom="1.13"
   inkscape:cx="131.06103"
   inkscape:cy="239.11246"
   inkscape:window-x="-8"
   inkscape:window-y="-8"
   inkscape:window-maximized="1"
   inkscape:current-layer="svg2"
   showborder="true"
   fit-margin-top="10"
   fit-margin-left="10"
   fit-margin-right="10"
   fit-margin-bottom="10"
   borderlayer="false"
   inkscape:showpageshadow="false"
   inkscape:snap-to-guides="false"
   inkscape:snap-grids="false"
   showguides="true" />























utf-8<defs
   id="defs4">
  <style
     type="text/css"
     id="style6">path { fill-rule: evenodd; }utf-8utf-8</style>
</defs>























utf-8<metadata
   id="metadata8">
utf-8utf-8<views>
utf-8utf-8utf-8<view
   h="1585.21431143"
   padding="0"
   w="1000">
utf-8utf-8utf-8utf-8<proj
   flip="auto"
   id="robinson"
   lon0="-80.0286400104" />























utf-8utf-8utf-8utf-8<bbox
   h="307.01"
   w="193.79"
   x="-1203.32"
   y="0.49" />























utf-8utf-8utf-8</view>























utf-8utf-8</views>























utf-8<rdf:rdf>
  <cc:work
     rdf:about="">
    <dc:format>image/svg+xml</dc:format>
    <dc:type
       rdf:resource="http://purl.org/dc/dcmitype/StillImage" />
  </cc:work>
</rdf:rdf>
<rdf:rdf>
  <cc:work
     rdf:about="">
    <dc:format>image/svg+xml</dc:format>
    <dc:type
       rdf:resource="http://purl.org/dc/dcmitype/StillImage" />
    <dc:title />
  </cc:work>
</rdf:rdf>
<rdf:RDF>
  <cc:Work
     rdf:about="">
    <dc:format>image/svg+xml</dc:format>
    <dc:type
       rdf:resource="http://purl.org/dc/dcmitype/StillImage" />
    <dc:title />
  </cc:Work>
</rdf:RDF>
</metadata>























utf-8<path
   style="fill:#ffffff;fill-opacity:1;fill-rule:evenodd;stroke:#808080;stroke-width:0.49999997;stroke-linecap:butt;stroke-linejoin:miter;stroke-miterlimit:4;stroke-dasharray:none;stroke-opacity:1"
   d="m 187.0718,118.60826 -0.2433,-4.62025 0,-3.40436 3.90228,-5.34968 1.70755,-6.07934 2.92672,-4.62007 5.12182,-4.13397 0,-5.836007 -1.95107,-7.051916 6.58514,0.972719 2.68302,2.188514 2.92662,0.485443 4.14643,-1.945259 1.95113,-0.972659 8.04872,4.37707 3.17071,0 2.43887,4.376976 5.60976,0.485473 6.09748,-0.972629 0.97569,-1.21591 -1.7075,-2.431628 1.46349,-4.133878 0.73158,-1.945395 -1.9511,-4.620201 1.46353,0.242824 1.95109,4.863266 2.43895,1.702191 1.46335,2.917981 1.46348,2.918129 0.48695,2.431613 1.4635,0.729499 3.4146,0 3.65844,-3.404303 1.70734,-1.21588 0,3.161185 0.48794,4.133812 2.43903,3.64748 -0.24354,1.70227 -7.07299,4.37698 -2.19511,2.43171 0.73176,3.40438 1.70718,-0.24281 2.68289,-0.72941 4.39017,-3.64761 4.39031,-3.1612 1.21954,-1.70225 6.09739,-0.24259 2.43904,1.45899 2.6828,2.43175 2.68284,3.40433 -3.17069,3.89072 -0.24327,4.13389 0.24327,4.37698 -3.17055,-0.97275 -4.63412,1.70222 1.46336,5.34961 2.19519,5.83617 2.195,4.13386 -3.17075,1.70226 -10.4876,5.10638 -5.12193,5.59294 0.24324,-4.62023 -5.85346,-4.62018 -6.34141,-3.16117 -3.65852,0 -6.34135,4.37698 -3.90228,5.10663 -3.1708,1.70206 -3.17065,-1.21585 -6.58517,1.70225 -2.19512,-2.18846 -9.02428,-3.8908 -2.68294,-9.96982 -2.68298,-0.97269 -1.21938,-3.64747 -9.75598,-4.13383 z"
   id="UGEL_TAYACAJA"
   inkscape:connector-curvature="0"
   inkscape:label="UGEL_TAYACAJA" />
<path
   inkscape:label="UGEL HUANCAVELICA"
   inkscape:connector-curvature="0"
   style="fill:#ffffff;fill-opacity:1;stroke:#808080;stroke-width:0.49999997;stroke-miterlimit:4;stroke-dasharray:none;stroke-opacity:1"
   id="UGEL_HUANCAVELICA"
   d="m 218.20726,255.93951 c -3.99047,-1.04457 -4.25353,-1.25521 -4.72904,-3.78496 -0.35885,-1.90972 -1.50541,-3.57642 -3.99601,-5.81052 l -3.49231,-3.13268 -0.31767,-12.71345 c -0.34194,-13.65993 -1.36559,-18.25602 -4.05662,-18.21909 -0.73146,0.004 -4.31768,0.77592 -7.9698,1.70288 l -6.64003,1.68434 -1.1582,3.12799 -1.15816,3.12822 -7.6075,-8.32962 c -4.18415,-4.58146 -7.86706,-8.42901 -8.1845,-8.55082 -0.31735,-0.11972 -1.52401,1.12727 -2.68155,2.77355 -1.62552,2.31251 -2.52982,2.95533 -3.97436,2.82373 -1.10513,-0.10151 -2.94511,0.64772 -4.49918,1.83044 -1.446,1.09999 -2.80388,2.00073 -3.01715,2.00073 -0.21455,0 -0.79042,-2.07187 -1.28214,-4.60367 -0.64606,-3.32667 -1.49932,-5.23428 -3.07671,-6.877 -1.91151,-1.99109 -2.08758,-2.52285 -1.41684,-4.28334 0.42107,-1.10525 0.76589,-2.1142 0.76589,-2.24133 0,-0.12672 -1.51925,-1.47424 -3.37629,-2.99228 -2.96797,-2.4267 -3.59272,-2.66169 -5.16777,-1.94596 -1.56782,0.71281 -1.79142,0.63294 -1.79142,-0.64281 0,-1.25944 -0.50533,-1.45754 -3.72067,-1.45754 -2.31848,0 -4.86173,0.58073 -6.74814,1.54117 l -3.02746,1.54083 0.43633,-1.6668 c 0.33639,-1.28474 -0.41628,-2.64987 -3.28802,-5.95663 -3.6564,-4.21143 -3.71556,-4.35657 -3.2281,-7.8934 0.39999,-2.89916 0.18711,-4.20823 -1.08911,-6.70421 -0.87224,-1.7057 -1.4555,-3.23167 -1.29609,-3.39064 0.16025,-0.15988 1.30163,-0.49145 2.53813,-0.73765 1.82319,-0.36459 2.59788,-0.0713 4.09837,1.54233 1.01759,1.09512 2.27601,3.27801 2.79627,4.8508 0.93185,2.81667 0.99127,2.85348 3.96865,2.43997 4.68381,-0.65098 4.77731,-0.7339 5.30242,-4.6826 l 0.49359,-3.71732 3.22704,0 3.22703,0 0.005,-3.13038 c 0.004,-3.0641 0.19746,-3.27795 8.1206,-10.03355 6.72507,-5.73424 8.09574,-7.25189 8.09574,-8.96396 0,-1.94782 0.28154,-2.12538 5.12892,-3.22543 2.82091,-0.64013 6.28275,-1.16378 7.69309,-1.16378 2.90763,0 2.98342,-0.1814 3.85567,-9.20748 0.27417,-2.8355 0.86928,-5.39987 1.3231,-5.69711 1.49958,-0.98381 2.67023,-0.58495 2.67023,0.90937 0,1.27559 0.49218,1.4733 3.66534,1.4733 2.9871,0 3.8215,-0.29057 4.50895,-1.57288 0.46461,-0.86491 1.05698,-1.2457 1.31786,-0.84688 0.26159,0.39892 1.83395,0.90276 3.49605,1.11914 1.66203,0.21657 4.56892,1.07566 6.4598,1.91012 2.98492,1.3172 3.43796,1.80739 3.43796,3.71716 0,1.71873 0.36217,2.25163 1.65574,2.43527 1.37916,0.19599 1.81872,0.99218 2.6323,4.76711 0.928,4.30613 1.17721,4.66441 5.01652,7.20803 2.22206,1.47171 4.30968,2.51007 4.63913,2.30693 0.32933,-0.20127 1.0374,0.44779 1.57328,1.44686 1.17977,2.19987 1.47159,2.21795 5.20584,0.3166 2.61917,-1.33294 3.11476,-1.38133 4.47011,-0.43467 1.35992,0.95059 1.80929,0.89707 4.1759,-0.49542 1.45875,-0.8586 4.7815,-3.54875 7.38391,-5.97765 l 4.73192,-4.41648 5.28116,1.8566 c 4.81303,1.69265 5.4317,2.14694 6.97861,5.12314 1.61323,3.10356 1.72853,5.04374 0.49056,8.23789 -0.37964,0.97779 -0.12546,1.28898 1.05543,1.28898 0.98639,0 1.55872,0.47182 1.56383,1.2891 0,0.70876 0.20223,2.46642 0.44137,3.9053 0.41279,2.48117 0.30126,2.65703 -2.14743,3.40671 -2.27274,0.69585 -2.78869,0.5942 -4.31772,-0.8497 -1.64053,-1.54912 -1.92312,-1.58426 -5.10611,-0.64039 l -3.3693,0.99964 0.95207,6.92831 c 0.93434,6.79814 0.91288,7.06538 -1.13997,14.17554 -1.1509,3.98546 -2.32922,7.79599 -2.61924,8.46797 -0.42745,0.9898 0.24151,1.44424 3.52903,2.39767 3.17179,0.92005 4.39006,1.71637 5.59004,3.65333 0.84371,1.36221 1.53427,3.18376 1.53427,4.0472 0,1.35505 -0.42793,1.57094 -3.11767,1.57094 -2.82791,0 -3.54063,0.41772 -7.66721,4.49832 l -4.54927,4.49866 -3.93697,-0.8426 c -3.72756,-0.79729 -4.00664,-0.75279 -5.24037,0.84165 -1.9656,2.54068 -2.21968,3.90247 -1.33738,7.17219 0.72865,2.69949 1.03023,2.98261 3.17592,2.9842 l 2.371,8.5e-4 -4.27414,3.86547 -4.27403,3.86624 -0.45656,12.70551 c -0.25103,6.98846 -0.65298,12.6734 -0.8938,12.63325 -0.2407,-0.008 -2.33893,-0.57073 -4.66305,-1.17953 l 0,-2.5e-4 z" />
<path
   inkscape:label="UGEL CHURCAMPA"
   inkscape:connector-curvature="0"
   style="fill:#ffffff;fill-opacity:1;stroke:#808080;stroke-width:0.49999997;stroke-miterlimit:4;stroke-dasharray:none;stroke-opacity:1"
   id="UGEL_CHURCAMPA"
   d="m 317.66982,196.4308 c -3.19718,-2.20698 -4.35146,-2.54847 -10.15572,-3.00094 -6.2789,-0.49038 -6.68557,-0.63176 -9.88535,-3.44207 -1.83516,-1.61212 -4.38873,-4.46954 -5.67397,-6.34978 -1.28522,-1.88043 -6.88196,-7.8937 -12.4369,-13.36294 -10.60488,-10.44088 -14.7174,-15.44341 -14.7174,-17.90279 0,-1.75746 4.52989,-6.21429 9.9992,-9.83768 3.64578,-2.41493 4.21848,-2.57122 7.67488,-2.09726 4.65795,0.63885 4.93832,-0.50322 1.15152,-4.68488 -2.24036,-2.47414 -2.58398,-3.35202 -2.58398,-6.60563 0,-2.99816 -0.29629,-3.91003 -1.47652,-4.54019 -2.12156,-1.13292 -1.97167,-3.19681 0.18431,-2.53858 2.45865,0.75071 2.99639,1.15313 5.8534,4.38036 3.09182,3.49254 4.29755,5.63283 4.29755,7.62872 0,2.25798 4.34363,3.43354 8.67028,2.34675 2.53979,-0.63825 4.27236,-0.64492 6.85909,-0.006 l 3.46135,0.82817 0.49601,5.94446 c 0.34971,4.1806 0.91835,6.47834 1.91673,7.74465 1.10124,1.397 1.23959,2.08805 0.61701,3.08285 -0.67108,1.07199 -0.12867,1.91631 3.30753,5.15986 3.67489,3.46735 4.22712,4.39056 5.21652,8.71838 1.08598,4.75005 1.07278,4.90684 -0.71379,8.42436 -1.76417,3.47331 -1.77956,3.63814 -0.5064,5.33124 1.70166,2.26327 5.48583,4.84706 7.09858,4.84706 1.963,0 2.91232,3.35569 1.64251,5.80549 -1.25402,2.41906 -5.1723,6.73413 -6.06307,6.67645 -0.34412,-0.004 -2.24987,-1.16151 -4.23396,-2.5308 z" />
<path
   inkscape:label="UGEL ACOBAMBA"
   inkscape:connector-curvature="0"
   style="fill:#ffffff;fill-opacity:1;stroke:#808080;stroke-width:0.49999997;stroke-miterlimit:4;stroke-dasharray:none;stroke-opacity:1"
   id="UGEL_ACOBAMBA"
   d="m 300.60975,218.66465 c -1.19838,-1.69024 -2.6819,-2.93106 -3.50457,-2.93106 -0.78444,0 -2.75026,-1.193 -4.36843,-2.65174 -2.84905,-2.56841 -3.07636,-2.63748 -7.20007,-2.19177 -2.34199,0.25265 -4.62519,0.20136 -5.07393,-0.1095 -0.44776,-0.31339 -1.22911,-2.31062 -1.73466,-4.43756 -0.981,-4.12927 -1.22744,-4.27643 -5.20607,-3.11285 -2.44574,0.71549 -2.69864,0.61392 -4.89399,-1.96089 l -2.31523,-2.71479 -3.35324,1.9606 c -1.84447,1.07883 -3.62645,1.95057 -3.96022,1.93809 -0.33296,-0.004 -1.72519,-1.50418 -3.0923,-3.31479 -2.11117,-2.79574 -2.87375,-3.29171 -5.06325,-3.29171 -2.3411,0 -2.5375,-0.16135 -2.13987,-1.74062 1.07327,-4.26698 1.90897,-12.44157 1.92244,-18.80847 l 0.004,-6.92207 6.21781,0.47791 6.21824,0.47809 0.88461,-2.76202 c 0.48606,-1.51956 1.10114,-3.00166 1.3656,-3.29458 0.26396,-0.29318 1.96855,1.94655 3.78675,4.97564 2.66337,4.43787 4.19508,6.09161 7.88423,8.5144 4.69615,3.08304 8.71217,7.14199 12.11541,12.24451 1.06072,1.59047 3.45785,4.14243 5.32682,5.66976 3.16807,2.59101 3.81135,2.80702 9.51405,3.1956 5.08051,0.34709 6.87623,0.83378 10.6071,2.87855 2.46992,1.35374 4.66842,2.28464 4.88531,2.0678 0.21675,-0.21658 0.628,1.97005 0.91294,4.85898 0.2865,2.88887 0.41326,5.34819 0.28153,5.4653 -0.61618,0.55507 -16.89267,8.48185 -17.38852,8.46823 -0.31095,0 -1.50085,-1.33463 -2.64392,-2.94652 l 0,0 z" />
<path
   inkscape:label=""
   inkscape:connector-curvature="0"
   style="fill:#ffffff;fill-opacity:1;stroke:#808080;stroke-width:0.49999997;stroke-miterlimit:4;stroke-dasharray:none;stroke-opacity:1"
   id="EDUCACION_UGEL_ANGARAES"
   d="m 258.80734,274.61275 c 0.004,-1.72187 0.29023,-5.57716 0.5915,-8.56747 l 0.54473,-5.43691 -4.83607,-2.17289 c -4.23352,-1.90198 -5.15811,-2.07405 -7.41994,-1.38151 -2.3714,0.72613 -2.88451,0.58317 -6.23553,-1.73786 l -3.65132,-2.52911 -1.77204,1.76816 c -1.49082,1.48766 -7.29518,3.50665 -8.17399,2.84335 -0.14709,-0.111 -0.006,-4.6117 0.25519,-10.00122 l 0.52526,-9.79812 6.38864,-6.05973 6.38869,-6.05997 -4.61403,-0.004 -4.61411,-0.004 0,-2.93187 c 0,-2.5355 0.25577,-2.99684 1.89878,-3.4081 1.50972,-0.37783 2.41493,0.004 4.41854,1.96157 1.38579,1.33981 2.62734,2.29353 2.75863,2.11856 0.1319,-0.17277 2.47797,-3.21599 5.21497,-6.75794 l 4.97576,-6.44033 2.38202,0.99337 c 2.35846,0.98307 2.42984,0.95022 7.16206,-3.3033 l 4.78001,-4.2962 0.84651,1.99927 c 0.71819,1.69579 0.5763,2.53258 -0.93512,5.50784 l -1.78214,3.5084 2.93072,0 c 2.75906,0 3.03355,-0.2054 4.67983,-3.49855 0.96173,-1.92437 2.12622,-3.49912 2.58784,-3.49912 0.46086,0 2.13775,2.14338 3.72512,4.76242 3.79194,6.25695 4.67817,6.77913 7.29948,4.299 l 2.05693,-1.94641 3.69124,2.48075 c 2.03029,1.36386 5.30257,4.11703 7.27198,6.11807 l 3.58026,3.63763 7.4933,-2.90886 c 4.12149,-1.60002 8.40706,-3.77874 9.52374,-4.84133 1.98985,-1.89424 2.03014,-1.90089 2.03014,-0.32084 0,0.88577 0.31768,1.61083 0.70728,1.61083 1.93005,0 8.86267,16.52662 7.50199,17.88437 -0.4472,0.44639 -2.03503,-0.53895 -4.34889,-2.69826 -3.40616,-3.17872 -3.90472,-3.40042 -7.62813,-3.39144 l -3.98411,0.004 -3.13736,5.40452 c -2.83368,4.8811 -3.13749,5.87929 -3.13749,10.30316 0,4.40702 0.14767,4.89814 1.47636,4.89814 2.18599,0 1.79154,1.97122 -0.5091,2.5477 -1.09255,0.27385 -3.21659,1.46943 -4.72036,2.65756 -2.69892,2.13289 -2.85436,2.16064 -12.10032,2.16064 l -9.36658,0 -6.55555,6.5408 c -6.87367,6.85841 -12.58314,11.13757 -14.86064,11.13757 -1.10323,0 -1.34154,-0.5725 -1.30428,-3.13088 l 0,0 z" />
<path
   inkscape:label="UGEL CASTROVIRREYNA"
   inkscape:connector-curvature="0"
   style="fill:#ffffff;fill-opacity:1;stroke:#808080;stroke-width:0.49999997;stroke-miterlimit:4;stroke-dasharray:none;stroke-opacity:1"
   id="UGEL_CASTROVIRREYNA"
   d="m 131.28774,309.20053 c 0.25924,-2.57013 0.77153,-5.46471 1.14052,-6.43288 0.53537,-1.40479 0.21564,-2.49139 -1.58015,-5.37376 -1.23807,-1.98716 -2.4343,-4.97587 -2.65817,-6.64128 -0.34058,-2.53373 -0.67959,-3.02859 -2.07577,-3.02859 -0.93834,0 -3.28796,1.45261 -5.36867,3.31955 l -3.70058,3.31921 -5.28683,-1.10979 c -2.90768,-0.61005 -5.40805,-1.10944 -5.55634,-1.10944 -0.14828,0 -0.37645,0.70426 -0.5048,1.56454 -0.17996,1.18792 -1.44297,2.00916 -5.24033,3.40627 l -5.004167,1.84127 -4.520377,-2.40406 c -3.925845,-2.08739 -4.86952,-2.31522 -7.176799,-1.7333 -1.979284,0.49946 -3.153001,0.39434 -4.602928,-0.41546 l -1.946338,-1.08571 1.47655,-4.095 c 1.453735,-4.0311 1.56755,-4.13669 7.295203,-6.79075 4.414682,-2.04556 6.00393,-3.18286 6.587367,-4.71386 0.423163,-1.10977 1.151442,-7.26246 1.61926,-13.67292 l 0.850314,-11.65498 -1.798851,-1.91066 -1.798798,-1.91058 1.937822,-3.4406 c 2.043236,-3.62849 2.864402,-3.93268 7.656542,-2.83558 l 2.21476,0.50691 3.60113,-8.979 3.60112,-8.97891 -2.61559,-5.27383 -2.61539,-5.27393 1.85823,-4.09777 c 1.59134,-3.50957 2.20692,-4.1631 4.2888,-4.55276 1.33705,-0.25059 3.67433,-1.44094 5.19411,-2.64575 1.51987,-1.2054 3.39921,-2.19106 4.17654,-2.19106 0.90678,0 1.69022,-0.79191 2.18541,-2.2097 0.58112,-1.66317 1.23024,-2.20986 2.62287,-2.20986 1.01804,0 3.47458,-0.81392 5.45911,-1.80806 l 3.60822,-1.8085 0.45564,1.8085 c 0.39579,1.57457 0.87141,1.80806 3.67793,1.80806 2.77255,0 3.36827,0.28242 4.26071,2.026 0.57046,1.11355 1.27463,3.1852 1.56483,4.60337 0.28942,1.41833 1.30241,3.73816 2.24934,5.15614 0.94705,1.41776 1.94855,4.14144 2.22547,6.05281 0.56714,3.90994 1.16694,4.59541 4.5883,5.2418 2.18297,0.4133 2.39927,0.28965 2.39927,-1.36926 0,-1.71219 0.24126,-1.82298 3.94431,-1.82298 3.75176,0 4.01204,-0.12694 5.33798,-2.58278 0.76686,-1.42056 1.61065,-2.4977 1.87506,-2.39387 0.26369,0.10193 3.88644,3.91787 8.04892,8.47562 4.16245,4.55751 7.79489,8.28609 8.07202,8.28609 0.2764,0 1.23469,-1.7595 2.12796,-3.90949 1.59485,-3.83933 1.71595,-3.93976 6.64805,-5.5249 2.76301,-0.88775 5.46177,-1.61402 5.99739,-1.61402 2.50465,0 2.93444,2.36302 2.95851,16.26426 l 0.004,13.68558 3.38757,2.42721 c 3.84684,2.75682 4.14517,2.09531 -3.64387,8.07484 -4.52842,3.47616 -5.32201,3.83025 -7.61944,3.40017 -1.4106,-0.26346 -3.02291,-0.65499 -3.58276,-0.86992 -0.65555,-0.2511 -1.41207,0.55224 -2.12457,2.25329 -1.0401,2.48371 -1.30895,2.6427 -4.46652,2.6427 l -3.35962,0 0,4.57838 c 0,4.4339 -0.1055,4.68363 -3.30854,7.92957 -2.58775,2.62111 -3.46124,4.15539 -4.0101,7.04264 -0.38591,2.03038 -1.5806,5.71324 -2.65488,8.18489 l -1.95319,4.49325 -2.71115,-0.62834 c -5.13937,-1.19195 -5.69494,-0.95554 -8.3837,3.57117 l -2.51558,4.23526 -7.70249,0.46891 -7.70245,0.46839 -3.94759,4.31981 -3.94769,4.31981 0.46943,-4.67233 0,0 z" />
<path
   inkscape:label="UGEL HUAYTARA"
   inkscape:connector-curvature="0"
   style="fill:#ffffff;fill-opacity:1;stroke:#808080;stroke-width:0.49999997;stroke-miterlimit:4;stroke-dasharray:none;stroke-opacity:1"
   id="UGEL_HUAYTARA"
   d="m 200.66613,414.85927 c -0.004,-2.24293 -0.17405,-2.39403 -2.59837,-2.39403 -2.4421,0 -2.63647,-0.18554 -3.47542,-3.31449 -0.64902,-2.42154 -1.2582,-3.31466 -2.26035,-3.31466 -1.83065,0 -4.15666,1.24317 -6.62735,3.54249 l -2.0302,1.88903 -2.07063,-1.97924 c -1.71146,-1.63601 -2.74498,-1.97918 -5.95908,-1.97918 l -3.88857,0 0.50749,-4.05109 c 0.39752,-3.17966 0.29055,-4.05127 -0.50174,-4.05127 -1.05408,1.9e-4 -11.2623,1.88411 -14.21347,2.62295 -1.4355,0.35936 -2.08904,-0.16701 -4.10451,-3.29923 -1.31816,-2.04976 -5.39875,-6.38208 -9.06795,-9.62789 -6.16217,-5.45043 -6.91612,-5.90078 -9.8797,-5.90078 -4.51327,0 -15.78922,-4.32531 -15.78922,-6.05606 0,-0.96062 0.58295,-1.30987 2.1864,-1.30987 1.95397,0 2.27168,-0.33177 2.98937,-3.13075 0.44313,-1.72167 0.94991,-3.56351 1.12906,-4.09344 0.18016,-0.53009 -0.35914,-2.30487 -1.19834,-3.94499 l -1.52454,-2.98136 2.97369,-6.18315 c 2.29502,-4.77226 3.31849,-6.18364 4.48418,-6.18364 1.37412,0 1.51062,-0.45408 1.51062,-5.01797 0,-4.61454 -0.17833,-5.1888 -2.21484,-7.13538 -2.84171,-2.71635 -2.78702,-3.67144 0.36966,-6.45942 2.26342,-1.99944 2.58388,-2.71294 2.58388,-5.75135 0,-3.40446 0.0654,-3.50247 3.5067,-5.20528 2.6808,-1.32657 3.55949,-2.19092 3.7316,-3.67113 0.18619,-1.60033 0.69766,-2.01372 2.9529,-2.38586 1.50041,-0.2481 4.25977,-0.45401 6.13193,-0.45841 1.87215,0 4.99604,-0.22605 6.94211,-0.49193 3.47535,-0.47692 3.57294,-0.56153 5.44985,-4.79832 1.17239,-2.64669 2.2665,-4.17805 2.83048,-3.96231 0.50547,0.19189 2.58412,0.57251 4.61868,0.84178 l 3.69892,0.48996 2.64347,-5.78777 c 2.1333,-4.67043 2.52343,-6.20508 2.0214,-7.95174 -0.56887,-1.98033 -0.29083,-2.47617 3.26375,-5.83079 l 3.88608,-3.66698 0,-4.68083 0,-4.68079 3.08988,0 c 2.0546,0 3.60703,-0.48399 4.63283,-1.44636 0.84838,-0.79499 3.69351,-1.98527 6.32265,-2.64454 3.9851,-0.99862 5.42523,-1.82659 8.65799,-4.97589 l 3.87773,-3.77771 1.1989,1.70777 c 0.65915,0.93966 3.52889,2.82177 6.37693,4.1837 l 5.17833,2.47617 3.35343,-2.94534 3.35354,-2.94543 6.32447,0.44499 c 6.36427,0.44688 11.30531,1.23258 16.53849,2.62896 l 2.83138,0.75512 -0.40694,3.45362 c -0.22555,1.89932 -0.61455,5.82092 -0.86855,8.71463 l -0.46074,5.26089 2.56445,0.84457 c 1.41061,0.46407 2.97401,0.7487 3.47448,0.63185 0.90168,-0.21246 3.57276,5.67595 2.88643,6.36104 -0.19668,0.19425 -1.67344,0.561 -3.28228,0.81239 -2.808,0.43777 -2.9988,0.33493 -4.76076,-2.54474 -2.39038,-3.90785 -4.77763,-4.02268 -8.77199,-0.42272 -2.7613,2.48882 -3.06214,2.57797 -8.70432,2.57797 l -5.84447,0 -3.41878,3.49891 c -3.22323,3.29856 -3.46695,3.83559 -4.26227,9.39154 -0.46312,3.2407 -1.0043,6.44985 -1.20122,7.13107 -0.24978,0.86438 0.41202,1.60253 2.18803,2.44354 2.95898,1.4013 9.78163,7.24079 14.63083,12.52288 4.14868,4.51874 5.03866,8.0213 5.03866,19.83411 0,7.83628 0.10109,8.41193 1.66084,9.44645 l 1.66107,1.10185 -1.91227,5.8279 -1.91197,5.82754 1.83714,3.28857 1.83717,3.28812 -2.26501,3.6834 -2.26536,3.68255 0.65614,12.89024 c 0.36032,7.09005 0.9987,14.04825 1.41734,15.4634 0.41846,1.41558 0.76121,2.65835 0.76121,2.76232 0,0.10538 -1.30989,0.18932 -2.91129,0.18932 -2.13473,0 -3.20528,-0.41902 -4.0141,-1.57136 -0.93614,-1.33376 -1.64072,-1.5192 -4.65607,-1.22659 -1.95396,0.18932 -5.35123,1.20547 -7.54902,2.25797 l -3.99619,1.91295 -4.28809,-2.15969 c -3.39151,-1.70811 -5.25732,-2.15855 -8.92321,-2.15449 l -4.63532,0 -2.01854,3.12535 -2.01828,3.12513 -0.004,-2.39412 0,2.7e-4 z" />
<path
   style="fill:#ffffff;fill-opacity:1;fill-rule:evenodd;stroke:#808080;stroke-width:0.49999997;stroke-linecap:butt;stroke-linejoin:miter;stroke-miterlimit:4;stroke-dasharray:none;stroke-opacity:1"
   d="m 198.77897,67.769264 -1.21955,-11.428786 6.82915,-7.295047 3.90236,1.702049 7.07318,0.729544 8.04861,2.918179 9.75598,6.322268 6.82916,-1.215791 12.68268,-2.674834 4.63395,1.702112 13.65845,-12.15827 9.99999,1.458888 17.31678,6.808758 8.53649,10.942527 6.82922,5.106461 3.41449,7.051887 -4.87807,2.918102 -0.24357,9.726669 -4.63393,8.51088 -4.8779,1.94544 -3.6587,-6.07916 -8.29251,3.8906 -4.87796,-1.70216 -5.36583,-4.37708 -2.43908,-3.40438 -5.6095,0.72945 -3.65854,0 -4.39018,4.62029 -5.12181,4.377 -2.68293,-0.72955 -1.2196,0 4.39037,-3.64745 5.3656,-3.16125 0.2433,-2.91788 -1.95114,-2.918105 -0.73171,-5.106491 0.24325,-5.106506 -3.90241,2.674834 -2.68289,2.431672 -4.1463,0.729452 0,-1.702221 -2.19499,-2.43164 0,-1.945334 -2.1951,-2.674865 -1.70749,-1.945413 -1.70728,-1.215791 -0.24304,-2.674755 -1.70723,-1.215882 -1.21966,0.242835 -0.73164,1.702192 2.19511,4.133862 -0.97558,3.161234 -1.46339,1.459026 1.21948,3.890671 -3.65852,0.972766 -2.92667,-0.485626 -1.95134,0 -2.43888,-1.459031 -0.73164,-2.43158 -0.73171,-1.215913 -3.1708,0.242576 -2.9267,-0.972721 -4.14632,-1.459029 -1.21949,-1.215821 -3.41453,0 -0.97557,1.215821 -1.46349,0.972707 -2.43879,0 -3.17097,-2.674881 -3.65839,0 -2.92671,0.242775 z"
   id="UGEL_SURCUBAMBA"
   inkscape:connector-curvature="0"
   inkscape:label="UGEL_SURCUBAMBA" />
</svg>
