<?xml version="1.0" encoding="UTF-8" standalone="no"?>
<!--?xml version="1.0" encoding="UTF-8" standalone="no"?-->

<!--?xml version="1.0" encoding="UTF-8" standalone="no"?-->

<!--
************* Copyright (c) 2015 Pareto Softare, LLC DBA Simplemaps.com *******************		
************* Free for Commercial Use, full terms at  http://simplemaps.com/resources/svg-license ************
************* Attribution is appreciated! http://simplemaps.com ***************************
-->

<svg
   xmlns:dc="http://purl.org/dc/elements/1.1/"
   xmlns:cc="http://creativecommons.org/ns#"
   xmlns:rdf="http://www.w3.org/1999/02/22-rdf-syntax-ns#"
   xmlns:svg="http://www.w3.org/2000/svg"
   xmlns="http://www.w3.org/2000/svg"
   xmlns:sodipodi="http://sodipodi.sourceforge.net/DTD/sodipodi-0.dtd"
   xmlns:inkscape="http://www.inkscape.org/namespaces/inkscape"
   enable_background="new 0 0 1000 1585"
   height="549.01257"
   pretty_print="True"
   style="fill:none;stroke:#000000;stroke-linejoin:round"
   version="1.1"
   viewBox="0 0 354.46857 549.01257"
   width="354.46857"
   id="svg2"
   inkscape:version="0.91 r13725"
   sodipodi:docname="Huanuco.svg"><sodipodi:namedview
   pagecolor="#ffffff"
   bordercolor="#666666"
   borderopacity="0.05098039"
   objecttolerance="10"
   gridtolerance="10"
   guidetolerance="10"
   inkscape:pageopacity="0"
   inkscape:pageshadow="2"
   inkscape:window-width="1920"
   inkscape:window-height="1017"
   id="namedview37"
   showgrid="false"
   inkscape:zoom="1.1885482"
   inkscape:cx="13.984894"
   inkscape:cy="268.92348"
   inkscape:window-x="-8"
   inkscape:window-y="-8"
   inkscape:window-maximized="1"
   inkscape:current-layer="svg2"
   showborder="true"
   fit-margin-top="10"
   fit-margin-left="10"
   fit-margin-right="10"
   fit-margin-bottom="10"
   borderlayer="false"
   inkscape:showpageshadow="false"
   inkscape:snap-to-guides="false"
   inkscape:snap-grids="false"
   showguides="false" />























utf-8<defs
   id="defs4">
  <style
     type="text/css"
     id="style6">path { fill-rule: evenodd; }utf-8utf-8</style>
</defs>























utf-8<metadata
   id="metadata8">
utf-8utf-8<views>
utf-8utf-8utf-8<view
   h="1585.21431143"
   padding="0"
   w="1000">
utf-8utf-8utf-8utf-8<proj
   flip="auto"
   id="robinson"
   lon0="-80.0286400104" />























utf-8utf-8utf-8utf-8<bbox
   h="307.01"
   w="193.79"
   x="-1203.32"
   y="0.49" />























utf-8utf-8utf-8</view>























utf-8utf-8</views>























utf-8<rdf:rdf>
  <cc:work
     rdf:about="">
    <dc:format>image/svg+xml</dc:format>
    <dc:type
       rdf:resource="http://purl.org/dc/dcmitype/StillImage" />
  </cc:work>
</rdf:rdf>
<rdf:rdf>
  <cc:work
     rdf:about="">
    <dc:format>image/svg+xml</dc:format>
    <dc:type
       rdf:resource="http://purl.org/dc/dcmitype/StillImage" />
    <dc:title />
  </cc:work>
</rdf:rdf>
<rdf:RDF>
  <cc:Work
     rdf:about="">
    <dc:format>image/svg+xml</dc:format>
    <dc:type
       rdf:resource="http://purl.org/dc/dcmitype/StillImage" />
    <dc:title />
  </cc:Work>
</rdf:RDF>
</metadata>























utf-8<path
   inkscape:label=""
   inkscape:connector-curvature="0"
   style="fill:#ffffff;fill-opacity:1;stroke:#808080;stroke-width:0.5;stroke-miterlimit:4;stroke-dasharray:none;stroke-opacity:1"
   id="EDUCACION_UGEL_PUERTO_INCA"
   d="m 218.01094,304.76088 c -2.22543,-1.53797 -2.45017,-1.59681 -6.4696,-1.69254 -3.94802,-0.0945 -4.2072,-0.15772 -4.99483,-1.24239 -0.45694,-0.62888 -2.02229,-1.72005 -3.47838,-2.42515 -4.48003,-2.16932 -5.34371,-3.17146 -5.91557,-6.86541 -0.55402,-3.57951 -0.37727,-3.9184 2.05289,-3.93006 0.75907,-0.002 1.47305,-0.15725 1.58663,-0.34205 0.1129,-0.18363 0.33454,-4.5246 0.49021,-9.64533 0.33725,-11.06625 0.66852,-12.41226 2.77662,-11.28154 1.15108,0.61745 1.76421,-1.77508 2.06841,-8.07067 l 0.25514,-5.27316 3.35352,-3.34131 c 3.18763,-3.17616 3.33456,-3.40749 2.97044,-4.6798 -0.21083,-0.73598 -0.23903,-1.47002 -0.063,-1.63108 0.17551,-0.1613 3.50109,-1.24183 7.38886,-2.40166 l 7.06867,-2.10886 2.05306,-4.36004 2.05298,-4.3599 2.77262,0.15725 c 14.28189,0.81041 14.4513,0.81236 16.72142,0.18323 2.22412,-0.61589 2.27073,-0.66204 2.27073,-2.25432 0,-1.49318 0.22764,-1.79758 2.79166,-3.73275 l 2.79168,-2.107 0.005,-5.29894 0.006,-5.29884 1.91123,-1.91552 c 3.13884,-3.14599 4.56203,-6.85941 4.57152,-11.92781 0.002,-2.40799 0.23804,-3.20408 1.80284,-6.148 1.78996,-3.36698 1.81263,-3.38847 5.17361,-4.9282 1.85658,-0.8506 3.57519,-1.54654 3.81916,-1.54654 0.24417,0 1.66265,1.03658 3.15281,2.30353 l 2.70941,2.30369 3.37831,-0.74091 c 1.85808,-0.40718 3.44471,-0.81007 3.5257,-0.89468 0.69481,-0.72631 1.96202,-6.22013 1.96202,-8.50672 l 0,-2.79103 3.89267,-4.12246 3.89266,-4.12233 0,-3.47401 c 0,-3.24847 0.11279,-3.68073 1.75476,-6.65976 0.96508,-1.75223 1.93425,-3.29709 2.15371,-3.43321 0.60863,-0.37691 8.96587,-1.39982 16.06018,-1.96561 l 6.34436,-0.5059 3.46678,1.87658 c 4.03679,2.18526 4.54557,3.03944 5.36153,9.00101 0.58379,4.26549 1.18842,3.50783 -6.16229,7.7227 -2.73581,1.56865 -5.04612,2.91475 -5.13397,2.9914 -0.0877,0.076 -0.32903,1.81793 -0.53697,3.86953 -0.31241,3.08857 -0.60415,4.06075 -1.69592,5.6511 -1.52689,2.22419 -2.58127,4.97633 -2.58127,6.73747 0,0.67634 0.4005,2.24849 0.89032,3.4936 l 0.89026,2.2637 -1.07393,1.97895 c -0.59055,1.08839 -1.30123,2.886 -1.57924,3.99449 -0.49336,1.96595 -0.46352,2.08594 1.20417,4.8574 1.31533,2.18576 1.93591,3.92185 2.68867,7.52126 1.11194,5.31783 2.25257,8.66834 3.48516,10.23896 0.57069,0.72727 0.84739,1.75051 0.84739,3.13424 0,2.64358 -1.71722,4.83476 -6.51461,8.31238 l -3.43331,2.4885 -0.004,2.39062 -0.004,2.39061 -2.07812,1.23585 c -1.82071,1.0828 -2.32438,1.73285 -4.06753,5.24948 l -1.98925,4.01361 0.66133,2.631 c 0.64529,2.56732 0.63828,2.65538 -0.2902,3.63723 -0.523,0.55342 -2.50506,4.14568 -4.40442,7.98304 l -3.4537,6.9769 0.66058,1.58462 c 0.79543,1.90804 1.04242,1.8633 -4.98543,0.9027 l -4.27958,-0.68176 -5.61316,5.29313 -5.61303,5.29335 -3.26028,-0.6502 -3.26021,-0.65022 -1.26297,1.53565 -1.26302,1.53563 -3.90755,-0.44945 c -3.81682,-0.43902 -4.0057,-0.5158 -8.12673,-3.30428 -4.21916,-2.85461 -4.21925,-2.85466 -8.06434,-3.15291 l -3.84501,-0.29824 0.22602,4.28291 c 0.12348,2.3555 0.36666,4.62428 0.53925,5.04143 0.28813,0.69698 -0.10344,0.76002 -4.81501,0.77514 l -5.12833,0.004 -2.27074,2.1232 c -2.31409,2.16375 -2.61635,2.88888 -1.82287,4.37477 0.41402,0.77563 0.29013,0.83849 -1.66259,0.83849 -2.05963,0 -2.16025,0.0621 -4.19177,2.60094 -1.62427,2.02961 -2.3397,2.60102 -3.25734,2.60102 -0.64678,0 -1.73551,0.0928 -2.4194,0.20752 -0.93774,0.15674 -1.81048,-0.18341 -3.54908,-1.38538 l 1e-4,0 z" />
<path
   inkscape:label=""
   inkscape:connector-curvature="0"
   style="fill:#ffffff;fill-opacity:1;stroke:#808080;stroke-width:0.5;stroke-miterlimit:4;stroke-dasharray:none;stroke-opacity:1"
   id="EDUCACION_LEONCIO_PRADO"
   d="m 192.93035,254.92117 c -3.01296,-5.87597 -3.51726,-7.1686 -3.51726,-9.01629 0,-1.18619 -0.12424,-3.64676 -0.27849,-5.46787 -0.27025,-3.2021 -0.3288,-3.34014 -1.77436,-4.19514 l -1.49491,-0.88385 -3.07494,1.97156 c -1.69119,1.0845 -3.79385,2.08697 -4.67252,2.22783 -1.37273,0.21924 -2.02397,0.78965 -4.62378,4.04392 -3.01132,3.76933 -3.03926,3.79044 -5.70763,4.31658 -1.47473,0.29078 -2.91457,0.61832 -3.19948,0.7279 -0.28491,0.10983 -1.72774,-0.58444 -3.20623,-1.54231 l -2.68848,-1.74138 -6.67293,-0.289 c -5.8304,-0.2517 -6.8124,-0.19681 -7.77899,0.43801 l -1.10628,0.72656 0,-1.65598 c 0,-1.36075 -0.30842,-1.95788 -1.73012,-3.34915 -1.53212,-1.49942 -1.72676,-1.91889 -1.70176,-3.66439 0.008,-1.96242 0.0507,-1.99011 4.98642,-6.30596 5.24071,-4.58192 5.65906,-4.76647 9.11237,-4.01814 1.14511,0.2485 1.68956,0.0505 3.34758,-1.21883 l 1.98012,-1.51539 -2.10902,-4.21007 c -1.92628,-3.84558 -2.28275,-4.29447 -4.11621,-5.18534 -1.76558,-0.85802 -2.68238,-0.97546 -7.61826,-0.97546 l -5.61123,0 0,-3.5246 0,-3.52476 -1.62205,0.26897 c -0.89197,0.14786 -2.08791,0.27071 -2.65758,0.27268 -1.02332,0.002 -1.03252,0.0432 -0.78612,3.30885 l 0.24956,3.30416 -1.18371,-1.13664 c -1.06688,-1.02446 -1.51082,-1.13662 -4.49851,-1.13662 -2.90249,0 -3.28069,0.0884 -3.041,0.715 0.23204,0.6053 0.0798,0.66334 -0.9868,0.37786 -0.69323,-0.1859 -3.4458,-0.65907 -6.11671,-1.05232 -2.67096,-0.3936 -5.03306,-0.90465 -5.24918,-1.13648 -0.21564,-0.23225 -0.46371,-4.51794 -0.55023,-9.52472 l -0.1572,-9.10312 1.78857,-0.61996 1.78857,-0.6199 3.10621,2.30777 3.10607,2.30789 2.31434,-0.51906 c 2.55651,-0.57337 8.18962,-3.32376 11.95945,-5.83914 l 2.43714,-1.62618 0.71034,-3.89179 c 0.57473,-3.14808 0.61328,-4.21672 0.2016,-5.59209 -0.48994,-1.63893 -0.45379,-1.76077 0.99988,-3.37337 1.31657,-1.46069 1.54407,-2.0543 1.79143,-4.67521 0.2242,-2.37206 0.15017,-3.10078 -0.34738,-3.47241 -0.95678,-0.71285 0.0637,-1.48041 1.9671,-1.48041 1.49089,0 1.64714,-0.13264 2.49888,-2.11686 0.49974,-1.16419 1.03852,-3.22477 1.19741,-4.57886 0.26619,-2.27214 0.45064,-2.59914 2.38845,-4.23678 1.15496,-0.97607 2.09985,-2.11397 2.09985,-2.52868 0,-0.41469 -0.55557,-3.08211 -1.23466,-5.92741 l -1.23463,-5.17349 1.26167,-9.48009 c 1.03543,-7.77979 1.16628,-9.65864 0.72943,-10.47678 -0.29256,-0.54826 -0.45091,-1.07175 -0.35127,-1.16335 0.0996,-0.0918 1.58706,-0.87233 3.30587,-1.73468 2.69064,-1.35013 3.54191,-1.56808 6.12579,-1.56808 l 3.00081,0 1.80149,3.34725 1.80132,3.34711 -0.90047,5.64785 c -0.99141,6.2182 -1.762,16.85614 -1.762,24.32198 0,4.35239 0.0875,4.89668 0.91333,5.6429 0.50237,0.45416 1.78394,2.5618 2.84821,4.68391 l 1.93483,3.85788 -0.61654,2.45383 c -0.59943,2.38466 -0.57738,2.58738 0.78692,7.19609 0.77213,2.60826 1.89465,6.10783 2.49473,7.77676 0.60002,1.66888 1.32554,4.69269 1.61219,6.71923 0.48163,3.4041 0.65798,3.83324 2.3182,5.63543 0.98846,1.07294 2.06341,2.63357 2.38912,3.46795 0.32637,0.83453 1.22155,2.19998 1.99078,3.03449 1.11894,1.21346 1.4988,2.12479 1.89774,4.55176 0.70932,4.31491 0.81356,4.55164 2.00427,4.55164 0.90817,0 1.05217,0.20169 1.05217,1.47396 0,1.40394 0.1,1.49802 2.09214,1.977 2.06177,0.49581 2.10851,0.54517 3.2226,3.403 1.07454,2.75615 8.5694,17.51345 9.4107,18.52932 0.21851,0.2649 1.47172,0.8465 2.78417,1.29351 l 2.38626,0.81297 0,2.03064 c 0,1.79055 -0.12334,2.06216 -1.05387,2.29589 -0.57959,0.14597 -2.03934,1.22725 -3.24383,2.40305 l -2.19009,2.13816 0,5.43932 0,5.43957 -2.10557,1.0694 -2.10553,1.06937 -3.51716,-6.85941 0,0 z" />
<path
   inkscape:label=""
   inkscape:connector-curvature="0"
   style="fill:#ffffff;fill-opacity:1;stroke:#808080;stroke-width:0.5;stroke-miterlimit:4;stroke-dasharray:none;stroke-opacity:1"
   id="EDUCACION_UGEL_HUANUCO"
   d="m 114.04163,328.66459 c 0.12148,-1.66888 0.3114,-3.47332 0.42194,-4.01003 0.2758,-1.32684 -0.27827,-1.22464 -1.76036,0.32569 -1.19973,1.25522 -1.37832,1.30058 -5.10901,1.30058 l -3.8659,0 0.25963,1.19217 c 0.14297,0.65562 0.38993,1.65308 0.54988,2.21674 0.26096,0.91948 0.20142,0.97675 -0.5767,0.55961 -0.66775,-0.35859 -0.92002,-1.05486 -1.09922,-3.03672 -0.12781,-1.4146 -0.75413,-3.7362 -1.39126,-5.15939 l -1.15863,-2.58759 -2.56318,0.53612 -2.56308,0.53608 0,-2.51353 c 0,-2.48646 0.005,-2.51907 1.50787,-3.01236 0.82929,-0.27459 1.59891,-0.64658 1.71022,-0.82729 0.11047,-0.18076 -0.0744,-1.37962 -0.41237,-2.66458 -0.56744,-2.1553 -0.5541,-2.40452 0.17105,-3.21642 1.41274,-1.58124 3.45525,-4.84124 3.73613,-5.96283 0.22185,-0.88575 0.60648,-1.14213 1.99135,-1.32849 0.94407,-0.12721 3.11854,-0.89877 4.83215,-1.71478 l 3.11563,-1.48435 0.73952,-3.61037 0.73972,-3.61038 -1.28028,-1.4615 c -1.10436,-1.26065 -1.28025,-1.80738 -1.28025,-3.97927 0,-1.38481 -0.12665,-4.86887 -0.27991,-7.7424 l -0.28021,-5.22445 2.41908,-0.54273 c 2.34109,-0.52503 2.50002,-0.65495 4.9298,-4.03105 1.3809,-1.91879 3.19211,-4.84737 4.02472,-6.5079 1.41098,-2.81428 1.64592,-3.05607 3.46007,-3.56299 1.07061,-0.29891 4.28194,-0.85333 7.13656,-1.2316 5.07835,-0.67319 5.25779,-0.73463 8.32036,-2.85527 l 3.13,-2.16724 6.06771,0 6.06767,0 2.36916,1.57657 c 2.58667,1.72136 2.45964,1.71378 9.16076,0.54466 l 2.67657,-0.46683 2.94622,-3.83705 c 2.88116,-3.75217 2.98692,-3.83747 4.79878,-3.86159 1.52326,-0.006 2.12169,-0.29339 3.36644,-1.54182 0.89094,-0.89304 1.94185,-1.5174 2.55418,-1.5174 1.15796,0 1.13179,-0.10459 1.95575,7.88466 0.39387,3.81818 0.59763,4.46283 2.24334,7.09357 0.99586,1.59169 2.45507,4.48101 3.24314,6.42085 l 1.43269,3.52697 -2.05247,1.9552 c -1.12898,1.07531 -3.48089,3.24805 -5.22663,4.82837 l -3.17398,2.87331 0.89158,5.51757 c 0.85307,5.28052 0.77118,7.15056 -0.31294,7.15056 -0.69489,0 -4.27823,-2.53254 -5.14373,-3.63539 l -0.9042,-1.1521 -4.68799,1.32878 c -2.57842,0.73077 -7.35062,1.65248 -10.60485,2.04825 l -5.91682,0.71928 -2.00613,3.81351 c -1.92766,3.66448 -2.06421,3.81357 -3.49051,3.81357 -0.91536,0 -1.48434,0.21184 -1.48434,0.55332 0,0.73914 -0.80358,7.53454 -1.10077,9.30878 -0.23299,1.39542 -0.25912,1.40893 -2.7035,1.42047 l -2.46729,0.004 -11.0335,8.82211 -11.03363,8.82238 -2.15828,-0.33419 c -1.1871,-0.18304 -2.17936,-0.3053 -2.20489,-0.27148 -0.007,0.009 -0.45515,1.62207 -0.95443,3.52944 l -0.90787,3.46783 0.22051,-3.03458 0,0 z" />
<path
   inkscape:label=""
   inkscape:connector-curvature="0"
   style="fill:#ffffff;fill-opacity:1;stroke:#808080;stroke-width:0.5;stroke-miterlimit:4;stroke-dasharray:none;stroke-opacity:1"
   id="EDUCACION_UGEL_HUAMALIES"
   d="m 47.045217,270.53116 c -1.800124,-2.97001 -2.838729,-5.33136 -2.822377,-6.41735 0.007,-0.52754 0.896691,-1.1687 2.802394,-2.02183 2.63193,-1.17825 2.822749,-1.36321 3.35243,-3.25128 0.522281,-1.86148 0.670866,-2.01109 2.117803,-2.13322 1.491499,-0.12475 1.585984,-0.23366 2.269764,-2.60085 0.39262,-1.35835 0.935845,-5.74207 1.207703,-9.74172 l 0.494289,-7.27194 3.600659,-4.50456 c 1.980391,-2.47755 3.791843,-5.00858 4.025467,-5.62459 0.506452,-1.33487 1.459548,-1.45662 2.002105,-0.25607 0.547538,1.21168 5.232819,5.9193 6.949984,6.98299 3.161891,1.9585 4.376417,0.15708 4.43662,-6.5819 0.01366,-3.50831 0.0947,-3.75289 1.114517,-4.29993 0.982237,-0.52681 1.081354,-0.83669 1.081354,-3.38298 0,-2.63863 -0.157835,-3.08372 -2.703238,-7.5908 -1.77645,-3.14624 -3.122296,-5.02108 -3.9251,-5.46851 -2.580239,-1.43759 -2.576664,-1.4303 -1.460028,-2.94717 l 1.023292,-1.39001 1.248174,1.66311 c 1.224901,1.63199 1.313958,1.66839 4.740436,1.93225 1.920808,0.14789 6.014158,0.95415 9.096425,1.79148 l 5.60439,1.52253 3.82599,3.9204 3.82588,3.92036 1.46269,-1.11807 1.46266,-1.11813 1.56418,2.18203 c 0.86021,1.20018 1.60186,2.1822 1.64813,2.1822 0.0453,0 2.41217,0.2904 5.25772,0.64671 2.84564,0.35563 5.38409,0.64832 5.64118,0.65024 0.25727,10e-4 1.07737,-0.84787 1.82288,-1.88828 2.2042,-3.07644 3.91226,-3.39522 9.46557,-1.76745 0.78267,0.22959 1.09459,-0.006 1.83814,-1.4829 0.55497,-1.09036 0.89551,-2.58999 0.89551,-3.94402 0,-2.02937 0.0753,-2.18485 1.05935,-2.18485 1.02872,0 1.04214,0.009 0.4673,1.41968 -0.56607,1.35775 -0.52523,1.51166 0.93651,3.53037 l 1.5284,2.1109 4.25702,-0.25929 c 3.97868,-0.2436 4.44905,-0.18156 7.19526,0.94666 l 2.9382,1.20657 0.29623,2.35582 c 0.1629,1.2957 0.49847,2.88987 0.7461,3.54252 l 0.45017,1.18691 -3.55744,0.004 -3.55764,0.004 -5.29832,4.57294 c -5.29031,4.56599 -5.29839,4.57607 -5.29839,6.4909 0,1.05484 -0.17785,1.9179 -0.3939,1.9179 -0.21631,0 -1.62766,-0.58518 -3.13582,-1.3002 -1.84745,-0.87601 -3.41229,-1.30028 -4.79658,-1.30054 l -2.05448,-2.3e-4 -0.005,1.62549 c -0.005,1.58378 -0.0941,1.66098 -2.99791,2.99914 l -2.98069,1.37354 -0.29614,3.01211 -0.29617,3.01208 -2.32849,0.5223 c -1.83059,0.41099 -2.84128,0.40718 -4.72509,-0.004 l -2.39653,-0.53756 -1.83694,1.80696 c -1.68117,1.65363 -2.02829,1.80689 -4.09137,1.80689 -1.94218,0 -2.25435,0.11579 -2.25435,0.84052 0,0.93604 0.56525,0.81771 -10.164312,2.12763 -6.085662,0.74294 -6.728943,0.9131 -10.380358,2.74574 -3.287852,1.65009 -3.914002,2.13251 -4.029599,3.10505 -0.134243,1.12698 -0.202635,1.15148 -3.249444,1.15148 -2.799255,0 -3.155595,0.0966 -3.539607,0.96264 -0.244202,0.55184 -0.980628,1.08353 -1.724444,1.2456 -3.032424,0.66152 -3.676462,1.14604 -3.676462,2.76619 0,1.23896 -0.163403,1.52799 -0.865103,1.52799 -0.634336,0 -0.864943,-0.28867 -0.864943,-1.08375 0,-0.99539 -0.157839,-1.08376 -1.946307,-1.08376 l -1.946418,0 0,1.68475 c 0,1.6644 -0.01479,1.68826 -1.946357,1.97736 -1.070463,0.1613 -1.946252,0.44811 -1.946252,0.638 0,0.19065 -1.059581,1.05069 -2.354761,1.91253 l -2.354552,1.56686 -1.539771,-2.54039 0,0 z" />
<path
   inkscape:label=""
   inkscape:connector-curvature="0"
   style="fill:#ffffff;fill-opacity:1;stroke:#808080;stroke-width:0.5;stroke-miterlimit:4;stroke-dasharray:none;stroke-opacity:1"
   id="EDUCACION_UGEL_HUACAYBAMBA"
   d="m 114.7138,215.88746 c -2.7003,-0.41643 -4.95274,-0.81864 -5.00514,-0.89385 -0.0531,-0.0748 -0.62482,-1.06319 -1.27187,-2.19559 -1.30045,-2.2762 -1.25926,-2.25989 -3.98077,-1.57299 -1.83298,0.46255 -1.9693,0.43086 -2.82007,-0.65287 -1.74438,-2.22275 -7.89384,-6.20342 -10.38529,-6.72277 -1.284853,-0.26812 -4.893947,-1.08246 -8.02036,-1.81029 l -5.684348,-1.3233 -0.293178,-2.35104 c -0.161814,-1.29309 -0.427062,-2.43402 -0.590433,-2.53525 -0.163523,-0.10133 -1.07448,-0.32743 -2.024193,-0.50159 l -1.726837,-0.31782 0.813931,0.91719 c 0.92916,1.04682 0.756969,1.44589 -1.976582,4.5801 l -1.47408,1.68998 -2.831612,-0.94433 c -1.826615,-0.60927 -3.635276,-1.63206 -5.096582,-2.88213 -1.245715,-1.0658 -2.333678,-1.93778 -2.417667,-1.93778 -0.08371,0 -1.576473,-0.29892 -3.316661,-0.66423 -3.080084,-0.64659 -3.261806,-0.75938 -6.840566,-4.24759 -2.728189,-2.65921 -4.477562,-3.95935 -6.782688,-5.04074 -2.200377,-1.03238 -3.177414,-1.74136 -3.350309,-2.4317 -0.133842,-0.53592 -1.899211,-3.0519 -3.922139,-5.59113 -4.259988,-5.34699 -4.441585,-6.10998 -2.412779,-10.13797 1.16586,-2.3145 1.442682,-2.56967 3.517189,-3.24129 l 2.251838,-0.72891 2.932534,2.40459 c 3.560181,2.91933 4.073925,3.49391 3.462178,3.873 -1.077903,0.6676 -0.313922,1.42337 1.951531,1.93165 2.026315,0.45453 2.622173,0.43825 3.784553,-0.10396 0.75868,-0.35311 2.210432,-0.77775 3.226042,-0.94341 1.640177,-0.26812 2.26885,-0.0845 5.622856,1.63265 5.094306,2.60873 5.905232,2.76997 7.233672,1.43847 0.812384,-0.81413 1.847302,-1.17909 4.424158,-1.56041 1.850151,-0.27379 3.778599,-0.59584 4.285396,-0.71577 0.774299,-0.18266 1.525088,0.63643 4.695557,5.12626 2.07566,2.93946 4.662824,6.86887 5.749061,8.73199 1.086154,1.86318 3.224627,4.74049 4.752128,6.39397 2.49988,2.70617 2.94179,3.00658 4.42453,3.00658 1.44148,0 1.7038,-0.16259 2.09964,-1.3005 0.35061,-1.00715 0.72573,-1.31083 1.66422,-1.34651 0.66664,-0.007 3.20717,-0.17143 5.64572,-0.32567 l 4.43377,-0.27846 -3.7e-4,8.94854 c -3.6e-4,7.56263 0.1005,8.98742 0.64961,9.19873 0.35773,0.13704 2.43317,0.56015 4.61257,0.93899 4.1594,0.72334 6.4174,1.60054 6.41251,2.49118 -10e-4,0.29166 -0.34273,1.03052 -0.75692,1.64137 l -0.75404,1.11042 -4.90972,-0.75716 -3e-5,0 z" />
<path
   inkscape:label=""
   inkscape:connector-curvature="0"
   style="fill:#ffffff;fill-opacity:1;stroke:#808080;stroke-width:0.5;stroke-miterlimit:4;stroke-dasharray:none;stroke-opacity:1"
   id="EDUCACION_UGEL_PACHITEA"
   d="m 166.42713,363.52254 c 0,-1.53712 -0.11698,-1.71873 -1.18732,-1.8423 l -1.18719,-0.1363 -0.67949,-6.0163 c -0.55709,-4.93428 -0.82821,-6.12559 -1.50742,-6.62357 -0.81169,-0.59458 -0.80573,-0.69265 0.28899,-4.85435 l 1.11715,-4.2477 -1.28804,-2.55299 c -1.21222,-2.40256 -1.27134,-2.75448 -1.00361,-5.9716 0.16985,-2.03527 0.62881,-4.09491 1.13558,-5.09066 1.44035,-2.82963 1.28105,-3.07913 -3.14952,-4.92899 -2.20048,-0.91867 -4.21315,-1.88649 -4.47261,-2.14997 -0.25908,-0.26488 -0.88257,-2.04062 -1.38459,-3.94809 l -0.9127,-3.46781 0.84389,-3.0252 c 0.46415,-1.66387 0.84383,-4.34595 0.84383,-5.96052 l 0,-2.93538 1.65189,0 c 1.63983,0 1.66243,-0.007 3.06857,-3.23087 l 1.41658,-3.23084 2.01375,-0.28136 c 4.07688,-0.56926 10.27848,-2.04491 13.74164,-3.26986 l 3.55899,-1.25903 1.22314,1.22175 c 0.6726,0.67198 2.16649,1.77463 3.31952,2.45052 l 2.09655,1.22853 2.33667,-0.73829 c 1.28539,-0.40591 2.33693,-0.90747 2.33693,-1.1145 0,-0.20752 -0.2752,-1.51384 -0.61178,-2.90399 -0.33619,-1.39016 -0.73256,-4.0254 -0.88024,-5.85597 l -0.26879,-3.32822 4.31544,-4.46358 c 2.37356,-2.4548 4.4127,-4.36613 4.53122,-4.24715 0.11818,0.11808 0.0999,4.16222 -0.0436,8.98526 l -0.2578,8.76906 -1.77107,0.45359 c -3.17947,0.81398 -3.0043,0.54225 -2.71589,4.21441 0.4851,6.17348 0.058,5.58238 7.08953,9.80921 6.525,3.92217 6.5302,3.92384 9.75036,3.01492 0.67539,-0.19086 0.75687,0.15786 0.75687,3.24014 l 0,3.45361 -3.32025,0.74056 c -3.75455,0.8371 -4.30985,1.30031 -6.20934,5.17986 -1.52408,3.11311 -2.47296,7.28283 -2.90686,12.77396 l -0.32234,4.08543 -3.02764,1.30909 c -2.39349,1.0353 -3.88091,1.35967 -7.10189,1.55029 l -4.07432,0.24066 -1.06355,2.8176 c -0.96106,2.54592 -1.49624,3.20773 -5.54931,6.86346 l -4.48568,4.04594 0,3.28272 c 0,2.8708 -0.14403,3.47823 -1.14702,4.84095 -1.50687,2.04678 -4.12796,4.80911 -4.5635,4.80911 -0.18899,0 -0.34456,-0.7674 -0.34456,-1.70519 z" />
<path
   inkscape:label=""
   inkscape:connector-curvature="0"
   style="fill:#ffffff;fill-opacity:1;stroke:#808080;stroke-width:0.5;stroke-miterlimit:4;stroke-dasharray:none;stroke-opacity:1"
   id="EDUCACION_UGEL_AMBO"
   d="m 153.84394,360.29869 c -0.53762,-1.28947 -0.85527,-1.49835 -2.7052,-1.77623 -1.15276,-0.17323 -4.14138,-1.25139 -6.64134,-2.39555 -2.49998,-1.14446 -5.90785,-2.4757 -7.573,-2.95941 -5.36397,-1.55669 -5.01109,-1.6052 -6.67418,0.92034 l -1.48381,2.2534 -0.31263,-1.30066 c -0.17209,-0.71528 -0.83287,-3.59248 -1.46876,-6.39403 l -1.15604,-5.09365 -3.63504,0 c -3.37042,0 -3.80068,0.10438 -5.914,1.43911 -2.4807,1.56627 -1.79644,1.54497 -8.36981,0.25931 l -2.19805,-0.42954 -0.50899,-3.99435 c -0.42922,-3.36911 -0.40651,-4.32716 0.1433,-6.12228 0.35916,-1.17049 0.65245,-2.55932 0.65245,-3.08672 0,-0.87102 0.28199,-0.98665 3.0694,-1.262 1.68806,-0.16581 3.14312,-0.22889 3.23305,-0.13717 0.0901,0.0909 -0.007,1.42091 -0.25124,2.95657 -0.93612,6.28713 -1.02268,5.67716 0.7839,5.52644 1.54159,-0.129 1.63247,-0.23174 2.57978,-2.90096 0.53998,-1.52209 1.02683,-3.71532 1.08204,-4.87355 0.0553,-1.15857 0.16042,-2.10751 0.2327,-2.10919 0.0736,0 0.98583,0.21178 2.02848,0.47527 1.86591,0.47097 1.91653,0.4544 3.24448,-1.06144 0.742,-0.84717 2.74869,-2.56624 4.45953,-3.82025 1.7106,-1.25423 6.12719,-4.54774 9.81436,-7.3187 7.30609,-5.49083 8.44917,-6.22148 9.24989,-5.91359 0.29223,0.1143 1.00209,1.5885 1.57651,3.28017 0.90271,2.65679 0.9735,3.26462 0.52087,4.46655 -0.36005,0.95489 -0.38159,1.47883 -0.0714,1.67146 0.24977,0.15486 2.38767,0.82222 4.75257,1.48392 2.36491,0.6621 4.29971,1.41111 4.29971,1.66494 0,0.25244 -0.43525,0.92533 -0.9673,1.49288 -0.85309,0.91025 -0.98619,1.58829 -1.12814,5.74381 -0.16129,4.70815 -0.15966,4.71339 1.20855,6.62307 l 1.36947,1.91137 -0.6912,2.9874 c -0.38008,1.64294 -1.07269,3.63493 -1.53889,4.427 -1.11065,1.88682 -1.08194,2.05476 0.45924,2.69462 0.71874,0.29828 1.40846,0.70753 1.53286,0.90894 0.16141,0.26142 1.43729,9.83735 1.48167,11.11664 10e-4,0.0591 -0.86942,0.10752 -1.93671,0.10752 -1.79477,0 -1.98635,-0.10984 -2.54965,-1.46088 l 0,0 z" />
<path
   inkscape:label=""
   inkscape:connector-curvature="0"
   style="fill:#ffffff;fill-opacity:1;stroke:#808080;stroke-width:0.5;stroke-miterlimit:4;stroke-dasharray:none;stroke-opacity:1"
   id="EDUCACION_DOS_DE_MAYO"
   d="m 67.197205,306.67182 c 0,-3.4539 -0.06403,-3.69926 -1.262561,-4.85038 -0.694436,-0.66692 -1.387548,-1.71126 -1.540239,-2.32128 -0.153327,-0.60999 -1.358824,-3.46597 -2.680135,-6.34662 -2.771968,-6.0431 -4.03255,-9.47816 -4.03255,-10.98911 0,-0.59655 -0.730493,-1.94725 -1.663153,-3.07486 -0.914686,-1.10595 -2.024389,-2.57297 -2.46582,-3.25984 l -0.802466,-1.24891 1.059989,0.32298 c 0.58317,0.17846 1.222009,0.35032 1.419978,0.38179 0.197628,0.009 0.722387,-0.81945 1.165342,-1.89235 0.569929,-1.38048 0.812376,-1.66564 0.82951,-0.97542 0.01179,0.91636 0.207428,0.97542 3.051836,0.97542 l 3.027599,0 0,-1.89603 0,-1.89602 4.077841,-1.35514 c 2.242854,-0.74535 4.82183,-1.35786 5.730886,-1.3611 2.989951,-0.004 3.489619,-0.32875 4.024974,-2.56618 0.472889,-1.97535 0.57845,-2.08177 2.736305,-2.75904 2.854597,-0.8958 8.563941,-1.88133 13.219659,-2.28169 3.12909,-0.26956 3.81381,-0.48017 5.02997,-1.55031 1.2246,-1.07767 1.47775,-1.15435 1.94539,-0.58963 0.29585,0.35676 0.66309,0.64922 0.81648,0.64922 0.15405,0 1.30548,-0.89995 2.56006,-1.99987 l 2.28115,-2.00008 3.17663,0.29832 c 2.87924,0.2701 3.38145,0.19522 5.36118,-0.81103 2.07176,-1.05219 2.19819,-1.21603 2.45004,-3.17514 0.14669,-1.13628 0.41126,-2.33935 0.58867,-2.67373 0.17836,-0.33451 1.77351,-1.25266 3.54645,-2.04073 3.03115,-1.3473 3.21959,-1.51133 3.15963,-2.75159 -0.0748,-1.54803 0.36779,-1.63302 3.55356,-0.68279 1.64546,0.49081 2.79608,1.30796 5.03502,3.57639 l 2.90207,2.94016 -0.6725,2.661 -0.67232,2.6611 -2.44585,0.48069 c -1.34532,0.26463 -4.57276,0.61057 -7.1723,0.76917 -4.6425,0.2831 -4.75635,0.31463 -6.42896,1.83002 -0.93648,0.848 -2.25084,2.67612 -2.92091,4.06257 -0.67005,1.38647 -2.21835,3.87251 -3.44043,5.52493 -2.1016,2.84127 -2.38418,3.05639 -5.21398,3.96979 l -2.99184,0.96588 -1.65574,-0.9327 -1.65557,-0.93255 -1.13614,1.13874 -1.13616,1.13864 -4.10949,-0.50603 c -5.428908,-0.66875 -5.400997,-0.67139 -5.962277,0.56294 l -0.48601,1.06938 -1.26787,-1.06938 c -1.573928,-1.32724 -1.798068,-1.32789 -2.660733,-0.003 -0.561374,0.8587 -1.11628,1.08599 -2.911351,1.19206 -2.111336,0.12413 -2.248399,0.20817 -2.854357,1.73603 -0.610129,1.53853 -0.589765,1.66583 0.495601,3.0921 l 1.13207,1.48762 -1.526692,0.28661 c -0.839498,0.15725 -1.526429,0.38378 -1.526429,0.50238 0,1.38788 -1.60522,7.31832 -2.413387,8.91714 -0.575878,1.13857 -1.046943,2.38009 -1.046943,2.75862 0,0.3787 0.799843,1.86896 1.777409,3.31152 l 1.777313,2.62323 -1.039901,2.44669 c -0.973248,2.28982 -1.191275,2.5022 -3.402236,3.31371 l -2.362383,0.86707 0.379194,2.51257 c 0.207846,1.38207 0.307054,2.57824 0.218889,2.65877 -0.08758,0.0804 -0.792733,0.28199 -1.565868,0.44783 l -1.405705,0.3014 0,-3.63784 0,0 z" />
<path
   inkscape:label=""
   inkscape:connector-curvature="0"
   style="fill:#ffffff;fill-opacity:1;stroke:#808080;stroke-width:0.5;stroke-miterlimit:4;stroke-dasharray:none;stroke-opacity:1"
   id="EDUCACION_UGEL_YAROWILCA"
   d="m 96.54615,302.87175 c 0,-0.94558 -0.84309,-1.14913 -1.60325,-0.38726 -0.35055,0.35094 -0.68101,0.17042 -1.23104,-0.6708 -0.61971,-0.9481 -0.96953,-1.10288 -1.98618,-0.87897 -1.00735,0.22173 -1.18575,0.14653 -0.97189,-0.41306 0.21017,-0.54623 -0.0549,-0.6845 -1.306052,-0.6845 -1.403646,0 -1.545176,-0.10386 -1.347435,-0.97553 0.710392,-3.13543 1.028955,-4.86879 0.915557,-4.98236 -0.1344,-0.13506 -4.580274,0.75847 -4.580274,0.9204 0,0.0512 -0.647555,1.67807 -1.438982,3.61616 l -1.439055,3.52336 -2.421967,-5.24868 -2.421948,-5.24879 0.837703,-1.64593 c 0.460798,-0.90527 1.063075,-3.09781 1.338342,-4.87254 l 0.500493,-3.22663 1.873964,-0.4729 c 1.030729,-0.25957 1.873988,-0.63152 1.873988,-0.82543 0,-0.19484 -0.486756,-1.55272 -1.081313,-3.01967 -0.594826,-1.46684 -1.081396,-2.75979 -1.081396,-2.87323 0,-0.11267 0.803103,0.0777 1.784511,0.42476 2.381421,0.84215 2.540802,0.81195 2.540802,-0.47967 0,-1.07206 0.08569,-1.10774 2.487017,-1.03059 1.367744,0.0432 5.847915,-0.0719 9.955785,-0.25802 7.44476,-0.33689 7.47244,-0.33484 8.54234,0.67273 1.33663,1.2586 1.33587,1.66946 -0.003,4.3275 -0.59477,1.17628 -1.08147,2.30725 -1.08147,2.51333 0,0.20604 0.4867,0.63563 1.08147,0.95458 1.02351,0.54905 1.08125,0.77728 1.08125,4.27617 0,3.39268 0.0922,3.79304 1.12793,4.87604 l 1.12795,1.18015 -0.74753,2.25555 c -0.72204,2.17875 -0.85257,2.30387 -3.83122,3.67298 -1.69599,0.77971 -3.91086,1.55353 -4.92188,1.71984 -1.58687,0.26144 -1.83822,0.44918 -1.83822,1.37647 0,1.25548 -0.71372,2.75112 -1.3127,2.75112 -0.22948,0 -0.41711,-0.39048 -0.41711,-0.86688 z" />
<path
   inkscape:label=""
   inkscape:connector-curvature="0"
   style="fill:#ffffff;fill-opacity:1;stroke:#808080;stroke-width:0.5;stroke-miterlimit:4;stroke-dasharray:none;stroke-opacity:1"
   id="EDUCACION_UGEL_LAURICOCHA"
   d="m 73.015824,360.95006 c -0.850025,-1.16026 -1.701973,-2.86466 -1.893169,-3.78665 -0.328666,-1.58577 -0.51961,-1.74874 -3.523448,-3.00442 l -3.176116,-1.32774 -1.131168,-3.48112 c -0.622082,-1.9147 -1.676826,-4.30654 -2.343823,-5.31563 -1.118938,-1.69208 -1.262847,-2.40762 -1.860006,-9.24255 -0.355579,-4.07429 -0.491498,-7.53951 -0.301063,-7.69997 0.891914,-0.75268 7.46776,-3.4136 9.104661,-3.68499 l 1.838294,-0.30413 0,-5.16415 0,-5.1637 1.895845,0 c 2.090138,0 2.405091,-0.4495 2.430005,-3.46809 0.0087,-2.03706 0.388704,-2.50424 2.128342,-2.67394 1.293327,-0.12667 1.553886,-0.36829 2.140029,-1.98596 0.367428,-1.01344 0.806825,-1.84255 0.977021,-1.84255 0.170374,0 0.533007,0.6786 0.806058,1.50777 l 0.496433,1.50785 1.248578,-0.92508 c 0.686639,-0.50903 1.719711,-1.91893 2.29564,-3.13346 0.576033,-1.21458 1.490782,-2.59826 2.032982,-3.07501 l 0.985702,-0.86711 -0.294958,1.08383 c -0.842733,3.10061 -0.824399,3.19164 1.005487,4.97468 1.597827,1.55692 1.856631,1.66862 2.67822,1.15436 0.80354,-0.5031 1.11719,-0.41734 2.69311,0.73547 1.04725,0.76658 1.76193,1.63218 1.73111,2.0971 -0.0105,0.43554 -0.56208,2.74278 -1.18481,5.12677 -0.62295,2.38438 -1.25984,5.8469 -1.41554,7.69491 l -0.28288,3.35956 1.73814,0 c 4.25361,0 4.26638,0.004 5.48226,5.14228 0.601,2.53599 1.4733,7.08247 1.93832,10.10328 0.82299,5.34477 1.40905,7.29596 2.19139,7.29596 0.2104,0 0.57915,0.92533 0.8199,2.05656 0.37888,1.78106 0.32077,2.24573 -0.43285,3.46796 l -0.87035,1.41139 -4.32044,0 -4.32045,0 -2.02388,1.66833 c -1.11324,0.91774 -3.158441,2.11696 -4.545013,2.66537 -1.386593,0.54812 -4.075877,1.94326 -5.976171,3.10007 -2.730093,1.66192 -3.849758,2.10322 -5.335698,2.10322 -1.749772,0 -1.987852,-0.14773 -3.42591,-2.11019 z" />
<path
   inkscape:label=""
   inkscape:connector-curvature="0"
   style="fill:#ffffff;fill-opacity:1;stroke:#808080;stroke-width:0.5;stroke-miterlimit:4;stroke-dasharray:none;stroke-opacity:1"
   id="EDUCACION_MARANON"
   d="m 94.46261,186.72492 c -1.51566,-1.72094 -3.14115,-3.93284 -3.61238,-4.91541 -0.47106,-0.98274 -2.102729,-3.44084 -3.62576,-5.46262 -1.523072,-2.02166 -3.680405,-5.36318 -4.79405,-7.42543 -1.508027,-2.79236 -2.154111,-3.69598 -2.531157,-3.53986 -2.513148,1.04106 -5.49914,1.72038 -10.208819,2.32267 -1.418326,0.18115 -1.603098,0.30008 -1.603098,1.0299 0,0.45372 -0.07814,0.82487 -0.173523,0.82487 -0.0956,0 -1.991776,-0.91322 -4.213427,-2.02937 L 59.661017,165.5 l -3.52195,0 -3.521941,0 -0.222337,1.01486 c -0.122474,0.55807 -0.325055,1.01331 -0.448757,1.01156 -0.123765,-0.001 -2.153428,-2.03486 -4.508793,-4.51803 l -4.282307,-4.5147 -2.467207,0.46008 c -1.357029,0.25216 -3.244308,0.61842 -4.19399,0.81187 l -1.72673,0.35171 -0.171525,2.13777 c -0.09422,1.17574 -0.32632,2.41489 -0.51497,2.75356 -0.319149,0.57152 -0.41503,0.54414 -1.328945,-0.37663 -0.541714,-0.54592 -2.083951,-3.08011 -3.427187,-5.63156 -1.343193,-2.55146 -2.79828,-4.91984 -3.233697,-5.26305 -0.681182,-0.53705 -0.890559,-1.26777 -1.502414,-5.24298 -0.391189,-2.54034 -0.711011,-4.77641 -0.711011,-4.96884 0,-0.19225 -0.735626,-0.34988 -1.640597,-0.34988 l -1.640593,0 -0.178557,-2.95965 c -0.130758,-2.19002 -0.414095,-3.49964 -1.086909,-5.03557 l -0.909105,-2.07587 2.417038,-3.26557 c 1.762156,-2.38092 2.569675,-3.21839 2.980466,-3.09078 0.310409,0.096 1.616679,0.39433 2.903759,0.66236 2.322412,0.4839 2.358785,0.48005 4.817937,-0.49905 3.01061,-1.19859 3.135062,-1.20417 3.135062,-0.14092 0,0.8456 0,0.8456 3.37488,0.8456 1.856089,0 3.374769,0.0942 3.374769,0.20815 0,0.11488 -0.260693,0.94401 -0.579373,1.84336 -0.319167,0.89916 -0.50854,1.69043 -0.421968,1.75812 0.08708,0.0677 1.172598,0.9727 2.413222,2.011 l 2.255594,1.88811 4.325246,0.2334 c 4.828238,0.26171 8.574185,0.90998 9.762791,1.69067 0.714539,0.46913 1.194792,0.45292 5.083978,-0.17307 2.362366,-0.37982 4.318088,-0.7232 4.34632,-0.76321 0.01506,-0.009 0.603265,-0.94797 1.277757,-2.01764 l 1.226378,-1.94495 4.737357,0 c 4.736334,0 4.737824,3.1e-4 7.067471,1.1761 l 2.330156,1.17608 1.795527,-0.82068 c 1.994549,-0.9117 6.106068,-2.12806 11.298758,-3.34248 l 3.42844,-0.80196 2.77684,2.79755 2.77676,2.79765 -1.40471,1.66961 -1.40472,1.66969 0.73622,1.92817 c 0.67357,1.76389 0.81094,1.91359 1.61167,1.75798 0.48151,-0.0943 1.89688,-0.27013 3.1454,-0.39239 l 2.26977,-0.22178 0.19254,-1.22983 c 0.53515,-3.41377 1.72934,-7.80355 3.32228,-12.21268 1.74926,-4.84129 1.78095,-4.89698 2.93147,-5.13069 0.78021,-0.15789 1.57711,-0.71673 2.42179,-1.69652 l 1.25884,-1.46019 1.81339,1.79492 1.81338,1.79497 0.19896,3.4429 c 0.35269,6.1091 0.62167,6.76081 4.74839,11.52223 l 1.64233,1.89492 0.32391,5.83669 0.3247,5.83675 1.32382,1.36579 1.3239,1.36572 0,4.2998 0,4.29986 1.67968,0 c 1.41914,0 1.76538,-0.13114 2.23236,-0.84564 0.70936,-1.08493 1.01963,-1.06634 1.40743,0.0839 0.27379,0.81217 0.10028,1.24834 -1.36777,3.43558 l -1.68136,2.50546 0.0621,4.93594 0.0619,4.93595 -2.63169,2.75569 c -2.54521,2.66519 -2.77988,2.81998 -7.14788,4.71209 -5.1007,2.20948 -4.17649,2.27142 -8.37382,-0.56188 -4.3533,-2.93866 -5.5463,-3.01113 -7.56149,-0.45999 -1.2379,1.56719 -1.62501,1.85302 -2.32837,1.71887 -0.46403,-0.0877 -2.3767,-0.346 -4.2504,-0.57273 l -3.4065,-0.41174 -2.60596,2.07551 c -1.43314,1.14136 -2.64752,2.07533 -2.69859,2.07533 -0.0513,0 -1.33305,-1.40797 -2.84862,-3.12879 l 0,0 z" />
</svg>
