<?xml version="1.0" encoding="UTF-8" standalone="no"?>
<!--?xml version="1.0" encoding="UTF-8" standalone="no"?-->

<!--?xml version="1.0" encoding="UTF-8" standalone="no"?-->

<!--
************* Copyright (c) 2015 Pareto Softare, LLC DBA Simplemaps.com *******************		
************* Free for Commercial Use, full terms at  http://simplemaps.com/resources/svg-license ************
************* Attribution is appreciated! http://simplemaps.com ***************************
-->

<svg
   xmlns:dc="http://purl.org/dc/elements/1.1/"
   xmlns:cc="http://creativecommons.org/ns#"
   xmlns:rdf="http://www.w3.org/1999/02/22-rdf-syntax-ns#"
   xmlns:svg="http://www.w3.org/2000/svg"
   xmlns="http://www.w3.org/2000/svg"
   xmlns:sodipodi="http://sodipodi.sourceforge.net/DTD/sodipodi-0.dtd"
   xmlns:inkscape="http://www.inkscape.org/namespaces/inkscape"
   enable_background="new 0 0 1000 1585"
   height="549.01257"
   pretty_print="True"
   style="fill:none;stroke:#000000;stroke-linejoin:round"
   version="1.1"
   viewBox="0 0 354.46857 549.01257"
   width="354.46857"
   id="svg2"
   inkscape:version="0.91 r13725"
   sodipodi:docname="Ica.svg"><sodipodi:namedview
   pagecolor="#ffffff"
   bordercolor="#666666"
   borderopacity="0.05098039"
   objecttolerance="10"
   gridtolerance="10"
   guidetolerance="10"
   inkscape:pageopacity="0"
   inkscape:pageshadow="2"
   inkscape:window-width="1920"
   inkscape:window-height="1017"
   id="namedview37"
   showgrid="false"
   inkscape:zoom="1.431634"
   inkscape:cx="-100.89172"
   inkscape:cy="328.77618"
   inkscape:window-x="-8"
   inkscape:window-y="-8"
   inkscape:window-maximized="1"
   inkscape:current-layer="svg2"
   showborder="true"
   fit-margin-top="10"
   fit-margin-left="10"
   fit-margin-right="10"
   fit-margin-bottom="10"
   borderlayer="false"
   inkscape:showpageshadow="false"
   inkscape:snap-to-guides="false"
   inkscape:snap-grids="false"
   showguides="false" />























utf-8<defs
   id="defs4">
  <style
     type="text/css"
     id="style6">path { fill-rule: evenodd; }utf-8utf-8</style>
</defs>























utf-8<metadata
   id="metadata8">
utf-8utf-8<views>
utf-8utf-8utf-8<view
   h="1585.21431143"
   padding="0"
   w="1000">
utf-8utf-8utf-8utf-8<proj
   flip="auto"
   id="robinson"
   lon0="-80.0286400104" />























utf-8utf-8utf-8utf-8<bbox
   h="307.01"
   w="193.79"
   x="-1203.32"
   y="0.49" />























utf-8utf-8utf-8</view>























utf-8utf-8</views>























utf-8<rdf:rdf>
  <cc:work
     rdf:about="">
    <dc:format>image/svg+xml</dc:format>
    <dc:type
       rdf:resource="http://purl.org/dc/dcmitype/StillImage" />
  </cc:work>
</rdf:rdf>
<rdf:rdf>
  <cc:work
     rdf:about="">
    <dc:format>image/svg+xml</dc:format>
    <dc:type
       rdf:resource="http://purl.org/dc/dcmitype/StillImage" />
    <dc:title />
  </cc:work>
</rdf:rdf>
<rdf:RDF>
  <cc:Work
     rdf:about="">
    <dc:format>image/svg+xml</dc:format>
    <dc:type
       rdf:resource="http://purl.org/dc/dcmitype/StillImage" />
    <dc:title />
  </cc:Work>
</rdf:RDF>
</metadata>























utf-8<path
   inkscape:label=""
   inkscape:connector-curvature="0"
   style="fill:#ffffff;fill-opacity:1;stroke:#808080;stroke-width:0.49999982;stroke-miterlimit:4;stroke-dasharray:none;stroke-opacity:1"
   id="EDUCACION_NASCA"
   d="m 242.06319,368.40711 c -2.79305,-1.57478 -5.66048,-3.28599 -6.37202,-3.80236 l -1.29378,-0.93825 1.52385,-0.008 c 1.47,-0.007 1.52378,-0.13586 1.52378,-3.0061 0,-2.75618 -0.16035,-3.12009 -2.15222,-4.91677 -1.3651,-1.23104 -2.974,-2.07849 -4.40075,-2.31918 -2.54451,-0.42896 -4.40168,-1.95155 -2.38036,-1.95155 1.04984,0 1.17595,-0.31201 1.17595,-2.91513 l 0,-2.91492 -4.62118,-4.58741 -4.62098,-4.58745 -4.93098,-1.20603 -4.93084,-1.20597 -2.7089,-4.97656 c -6.21441,-11.41672 -6.80841,-12.2501 -10.04826,-14.09989 -2.99986,-1.7126 -3.50673,-2.58303 -2.71035,-4.65394 0.18425,-0.48115 0.7011,-0.87483 1.14689,-0.87483 0.44584,0 1.87063,-0.72776 3.16635,-1.61743 l 2.35573,-1.61735 1.54942,-7.53029 c 1.29397,-6.28973 1.45246,-7.91358 0.96227,-9.85607 -0.32254,-1.27859 -0.72127,-3.50693 -0.88552,-4.95152 -0.26813,-2.34975 -0.18254,-2.62636 0.79862,-2.62636 0.99803,0 1.09766,-0.38176 1.09766,-4.20604 0,-3.77991 0.0972,-4.16816 0.96971,-3.8318 3.17657,1.22621 3.77154,1.04514 4.76995,-1.45158 0.91471,-2.28709 0.9969,-2.34796 1.77524,-1.31167 0.80378,1.06994 0.89484,1.05929 5.96241,-0.71828 4.197,-1.47219 5.42137,-1.70096 6.63925,-1.23868 1.37818,0.52289 1.49304,0.80676 1.49304,3.69016 0,3.42579 -0.12026,3.36518 4.19564,2.13097 0.88994,-0.25538 1.61488,0.23959 3.22316,2.19838 1.14124,1.38984 2.41825,2.52685 2.83762,2.52685 1.04331,0 2.48776,-2.17574 2.48776,-3.74734 0,-1.02635 0.62324,-1.57467 3.04743,-2.68231 1.89583,-0.86634 3.0558,-1.74282 3.06922,-2.31952 0.004,-0.50965 0.36158,-0.14741 0.77664,0.80347 0.41514,0.95197 0.97613,1.86743 1.24722,2.03476 0.27025,0.16663 1.66622,-0.42499 3.10063,-1.31622 2.25357,-1.39979 3.14918,-1.61974 6.59322,-1.61974 l 3.98537,0 2.69774,-2.90268 c 2.5216,-2.71322 2.73661,-2.83061 3.2924,-1.79706 0.327,0.60819 1.35883,1.9144 2.29296,2.90276 1.37421,1.4544 2.12694,1.79698 3.94913,1.79698 1.65409,0 2.4358,0.29559 2.94593,1.10978 0.63354,1.01216 0.47459,1.21627 -1.80598,2.32187 l -2.50047,1.21204 0,3.67278 0,3.67278 3.55364,3.40509 c 1.95456,1.87269 3.77963,3.40522 4.05607,3.40522 0.27612,0 1.54118,-0.88767 2.81125,-1.97241 3.30779,-2.82546 3.83899,-1.88352 1.15884,2.05525 l -2.27046,3.336 1.44041,1.49995 c 1.09548,1.14118 1.44032,2.07048 1.44032,3.88252 l 0,2.38255 2.56416,-0.38372 c 1.4104,-0.21061 2.87045,-0.50084 3.24473,-0.64427 0.38812,-0.14906 1.64926,1.28114 2.93522,3.32822 l 2.25473,3.58813 -1.89785,1.44455 c -1.0437,0.79453 -1.89789,1.63728 -1.89789,1.87302 0,0.23642 1.11645,1.90248 2.4808,3.70422 2.42621,3.20367 2.4569,3.29547 1.39777,4.18362 -0.8548,0.71642 -1.05659,1.5079 -0.95713,3.75385 l 0.12642,2.84619 -5.26403,2.21062 c -3.95239,1.65956 -5.95395,2.88942 -8.03424,4.93457 -2.4652,2.4237 -3.21325,2.81625 -6.7883,3.56573 -3.29082,0.68961 -4.72776,1.36843 -7.94275,3.75221 -3.19465,2.36906 -4.43159,3.76235 -6.64852,7.4887 -2.11593,3.55725 -2.72346,5.10333 -2.72346,6.93081 0,2.11779 -0.30309,2.65023 -3.04759,5.355 -2.97032,2.92717 -3.04745,3.08142 -3.04745,6.08925 0,2.84044 -0.16502,3.24575 -2.07794,5.09434 l -2.07767,2.00824 -5.07847,-2.86359 0,0 z" />
<path
   inkscape:label=""
   inkscape:connector-curvature="0"
   style="fill:#ffffff;fill-opacity:1;stroke:#808080;stroke-width:0.49999982;stroke-miterlimit:4;stroke-dasharray:none;stroke-opacity:1"
   id="EDUCACION_PALPA"
   d="m 234.95159,270.58758 c -1.74112,-1.77923 -2.5584,-2.2115 -4.17998,-2.2115 -1.99127,0 -2.02405,-0.009 -2.69786,-3.04109 l -0.68181,-3.04105 -2.36224,0 c -1.29917,0 -3.95267,0.52115 -5.89696,1.15798 -2.98404,0.97732 -3.86134,1.05987 -5.63235,0.53079 -1.30488,-0.38999 -2.09769,-0.96571 -2.09769,-1.52244 0,-0.86723 4.80438,-5.69575 5.6673,-5.69575 0.23519,0 0.42734,-1.45844 0.42734,-3.2417 l 0,-3.24202 4.29423,-2.74027 4.29425,-2.74023 1.72733,-5.63642 1.72751,-5.63654 -1.20682,-0.96021 c -1.19328,-0.94962 -1.20192,-1.08045 -0.77705,-11.7303 0.37064,-9.29257 0.31225,-10.94976 -0.42916,-12.07929 -0.80279,-1.22251 -0.77846,-1.36523 0.36907,-2.1675 1.10931,-0.77512 1.19771,-1.18526 0.91225,-4.23469 -0.25577,-2.72923 -0.12543,-3.62873 0.6807,-4.69451 l 0.99666,-1.31848 2.7283,1.48178 2.72832,1.4819 3.1677,-1.39816 c 2.77243,-1.22367 3.16756,-1.28237 3.16756,-0.47313 0,0.50894 0.97514,2.07927 2.16686,3.4892 l 2.16674,2.56446 -1.89864,6.72315 c -1.88323,6.66895 -1.89066,6.74003 -0.91999,8.79164 0.74761,1.58034 1.54584,2.27733 3.38208,2.95341 l 2.4037,0.88478 -3.33213,1.4922 c -3.30799,1.48141 -3.34156,1.51985 -4.5521,5.21199 -0.67094,2.04594 -2.06839,5.42822 -3.10579,7.51639 -1.78331,3.59017 -1.83221,3.83933 -0.8992,4.57298 1.76209,1.38518 3.71231,2.25633 5.96607,2.66436 l 2.20859,0.39959 -2.02498,1.8521 -2.02502,1.85162 1.69646,6.57526 c 2.26736,8.78781 2.03627,10.1302 -2.09256,12.15068 -2.86441,1.40167 -3.01867,1.58471 -3.01867,3.57383 0,1.15319 -0.19809,2.09656 -0.442,2.09656 -0.24375,0 -1.41563,-0.99512 -2.60595,-2.21181 z" />
<path
   inkscape:label=""
   inkscape:connector-curvature="0"
   style="fill:#ffffff;fill-opacity:1;stroke:#808080;stroke-width:0.49999982;stroke-miterlimit:4;stroke-dasharray:none;stroke-opacity:1"
   id="EDUCACION_ICA"
   d="m 189.99053,299.22695 c -2.437,-2.48543 -4.63,-3.89275 -11.22499,-7.20317 -4.5081,-2.26283 -11.65517,-6.22625 -15.8826,-8.80758 -4.22744,-2.58162 -9.07051,-5.32608 -10.76214,-6.09895 -2.70202,-1.23429 -3.12092,-1.64421 -3.4458,-3.372 -0.33374,-1.77384 -0.72945,-2.13317 -4.03615,-3.66294 -2.01663,-0.93282 -3.82174,-1.9246 -4.01111,-2.20445 -0.18898,-0.27914 -0.65573,-2.7791 -1.03568,-5.55392 -0.60362,-4.40817 -0.93112,-5.33804 -2.59261,-7.36129 -1.64584,-2.00438 -1.94594,-2.84175 -2.22987,-6.22165 -0.27005,-3.21435 -0.54552,-4.04788 -1.55607,-4.70864 -0.67531,-0.44094 -2.3604,-1.78074 -3.74451,-2.9761 l -2.51669,-2.17341 1.88456,-0.8972 c 1.98779,-0.94588 2.06036,-1.09581 1.37705,-2.84194 -0.2927,-0.74957 0.0706,-2.15394 1.14667,-4.42351 2.16657,-4.57029 2.10778,-6.62224 -0.22305,-7.80312 -0.99048,-0.5015 -3.48379,-2.02014 -5.54091,-3.37412 -3.71261,-2.44393 -3.74015,-2.48053 -3.74015,-4.99052 0,-2.09167 0.47949,-3.27499 2.77389,-6.84394 1.52563,-2.37313 2.96911,-5.2528 3.20781,-6.39952 0.35823,-1.7186 0.74593,-2.17319 2.21297,-2.59333 2.04274,-0.58453 2.09084,-0.8943 0.91394,-5.8784 -0.60015,-2.54091 -1.35217,-4.11222 -2.56711,-5.36337 -1.69451,-1.74484 -1.70504,-1.78968 -0.74995,-3.24394 l 0.96821,-1.47509 -2.8276,-2.85721 -2.8278,-2.85724 1.43715,-4.26582 1.43727,-4.26585 5.9064,0.006 c 3.24856,0.004 10.14531,0.25104 15.32604,0.52584 l 9.41963,0.49904 9.30865,-3.38491 c 8.41359,-3.05948 9.67841,-3.6947 13.15271,-6.60574 l 3.84412,-3.22048 1.71598,3.39235 c 1.84581,3.64859 1.8837,3.49501 -1.28656,5.20799 -1.39407,0.7536 -1.52382,1.09809 -1.52382,4.05159 l 0,3.22825 2.63203,0.98534 c 1.44757,0.54217 4.05848,1.69551 5.80214,2.56339 2.17237,1.08115 4.01322,1.57798 5.8484,1.57798 2.59233,0 2.80853,0.13034 6.74333,4.07988 2.23581,2.24409 4.44906,4.71199 4.91866,5.48403 0.46928,0.77206 1.81063,1.9408 2.98044,2.59673 2.0694,1.16068 2.2308,1.16931 5.9651,0.32144 5.09192,-1.15573 5.42426,-1.11191 3.89262,0.51517 -1.27874,1.35832 -1.28338,1.40291 -0.23571,2.19444 0.58858,0.44413 1.81815,0.9565 2.73237,1.13806 l 1.66236,0.32985 -0.007,4.09587 c -0.006,3.50447 -0.21479,4.29369 -1.31781,5.46591 -1.25803,1.33604 -1.2674,1.42436 -0.38736,3.6197 0.75469,1.88187 0.89531,4.53198 0.86013,16.19981 -0.008,9.73794 -0.2531,14.53448 -0.74086,15.88562 -0.54634,1.51235 -1.49768,2.39362 -4.35685,4.03438 -3.61956,2.07716 -3.66419,2.13216 -4.27848,5.25269 -0.87408,4.44023 -0.76734,4.25467 -3.78227,6.57758 -2.89974,2.23438 -3.40344,3.46206 -3.41603,8.32562 l -0.002,2.34993 -3.12781,0 -3.12786,0 0.32446,3.87048 c 0.30072,3.5746 0.24375,3.87035 -0.75068,3.87035 -0.9701,0 -1.07605,0.40959 -1.07605,4.16624 0,2.9503 0.26891,4.57522 0.91967,5.56701 0.8699,1.32481 0.83552,1.77023 -0.64112,8.27862 -1.52636,6.72761 -1.61239,6.92094 -3.92183,8.8095 -1.29862,1.06175 -2.4523,1.93059 -2.56384,1.93059 -0.11165,0 -1.56557,-1.39022 -3.23128,-3.08903 l 0,0 z" />
<path
   inkscape:label=""
   inkscape:connector-curvature="0"
   style="fill:#ffffff;fill-opacity:1;stroke:#808080;stroke-width:0.49999982;stroke-miterlimit:4;stroke-dasharray:none;stroke-opacity:1"
   id="EDUCACION_CHINCHA"
   d="m 131.64204,131.37776 -4.00561,-4.23915 -7.0762,0.65274 c -5.44174,0.50206 -8.13321,1.04937 -11.65181,2.36961 l -4.57571,1.71692 0.26476,-2.8986 c 0.14571,-1.59438 0.39893,-6.40614 0.56215,-10.69257 l 0.29762,-7.79385 -2.77438,-5.9138 c -1.52584,-3.25271 -2.77423,-6.04106 -2.77423,-6.19617 0,-0.1554 0.77867,-0.55345 1.73062,-0.88443 1.46526,-0.50994 2.10222,-1.40109 4.15517,-5.815231 1.33371,-2.867084 2.57894,-6.128821 2.76752,-7.248143 0.31289,-1.855994 0.91101,-2.425717 6.78374,-6.458835 9.78605,-6.721071 18.36262,-15.416578 18.36262,-18.617763 0,-1.339956 0.13986,-1.316005 5.22998,0.892336 2.41329,1.046518 5.34038,2.064063 6.50491,2.260107 1.49508,0.252295 2.11733,0.636702 2.11733,1.30907 0,0.660839 0.88445,1.233502 2.89654,1.875661 l 2.89643,0.924558 1.97908,-1.928506 1.97916,-1.928259 3.18649,0.638243 c 2.56143,0.513894 3.119,0.812462 2.84233,1.524586 -0.97556,2.510337 -1.22203,6.645021 -0.95577,16.030988 0.34242,12.037428 0.15758,12.777197 -3.16467,12.777197 -1.88412,0 -2.43558,0.328721 -4.40458,2.626661 -2.76364,3.22452 -5.59274,8.82056 -5.59274,11.06235 l 0,1.66566 4.57123,0.63553 c 6.96315,0.96783 7.3517,1.08835 8.98021,2.78462 l 1.51711,1.58016 -2.30462,2.23192 c -1.26738,1.22716 -3.17803,2.51899 -4.24581,2.87103 -1.75125,0.57625 -1.86154,0.72841 -1.1269,1.55187 0.72608,0.81393 0.59669,1.28812 -1.19157,4.36859 -1.7021,2.93234 -2.23971,3.45576 -3.54872,3.45576 -1.50051,0 -1.54278,0.0835 -1.54278,3.04101 0,1.67258 -0.18724,3.04111 -0.41575,3.04111 -0.22828,-2e-4 -2.38182,-0.37504 -4.78518,-0.83445 -4.35963,-0.8325 -4.3757,-0.83109 -6.85746,0.5532 -1.36827,0.76293 -2.51867,1.35575 -2.55641,1.31704 -0.009,-0.009 -1.8713,-1.97743 -4.07442,-4.30877 l 0,0 z" />
<path
   style="fill:#ffffff;fill-opacity:1;fill-rule:evenodd;stroke:#808080;stroke-width:0.49999982;stroke-linecap:butt;stroke-linejoin:miter;stroke-miterlimit:4;stroke-dasharray:none;stroke-opacity:1"
   d="m 123.48197,236.03656 2.61484,-1.80509 0.80458,-4.81366 1.60906,-5.61588 -7.44218,-5.81642 -2.81582,-2.00565 -1.00581,-4.61306 3.01716,-6.61874 2.81585,-4.81361 2.61481,-4.81355 1.40808,-0.20052 -0.20073,-2.40683 -0.40226,-3.20909 -2.41372,-2.808 -1.40801,-2.20614 1.0057,-3.4097 -2.01141,-2.00574 -3.62044,-3.00842 2.4136,-7.22038 2.01143,-4.81373 9.0513,0.80238 18.30364,1.00283 4.22391,0 12.26954,-4.4124 10.45924,-5.41541 3.01707,-4.21189 2.81598,-1.60456 0.80457,-2.4068 4.42515,-5.61586 1.20675,-1.80507 -1.81023,-3.81086 1.00564,-4.61303 3.01716,-2.20635 1.81025,-12.43506 -2.61474,-8.02261 -2.81606,-0.40101 -9.25228,1.60459 -7.8446,3.40966 -3.82165,2.20621 -6.23531,6.41812 -1.20692,0.40092 -2.81586,7.01973 -3.62052,3.81086 -0.80458,3.00842 -1.40797,2.60751 -5.22957,0 -2.21258,-1.80514 -3.62054,0.60171 -4.2239,2.80789 -3.62052,-3.61016 -3.82162,-4.4125 -1.60907,-1.20337 -7.44218,1.20337 -5.63188,0.80227 -6.83886,2.80788 -4.02275,0.60166 -1.00565,10.02848 -1.81032,7.62148 -3.218194,6.81932 0,4.21185 -2.815994,1.00286 -4.626179,-2.20627 1.407944,-5.61584 -5.028489,1.20333 -3.620438,1.40407 -1.005772,3.00844 -2.212582,1.80513 -1.206761,5.21475 2.212595,2.60739 5.229583,1.20338 5.832995,-1.20338 0.804551,4.01138 1.810235,1.60447 0.603458,4.61312 -0.20071,3.81066 0,4.0114 -1.206781,11.63286 -0.603434,6.61871 6.034214,-7.22038 4.626209,5.21479 7.44222,7.62156 3.62037,6.21752 -3.82155,4.21187 2.21253,4.21204 4.02272,1.20338 3.62047,4.41245 z"
   id="EDUCACION_PISCO"
   inkscape:connector-curvature="0"
   inkscape:label="" />
</svg>
