<?xml version="1.0" encoding="UTF-8" standalone="no"?>
<!--?xml version="1.0" encoding="UTF-8" standalone="no"?-->

<!--?xml version="1.0" encoding="UTF-8" standalone="no"?-->

<!--
************* Copyright (c) 2015 Pareto Softare, LLC DBA Simplemaps.com *******************		
************* Free for Commercial Use, full terms at  http://simplemaps.com/resources/svg-license ************
************* Attribution is appreciated! http://simplemaps.com ***************************
-->

<svg
   xmlns:dc="http://purl.org/dc/elements/1.1/"
   xmlns:cc="http://creativecommons.org/ns#"
   xmlns:rdf="http://www.w3.org/1999/02/22-rdf-syntax-ns#"
   xmlns:svg="http://www.w3.org/2000/svg"
   xmlns="http://www.w3.org/2000/svg"
   xmlns:sodipodi="http://sodipodi.sourceforge.net/DTD/sodipodi-0.dtd"
   xmlns:inkscape="http://www.inkscape.org/namespaces/inkscape"
   enable_background="new 0 0 1000 1585"
   height="549.01257"
   pretty_print="True"
   style="fill:none;stroke:#000000;stroke-linejoin:round"
   version="1.1"
   viewBox="0 0 354.46857 549.01257"
   width="354.46857"
   id="svg2"
   inkscape:version="0.91 r13725"
   sodipodi:docname="Junín.svg"><sodipodi:namedview
   pagecolor="#ffffff"
   bordercolor="#666666"
   borderopacity="0.05098039"
   objecttolerance="10"
   gridtolerance="10"
   guidetolerance="10"
   inkscape:pageopacity="0"
   inkscape:pageshadow="2"
   inkscape:window-width="1920"
   inkscape:window-height="1017"
   id="namedview37"
   showgrid="false"
   inkscape:zoom="1.6398134"
   inkscape:cx="310.72109"
   inkscape:cy="353.32658"
   inkscape:window-x="-8"
   inkscape:window-y="-8"
   inkscape:window-maximized="1"
   inkscape:current-layer="svg2"
   showborder="true"
   fit-margin-top="10"
   fit-margin-left="10"
   fit-margin-right="10"
   fit-margin-bottom="10"
   borderlayer="false"
   inkscape:showpageshadow="false"
   inkscape:snap-to-guides="false"
   inkscape:snap-grids="false"
   showguides="false" />
























utf-8<defs
   id="defs4">
  <style
     type="text/css"
     id="style6">path { fill-rule: evenodd; }utf-8utf-8</style>
</defs>
























utf-8<metadata
   id="metadata8">
utf-8utf-8<views>
utf-8utf-8utf-8<view
   h="1585.21431143"
   padding="0"
   w="1000">
utf-8utf-8utf-8utf-8<proj
   flip="auto"
   id="robinson"
   lon0="-80.0286400104" />
























utf-8utf-8utf-8utf-8<bbox
   h="307.01"
   w="193.79"
   x="-1203.32"
   y="0.49" />
























utf-8utf-8utf-8</view>
























utf-8utf-8</views>
























utf-8<rdf:rdf>
  <cc:work
     rdf:about="">
    <dc:format>image/svg+xml</dc:format>
    <dc:type
       rdf:resource="http://purl.org/dc/dcmitype/StillImage" />
  </cc:work>
</rdf:rdf>
<rdf:rdf>
  <cc:work
     rdf:about="">
    <dc:format>image/svg+xml</dc:format>
    <dc:type
       rdf:resource="http://purl.org/dc/dcmitype/StillImage" />
    <dc:title />
  </cc:work>
</rdf:rdf>
<rdf:RDF>
  <cc:Work
     rdf:about="">
    <dc:format>image/svg+xml</dc:format>
    <dc:type
       rdf:resource="http://purl.org/dc/dcmitype/StillImage" />
    <dc:title />
  </cc:Work>
</rdf:RDF>
</metadata>
























utf-8<path
   inkscape:label=""
   inkscape:connector-curvature="0"
   style="fill:#ffffff;fill-opacity:1;stroke:#808080;stroke-width:0.49999997;stroke-miterlimit:4;stroke-dasharray:none;stroke-opacity:1"
   id="EDUCACION_CONCEPCION"
   d="m 150.92362,243.60164 c -0.064,-0.0537 0.55917,-0.63316 1.38451,-1.28895 1.43115,-1.1372 1.58628,-1.1729 3.34975,-0.76785 1.01694,0.23324 1.95942,0.31359 2.09436,0.17849 0.13514,-0.13495 0.0778,-2.07238 -0.12758,-4.30471 -0.33613,-3.66014 -0.51035,-4.274 -1.77409,-6.25615 l -1.40131,-2.19738 1.2747,-1.33126 c 0.76651,-0.80051 1.69359,-2.50704 2.32543,-4.28086 1.96777,-5.52394 2.79442,-6.64005 6.31907,-8.52965 1.72498,-0.92484 3.75377,-1.79298 4.50832,-1.92935 0.96563,-0.17415 2.12692,-0.98097 3.92013,-2.72225 1.76555,-1.71437 2.96964,-2.5552 3.92018,-2.73802 0.75483,-0.14614 1.6745,-0.34916 2.04392,-0.45333 0.48296,-0.13592 0.83552,0.20489 1.25508,1.21171 0.36934,0.88668 0.98612,1.54875 1.68043,1.8034 0.60349,0.22118 1.34959,0.49217 1.6581,0.60232 0.39411,0.14057 -0.10652,0.87699 -1.68335,2.4754 -1.78146,1.80598 -2.36099,2.71528 -2.81048,4.40946 -0.88293,3.32848 -0.82833,3.51046 1.05282,3.51046 1.41615,0 1.898,-0.25605 3.70065,-1.96627 1.13996,-1.08161 2.34578,-1.96629 2.67983,-1.96629 0.33419,0 2.82417,1.49917 5.53385,3.33165 4.51386,3.0531 5.19006,3.3823 8.07556,3.93147 1.7319,0.32936 3.28547,0.68406 3.45235,0.78737 0.16644,0.10312 0.5272,0.98947 0.8006,1.96943 0.48127,1.72453 0.46429,1.8068 -0.53437,2.59492 -0.56715,0.44756 -1.03135,1.20597 -1.03135,1.68526 0,0.63639 -0.5871,1.22845 -2.17438,2.19365 -1.91157,1.16232 -2.14999,1.44571 -1.97338,2.34445 0.11046,0.5623 0.3076,1.65049 0.43892,2.41785 l 0.23857,1.39551 -3.122,-0.36489 -3.12201,-0.36496 -1.74569,1.33722 -1.74568,1.33719 0.53895,1.56108 c 0.60857,1.76397 0.63769,1.72267 -2.56512,3.62679 l -1.70727,1.01495 -2.18748,-1.07636 -2.1876,-1.07626 -0.68448,0.91044 c -0.77232,1.02744 -0.80355,1.01176 -1.50049,-0.74503 -0.39309,-0.99032 -0.69199,-1.23638 -1.34172,-1.10434 -0.45995,0.0943 -1.49974,0.27707 -2.31082,0.40795 -1.35469,0.21888 -1.58278,0.45407 -2.80904,2.89669 -0.73407,1.46221 -1.61109,2.88892 -1.94926,3.17024 -0.52384,0.43643 -0.6692,0.36758 -0.98474,-0.46527 l 0,0 c -0.20409,-0.53734 -0.57029,-1.72157 -0.81445,-2.63197 -0.32908,-1.22714 -0.59873,-1.59542 -1.04178,-1.42483 -0.32865,0.12668 -1.50851,0.33386 -2.62222,0.46047 l -2.02475,0.23063 -1.76404,-2.38575 c -1.9692,-2.66326 -1.69065,-2.58866 -6.86046,-1.83939 -1.05803,0.15393 -2.02685,0.2782 -2.69942,0.35207 l -2.47043,3.71096 c -0.42786,1.4116 -1.62999,3.83716 -2.30334,4.36858 -0.76649,0.60464 -0.95525,1.11363 -0.95525,2.57364 0,1.55982 -0.1408,1.88411 -0.98008,2.26804 -0.53904,0.24652 -0.9801,0.61967 -0.9801,0.82937 0,0.21019 0.61118,1.23498 1.35814,2.27804 l 1.35804,1.89635 -1.54987,1.33114 c -0.8525,0.73186 -3.19411,2.24469 -5.20374,3.36149 -3.09243,1.71864 -3.98127,2.03518 -5.78636,2.06037 -2.06143,0.009 -3.6394,0.45255 -5.26087,1.41277 -0.74691,0.44226 -0.74983,0.48825 -0.075,1.2364 0.68473,0.75905 0.60962,0.85644 -3.24243,4.20261 -2.16879,1.88425 -3.93907,3.62846 -3.93395,3.87644 0.002,0.24826 0.17157,1.15356 0.37013,2.01263 0.19846,0.85902 0.32666,1.58502 0.28428,1.61315 -0.0412,0.009 -0.82036,-0.52727 -1.72969,-1.23395 l 2e-5,0 c -1.69851,-1.32044 -5.42273,-2.92437 -6.78978,-2.92437 -0.66202,0 -0.76921,-0.27509 -0.76921,-1.96977 0,-1.91421 -0.0421,-1.98654 -1.49246,-2.56851 -1.18973,-0.47756 -1.70672,-1.03733 -2.54826,-2.75877 -0.61744,-1.26301 -1.05568,-2.81969 -1.05568,-3.75041 0,-1.46843 0.0679,-1.56965 0.88203,-1.31703 0.48512,0.14989 1.55222,0.61286 2.37139,1.02739 l 1.48924,0.7538 1.52865,-1.21452 1.52864,-1.21467 1.9673,1.00031 c 2.23509,1.13627 3.12373,1.19286 6.68218,0.42793 2.04639,-0.4402 2.74072,-0.7963 3.61564,-1.85444 0.59573,-0.72016 1.08784,-1.49042 1.09369,-1.71165 0.003,-0.22118 -0.51164,-1.03751 -1.14985,-1.81426 l -1.16048,-1.41215 0.99597,-0.93885 c 0.97639,-0.92001 1.00693,-0.92372 1.55252,-0.17597 0.30603,0.42003 0.55637,0.90669 0.55637,1.08152 0,0.17508 0.5223,0.3184 1.16042,0.3184 0.78902,0 2.47422,-0.88953 5.26641,-2.77964 2.25831,-1.52893 4.30676,-3.02247 4.55209,-3.31895 0.35701,-0.43104 0.0478,-0.76671 -1.53774,-1.67572 l -1.98366,-1.13636 3.22298,-0.4951 c 2.85836,-0.43912 3.40488,-0.66316 4.83155,-1.98239 1.06407,-0.98403 2.07149,-1.78648 2.80339,-2.25818 z" />
<path
   inkscape:label=""
   inkscape:connector-curvature="0"
   style="fill:#ffffff;fill-opacity:1;stroke:#808080;stroke-width:0.49999997;stroke-miterlimit:4;stroke-dasharray:none;stroke-opacity:1"
   id="EDUCACION_CHUPACA"
   d="m 121.04995,304.48512 c 0,-3.5754 -0.009,-3.68989 -1.20402,-4.81763 -0.66215,-0.63523 -1.722,-2.12855 -2.35508,-3.31807 -0.63314,-1.18975 -2.2918,-3.66742 -3.68599,-5.50605 -2.20792,-2.91198 -2.53613,-3.56336 -2.54516,-5.05314 -0.003,-1.39389 0.20323,-1.91073 1.14516,-2.79345 0.63549,-0.59547 1.29712,-0.95626 1.47022,-0.80133 0.17335,0.15503 0.92585,0.48691 1.67321,0.73759 0.74734,0.25059 2.43128,1.15724 3.742,2.01391 1.31074,0.8567 2.9757,1.67671 3.6999,1.82178 l 1.31672,0.26373 -0.25784,-2.52543 -0.25807,-2.52549 3.73483,-3.72975 c 3.30854,-3.30446 3.70814,-3.85179 3.50175,-4.7971 -0.26937,-1.23374 -0.45745,-1.16155 5.44353,-2.08086 2.95094,-0.45976 4.17071,-0.84127 5.19433,-1.62445 l 1.33783,-1.02371 0,1.38038 c 0,1.14212 0.16798,1.42299 0.9732,1.62577 0.53523,0.13537 1.68184,0.13062 2.54812,-0.004 1.50289,-0.24026 1.57491,-0.20511 1.57491,0.78076 0,0.97792 0.10542,1.0335 1.96015,1.0335 l 1.9601,0 0,3.93283 0,3.93297 -1.55237,0 c -1.48198,0 -1.57454,0.0725 -2.0422,1.64014 -0.47324,1.58474 -0.43501,1.74429 1.12399,4.70055 l 1.61398,3.06039 -1.23781,0.93145 c -1.91623,1.44223 -2.14986,1.52983 -2.94277,1.10434 -0.60856,-0.32692 -1.30702,0.005 -3.90474,1.92691 -3.00437,2.20775 -3.16963,2.40802 -3.28523,3.98087 -0.11579,1.57618 -0.23491,1.71986 -2.47366,2.97365 -1.2937,0.72437 -3.05785,1.52434 -3.92025,1.77763 -0.86246,0.25291 -2.37916,1.04379 -3.37062,1.75686 -1.2463,0.89641 -2.85369,1.54229 -5.20941,2.09309 -1.87384,0.43872 -3.4884,0.79719 -3.58793,0.79719 -0.0998,0 -0.18091,-1.64829 -0.18091,-3.66245 z" />
<path
   inkscape:label=""
   inkscape:connector-curvature="0"
   style="fill:#ffffff;fill-opacity:1;stroke:#808080;stroke-width:0.49999997;stroke-miterlimit:4;stroke-dasharray:none;stroke-opacity:1"
   id="EDUCACION_HUANCAYO"
   d="m 128.17891,336.0379 c -0.0398,-0.36129 -0.98986,-1.66339 -2.11094,-2.89385 -2.21561,-2.4321 -2.15326,-2.41755 -6.48808,-1.52857 -1.55656,0.31877 -1.61491,-0.0857 -0.29371,-2.03747 0.53904,-0.79677 0.98009,-1.99268 0.98009,-2.65714 0,-0.88617 0.43029,-1.6484 1.61284,-2.85719 l 1.61299,-1.64878 -1.22096,-3.67648 c -0.74589,-2.24588 -1.22092,-4.47959 -1.22092,-5.7402 l 0,-2.06394 2.29621,0 c 2.08478,0 3.01411,-0.34061 10.09458,-3.69941 l 7.79847,-3.69929 0.19574,-1.90486 0.19595,-1.9048 2.94003,-1.48298 c 1.61721,-0.81596 4.06415,-1.69156 5.43767,-1.94656 l 2.49766,-0.46341 -0.19888,-2.20492 c -0.12409,-1.37882 -0.67119,-3.14298 -1.45879,-4.70794 l -1.25941,-2.50314 0.92124,-0.72852 c 0.50682,-0.40049 1.40652,-1.02828 1.99957,-1.39457 1.0775,-0.66531 1.07803,-0.66817 1.07803,-5.30016 l 0,-4.63471 -2.08998,0 c -1.82796,0 -2.15557,-0.12298 -2.61431,-0.98314 -0.44834,-0.8406 -0.7995,-0.98326 -2.41843,-0.98326 -1.72997,0 -1.89387,-0.0796 -1.89387,-0.93019 0,-1.32702 1.29277,-2.79863 3.32564,-3.78608 l 1.75448,-0.85219 -2.16464,-2.72179 c -2.02924,-2.5513 -2.10508,-2.72177 -1.21031,-2.72177 0.8371,0 1.02189,-0.27786 1.50247,-2.26141 0.48516,-2.00197 0.6698,-2.27564 1.6103,-2.38576 0.99421,-0.11556 1.06238,-0.24856 1.06238,-2.05681 0,-1.06271 0.27489,-2.62035 0.60985,-3.4612 0.59653,-1.49562 0.67831,-1.54391 3.76944,-2.21376 l 3.15959,-0.68473 2.66098,2.64898 2.66095,2.649 1.87198,-0.64003 c 1.0295,-0.35168 1.90952,-0.63978 1.9555,-0.63978 0.0463,0 0.20091,0.48663 0.3438,1.08165 0.99903,4.15209 0.9244,4.03129 2.48605,4.02716 1.37275,0 1.55424,-0.16055 3.2145,-2.77254 0.96759,-1.52261 2.13849,-3.12588 2.60192,-3.5625 l 0.84245,-0.79394 1.41566,1.2469 c 1.3231,1.1656 1.69082,1.26999 5.63048,1.60179 l 4.2149,0.35452 2.44132,-2.65622 c 1.54206,-1.67772 2.35852,-2.87344 2.21649,-3.24609 -0.12384,-0.32418 -0.30659,-0.79001 -0.40725,-1.03466 -0.26848,-0.65361 2.01338,-1.34593 5.29986,-1.60833 l 2.88603,-0.23038 -0.2549,-2.25641 -0.25485,-2.25706 1.97473,-1.2191 c 1.78213,-1.09987 1.97479,-1.35725 1.97479,-2.63779 l 0,-1.41854 2.45011,0.26775 c 1.34752,0.1476 3.11169,0.45831 3.92039,0.69112 l 1.46999,0.42274 0,2.52398 c 0,2.4016 0.0978,2.66485 2.02461,5.43319 1.63727,2.35244 2.14877,3.49466 2.67271,5.96775 0.55045,2.5985 0.77658,3.07741 1.50352,3.18433 0.75686,0.11186 0.85548,0.36751 0.85548,2.22557 l 0,2.10021 2.05815,-0.54967 c 1.13205,-0.30247 2.25788,-0.55175 2.50203,-0.55427 0.24443,0 1.1704,1.11371 2.05823,2.48068 1.40355,2.16102 1.61412,2.77281 1.61412,4.68693 l 0,2.20146 -1.97681,0.42525 c -1.72642,0.37171 -2.17136,0.32601 -3.51258,-0.36044 -1.20848,-0.61867 -2.31024,-0.78644 -5.16939,-0.78644 l -3.63367,0 -3.1683,3.16212 -3.16817,3.16178 -5.07246,0.40305 c -3.97255,0.31553 -5.45487,0.59889 -6.83656,1.30756 l -1.76406,0.90481 -2.98844,-1.53745 c -1.64348,-0.84599 -3.72398,-2.16968 -4.62309,-2.94195 l -1.6347,-1.40367 -3.34973,0.28014 c -3.12409,0.26108 -3.3886,0.22396 -3.92564,-0.5449 -0.47985,-0.68723 -0.98049,-0.82408 -3.00374,-0.82137 l -2.42799,0 -1.47002,2.2895 -1.47006,2.28942 0,6.78801 c 0,6.16002 0.0685,6.84831 0.73979,7.44069 0.40698,0.35928 0.92946,1.23536 1.16109,1.94682 0.41517,1.27504 0.37971,1.33328 -2.50398,4.08101 l -2.92508,2.78751 0,2.17092 c 0,1.92662 -0.16527,2.37352 -1.47018,3.97028 -1.19319,1.46039 -1.50822,2.20877 -1.6727,3.97328 l -0.20279,2.17417 -0.71322,-1.32418 c -0.64566,-1.19915 -0.84013,-1.30357 -2.05754,-1.10545 -1.45756,0.2374 -2.87603,1.20275 -4.14432,2.8201 -0.61723,0.78735 -0.85435,1.81199 -1.01438,4.38548 l -0.2084,3.35823 -1.75679,-0.26378 c -0.96612,-0.14614 -1.95471,-0.33855 -2.19663,-0.43002 -0.24162,-0.0921 -0.74042,0.36601 -1.10767,1.01481 -0.60139,1.06296 -0.86135,1.1808 -2.61115,1.1808 -1.91276,0 -1.95682,0.009 -2.78953,1.75329 -1.48295,3.07288 -9.48216,11.61812 -12.63273,13.4948 -0.88876,0.5293 -1.08297,0.95335 -1.20157,2.62211 -0.0782,1.09449 -0.17353,1.69497 -0.21455,1.3338 l 0,0 z" />
<path
   inkscape:label=""
   inkscape:connector-curvature="0"
   style="fill:#ffffff;fill-opacity:1;stroke:#808080;stroke-width:0.49999997;stroke-miterlimit:4;stroke-dasharray:none;stroke-opacity:1"
   id="EDUCACION_YAULI_-_LA_OROYA"
   d="m 64.320836,253.69401 c -0.06308,-2.01282 -0.178196,-2.22563 -2.632976,-4.88615 -1.411917,-1.5298 -3.173758,-3.86976 -3.9152,-5.19991 -1.13406,-2.03433 -1.665146,-2.56731 -3.345709,-3.35709 -1.122864,-0.52729 -2.223615,-1.37602 -2.513752,-1.93732 -0.283718,-0.54966 -1.223942,-1.80492 -2.08899,-2.79001 l -1.572676,-1.79035 1.33074,-4.89531 c 0.731922,-2.69249 1.333705,-5.11599 1.33737,-5.38569 0.0029,-0.26996 -0.803772,-1.59728 -1.794239,-2.94969 -1.717691,-2.34527 -1.894357,-2.47098 -3.822335,-2.71526 -4.282183,-0.54244 -4.739854,-0.46074 -5.290409,0.94435 l -0.500734,1.27797 -4.28945,-4.49176 -4.289519,-4.49232 0,-2.68836 0,-2.6886 -1.553078,-0.62342 c -1.503564,-0.6035 -1.534232,-0.65255 -0.958287,-1.53441 0.557913,-0.85406 0.483628,-1.13281 -1.195019,-4.48588 -1.616371,-3.22884 -1.896385,-3.57518 -2.889811,-3.57518 -0.958321,0 -1.245001,-0.30436 -2.224722,-2.36082 l -1.124656,-2.3605 1.052618,-1.10201 c 0.578914,-0.60629 1.048758,-1.26954 1.04415,-1.47396 -0.0036,-0.20512 -0.698321,-0.86136 -1.541627,-1.45985 -1.323109,-0.93882 -1.59532,-1.39691 -1.986205,-3.34294 -0.249502,-1.24012 -0.780111,-3.75499 -1.179844,-5.58869 l -0.726828,-3.33392 1.058561,-1.97543 1.058586,-1.97536 7.181333,0.0617 c 3.949746,0.009 7.270443,0.15287 7.379302,0.26168 0.10933,0.11005 0.408889,1.05423 0.66661,2.10023 0.443147,1.79868 0.603376,1.97013 2.96881,3.17939 2.155435,1.10199 2.911039,1.28037 5.477707,1.29433 l 2.977288,0.004 0.85871,1.852 c 0.697498,1.5042 4.433604,11.75193 4.433604,12.16079 0,0.0625 0.441066,0.11453 0.980188,0.11453 0.877462,0 0.980002,0.16054 0.980002,1.5303 0,1.41835 0.114887,1.57683 1.568076,2.16021 1.255659,0.50403 1.568051,0.82904 1.568051,1.63249 0,0.65294 0.643885,1.69379 1.844539,2.98125 2.159429,2.31622 1.940943,2.31355 9.034108,0.11477 4.074204,-1.2629 4.410304,-1.44159 4.410304,-2.34679 0,-0.94869 0.01216,-0.96156 1.107421,-0.40523 1.196407,0.62042 3.637062,3.16379 4.389002,4.57349 0.484604,0.90826 0.04365,1.5378 -1.086189,1.55195 -0.314292,0 -0.489997,0.60664 -0.489997,1.68227 0,1.33818 0.171223,1.75508 0.849568,2.06486 0.482305,0.22101 1.662083,1.91638 2.728806,3.92265 1.456704,2.74005 2.124886,3.61229 2.972587,3.88101 0.601441,0.19072 1.98277,1.21205 3.069548,2.26995 1.392135,1.35523 2.099026,1.80081 2.391687,1.50675 0.292529,-0.29299 0.896199,0.58794 2.041735,2.98305 0.894479,1.87002 2.676093,4.97475 3.959408,6.89916 1.283238,1.92492 2.514302,4.15759 2.735587,4.96184 0.351743,1.27845 0.29351,1.58766 -0.461679,2.46116 -2.354393,2.72187 -4.036247,4.34198 -4.507586,4.34198 -0.287224,0 -1.240685,0.36757 -2.118977,0.81737 l -1.59707,0.81726 -1.054918,-1.01407 c -0.912471,-0.877 -1.398863,-1.01385 -3.600187,-1.01385 -2.429532,0 -2.611119,0.0676 -3.996849,1.49148 l -1.451572,1.49117 0,4.0639 0,4.06376 -1.274096,-0.27113 c -3.494492,-0.74365 -3.556238,-0.73536 -5.464803,0.72878 -1.638326,1.25691 -2.094751,1.41062 -4.190548,1.41062 l -2.352025,0 -0.154175,1.4749 c -0.124044,1.18773 -0.16627,1.06507 -0.219353,-0.62987 l 0,0 z" />
<path
   inkscape:label=""
   inkscape:connector-curvature="0"
   style="fill:#ffffff;fill-opacity:1;stroke:#808080;stroke-width:0.49999997;stroke-miterlimit:4;stroke-dasharray:none;stroke-opacity:1"
   id="EDUCACION_PROVINCIA_DE_JUNIN"
   d="m 57.296871,154.98895 1.616901,-3.08832 c 1.346647,-2.57186 1.813489,-3.13166 2.793027,-3.34814 0.747945,-0.16516 2.281608,-1.38263 4.213273,-3.3442 l 3.037321,-3.08411 2.451084,2.96439 c 2.343206,2.83362 2.510804,2.95454 3.810084,2.75029 0.747587,-0.11847 1.875823,-0.59709 2.507089,-1.06542 l 1.147922,-0.85144 2.001264,0.91469 c 3.969894,1.81446 6.284591,1.03143 7.492693,-2.53433 0.410999,-1.2129 0.843038,-2.20867 0.960022,-2.21298 0.116971,0 1.977006,-0.25896 4.133034,-0.56653 l 3.920224,-0.55895 0.784079,0.91326 0.784079,0.91309 5.328443,-0.61407 5.32842,-0.61367 1.43398,-2.05871 c 1.14381,-1.64205 1.43403,-2.4233 1.43403,-3.86207 0,-2.0939 0.13382,-2.13774 3.56833,-1.17082 1.23615,0.34773 2.83552,1.14343 3.55394,1.76813 l 1.30615,1.13508 -1.45993,1.28004 -1.45982,1.27979 0.57763,4.0984 c 0.36332,2.57793 0.81827,4.36519 1.22653,4.81779 0.60395,0.66944 0.604,0.71926 3.7e-4,0.71926 -0.50769,0 -0.64883,0.38536 -0.64883,1.76991 l 0,1.76987 -9.04038,0 -9.04023,0 -3.197546,2.7763 c -2.38336,2.06971 -3.400434,2.72046 -3.994479,2.55628 -3.22583,-0.89232 -3.405446,-0.83723 -5.898009,1.79772 -1.884173,1.99178 -2.207068,2.51006 -1.636462,2.6253 0.570859,0.11558 0.416506,0.36421 -0.78402,1.26188 -1.391692,1.04062 -1.497674,1.26265 -1.534172,3.21079 -0.0082,1.15099 -0.26991,2.84495 -0.552102,3.76436 -0.482675,1.5731 -0.598316,1.67137 -1.965626,1.67137 -1.44728,0 -1.459428,0.004 -3.25322,3.73619 l -1.800464,3.73624 -2.761115,0 c -2.456164,0 -2.761065,0.084 -2.761065,0.75107 0,0.41306 1.146662,2.29402 2.548178,4.17988 1.401493,1.88596 2.548166,3.63125 2.548166,3.87883 0,0.24704 0.525775,1.08993 1.168495,1.87201 1.165487,1.41857 1.166229,1.42277 0.294247,1.6573 -0.481035,0.12929 -1.946356,0.23764 -3.256414,0.24027 -2.058292,0.004 -2.5108,0.1442 -3.332184,1.03052 -0.522553,0.56368 -1.819184,1.52537 -2.880892,2.13753 -1.811792,1.04384 -2.000097,1.07649 -3.05576,0.52881 -1.069801,-0.55485 -1.198407,-0.52518 -2.622867,0.60659 -1.399888,1.1122 -1.534866,1.14574 -2.065169,0.51074 l 0,0 c -1.130614,-1.35412 -1.838536,-2.75611 -2.101454,-4.16143 -0.147562,-0.78852 -0.494906,-1.43388 -0.771914,-1.43388 -0.69577,0 -2.522785,-2.16249 -4.282215,-5.0681 -1.238414,-2.04528 -1.453226,-2.71867 -1.336451,-4.19034 0.133076,-1.6724 0.09052,-1.75358 -0.906465,-1.75358 l -1.045363,0 0.519331,-1.97516 0.519386,-1.97508 -1.358967,-0.56919 c -1.178139,-0.49416 -1.303999,-0.67269 -0.946772,-1.34226 0.583201,-1.0933 0.529688,-1.21741 -0.525562,-1.21741 -0.685316,0 -1.007116,-0.27813 -1.196156,-1.03369 -0.142502,-0.56814 -0.835376,-1.94001 -1.540194,-3.04799 -1.260089,-1.9802 -1.273151,-2.04743 -0.771656,-3.98052 0.691109,-2.6639 0.655921,-3.24907 -0.265479,-4.42452 -0.779308,-0.99387 -1.606018,-3.41957 -2.546902,-7.47241 -0.463251,-1.99562 -0.451521,-2.06381 0.351284,-2.03516 l 2.344255,-0.45006 c 0.673596,-0.17992 0.910951,0.004 1.206759,0.94629 0.202197,0.64345 0.966872,1.77048 1.698449,2.5044 l 1.330055,1.33439 2.177784,-1.23302 c 2.185995,-1.23754 2.829904,-1.16774 2.847915,0.30996 0.0029,0.31066 0.584273,0.49179 1.574196,0.49179 1.066774,0 1.568069,0.17165 1.568069,0.53912 z" />
<path
   inkscape:label=""
   inkscape:connector-curvature="0"
   style="fill:#ffffff;fill-opacity:1;stroke:#808080;stroke-width:0.49999997;stroke-miterlimit:4;stroke-dasharray:none;stroke-opacity:1"
   id="EDUCACION_JAUJA"
   d="m 93.733662,266.18755 c -1.07803,-0.62069 -2.254011,-1.13263 -2.613405,-1.13745 -0.359556,0 -0.976781,-0.42856 -1.372021,-0.94103 -1.161278,-1.5047 -8.261144,-3.13668 -13.196657,-3.03267 -4.034338,0.0857 -4.699153,-0.11465 -6.837527,-2.06336 l -0.89032,-0.81099 1.855661,-1.88988 c 1.020595,-1.03943 2.179727,-1.89005 2.575855,-1.89005 1.058411,0 2.856438,-1.02666 3.714303,-2.12081 0.743027,-0.94763 0.77417,-0.95158 3.268824,-0.41499 1.38532,0.29787 2.73923,0.54791 3.008799,0.55552 0.36098,0.004 0.490051,-1.05091 0.490051,-4.03582 l 0,-4.04951 1.469883,-1.40017 c 2.288508,-2.17948 3.272731,-2.23482 5.392978,-0.30471 0.761226,0.69295 0.898079,0.69124 4.230308,-0.0552 3.723474,-0.83248 3.446306,-0.62884 7.445146,-5.46496 l 1.77611,-2.14762 -0.9899,-1.98188 c -0.54443,-1.08977 -1.82042,-3.22031 -2.83537,-4.73453 -1.8847,-2.81181 -2.746838,-4.33098 -4.511189,-7.94915 L 94.715583,218.26828 96.184787,217.9 c 3.574205,-0.89718 3.385968,-0.92901 4.417713,0.7459 l 0.96074,1.55921 3.99333,0 3.99321,0 0.45288,1.3767 c 0.24925,0.75706 0.50709,1.37657 0.57353,1.37657 0.0667,0 0.71026,-0.2491 1.43096,-0.55306 1.1965,-0.50446 1.52845,-0.47042 3.81598,0.39327 1.37797,0.52044 2.66081,0.94631 2.85068,0.94631 0.18981,0 0.34528,-0.85182 0.34528,-1.89302 0,-1.58977 -0.1879,-2.07365 -1.17626,-3.02335 l -1.17619,-1.13037 1.37221,-1.135 c 0.75477,-0.62397 1.3722,-1.39283 1.3722,-1.70843 0,-0.97292 0.86677,-0.97134 3.91969,0.004 1.61673,0.51852 3.0571,0.86972 3.20099,0.78069 0.14313,-0.09 0.38591,-1.49333 0.53781,-3.12069 0.22116,-2.36656 0.43061,-3.04137 1.04758,-3.37273 0.74769,-0.40113 0.77147,-1.0461 0.10375,-2.79314 -0.13302,-0.34672 0.95536,-1.54927 2.93846,-3.248 l 3.14907,-2.69697 0.001,-1.99971 c 10e-4,-1.87026 -0.11005,-2.10213 -1.73915,-3.57298 -1.51428,-1.36716 -1.77577,-1.84151 -1.99782,-3.62186 -0.24546,-1.96579 -0.21458,-2.0588 0.75906,-2.30392 0.558,-0.14055 1.01733,-0.45758 1.02056,-0.70455 0.002,-0.28799 0.11005,-0.30654 0.29402,-0.0553 0.15849,0.21669 1.29176,1.05238 2.51874,1.85668 2.00255,1.3125 2.82467,1.56231 8.03648,2.44232 7.10484,1.19975 22.62522,3.59832 25.70089,3.97224 1.79563,0.2174 2.2541,0.41606 2.2541,0.97229 0,0.70518 2.4355,1.95771 3.83012,1.96991 0.4043,0 0.51088,0.12287 0.26366,0.29537 -0.22784,0.15844 -0.64796,0.86861 -0.93355,1.57727 -0.45168,1.11947 -0.43586,1.38088 0.11988,1.9975 0.74344,0.82396 0.81489,1.23677 0.21324,1.23677 -0.23372,0 -2.1291,1.59294 -4.21036,3.53995 -3.66684,3.42977 -3.84193,3.53936 -5.65017,3.53936 -1.72131,0 -1.86599,0.0749 -1.86599,0.96781 0,0.99101 -0.14903,1.06498 -4.03885,2.00774 -0.92343,0.22373 -1.44045,0.94997 -3.24039,4.55029 -1.57879,3.15832 -2.07724,4.54073 -1.89686,5.26151 0.24291,0.96862 -0.33148,1.37745 -0.82052,0.58436 -0.498,-0.80873 -0.98004,-0.34953 -0.98004,0.93365 0,0.72988 -0.26852,2.09061 -0.5968,3.02411 l -0.59686,1.69699 1.62601,1.66237 1.62613,1.66208 -0.27825,2.98279 -0.27827,2.9828 -1.60063,0 c -1.51201,0 -1.85272,0.24727 -6.15536,4.47295 -3.43836,3.37681 -4.88761,4.54033 -5.91242,4.74719 -2.69563,0.54406 -5.00389,1.44679 -5.71492,2.23526 -0.7121,0.78928 -0.70164,0.82324 0.56946,1.864 1.23755,1.01344 1.26321,1.08811 0.58117,1.69294 -0.39219,0.34776 -1.86009,1.37085 -3.26145,2.27306 -2.52228,1.62354 -2.55013,1.63102 -2.76014,0.73133 -0.18227,-0.78153 -0.49187,-0.92528 -2.20585,-1.02598 l -1.99377,-0.11712 -1.19805,2.08374 -1.19802,2.08358 0.98822,0.82894 c 1.60417,1.34591 1.13205,2.45468 -1.53614,3.60819 l -2.25906,0.97636 -2.30417,-1.23189 c -1.26711,-0.67762 -2.5284,-1.23199 -2.80282,-1.23199 -0.27494,0 -1.33279,0.53675 -2.35211,1.19302 l -1.85313,1.19286 -2.37914,-1.29121 -2.37919,-1.29124 -1.25961,1.25476 c -1.06649,1.06273 -1.18179,1.34877 -0.75213,1.86822 0.45456,0.54945 0.064,0.60885 -3.754987,0.5708 -3.936014,-0.009 -4.412183,-0.12808 -6.222334,-1.17068 z" />
<path
   inkscape:label=""
   inkscape:connector-curvature="0"
   style="fill:#ffffff;fill-opacity:1;stroke:#808080;stroke-width:0.49999997;stroke-miterlimit:4;stroke-dasharray:none;stroke-opacity:1"
   id="EDUCACION_TARMA"
   d="m 112.55037,218.14415 c -1.01355,-0.44361 -1.60067,-0.48223 -2.50857,-0.16482 -1.53305,0.53602 -1.46046,0.56168 -1.46046,-0.51297 0,-0.84798 -0.20882,-0.94854 -2.4501,-1.17887 -1.34759,-0.13901 -3.37628,-0.45729 -4.50825,-0.70857 l -2.058135,-0.45659 0,-1.56206 0,-1.5619 -1.428185,0.23255 c -0.785634,0.12781 -1.80005,0.57891 -2.254291,1.00172 -0.652001,0.60752 -1.500906,0.79406 -4.034699,0.88638 l -3.208827,0.11569 -1.510428,-1.75536 c -3.437206,-3.99534 -5.59655,-7.39814 -5.59655,-8.8192 0,-0.36343 -0.352082,-0.60826 -0.882172,-0.61208 -0.677995,0 -0.434314,-0.27148 1.053238,-1.14978 l 1.935326,-1.14299 -3.081351,-3.17638 -3.081345,-3.17653 2.420095,0 c 2.286869,0 2.420109,-0.0527 2.420109,-0.93499 0,-0.51447 -0.965084,-2.3286 -2.144742,-4.03124 -4.161497,-6.00727 -4.498569,-6.5484 -4.290866,-6.88539 0.115292,-0.18686 0.873994,-0.34061 1.686136,-0.34061 2.02205,0 3.965572,-2.17204 3.965572,-4.43192 0,-0.694 0.830445,-1.65552 3.136189,-3.63031 l 3.13607,-2.68637 0,-2.45388 c 0,-2.25008 0.119276,-2.59661 1.43121,-4.16306 0.787156,-0.93972 1.854259,-2.66249 2.371512,-3.82849 l 0.940174,-2.11978 1.059946,1.01892 1.059881,1.01872 1.762829,-0.79018 c 0.969814,-0.43466 3.053626,-1.78095 4.631014,-2.99153 l 2.86794,-2.20171 9.13855,0.26564 9.13834,0.26505 0.45228,-1.80183 c 0.27683,-1.10436 0.96285,-2.31425 1.77083,-3.12479 l 1.31861,-1.32295 0.76599,0.85644 c 0.62539,0.69902 2.06126,3.74847 2.06126,4.3776 0,0.09 -0.4825,0.21824 -1.07227,0.28685 -0.96835,0.11222 -1.12694,0.3626 -1.63613,2.58244 -0.52227,2.27591 -0.64325,2.45818 -1.63318,2.45818 -0.66241,0 -1.98712,0.69235 -3.48279,1.82046 l -2.41388,1.82021 -2.32487,-0.37548 c -2.20599,-0.35672 -2.37015,-0.32592 -3.2113,0.59787 -0.48763,0.53538 -2.87417,1.92832 -5.30354,3.09543 l -4.41698,2.12189 1.86885,3.62049 c 1.02792,1.99125 2.13347,3.65294 2.45689,3.69259 3.61086,0.44311 3.40354,0.2637 4.50701,3.89318 l 1.0177,3.3473 4.31526,-0.0648 c 3.97755,-0.0592 4.51213,0.008 6.83167,1.06327 l 2.51642,1.12764 0.004,2.87665 0.003,2.87714 1.96019,1.91502 c 2.67618,2.61503 2.60675,3.29936 -0.54485,5.37585 l -2.4884,1.63985 -0.89893,3.2762 c -0.49446,1.80209 -0.98107,4.31165 -1.08151,5.57715 l -0.18221,2.3004 -1.20529,-0.2415 c -0.66296,-0.13384 -1.6085,-0.62185 -2.10125,-1.08622 -0.81765,-0.77048 -1.03533,-0.80214 -2.49605,-0.36308 -1.45448,0.43725 -1.70835,0.72048 -2.78773,3.11167 -1.21337,2.68822 -1.21357,2.69539 -0.13602,5.28546 0.34989,0.84129 -0.25127,0.85422 -2.10101,0.0442 l 0,0 z" />
<path
   inkscape:label=""
   inkscape:connector-curvature="0"
   style="fill:#ffffff;fill-opacity:1;stroke:#808080;stroke-width:0.49999997;stroke-miterlimit:4;stroke-dasharray:none;stroke-opacity:1"
   id="EDUCACION_SATIPO"
   d="m 316.63643,298.99824 c -1.43794,-0.41636 -2.83748,-2.14791 -4.80757,-5.94834 l -1.27479,-2.45869 -4.15874,-1.92915 c -7.37692,-3.42142 -9.56641,-3.95024 -11.72477,-2.8316 -0.5823,0.30223 -2.20536,0.66678 -3.60676,0.81165 l -2.54809,0.26287 -0.8942,-1.599 -0.89416,-1.59888 -4.09103,2.75369 c -2.25004,1.51463 -4.2828,2.75372 -4.51697,2.75372 -0.23371,0 -1.07502,-0.44231 -1.86815,-0.98331 -1.77605,-1.21051 -2.00968,-1.21289 -4.31153,-0.0441 -1.01706,0.51657 -2.5705,1.15546 -3.45228,1.41987 -1.47426,0.44213 -1.64234,0.63516 -2.09424,2.40393 -0.26993,1.05775 -0.55455,1.92318 -0.63184,1.92318 -1.05991,0 -4.51239,-1.07362 -5.83228,-1.81356 -1.71697,-0.96266 -3.75526,-2.75959 -3.75526,-3.31024 0,-0.16298 -0.66377,-0.56331 -1.47491,-0.88884 -0.81114,-0.32595 -2.43814,-1.31824 -3.61567,-2.20588 -1.72163,-1.29769 -2.4661,-1.61366 -3.80224,-1.61366 -1.58703,0 -1.67966,-0.0648 -2.06447,-1.47498 -2.43858,-8.92657 -2.02409,-8.01555 -4.2439,-9.32634 -1.11175,-0.65659 -2.5901,-1.99005 -3.28519,-2.96347 -0.69505,-0.97364 -2.19469,-2.85215 -3.33256,-4.17521 -1.81156,-2.10635 -2.27747,-2.42992 -3.74767,-2.60186 -0.9235,-0.10708 -2.82571,-0.74223 -4.22719,-1.40917 l -2.54825,-1.21316 2.05823,0.2281 c 1.61398,0.17811 2.05821,0.10873 2.05821,-0.32564 0,-0.3041 0.1858,-2.038 0.41257,-3.85362 l 0.41267,-3.30117 -2.47086,-2.51324 c -2.42243,-2.46411 -2.5029,-2.50842 -4.12028,-2.27127 l -1.64954,0.2417 -1.1682,-2.32154 c -0.64254,-1.27709 -1.55733,-3.54324 -2.03304,-5.0362 -0.47561,-1.49277 -1.65149,-3.94275 -2.61291,-5.44373 -1.70811,-2.66724 -1.7336,-2.75458 -1.11436,-3.80649 0.63071,-1.07074 0.62237,-1.08918 -1.59375,-3.49052 -1.91693,-2.07698 -2.36899,-2.37918 -3.23972,-2.16658 -2.87387,0.70222 -2.57295,0.93296 -3.55279,-2.72499 l -0.9026,-3.36961 -1.80906,0 c -2.8327,0 -3.85455,-0.45055 -10.16597,-4.48038 -3.25474,-2.0783 -6.03394,-3.77884 -6.17616,-3.77884 -0.14253,0 -1.39009,1.06197 -2.77308,2.35993 -2.54697,2.39012 -3.03371,2.66782 -3.46083,1.97443 -0.55631,-0.90301 2.68177,-5.15028 4.50384,-5.90759 1.11184,-0.46193 1.20509,-0.64081 1.09734,-2.10295 -0.11242,-1.54036 -0.1879,-1.61988 -2.03474,-2.19349 -1.87785,-0.58266 -1.95171,-0.6667 -3.62032,-4.10601 -0.93697,-1.93105 -1.81698,-4.37004 -1.95583,-5.41954 -0.25079,-1.89492 -0.26309,-1.90923 -1.70784,-1.90923 -1.37605,0 -1.4818,-0.09 -1.93478,-1.67108 -0.26339,-0.91955 -0.56786,-1.98134 -0.67649,-2.36001 -0.17837,-0.62244 0.17371,-0.68814 3.69195,-0.68814 3.79002,0 3.98614,-0.0458 7.67094,-1.77278 l 3.78144,-1.77293 0,-2.55335 c 0,-2.46127 -0.009,-2.55313 -0.98003,-2.55313 -0.8587,0 -0.98006,-0.17065 -0.98006,-1.37665 0,-1.08457 0.1567,-1.37641 0.73657,-1.37641 0.67192,0 1.05316,-0.61245 1.74271,-2.79926 0.11059,-0.35022 1.32419,-1.26697 2.69754,-2.03745 1.37328,-0.77045 4.04592,-2.64386 5.93908,-4.16335 1.89319,-1.51933 3.78302,-2.87088 4.19964,-3.00377 0.6591,-0.21016 0.75741,-0.62058 0.75741,-3.1642 l 0,-2.923 4.42359,0 4.42371,0 2.04475,-2.07718 c 1.12455,-1.14248 2.04476,-2.2158 2.04476,-2.38605 0,-0.16941 -0.46204,-0.91639 -1.02663,-1.65898 -1.0029,-1.31914 -1.0922,-1.35037 -3.86611,-1.35037 l -2.83955,0 -0.36827,-2.29272 -0.3682,-2.29319 2.28231,-1.20086 2.28258,-1.20093 1.1959,1.67096 c 1.18975,1.66137 1.22644,1.67845 6.95016,3.16583 5.06536,1.31638 5.94473,1.66866 7.34693,2.94344 0.87603,0.79627 2.37544,1.91071 3.33217,2.47671 1.27215,0.75172 2.04461,1.61805 2.87566,3.22495 0.62484,1.20795 1.84736,2.80757 2.71656,3.55394 1.55476,1.33511 1.63975,1.35727 5.20164,1.35727 3.33884,0 3.67694,-0.0714 4.33965,-0.92696 0.64139,-0.82692 1.30934,-0.99612 6.20694,-1.57199 5.46514,-0.64246 5.49365,-0.65121 6.70603,-2.02281 l 1.21753,-1.3775 7.99926,0 7.99919,0 1.29281,4.22781 c 0.71106,2.32519 1.39945,5.28959 1.52974,6.58749 0.20828,2.07239 0.45307,2.61121 2.01177,4.42444 1.68517,1.96012 1.87114,2.06477 3.66889,2.06477 1.63956,0 1.95361,0.13264 2.34017,0.98305 0.39538,0.87072 0.68714,0.98333 2.54556,0.98333 1.94478,0 2.15696,-0.0943 2.88841,-1.27809 0.75268,-1.21888 0.77709,-1.69265 0.5248,-10.19341 l -0.26497,-8.91545 2.60574,-4.50177 2.6057,-4.50169 0,-3.70555 0,-3.70577 1.96003,-1.93684 c 1.54727,-1.52858 1.96026,-2.20363 1.96026,-3.20407 0,-1.64834 0.63143,-3.28656 1.26436,-3.28014 0.50052,0 12.57393,9.54005 15.73067,12.42365 l 1.67847,1.53302 0.47452,5.67524 0.47458,5.67507 2.01819,3.66526 c 1.21652,2.20948 2.26335,3.66642 2.63535,3.66757 1.75264,0.004 3.61285,0.87927 3.98914,1.87219 0.68384,1.80431 1.5244,8.72469 1.78691,14.71235 l 0.25251,5.77095 -1.01605,1.21161 c -0.60457,0.72085 -1.1277,1.95865 -1.29186,3.05682 l -0.27577,1.84572 2.55516,2.42867 2.5552,2.42858 -0.86134,1.13171 c -0.47372,0.62231 -1.68216,2.2981 -2.68545,3.72441 l -1.82432,2.59275 1.15784,1.83147 1.15794,1.83151 -1.26552,0 c -1.09038,0 -2.05165,0.75609 -6.9496,5.45178 -5.49234,5.26542 -5.72092,5.54852 -6.75934,8.37843 l -1.07485,2.92883 2.50496,4.85882 c 2.49944,4.84877 2.50361,4.86233 1.96055,6.40702 l -0.54447,1.54792 2.77978,3.0887 2.77997,3.08862 2.18574,0.11747 2.18557,0.11713 1.6844,2.75297 c 1.67329,2.73488 1.68459,2.77795 1.69527,6.52431 0.004,3.63662 0.0458,3.78741 0.99086,4.21929 0.85602,0.3913 0.98006,0.69801 0.98006,2.42309 l 0,1.97477 1.56812,0 1.56809,0 0,4.12394 0,4.1237 1.56812,1.04122 c 0.86248,0.57255 1.56813,1.17468 1.56813,1.338 0,0.16328 -1.39582,0.78453 -3.10181,1.38036 -2.94375,1.02809 -3.20362,1.21737 -5.09642,3.7153 -1.72487,2.27634 -1.99437,2.87505 -1.99437,4.43094 l 0,1.79958 -2.84231,0.47483 c -3.47513,0.58077 -3.79397,0.73965 -6.86031,3.42017 l -2.45003,2.14162 0,3.70313 c 0,2.03663 -0.13274,3.68686 -0.29432,3.66731 -0.16177,-0.005 -0.87036,-0.20236 -1.57486,-0.40623 l 0,0 z" />
<path
   inkscape:label=""
   inkscape:connector-curvature="0"
   style="fill:#ffffff;fill-opacity:1;stroke:#808080;stroke-width:0.49999997;stroke-miterlimit:4;stroke-dasharray:none;stroke-opacity:1"
   id="EDUCACION_CHANCHAMAYO"
   d="m 153.02249,190.4714 c -14.2188,-2.27577 -14.57902,-2.35606 -18.2653,-4.06611 -5.52217,-2.56187 -8.21398,-3.35912 -13.78262,-4.08229 l -4.99828,-0.64879 0,-3.45264 0,-3.45233 -2.52821,0 c -2.39536,0 -2.5783,-0.0663 -3.48198,-1.27827 -0.52442,-0.70306 -1.23254,-1.83194 -1.57345,-2.50876 -0.57562,-1.14285 -0.56961,-1.27583 0.0849,-1.86964 0.38755,-0.35168 1.58637,-0.90236 2.66439,-1.22335 1.07814,-0.32127 2.73922,-1.11376 3.69143,-1.76101 1.48907,-1.01222 2.09648,-1.17788 4.34115,-1.18409 l 2.60991,-0.004 1.72567,-1.92568 c 1.41834,-1.5826 1.85047,-1.85541 2.426,-1.53248 0.75562,0.42413 4.15339,-0.30656 4.15339,-0.89349 0,-0.17365 -0.18371,-0.80217 -0.40895,-1.39553 -0.35843,-0.94564 -0.23299,-1.3362 1.01528,-3.15358 1.19336,-1.73821 1.38148,-2.28444 1.16076,-3.37095 -0.64977,-3.19866 -1.03338,-4.19824 -1.65724,-4.31875 -0.40627,-0.0794 0.25645,-0.61646 1.72871,-1.40391 2.26299,-1.21007 2.60496,-1.27655 6.56237,-1.27655 l 4.1748,0 3.70876,-2.99278 3.7086,-2.99226 0,-2.35248 c 0,-2.23596 0.092,-2.46005 1.85483,-4.5303 l 1.85473,-2.17797 4.98241,0.27172 4.98245,0.2714 2.12534,-3.18484 2.12521,-3.18447 0.6512,0.99697 c 0.5525,0.84623 0.94645,0.99702 2.60218,0.99702 l 1.95119,0 0.005,2.06469 c 0.004,1.22834 0.31132,2.62044 0.7443,3.43668 l 0.72805,1.37172 2.76823,-0.12782 c 2.54359,-0.11712 2.98191,-0.004 5.40086,1.27399 l 2.63241,1.40237 1.84827,-1.14085 1.8484,-1.1411 0.23514,1.18163 c 0.12966,0.6503 1.05463,2.40647 2.05533,3.90294 l 1.81965,2.72082 2.32545,0 c 2.20133,0 2.4693,0.11017 5.02256,2.06477 2.47308,1.89326 2.69887,2.18737 2.71874,3.53953 0.004,1.06689 0.19117,1.47477 0.63516,1.47477 0.51185,0 0.59882,0.50612 0.52383,3.0481 l -0.0901,3.04802 2.96969,0.11465 c 2.61116,0.0998 3.04188,0.22533 3.56843,1.03102 0.56109,0.8592 0.53241,0.97958 -0.45533,1.91268 -0.93973,0.88796 -1.59621,1.04833 -6.05248,1.47983 l -4.99818,0.48408 0,2.4731 0,2.47303 -2.05825,1.73499 c -1.13196,0.95414 -3.20464,2.41548 -4.60607,3.24718 -1.40161,0.8316 -3.82199,2.57648 -5.37879,3.87787 -2.37113,1.98196 -2.79359,2.51295 -2.6037,3.27251 0.19334,0.77299 0.0761,0.90683 -0.79561,0.90683 -1.015,0 -1.02266,0.007 -1.02266,3.07983 0,2.88258 0.0623,3.11339 0.98016,3.60586 0.53904,0.28982 0.97753,0.62908 0.97454,0.75478 0,0.12593 -1.39985,0.98061 -3.10405,1.90021 l -3.09857,1.67118 -4.98134,0 -4.98149,0 0.23494,1.08162 c 0.12981,0.59466 0.34884,1.47972 0.4868,1.96633 0.22066,0.77472 0.11174,0.88076 -0.87262,0.8513 -0.61804,-0.005 -7.65093,-1.0783 -15.62864,-2.35511 z" />
</svg>
