<?xml version="1.0" encoding="UTF-8" standalone="no"?>
<!--?xml version="1.0" encoding="UTF-8" standalone="no"?-->

<!--?xml version="1.0" encoding="UTF-8" standalone="no"?-->

<!--
************* Copyright (c) 2015 Pareto Softare, LLC DBA Simplemaps.com *******************		
************* Free for Commercial Use, full terms at  http://simplemaps.com/resources/svg-license ************
************* Attribution is appreciated! http://simplemaps.com ***************************
-->

<svg
   xmlns:dc="http://purl.org/dc/elements/1.1/"
   xmlns:cc="http://creativecommons.org/ns#"
   xmlns:rdf="http://www.w3.org/1999/02/22-rdf-syntax-ns#"
   xmlns:svg="http://www.w3.org/2000/svg"
   xmlns="http://www.w3.org/2000/svg"
   xmlns:sodipodi="http://sodipodi.sourceforge.net/DTD/sodipodi-0.dtd"
   xmlns:inkscape="http://www.inkscape.org/namespaces/inkscape"
   enable_background="new 0 0 1000 1585"
   height="549.01257"
   pretty_print="True"
   style="fill:none;stroke:#000000;stroke-linejoin:round"
   version="1.1"
   viewBox="0 0 354.46857 549.01257"
   width="354.46857"
   id="svg2"
   inkscape:version="0.91 r13725"
   sodipodi:docname="La Libertad.svg"><sodipodi:namedview
   pagecolor="#ffffff"
   bordercolor="#666666"
   borderopacity="0.05098039"
   objecttolerance="10"
   gridtolerance="10"
   guidetolerance="10"
   inkscape:pageopacity="0"
   inkscape:pageshadow="2"
   inkscape:window-width="1920"
   inkscape:window-height="1017"
   id="namedview37"
   showgrid="false"
   inkscape:zoom="1.3518878"
   inkscape:cx="-157.79879"
   inkscape:cy="299.05719"
   inkscape:window-x="-8"
   inkscape:window-y="-8"
   inkscape:window-maximized="1"
   inkscape:current-layer="svg2"
   showborder="true"
   fit-margin-top="10"
   fit-margin-left="10"
   fit-margin-right="10"
   fit-margin-bottom="10"
   borderlayer="false"
   inkscape:showpageshadow="false"
   inkscape:snap-to-guides="false"
   inkscape:snap-grids="false"
   showguides="true" />
























utf-8<defs
   id="defs4">
  <style
     type="text/css"
     id="style6">path { fill-rule: evenodd; }utf-8utf-8</style>
</defs>
























utf-8<metadata
   id="metadata8">
utf-8utf-8<views>
utf-8utf-8utf-8<view
   h="1585.21431143"
   padding="0"
   w="1000">
utf-8utf-8utf-8utf-8<proj
   flip="auto"
   id="robinson"
   lon0="-80.0286400104" />
























utf-8utf-8utf-8utf-8<bbox
   h="307.01"
   w="193.79"
   x="-1203.32"
   y="0.49" />
























utf-8utf-8utf-8</view>
























utf-8utf-8</views>
























utf-8<rdf:rdf>
  <cc:work
     rdf:about="">
    <dc:format>image/svg+xml</dc:format>
    <dc:type
       rdf:resource="http://purl.org/dc/dcmitype/StillImage" />
  </cc:work>
</rdf:rdf>
<rdf:rdf>
  <cc:work
     rdf:about="">
    <dc:format>image/svg+xml</dc:format>
    <dc:type
       rdf:resource="http://purl.org/dc/dcmitype/StillImage" />
    <dc:title />
  </cc:work>
</rdf:rdf>
<rdf:RDF>
  <cc:Work
     rdf:about="">
    <dc:format>image/svg+xml</dc:format>
    <dc:type
       rdf:resource="http://purl.org/dc/dcmitype/StillImage" />
    <dc:title />
  </cc:Work>
</rdf:RDF>
</metadata>
























utf-8<path
   inkscape:label=""
   inkscape:connector-curvature="0"
   style="fill:#ffffff;fill-opacity:1;stroke:#808080;stroke-width:0.49999997;stroke-miterlimit:4;stroke-dasharray:none;stroke-opacity:1"
   id="EDUCACION_OTUZCO"
   d="m 125.83748,251.69893 c 0,-0.0749 0.31244,-1.65849 0.69424,-3.51919 0.63197,-3.07974 0.84016,-3.55439 2.32211,-5.29373 l 1.62789,-1.91075 -0.61843,-3.29259 -0.6185,-3.29249 -2.57371,-1.60845 c -1.59664,-0.99808 -2.57377,-1.83878 -2.57377,-2.2149 0,-0.33392 0.23346,-1.37735 0.5183,-2.31957 0.77033,-2.5461 0.70152,-2.70354 -0.77927,-1.78279 -1.28398,0.79827 -1.33041,0.80176 -2.87123,0.21188 l -1.56615,-0.59884 0.0595,-2.73837 c 0.0349,-1.50601 0.15132,-3.56268 0.26359,-4.57043 l 0.20449,-1.83207 -2.58643,0 c -2.38354,0 -2.66493,-0.0784 -3.58483,-1.00102 -0.94763,-0.95022 -3.14496,-1.79116 -6.06831,-2.32247 -1.25282,-0.22731 -1.28835,-0.28138 -2.53428,-3.78733 l -1.26358,-3.55654 0.532,-2.60547 c 0.29207,-1.43311 0.60742,-2.93371 0.69967,-3.33463 0.13855,-0.60297 0.68322,-0.83764 3.14589,-1.35578 2.79125,-0.58748 3.154,-0.59139 5.77677,-0.064 2.62346,0.52764 2.8923,0.66748 4.29771,2.23485 0.82458,0.91961 2.81957,2.5806 4.43343,3.69107 l 2.93418,2.01918 0.78633,2.68545 c 0.83752,2.86034 2.15481,5.42352 3.78756,7.37001 l 1.00222,1.19497 4.05395,-3.93802 c 2.5029,-2.43121 4.21718,-4.39046 4.48059,-5.12077 0.54113,-1.50065 1.3427,-1.53131 3.53772,-0.13577 l 1.64713,1.04744 1.31632,-0.67339 c 1.95501,-1.00014 4.7147,-3.23373 8.22874,-6.66058 l 3.13223,-3.05434 3.30629,-0.19323 3.3063,-0.19307 1.20544,2.09809 c 1.68968,2.9412 3.2511,4.226 6.56562,5.40327 l 2.8159,1.00012 0.10133,2.27022 0.10133,2.26996 2.18978,0.5235 2.18985,0.52349 -1.24539,0.67247 -1.24543,0.67252 0.0997,2.99172 0.0995,2.99176 1.14389,0.11017 1.14382,0.11034 -0.0993,3.20507 -0.0995,3.20492 -3.07547,0.34998 -3.07549,0.34892 -1.12934,2.26828 c -0.87341,1.75437 -1.5323,2.54528 -2.90743,3.48989 -0.97801,0.67176 -2.60961,1.87352 -3.62581,2.67055 -1.01626,0.79709 -2.9251,2.03976 -4.24199,2.76145 l -2.39431,1.31229 -1.82398,-0.62162 -1.82393,-0.62166 -1.48155,1.61174 c -1.28499,1.39777 -4.11922,3.10866 -6.35231,3.8346 -0.51242,0.16566 -0.60905,0.63807 -0.60905,2.97288 l 0,2.77489 -3.74131,-1.03551 c -6.0779,-1.68207 -5.62127,-1.71539 -7.22455,0.52828 l -1.3891,1.9438 -4.26345,0.003 c -2.34478,0.002 -4.26326,-0.0534 -4.26326,-0.12847 z" />
<path
   inkscape:label=""
   inkscape:connector-curvature="0"
   style="fill:#ffffff;fill-opacity:1;stroke:#808080;stroke-width:0.49999997;stroke-miterlimit:4;stroke-dasharray:none;stroke-opacity:1"
   id="EDUCACION_JULCAN"
   d="m 156.01925,290.1864 c -0.18688,-0.4923 -0.33946,-1.49386 -0.33946,-2.22557 0,-0.73184 -0.19587,-1.48943 -0.43498,-1.68387 -0.23934,-0.19504 -2.23609,-1.08667 -4.43738,-1.9832 -2.20129,-0.89629 -4.59671,-2.01984 -5.32329,-2.49662 l -1.32096,-0.86678 1.4213,-2.58181 1.42132,-2.5818 -2.55524,-2.55022 c -1.78639,-1.78286 -2.6973,-2.99625 -3.02729,-4.03316 l -0.47206,-1.4831 -2.21311,0 c -2.11194,0 -2.20555,-0.009 -2.04808,-0.78531 0.38004,-1.80882 0.95357,-5.89891 0.84061,-5.99527 -0.0673,-0.0579 -1.17945,-0.45256 -2.47147,-0.87808 -2.03998,-0.67198 -2.34923,-0.88488 -2.34923,-1.61776 0,-0.81133 0.0932,-0.84398 2.4066,-0.84398 l 2.40654,0 1.31319,-1.83216 c 0.72221,-1.00765 1.34757,-1.88304 1.38958,-1.94518 0.042,-0.0621 1.81105,0.36952 3.93119,0.95959 2.12011,0.59013 4.08338,1.07284 4.36275,1.07284 0.93337,0 1.59154,-1.46332 1.59154,-3.53854 l 0,-1.98731 1.65315,-0.62813 c 0.90924,-0.34495 2.4022,-1.32696 3.31769,-2.18126 1.56224,-1.45745 1.851,-1.58109 4.69842,-2.0103 4.46086,-0.67283 4.37722,-0.6898 4.99516,1.00976 0.46765,1.28604 0.70311,1.50906 1.77696,1.68417 1.31847,0.21512 2.63568,1.17503 4.4416,3.23754 1.00982,1.15321 1.28392,1.27385 2.90608,1.27854 3.0486,0.003 3.04716,8.7e-4 0.94503,5.5799 l -1.85854,4.93233 1.26533,1.29929 1.26527,1.29938 0,3.85878 0,3.85896 -2.91765,1.94687 c -2.74962,1.83477 -2.94071,2.04392 -3.3208,3.63231 -0.64006,2.67547 -0.56888,2.63633 -3.70468,2.03469 -1.51798,-0.29166 -2.79908,-0.52956 -2.84689,-0.52957 -0.0479,-6e-5 -0.0871,1.22285 -0.0871,2.7176 l 0,2.71779 -1.65312,1.59233 c -1.74163,1.67781 -3.99241,3.4415 -4.39185,3.4415 -0.13061,0 -0.38951,-0.40307 -0.57623,-0.89519 z" />
<path
   inkscape:label=""
   inkscape:connector-curvature="0"
   style="fill:#ffffff;fill-opacity:1;stroke:#808080;stroke-width:0.49999997;stroke-miterlimit:4;stroke-dasharray:none;stroke-opacity:1"
   id="EDUCACION_SANCHEZ_CARRION"
   d="m 234.01731,243.96983 c -0.41144,-1.3774 -0.43928,-1.39595 -2.09193,-1.39595 -0.92145,0 -2.63795,-0.10081 -3.81446,-0.22456 l -2.13921,-0.22454 0,1.09664 0,1.09667 -1.93884,0 c -1.74415,0 -2.16182,-0.16065 -4.16057,-1.58976 -1.22955,-0.87974 -2.7972,-1.6834 -3.51011,-1.7994 l -1.28815,-0.2103 0.26472,1.1887 c 0.14665,0.65362 0.34489,1.54206 0.44301,1.97377 0.25668,1.13506 -0.28894,0.97301 -2.09702,-0.6231 -2.01382,-1.77746 -3.42213,-4.61193 -3.69169,-7.42986 -0.1572,-1.64583 -0.34375,-2.17329 -0.80048,-2.26089 -0.94383,-0.18135 -2.78767,0.86039 -4.9577,2.79989 -1.73128,1.5472 -2.32158,1.85366 -4.31672,2.24109 -3.36765,0.65397 -3.76694,0.6144 -4.02026,-0.39783 -0.20552,-0.82084 -0.35471,-0.87237 -2.52877,-0.87237 l -2.31024,0 -4.12163,-4.08188 -4.12156,-4.08187 0,-2.38592 c 0,-2.36414 -0.0156,-2.39265 -1.23776,-3.11823 -0.8745,-0.51734 -1.17372,-0.89801 -1.01968,-1.29688 0.12,-0.31074 0.39105,-1.34979 0.60221,-2.30947 0.21117,-0.95971 0.53269,-1.94121 0.7143,-2.18117 0.21502,-0.28368 1.28646,-0.43617 3.07167,-0.43617 l 2.74159,0 0,-1.74495 c 0,-1.46508 0.10374,-1.7448 0.64388,-1.7448 0.87374,0 2.76447,-1.42167 6.46789,-4.86326 2.53282,-2.3539 3.17819,-2.79689 3.48023,-2.38889 1.99331,2.69195 2.18701,2.80719 4.29648,2.55803 2.7257,-0.32174 11.83835,-2.14911 15.1289,-3.03309 l 2.69734,-0.72474 0,-1.51004 c 0,-1.44857 0.0459,-1.51453 1.1311,-1.61937 1.12725,-0.10939 1.1317,-0.11711 1.3051,-2.36213 l 0.17388,-2.25276 2.6971,-0.66541 2.69724,-0.66535 0,-3.56996 0,-3.56995 1.33735,-0.40146 c 0.73558,-0.22113 3.48552,-1.34524 6.11118,-2.49823 2.62554,-1.15292 4.84276,-2.09623 4.92718,-2.09623 0.0836,0 0.15403,0.60161 0.15403,1.33699 0,1.07509 0.17334,1.43 0.88576,1.81216 1.43927,0.77237 3.14413,4.05242 4.53031,8.71603 2.36679,7.96269 2.5837,8.84183 4.32262,17.52609 1.08734,5.4303 2.18105,9.84168 2.95161,11.90455 l 1.22428,3.2774 -0.22601,6.49469 c -0.21738,6.27088 -0.25433,6.52178 -1.06422,7.28472 l -0.83868,0.79004 -1.28176,-0.70947 c -0.70494,-0.3901 -2.31775,-1.2928 -3.58393,-2.00585 l -2.30232,-1.29648 -3.89721,2.9701 c -3.63191,2.76771 -4.01045,2.96991 -5.56029,2.96991 -1.63883,0 -1.66914,-0.005 -2.0802,-1.39594 z" />
<path
   inkscape:label=""
   inkscape:connector-curvature="0"
   style="fill:#ffffff;fill-opacity:1;stroke:#808080;stroke-width:0.49999997;stroke-miterlimit:4;stroke-dasharray:none;stroke-opacity:1"
   id="EDUCACION_BOLIVAR"
   d="m 261.22621,201.7189 c -3.03185,-1.50978 -3.3777,-1.7901 -3.80344,-3.08331 -0.25723,-0.78234 -0.64307,-1.538 -0.85699,-1.6793 -0.21447,-0.14095 -1.87304,-0.59402 -3.68712,-1.00597 l -3.29834,-0.74878 -1.22259,-2.55438 c -0.67251,-1.40488 -2.30956,-4.3641 -3.63813,-6.57621 l -2.41528,-4.02179 0.0968,-3.34992 0.0971,-3.34977 -1.67508,-0.64155 c -1.59928,-0.61238 -1.67512,-0.70712 -1.67512,-2.09318 l 0,-1.45172 -2.88467,-1.30343 -2.88447,-1.30359 -0.42796,-3.36211 c -1.11128,-8.73429 -1.09816,-8.68398 -2.26622,-8.68398 -0.5795,0 -1.05365,-0.0722 -1.05365,-0.16132 0,-0.2182 1.08939,-5.01544 1.30504,-5.74696 0.13354,-0.45359 -0.35411,-0.72908 -2.15668,-1.21821 l -2.32927,-0.63236 -0.66701,-3.64479 -0.66686,-3.64492 -1.76899,0 -1.76885,0 0,-2.70221 c 0,-2.69459 -0.003,-2.7219 -3.51617,-9.56484 -1.93401,-3.77437 -3.43114,-6.94789 -3.32704,-7.05234 0.10427,-0.10491 1.62514,0.0796 3.3803,0.40941 l 3.19097,0.59953 2.54882,-1.34299 2.54876,-1.34324 4.72816,0.0538 c 4.60415,0.053 4.76177,0.008 6.01574,-0.93092 0.70827,-0.54179 1.3332,-0.92061 1.38854,-0.84199 0.0551,0.0784 0.47857,1.8667 0.94028,3.97363 0.46182,2.10687 1.2967,5.07979 1.85544,6.60644 0.89177,2.43726 1.13646,2.79027 2.0067,2.8947 0.57229,0.0686 0.92334,0.30075 0.83079,0.55053 -1.22863,3.31345 -1.29713,2.8899 0.86675,5.35487 1.37238,1.56326 2.37214,2.35619 3.26117,2.58637 4.85205,1.25663 4.39327,0.96615 4.39327,2.78126 0,1.56444 0.0481,1.63759 1.06779,1.63759 0.99117,0 1.09789,0.1373 1.48548,1.92677 l 0.41743,1.92685 -2.07101,1.85329 -2.07104,1.85325 1.21502,10.59995 1.21516,10.60021 1.9722,2.136 c 1.79646,1.94562 2.10821,2.13604 3.49837,2.13604 l 1.52637,0 1.06412,2.47743 c 0.58528,1.36257 1.61129,3.00406 2.27974,3.64772 l 1.2158,1.17036 -0.70156,4.33139 c -0.38622,2.38248 -0.6241,4.45721 -0.52959,4.61054 0.0947,0.15373 1.16304,0.27824 2.37454,0.27824 l 2.20262,0 -1.14415,0.96525 c -1.3033,1.09973 -2.76054,3.76722 -3.12646,5.72317 -0.22414,1.19639 -0.16438,1.33864 0.61052,1.45537 0.80271,0.12136 0.81016,0.14373 0.11463,0.34245 -0.47647,0.13648 -1.94843,-0.38657 -4.08037,-1.44774 l 0,0 z" />
<path
   inkscape:label=""
   inkscape:connector-curvature="0"
   style="fill:#ffffff;fill-opacity:1;stroke:#808080;stroke-width:0.49999997;stroke-miterlimit:4;stroke-dasharray:none;stroke-opacity:1"
   id="EDUCACION_PATAZ"
   d="m 292.90419,305.97974 c -0.62456,-0.20174 -2.51868,-1.30619 -4.20924,-2.45405 l -3.07391,-2.08687 -0.10718,-2.20378 -0.10718,-2.20367 -2.0892,-1.15245 -2.08921,-1.15257 -1.42615,-5.6219 c -1.28641,-5.07089 -1.56014,-5.76576 -2.7939,-7.08996 -1.64366,-1.76401 -2.18549,-2.75873 -2.18549,-4.01168 0,-0.83623 -0.24343,-1.00772 -2.19602,-1.55236 l -2.19626,-0.61231 0,-1.77495 0,-1.77489 -2.42188,0 c -2.33211,0 -2.41391,-0.009 -2.2042,-0.82589 0.11988,-0.45396 0.40949,-1.68182 0.64455,-2.72823 l 0.42658,-1.9024 -2.11087,-2.31843 c -1.16106,-1.27511 -2.3419,-2.85978 -2.62423,-3.52148 -0.31909,-0.74813 -1.00868,-1.44012 -1.8232,-1.8295 -1.42699,-0.68238 -1.40552,-0.52067 -0.65079,-4.90043 0.22415,-1.29957 0.18732,-1.35053 -1.81679,-2.49995 -1.12477,-0.64541 -2.11943,-1.2937 -2.21005,-1.441 -0.0906,-0.14684 0.29573,-1.00889 0.85758,-1.91497 0.99427,-1.6017 1.03748,-1.89121 1.55756,-10.44543 l 0.53494,-8.79804 -1.00764,-2.93619 c -1.46884,-4.28041 -2.40649,-8.25878 -3.05382,-12.95799 -0.31388,-2.28225 -0.81806,-4.62749 -1.11937,-5.21193 -0.33893,-0.65728 -0.54815,-2.07865 -0.54815,-3.72627 0,-2.57674 -0.0452,-2.70911 -1.35541,-4.05546 l -1.35528,-1.39187 2.17894,0.002 2.1789,0.002 5.09053,4.03256 5.09057,4.03249 2.09391,0 c 1.75729,0 2.18639,-0.13303 2.66842,-0.82566 0.56688,-0.81497 0.57484,-0.80756 0.59375,0.55041 0.005,1.35783 0.009,1.37629 1.48328,1.37629 1.65272,0 1.67671,0.071 0.91349,2.70416 -0.50952,1.75708 -0.71551,1.99046 -2.74529,3.10928 -2.1413,1.18048 -2.19443,1.24711 -2.19133,2.74478 10e-4,1.46756 0.0976,1.59562 2.1354,2.91229 2.16027,1.39547 6.20188,3.2106 7.14876,3.2106 0.65855,0 0.72245,0.18876 1.53107,4.52235 l 0.6726,3.60478 2.58173,2.24749 c 1.41984,1.23614 2.70433,2.34658 2.85422,2.46758 0.14968,0.1217 -0.40031,2.23877 -1.22379,4.70593 l -1.4964,4.48579 1.11452,1.74172 c 1.54802,2.41893 2.24814,4.22892 2.24814,5.81212 l 0,1.35021 4.30088,-0.25557 c 5.26007,-0.31206 8.75732,-0.78564 11.52996,-1.56223 l 2.10463,-0.58966 0,-1.65381 0,-1.6537 2.10473,0.24411 c 1.15749,0.13435 6.63424,1.42158 12.17045,2.86047 l 10.06583,2.61613 1.76748,1.68631 c 1.86875,1.78293 2.80784,3.23345 2.80784,4.33687 0,0.48208 1.05637,1.19538 3.78468,2.55604 l 3.78478,1.88732 0.46432,8.79691 0.4642,8.79692 -1.59522,2.97428 c -1.47867,2.75687 -1.6801,2.97456 -2.75768,2.97932 -0.68174,0.001 -2.98711,0.92107 -5.57543,2.22023 -4.36806,2.19237 -4.42435,2.20902 -5.54703,1.62684 -1.09922,-0.56994 -1.20651,-0.55053 -3.4825,0.62941 l -2.34833,1.21765 -10e-4,1.7433 c -9.4e-4,1.61031 -0.0705,1.74341 -0.90803,1.74341 -1.16423,0 -4.75346,1.35701 -8.22142,3.10832 l -2.72273,1.37491 -2.76777,-0.96134 c -3.88807,-1.35038 -4.53432,-1.28407 -5.91556,0.60718 -0.62657,0.85794 -1.56764,2.42698 -2.0917,3.48682 -1.01655,2.05648 -1.36605,2.20136 -3.58254,1.48474 l 2e-5,0 z" />
<path
   inkscape:label=""
   inkscape:connector-curvature="0"
   style="fill:#ffffff;fill-opacity:1;stroke:#808080;stroke-width:0.49999997;stroke-miterlimit:4;stroke-dasharray:none;stroke-opacity:1"
   id="EDUCACION_SANTIAGO_DE_CHUCO"
   d="m 184.67177,322.46396 c -0.13693,-0.75393 -0.72442,-2.22067 -1.83642,-4.63665 l -1.5418,-3.34976 0.62629,-1.28442 c 0.63413,-1.30048 1.39586,-6.23036 1.39586,-9.03367 l 0,-1.52871 -2.2877,-0.61881 c -2.27638,-0.61565 -2.30064,-0.61404 -4.89552,0.32709 -2.45713,0.89075 -2.68457,0.91329 -3.93482,0.38927 l -1.32697,-0.55594 0,-3.26479 0,-3.26485 -3.49068,-1.38528 c -2.72539,-1.08167 -3.44234,-1.51153 -3.26973,-1.96048 0.12207,-0.31589 0.72478,-2.02017 1.34037,-3.78656 l 1.11938,-3.21135 2.65367,0 2.65354,0 0.23034,-1.15395 c 0.15907,-0.79669 1.3066,-2.25254 3.70608,-4.70147 l 3.47589,-3.54746 0,-4.62848 0,-4.62873 -1.11249,-0.24462 c -0.81471,-0.17969 -1.0627,-0.40817 -0.92627,-0.85503 0.93164,-3.05111 2.75863,-9.71433 2.96273,-10.80507 l 0.25574,-1.36623 -2.27949,0 c -2.26331,0 -2.29542,-0.004 -4.51767,-2.07775 -1.231,-1.14273 -3.10604,-2.47616 -4.16672,-2.96319 -1.68711,-0.77447 -1.92873,-1.01979 -1.92873,-1.95947 0,-0.96867 0.11721,-1.07431 1.1977,-1.07431 1.06545,0 1.75504,-0.5872 6.24959,-5.32176 l 5.05197,-5.32188 3.41352,0 3.41363,0 1.82657,2.88483 1.82654,2.88479 2.58087,0.25561 c 1.8489,0.18249 2.96259,0.51477 3.9269,1.17098 l 1.34602,0.91587 3.70854,-0.58722 3.70846,-0.58722 2.06045,-2.03699 c 1.13344,-1.12024 2.14103,-1.89661 2.23918,-1.72507 0.0992,0.17145 0.38867,1.46793 0.64566,2.881 0.54369,2.99173 0.4865,2.89564 3.90177,6.55707 l 2.62449,2.81375 1.36029,-1.66476 c 1.31965,-1.61485 1.34081,-1.6867 0.70457,-2.39153 -0.99209,-1.09912 0.003,-0.91893 1.99627,0.3598 0.92813,0.59736 2.75451,1.33806 4.05834,1.64615 2.99631,0.7083 2.91984,0.71298 2.91984,-0.18192 0,-0.51559 0.40947,-0.92448 1.30044,-1.29757 2.81792,-1.18054 3.29105,-1.11786 5.43667,0.72027 1.82118,1.55991 2.1393,1.69686 3.93615,1.69411 1.83192,-0.001 2.15788,-0.15408 5.18859,-2.40535 l 3.23375,-2.40223 4.11931,1.71853 4.11925,1.7186 -0.4691,2.0238 c -0.25731,1.11311 -0.60216,2.14297 -0.76457,2.28863 -0.16274,0.14509 -2.23437,0.78143 -4.60432,1.41313 -4.30009,1.14598 -4.32297,1.14794 -10.98097,0.91349 l -6.67186,-0.23387 -1.40934,-1.10717 -1.40921,-1.10721 -2.43408,1.32504 -2.43398,1.32499 -0.95425,3.29098 c -0.52479,1.81016 -1.8096,5.42847 -2.85507,8.04083 l -1.90077,4.74965 -3.36755,0.81792 c -3.03409,0.73688 -3.5486,0.99085 -5.19764,2.5661 -2.94734,2.81545 -6.92113,6.09685 -10.02001,8.27421 l -2.88414,2.02641 0.56266,1.56899 c 0.54202,1.51137 0.52602,1.66024 -0.43513,4.06944 -0.54878,1.37537 -1.57929,4.84026 -2.29007,7.69968 -1.11011,4.46618 -1.48269,5.43168 -2.64311,6.85058 -3.51742,4.30057 -5.50828,7.70984 -5.52512,9.46134 -0.005,0.45983 0.50083,1.84711 1.12282,3.08266 1.35793,2.69719 1.22653,3.11518 -1.84129,5.85694 z" />
<path
   inkscape:label=""
   inkscape:connector-curvature="0"
   style="fill:#ffffff;fill-opacity:1;stroke:#808080;stroke-width:0.49999997;stroke-miterlimit:4;stroke-dasharray:none;stroke-opacity:1"
   id="EDUCACION_VIRU"
   d="m 180.26767,326.57093 -4.87515,0 -4.87521,0 -7.03925,4.70742 c -6.78436,4.53702 -7.1639,4.73648 -10.48242,5.50748 -3.12244,0.72537 -7.74555,2.64273 -9.21164,3.82008 -0.31671,0.25402 -1.34619,1.88322 -2.28766,3.61947 l -1.71191,3.157 0,4.71565 c 0,4.391 -0.0785,4.92531 -1.14669,7.76209 -1.06961,2.84156 -1.21725,3.04631 -2.19617,3.04631 -0.98928,0 -1.05002,-0.0887 -1.05865,-1.55965 l 0,3e-5 c -0.0156,-1.45099 -0.50735,-2.22479 -7.1437,-11.08082 l -7.13458,-9.52098 1.28723,-1.32183 1.28719,-1.3218 0,-6.33813 0,-6.33792 -2.19962,-4.82458 c -1.20981,-2.65336 -2.6511,-5.30266 -3.20279,-5.8873 -1.64837,-1.74709 -7.68049,-6.47894 -12.25554,-9.61365 -2.35698,-1.61479 -4.28949,-3.02217 -4.29459,-3.12736 -0.005,-0.10532 0.73193,-0.59701 1.63792,-1.09342 l 1.64707,-0.90213 0,-3.00635 0,-3.00629 2.10472,-1.90501 c 1.15753,-1.04773 3.27674,-2.73102 4.70935,-3.74061 l 2.6046,-1.83565 0.96414,-3.60512 c 0.53027,-1.98282 0.96413,-3.74488 0.96413,-3.91569 0,-0.17096 -0.90637,-0.96602 -2.0142,-1.76741 -1.82338,-1.31885 -2.73273,-2.50838 -2.27137,-2.97104 0.15205,-0.1519 3.69703,0.32113 6.02424,0.80587 0.78002,0.16279 0.82359,0.057 0.82359,-1.98437 l 0,-2.15584 2.47067,-0.21728 c 1.35891,-0.12039 3.49428,-0.62434 4.74536,-1.12185 1.80872,-0.71945 6.73718,-2.07063 7.55243,-2.07063 0.0916,0 -0.1442,1.1975 -0.52354,2.66095 -0.37888,1.46347 -0.69207,2.70222 -0.69558,2.75265 -0.003,0.051 1.11341,0.0919 2.48186,0.0919 l 2.48804,0 1.08001,2.91965 c 1.06672,2.88377 1.09671,2.92098 2.44551,3.02794 l 1.36548,0.10929 -1.31333,3.79526 c -0.72234,2.08744 -1.17179,3.9215 -0.99878,4.07574 0.17319,0.15485 2.82645,1.17034 5.89653,2.25777 l 5.58201,1.9774 0,2.0384 0,2.03856 2.35165,0.76655 c 2.27881,0.74292 2.38503,0.74634 3.43193,0.1074 l 1.08041,-0.6588 1.77019,1.80209 c 1.63059,1.66004 1.90833,1.80214 3.52253,1.80214 0.9638,0 1.75244,0.0793 1.75244,0.17539 0,0.0966 -0.25495,0.81398 -0.56562,1.59371 -0.5244,1.31405 -0.51432,1.54899 0.13729,3.21887 0.67223,1.72132 0.7718,1.8065 2.2408,1.91563 1.38072,0.10155 1.59673,0.25121 2.11981,1.46809 l 0.58237,1.35394 0.34099,-1.3764 0.34097,-1.37638 3.20427,0 3.20412,0 -0.15372,1.92686 c -0.27056,3.3868 -0.85925,5.75495 -1.55088,6.24071 -0.62205,0.43709 -0.52705,0.74175 1.51657,4.86623 2.53778,5.12188 3.09681,6.05167 3.63815,6.05167 z" />
<path
   inkscape:label=""
   inkscape:connector-curvature="0"
   id="EDUCACION_EL_PORVENIR"
   d="m 98.405368,232.80484 3.075632,-0.77115 3.71636,-1.28493 0.38436,-2.56999 -0.25648,-1.92734 1.79409,-0.89953 2.94749,-0.64255 0.76887,-2.56999 1.28152,-1.02799 2.563,0.51401 3.46008,0.64244 0.89701,0 -0.51258,4.11203 0.25648,3.21244 1.53783,1.54203 1.53783,1.02796 1.15328,-0.77101 1.15336,-0.12901 -0.51254,2.56995 0.76889,2.57002 1.79408,0.77105 1.79409,1.54198 1.02521,2.31292 0.7689,2.31298 -0.38437,1.67041 -1.5378,2.18453 -1.92219,3.34111 -1.02525,5.01135 1.92221,1.28498 2.56303,-0.129 0.38437,2.44134 2.17854,1.28504 2.4349,0.89958 0.25649,1.15638 -2.05033,0.64247 -3.07565,0.64259 -2.30667,0.89945 -3.84453,1.0279 -1.92221,0.12877 -2.43483,0.12914 -1.02521,0.25666 0.12872,3.598 -4.10083,-0.38615 -3.20374,-1.02799 -0.76893,-2.05594 -1.40961,0.25691 -2.30668,0.64255 -1.1534,0.25696 -1.66593,0.12834 -0.89706,-1.15632 -2.691129,-0.51411 -2.947399,-0.7709 -1.281548,0 -1.15331,-1.79906 -1.025256,-1.28498 0,-1.54196 -0.897015,-1.28501 -0.768919,-1.28497 0,-1.15645 0.128724,-0.77107 -0.8971,-0.51407 -0.640693,0 -0.128713,-1.41342 -0.128597,-0.5139 -1.409729,0.5139 -1.15331,-0.2567 -0.512605,-1.54192 1.665915,-0.64248 1.794178,-1.79914 2.050376,-0.64234 0.768884,-1.67056 2.434848,-0.38583 2.562985,-3.21229 1.922253,-2.05614 1.15337,-1.02792 -1.794052,-0.89946 -0.256472,-3.08402 1.025234,-0.64246 z"
   style="fill:#ffffff;fill-opacity:1;fill-rule:evenodd;stroke:#808080;stroke-width:0.49999997;stroke-linecap:butt;stroke-linejoin:miter;stroke-miterlimit:4;stroke-dasharray:none;stroke-opacity:1" />
<path
   inkscape:label=""
   inkscape:connector-curvature="0"
   id="EDUCACION_LA_ESPERANZA"
   d="m 67.956162,242.62656 c 0,0 2.050375,-1.41331 2.434859,-2.18442 0.384368,-0.77091 1.922183,-2.82689 1.922183,-2.82689 l 1.537851,-0.89959 1.92223,-0.89943 1.153322,0.25663 0.128585,3.72649 1.409601,1.79894 3.331889,0.51399 3.075586,0.12877 1.281513,-2.18462 1.153345,-1.28486 1.794096,-1.67049 1.025234,-2.31306 1.28149,-1.67041 0.256482,-1.92751 1.922204,-0.38571 1.281491,0 1.28155,0.51395 1.281477,2.3129 -0.256503,2.827 0,1.4135 0.897023,1.02798 -2.691181,3.21263 -1.409619,2.44139 -3.331908,-0.12901 -0.512563,1.79896 -1.665951,0.64243 -1.665996,1.542 -0.640681,1.15655 -1.665951,0.25691 -0.128713,2.18462 0.897099,0.89935 -0.512627,1.02816 -2.050353,0.38538 -0.897087,1.02787 -0.256477,1.02806 c 0,0 -1.537805,-0.38543 -1.665928,-0.89951 -0.128574,-0.51404 -1.537805,-2.57004 -1.537805,-2.57004 l -2.050397,-3.46946 -1.794143,-1.28497 -3.203696,-3.21249 z"
   style="fill:#ffffff;fill-opacity:1;fill-rule:nonzero;stroke:#808080;stroke-width:0.49999997;stroke-linecap:butt;stroke-linejoin:miter;stroke-miterlimit:4;stroke-dasharray:none;stroke-opacity:1" />
<path
   inkscape:label=""
   inkscape:connector-curvature="0"
   id="EDUCACION_TRUJILLO_NOR_OESTE"
   d="m 81.837139,259.1019 0.42735,-1.25508 0.839459,-0.87229 1.083754,-0.24492 0.885186,-0.47428 0.228732,-0.45927 0.625791,-1.01008 0.534176,-0.1984 0.808995,-0.0918 0.610495,-0.18306 0.274935,1.30095 0.778414,0.47426 0.503747,0.16941 -0.04574,1.14789 0.107103,1.0559 0.778448,1.05596 0.564752,0.78061 0.244076,0.42831 -1.190497,0.24487 -0.900516,0.76527 -0.396895,0.64279 -1.526202,0.97952 -0.763222,-0.30574 z"
   style="fill:#ffffff;fill-opacity:1;fill-rule:nonzero;stroke:#808080;stroke-width:0.49999997;stroke-linecap:butt;stroke-linejoin:miter;stroke-miterlimit:4;stroke-dasharray:none;stroke-opacity:1" />
<path
   inkscape:label=""
   inkscape:connector-curvature="0"
   id="EDUCACION_TRUJILLO_SUR_ESTE"
   d="m 87.60663,265.66257 1.770463,-1.04053 0.610518,-1.22445 0.671575,-0.0614 0.06098,0.67343 1.15998,1.40799 0.854727,1.22453 0.85476,1.3467 1.098928,0.30543 0.73261,-0.18304 2.014738,0.42818 1.892621,0.24492 0.97676,0.061 0.91589,0.97949 1.46523,0.79586 1.28214,-0.42825 1.34313,-0.12197 1.70946,-0.73468 0.73261,-0.18271 0.5495,0.91829 -0.67155,1.16316 0.24406,1.53055 0.61057,0.55104 0.67156,1.71409 0.73266,0.55086 0.85473,0.12197 0.85476,0.7347 0.8547,1.10186 -0.2436,0.85707 -0.30542,0.91836 -0.36638,0.857 0.24434,1.28563 0.18304,0.55092 -0.67161,0.55099 -0.30542,1.65296 -1.28212,0.85709 -1.09897,0.30543 -1.03787,1.59168 -1.34318,-0.24488 -1.34312,1.16315 -1.22107,0.36757 -0.61053,1.65298 -0.48846,0.36794 -6.044195,-8.81548 -0.305426,-4.53012 -8.730459,-10.8358 z"
   style="fill:#ffffff;fill-opacity:1;fill-rule:nonzero;stroke:#808080;stroke-width:0.49999997;stroke-linecap:butt;stroke-linejoin:miter;stroke-miterlimit:4;stroke-dasharray:none;stroke-opacity:1" />
<path
   inkscape:label=""
   inkscape:connector-curvature="0"
   id="EDUCACION_PACASMAYO"
   d="m 19.408602,155.46184 1.820391,6.20155 0,8.97423 2.330118,7.00417 8.446643,12.76809 2.767002,4.37762 6.043728,-3.21027 4.441778,-1.75115 0.655345,-3.21011 0.800966,-0.51084 3.640809,0.87558 2.257289,0.80268 1.747567,-3.64806 2.40294,-3.86697 1.529142,-1.60502 2.548562,-4.52364 2.111664,-3.72097 2.038831,-1.96991 1.019421,-2.26179 -3.567974,-1.02142 -2.475757,-0.14641 -2.475717,-3.50212 -3.203917,-0.14642 -3.640793,-1.16731 -3.276711,-2.26179 -2.621383,-0.21841 -3.058265,-0.87546 -1.237874,-0.94847 -0.218426,-0.65672 0,-2.40765 -0.873789,-1.82396 -1.966036,-2.33474 -1.019427,-1.3134 -0.655334,-0.43743 -2.767015,0.87544 -1.310676,0.21863 0.218428,2.18867 -0.291229,1.6781 -1.165044,0.21843 -1.019425,0.0727 -0.94661,-1.09442 -1.23787,-1.09439 -0.728156,1.45923 -0.800978,2.48063 -0.728159,1.09446 -0.873789,0.21841 -4.660226,-0.5108 z"
   style="fill:#ffffff;fill-opacity:1;fill-rule:nonzero;stroke:#808080;stroke-width:0.49999997;stroke-linecap:butt;stroke-linejoin:miter;stroke-miterlimit:4;stroke-dasharray:none;stroke-opacity:1" />
<path
   inkscape:label=""
   inkscape:connector-curvature="0"
   id="EDUCACION_ASCOPE"
   d="m 36.269154,197.50767 2.162515,4.74639 -1.3387,3.09545 -0.720837,2.88908 3.913133,4.23049 2.265492,2.99228 1.441698,3.92084 0.617866,4.02408 10.812619,9.80226 6.075645,6.08773 3.707202,2.27 3.810138,-2.99221 2.162541,-2.99234 1.544637,-1.44448 2.368486,-1.13506 2.471461,0.20605 0.9268,1.03183 -0.823816,2.37309 0.411867,1.23824 0.411903,0.72226 2.780379,0.51595 2.471458,0.10417 2.47146,-2.37315 1.8536,-1.75407 0.926778,-2.16692 1.235741,-2.16671 0.514871,-2.47641 2.059543,-0.61914 3.192318,0.61914 1.956563,-0.72226 3.089305,-1.03177 1.4417,-0.61916 0.20601,-1.75409 -0.61786,-1.96045 0,-0.72226 2.57443,-0.92869 1.85358,-0.41315 0.51488,-0.31007 0.61788,-1.34131 1.33871,-1.75411 1.54466,-0.20628 -1.64765,-0.20609 -1.8536,-0.82539 -2.05954,-0.61906 -1.54466,-0.31014 -1.54463,-2.26996 -0.92682,-3.19868 -0.82382,-2.3732 0.10312,-1.75401 1.33871,-4.43686 1.02977,-2.88907 2.05955,-0.20607 4.63396,-0.82552 3.50124,0.30951 0.1029,-3.19867 -0.61788,-1.75416 -0.82382,-0.31004 -0.8238,1.85726 -4.63399,0.72221 -3.08932,0.41314 -1.85359,0.10396 -4.633978,-0.41302 -0.102803,4.43671 -5.457814,1.13501 -3.604189,-3.92095 -1.853601,-3.50807 -1.029772,-2.88903 c 0,0 -1.235719,-3.50825 -1.235719,-3.92105 0,-0.4131 -1.441687,-5.36534 -1.441687,-5.36534 l -2.162519,-3.71455 -4.119091,-2.88912 -5.354823,-3.71452 -2.88336,1.03179 -3.70719,3.50817 -3.501235,5.67499 -2.574424,4.9527 -2.059546,2.88918 -1.338713,3.09539 -1.853581,1.23818 -5.045892,-2.47632 -0.9268,2.99216 -2.471457,1.13507 -4.119089,1.85731 z"
   style="fill:#ffffff;fill-opacity:1;fill-rule:nonzero;stroke:#808080;stroke-width:0.49999997;stroke-linecap:butt;stroke-linejoin:miter;stroke-miterlimit:4;stroke-dasharray:none;stroke-opacity:1" />
<path
   inkscape:label=""
   inkscape:connector-curvature="0"
   style="fill:#ffffff;fill-opacity:1;stroke:#808080;stroke-width:0.49999997;stroke-miterlimit:4;stroke-dasharray:none;stroke-opacity:1"
   id="EDUCACION_CHEPEN"
   d="m 46.162206,155.402 c -0.05981,-0.14363 -1.009597,-0.77398 -2.110248,-1.40058 l -2.001187,-1.13921 0,-1.69891 c 0,-1.61645 -0.129818,-1.84962 -2.68154,-4.80832 l -2.681564,-3.10934 -1.929784,0.49353 c -5.058047,1.29349 -4.540069,0.95832 -4.540069,2.93861 l 0,1.7639 -1.770777,-1.48652 c -1.429633,-1.20025 -1.834409,-1.39138 -2.101609,-0.99218 -0.871529,1.30224 -1.660856,3.09186 -1.879769,4.26205 -0.132967,0.71094 -0.341809,1.28583 -0.464053,1.27768 -0.122397,-0.003 -1.083711,-0.21407 -2.136491,-0.45797 -1.787711,-0.41396 -2.006109,-0.58197 -3.306272,-2.54376 -1.713685,-2.58575 -3.230054,-4.5094 -5.829541,-7.39537 l -2.001152,-2.22178 2.311332,-2.49477 c 5.970867,-6.44486 13.459234,-14.65569 15.960926,-17.50076 1.518946,-1.7275 3.236501,-3.34617 3.816743,-3.59719 2.039508,-0.88208 5.182247,-1.81207 6.123932,-1.81207 1.151123,0 3.308459,1.58884 7.452544,5.48851 2.541151,2.39124 3.016138,3.00359 2.842093,3.66423 -0.463889,1.76064 1.862265,8.46465 3.283347,9.4626 0.74711,0.52477 0.750391,0.56286 0.173176,2.0095 l -0.5884,1.47469 1.860056,1.9495 c 3.221675,3.37678 3.100376,3.13236 2.51799,5.07278 -0.280375,0.93453 -0.513284,2.73419 -0.517407,3.9993 l -0.01103,2.3 -1.464598,1.04697 c -4.826928,3.45038 -8.23534,5.68236 -8.3302,5.45488 l -5.4e-5,0 z" />
</svg>
