<?xml version="1.0" encoding="UTF-8" standalone="no"?>
<!--?xml version="1.0" encoding="UTF-8" standalone="no"?-->

<!--?xml version="1.0" encoding="UTF-8" standalone="no"?-->

<!--
************* Copyright (c) 2015 Pareto Softare, LLC DBA Simplemaps.com *******************		
************* Free for Commercial Use, full terms at  http://simplemaps.com/resources/svg-license ************
************* Attribution is appreciated! http://simplemaps.com ***************************
-->

<svg
   xmlns:dc="http://purl.org/dc/elements/1.1/"
   xmlns:cc="http://creativecommons.org/ns#"
   xmlns:rdf="http://www.w3.org/1999/02/22-rdf-syntax-ns#"
   xmlns:svg="http://www.w3.org/2000/svg"
   xmlns="http://www.w3.org/2000/svg"
   xmlns:sodipodi="http://sodipodi.sourceforge.net/DTD/sodipodi-0.dtd"
   xmlns:inkscape="http://www.inkscape.org/namespaces/inkscape"
   enable_background="new 0 0 1000 1585"
   height="549.01257"
   pretty_print="True"
   style="fill:none;stroke:#000000;stroke-linejoin:round"
   version="1.1"
   viewBox="0 0 354.46857 549.01257"
   width="354.46857"
   id="svg2"
   inkscape:version="0.91 r13725"
   sodipodi:docname="Lambayeque.svg"><sodipodi:namedview
   pagecolor="#ffffff"
   bordercolor="#666666"
   borderopacity="0.05098039"
   objecttolerance="10"
   gridtolerance="10"
   guidetolerance="10"
   inkscape:pageopacity="0"
   inkscape:pageshadow="2"
   inkscape:window-width="1920"
   inkscape:window-height="1017"
   id="namedview37"
   showgrid="false"
   inkscape:zoom="0.93309322"
   inkscape:cx="-122.39329"
   inkscape:cy="357.5951"
   inkscape:window-x="-8"
   inkscape:window-y="-8"
   inkscape:window-maximized="1"
   inkscape:current-layer="svg2"
   showborder="true"
   fit-margin-top="10"
   fit-margin-left="10"
   fit-margin-right="10"
   fit-margin-bottom="10"
   borderlayer="false"
   inkscape:showpageshadow="false"
   inkscape:snap-to-guides="false"
   inkscape:snap-grids="false"
   showguides="false" />























utf-8<defs
   id="defs4">
  <style
     type="text/css"
     id="style6">path { fill-rule: evenodd; }utf-8utf-8</style>
</defs>























utf-8<metadata
   id="metadata8">
utf-8utf-8<views>
utf-8utf-8utf-8<view
   h="1585.21431143"
   padding="0"
   w="1000">
utf-8utf-8utf-8utf-8<proj
   flip="auto"
   id="robinson"
   lon0="-80.0286400104" />























utf-8utf-8utf-8utf-8<bbox
   h="307.01"
   w="193.79"
   x="-1203.32"
   y="0.49" />























utf-8utf-8utf-8</view>























utf-8utf-8</views>























utf-8<rdf:rdf>
  <cc:work
     rdf:about="">
    <dc:format>image/svg+xml</dc:format>
    <dc:type
       rdf:resource="http://purl.org/dc/dcmitype/StillImage" />
  </cc:work>
</rdf:rdf>
<rdf:rdf>
  <cc:work
     rdf:about="">
    <dc:format>image/svg+xml</dc:format>
    <dc:type
       rdf:resource="http://purl.org/dc/dcmitype/StillImage" />
    <dc:title />
  </cc:work>
</rdf:rdf>
<rdf:RDF>
  <cc:Work
     rdf:about="">
    <dc:format>image/svg+xml</dc:format>
    <dc:type
       rdf:resource="http://purl.org/dc/dcmitype/StillImage" />
    <dc:title />
  </cc:Work>
</rdf:RDF>
</metadata>























utf-8<path
   inkscape:label=""
   inkscape:connector-curvature="0"
   style="fill:#ffffff;fill-opacity:1;stroke:#808080;stroke-width:0.49999997;stroke-miterlimit:4;stroke-dasharray:none;stroke-opacity:1"
   id="EDUCACION_FERRENAFE"
   d="m 220.28595,289.38952 c -0.0581,-0.0957 -0.38255,-1.04865 -0.73063,-2.11988 -0.34806,-1.07143 -0.71949,-2.04202 -0.82489,-2.15648 -0.11557,-0.12386 -3.28328,0.002 -7.88024,0.33223 l -7.68829,0.53982 -3.74064,-1.85589 c -2.05733,-1.02061 -5.17013,-2.34696 -6.91732,-2.94752 l -3.1767,-1.09165 0.15606,-1.03784 c 0.52143,-3.46917 2.97099,-11.81164 5.6429,-19.21483 l 1.33951,-3.71154 -0.90894,-2.54394 c -0.5002,-1.39909 -0.90894,-2.58309 -0.90894,-2.63075 0,-0.008 1.43297,-0.87979 3.18423,-1.84854 l 3.18434,-1.76159 -0.7717,-2.45986 c -0.42378,-1.35289 -0.923,-2.88865 -1.10806,-3.41237 -0.25032,-0.71014 -0.26581,-0.95159 -0.0646,-0.94967 0.75797,0.002 8.70351,0.7228 11.52423,1.03702 4.47506,0.49788 7.10825,0.93008 10.45912,1.71508 l 2.88407,0.67595 5.03501,-2.66376 c 5.95003,-3.14758 8.36003,-4.29983 12.3805,-5.91905 3.52072,-1.41797 4.74326,-1.7877 8.27818,-2.50477 1.45424,-0.29594 2.69411,-0.58722 2.75523,-0.64746 0.0646,-0.008 -0.66615,-2.14743 -1.61628,-4.63648 -0.95016,-2.48923 -1.72753,-4.60619 -1.72753,-4.70464 0,-0.0983 0.70216,-0.21824 1.5603,-0.26633 1.32927,-0.0755 1.81364,-0.23307 3.27103,-1.06736 0.94084,-0.53803 2.74356,-1.80866 4.00604,-2.82208 1.26254,-1.01347 2.53304,-2.03309 2.82339,-2.26622 0.47195,-0.3787 0.59904,-0.92474 1.19856,-5.14862 0.36916,-2.59879 0.74351,-4.84886 0.83244,-5.00011 0.0885,-0.15031 3.06904,-4.34872 6.62277,-9.32769 3.55356,-4.97905 6.53218,-9.17376 6.61909,-9.32177 0.0868,-0.14985 -0.8207,-1.82347 -2.05117,-3.77802 l -2.20916,-3.50927 2.13475,-7.18194 2.13455,-7.18237 -0.54063,-3.92434 c -0.76747,-5.57311 -0.64766,-5.2031 -1.82564,-5.63804 -1.11857,-0.4121 -1.42024,-0.8256 -0.73453,-1.00459 0.66935,-0.17408 1.78027,-1.84981 2.48906,-3.75291 l 0.62929,-1.68912 3.04012,0 3.04016,0 1.97288,3.89935 c 2.12192,4.19377 3.73019,6.76226 4.99631,7.97939 0.44821,0.43126 1.45341,1.0023 2.30967,1.31263 l 1.51554,0.54865 0.0581,-5.81042 0.0646,-5.81039 2.69709,1.03403 2.69708,1.03376 0,2.71915 0,2.71908 2.71947,0 2.71946,0 0.94142,2.46366 c 0.51746,1.35513 1.04438,2.73918 1.17026,3.0759 l 0.22842,0.61235 3.80003,-0.99522 3.80001,-0.99502 0,2.50302 0,2.5028 -3.54785,0 -3.54777,0 -5.40017,7.08113 -5.40014,7.08114 1.9513,5.19296 1.95108,5.19276 -1.4389,1.73247 c -0.79135,0.95277 -1.62002,1.96693 -1.84136,2.25363 -0.60486,0.78389 -3.30228,2.90125 -5.19326,4.07592 -0.92112,0.57235 -3.1593,1.67906 -4.97398,2.45949 l -3.29918,1.4189 -0.0673,1.73625 -0.0675,1.73622 -6.34555,1.18509 c -3.49013,0.65158 -6.48743,1.23949 -6.66067,1.30592 -0.56106,0.21278 -3.599,6.62171 -4.6474,9.80178 -0.9266,2.81091 -2.89033,10.69528 -2.89033,11.60494 0,0.20594 1.27924,2.31213 2.8427,4.68078 l 2.84276,4.30663 -0.94067,2.9796 c -0.51749,1.63859 -1.01449,2.93402 -1.10451,2.87846 -0.0903,-0.009 -2.23573,1.2518 -4.76779,2.90543 l -4.60391,3.00676 -11.68375,-1.31415 -11.68367,-1.31415 -2.88132,2.37877 -2.88123,2.37856 -0.0257,5.07161 -0.0257,5.07101 2.92672,3.84814 2.92674,3.84833 0.11488,-1.68646 0.11546,-1.68665 1.90385,3.2664 1.90376,3.26632 -2.64023,2.9291 c -1.45214,1.61121 -2.79949,3.06128 -2.9941,3.22236 -0.28893,0.23956 -0.35378,0.89958 -0.35378,3.58847 l 0,3.29506 -5.49544,0 c -3.02247,0 -5.53932,-0.0774 -5.59294,-0.17088 z" />
<path
   inkscape:label=""
   inkscape:connector-curvature="0"
   id="EDUCACION_LAMBAYEQUE"
   d="m 37.46596,222.5832 21.19164,-28.19032 18.282963,-28.60494 16.620868,-23.6302 11.634639,-7.46204 20.36057,-3.73108 11.21911,-4.97469 18.28296,-16.99726 4.15524,-12.022474 2.90869,-23.215596 4.15522,-13.265937 7.8949,-5.803887 6.23285,-2.072946 4.98625,12.436843 -0.41551,9.949773 6.23283,8.705653 0.41553,1.658315 9.55702,-0.829127 4.98624,4.560217 -1.24654,3.731218 2.90865,7.047461 3.73969,6.632927 -4.15521,8.70598 0.41553,5.80393 6.23284,0.829 9.14147,-2.07272 7.47942,-2.48731 -2.49314,10.36394 4.98628,9.53504 7.06388,3.73117 9.14147,-5.38951 6.23284,0 6.23283,3.73108 4.15521,4.97484 5.40181,8.29128 -1.24656,4.1457 0.41555,9.53483 -3.3242,10.77892 -0.83106,4.97461 4.15526,4.97475 -13.71224,19.06995 -1.24657,7.04771 -4.57077,6.21838 -6.2328,-0.41503 -1.66212,3.73102 2.90867,5.80378 0.83107,2.48733 -8.72599,1.65828 -12.05013,5.38935 -4.98627,2.07296 -7.4794,-0.82928 -12.88117,-1.24368 -5.81733,0.416 -2.49314,3.31674 2.90868,2.48731 -2.90868,2.90198 -2.90866,2.07277 0.41557,4.14566 0,3.73106 -6.23285,21.14288 0.41549,3.31652 2.90864,2.07273 8.31045,2.48733 -5.8173,4.56031 -6.64837,2.07267 -7.4794,4.14583 -4.57073,9.53502 -3.32417,3.731 -9.55702,-11.60776 -20.36059,-15.75345 -22.02268,-14.09532 -22.022696,-12.43683 -14.127733,-9.53513 -19.945069,-10.77846 -12.881186,-6.21856 z"
   style="fill:#ffffff;fill-opacity:1;fill-rule:evenodd;stroke:#808080;stroke-width:0.49999997;stroke-linecap:butt;stroke-linejoin:miter;stroke-miterlimit:4;stroke-dasharray:none;stroke-opacity:1" />
<path
   inkscape:label=""
   inkscape:connector-curvature="0"
   style="fill:#ffffff;fill-opacity:1;stroke:#808080;stroke-width:0.49999997;stroke-miterlimit:4;stroke-dasharray:none;stroke-opacity:1"
   id="EDUCACION_CHICLAYO"
   d="m 224.14607,376.40176 c -0.12847,-0.93582 -0.23445,-2.22329 -0.23445,-2.86103 0,-1.05016 -2.25827,-3.45206 -23.9668,-25.49134 -16.7338,-16.98856 -24.03447,-24.63648 -24.19127,-25.34136 -0.3776,-1.69586 -1.53786,-6.0114 -1.79778,-6.68382 -0.18606,-0.48275 -0.10674,-0.57999 0.33578,-0.41052 0.48342,0.18678 0.58113,-0.009 0.58113,-1.46361 0,-1.5486 0.23628,-1.99841 2.89463,-5.5285 1.70417,-2.26257 3.20889,-4.69936 3.6586,-5.92527 1.20617,-3.28747 2.67158,-4.18717 8.05033,-4.94265 3.90354,-0.54824 5.96481,-1.60314 11.13485,-5.69681 l 2.48102,-1.96446 4.91094,0.009 c 2.7009,0.005 6.31063,0.15435 8.02153,0.27672 l 3.11065,0.2214 2.65859,2.11453 2.65862,2.11458 5.49889,10e-4 5.49887,0.001 0,-4.18413 0,-4.18435 2.10994,-2.25215 c 2.68673,-2.86742 3.66218,-4.84621 3.64986,-7.40355 l -0.009,-1.95655 -4.85807,-4.50009 -4.85826,-4.5003 0.004,-3.05973 0.009,-3.06053 2.74137,-2.24986 c 2.08954,-1.71523 3.0099,-2.24774 3.87075,-2.23991 0.62091,0.002 5.75378,0.55374 11.40585,1.21841 l 10.27652,1.208 2.71007,-1.39456 c 2.71358,-1.39647 4.6075,-2.85017 5.28274,-4.05487 0.33586,-0.60006 0.47384,-0.57402 2.04312,0.37208 0.92561,0.55897 1.68289,1.15485 1.68289,1.32558 0,0.17158 -0.42121,1.68787 -0.93492,3.3712 -0.51438,1.68345 -0.79817,3.19517 -0.63114,3.35932 0.1668,0.16306 1.59973,0.79522 3.18329,1.4027 l 2.87944,1.1042 1.74199,-1.08118 c 0.95809,-0.59388 1.80237,-1.08144 1.8762,-1.08144 0.3878,0 5.22658,6.71866 5.22658,7.25655 0,0.53533 -1.41538,9.87312 -1.96969,12.99439 l -0.17591,0.9901 3.17135,0 3.17149,0 5.59922,4.12615 5.59919,4.12621 3.84074,-1.03724 3.8405,-1.03732 0,1.77115 0,1.77141 2.8847,0 2.88468,0 0,1.98003 c 0,2.35469 -0.24018,2.29726 5.22027,1.24524 2.09803,-0.40516 3.9537,-0.64881 4.1239,-0.54486 0.1699,0.10428 0.97402,1.7042 1.78654,3.5538 1.76821,4.02537 2.88846,8.00692 2.3822,8.46657 -0.19321,0.17641 -3.23696,1.51038 -6.7633,2.96605 l -6.41167,2.64687 -2.38998,3.8389 -2.39004,3.83895 -1.92414,0.19837 c -2.55282,0.26313 -5.76932,2.02894 -11.45753,6.29088 -4.35603,3.26409 -4.532,3.44701 -4.52808,4.70799 0.001,0.7221 0.40643,5.60528 0.89735,10.85252 0.49126,5.24715 0.89508,9.90549 0.89741,10.35167 0.003,0.7115 -0.53162,0.42563 -4.36522,-2.34014 -5.0125,-3.61527 -8.22929,-6.84391 -8.92941,-8.96196 l -0.48216,-1.46051 -6.00014,-1.29187 -5.99998,-1.29211 -2.17325,2.13743 -2.17316,2.13751 -4.36521,0 -4.36528,0 -1.70056,4.34155 -1.70052,4.34151 -11.90941,12.66909 c -6.5502,6.96794 -12.5138,13.29081 -13.25237,14.05068 l -1.3429,1.38145 -0.23441,-1.70171 0,0 z" />
</svg>
