<?xml version="1.0" encoding="UTF-8" standalone="no"?>
<!--?xml version="1.0" encoding="UTF-8" standalone="no"?-->

<!--?xml version="1.0" encoding="UTF-8" standalone="no"?-->

<!--
************* Copyright (c) 2015 Pareto Softare, LLC DBA Simplemaps.com *******************		
************* Free for Commercial Use, full terms at  http://simplemaps.com/resources/svg-license ************
************* Attribution is appreciated! http://simplemaps.com ***************************
-->

<svg
   xmlns:dc="http://purl.org/dc/elements/1.1/"
   xmlns:cc="http://creativecommons.org/ns#"
   xmlns:rdf="http://www.w3.org/1999/02/22-rdf-syntax-ns#"
   xmlns:svg="http://www.w3.org/2000/svg"
   xmlns="http://www.w3.org/2000/svg"
   xmlns:sodipodi="http://sodipodi.sourceforge.net/DTD/sodipodi-0.dtd"
   xmlns:inkscape="http://www.inkscape.org/namespaces/inkscape"
   enable_background="new 0 0 1000 1585"
   height="549.01257"
   pretty_print="True"
   style="fill:none;stroke:#000000;stroke-linejoin:round"
   version="1.1"
   viewBox="0 0 354.46857 549.01257"
   width="354.46857"
   id="svg2"
   inkscape:version="0.91 r13725"
   sodipodi:docname="Lima Provincias.svg"><sodipodi:namedview
   pagecolor="#ffffff"
   bordercolor="#666666"
   borderopacity="0.05098039"
   objecttolerance="10"
   gridtolerance="10"
   guidetolerance="10"
   inkscape:pageopacity="0"
   inkscape:pageshadow="2"
   inkscape:window-width="1920"
   inkscape:window-height="1017"
   id="namedview37"
   showgrid="false"
   inkscape:zoom="0.83380882"
   inkscape:cx="-52.967584"
   inkscape:cy="213.74178"
   inkscape:window-x="-8"
   inkscape:window-y="-8"
   inkscape:window-maximized="1"
   inkscape:current-layer="svg2"
   showborder="true"
   fit-margin-top="10"
   fit-margin-left="10"
   fit-margin-right="10"
   fit-margin-bottom="10"
   borderlayer="false"
   inkscape:showpageshadow="false"
   inkscape:snap-to-guides="false"
   inkscape:snap-grids="false"
   showguides="false" />























utf-8<defs
   id="defs4">
  <style
     type="text/css"
     id="style6">path { fill-rule: evenodd; }utf-8utf-8</style>
</defs>























utf-8<metadata
   id="metadata8">
utf-8utf-8<views>
utf-8utf-8utf-8<view
   h="1585.21431143"
   padding="0"
   w="1000">
utf-8utf-8utf-8utf-8<proj
   flip="auto"
   id="robinson"
   lon0="-80.0286400104" />























utf-8utf-8utf-8utf-8<bbox
   h="307.01"
   w="193.79"
   x="-1203.32"
   y="0.49" />























utf-8utf-8utf-8</view>























utf-8utf-8</views>























utf-8<rdf:rdf>
  <cc:work
     rdf:about="">
    <dc:format>image/svg+xml</dc:format>
    <dc:type
       rdf:resource="http://purl.org/dc/dcmitype/StillImage" />
  </cc:work>
</rdf:rdf>
<rdf:rdf>
  <cc:work
     rdf:about="">
    <dc:format>image/svg+xml</dc:format>
    <dc:type
       rdf:resource="http://purl.org/dc/dcmitype/StillImage" />
    <dc:title />
  </cc:work>
</rdf:rdf>
<rdf:RDF>
  <cc:Work
     rdf:about="">
    <dc:format>image/svg+xml</dc:format>
    <dc:type
       rdf:resource="http://purl.org/dc/dcmitype/StillImage" />
    <dc:title />
  </cc:Work>
</rdf:RDF>
</metadata>























utf-8<path
   inkscape:label=""
   inkscape:connector-curvature="0"
   style="fill:#ffffff;fill-opacity:1;stroke:#808080;stroke-width:0.49999994;stroke-miterlimit:4;stroke-dasharray:none;stroke-opacity:1"
   id="EDUCACION_CANETE"
   d="m 237.85689,442.23139 c -5.0815,-5.76959 -7.82028,-9.08995 -14.52857,-17.61322 -3.46064,-4.39698 -7.66094,-9.3365 -9.33383,-10.97704 -3.01708,-2.95841 -3.04171,-3.00521 -3.04171,-5.82923 0,-2.42332 -0.17938,-2.98355 -1.2068,-3.76336 -1.09899,-0.83435 -1.25576,-1.47342 -1.75619,-7.16167 -1.05534,-11.99605 -0.28681,-10.24898 -7.35568,-16.71242 l -6.2197,-5.68653 -5.52315,-11.16067 c -6.16218,-12.45125 -7.86992,-15.00696 -12.94321,-19.36994 l -3.50804,-3.01695 1.7536,-0.73199 1.75366,-0.73199 0,-5.70372 0,-5.70425 2.21216,-0.30319 c 1.21675,-0.16596 3.91659,-1.14561 6.0001,-2.17555 3.15315,-1.55892 3.73668,-2.03345 3.48318,-2.83121 -0.26252,-0.8261 0.0747,-0.74155 2.43727,0.60852 1.50792,0.86213 3.0079,1.56763 3.33344,1.56763 0.66856,0 2.35983,-3.63319 3.98834,-8.56709 0.81709,-2.4758 1.37063,-3.39223 2.17584,-3.603 0.59393,-0.15451 1.15849,-0.20223 1.25459,-0.1091 0.0964,0.0963 0.86182,2.84148 1.70175,6.10103 1.37158,5.32308 1.73602,6.14299 3.57695,8.05051 1.97926,2.05044 2.15634,2.12333 5.1561,2.12333 l 3.1064,0 2.5755,-2.87302 c 1.41665,-1.58026 3.26965,-3.93651 4.11808,-5.23614 1.24997,-1.9147 1.64647,-2.22849 2.09016,-1.6549 0.30154,0.38969 1.21784,0.7783 2.03704,0.86402 1.47742,0.15406 1.49591,0.19616 2.29967,5.07632 0.77467,4.70295 1.308,5.79607 2.83697,5.81487 0.96619,0.004 0.74567,0.71953 -0.62509,2.00623 -1.03314,0.97 -1.25018,1.64059 -1.25018,3.86216 0,2.31274 -0.27899,3.09925 -2.0004,5.6316 -1.10007,1.61869 -2.00031,3.06793 -2.00031,3.22047 0,0.15083 1.24091,0.27628 2.75755,0.27628 2.47526,0 2.90838,0.16583 4.23174,1.62413 0.81085,0.89296 1.98906,2.58167 2.61835,3.75194 0.80077,1.48981 1.36924,2.03522 1.8942,1.81723 1.90454,-0.79038 2.50036,-0.79286 2.50036,-0.004 0,1.44691 -1.9328,5.92257 -2.97776,6.89501 -0.87825,0.81748 -1.02345,1.56785 -1.02826,5.30484 -9.5e-4,2.39389 -0.14293,5.1805 -0.31033,6.19247 -0.30159,1.81892 -0.28219,1.84355 1.63084,2.15269 4.2396,0.68417 4.18557,0.65209 4.18557,2.50081 0,1.5655 0.35083,1.99134 3.74202,4.54158 3.6086,2.7141 4.74456,4.40413 4.75653,7.07812 9.5e-4,0.35587 0.62851,0.62454 1.45745,0.62454 1.30827,0 1.67889,-0.41468 3.68511,-4.12225 l 2.23061,-4.12232 6.92941,-0.14016 c 6.76939,-0.139 6.96256,-0.17143 8.34623,-1.49545 l 1.41638,-1.35606 3.34626,1.83503 c 5.01315,2.74837 4.76187,4.16336 -0.89429,5.03811 l -3.63694,0.56232 0.31,3.27435 c 0.17027,1.80106 0.31122,4.19323 0.31282,5.31608 9.5e-4,1.70422 0.42485,2.56607 2.55287,5.21543 2.37203,2.95326 2.52782,3.31494 2.23934,5.20333 -0.1708,1.11655 -0.98179,3.41013 -1.80328,5.09754 -2.03008,4.17003 -8.76032,10.50357 -17.89703,16.84182 -6.57537,4.56138 -7.09205,5.03445 -7.09662,6.49568 -0.002,1.77754 -1.476,5.15383 -4.49124,10.31226 -2.73085,4.67217 -3.39702,4.66202 -7.60585,-0.11715 l 0,0 z" />
<path
   inkscape:label=""
   inkscape:connector-curvature="0"
   style="fill:#ffffff;fill-opacity:1;stroke:#808080;stroke-width:0.49999994;stroke-miterlimit:4;stroke-dasharray:none;stroke-opacity:1"
   id="EDUCACION_YAUYOS"
   d="m 301.30006,408.43477 c -1.11164,-1.60773 -1.67617,-1.9531 -3.63048,-2.22081 -1.27284,-0.17466 -4.65136,-1.41851 -7.50792,-2.76481 -3.72566,-1.75591 -5.58296,-2.37332 -6.5704,-2.18473 -0.99986,0.19085 -1.27372,0.0963 -1.00034,-0.34508 0.20693,-0.3351 -0.007,-2.16603 -0.52204,-4.06979 -0.88208,-3.39767 -0.92887,-3.46161 -2.5418,-3.46161 -1.53183,0 -1.60781,-0.0788 -1.12051,-1.14647 0.40538,-0.88795 0.28982,-1.73498 -0.51083,-3.76566 -0.5683,-1.4408 -1.03333,-2.83634 -1.03333,-3.10099 0,-0.26496 1.01741,-0.48107 2.26103,-0.48107 1.60515,0 2.8384,-0.38101 4.25067,-1.31544 1.9086,-1.26209 1.98958,-1.42466 1.98958,-3.99752 0,-2.34239 -0.12648,-2.68154 -0.99345,-2.68154 -0.54629,0 -2.43922,-1.22586 -4.20634,-2.72343 l -3.21291,-2.72349 -1.69129,2.04687 c -1.56206,1.89029 -1.78149,1.9981 -2.87279,1.41457 -1.03867,-0.55529 -1.2807,-0.50051 -2.0008,0.45345 -0.7874,1.04295 -1.04559,1.07151 -6.64748,0.73683 l -5.82829,-0.34905 -1.27408,2.94505 c -0.70082,1.6196 -1.57539,3.60883 -1.94353,4.42026 l -0.66925,1.47531 -1.21742,-3.18574 c -1.14327,-2.99182 -1.35396,-3.23083 -3.45787,-3.92353 -2.6498,-0.8729 -2.67982,-0.91048 -3.44387,-4.32159 l -0.59412,-2.65322 -2.79926,-0.35009 -2.79935,-0.3498 0.31481,-4.78618 c 0.25531,-3.88048 0.51106,-4.9951 1.35236,-5.88995 1.1672,-1.24115 4.15319,-8.53426 3.75668,-9.1755 -0.14068,-0.22785 -1.55545,-0.9007 -3.14284,-1.49458 -2.54064,-0.95053 -3.11767,-1.43747 -4.82123,-4.06959 -2.25054,-3.47731 -2.60637,-3.77071 -3.58757,-2.95679 -0.92714,0.76865 -0.93284,-0.004 -0.008,-4.6582 0.42705,-2.20507 1.03272,-3.74062 1.73188,-4.39151 1.58486,-1.47513 1.36281,-3.50698 -0.67501,-6.17428 -2.76542,-3.61993 -2.44839,-7.27564 1.18381,-13.64995 0.97885,-1.7174 1.90037,-3.11454 2.04806,-3.10411 0.1476,0.004 0.87485,0.89536 1.61585,1.96602 2.34116,3.38351 2.7868,3.38599 7.12627,0.008 2.15454,-1.66312 4.96454,-3.32728 6.42847,-3.80666 4.12214,-1.35017 10.35197,-4.63793 10.35197,-5.46385 0,-0.56839 0.64816,-0.74396 2.7505,-0.74396 3.11028,0 3.0243,0.19079 2.01961,-4.49229 -0.38232,-1.78348 -0.65603,-3.25682 -0.60745,-3.27399 0.05,-0.004 0.6875,-0.40514 1.42014,-0.86261 l 1.33215,-0.83122 -0.75143,-2.87519 c -0.41404,-1.58098 -0.56266,-2.93817 -0.33232,-3.0154 2.81811,-0.94422 3.99289,-2.11972 6.02156,-6.02513 1.3578,-2.61413 2.1491,-4.79465 2.1491,-5.92169 l 0,-1.78446 3.6256,0.32067 c 1.99415,0.17682 6.04461,0.68837 9.00138,1.1371 5.05983,0.7678 5.37588,0.88405 5.37588,1.9776 0,1.03045 0.23678,1.1625 2.08012,1.1625 1.83843,0 2.41512,0.3194 4.96362,2.74822 1.58596,1.51158 3.09809,2.74827 3.36029,2.74827 0.26223,0 1.76686,-0.59021 3.34379,-1.3116 2.56808,-1.17488 3.0696,-1.25062 4.81121,-0.72937 1.79828,0.53838 1.94576,0.72114 1.96544,2.43563 0.005,1.70579 0.2782,2.03333 3.24304,4.10249 1.77208,1.23634 3.22513,2.41278 3.22925,2.61427 0.002,0.2008 -0.85101,1.7753 -1.90033,3.49757 -1.04926,1.72252 -2.04752,3.50655 -2.21845,3.96422 -0.19031,0.51008 0.79994,2.93121 2.55443,6.24578 2.42184,4.57546 3.15226,5.54916 4.71892,6.29157 l 1.8537,0.87849 0,3.24375 0,3.24398 1.93525,0 c 1.87703,0 1.95497,0.0713 2.58814,2.32955 0.56791,2.02682 0.54764,2.51205 -0.15503,3.73603 -0.75989,1.32301 -0.71914,1.88664 0.68364,9.45349 l 1.49173,8.0467 -2.52171,4.67368 c -2.49076,4.61639 -2.52155,4.72825 -2.52155,9.13098 0,4.30281 0.0592,4.53528 1.70521,6.68933 l 1.70518,2.23126 -1.45516,2.33588 c -0.80037,1.28495 -1.44427,2.50548 -1.43096,2.71239 0.004,0.20662 1.19491,1.34102 2.62546,2.52031 5.51165,4.54333 5.41201,4.42192 4.7714,5.82669 -0.46638,1.02255 -0.93622,1.2729 -2.38854,1.2729 -1.63242,0 -1.90384,0.20389 -2.79511,2.09317 -0.83469,1.76945 -1.33501,2.19205 -3.23755,2.73341 -2.14171,0.60923 -2.35163,0.83963 -4.34718,4.77686 l -2.09692,4.13729 0.69057,3.24794 c 0.85641,4.02744 0.30588,5.13746 -3.3028,6.66088 -2.2919,0.96761 -2.44546,1.14679 -2.44546,2.85614 0,1.64983 -0.18197,1.89525 -1.9121,2.57418 -1.81857,0.71391 -1.97607,0.69543 -3.22161,-0.37557 -1.34581,-1.15677 -4.91977,-2.05831 -5.85924,-1.47829 -0.29002,0.17897 -1.09008,1.4341 -1.77701,2.78892 -0.68697,1.35459 -1.30162,2.45466 -1.36568,2.44396 -0.0643,-0.004 -0.70899,-0.87531 -1.43295,-1.92254 l 0,0 z" />
<path
   inkscape:label=""
   inkscape:connector-curvature="0"
   style="fill:#ffffff;fill-opacity:1;stroke:#808080;stroke-width:0.49999994;stroke-miterlimit:4;stroke-dasharray:none;stroke-opacity:1"
   id="EDUCACION_HUAROCHIRI"
   d="m 209.61993,320.84668 c -0.94583,-1.47746 -2.54582,-5.07538 -3.55517,-7.99471 l -1.83501,-5.30803 -2.81477,0.004 -2.81461,0.004 -1.64501,5.23677 c -1.06778,3.39913 -1.89271,5.23724 -2.35069,5.23724 -0.3878,0 -1.8184,-0.23903 -3.17827,-0.53004 -2.10486,-0.45101 -2.51062,-0.72929 -2.72907,-1.87077 -0.20254,-1.06156 0.41111,-2.3048 2.948,-5.96576 3.17679,-4.58464 3.20451,-4.65394 3.20451,-8.04628 l 0,-3.4224 -1.93216,-0.75822 c -1.60507,-0.62995 -1.98862,-1.05963 -2.26633,-2.5384 -0.18249,-0.97907 -1.03842,-2.5268 -1.89912,-3.43963 -1.08138,-1.14688 -1.75166,-2.54292 -2.16933,-4.51818 -0.58556,-2.76962 -0.56764,-2.88203 0.5808,-3.63419 1.01707,-0.66574 1.18509,-1.17916 1.18509,-3.62152 0,-2.75123 -0.0859,-2.93121 -2.54619,-5.42185 l -2.54606,-2.57601 4.17142,-1.51252 4.17125,-1.51274 -0.009,-2.4224 c -0.006,-1.45052 -0.54853,-3.52588 -1.30322,-5.17115 -1.139,-2.48284 -1.70589,-3.03224 -5.87247,-5.69053 l -4.61171,-2.94217 -2.63617,2.60129 c -2.52607,2.49282 -2.97926,2.71282 -10.83764,5.26803 -4.5107,1.4666 -8.36999,2.56239 -8.57633,2.43494 -0.20648,-0.12771 -0.37561,-1.45497 -0.37561,-2.95047 0,-2.56664 0.0704,-2.71852 1.25021,-2.71852 1.18202,0 1.25015,-0.14912 1.25015,-2.74803 l 0,-2.74797 -2.53593,0 -2.53603,0 1.75165,-1.65063 c 0.96343,-0.90802 1.90404,-2.25722 2.09017,-2.9983 0.32658,-1.29828 0.46208,-1.34735 3.74485,-1.34735 l 3.40634,0 2.54032,-2.84813 c 1.39715,-1.56585 2.54045,-3.02749 2.54045,-3.24755 0,-0.2205 0.69879,-0.39936 1.55302,-0.39936 1.23026,0 2.32044,-0.71594 5.24299,-3.44311 4.00901,-3.74095 8.19509,-6.11901 18.5282,-10.52586 l 6.07115,-2.58916 0.87772,-2.33882 c 0.48273,-1.28644 1.42085,-3.42604 2.08495,-4.75473 1.12316,-2.24755 1.15265,-2.49876 0.42262,-3.6115 -0.75069,-1.14459 -0.68693,-1.33762 1.49697,-4.5251 1.25472,-1.8311 2.40996,-3.9721 2.56718,-4.75792 0.17561,-0.87566 0.60052,-1.42429 1.09864,-1.41743 1.28056,0.004 4.64289,1.6873 7.44247,3.69714 1.41127,1.01299 3.40637,1.97807 4.43358,2.14465 1.53104,0.24879 2.84302,1.27282 7.28117,5.68614 2.97744,2.96105 5.88556,5.53312 6.46227,5.71611 0.70018,0.22148 2.04864,-0.19083 4.05758,-1.24323 l 3.00907,-1.57591 1.94106,1.2834 c 2.23594,1.47828 2.14329,0.71561 1.38365,11.40118 l -0.56066,7.8833 6.18789,6.35705 c 7.49639,7.70155 12.71608,14.14293 13.12783,16.2002 0.16825,0.83843 0.30534,2.57122 0.30534,3.85105 0,2.17096 0.19207,2.51754 2.88994,5.1838 2.32127,2.2953 3.20901,2.85765 4.51087,2.85765 l 1.6209,0 -1.07866,2.12346 c -1.53916,3.03025 -3.74282,6.14006 -6.52768,9.21259 -2.57768,2.84389 -2.75281,3.36667 -1.81619,5.42091 0.55674,1.22087 0.46059,1.43076 -1.3531,2.95226 -1.86383,1.56336 -1.91862,1.69207 -1.20619,2.83136 0.41113,0.65632 1.02129,1.82609 1.35705,2.59908 l 0.61043,1.40616 -6.73823,3.23747 c -4.32794,2.07946 -7.64342,3.34473 -9.2684,3.53705 -2.42029,0.28664 -2.60018,0.41604 -4.14229,2.98014 -1.50076,2.49545 -1.73283,2.67165 -3.36241,2.55182 -1.55633,-0.11458 -1.90861,-0.42425 -3.18086,-2.79588 l -1.4306,-2.66746 -1.65891,1.60646 c -1.76661,1.71116 -4.73122,6.83055 -4.73122,8.17054 0,0.58143 -0.47017,0.80444 -1.69607,0.80444 -1.39212,0 -1.75237,-0.22445 -2.00987,-1.24895 -0.17274,-0.68713 -0.6388,-1.2492 -1.03614,-1.2492 -0.79746,0 -4.43085,4.20036 -7.46795,8.63362 -1.9292,2.81579 -1.99466,2.85881 -4.38192,2.85881 -2.38425,0 -2.45133,-0.009 -4.1434,-2.68674 l 0,0 z" />
<path
   inkscape:label=""
   inkscape:connector-curvature="0"
   style="fill:#ffffff;fill-opacity:1;stroke:#808080;stroke-width:0.49999994;stroke-miterlimit:4;stroke-dasharray:none;stroke-opacity:1"
   id="EDUCACION_CANTA"
   d="m 171.70911,234.94146 c 0,-0.60278 -0.77037,-0.74954 -3.93157,-0.74954 -3.31025,0 -4.46063,-0.23929 -7.28088,-1.5171 l -3.34932,-1.5177 -1.95999,1.55084 -1.95981,1.55094 -1.76097,-1.34181 c -1.61618,-1.23183 -1.76107,-1.55548 -1.76107,-3.93749 l 0,-2.596 -3.99805,-1.15438 -3.99808,-1.15407 1.55086,-1.76507 c 0.85299,-0.97087 1.77403,-2.40465 2.04674,-3.18604 0.28896,-0.82653 0.85952,-1.42088 1.365,-1.42088 0.88322,0 5.45361,-3.23129 6.18392,-4.37226 0.22065,-0.34341 0.80724,-0.62459 1.3049,-0.62459 0.49784,0 1.91494,-0.88836 3.14953,-1.97431 2.12663,-1.87023 2.30269,-1.93332 3.35318,-1.19815 1.37751,0.96436 1.6065,0.74409 2.56294,-2.46439 l 0.76887,-2.57914 -2.01671,-1.53727 c -1.10927,-0.84514 -2.09057,-1.91924 -2.18083,-2.38764 -0.13989,-0.72312 0.27566,-0.85034 2.7764,-0.85034 2.735,0 3.19684,-0.18134 6.61287,-2.58533 l 3.67239,-2.58511 5.04668,0.80973 c 5.80008,0.93068 5.48623,1.06211 9.32868,-3.91423 1.56812,-2.03076 1.97696,-2.98619 1.97696,-4.61883 l 0,-2.05875 4.6257,-0.14584 4.62578,-0.14245 0.15499,-1.87397 0.15516,-1.87336 2.68553,0 c 2.40424,0 2.70221,0.11706 2.84536,1.12395 0.14231,0.99883 0.5223,1.15626 3.41025,1.40874 1.78776,0.15562 3.74192,0.5498 4.34276,0.87466 1.52025,0.82092 1.65816,0.76263 1.65816,-0.70032 0,-1.26929 0.009,-1.25527 2.47791,0.87419 l 2.47777,2.16471 0.005,3.33249 c 0.005,3.28999 0.0549,3.36741 2.52282,6.0662 2.73051,2.985 3.32292,5.37984 1.63626,6.61245 -0.73394,0.53621 -1.11262,0.41347 -2.51436,-0.81631 -2.07826,-1.82351 -5.21835,-3.44282 -8.12232,-4.18881 l -2.24934,-0.57758 -2.50141,3.77959 c -1.69952,2.56825 -2.86225,3.83146 -3.62731,3.93986 -0.87048,0.12138 -1.06985,0.40688 -0.87914,1.24926 1.1083,4.8926 1.15316,5.40685 0.49438,5.65943 -0.73915,0.28255 -1.72699,2.73519 -1.762,4.37339 -0.003,0.57755 -0.96856,2.0805 -2.12524,3.34006 -2.00459,2.1834 -2.42305,2.38216 -8.95131,4.24729 -6.84385,1.95565 -6.84889,1.95803 -7.58595,3.83058 -0.71715,1.82127 -0.80805,1.87379 -3.27106,1.87379 l -2.53342,0 -0.57246,2.27144 c -0.47487,1.8834 -0.89961,2.43842 -2.4877,3.24786 -2.30105,1.17278 -2.45511,1.18727 -2.45511,0.22714 z" />
<path
   inkscape:label=""
   inkscape:connector-curvature="0"
   style="fill:#ffffff;fill-opacity:1;stroke:#808080;stroke-width:0.49999994;stroke-miterlimit:4;stroke-dasharray:none;stroke-opacity:1"
   id="EDUCACION_HUARAL"
   d="m 117.17298,217.41893 c -3.65673,-4.10164 -6.0228,-7.2668 -6.32122,-8.45579 -0.31739,-1.26195 -2.45852,-4.54248 -6.37314,-9.76147 l -3.87475,-5.16609 -2.177571,-1.25244 -2.177753,-1.25215 0.509809,-0.65483 c 0.866636,-1.1129 2.541919,-2.31164 4.864375,-3.48049 l 2.22671,-1.12015 0,-6.02823 0,-6.02821 1.31005,-1.3255 1.31014,-1.32527 3.9772,1.98968 3.97716,1.98975 0.75954,2.50615 0.7593,2.50568 1.84193,0.0738 1.84167,0.0753 0,1.00601 0,1.00585 2.38287,0 2.38268,0 1.15261,-1.23129 c 1.38669,-1.48126 1.81731,-2.27839 2.19568,-4.06426 0.35122,-1.65787 0.53035,-2.00995 2.12336,-4.17544 l 1.2623,-1.71638 2.62771,0 2.62759,0 1.1459,-3.62347 1.1459,-3.62297 -0.35268,-2.03391 c -0.71663,-4.12848 -0.49887,-3.68701 -1.81918,-3.68701 l -1.17011,0 0.14174,-3.87752 c 0.10636,-2.94151 0.27007,-4.28927 0.6796,-5.58304 0.29669,-0.93784 0.6282,-1.76063 0.73749,-1.82848 0.10977,-0.068 0.51908,1.18912 0.91056,2.79277 l 0.7117,2.91556 0.92743,-0.15393 c 3.0969,-0.51585 4.82682,-1.41125 7.79826,-4.03667 l 1.78136,-1.57444 4.00677,-0.81278 4.00688,-0.81319 5.591,1.40097 c 3.07498,0.77022 5.81955,1.4008 6.09903,1.4008 0.87248,0 4.2489,-4.43363 5.98807,-7.86273 0.36023,-0.70979 0.69142,-1.29086 0.73645,-1.29086 0.009,0 0.74135,0.91485 1.54704,2.03292 1.20025,1.66551 1.56376,2.01069 2.01312,1.91015 0.30193,-0.0703 1.69321,-0.29769 3.09291,-0.51396 3.24451,-0.49802 6.18348,-1.28496 6.99792,-1.87349 1.23149,-0.8899 2.19655,-1.25785 5.31087,-2.02534 1.72919,-0.42599 3.33743,-0.94933 3.57365,-1.16301 0.38856,-0.35152 0.69238,-0.27819 3.21577,0.77669 l 2.78622,1.1656 2.06779,3.6373 2.06766,3.63747 -1.11341,1.09161 c -0.61248,0.60063 -1.1135,1.2946 -1.1135,1.54276 0,0.75939 3.2147,13.65267 4.05794,16.27597 0.5641,1.75447 0.98236,2.6159 1.44816,2.9819 l 0.65507,0.51479 -0.65239,1.68682 -0.65239,1.68693 0.78362,1.55118 c 0.43091,0.85362 1.0486,1.97076 1.37232,2.48276 l 0.58833,0.93121 -0.72026,0.68971 -0.72037,0.68961 -1.31576,-0.90444 c -1.24745,-0.85738 -4.72117,-2.12547 -9.37173,-3.42134 l -1.85512,-0.51667 -0.73573,1.01449 c -0.40528,0.55829 -1.28512,1.81853 -1.9567,2.80073 l -1.22102,1.78536 -1.0229,-0.14229 c -0.56256,-0.0777 -2.30174,-0.21699 -3.86491,-0.31003 l -2.84193,-0.16717 -0.16604,1.24257 c -0.57741,4.30122 -0.83704,4.80474 -4.17194,8.09343 l -2.04828,2.0203 -3.73804,-1.05635 -3.73789,-1.05622 -4.93016,3.04067 -4.93008,3.0409 -2.91848,0 -2.91856,0 0,2.26424 0,2.26447 2.02745,1.48601 c 1.11481,0.81758 2.03101,1.56293 2.03565,1.65738 0.003,0.21762 -4.82096,2.10995 -6.39557,2.50456 -0.65291,0.16484 -1.82676,0.25814 -2.60857,0.20959 l -1.42156,-0.0878 3.8e-4,2.60586 2.1e-4,2.60626 -2.03578,0 -2.03571,0 0,1.14424 c 0,0.62922 -0.0951,1.14422 -0.21037,1.14422 -0.11538,0 -0.93174,-0.2919 -1.81317,-0.6509 -0.88135,-0.35827 -1.77188,-0.58549 -1.97895,-0.50606 -0.2069,0.0801 -1.03163,-0.25407 -1.83224,-0.73939 -2.76486,-1.67814 -5.38285,-2.77665 -6.87393,-2.88462 l -1.41725,-0.10369 -1.23049,3.27997 -1.23066,3.27974 -1.31259,0.45378 c -1.91933,0.66329 -4.36486,2.36107 -6.97447,4.84248 l -2.29939,2.18652 -3.52627,-3.95577 2e-4,0 z" />
<path
   inkscape:label=""
   inkscape:connector-curvature="0"
   style="fill:#ffffff;fill-opacity:1;stroke:#808080;stroke-width:0.49999994;stroke-miterlimit:4;stroke-dasharray:none;stroke-opacity:1"
   id="EDUCACION_HUAURA"
   d="M 92.143797,185.09831 C 82.18332,179.06361 73.9446,174.36415 67.56531,171.0778 l -3.330238,-1.71507 -0.57511,-1.56402 c -1.064794,-2.89513 -1.543847,-4.85882 -1.543847,-6.33035 l 0,-1.46283 3.020012,0 3.019804,0 0.797158,-2.11053 c 0.438376,-1.16057 0.797213,-2.2262 0.797213,-2.36748 0,-0.57062 -2.695256,-8.3682 -4.25254,-12.30322 -0.939062,-2.37226 -1.866549,-5.21804 -2.134771,-6.54899 -0.26034,-1.29473 -0.643468,-2.61202 -0.850156,-2.92687 -0.460612,-0.70286 -1.06388,-4.19694 -1.371106,-7.94101 l -0.228921,-2.79701 -2.070116,-3.85511 c -1.138428,-2.12035 -2.069942,-3.96314 -2.069942,-4.09471 0,-0.1336 2.14708,-0.49115 4.771349,-0.79802 l 4.771249,-0.55813 4.071557,1.36938 4.071582,1.36873 0.172745,2.0589 c 0.177945,2.11343 0.422095,2.84234 1.265808,3.77018 l 0.484364,0.53259 2.47387,-0.82222 c 1.360867,-0.45201 4.126854,-1.12276 6.146832,-1.48982 2.019968,-0.36806 3.713567,-0.70908 3.763691,-0.75885 0.05049,-0.0502 -0.248473,-0.94523 -0.664266,-1.98965 -1.066578,-2.683 -1.55549,-5.34544 -1.55549,-8.47066 l 0,-2.69855 1.819142,-2.1349 c 1.847015,-2.16734 2.866889,-3.0072 4.636671,-3.82008 2.046887,-0.93975 4.752581,-5.400859 4.925328,-8.120231 l 0.09636,-1.525837 -0.522229,0.600769 c -0.287738,0.32897 -0.522439,0.463713 -0.522439,0.296394 0,-0.166658 -0.703663,-1.153712 -1.563783,-2.192617 l -1.563833,-1.888858 1.617086,-1.713372 c 3.549572,-3.759341 6.117726,-6.416268 6.201786,-6.416268 0.0505,0 0.16619,0.314502 0.26299,0.698922 0.0964,0.384255 0.65108,1.660144 1.23298,2.834348 1.0354,2.089496 1.092,2.150681 2.63369,2.841813 2.36423,1.060062 6.34826,2.449638 8.3555,2.914732 1.02874,0.238587 3.07112,0.430404 4.83486,0.454338 3.61235,0.0095 4.45028,-0.254915 6.95791,-2.522341 l 1.53815,-1.390989 5.0993,2.550317 5.09911,2.549721 1.84954,-0.735104 1.8495,-0.735177 0.0836,0.92711 c 0.22062,2.434304 -1.01141,3.864558 -4.3745,5.08044 -1.72419,0.623487 -7.76955,2.208084 -12.28874,3.2213 -0.91692,0.2058 -2.9117,2.67391 -3.96385,4.90416 -0.54698,1.16 -0.95102,2.2395 -0.89793,2.39883 0.0531,0.15858 0.66234,0.47859 1.35352,0.70929 l 1.25685,0.41858 0.35613,5.23667 0.35588,5.23671 -1.61155,1.91467 c -2.8696,3.40905 -3.66359,4.8776 -3.04197,5.62575 0.17291,0.20872 0.68865,0.37834 1.14642,0.37834 0.99287,0 1.13798,0.28253 1.15005,2.24568 l 0.003,1.44111 2.88257,1.84326 c 3.24739,2.07697 2.85758,2.00053 8.53449,1.67385 l 2.91021,-0.16887 1.81275,-1.80179 c 1.31015,-1.30266 1.89918,-2.10032 2.12471,-2.87922 0.5232,-1.8047 3.18819,-5.06131 10.00512,-12.22618 l 2.49701,-2.62418 3.63679,-0.3776 3.63682,-0.37793 2.15566,1.18395 c 2.8786,1.58144 5.49001,3.5489 8.26288,6.22587 l 2.29025,2.21134 2.85215,0.69675 c 1.56889,0.38227 3.01216,0.71333 3.20759,0.73373 0.19582,0.004 1.6998,-1.67949 3.34305,-3.77732 1.64329,-2.0974 3.0124,-3.83975 3.04267,-3.87166 0.008,-0.008 1.11091,0.22557 2.4015,0.56914 l 2.34648,0.62769 4.04806,-2.02539 c 3.45415,-1.72822 4.06667,-1.96076 4.17574,-1.5865 0.0704,0.24047 0.66738,3.16193 1.32711,6.48992 l 1.19931,6.05118 -0.9178,0.94105 c -1.18707,1.21754 -1.70642,2.49994 -1.8878,4.66212 l -0.14647,1.74571 -2.1467,0 -2.14689,0 -2.48444,1.6528 c -2.21211,1.47147 -2.62166,1.65248 -3.73288,1.6531 -1.01404,8.4e-4 -4.04949,0.66212 -6.52848,1.42248 -0.39578,0.11897 -0.44529,-0.0682 -0.44529,-1.66029 l 0,-1.79648 -2.6613,0 -2.66118,0 -0.68475,1.2073 c -1.74107,3.0716 -2.96912,4.889 -4.27821,6.33236 l -1.41911,1.56509 -1.33656,-0.72192 c -1.52024,-0.82123 -4.88737,-1.57041 -10.32852,-2.29945 l -3.64817,-0.48847 -6.18237,4.18524 -6.18235,4.18567 -0.2957,-2.46995 c -0.50927,-4.26191 -0.2825,-3.90178 -2.39541,-3.81561 l -1.82138,0.074 -0.69561,3.05106 c -1.28893,5.65241 -1.16523,9.61208 0.34189,10.95208 0.78969,0.70227 1.48547,2.35833 1.48758,3.54093 9.5e-4,1.0838 -0.51748,3.56136 -1.15459,5.50568 l -0.38782,1.18338 -2.21427,0.2973 c -3.51953,0.47181 -3.17126,0.1626 -5.30009,4.72246 l -1.89833,4.06632 -1.46223,0.56697 c -0.80429,0.31136 -1.57239,0.56592 -1.70695,0.5654 -0.13484,-9e-5 -1.56113,-0.49908 -3.17073,-1.10897 l -2.92642,-1.1086 -0.71207,-2.30483 -0.71199,-2.30487 -1.70543,-0.80445 c -3.01875,-1.42369 -5.72167,-2.31781 -7.15132,-2.36518 l -1.3743,-0.009 -1.59356,3.85587 -1.59358,3.85645 0.73566,2.88177 c 0.40524,1.58482 0.73824,3.00415 0.7413,3.15464 9.5e-4,0.14945 -1.70446,1.49392 -3.794523,2.98661 -2.791153,1.99376 -3.82154,2.872 -3.880731,3.30763 -0.07656,0.56665 -0.210508,0.51414 -3.007019,-1.18003 l 0,0 z" />
<path
   inkscape:label=""
   inkscape:connector-curvature="0"
   style="fill:#ffffff;fill-opacity:1;stroke:#808080;stroke-width:0.49999994;stroke-miterlimit:4;stroke-dasharray:none;stroke-opacity:1"
   id="EDUCACION_OYON"
   d="m 126.54317,126.48314 -3.35379,-3.08397 -0.004,-1.8304 -0.004,-1.83037 1.35823,-0.42773 1.35838,-0.42814 1.15854,-5.1153 1.1587,-5.11523 -0.71329,-0.63573 c -0.98625,-0.87869 -1.64089,-2.30351 -2.3614,-5.1385 l -0.61497,-2.41965 0.79912,-0.63701 c 1.93495,-1.54275 4.61778,-2.438115 11.69585,-3.903997 l 4.8055,-0.995565 3.29409,-3.749988 c 1.81179,-2.062861 3.41609,-3.750591 3.56529,-3.750591 0.14948,0 1.45601,0.635032 2.90383,1.410829 l 2.63268,1.411184 1.21118,-1.106724 c 1.95942,-1.790777 3.21618,-2.680378 4.32558,-3.062151 1.79102,-0.616721 3.38791,-2.276169 4.72215,-4.907058 1.42751,-2.814352 1.83238,-5.376717 2.22541,-14.084015 0.15458,-3.424814 0.32788,-6.273452 0.38461,-6.330332 0.0876,-0.08758 1.12963,0.272103 3.23116,1.117823 0.41224,0.166492 0.44583,-0.106359 0.44583,-3.689854 l 0,-3.868293 1.56817,1.450657 c 2.33065,2.155836 3.94749,3.131631 6.01681,3.630702 l 1.82683,0.439661 9.5e-4,1.0584 c 9.5e-4,1.756006 0.66616,4.602462 1.90409,8.172582 0.66462,1.916656 1.23953,4.093221 1.32627,5.021659 l 0.15335,1.638829 1.17191,0.0046 1.17198,0 1.86378,3.590283 1.86381,3.590453 -1.30088,1.316075 -1.30087,1.316192 1.63946,3.160149 c 2.47341,4.768337 4.47308,10.56782 4.4832,13.00262 0.002,0.84614 0.21998,1.14963 2.1033,2.96256 1.15465,1.11064 2.36893,2.23618 2.69836,2.50059 l 0.59903,0.48157 -2.44844,2.21379 -2.44842,2.21356 -4.00337,0 -4.0034,0 -3.56256,3.69615 -3.56258,3.69584 -2.08031,-1.17805 c -1.14398,-0.64808 -2.9189,-1.85774 -3.94419,-2.68829 -2.71687,-2.20093 -6.41663,-5.00234 -8.6446,-6.54597 l -1.94524,-1.34815 -4.67094,0.67894 c -5.58527,0.81165 -5.41798,0.76868 -5.74529,1.4796 -0.50969,1.10697 -2.78,3.90292 -5.47446,6.74138 -3.35854,3.53823 -5.55549,6.34026 -7.31888,9.33594 -0.74094,1.25836 -1.50012,2.53817 -1.68685,2.84345 l -0.33941,0.55558 -2.44299,-1.285 c -1.34397,-0.70722 -2.53534,-1.18568 -2.64825,-1.06402 -0.11182,0.12079 -0.533,0.75088 -0.93367,1.39786 l -0.72859,1.17687 -3.35384,-3.08368 z" />
<path
   inkscape:label=""
   inkscape:connector-curvature="0"
   style="fill:#ffffff;fill-opacity:1;stroke:#808080;stroke-width:0.49999994;stroke-miterlimit:4;stroke-dasharray:none;stroke-opacity:1"
   id="EDUCACION_CAJATAMBO"
   d="m 142.18308,82.577605 -6.36178,-0.470888 -2.03574,-1.011555 c -1.11972,-0.556442 -3.44146,-1.475537 -5.15943,-2.042879 l -3.12393,-1.031462 -2.89335,2.037324 -2.89332,2.037605 -4.22667,0 -4.22675,0 -3.66758,-1.91806 -3.6677,-1.918612 -1.68274,-2.266806 c -0.92563,-1.246644 -1.79483,-2.336113 -1.93186,-2.420354 -0.13597,-0.08634 0.86688,-1.348249 2.23086,-2.807378 l 2.47961,-2.65293 1.40337,-0.0013 c 1.60315,-8.69e-4 2.89525,-0.636372 3.35799,-1.651096 0.15844,-0.35045 0.42612,-0.636313 0.59132,-0.636313 0.16501,0 2.00096,0.344455 4.07821,0.764536 2.0775,0.419493 3.84168,0.670037 3.92047,0.554797 0.0784,-0.117033 0.85894,-1.192056 1.73359,-2.393296 l 1.59056,-2.183212 0,-4.219426 0,-4.219354 0.62669,0 c 0.90954,0 2.61735,-1.873977 6.89934,-7.570654 2.02605,-2.695753 4.11036,-5.374116 4.63159,-5.951422 1.20989,-1.340756 2.606,-1.973653 4.3829,-1.987108 l 1.39959,-0.0053 1.34417,-1.965727 c 0.73927,-1.081101 1.54855,-2.232544 1.79821,-2.558707 l 0.4545,-0.593276 2.10109,0.809582 2.10111,0.809607 1.11532,-0.979248 c 0.61345,-0.538577 1.76668,-1.550321 2.56253,-2.248835 l 1.44699,-1.269937 2.4748,2.644623 2.47485,2.644074 0.13043,2.058186 c 0.0754,1.188409 0.38902,2.809491 0.74296,3.837769 l 0.61249,1.779674 1.83511,0.07529 1.83516,0.0754 0,1.260301 0,1.260102 1.90858,0 1.90851,0 0,1.271181 0,1.271367 -1.41668,0 c -1.23009,0 -1.39945,0.05974 -1.28427,0.445152 0.22639,0.758745 1.42865,5.614012 1.42865,5.76676 0,0.0787 -0.85181,0.144368 -1.89291,0.144368 l -1.89289,0 -0.14632,1.080577 c -0.0794,0.594343 -0.36139,5.004152 -0.6253,9.800292 -0.46489,8.445397 -0.49941,8.749295 -1.10626,9.6654 -2.38434,3.600177 -7.64373,7.470753 -10.04205,7.390319 -0.52957,-0.0042 -3.82553,-0.24445 -7.32452,-0.503074 l 0,0 z" />
<path
   inkscape:label=""
   inkscape:connector-curvature="0"
   style="fill:#ffffff;fill-opacity:1;stroke:#808080;stroke-width:0.49999994;stroke-miterlimit:4;stroke-dasharray:none;stroke-opacity:1"
   id="EDUCACION_BARRANCA"
   d="m 76.137752,113.07921 c -0.135951,-0.52448 -0.419165,-1.62259 -0.628288,-2.44018 -0.209403,-0.81764 -0.418668,-1.52577 -0.466251,-1.57329 -0.02776,-0.009 -1.687365,-0.73778 -3.643988,-1.53384 l -3.557349,-1.44761 -2.507741,0.16271 c -3.192095,0.20771 -5.759486,0.77983 -7.572791,1.68753 l -1.4284,0.7148 -1.758572,-3.34735 -1.758501,-3.34746 -1.831067,-1.01711 -1.83102,-1.01703 -0.0079,-2.6401 -0.0079,-2.639855 -3.400514,-3.493355 c -2.511108,-2.579124 -3.587119,-3.883953 -4.113164,-4.987557 -0.924646,-1.93988 -2.736141,-4.350375 -6.006575,-7.993863 -1.451316,-1.616533 -2.781964,-3.116228 -2.956977,-3.33186 -0.264337,-0.325938 -0.0999,-0.808184 0.973754,-2.845032 0.710756,-1.349027 1.312111,-2.449242 1.336261,-2.445431 0.02631,0 1.8763,0.278483 4.115598,0.610893 l 4.071502,0.60394 1.60243,-1.030097 c 1.41966,-0.912314 1.587206,-1.105146 1.468553,-1.691577 -0.511844,-2.529452 -2.180455,-12.010322 -2.181351,-12.393426 -6e-4,-0.260374 1.087335,-2.262025 2.417699,-4.448667 l 2.418666,-3.975971 -0.6354,-4.668719 c -0.35001,-2.56805 -0.635815,-4.812108 -0.636291,-4.986717 -7.8e-4,-0.241472 1.053537,-0.318439 4.425741,-0.318439 l 4.42677,0 0.816455,1.271272 c 0.927516,1.44441 0.720261,1.400652 4.644881,0.975974 1.504956,-0.16271 2.805849,-0.227144 2.890823,-0.142317 0.231732,0.231314 0.892263,3.550949 0.770027,3.869098 -0.05857,0.149754 -2.539649,1.415002 -5.514115,2.807215 -6.227396,2.914487 -5.310921,1.905608 -7.619441,8.387203 l -1.360446,3.819927 -2.509218,1.748499 c -1.766577,1.230722 -2.474591,1.868493 -2.392194,2.155187 0.06507,0.224391 0.256679,1.509032 0.42704,2.856853 l 0.310057,2.450696 2.822466,0.297366 c 1.552414,0.163429 3.194769,0.360673 3.649496,0.438296 l 0.827164,0.139878 0,-1.42694 0,-1.426686 3.180864,0 3.180853,0 0,3.940882 0,3.941227 2.94526,0 2.94535,0 1.507981,-1.437194 c 1.453223,-1.384947 1.507965,-1.41232 1.507965,-0.750136 0,1.024169 -0.639842,2.069576 -1.647894,2.691989 -0.493361,0.304681 -0.897483,0.687418 -0.898259,0.850904 -6.68e-4,0.162618 0.350811,3.309444 0.780599,6.991311 l 0.782058,6.694422 -0.589873,0.727017 c -0.325223,0.39897 -1.267258,1.483142 -2.095344,2.408043 l -1.505629,1.681645 0.435288,1.379379 c 0.477719,1.513443 1.403479,2.784553 2.176009,2.986153 0.896158,0.23422 3.570068,-1.26113 8.67053,-4.84905 1.052137,-0.740304 1.392703,-0.826788 4.198707,-1.070975 3.239133,-0.281994 6.547002,-0.736803 11.32398,-1.557535 l 2.92637,-0.5027 1.097002,-1.193099 c 1.446944,-1.573355 1.294408,-1.17295 -0.842522,2.213341 l -1.78119,2.822345 -1.844986,3.32e-4 -1.84496,3.61e-4 0,1.873885 0,1.873965 -2.099333,0.76274 -2.099502,0.76282 0.08247,1.2409 c 0.02669,0.68205 0.297662,3.80981 0.562637,6.9503 0.26435,3.14043 0.444939,5.74537 0.400343,5.78923 -0.32223,0.32127 -5.977992,1.3369 -7.461143,1.33914 l -1.835023,0 -0.248122,-0.95352 0,1.5e-4 z" />
</svg>
