<?xml version="1.0" encoding="UTF-8" standalone="no"?>
<!--?xml version="1.0" encoding="UTF-8" standalone="no"?-->

<!--?xml version="1.0" encoding="UTF-8" standalone="no"?-->

<!--
************* Copyright (c) 2015 Pareto Softare, LLC DBA Simplemaps.com *******************		
************* Free for Commercial Use, full terms at  http://simplemaps.com/resources/svg-license ************
************* Attribution is appreciated! http://simplemaps.com ***************************
-->

<svg
   xmlns:dc="http://purl.org/dc/elements/1.1/"
   xmlns:cc="http://creativecommons.org/ns#"
   xmlns:rdf="http://www.w3.org/1999/02/22-rdf-syntax-ns#"
   xmlns:svg="http://www.w3.org/2000/svg"
   xmlns="http://www.w3.org/2000/svg"
   xmlns:sodipodi="http://sodipodi.sourceforge.net/DTD/sodipodi-0.dtd"
   xmlns:inkscape="http://www.inkscape.org/namespaces/inkscape"
   enable_background="new 0 0 1000 1585"
   height="549.01257"
   pretty_print="True"
   style="fill:none;stroke:#000000;stroke-linejoin:round"
   version="1.1"
   viewBox="0 0 354.46857 549.01257"
   width="354.46857"
   id="svg2"
   inkscape:version="0.91 r13725"
   sodipodi:docname="Lima Metropolitana.svg"><sodipodi:namedview
   pagecolor="#ffffff"
   bordercolor="#666666"
   borderopacity="0.05098039"
   objecttolerance="10"
   gridtolerance="10"
   guidetolerance="10"
   inkscape:pageopacity="0"
   inkscape:pageshadow="2"
   inkscape:window-width="1920"
   inkscape:window-height="1017"
   id="namedview37"
   showgrid="false"
   inkscape:zoom="0.72041555"
   inkscape:cx="-410.30435"
   inkscape:cy="210.57745"
   inkscape:window-x="-8"
   inkscape:window-y="-8"
   inkscape:window-maximized="1"
   inkscape:current-layer="svg2"
   showborder="true"
   fit-margin-top="10"
   fit-margin-left="10"
   fit-margin-right="10"
   fit-margin-bottom="10"
   borderlayer="false"
   inkscape:showpageshadow="false"
   inkscape:snap-to-guides="false"
   inkscape:snap-grids="false"
   showguides="false" />
















utf-8<defs
   id="defs4">
  <style
     type="text/css"
     id="style6">path { fill-rule: evenodd; }utf-8utf-8</style>
</defs>
















utf-8<metadata
   id="metadata8">
utf-8utf-8<views>
utf-8utf-8utf-8<view
   h="1585.21431143"
   padding="0"
   w="1000">
utf-8utf-8utf-8utf-8<proj
   flip="auto"
   id="robinson"
   lon0="-80.0286400104" />
















utf-8utf-8utf-8utf-8<bbox
   h="307.01"
   w="193.79"
   x="-1203.32"
   y="0.49" />
















utf-8utf-8utf-8</view>
















utf-8utf-8</views>
















utf-8<rdf:rdf>
  <cc:work
     rdf:about="">
    <dc:format>image/svg+xml</dc:format>
    <dc:type
       rdf:resource="http://purl.org/dc/dcmitype/StillImage" />
  </cc:work>
</rdf:rdf>
<rdf:rdf>
  <cc:work
     rdf:about="">
    <dc:format>image/svg+xml</dc:format>
    <dc:type
       rdf:resource="http://purl.org/dc/dcmitype/StillImage" />
    <dc:title />
  </cc:work>
</rdf:rdf>
<rdf:RDF>
  <cc:Work
     rdf:about="">
    <dc:format>image/svg+xml</dc:format>
    <dc:type
       rdf:resource="http://purl.org/dc/dcmitype/StillImage" />
    <dc:title />
  </cc:Work>
</rdf:RDF>
</metadata>
















utf-8<path
   style="fill:#ffffff;fill-rule:nonzero;stroke:#000000;stroke-width:0.33200002;stroke-linecap:butt;stroke-linejoin:miter;stroke-miterlimit:4;stroke-dasharray:none;stroke-opacity:1;fill-opacity:1"
   d="m 141.75777,371.03754 9.36274,3.0087 7.35643,2.3401 6.01892,2.3401 3.00945,-1.0029 -0.33438,-3.6773 -2.0063,-2.6744 -0.33439,-3.343 0.66877,-4.01161 0.33438,-3.00869 0.33439,-1.0029 -3.67823,-0.6686 -0.66876,-2.00581 -2.34069,-5.68309 0,-4.01161 -2.00629,-2.0058 1.67191,-6.686 -0.33438,-6.686 2.0063,0.3343 3.00944,-3.0087 1.67193,-2.3401 1.67192,-2.3401 1.33753,-1.33721 0.33438,-2.00579 2.67508,-2.67441 2.34068,0 -6.35329,-9.3604 -0.33438,-3.6773 2.67507,-2.67441 -3.00946,-1.0029 -1.67191,1.33721 -1.00315,2.6744 -2.67508,0 -1.00315,-2.6744 -3.34384,3.6773 -2.67506,0.33429 -0.66877,-2.67439 -1.33753,-2.0058 1.00315,-0.66861 0,-4.01159 -2.34069,0.3343 -2.0063,-0.66861 -1.00315,-1.0029 -2.34068,0.33431 3.34383,2.67439 0,2.67441 -3.34383,2.6744 -1.00316,0.6686 3.34384,2.0058 -3.67823,1.3372 1.67193,1.3372 -2.00631,5.68311 2.34068,3.67729 -3.00945,0.3343 -3.00944,-2.67439 -3.67823,0.33429 -2.34069,2.0058 -2.0063,2.3401 -2.34068,0 -3.34384,1.3372 -4.01261,0.33431 3.34384,4.3459 4.68137,2.67439 3.67822,4.68021 2.34069,3.343 0,4.3459 -0.66877,5.6831 -4.34699,1.67151 3.67823,3.34299 -0.66878,2.3401 -2.67506,0.66861 0,3.343 2.67506,2.67439 -2.34068,2.0058 2.34068,2.34011 -0.33438,2.6744 4.68137,0.3343 z"
   id="UGEL_07_SAN_BORJA"
   inkscape:connector-curvature="0"
   inkscape:label="UGEL_07_SAN_BORJA" />
<path
   style="fill:#ffffff;fill-rule:evenodd;stroke:#000000;stroke-width:0.33200002;stroke-linecap:butt;stroke-linejoin:miter;stroke-miterlimit:4;stroke-dasharray:none;stroke-opacity:1;fill-opacity:1"
   d="m 134.06695,269.41031 -1.33755,-3.34301 -2.67506,-2.00579 0.33438,-1.67151 -1.67191,-1.6715 0.33438,-4.3459 0.33438,-3.6773 -1.00316,-2.3401 0.3344,-3.6773 0.66876,-2.00581 -0.33438,-2.00579 2.34068,-2.0058 3.67823,-1.6715 0.66876,-2.3401 -1.67191,-2.67441 1.33753,-3.343 2.0063,-1.67149 3.34384,-4.01161 2.0063,-1.0029 0.33438,-2.3401 2.0063,0 1.67191,-2.34009 -1.00313,-1.33721 0.66875,-5.0145 4.34699,-3.34301 5.01576,-3.00869 1.00315,-3.0087 0.66878,-3.343 1.00313,-4.01161 2.3407,-0.33429 0,-5.3488 3.00944,-2.00581 2.00631,3.00871 1.33754,1.67149 4.0126,2.0058 3.34385,-2.0058 2.34068,-1.67149 6.0189,0 3.67823,-1.33721 0,2.0058 1.00315,5.3488 -1.33755,2.0058 -1.33753,2.00581 -2.34068,0.6686 -3.00946,2.00579 1.00315,2.67441 -1.67191,3.343 0,2.34009 0,3.67731 0,2.6744 3.00945,1.6715 -0.66876,2.3401 -3.00946,1.0029 -2.67508,2.6744 -3.00944,3.67731 -2.67507,3.0087 -1.00316,2.67439 -2.67506,0.66861 -1.00315,0 2.0063,4.68019 -4.01261,7.6889 -4.0126,8.02321 -1.33753,2.0058 0.66875,3.343 4.01261,1.00291 3.34384,2.67439 1.67192,3.34301 4.68137,0 -3.00946,1.67149 -2.00629,3.00871 -3.00945,0.33429 -4.01261,2.67441 -3.34384,3.0087 -2.67507,0.3343 -2.00629,-0.3343 0.33438,1.6715 -1.00316,2.3401 -0.66877,2.34011 3.34384,1.67149 3.00945,0 -4.68136,1.67151 -2.34069,-1.0029 -1.67192,2.0058 -5.01576,0 -2.0063,-2.0058 -0.33438,-4.68021 3.34383,0.33431 -0.33438,-3.343 -1.67192,-2.34012 -1.00315,-2.00578 -2.0063,1.67149 -2.0063,1.0029 -1.33754,-1.3372 -1.33754,-2.3401 2.00631,-2.6744 z"
   id="UGEL_05_SAN_JUAN_DE_LURIGANCHO"
   inkscape:connector-curvature="0"
   inkscape:label="UGEL_05_SAN_JUAN_DE_LURIGANCHO" />
<path
   style="fill:#ffffff;fill-rule:evenodd;stroke:#000000;stroke-width:0.33200002;stroke-linecap:butt;stroke-linejoin:miter;stroke-miterlimit:4;stroke-dasharray:none;stroke-opacity:1;fill-opacity:1"
   d="m 83.574996,262.39 2.340684,-3.67729 -1.003152,-2.34011 -2.006291,-1.0029 -1.337544,-5.0145 -1.337532,-4.68021 -1.671911,-1.67149 -3.343849,-2.3401 1.003152,-1.6715 4.346988,3.67729 5.015759,1.0029 4.346987,0 2.340684,0.66861 0.334392,-2.0058 3.343836,-3.343 3.343835,-4.6802 0,-3.0087 1.671926,-3.00871 1.67191,10.36331 2.0063,5.01449 3.00946,3.00871 1.00315,5.3488 2.67506,3.0087 4.01261,-4.0116 2.34069,-2.0058 1.00315,1.0029 3.00945,-3.00869 2.00631,0.33429 2.0063,0 -1.33754,5.6831 1.33754,2.0058 -1.00315,5.6831 1.00315,2.34011 2.0063,2.67439 0.66876,1.67151 0.66878,1.0029 1.67191,4.01159 1.33754,1.33721 -1.00315,2.3401 0,2.0058 1.67191,3.343 3.00946,0 -1.67191,3.6773 -4.347,-0.3343 -2.0063,-0.6686 -3.67822,-0.66859 -5.01576,-0.33431 -4.68137,-1.0029 -2.0063,-1.00289 -1.33754,1.33719 -3.67822,-1.0029 -2.00629,1.6715 -2.3407,0.6686 -3.343836,1.3372 -2.675063,0.6686 -1.671924,-1.33719 0.668772,-4.01161 2.006304,-2.0058 1.003151,-3.0087 1.003152,-1.3372 -3.343848,-2.3401 -1.671911,-2.3401 -2.675076,0 -3.343836,-3.34301 -1.671911,0.66861 -3.343835,-0.66861 -1.337545,-0.66859 z"
   id="UGEL_02_RIMAC"
   inkscape:connector-curvature="0"
   inkscape:label="UGEL_02_RIMAC" />
<path
   style="fill:#ffffff;fill-rule:evenodd;stroke:#000000;stroke-width:0.33200002;stroke-linecap:butt;stroke-linejoin:miter;stroke-miterlimit:4;stroke-dasharray:none;stroke-opacity:1;fill-opacity:1"
   d="m 92.603363,212.91359 -0.668772,-7.3546 0,-3.343 -0.33438,-2.0058 -3.009455,-1.67151 -1.671924,-1.67149 1.003152,-1.33721 -0.33438,-2.6744 -2.340684,0.6686 -2.675076,-2.00579 -2.675063,-1.67151 0.33438,-2.67441 0.668772,-1.00288 -2.006304,-2.34012 0.66876,-2.0058 -5.015747,-5.3488 -3.678224,0 -4.681372,-0.3343 -3.009453,-1.0029 -4.346989,3.67731 -4.346988,1.3372 -3.009454,2.0058 -3.343836,-1.0029 -5.350141,-1.3372 0.668769,-2.0058 1.671917,-1.67151 0.668769,-2.0058 -0.668769,-3.343 1.003152,-2.67439 -2.006302,-1.0029 -1.337536,-2.67441 -2.340684,-2.0058 -1.671919,-2.3401 -1.337536,-1.3372 -2.006302,-2.0058 -0.668767,-2.67441 1.337535,-3.00869 3.67822,4.3459 4.346989,-0.6686 3.009453,-3.0087 0.668768,-5.34881 -1.003152,-6.01739 2.67507,-2.0058 -2.340686,-3.67731 -4.346989,-5.3488 -2.675069,-3.6773 -3.343837,-3.343 -3.67822,-3.0087 -2.675071,-2.0058 4.681372,-1.67151 1.003152,-2.67439 -1.337535,-2.0058 0.668767,-2.00581 4.012605,-1.0029 3.009453,-2.3401 3.678221,-4.68019 3.343837,-1.671508 4.012605,0 3.67822,0 1.671919,3.342998 2.67507,-4.011603 5.015755,0 1.337536,-1.671494 -1.337536,-3.008703 -1.671919,-1.671506 -1.671917,-1.002901 -0.668767,-3.677296 -0.668769,-2.005802 -2.006302,-0.668605 4.681372,-2.674394 3.678221,3.342999 3.009453,-1.002901 3.678221,-3.677295 2.675076,-5.014506 5.015746,-2.340098 3.009456,-9.360406 0.33438,-4.680196 2.675076,-3.008704 4.681367,0 5.015759,0.334297 4.346988,3.677308 4.68137,3.00869 5.68453,4.011605 4.34699,2.005802 5.01575,2.340098 -2.34069,3.008703 -2.34068,3.008703 0,4.345901 -7.69083,8.023209 1.33753,4.3459 4.01261,6.017395 1.67193,2.67441 5.35013,0.33429 2.34069,2.0058 4.34699,1.3372 4.34698,-0.33429 2.34069,-4.01161 1.67192,2.3401 2.67506,3.0087 -1.00315,2.67441 1.00315,4.3459 2.00631,2.0058 -2.34069,4.01159 -0.66877,2.34011 -0.66876,2.00579 2.67507,1.00291 3.34383,-1.6715 3.34384,1.3372 2.67507,3.343 3.34384,4.0116 3.67823,1.67151 4.01259,0.33429 5.68453,0.6686 3.67822,-4.01159 2.34068,-2.3401 -0.33438,-2.67441 -0.33438,-3.343 8.69398,-1.3372 4.0126,1.0029 0.66876,2.3401 2.00631,-2.3401 3.67822,3.343 4.0126,4.0116 6.01891,0.3343 4.68137,-3.0087 5.68453,-1.0029 10.36589,2.3401 3.67822,3.343 -4.0126,5.0145 -5.68452,5.6831 -4.34699,1.67151 -4.01261,3.343 -3.00945,4.3459 -7.69083,0.33429 -5.35014,-1.33719 c 0,0 -3.00945,1.0029 -4.34698,1.0029 -1.33755,0 -4.01261,-1.3372 -4.01261,-1.3372 l -4.68137,1.67149 0.33438,3.00871 1.00315,5.0145 1.33754,3.343 -2.34069,4.3459 -7.69082,3.0087 -4.34699,1.00291 -2.34069,0 0.66877,3.0087 1.00315,4.6802 -3.00946,3.34299 -3.34383,2.34012 -1.67193,1.67149 -0.33437,3.343 -3.34384,3.0087 -0.33438,4.6802 -0.66877,3.67731 -6.68767,3.67729 -2.67508,3.343 -1.67191,2.34011 1.00315,5.01449 -1.33754,0 -1.67191,1.33721 0,1.3372 -4.34699,4.3459 0,1.3372 -4.01261,1.3372 -1.00315,1.33721 1.00315,3.0087 -0.33438,4.01159 -2.67507,1.67151 -2.34069,1.33719 0,3.00871 -5.68452,1.3372 -1.67192,0.6686 -1.00315,0.3343 -5.68452,5.3488 -2.34069,-3.6773 0,-3.343 -1.67192,-3.0087 -3.00946,-1.3372 0,-7.3546 -1.67191,-6.3517 -1.67192,-2.67441 -1.00315,2.67441 -1.671914,4.01159 -1.671924,2.67441 -0.668772,2.0058 -3.678215,3.0087 -3.343835,-1.67151 -2.006304,-3.34299 3.343835,-5.6831 0.668772,-5.3488 -1.003152,-3.00871 z"
   id="UGEL_04_COMAS"
   inkscape:connector-curvature="0"
   inkscape:label="UGEL_04_COMAS" />
<path
   style="fill:#ffffff;fill-rule:evenodd;stroke:#000000;stroke-width:0.33200002;stroke-linecap:butt;stroke-linejoin:miter;stroke-miterlimit:4;stroke-dasharray:none;stroke-opacity:1;fill-opacity:1"
   d="m 181.54943,232.97159 2.67507,3.67731 0,3.343 3.67822,-2.6744 3.00945,-1.6715 5.35014,1.6715 1.67191,-1.0029 3.67823,-2.0058 1.33753,-1.67151 4.01261,-1.0029 6.68767,-3.0087 3.67823,-3.343 1.67191,-1.67149 4.34699,1.0029 3.34383,3.00869 3.34385,0 -0.33439,-5.01449 4.34699,-4.01161 5.01576,0 6.68767,-0.3343 5.35014,-6.0174 4.0126,-2.3401 3.00946,-2.3401 7.69082,-3.67731 3.00946,-4.3459 4.34698,-5.68309 2.67508,-4.3459 4.01259,5.3488 5.01576,2.0058 1.67193,-0.33431 6.0189,1.67151 0.66877,3.67729 5.35014,2.3401 2.34068,4.0116 1.67193,-1.33719 4.34698,3.67729 0,2.67441 3.00946,3.0087 4.68137,4.6802 4.0126,3.67731 -0.33439,3.343 0,4.3459 -5.35014,4.3459 -3.67821,1.67149 -3.67823,2.34011 -3.67822,2.6744 -6.01891,-2.3401 -4.68136,3.67729 -6.01892,0.66861 -0.33438,4.6802 -1.33753,21.0609 3.34384,-0.33429 1.33753,-2.67441 5.01576,0 1.00315,-3.67729 5.35014,2.67439 3.00946,4.0116 4.01259,1.00291 2.0063,3.0087 6.01892,3.343 3.00945,5.0145 4.34699,5.0145 4.34699,5.68311 c 0,0 -3.34384,-3.00871 -4.68137,-3.343 -1.33755,-0.33431 -2.3407,-1.33721 -2.3407,-1.33721 l -2.67506,0.6686 -4.34699,-2.3401 -2.34068,-1.6715 -2.3407,0 -1.67191,3.67731 -2.0063,0.33429 -3.00946,0.66861 -3.34383,-0.66861 -2.00631,-0.33429 -1.33753,2.34009 -2.67507,4.01161 -1.00316,1.67149 2.3407,4.3459 -1.00315,4.01161 -5.68453,5.0145 -5.35014,2.6744 -5.35014,2.6744 -5.35014,-0.6686 -3.00946,2.0058 -4.34698,1.0029 -3.67822,0.66861 -3.00946,1.67149 -6.01891,-0.66859 -4.68136,1.0029 -3.67822,1.00289 -4.01261,1.0029 -3.67822,-3.343 -5.01575,-7.0203 -3.00946,-4.0116 -4.0126,-3.343 -5.35014,-5.68311 -3.34384,-5.6831 -2.0063,-2.67439 -2.34069,-4.3459 -1.33753,-1.33721 -2.0063,0.33431 0,4.01159 -0.33439,3.34301 0.66877,4.01159 -0.66877,5.01451 0.66877,3.0087 -1.67193,1.67149 -1.67191,3.67731 -2.0063,0.66859 -2.67508,3.67731 -3.34383,-0.33429 -2.34069,-1.67151 -3.00945,1.3372 -5.35014,1.6715 -3.67822,-1.33719 -2.67507,-5.3488 -3.34384,-3.00871 -2.0063,-2.0058 -0.66876,-6.3517 1.00315,-2.67441 -5.01576,2.34011 -1.67192,1.0029 -2.34069,-1.0029 -1.33753,2.3401 -3.34383,1.0029 -1.00315,-2.0058 0.33438,-2.3401 0,-3.343 0,-2.0058 -4.01261,-1.33721 6.01891,1.0029 4.68137,-2.67439 -1.33754,-1.3372 -2.34068,-1.0029 -1.67192,0.33429 -2.34069,-1.0029 1.33753,-3.0087 -0.33437,-1.3372 5.68451,0 2.67508,-2.3401 2.67506,-3.6773 4.347,-1.6715 0.33438,-2.0058 3.34384,-1.3372 2.0063,-1.0029 -1.00315,-1.6715 -3.67821,0.6686 -3.00946,-2.67441 -0.33439,-2.0058 -5.01575,-2.0058 -2.0063,-2.6744 1.33753,-4.3459 3.34383,-6.68599 3.00946,-5.68311 0.66877,-3.00871 -2.0063,-3.67729 3.00945,1.33719 2.67507,-3.0087 2.0063,-2.3401 z"
   id="UGEL_06_ATE"
   inkscape:connector-curvature="0"
   inkscape:label="UGEL_06_ATE" />
<path
   style="fill:#ffffff;fill-rule:evenodd;stroke:#000000;stroke-width:0.33200002;stroke-linecap:butt;stroke-linejoin:miter;stroke-miterlimit:4;stroke-dasharray:none;stroke-opacity:1;fill-opacity:1"
   d="m 173.52422,384.40954 6.35329,3.0087 4.68137,1.0029 6.68767,3.00871 8.3596,3.6773 6.01891,4.0116 8.0252,4.0116 0.33439,3.0087 6.0189,-0.33429 4.68138,2.67439 5.35014,3.0087 5.01575,2.3401 2.67507,3.00871 3.00946,1.33719 -0.66877,2.67441 2.34068,1.3372 2.0063,4.3459 1.00316,2.0058 1.33753,2.3401 2.0063,2.0058 1.00315,-2.3401 1.00316,0 0.66877,3.00871 1.67191,2.34009 2.34068,1.3372 3.67823,1.3372 3.00946,3.343 -0.66878,1.0029 3.00946,2.0058 2.67506,4.68021 1.33755,1.0029 2.0063,1.3372 1.00314,0.66859 -1.00314,0.66861 0.66876,2.0058 1.33753,2.0058 2.3407,1.3372 -1.00315,0 -1.33755,1.0029 -1.00315,1.0029 0.66877,2.3401 1.00315,3.343 0.33438,2.6744 1.67193,1.0029 0.33438,2.6744 0,2.67441 -2.34069,-1.0029 -2.34068,2.34009 0.66876,2.00581 -0.33438,3.343 -1.00315,3.0087 -1.33753,1.3372 -0.66878,3.0087 2.00631,2.3401 -2.34069,1.33719 -1.67192,-0.33429 -1.33753,1.0029 -0.33438,2.0058 1.67191,3.0087 -0.33438,1.6715 -1.67191,0 -1.00315,2.34011 2.67506,3.00869 -0.66876,2.67441 0.66876,3.0087 3.34384,2.0058 3.00945,0.3343 3.00946,0 2.34068,-1.67151 -1.33753,-2.0058 -2.0063,-1.67149 -1.00316,-1.0029 1.00316,-3.343 3.34383,0.66859 3.34384,-3.00869 3.00945,-4.34592 4.68137,-4.01159 2.0063,-6.3517 -0.33438,-3.0087 -1.33753,-3.6773 -1.67192,-2.34011 -1.33753,-1.67149 2.34068,-2.67441 0,-4.3459 0,-4.0116 -1.33753,-3.00869 -1.00315,-1.67151 0,-1.67151 -0.33438,-2.00579 -0.3344,-2.0058 1.67193,-0.33431 2.67506,-1.0029 4.01261,-0.66859 3.34383,0 3.67823,0 2.00631,0 1.67191,-2.3401 5.01576,-3.0087 1.00315,-2.67441 2.34068,-1.0029 3.00946,-2.0058 4.01261,1.33721 4.34698,-0.33431 2.00631,-3.00869 0,-2.67441 0,-1.3372 1.00315,-2.0058 1.00314,-2.3401 -1.33753,-1.0029 -1.53351,0 -1.81033,-0.66859 -3.34383,-2.67441 1.33753,-4.3459 0.33439,-2.34011 0,-1.67149 0,-3.67731 1.33753,-3.00869 1.67191,0.3343 0.66877,-2.3401 2.34069,-2.67441 2.34068,-1.0029 2.00631,-2.0058 0.66877,-3.343 0.33438,-2.3401 -0.66876,-3.0087 1.00314,-2.00581 4.0126,0 2.00631,-3.67729 1.00315,-3.67731 1.00315,-2.67439 1.33753,-3.67731 0.66878,-4.3459 -1.33754,-4.01159 0.66876,-3.67731 -0.66876,-4.01161 -1.33754,-2.0058 -2.0063,-1.00289 -3.00945,-1.0029 -1.33754,-1.6715 -2.00629,-1.00291 -2.00631,-1.67149 -0.66877,-1.67151 -2.0063,-3.67729 -0.66876,-2.67441 -3.34385,-3.343 -0.66876,-3.0087 -0.33439,-1.67151 -0.66876,-0.33429 -2.0063,0.33429 -3.00946,0 -1.67191,-2.00579 -0.66877,-1.33721 -2.67508,-1.33719 -1.33753,-2.00581 -2.34069,-3.67729 -1.67192,-2.67441 2.67508,-3.0087 1.67191,-3.00869 0.66877,-1.0029 -2.34068,-1.0029 -3.34384,-1.33721 -2.34068,-3.00869 -1.67193,-1.33721 -1.00315,0 -2.34068,0 -3.34384,0 -3.00945,3.0087 -4.01261,3.0087 -3.34384,1.67151 -1.33753,2.3401 -1.67192,2.0058 -4.68137,1.0029 -5.35014,-2.0058 -2.34068,0.66859 -1.33755,1.67151 -6.68767,0.33429 -1.67192,1.0029 -4.68137,2.67441 -5.35014,-1.0029 -5.01576,1.3372 -3.67821,1.6715 -4.01261,0.66859 -2.34068,-5.3488 -3.00946,-3.343 -1.67191,-3.67729 -3.67823,-2.34011 -4.0126,-5.0145 -3.00945,-3.34299 -2.0063,-3.00871 -1.67193,-2.3401 -2.34068,-2.0058 -2.0063,-3.343 -1.00315,-1.6715 -2.34069,0 -1.00315,2.34009 -0.33438,3.00871 1.67191,2.3401 0.66877,2.0058 0.66876,1.6715 -2.67506,1.00291 -1.67192,2.34009 3.00945,2.00581 0,1.0029 -3.00945,1.33719 1.00315,1.6715 -1.33753,1.0029 -0.33438,1.33721 -2.00631,-1.0029 -2.0063,0 -0.33438,1.33719 -0.66877,3.6773 -2.67507,-0.3343 -1.00315,-2.0058 -3.34385,-1.0029 -1.33753,2.3401 -4.01261,1.33721 -3.00944,0.3343 -2.67507,0 -2.00631,-2.67441 -4.01261,-0.3343 -1.67191,2.3401 -2.0063,1.67151 -0.66877,2.34009 -3.34384,3.00871 0,1.6715 -1.00315,1.6715 -2.34068,0 -1.33754,3.67731 0.66876,3.34299 -0.66876,1.3372 -1.00315,2.0058 -0.33438,2.6744 0.33438,3.0087 3.34384,2.3401 0,1.67151 0,2.34009 2.0063,2.67441 2.34069,4.6802 -0.66878,4.0116 0.3344,3.343 -1.33754,2.0058 3.67822,2.6744 -0.33438,3.67731 -1.00315,1.67149 4.01261,3.343 0.31189,-0.045"
   id="UGEL_01_SAN_JUAN_DE_MIRAFLORES"
   inkscape:connector-curvature="0"
   sodipodi:nodetypes="cccccccccccccccccccccccccccccccccccccccccccccccccccccccccccccccccccccccccccccccccccccccccccccccccccccccccccccccccccccccccccccccccccccccccccccccccccccccccccccccccccccccccccccccccccccccccccccccccccccccccccccccccccccccccccccccccccccccccccccccccccccc"
   inkscape:label="UGEL_01_SAN_JUAN_DE_MIRAFLORES" />
<path
   style="fill:#ffffff;fill-rule:evenodd;stroke:#000000;stroke-width:0.33200002;stroke-linecap:butt;stroke-linejoin:miter;stroke-miterlimit:4;stroke-dasharray:none;stroke-opacity:1;fill-opacity:1"
   d="m 90.216998,310.00567 2.495181,-2.49455 0.311895,-3.11819 -1.247591,-1.87091 3.74276,0 3.74276,0 1.247587,-1.87091 -0.3119,-2.80636 0.6238,-1.5591 2.49517,-0.31182 1.87138,-1.55909 -1.87138,-1.24727 -1.55949,-1.24728 0,-1.55909 2.49517,-1.5591 2.49518,-1.24726 4.67845,-0.31182 2.49517,0.93545 4.99035,0 4.67844,0.93546 1.24759,0.93545 6.23793,0.62363 2.49517,0 2.49517,-2.18272 0.6238,-4.36546 2.80706,3.43001 0.62379,2.80636 -0.62379,0.93546 -0.93568,-2.18273 -1.24759,0.62364 -0.3119,2.80636 -0.31189,1.24728 2.49517,2.49454 1.24759,2.49455 2.18327,1.55909 1.55949,0.93546 -2.49518,1.5591 -1.24758,2.49455 -1.87138,0.93544 0.62379,1.24728 2.18327,0 -1.24759,1.5591 -1.55947,1.24727 0.62379,1.87091 -0.62379,2.80637 -4.99035,2.80636 -3.43087,0.62364 -2.49517,2.18273 -3.11895,0.93546 -2.18328,1.55909 -1.87138,-0.31181 -3.11897,1.55908 -4.67844,-1.55908 -3.43087,-3.43001 -3.43086,-2.18273 -6.237933,-1.24728 -3.430865,-1.24728 -4.678443,-1.24726 -4.054655,-2.18273 z"
   id="UGEL_03_CERCADO"
   inkscape:connector-curvature="0"
   inkscape:label="UGEL_03_CERCADO" />
</svg>
