<?xml version="1.0" encoding="UTF-8" standalone="no"?>
<!--?xml version="1.0" encoding="UTF-8" standalone="no"?-->

<!--?xml version="1.0" encoding="UTF-8" standalone="no"?-->

<!--
************* Copyright (c) 2015 Pareto Softare, LLC DBA Simplemaps.com *******************		
************* Free for Commercial Use, full terms at  http://simplemaps.com/resources/svg-license ************
************* Attribution is appreciated! http://simplemaps.com ***************************
-->

<svg
   xmlns:dc="http://purl.org/dc/elements/1.1/"
   xmlns:cc="http://creativecommons.org/ns#"
   xmlns:rdf="http://www.w3.org/1999/02/22-rdf-syntax-ns#"
   xmlns:svg="http://www.w3.org/2000/svg"
   xmlns="http://www.w3.org/2000/svg"
   xmlns:sodipodi="http://sodipodi.sourceforge.net/DTD/sodipodi-0.dtd"
   xmlns:inkscape="http://www.inkscape.org/namespaces/inkscape"
   enable_background="new 0 0 1000 1585"
   height="549.01257"
   pretty_print="True"
   style="fill:none;stroke:#000000;stroke-linejoin:round"
   version="1.1"
   viewBox="0 0 354.46857 549.01257"
   width="354.46857"
   id="svg2"
   inkscape:version="0.91 r13725"
   sodipodi:docname="Loreto.svg"><sodipodi:namedview
   pagecolor="#ffffff"
   bordercolor="#666666"
   borderopacity="0.05098039"
   objecttolerance="10"
   gridtolerance="10"
   guidetolerance="10"
   inkscape:pageopacity="0"
   inkscape:pageshadow="2"
   inkscape:window-width="1920"
   inkscape:window-height="1017"
   id="namedview37"
   showgrid="false"
   inkscape:zoom="1.0123181"
   inkscape:cx="-151.669"
   inkscape:cy="412.59649"
   inkscape:window-x="-8"
   inkscape:window-y="-8"
   inkscape:window-maximized="1"
   inkscape:current-layer="svg2"
   showborder="true"
   fit-margin-top="10"
   fit-margin-left="10"
   fit-margin-right="10"
   fit-margin-bottom="10"
   borderlayer="false"
   inkscape:showpageshadow="false"
   inkscape:snap-to-guides="false"
   inkscape:snap-grids="false"
   showguides="false" />























utf-8<defs
   id="defs4">
  <style
     type="text/css"
     id="style6">path { fill-rule: evenodd; }utf-8utf-8</style>
</defs>























utf-8<metadata
   id="metadata8">
utf-8utf-8<views>
utf-8utf-8utf-8<view
   h="1585.21431143"
   padding="0"
   w="1000">
utf-8utf-8utf-8utf-8<proj
   flip="auto"
   id="robinson"
   lon0="-80.0286400104" />























utf-8utf-8utf-8utf-8<bbox
   h="307.01"
   w="193.79"
   x="-1203.32"
   y="0.49" />























utf-8utf-8utf-8</view>























utf-8utf-8</views>























utf-8<rdf:rdf>
  <cc:work
     rdf:about="">
    <dc:format>image/svg+xml</dc:format>
    <dc:type
       rdf:resource="http://purl.org/dc/dcmitype/StillImage" />
  </cc:work>
</rdf:rdf>
<rdf:rdf>
  <cc:work
     rdf:about="">
    <dc:format>image/svg+xml</dc:format>
    <dc:type
       rdf:resource="http://purl.org/dc/dcmitype/StillImage" />
    <dc:title />
  </cc:work>
</rdf:rdf>
<rdf:RDF>
  <cc:Work
     rdf:about="">
    <dc:format>image/svg+xml</dc:format>
    <dc:type
       rdf:resource="http://purl.org/dc/dcmitype/StillImage" />
    <dc:title />
  </cc:Work>
</rdf:RDF>
</metadata>























utf-8<path
   inkscape:label=""
   inkscape:connector-curvature="0"
   style="fill:#ffffff;fill-opacity:1;stroke:#808080;stroke-width:0.49999997;stroke-miterlimit:4;stroke-dasharray:none;stroke-opacity:1"
   id="EDUCACION_LORETO"
   d="m 216.58024,198.34277 c -3.10942,-2.06801 -3.57805,-2.51617 -4.71331,-4.50795 -1.053,-1.84734 -1.07611,-1.87229 -2.38137,-2.57176 -0.72492,-0.38847 -1.31744,-0.78685 -1.31668,-0.88529 0,-0.0986 0.0823,-0.67854 0.18138,-1.28913 0.14694,-0.90616 0.13037,-1.20622 -0.0901,-1.63276 -0.14853,-0.28745 -0.27007,-0.56138 -0.27007,-0.6088 0,-0.0477 0.47884,-0.42235 1.06411,-0.83313 0.58524,-0.41082 1.06408,-0.84124 1.06408,-0.95648 0,-0.1151 -0.17959,-0.37583 -0.39905,-0.57905 l -0.39903,-0.36947 -2.83757,2.07676 c -2.4203,1.77135 -3.27026,2.27593 -5.78007,3.43106 l -2.94245,1.35429 -1.74067,-0.33734 c -1.5508,-0.30056 -1.79482,-0.40071 -2.23773,-0.91854 -0.2734,-0.31965 -0.50036,-0.63249 -0.50428,-0.69516 -0.004,-0.0625 -0.55807,-0.24906 -1.23141,-0.4142 -1.14689,-0.28125 -1.25708,-0.35246 -1.74528,-1.12828 -0.28658,-0.45544 -1.53629,-2.05773 -2.77706,-3.56061 -1.24078,-1.50289 -2.44398,-2.98031 -2.67376,-3.28315 -0.32569,-0.42929 -0.56197,-1.3132 -1.07202,-4.01124 l -0.65422,-3.46063 -0.9801,-1.20205 c -1.68798,-2.07027 -3.15512,-3.64082 -4.73091,-5.0645 -1.33678,-1.20767 -1.82314,-1.51198 -4.00262,-2.50418 l -2.48097,-1.12943 -1.99889,-2.23734 c -5.74678,-6.43228 -6.15718,-7.02159 -8.43323,-12.10925 l -0.52616,-1.17604 -1.17379,-0.19935 c -0.64558,-0.10961 -1.67548,-0.28443 -2.28869,-0.38842 l -1.11486,-0.18908 -0.90101,-1.4525 -0.90098,-1.4525 -0.21307,-2.89645 c -0.19508,-2.6517 -0.18008,-3.21179 0.17726,-6.62784 0.38765,-3.70562 0.39466,-3.73769 1.01309,-4.64591 0.34249,-0.50297 0.89781,-1.50399 1.23401,-2.22446 l 0.61128,-1.30995 -1.10054,-1.11115 -1.10054,-1.11117 0.91576,-0.19652 c 0.5037,-0.10796 1.08235,-0.19655 1.28588,-0.19655 0.33824,0 0.36038,-0.0709 0.25733,-0.82337 -0.062,-0.45287 -0.1128,-1.56273 -0.1128,-2.4664 l 0,-1.64303 -2.94404,-1.56754 c -3.71247,-1.97676 -4.093,-2.30049 -4.35379,-3.70404 -0.17571,-0.94575 -0.31408,-1.18427 -1.23734,-2.1333 -0.9069,-0.93219 -1.1078,-1.2722 -1.57453,-2.66483 -0.51595,-1.53944 -0.57415,-1.62622 -1.63397,-2.43646 -0.60445,-0.46209 -1.22207,-0.83945 -1.37255,-0.83858 -0.15045,9.4e-4 -1.1481,0.15137 -2.21697,0.33446 l -1.94339,0.33296 -5.35154,-1.7535 -5.35157,-1.75348 -0.75508,-1.28739 c -0.4153,-0.70806 -0.87137,-1.42211 -1.01345,-1.58678 -0.15109,-0.17508 -0.19962,-0.39614 -0.11699,-0.5324 0.45971,-0.75703 5.56131,-6.879587 6.91669,-8.300887 l 1.61435,-1.692851 1.61494,-6.033898 c 1.59978,-5.977248 3.44881,-13.045637 3.65279,-13.963719 0.17473,-0.786283 0.74773,-0.814464 1.50552,-0.07389 0.63636,0.621847 0.69068,0.639017 2.02088,0.639017 1.13782,0 1.36698,-0.04782 1.36698,-0.285444 0,-0.282008 0.22396,-0.27556 1.27654,0.03667 0.20496,0.0608 0.38859,-0.07966 0.57491,-0.440388 0.26981,-0.52208 0.26447,-0.537402 -0.37077,-1.061362 l -0.6445,-0.531596 0.0928,-1.157625 c 0.0788,-0.981579 0.0423,-1.203549 -0.24075,-1.459722 -0.25363,-0.229704 -0.33358,-0.549214 -0.33358,-1.333153 0,-0.851609 -0.0621,-1.06434 -0.35698,-1.222213 -0.29534,-0.158175 -0.3232,-0.254265 -0.16145,-0.556708 0.16262,-0.304026 0.11869,-0.445824 -0.26114,-0.842528 l -0.45668,-0.476981 0.44994,-0.662589 0.44992,-0.662588 -0.37204,-0.522872 -0.37205,-0.522873 0.49589,-0.118639 c 0.27275,-0.06527 0.59566,-0.197284 0.7176,-0.293386 0.27477,-0.216546 0.28331,-1.379043 0.0237,-3.237276 -0.19279,-1.380548 -0.21972,-1.43654 -0.96757,-2.011038 -0.50703,-0.389498 -0.88296,-0.554832 -1.10277,-0.485025 -0.26785,0.08515 -0.37942,-0.03321 -0.5668,-0.601401 -0.21288,-0.645475 -0.33635,-0.747785 -1.41208,-1.170129 -1.15152,-0.45209 -1.2049,-0.502175 -2.30591,-2.163077 -0.61991,-0.935171 -1.21891,-2.011417 -1.33111,-2.391677 -0.2464,-0.835091 -2.3903,-2.801436 -3.05439,-2.801436 -0.27089,0 -0.41457,-0.106211 -0.41986,-0.310565 -0.004,-0.194767 -0.35008,-0.475973 -0.92531,-0.754232 -0.99895,-0.4832 -1.31709,-1.074822 -1.01107,-1.880322 0.15124,-0.398014 0.25118,-0.426744 1.48414,-0.426744 1.19796,0 1.4854,0.07606 3.06366,0.811831 l 1.74167,0.811901 2.15131,-0.253472 2.15133,-0.253437 1.3513,-1.040858 c 0.74322,-0.572475 1.35176,-1.123239 1.3523,-1.223927 9.4e-4,-0.100661 0.0816,-0.474234 0.18059,-0.830137 0.25566,-0.921017 0.8544,-1.041013 1.72961,-0.346645 0.42859,0.34001 0.97158,0.568773 1.5471,0.651772 0.78223,0.112864 1.03303,0.269449 2.12816,1.329084 0.85233,0.82467 1.405,1.21978 1.76322,1.260555 0.42261,0.04815 0.63407,0.252172 1.11304,1.074222 0.49832,0.855299 0.7021,1.044721 1.29607,1.204757 0.41344,0.111369 0.70476,0.297131 0.70476,0.449272 0,0.201733 0.26445,0.259346 1.1904,0.259346 1.15009,0 1.21484,-0.02402 1.91325,-0.709884 l 0.72285,-0.709924 0.65833,0.788065 c 0.39006,0.466981 0.65825,0.976741 0.65825,1.251128 0,0.25468 0.12503,0.704779 0.27759,1.000209 0.1527,0.295421 0.33444,0.870435 0.4039,1.277816 0.11795,0.691631 0.17414,0.750785 0.84854,0.893362 0.52375,0.110803 0.80768,0.29757 1.0335,0.68007 0.25506,0.432078 0.39177,0.50715 0.75672,0.415508 1.12597,-0.28279 1.46816,-0.309487 1.46816,-0.114589 0,0.111126 0.34427,0.36932 0.76506,0.573902 0.59106,0.287305 0.95517,0.670313 1.6008,1.683623 0.67011,1.051719 0.9227,1.311695 1.27446,1.311695 0.32046,0 0.43869,0.09561 0.43869,0.35493 0,0.293487 0.11819,0.354941 0.68293,0.354941 0.3756,0 0.93426,0.08768 1.24147,0.194833 0.51069,0.178149 0.55848,0.260714 0.55848,0.964823 0,0.739004 0.0235,0.772229 0.57638,0.825614 0.55355,0.05332 0.59175,0.108262 0.9646,1.386606 0.21345,0.732062 0.39307,1.670417 0.39899,2.085234 0.009,0.683324 0.0527,0.754241 0.45425,0.754241 0.6244,0 0.55308,0.238155 -0.26568,0.887053 l -0.70904,0.561948 0.6647,0.77816 c 0.53659,0.628144 0.77954,0.779274 1.2603,0.783985 0.53964,0.0069 0.58558,0.04599 0.48849,0.432987 -0.0589,0.234947 -0.15593,0.554386 -0.21554,0.709859 -0.0867,0.226429 0.0187,0.282696 0.53128,0.282696 0.56408,0 0.63965,0.05242 0.63965,0.443689 0,0.354917 0.0886,0.443653 0.44342,0.443653 0.47109,0 0.53385,0.114577 0.28119,0.513895 -0.0942,0.148587 -0.28191,0.199629 -0.46953,0.127573 -0.45416,-0.17438 -1.31913,0.706833 -1.31913,1.343861 0,0.462018 0.0514,0.499208 0.69204,0.499208 0.61677,0 0.71323,0.06078 0.88674,0.558879 0.10706,0.307407 0.19483,1.006185 0.195,1.552848 0,0.979889 0.009,1.000864 0.77231,1.481982 0.60789,0.384293 0.98595,0.488037 1.77825,0.488037 0.78331,0 1.25061,0.125655 2.10956,0.567153 0.74538,0.383134 1.55631,0.627893 2.49919,0.754348 l 1.39584,0.187205 0.30475,0.779963 c 0.222,0.568153 0.48056,0.870225 0.9521,1.112287 0.356,0.182767 0.7693,0.51865 0.91846,0.746414 0.23778,0.36317 0.37723,0.403878 1.13416,0.331105 l 0.86302,-0.0831 0.22252,0.686103 c 0.12246,0.377375 0.37318,0.901099 0.55738,1.163855 0.18415,0.262755 0.45347,0.761886 0.59845,1.10916 0.21933,0.525229 0.35341,0.631442 0.79723,0.631442 0.29343,0 1.03059,0.223741 1.63808,0.497233 1.0112,0.455238 1.16447,0.478865 1.81392,0.279835 1.06952,-0.327748 2.92627,-0.314084 2.92627,0.02148 0,0.185927 0.18718,0.266217 0.62071,0.266217 0.60817,0 0.6207,0.01472 0.6207,0.72568 0,0.619022 0.1107,0.834809 0.75375,1.467954 0.41454,0.408231 0.93838,1.079912 1.1641,1.492649 l 0.41037,0.75038 -0.54338,0 c -0.5028,0 -0.5434,0.04643 -0.5434,0.62117 0,0.581931 0.0363,0.621249 0.57639,0.623535 1.14341,0.0057 1.37446,0.154072 1.37446,0.887973 0,0.629477 0.0418,0.681505 0.66503,0.830265 l 0.66505,0.15875 0.004,1.560962 c 0.004,1.334737 0.052,1.597173 0.34425,1.811018 0.33532,0.245356 0.33498,0.250093 -0.0178,0.250093 -0.28478,0 -0.54879,0.407784 -1.26715,1.956962 l -0.90749,1.956974 0.74079,0.536983 c 0.40744,0.295347 1.2017,0.672517 1.76508,0.838149 1.01309,0.29789 1.02421,0.30846 1.02445,0.97047 2.1e-4,0.54648 0.0838,0.70745 0.45611,0.87716 0.44514,0.20294 0.565,0.18236 1.68707,-0.28998 0.1852,-0.0778 0.61364,0.1561 1.25937,0.68804 0.76523,0.63042 1.11975,0.80621 1.62573,0.80621 0.69904,0 0.77891,-0.16246 0.47416,-0.9645 -0.15681,-0.41269 -0.13196,-0.45524 0.266,-0.45524 0.32077,0 0.439,0.0956 0.439,0.35494 0,0.31191 0.11819,0.35493 0.97541,0.35493 l 0.97541,0 0.006,-0.57677 0.006,-0.57675 0.23966,0.55097 c 0.19701,0.45289 0.37298,0.5723 0.98827,0.67076 l 0.74855,0.11979 -0.12001,0.96086 -0.12003,0.96087 0.70919,0.19108 c 0.66511,0.17923 0.70485,0.22668 0.63931,0.7642 -0.0381,0.31519 -0.11255,1.43864 -0.16484,2.49655 l -0.095,1.92347 0.51299,0.19375 0.51297,0.19377 -0.37029,0.5012 c -0.494,0.66865 -0.26381,1.43136 0.47182,1.56336 l 0.50044,0.0899 -0.81473,0.60974 c -0.71908,0.53823 -0.81463,0.68919 -0.81463,1.28664 0,0.58293 -0.0555,0.67724 -0.39905,0.67931 -1.01316,0.008 -1.14476,0.1427 -1.25217,1.29883 l -0.10165,1.09457 0.87645,0.89293 c 0.77549,0.79008 0.87642,0.9806 0.87642,1.65433 l 0,0.76143 0.96865,-0.12098 0.96864,-0.12099 -0.16185,0.56473 c -0.15324,0.53463 -0.12875,0.57851 0.45884,0.82422 0.57636,0.241 0.65408,0.23322 1.08856,-0.10883 0.4089,-0.32185 0.48714,-0.33378 0.62079,-0.0946 0.0946,0.16927 0.40303,0.27374 0.80922,0.27415 0.61235,9.6e-4 0.6786,0.0552 0.99014,0.81305 0.18364,0.44681 0.48744,0.86921 0.67511,0.93869 0.33459,0.12386 0.33426,0.13516 -0.0169,0.58194 l -0.35815,0.45569 0.42921,0.40349 c 0.425,0.39954 0.43583,0.40035 1.10187,0.0836 0.36993,-0.17591 1.07165,-0.35785 1.55936,-0.40421 0.64759,-0.0614 1.16076,-0.27003 1.90296,-0.77293 1.44026,-0.97591 1.49219,-0.98381 1.63032,-0.24714 0.10718,0.5723 0.17342,0.63178 0.70304,0.63178 0.53007,0 0.60479,-0.0674 0.80092,-0.72255 0.18407,-0.61471 0.25624,-0.68942 0.48369,-0.50048 0.20426,0.1696 0.23961,0.42404 0.14981,1.07747 l -0.11759,0.85544 0.9921,0 0.99203,0 0,-0.69781 c 0,-0.56952 0.096,-0.76604 0.52115,-1.06912 0.35632,-0.25392 0.53857,-0.55136 0.57636,-0.94079 l 0.0553,-0.56941 0.72989,0.66156 c 0.40143,0.36386 1.01458,0.78061 1.36255,0.92611 0.348,0.1455 0.74791,0.42906 0.88866,0.63015 0.23165,0.33097 0.32947,0.34735 1.03162,0.17308 0.67078,-0.16649 0.8707,-0.14357 1.47825,0.16939 0.38639,0.19902 0.86525,0.36297 1.06406,0.36429 0.19887,0.002 0.54887,0.0528 0.7777,0.11382 0.34807,0.0935 0.39965,0.19434 0.31506,0.61769 -0.0807,0.404 -0.0138,0.56347 0.3318,0.79008 0.40452,0.26522 0.54721,0.25219 2.16789,-0.19816 0.95418,-0.2651 1.99881,-0.63197 2.32138,-0.81524 0.39207,-0.22277 0.93586,-0.33323 1.64046,-0.33323 1.00602,0 1.05395,0.0203 1.05395,0.44368 0,0.42053 0.0518,0.44367 0.9952,0.44367 l 0.99511,0 -0.12051,-0.66552 c -0.0663,-0.36602 -0.16201,-0.8386 -0.21263,-1.05021 -0.0653,-0.27208 0.0203,-0.44488 0.29156,-0.59022 0.21105,-0.11279 0.90391,-0.64707 1.53966,-1.18677 l 1.15596,-0.98132 0.58711,0.56944 c 0.57776,0.56038 0.60159,0.5663 1.49954,0.3736 1.17483,-0.25213 1.24967,-0.24793 1.24967,0.0705 0,0.19222 0.19706,0.26616 0.70941,0.26616 0.68231,0 0.70932,-0.022 0.70827,-0.57674 0,-0.31723 -0.11475,-0.79505 -0.25396,-1.06183 -0.29941,-0.57438 -0.27822,-0.59183 0.91316,-0.75262 0.73769,-0.0994 0.94618,-0.20212 1.03351,-0.50832 0.0603,-0.211 0.35167,-1.07698 0.64771,-1.92446 0.52841,-1.51268 0.54651,-1.53769 0.99314,-1.36777 0.41085,0.15632 0.55695,0.0735 1.50908,-0.85497 l 1.05419,-1.02804 -0.11153,1.28665 -0.1115,1.28662 0.88436,0 c 0.48638,0 1.20115,-0.1268 1.58825,-0.2818 0.68892,-0.27586 0.72756,-0.27045 1.82138,0.25507 0.61466,0.29529 1.56683,0.63234 2.1159,0.74893 l 0.99832,0.21204 0.0874,1.35191 c 0.0481,0.74358 0.17541,1.57157 0.28306,1.83997 0.17423,0.43436 0.28652,0.48803 1.02042,0.48803 0.81265,0 0.82317,-0.008 0.72318,-0.5075 -0.0558,-0.27914 -0.15391,-0.938 -0.21801,-1.46411 l -0.11673,-0.95659 1.23681,1.30645 c 1.20212,1.26982 1.23259,1.32455 1.08686,1.95215 -0.24913,1.07252 -0.19641,1.26798 0.41085,1.52348 0.54377,0.2288 0.60088,0.21249 1.27337,-0.36348 0.53215,-0.45585 0.86817,-0.60307 1.37643,-0.60307 0.6097,0 0.68632,-0.0538 0.8217,-0.57648 0.15392,-0.59432 0.7476,-0.92196 0.7476,-0.41259 0,0.20079 0.17433,0.27923 0.62069,0.27923 0.46641,0 0.6207,-0.0753 0.6207,-0.30222 0,-0.22131 0.18344,-0.12297 0.68499,0.36709 0.58989,0.5764 0.77995,0.66149 1.36884,0.61281 0.60066,-0.0497 0.7038,-0.12666 0.84816,-0.63333 0.14986,-0.52623 0.22596,-0.57676 0.8681,-0.57676 l 0.70392,0 -0.1231,-0.8213 c -0.0677,-0.4517 -0.1622,-0.92327 -0.21002,-1.04795 -0.0903,-0.23508 0.21252,-0.32821 1.75422,-0.53972 0.76779,-0.10535 0.8952,-0.0674 1.46928,0.43694 0.34577,0.30374 0.69171,0.55227 0.76889,0.55227 0.0773,0 0.32446,-0.19619 0.54961,-0.43598 l 0.40928,-0.436 -0.39815,-0.98166 c -0.21899,-0.53992 -0.34646,-1.11653 -0.2833,-1.2813 0.095,-0.24783 0.26032,-0.15623 0.95694,0.53037 0.72638,0.71591 0.94175,0.82992 1.56817,0.82992 0.63959,0 0.75237,-0.0634 0.94647,-0.5324 0.36119,-0.87252 0.78296,-0.68193 1.34437,0.60761 l 0.4963,1.13998 1.0403,0.12075 c 0.95894,0.1115 1.07596,0.17482 1.49741,0.81212 0.39404,0.59583 0.54754,0.69132 1.11141,0.69132 0.35985,0 1.03281,0.129 1.49546,0.2868 l 0.84121,0.28681 -0.36624,0.39012 c -0.23334,0.24856 -0.36625,0.6275 -0.36625,1.04419 l 0,0.65407 0.79809,0 0.79802,0 0,1.12806 0,1.1281 1.60625,0.12135 c 1.53111,0.11556 1.62216,0.10217 1.94496,-0.28513 0.18627,-0.2235 0.34128,-0.30661 0.34457,-0.18459 0.004,0.15191 0.33784,0.22184 1.0587,0.22184 l 1.05288,0 0.49898,0.93169 c 0.45105,0.84231 0.56698,0.94056 1.20829,1.02385 0.62578,0.0814 0.79867,0.0157 1.46596,-0.55727 0.71822,-0.6165 0.79433,-0.6409 1.50239,-0.48168 0.41025,0.0922 0.7755,0.19732 0.81171,0.2336 0.0971,0.0972 -0.97182,0.62449 -1.2666,0.62449 -0.33101,0 -0.59351,0.32891 -0.74515,0.93361 -0.10961,0.43712 -0.0563,0.5156 0.51205,0.75326 1.04182,0.43558 2.05487,0.33511 2.76759,-0.27453 0.54968,-0.47012 0.64285,-0.49707 0.88673,-0.25635 0.14994,0.14798 0.3947,0.96663 0.54391,1.81922 l 0.27135,1.55018 1.03075,0.0536 1.03078,0.0536 -0.12247,1.05546 -0.12245,1.05547 0.9687,0 c 0.92167,0 0.99142,-0.0327 1.43628,-0.67506 0.25707,-0.37126 0.46743,-0.77057 0.46743,-0.88732 0,-0.11686 0.0712,-0.21228 0.15839,-0.21228 0.27963,0 0.35005,0.46933 0.18253,1.21592 -0.13441,0.59867 -0.0982,0.86152 0.2057,1.48729 l 0.36906,0.76013 -5.56249,8.78328 c -3.0594,4.83077 -6.39551,10.07308 -7.41358,11.64952 l -1.85118,2.86628 -0.33591,-0.5592 c -0.18481,-0.30759 -0.34668,-0.57127 -0.35984,-0.58601 -0.009,-0.0147 -0.59976,0.083 -1.30357,0.21673 l -1.27969,0.24358 -1.37493,-0.81339 -1.37486,-0.81338 -1.57666,0.12334 c -1.55598,0.12169 -1.58329,0.1171 -2.09041,-0.36914 -0.45364,-0.43501 -0.73657,-0.51874 -2.41933,-0.71619 -1.04804,-0.12297 -2.03731,-0.22744 -2.19831,-0.23209 -0.18824,-0.005 -0.34791,-0.24193 -0.44719,-0.66226 -0.13222,-0.55899 -0.33387,-0.76303 -1.39215,-1.40809 -0.68065,-0.41487 -1.65085,-1.11894 -2.15601,-1.56459 l -0.91853,-0.81028 -3.24919,-0.003 -3.24916,-0.004 -0.88675,-0.52635 c -0.8149,-0.48372 -1.02363,-0.52661 -2.57669,-0.52937 l -1.68992,-0.004 -1.10329,-1.11395 -1.10333,-1.11393 0,-1.61896 0,-1.61897 -1.57216,-1.17136 c -1.69968,-1.2664 -1.93048,-1.32941 -3.57691,-0.97606 -0.80006,0.1717 -0.89964,0.2415 -0.82264,0.57675 0.0483,0.20981 0.14094,0.64099 0.20616,0.9582 l 0.11867,0.57679 -0.94519,-0.006 -0.94516,-0.006 -1.23709,-1.84158 -1.23699,-1.84154 -1.06852,-0.20565 c -0.58761,-0.11303 -1.84547,-0.4006 -2.79509,-0.63883 -0.94965,-0.23825 -2.2257,-0.48536 -2.83566,-0.54917 -1.0153,-0.10618 -1.16912,-0.18051 -1.8203,-0.87953 l -0.71133,-0.76355 -2.74145,-0.19208 c -2.5457,-0.17833 -2.81592,-0.23179 -3.78469,-0.74845 -1.00921,-0.53829 -1.0759,-0.54968 -2.04692,-0.34922 -1.01205,0.20894 -1.38148,0.48675 -2.25628,1.69684 l -0.36574,0.50598 -1.61703,-0.48562 c -0.88936,-0.26707 -1.73279,-0.44113 -1.87427,-0.38682 -0.14149,0.0542 -0.40643,0.42231 -0.58875,0.81777 -0.32852,0.71252 -0.34032,0.71902 -1.31174,0.72355 l -0.98026,0.004 -0.7468,1.50683 -0.74679,1.50681 0.20995,1.35145 c 0.16192,1.04205 0.37454,1.6194 0.92898,2.52218 0.6465,1.05267 0.79806,1.19001 1.50252,1.36154 0.72138,0.1756 0.8479,0.2972 1.59609,1.53361 0.44696,0.73855 1.31193,2.02825 1.92214,2.86592 1.10524,1.51723 1.11519,1.52522 2.59716,2.08493 l 1.48762,0.56186 1.23769,1.71382 c 0.68075,0.9426 1.44044,2.11311 1.68824,2.60119 0.33005,0.64994 0.78723,1.13759 1.7091,1.82287 l 1.25854,0.93558 -0.62251,0.54692 c -0.51074,0.44874 -0.62249,0.67045 -0.62249,1.23503 0,0.59036 -0.0645,0.7043 -0.45422,0.80219 -0.60241,0.15129 -2.81433,1.61586 -3.75114,2.48373 l -0.74704,0.6921 0.25013,1.49571 0.25012,1.49572 -0.60821,1.31723 c -0.48825,1.05752 -0.57075,1.38723 -0.4183,1.67223 0.10438,0.19524 0.49266,1.16192 0.86276,2.14818 l 0.67294,1.79323 -2.15187,1.62485 c -2.56499,1.93685 -3.27841,2.82881 -3.81045,4.76424 -0.18116,0.65903 -0.15529,0.74438 0.50989,1.68268 l 0.70075,0.98845 -0.92882,0.94751 c -1.17163,1.19531 -2.5515,2.22398 -2.78747,2.07806 -0.0993,-0.0615 -0.18079,-0.22691 -0.18079,-0.36753 0,-0.20718 -0.37048,-0.25575 -1.9508,-0.25575 l -1.95085,0 0,1.50848 0,1.50848 -2.38226,0 c -2.11918,0 -2.39132,0.0342 -2.46456,0.31055 -0.0455,0.17083 -0.18024,0.80483 -0.29992,1.40885 -0.11966,0.60411 -0.35828,1.32988 -0.5303,1.61291 l -0.31271,0.51461 -1.92653,-0.31796 c -1.05961,-0.17483 -2.1444,-0.32166 -2.41063,-0.32624 -0.28105,-0.004 -1.37777,0.49428 -2.61429,1.18959 l -2.13015,1.19792 0,1.92475 c -0.004,2.56241 -0.15549,2.83161 -1.82788,3.20954 -0.6777,0.15314 -1.36715,0.27846 -1.53212,0.27846 -0.16498,0 -0.85347,-0.36814 -1.53003,-0.81811 l -3e-5,0 z" />
<path
   inkscape:label=""
   inkscape:connector-curvature="0"
   style="fill:#ffffff;fill-opacity:1;stroke:#808080;stroke-width:0.49999997;stroke-miterlimit:4;stroke-dasharray:none;stroke-opacity:1"
   id="EDUCACION_MARISCAL_RAMON_CASTILLA"
   d="m 227.99101,216.45369 c -0.4877,-0.37043 -1.48528,-1.04402 -2.21683,-1.49688 -0.73157,-0.45285 -1.80409,-1.24656 -2.38341,-1.76377 l -1.05325,-0.94042 -2.16925,-0.0887 c -1.19305,-0.0487 -2.20759,-0.12871 -2.25448,-0.17746 -0.0469,-0.0487 -0.11289,-0.37629 -0.14713,-0.72777 -0.0565,-0.58408 0.0678,-0.78562 1.44532,-2.34361 1.44132,-1.63014 1.52332,-1.76883 1.87831,-3.17649 l 0.37118,-1.47194 -0.59254,-1.1935 c -0.32592,-0.6564 -0.59257,-1.22677 -0.59257,-1.2675 0,-0.0406 0.57863,-0.20979 1.2858,-0.37569 0.70718,-0.16589 1.42294,-0.33881 1.59062,-0.38425 0.44911,-0.12168 0.66843,-1.16564 0.66955,-3.18694 l 0,-1.79369 2.06637,-1.12246 2.06631,-1.12244 2.47116,0.35791 2.47115,0.35791 0.23541,-0.36997 c 0.2648,-0.41621 0.97583,-2.73627 0.97583,-3.18421 0,-0.25638 0.29853,-0.29144 2.48287,-0.29144 l 2.48285,0 0,-1.50847 0,-1.50846 1.49337,0 1.49337,0 0.11686,0.5324 c 0.0643,0.29281 0.15572,0.5324 0.20324,0.5324 0.335,0 3.27956,-2.5066 3.9713,-3.38057 l 0.54536,-0.68901 -0.73106,-0.99024 -0.73104,-0.99025 0.28236,-0.85068 c 0.57125,-1.72102 1.28545,-2.56306 3.64302,-4.29513 1.21895,-0.89551 2.25001,-1.65819 2.29123,-1.69482 0.0413,-0.0365 -0.29797,-1.00574 -0.75374,-2.15359 -0.45577,-1.14785 -0.82868,-2.21441 -0.82868,-2.37018 0,-0.15575 0.23146,-0.79399 0.51434,-1.41833 l 0.51431,-1.13511 -0.24084,-1.50561 c -0.1325,-0.82809 -0.18441,-1.55772 -0.11533,-1.62143 0.76781,-0.70812 2.68595,-1.96163 3.63441,-2.37512 1.17786,-0.51348 1.19091,-0.52674 1.19091,-1.21241 0,-0.54299 0.13451,-0.84222 0.62073,-1.38072 0.34137,-0.37817 0.6207,-0.7485 0.6207,-0.82305 0,-0.0746 -0.59673,-0.5335 -1.326,-1.01992 -0.72931,-0.48643 -1.37889,-1.04415 -1.44346,-1.23935 -0.15819,-0.47815 -1.13677,-2.01048 -2.35068,-3.6808 -0.97634,-1.34346 -1.03136,-1.38646 -2.49511,-1.95106 -1.47955,-0.5707 -1.50956,-0.59465 -2.61603,-2.08689 -0.6156,-0.83027 -1.4422,-2.1279 -1.83684,-2.88364 -0.56712,-1.08601 -0.81805,-1.39621 -1.19693,-1.47963 -1.1962,-0.26334 -1.37711,-0.38476 -1.84838,-1.24012 -0.26522,-0.48139 -0.61009,-1.44381 -0.76637,-2.13866 l -0.28414,-1.26346 0.58192,-1.35421 0.58195,-1.35422 0.99149,0 0.99154,0 0.38768,-0.7986 c 0.21325,-0.43923 0.48439,-0.7986 0.60259,-0.7986 0.11807,0 0.89538,0.20773 1.72723,0.46161 l 1.51237,0.46163 0.97966,-1.07484 c 0.85503,-0.93813 1.08333,-1.08918 1.79518,-1.18762 0.68708,-0.0948 0.98037,-0.0296 1.86214,0.41568 0.93888,0.47406 1.31934,0.54835 3.69638,0.72169 l 2.64977,0.19324 0.8146,0.8029 c 0.67459,0.6649 0.92908,0.80291 1.48042,0.80291 0.36617,0 2.07662,0.32637 3.80098,0.7253 2.50645,0.57985 3.18979,0.8019 3.40714,1.10726 0.14956,0.21007 0.71689,1.02167 1.26071,1.8036 l 0.98884,1.42167 1.34688,0.0514 1.3469,0.0513 -0.24532,-0.93065 c -0.13493,-0.51188 -0.22836,-0.94354 -0.20755,-0.95927 0.34284,-0.2592 0.9577,-0.4316 1.53921,-0.4316 0.60739,0 0.94406,0.16377 2.05118,0.99757 l 1.32451,0.99758 0,1.5029 0,1.50292 1.26671,1.40381 1.26667,1.4038 1.79258,0.004 c 1.66685,0.003 1.85471,0.0401 2.67929,0.52936 l 0.88674,0.52633 3.29048,0.004 3.29049,0.004 0.61116,0.63411 c 0.33616,0.34873 1.18099,0.99042 1.87748,1.42594 1.1341,0.70921 1.28628,0.87149 1.45827,1.55491 l 0.19199,0.76301 2.33183,0.23112 c 2.16448,0.2145 2.37413,0.26827 2.92154,0.74924 0.58258,0.51185 0.60821,0.51664 2.09833,0.39567 l 1.50846,-0.12257 1.44068,0.81678 1.44064,0.81676 1.13393,-0.23783 1.13381,-0.23782 0.30111,0.45974 c 0.1655,0.25286 0.30056,0.54209 0.29996,0.64269 0,0.10049 -0.81803,1.41557 -1.81665,2.9221 -0.99859,1.50657 -2.01964,3.1437 -2.26886,3.63809 -0.24933,0.4944 -1.00136,1.70609 -1.67128,2.69267 -1.60593,2.36533 -1.61572,2.67509 -0.12087,3.8408 1.0132,0.79024 1.14692,0.84299 2.13712,0.84299 0.77781,0 1.18983,0.0951 1.5628,0.3609 0.27857,0.19849 0.94023,0.5528 1.47026,0.78741 l 0.96383,0.42653 1.35967,-0.37484 c 1.26779,-0.34926 1.42286,-0.44671 2.2711,-1.42643 1.00414,-1.15981 1.20552,-1.20328 2.67718,-0.57773 0.56644,0.24077 0.76445,0.47521 1.1844,1.40204 0.49836,1.09972 0.51705,1.11676 1.58322,1.43978 0.59339,0.1798 1.14505,0.4138 1.22591,0.51999 0.0808,0.1063 0.29153,1.07158 0.46821,2.14523 0.43693,2.65547 0.43217,2.6459 1.44688,2.88063 0.47297,0.10938 1.22943,0.35755 1.6809,0.55144 0.77746,0.3338 0.88042,0.46552 1.94171,2.4838 1.04512,1.98723 1.1761,2.15723 1.93886,2.51469 l 0.81797,0.38339 -0.14134,1.17465 c -0.0776,0.64608 -0.30588,1.66972 -0.5071,2.27478 l -0.36587,1.1001 -0.70086,-0.27545 c -0.61429,-0.24146 -0.70071,-0.34611 -0.70071,-0.84751 0,-1.28928 -0.16754,-1.62109 -0.94875,-1.87983 -0.40485,-0.13408 -0.78527,-0.22761 -0.84536,-0.20793 -0.0599,0.0195 -0.24029,-0.29808 -0.40046,-0.7061 l -0.29113,-0.74179 -0.3977,0.57515 c -0.3556,0.51451 -0.46456,0.56443 -1.03238,0.47309 -0.60653,-0.0973 -0.65367,-0.0666 -1.05553,0.69119 -0.34365,0.64827 -0.38526,0.87067 -0.22773,1.21659 0.14574,0.32004 0.13564,0.50133 -0.0414,0.74349 -0.21028,0.28783 -0.2397,0.25119 -0.29005,-0.36282 -0.0465,-0.56735 -0.16957,-0.75622 -0.72602,-1.11549 -0.36848,-0.23789 -0.71803,-0.62428 -0.77685,-0.85872 -0.0943,-0.37575 -0.17767,-0.41291 -0.70455,-0.31401 l -0.59757,0.1122 -0.003,-1.82712 -0.003,-1.82705 -0.87436,-0.57207 -0.87444,-0.57205 -0.43831,0.56048 -0.4384,0.56051 -0.12257,-0.65393 -0.1226,-0.65394 -1.50308,0 -1.50319,0 -0.2008,0.53238 c -0.17775,0.47121 -0.28361,0.53241 -0.92114,0.53241 -0.64396,0 -0.74247,-0.0587 -0.92955,-0.55491 -0.17319,-0.45903 -0.27951,-0.5361 -0.61531,-0.44609 -0.22328,0.06 -0.58747,0.10983 -0.80935,0.1114 -0.30697,0.002 -0.42942,0.13166 -0.51147,0.54253 -0.1063,0.53131 -0.51363,0.85065 -1.45783,1.14256 -0.4176,0.12911 -0.42063,0.12063 -0.30161,-0.83239 0.11441,-0.91614 0.0977,-0.97303 -0.34025,-1.17277 -0.69125,-0.31518 -0.84582,-0.26929 -1.56054,0.46306 -0.42232,0.43281 -0.65663,0.84052 -0.65663,1.14239 0,0.44099 -0.0403,0.46363 -0.66511,0.37435 -0.42089,-0.0602 -0.8443,-0.28536 -1.1534,-0.61351 l -0.4884,-0.51847 -1.83536,1.23224 c -1.7045,1.14436 -1.86169,1.29968 -2.20409,2.17753 -0.20277,0.51986 -0.41858,1.12232 -0.4796,1.33877 -0.16265,0.57721 -1.59816,2.46839 -2.14654,2.82796 -0.46049,0.30193 -0.48158,0.29911 -0.81163,-0.10884 -0.18642,-0.2303 -0.40789,-0.54206 -0.49216,-0.69279 -0.12566,-0.22468 -0.23441,-0.23708 -0.60361,-0.0688 -0.40852,0.18622 -0.43489,0.25969 -0.28306,0.78929 0.0921,0.32118 0.16734,0.60194 0.16734,0.62394 0,0.022 -0.12967,-0.008 -0.28798,-0.0707 -0.17433,-0.0669 -0.35395,0.007 -0.45505,0.18826 -0.15244,0.27247 -0.1937,0.26595 -0.46917,-0.0743 -0.2266,-0.28006 -0.57674,-0.39818 -1.40225,-0.4731 -1.06995,-0.097 -1.10524,-0.0866 -1.28194,0.37844 -0.17232,0.45349 -0.20215,0.46396 -0.57632,0.20168 -0.30497,-0.21375 -0.88588,-0.27657 -2.55748,-0.27657 -1.1896,0 -2.29067,0.0489 -2.44684,0.10905 -0.23,0.0882 -0.26212,0.27378 -0.16901,0.97608 0.13357,1.0079 -0.12296,1.16364 -0.55146,0.33463 -0.15131,-0.29282 -0.32859,-0.53238 -0.39388,-0.53238 -0.0653,0 -0.3443,0.21622 -0.62002,0.4805 l -0.50119,0.48055 -0.79285,-0.29404 c -0.76464,-0.2836 -0.79948,-0.28163 -0.9797,0.0554 -0.17054,0.31888 -0.30966,0.33915 -1.59347,0.23201 -1.2039,-0.10039 -1.42247,-0.0757 -1.51706,0.17072 -0.0838,0.21835 -0.18929,0.24596 -0.43581,0.11382 -0.50678,-0.27137 -0.68749,-0.21036 -0.80875,0.27305 -0.0884,0.35289 -0.20919,0.43708 -0.57219,0.3993 -0.3989,-0.0415 -0.55242,0.1115 -1.1543,1.14997 -0.4677,0.80701 -0.80291,1.19791 -1.02729,1.19791 -0.38578,0 -0.38823,-0.008 -0.1623,-0.60377 0.12411,-0.32685 0.095,-0.63062 -0.10674,-1.11406 l -0.27758,-0.66471 -0.48767,0.59795 -0.48774,0.59798 -0.11819,-0.4715 c -0.0649,-0.25933 -0.22666,-0.47151 -0.35915,-0.47151 -0.36816,0 -0.69199,0.48824 -0.58794,0.88639 0.0842,0.32286 0.006,0.35586 -0.83886,0.35586 -0.92053,0 -0.93591,-0.009 -1.26212,-0.73283 l -0.33025,-0.73282 -0.46035,0.55179 c -0.41745,0.50036 -0.48618,0.52591 -0.73752,0.27438 -0.25137,-0.25153 -0.35994,-0.23541 -1.16501,0.1728 -0.4883,0.24762 -1.50659,0.61238 -2.26285,0.81059 -1.48887,0.39022 -1.54392,0.43779 -2.42521,2.09479 -0.56262,1.05782 -0.61925,1.10773 -1.25798,1.10918 -0.53923,0.002 -0.70772,0.087 -0.86937,0.44178 -0.15212,0.33413 -0.295,0.41653 -0.59262,0.34179 -0.3186,-0.0799 -0.6185,0.1536 -1.59927,1.24589 -1.04822,1.1673 -1.4572,1.47232 -3.10489,2.3157 -2.54871,1.30461 -4.36888,1.95907 -4.69504,1.6882 -0.19183,-0.15928 -0.52227,-0.0588 -1.50367,0.45725 -1.48544,0.78113 -1.8697,1.21495 -2.03129,2.29345 -0.10459,0.69752 -0.17571,0.80064 -0.55252,0.80064 -0.36071,0 -0.43251,0.087 -0.43251,0.52376 l 0,0.52372 -0.74586,-0.33416 c -0.41024,-0.1838 -0.80925,-0.29496 -0.88675,-0.24704 -0.0775,0.048 -0.14086,0.35284 -0.14086,0.67761 0,0.56144 -0.038,0.59625 -0.77698,0.70712 -0.5408,0.0812 -1.0934,0.36351 -1.81782,0.92882 -0.57246,0.44675 -1.3002,0.93724 -1.61724,1.09 -0.49603,0.23899 -0.57637,0.36896 -0.57637,0.93283 0,0.61328 -0.0537,0.67789 -0.84238,1.01133 -0.62546,0.26445 -1.0936,0.33448 -1.81782,0.27193 -0.9098,-0.0786 -1.01047,-0.0475 -1.49632,0.46428 -0.28648,0.3017 -0.60189,0.54853 -0.70093,0.54853 -0.0991,0 -0.4373,0.24946 -0.7517,0.55438 -0.51708,0.50155 -0.62313,0.53637 -1.11285,0.36555 -0.53094,-0.18521 -0.54497,-0.17518 -0.73268,0.52233 -0.17885,0.6646 -0.22495,0.70375 -0.70429,0.59838 -0.40161,-0.0882 -0.56271,-0.033 -0.74203,0.25433 -0.12602,0.20186 -0.26972,0.36575 -0.31941,0.36414 -0.0499,-0.002 -0.48941,-0.30597 -0.97709,-0.67639 z" />
<path
   inkscape:label=""
   inkscape:connector-curvature="0"
   style="fill:#ffffff;fill-opacity:1;stroke:#808080;stroke-width:0.49999997;stroke-miterlimit:4;stroke-dasharray:none;stroke-opacity:1"
   id="EDUCACION_REQUENA"
   d="m 189.5302,301.21163 -1.66496,-1.15354 -1.91403,0 -1.91401,0 -1.26359,-1.49267 -1.26356,-1.49265 -1.97541,-0.70119 c -1.5412,-0.54706 -1.98712,-0.77865 -2.02862,-1.05368 -0.0418,-0.27659 -0.31458,-0.41566 -1.26679,-0.64562 -0.66752,-0.16126 -1.57125,-0.29316 -2.00823,-0.29316 l -0.79458,0 -0.57931,-1.4641 c -0.31859,-0.80525 -0.81215,-1.93016 -1.09677,-2.49978 l -0.51749,-1.0357 -0.92085,0.12577 c -0.50645,0.0691 -1.35978,0.25868 -1.89626,0.42114 l -0.97538,0.29544 -0.0527,1.09391 c -0.0447,0.93507 0.0151,1.19613 0.41301,1.79795 0.3834,0.57974 0.43076,0.76927 0.26801,1.07345 -0.18441,0.34487 -0.34741,0.36916 -2.4525,0.36536 -1.56225,-0.003 -2.63632,-0.10091 -3.4964,-0.31878 l -1.24142,-0.31473 -0.56662,-1.05658 -0.56663,-1.0566 0.61098,-0.62861 c 0.70763,-0.72812 0.72401,-0.84735 0.27786,-2.02295 l -0.33284,-0.87689 1.23529,-2.36239 1.23521,-2.36237 -1.01149,-1.60413 c -0.85241,-1.35182 -1.14772,-1.6732 -1.87773,-2.04338 l -0.86621,-0.43923 0,-2.70677 0,-2.7068 -1.06406,-0.5854 -1.06407,-0.58538 3.6e-4,-2.69436 3.2e-4,-2.69437 1.06334,-1.59719 c 1.03031,-1.54755 1.06338,-1.63356 1.06372,-2.76673 3.4e-4,-1.38153 0.46958,-3.3356 1.2528,-5.21821 l 0.56425,-1.35642 1.30853,-0.64788 1.30849,-0.6479 0,-1.45288 0,-1.45288 1.50746,-1.3695 1.50746,-1.36949 0,-0.99862 0,-0.99864 -1.46733,-0.57677 c -1.09787,-0.4316 -1.7449,-0.57675 -2.57073,-0.57675 l -1.1036,0 0,-0.94859 0,-0.94858 -1.27059,-0.38227 -1.27066,-0.38224 -1.34525,1.21731 -1.34525,1.21733 -0.0514,1.14383 -0.0515,1.14385 -1.1488,0.56689 c -0.93134,0.45957 -1.36467,0.56686 -2.28916,0.56686 -0.98254,0 -1.54858,0.15959 -4.09141,1.15357 -2.8315,1.10677 -3.01399,1.15351 -4.50259,1.15351 -1.53969,0 -1.5594,0.005 -2.59442,0.74736 -0.85301,0.61123 -1.27818,0.78428 -2.3344,0.95006 -1.25838,0.19754 -1.2915,0.19318 -1.29339,-0.17057 -0.003,-0.55042 -1.18245,-4.08109 -1.38622,-4.14907 -0.10344,-0.0342 -0.0424,-0.43528 0.14839,-0.98072 0.70979,-2.02695 1.23976,-5.19167 1.23976,-7.40287 l 0,-2.12675 2.74737,0 2.74735,0 0.81019,-0.61887 c 1.65992,-1.26787 3.24718,-2.06153 5.49388,-2.74693 0.68558,-0.20917 1.33398,-0.43587 1.4409,-0.50376 0.10685,-0.0679 0.5574,-0.84851 1.00116,-1.73464 l 0.8068,-1.61118 1.98485,-0.21544 c 1.49645,-0.1624 2.2695,-0.34457 3.1416,-0.74026 0.98933,-0.44887 1.37388,-0.52485 2.65668,-0.52485 l 1.49993,0 1.44612,-0.94496 c 0.79538,-0.5198 2.25365,-1.29845 3.24062,-1.73033 l 1.7945,-0.7853 0.21676,-1.19792 c 0.1989,-1.09898 0.25315,-1.19791 0.65712,-1.19791 0.7145,0 3.06123,-0.8541 4.4932,-1.63533 0.73157,-0.39911 2.29531,-1.35241 3.47497,-2.11846 1.1797,-0.766 2.297,-1.39251 2.48289,-1.3922 0.18589,3.3e-4 1.27038,-0.17244 2.40987,-0.38385 2.34424,-0.43493 2.18332,-0.27378 2.37926,-2.38261 l 0.11406,-1.22712 0.98496,-0.43489 c 0.54175,-0.23916 1.55772,-0.84611 2.25774,-1.34868 l 1.2728,-0.91381 1.31216,0.922 c 1.428,1.00336 3.09125,1.5759 3.35191,1.15384 0.0757,-0.12258 0.27083,-0.91133 0.43364,-1.75279 0.16282,-0.84147 0.33337,-1.65928 0.379,-1.81731 0.0457,-0.15806 1.05859,-1.05227 2.25099,-1.98711 1.19234,-0.93489 2.56393,-2.10333 3.04798,-2.59649 0.87123,-0.88771 0.89122,-0.89671 1.98832,-0.89671 l 1.10825,0 0.19418,-0.75424 c 0.37434,-1.45408 0.576,-2.00485 1.09982,-3.00345 0.49875,-0.95079 0.57917,-1.01871 1.44176,-1.21791 0.75707,-0.17489 1.1186,-0.41197 2.11063,-1.38412 1.10683,-1.08466 1.19713,-1.23013 1.19713,-1.92855 0,-0.86259 0.47121,-2.18706 0.77297,-2.17269 0.1114,0.005 0.7109,0.30479 1.33239,0.66552 1.04881,0.60878 1.20309,0.78326 2.14899,2.43052 0.88091,1.53399 1.20867,1.92658 2.41703,2.89468 0.76887,0.61599 1.89865,1.4227 2.51054,1.79269 1.03184,0.62386 1.16397,0.77893 1.81996,2.13635 0.76219,1.57717 0.7479,1.31211 0.18727,3.47253 -0.12953,0.49913 -0.63722,1.21772 -1.69261,2.39579 -1.3654,1.52412 -1.50794,1.75105 -1.51173,2.40613 -0.004,0.53014 0.10553,0.82637 0.40632,1.10917 0.37164,0.34935 0.6024,0.38612 2.43853,0.3885 l 2.02807,0.003 1.41881,1.14042 c 0.78036,0.62725 2.27933,1.675 3.33113,2.32838 1.84517,1.14621 1.90165,1.19975 1.60787,1.52458 -0.28856,0.31908 -0.28424,0.37834 0.083,1.13436 0.51537,1.06151 0.55012,3.11271 0.0616,3.63738 -0.17911,0.19241 -0.62834,1.12742 -0.99827,2.07783 -0.36994,0.95042 -0.8982,2.15493 -1.17394,2.67666 -0.48199,0.91212 -0.50607,1.07847 -0.62543,4.32245 l -0.12411,3.3738 -0.50444,0.17595 c -0.58219,0.2031 -0.56715,0.16438 -0.2954,0.7612 0.19497,0.42827 0.14297,0.52734 -0.77352,1.47246 -0.54043,0.55729 -1.22667,1.37268 -1.52501,1.81187 -0.29835,0.43923 -1.30696,1.55572 -2.24141,2.48106 -1.44571,1.43165 -1.69894,1.76744 -1.69894,2.25265 0,0.38024 -0.12554,0.65822 -0.37697,0.83443 -0.37421,0.26225 -0.38051,0.44363 -0.0537,1.55045 0.0683,0.23152 -0.92009,1.13829 -2.002,1.83667 -0.0213,0.0137 0.0504,0.31495 0.1591,0.66944 0.1675,0.54614 0.13819,0.8036 -0.19187,1.68683 l -0.38953,1.0423 0.54061,1.14363 c 0.29738,0.62899 0.54074,1.38088 0.54084,1.67087 8e-5,0.40357 0.23809,0.76789 1.01482,1.55333 0.82512,0.83445 1.05477,1.20002 1.22937,1.95729 0.11808,0.51218 0.39971,1.46858 0.6258,2.12533 0.34663,1.00687 0.47521,1.19471 0.82016,1.19791 0.38722,0.004 0.39434,0.0249 0.133,0.3982 -0.15185,0.21693 -0.27609,0.49901 -0.27609,0.62688 0,0.12776 -0.24521,0.86874 -0.54491,1.64646 -0.49648,1.28823 -0.58797,1.414 -1.02876,1.414 -0.39924,0 -0.55304,0.1426 -0.87973,0.81544 -0.32965,0.67898 -0.43928,0.77943 -0.65504,0.60025 -0.20942,-0.17389 -0.31897,-0.14184 -0.57051,0.16697 -0.25983,0.31892 -0.6403,0.41955 -2.29851,0.60792 l -1.98714,0.2257 -0.72384,0.8229 c -0.65865,0.74878 -0.90294,0.88112 -2.71261,1.46962 -2.54692,0.8282 -4.85939,2.21208 -6.51419,3.89835 -1.48909,1.51745 -2.22608,2.43977 -2.69427,3.3719 -0.19614,0.39043 -0.5444,0.91081 -0.77395,1.15647 -0.35534,0.38021 -0.43531,0.70189 -0.53802,2.16419 l -0.12063,1.7176 0.46883,0.11769 c 0.53833,0.13521 0.66779,0.78501 0.15851,0.79561 -0.17069,0.004 -1.02425,0.3829 -1.8968,0.84297 -1.37182,0.72331 -1.61343,0.92056 -1.78589,1.45763 -0.15383,0.47909 -0.40955,0.73535 -1.1181,1.12044 -0.77559,0.42156 -0.91869,0.5782 -0.91869,1.00594 0,0.27865 -0.046,0.62633 -0.10196,0.77265 -0.0702,0.18315 0.10939,0.36581 0.57638,0.58605 0.7555,0.35633 3.69218,3.2405 4.19107,4.11611 0.36181,0.63508 0.27313,0.676 -0.81171,0.37454 -0.62952,-0.17495 -0.69528,-0.15416 -1.12418,0.35592 -0.41372,0.49203 -0.55216,0.54174 -1.50891,0.54174 -0.82475,0 -1.28897,-0.11916 -2.1388,-0.54826 -0.94906,-0.47943 -1.13773,-0.52024 -1.50237,-0.32496 -0.3381,0.18104 -0.41704,0.36712 -0.41704,0.98311 0,0.44701 0.0979,0.81823 0.23812,0.90173 0.13103,0.0779 0.37146,0.3492 0.53449,0.60252 0.36569,0.56839 1.17824,2.61825 1.17824,2.97255 0,0.29081 -0.82996,1.4472 -1.03872,1.4472 -0.0736,0 -0.88314,-0.5191 -1.79887,-1.15352 z" />
<path
   inkscape:label=""
   inkscape:connector-curvature="0"
   style="fill:#ffffff;fill-opacity:1;stroke:#808080;stroke-width:0.49999997;stroke-miterlimit:4;stroke-dasharray:none;stroke-opacity:1"
   id="EDUCACION_NAUTA"
   d="m 134.0712,235.58234 c 0.20109,-0.39439 0.72518,-1.32573 1.16469,-2.06961 0.55007,-0.93099 0.73496,-1.3922 0.59329,-1.47981 -0.11313,-0.0699 -0.99203,-0.18307 -1.95296,-0.25125 -1.98391,-0.14075 -2.73516,-0.50321 -3.68495,-1.7779 l -0.52485,-0.70439 0.48598,-0.62611 c 0.73767,-0.95029 0.75789,-1.01951 0.46408,-1.58809 -0.16573,-0.32076 -0.27324,-0.99312 -0.27324,-1.7089 0,-1.10724 0.0618,-1.28962 1.00435,-2.95512 l 1.00437,-1.77506 -0.5345,-1.08575 -0.53454,-1.08579 3.0771,-3.50133 c 1.69245,-1.92578 3.07661,-3.56529 3.07594,-3.6434 -9.1e-4,-0.078 -0.69369,-0.53499 -1.54012,-1.01529 l -1.53902,-0.8732 -2.47459,-0.18262 -2.47462,-0.18259 -0.92709,-0.84794 c -0.84189,-0.76992 -0.94586,-0.95026 -1.13048,-1.96106 -0.11976,-0.65592 -0.6172,-1.96635 -1.21089,-3.19001 l -1.0076,-2.07683 -1.17078,-0.52389 c -0.99337,-0.44446 -1.27034,-0.67388 -1.82786,-1.51413 l -0.65708,-0.99032 0,-2.02889 c 0,-1.70086 -0.0622,-2.16759 -0.38522,-2.88658 -0.26714,-0.59487 -0.41662,-1.37243 -0.4877,-2.53764 l -0.10228,-1.67993 -0.65642,-0.15467 c -0.4184,-0.0987 -1.06816,-0.53223 -1.79198,-1.19594 -1.12307,-1.02979 -1.14586,-1.06963 -2.06894,-3.61651 l -0.93335,-2.57524 -1.66402,-1.2516 -1.66405,-1.25161 0,-1.55617 0,-1.55618 -0.88675,-0.874 -0.88673,-0.87399 0,-1.39389 c 0,-1.21338 -0.0574,-1.4692 -0.44335,-1.97555 -0.36908,-0.48417 -0.44338,-0.77731 -0.44338,-1.74868 l 0,-1.167 -1.15278,-0.84699 c -0.634,-0.46585 -1.15118,-0.89146 -1.14925,-0.94585 0.003,-0.0542 0.70023,-0.46751 1.55181,-0.91806 1.65013,-0.87303 1.71015,-0.96776 1.28082,-2.02029 -0.19958,-0.48926 -0.1623,-0.62436 0.46029,-1.66747 l 0.67751,-1.13506 -0.81541,-0.72835 -0.81548,-0.72834 -0.0954,-2.00701 -0.0956,-2.00698 -1.00464,-1.45366 c -0.55249,-0.79947 -1.36489,-1.98855 -1.8052,-2.64239 l -0.8006,-1.18879 0.45782,-0.58539 0.45784,-0.58537 -0.82797,-0.84115 -0.82795,-0.84113 0.47877,-0.50009 c 0.47398,-0.49507 0.47875,-0.52509 0.47875,-3.00944 l 0,-2.5094 1.15278,-2.10959 c 0.63403,-1.16028 1.15277,-2.169 1.15277,-2.24162 0,-0.30646 -5.36829,-7.0155 -7.5105,-9.38625 -0.78514,-0.86886 -1.33989,-1.62423 -1.25085,-1.7031 0.0881,-0.0778 1.51668,-1.17064 3.17486,-2.4282 1.65824,-1.25757 4.57296,-3.52587 6.47714,-5.0407 1.90422,-1.5148 4.15768,-3.26894 5.0077,-3.89808 1.62799,-1.205 2.48749,-2.15761 7.81747,-8.66421 l 2.80096,-3.41928 0.54373,1.02346 c 1.33648,2.51569 0.84439,2.21464 6.92149,4.23448 l 5.40274,1.79568 2.15871,-0.35679 2.15873,-0.35679 0.96122,0.66245 c 0.92103,0.63479 0.98374,0.72972 1.50023,2.27066 0.46928,1.40023 0.67428,1.7492 1.58539,2.69867 0.93771,0.97713 1.05979,1.1913 1.17481,2.06036 0.19143,1.4466 1.24841,2.36358 4.69539,4.07337 l 2.67891,1.32885 -0.0493,2.12801 -0.0491,2.12801 -1.19736,0.19628 c -0.65849,0.10785 -1.25267,0.25166 -1.32035,0.31933 -0.0676,0.0678 0.41964,0.67041 1.08299,1.33924 1.0267,1.03534 1.18661,1.27863 1.0757,1.63655 -0.20743,0.66922 -0.88039,1.93851 -1.57368,2.96799 -0.6378,0.94712 -0.64128,0.96276 -1.02389,4.61411 -0.3529,3.36784 -0.36654,3.91436 -0.16862,6.76488 l 0.21536,3.10101 1.02633,1.60186 1.02636,1.60184 2.02471,0.36802 c 1.11359,0.20241 2.125,0.40225 2.24757,0.44409 0.12259,0.0419 0.68827,1.0741 1.25704,2.29399 1.83927,3.9449 1.91834,4.0522 8.0405,10.91966 l 2.06195,2.31288 2.48653,1.12195 c 2.18793,0.98722 2.6671,1.28491 3.98967,2.47875 1.59296,1.4379 2.82589,2.76506 4.41581,4.75328 l 0.97368,1.21765 0.64671,3.44474 c 0.52006,2.77032 0.73125,3.55209 1.07865,3.99303 0.23755,0.30153 1.32301,1.62637 2.41208,2.94402 1.08907,1.31771 2.40805,3.00146 2.93102,3.74165 0.92469,1.30869 0.97916,1.3521 1.97658,1.57384 0.83624,0.18594 1.15675,0.36935 1.73512,0.99308 0.67968,0.73296 0.78621,0.77975 2.54359,1.11656 l 1.83423,0.35152 3.1615,-1.4823 c 2.62571,-1.2311 3.57251,-1.78684 5.58695,-3.27921 2.51487,-1.86321 2.92375,-2.11537 2.92375,-1.80316 0,0.10175 -0.47883,0.52123 -1.06412,0.93204 -0.58525,0.4108 -1.06408,0.77922 -1.06408,0.81877 0,0.0395 0.13357,0.32739 0.29674,0.63976 0.1632,0.31238 0.28011,0.83232 0.25975,1.15546 -0.0464,0.74102 -0.86447,3.35566 -1.09402,3.49763 -0.0945,0.0585 -0.17185,0.52359 -0.17185,1.03361 0,0.88359 -0.0438,0.97057 -0.93109,1.84636 -0.74516,0.73556 -1.12105,0.96286 -1.88252,1.13832 -0.83721,0.19286 -1.02997,0.32685 -1.60502,1.11572 -0.61541,0.84423 -0.7678,1.21833 -1.25088,3.07047 l -0.19668,0.75423 -0.93377,0 c -0.84177,0 -0.99399,0.0631 -1.54496,0.64128 -0.33616,0.35272 -1.80826,1.60075 -3.27139,2.7735 -1.84037,1.47507 -2.69592,2.27561 -2.77612,2.59751 -0.0639,0.25591 -0.2495,1.08762 -0.41278,1.84825 -0.27457,1.27874 -0.326,1.37463 -0.68222,1.27243 -0.76705,-0.22005 -2.21774,-0.98576 -3.00002,-1.58347 l -0.79946,-0.61088 -1.67132,1.10048 c -0.91922,0.60527 -2.07813,1.28995 -2.57528,1.52155 l -0.90398,0.42109 -0.0659,1.30622 c -0.0423,0.84255 -0.15916,1.39917 -0.32867,1.56823 -0.15154,0.15112 -1.16531,0.40679 -2.39558,0.60409 l -2.13291,0.34207 -2.12346,1.38684 c -3.1271,2.04227 -5.79075,3.3676 -7.08923,3.52736 -1.51079,0.18588 -1.63925,0.2896 -1.78279,1.43905 -0.0679,0.54475 -0.21345,1.06613 -0.32316,1.15863 -0.10961,0.0925 -1.03753,0.57278 -2.06174,1.06727 -1.02415,0.49447 -2.35528,1.25116 -2.95803,1.68149 l -1.09584,0.78245 -1.6146,0 c -1.35659,0 -1.74998,0.0688 -2.46184,0.42963 -0.63821,0.32363 -1.403,0.48781 -3.09978,0.66549 l -2.25249,0.2359 -0.79383,1.68596 c -0.85842,1.82306 -1.15472,2.07202 -2.83768,2.38437 -0.92578,0.17186 -2.84275,1.14074 -4.43183,2.24003 l -1.2679,0.87705 -2.69588,0 -2.69588,0 0.36561,-0.71709 0,0 z" />
<path
   inkscape:label=""
   inkscape:connector-curvature="0"
   style="fill:#ffffff;fill-opacity:1;stroke:#808080;stroke-width:0.49999997;stroke-miterlimit:4;stroke-dasharray:none;stroke-opacity:1"
   id="EDUCACION_CONTAMANA"
   d="m 118.56014,343.95558 c 0,-0.80063 0.0914,-2.65 0.20239,-4.10976 0.19569,-2.56546 0.21394,-2.66852 0.54752,-3.08619 l 0.34511,-0.43208 -0.67291,-1.92781 c -0.37009,-1.06028 -0.67291,-1.9811 -0.67291,-2.0463 0,-0.0653 0.0798,-0.11843 0.17763,-0.11843 0.31815,0 2.07966,-1.40486 2.07966,-1.65852 0,-0.41911 -0.40055,-2.03132 -0.60121,-2.41984 -0.19834,-0.38406 -0.20571,-0.64643 -0.0743,-2.64348 l 0.075,-1.1376 1.42506,-0.29925 1.42502,-0.29923 0.0618,-0.50821 c 0.0343,-0.27954 0.0858,-1.2988 0.11523,-2.26506 0.0516,-1.69553 0.0424,-1.7756 -0.26017,-2.29411 -0.21521,-0.36856 -0.37819,-0.5187 -0.51895,-0.47814 -0.55138,0.15882 -4.12575,1.07815 -4.19186,1.07815 -0.0418,0 0.0979,-0.37166 0.31037,-0.82588 l 0.38623,-0.82587 -0.56898,-0.58588 c -0.31295,-0.32223 -0.97317,-1.23526 -1.46721,-2.02899 -0.49401,-0.7937 -1.1996,-1.75369 -1.568,-2.1333 -0.62023,-0.63914 -0.68453,-0.76312 -0.86935,-1.67615 -0.10961,-0.54226 -0.19963,-1.002 -0.19963,-1.02164 0,-0.0197 0.22574,-0.12602 0.50163,-0.23653 0.58426,-0.23392 0.57889,-0.19447 0.33001,-2.42627 l -0.157,-1.40768 -1.31538,-1.35304 c -1.46855,-1.51062 -1.8882,-2.07613 -2.74445,-3.69831 l -0.59017,-1.11802 0.26089,-0.52716 c 0.16196,-0.32727 0.27942,-0.85489 0.30985,-1.39166 0.0438,-0.7733 0.1,-0.93221 0.53521,-1.50587 0.59314,-0.78239 0.86296,-1.32957 0.86296,-1.74992 0,-0.4393 0.78054,-1.05221 2.25235,-1.7688 1.15301,-0.56136 1.193,-0.59521 1.41926,-1.20214 0.12804,-0.34351 0.51115,-0.92932 0.85137,-1.30181 0.60371,-0.66102 0.61868,-0.6965 0.62269,-1.47536 0.004,-0.7484 0.121,-1.81333 0.31913,-2.90003 l 0.0858,-0.47059 -0.68225,0 -0.68226,0 -0.13979,-0.78431 -0.13976,-0.78429 0.61753,-0.58802 c 0.54205,-0.51618 0.6175,-0.65033 0.6175,-1.09801 0,-0.45525 -0.0326,-0.51001 -0.30216,-0.51001 -0.2643,0 -0.34178,-0.11783 -0.61783,-0.93943 -0.23282,-0.69289 -0.27694,-0.96461 -0.16812,-1.0353 0.0812,-0.0528 1.32419,-0.11486 2.76226,-0.13833 l 2.61467,-0.0425 1.84581,1.2578 c 1.8093,1.23295 1.86793,1.2617 2.9658,1.45387 0.616,0.10784 1.18607,0.1962 1.26676,0.19643 0.0808,2.5e-4 0.41607,-0.36664 0.74524,-0.81527 l 0.59853,-0.81566 1.11411,0 c 1.08455,0 1.12461,-0.008 1.51199,-0.39868 0.21886,-0.21928 1.03278,-0.70427 1.80872,-1.0778 l 1.41079,-0.67915 0,-0.55354 c 0,-0.49878 -0.0293,-0.55354 -0.29735,-0.55354 -0.35851,0 -0.3555,0.0182 -0.65182,-3.98783 l -0.20677,-2.79571 0.45793,-0.87204 0.45795,-0.87203 -0.26356,-1.10083 c -0.36251,-1.5141 -0.97484,-4.52458 -1.02368,-5.03305 -0.0383,-0.40093 -0.009,-0.43034 0.64946,-0.69718 0.46436,-0.18756 0.7426,-0.38787 0.85156,-0.61299 0.1739,-0.35935 0.39999,-2.04472 0.40152,-2.9931 0.002,-0.57672 -0.004,-0.58311 -0.68847,-0.94114 -0.64168,-0.3355 -0.68942,-0.39184 -0.68968,-0.8136 l -3.4e-4,-0.45316 1.03462,-0.28815 c 1.1472,-0.31951 2.18599,-0.78935 3.03039,-1.37077 0.54451,-0.37486 0.59182,-0.38378 2.03971,-0.38411 l 1.48223,-3.5e-4 3.18717,-1.25452 c 3.18394,-1.25331 3.18821,-1.25456 4.29356,-1.25456 1.08249,0 1.13502,-0.0141 2.4247,-0.65605 l 1.31824,-0.65604 0,-1.13479 0,-1.13477 1.10063,-1.09621 1.10055,-1.09621 1.06263,0.35694 1.06267,0.35695 0.0363,1.02425 0.0363,1.02421 1.40574,-9.4e-4 c 1.33603,-9.3e-4 1.46311,0.0229 2.56394,0.47058 l 1.15821,0.47113 0.003,0.6768 0.004,0.67676 -1.56759,1.49942 -1.56754,1.49939 0,1.36089 0,1.36089 -1.15999,0.55025 c -1.06428,0.50486 -1.18737,0.60132 -1.4915,1.16876 -0.95158,1.77543 -1.73768,4.72623 -1.73768,6.52308 l 0,0.93888 -1.06591,1.59706 -1.06596,1.59708 0,2.82422 0,2.82421 1.06554,0.61035 1.06555,0.61035 0,2.65423 0,2.65424 1.04194,0.65669 c 0.99719,0.62849 1.07563,0.71261 1.82683,1.95888 l 0.78489,1.30219 -1.18219,2.3686 -1.18217,2.36858 0.35901,1.06227 0.35901,1.06227 -0.65407,0.6627 -0.65402,0.66271 0.62226,1.2673 c 0.34223,0.69702 0.71046,1.31477 0.81832,1.37273 0.10762,0.058 0.76699,0.25026 1.46484,0.42728 1.12272,0.28478 1.52133,0.32186 3.4614,0.32186 l 2.19251,0 0.51226,-0.58236 c 0.28177,-0.32031 0.51232,-0.62277 0.51232,-0.67216 0,-0.0493 -0.19751,-0.34861 -0.43894,-0.66499 -0.41608,-0.54526 -0.43891,-0.62681 -0.43891,-1.56649 0,-0.95044 0.0138,-0.99755 0.33213,-1.14277 0.50722,-0.23122 1.80273,-0.51248 2.36406,-0.51321 l 0.50164,-9.2e-4 0.53294,1.28504 c 0.29311,0.70679 0.64552,1.6177 0.78306,2.02432 0.13764,0.40658 0.31385,0.81599 0.39164,0.90979 0.1137,0.13696 0.0705,0.17062 -0.21883,0.171 -0.60539,9.3e-4 -1.67967,1.47633 -3.24299,4.45435 -0.471,0.89724 -1.00886,1.85722 -1.19516,2.13331 -0.27812,0.41203 -0.37105,0.76399 -0.51884,1.9643 l -0.17999,1.46236 1.33112,1.46493 1.33113,1.46488 -0.18727,0.98331 -0.18729,0.98331 0.53817,0.82662 c 0.48487,0.74465 0.57956,0.82662 0.955,0.82662 0.22926,0 0.44439,0.0445 0.47807,0.0992 0.0337,0.0546 -0.27596,0.49223 -0.68814,0.97252 -0.78863,0.91899 -2.35723,3.18873 -3.17111,4.58856 l -0.48197,0.82896 -1.80829,0.83375 c -1.5671,0.72254 -1.90469,0.83371 -2.53173,0.83371 -0.64023,0 -0.76503,0.0434 -1.08398,0.37644 -0.34601,0.3614 -0.40378,0.3765 -1.44365,0.3765 -0.83364,0 -1.29774,-0.0737 -2.01436,-0.31977 -0.51212,-0.17587 -1.7938,-0.571 -2.84814,-0.87809 l -1.91697,-0.55833 -1.97055,0.75894 c -1.08378,0.4174 -2.30912,0.93959 -2.72295,1.16044 l -0.7524,0.40149 -0.251,1.54823 c -0.22473,1.38638 -0.28774,1.5799 -0.60266,1.85095 -0.19341,0.16651 -0.40208,0.30272 -0.46373,0.30272 -0.0616,0 -0.26267,-0.19763 -0.4468,-0.43921 -0.44206,-0.57997 -0.86867,-0.57695 -2.35863,0.0164 -2.33457,0.93011 -2.77423,1.21635 -4.74955,3.09187 l -1.84972,1.75627 0,1.02378 0,1.02379 0.56434,0.55421 c 0.53814,0.52852 0.56431,0.58741 0.56431,1.27007 l 0,0.71587 0.78377,0.1049 c 0.76747,0.1027 0.78461,0.11359 0.82307,0.51291 0.039,0.40405 0.0341,0.40786 -0.5102,0.40786 -0.61267,0 -1.55017,-0.25073 -2.62907,-0.70316 -0.62788,-0.26329 -0.91351,-0.30077 -2.29175,-0.30077 -1.55051,0 -1.58775,0.006 -2.44817,0.4403 -0.84509,0.42586 -0.88976,0.47215 -1.36209,1.41149 l -0.48836,0.97124 -0.98611,0.18971 c -0.94328,0.18145 -0.99598,0.20986 -1.21337,0.65375 -0.14497,0.29599 -0.25311,0.88634 -0.29865,1.6301 -0.0711,1.15771 -0.0759,1.17256 -0.71326,2.07148 -0.45101,0.6361 -0.74367,0.92814 -0.98406,0.98189 -0.18815,0.0422 -1.03463,0.49541 -1.88107,1.00741 -0.84639,0.51197 -1.63766,0.93128 -1.75836,0.93177 -0.19644,9.3e-4 -0.21945,-0.15171 -0.21945,-1.45472 l 0,0 z" />
<path
   inkscape:label=""
   inkscape:connector-curvature="0"
   style="fill:#ffffff;fill-opacity:1;stroke:#808080;stroke-width:0.49999997;stroke-miterlimit:4;stroke-dasharray:none;stroke-opacity:1"
   id="EDUCACION_ALTO_AMAZONAS"
   d="m 106.97703,253.26632 c -0.68669,-0.27498 -1.38963,-0.7263 -2.05786,-1.32129 l -1.01493,-0.90368 0,-1.06583 0,-1.06582 -0.50987,-0.16838 c -0.39814,-0.1314 -0.55981,-0.30994 -0.73774,-0.81423 -0.18808,-0.53317 -0.33373,-0.68221 -0.83473,-0.85419 -0.60604,-0.20809 -0.61019,-0.20666 -2.87326,0.97629 l -2.26637,1.18469 -2.407305,-0.15061 c -2.260039,-0.14135 -2.421691,-0.13288 -2.641949,0.13801 -0.226128,0.27815 -0.275002,0.26922 -1.347916,-0.24529 l -1.113295,-0.53392 0.160698,-0.52395 c 0.265929,-0.86712 -0.45425,-3.24405 -1.625269,-5.36403 -0.70286,-1.27247 -1.045212,-1.74724 -1.260719,-1.74845 -0.269816,-0.003 -0.274704,-0.0255 -0.05558,-0.2736 0.132203,-0.14959 0.32681,-0.66485 0.43244,-1.14504 l 0.192036,-0.87301 -0.648668,-0.87866 -0.648643,-0.87866 0.500818,-0.69783 0.50083,-0.69786 -0.511447,-1.23956 c -0.430658,-1.0438 -0.49459,-1.35217 -0.404708,-1.95205 0.109543,-0.73117 0.326787,-0.95234 1.938149,-1.97337 l 0.430646,-0.27289 0.572466,0.92807 c 0.314867,0.51048 0.62904,0.96309 0.698169,1.00583 0.06914,0.0426 0.870037,-0.10123 1.779838,-0.31957 1.926475,-0.46272 1.859752,-0.33715 1.321136,-2.48618 l -0.333027,-1.32866 1.364422,-1.37171 c 0.973902,-0.97911 1.336353,-1.44495 1.266301,-1.62763 -0.05387,-0.14076 -0.417056,-0.70312 -0.806842,-1.24971 -0.694103,-0.97342 -0.703365,-1.00199 -0.449483,-1.38974 0.142561,-0.21773 0.295046,-0.39586 0.338835,-0.39586 0.04379,0 0.55883,0.35548 1.144532,0.78994 0.918068,0.68106 1.130815,0.77547 1.543235,0.68482 0.2778,-0.061 0.53682,-0.24562 0.61786,-0.44028 0.15214,-0.36529 0.42205,-2.08237 0.93123,-5.92358 0.18079,-1.36404 0.3623,-2.53446 0.40334,-2.60085 0.041,-0.0664 0.69867,0.19293 1.46155,0.57627 l 1.38695,0.69705 2.35513,0 2.35514,0 0.48238,-0.55675 0.48244,-0.55674 0.77651,0.19453 c 0.63832,0.1599 1.09454,0.47547 2.56264,1.77284 l 1.78608,1.57826 2.87325,-0.13803 2.87326,-0.13799 0.74302,-0.78389 c 0.40869,-0.43111 0.88903,-1.07359 1.06746,-1.42772 0.17842,-0.35413 0.33561,-0.65788 0.34934,-0.67499 0.0138,-0.0171 0.66701,0.13234 1.45181,0.33222 1.04766,0.26677 1.46422,0.31632 1.56734,0.18651 0.16948,-0.21339 0.64517,-1.13823 0.64517,-1.25435 0,-0.0457 -0.3368,-0.25359 -0.74844,-0.46239 -0.76053,-0.38561 -4.9963,-2.91371 -6.89395,-4.11463 -0.57291,-0.36255 -1.19019,-0.89961 -1.37164,-1.19341 -0.32035,-0.51871 -0.35887,-0.53424 -1.32439,-0.53424 -0.95644,0 -1.05931,-0.04 -2.69252,-1.04905 l -1.6981,-1.04907 -0.20346,-1.00607 c -0.15789,-0.78088 -0.42213,-1.33755 -1.18023,-2.48665 -0.53724,-0.8143 -1.1883,-2.02825 -1.44685,-2.69762 -0.25853,-0.66939 -0.95624,-2.23606 -1.55042,-3.48149 -1.02809,-2.15478 -1.08043,-2.3187 -1.08043,-3.38582 l 0,-1.12143 1.71298,-1.29514 1.71293,-1.29517 -0.0435,-1.86648 -0.0434,-1.86651 -0.9971,-0.39077 -0.99708,-0.39073 -0.621,-1.32503 c -0.34156,-0.72876 -0.65208,-1.64711 -0.69011,-2.04073 l -0.0691,-0.71568 -1.21514,-0.59286 c -1.13188,-0.55224 -1.23706,-0.64567 -1.53551,-1.36428 -0.24138,-0.58116 -0.31908,-1.10173 -0.31513,-2.1106 l 0.005,-1.33918 1.67807,-1.8325 c 1.6745,-1.8286 1.67866,-1.83512 1.93814,-3.03062 0.14304,-0.65895 0.31221,-1.27984 0.37596,-1.37978 0.0797,-0.12513 0.41813,0.0353 1.08515,0.51422 l 0.9693,0.69599 0,1.1351 c 0,1.02723 0.0441,1.19086 0.46592,1.72179 0.4423,0.55697 0.46594,0.66 0.46594,2.0328 l 0,1.44612 0.8542,0.73797 0.85421,0.73799 0,1.65843 0,1.65845 1.71141,1.30256 c 1.89079,1.43914 1.62559,1.02472 2.87358,4.49077 0.32317,0.89752 0.69925,1.7647 0.83571,1.92703 0.487,0.57935 2.52292,2.24456 3.05043,2.49505 l 0.53692,0.25494 0,1.36468 c 0,1.09704 0.076,1.55217 0.38825,2.32084 0.3245,0.79907 0.38942,1.2185 0.39504,2.55229 0.009,2.16606 0.15,2.76284 0.88,3.72922 0.46531,0.61599 0.93322,0.99265 1.88227,1.51522 0.85235,0.46935 1.311,0.82306 1.41063,1.0879 0.0814,0.21585 0.42283,1.0219 0.75917,1.79121 0.3364,0.7693 0.74096,1.90532 0.89907,2.52444 0.2675,1.04744 0.36346,1.20051 1.37937,2.20041 l 1.09186,1.07469 2.485,0.18719 2.48496,0.18716 1.28397,0.7127 c 0.70624,0.39198 1.26534,0.76819 1.2425,0.83602 -0.0228,0.0678 -1.3884,1.6613 -3.03462,3.54091 l -2.99314,3.41749 0.54533,1.08357 0.54527,1.08359 -1.00613,1.75561 c -0.99851,1.74227 -1.00618,1.76474 -1.00784,2.95482 -0.002,0.80096 0.084,1.37943 0.2569,1.74189 0.25522,0.53547 0.25262,0.55111 -0.19411,1.17889 -0.24901,0.3499 -0.51777,0.73034 -0.59722,0.84537 -0.10155,0.14713 0.0596,0.50876 0.54358,1.21936 0.88018,1.29226 2.10513,1.97462 3.54483,1.97462 0.50024,0 1.12009,0.0422 1.37745,0.0937 l 0.46789,0.0939 -0.49694,0.87768 c -0.27335,0.48272 -0.67944,1.15746 -0.90253,1.49936 -0.38772,0.59436 -0.4162,0.78908 -0.64819,4.43134 -0.21524,3.37975 -0.30348,4.04461 -0.78173,5.89127 -0.2965,1.14484 -0.59451,2.12545 -0.6623,2.17911 -0.0678,0.0536 -0.52066,0.36283 -1.00634,0.6871 -0.82923,0.55362 -0.89086,0.6383 -1.00999,1.38718 -0.11636,0.73171 -0.16719,0.80581 -0.61498,0.89745 -0.26843,0.0551 -1.01629,0.38997 -1.66179,0.74452 -1.51878,0.83412 -1.77578,0.82825 -2.39777,-0.0549 -0.65755,-0.9335 -1.16802,-0.9547 -1.79041,-0.0745 -0.48406,0.68467 -0.49388,0.68671 -2.48036,0.51869 l -1.17831,-0.0996 -0.35914,-0.67741 -0.3591,-0.6774 -2.25229,9.4e-4 -2.25228,9.3e-4 -0.5436,0.85316 -0.54359,0.85317 -1.63075,-0.009 c -1.39454,-0.007 -1.78183,-0.0695 -2.67368,-0.42657 l 0,3e-5 z" />
<path
   inkscape:label=""
   inkscape:connector-curvature="0"
   style="fill:#ffffff;fill-opacity:1;stroke:#808080;stroke-width:0.49999997;stroke-miterlimit:4;stroke-dasharray:none;stroke-opacity:1"
   id="EDUCACION_DATEM_DEL_MARANON"
   d="m 83.234743,240.66807 c -0.235288,-0.0542 -0.617369,-0.36244 -0.867593,-0.69951 -0.375561,-0.50591 -0.637701,-0.66245 -1.637419,-0.97787 -1.028849,-0.32461 -1.190285,-0.42392 -1.190285,-0.73231 0,-0.29363 -0.151159,-0.40821 -0.854196,-0.64732 -0.794248,-0.27015 -0.85422,-0.32507 -0.85422,-0.78231 0,-0.54306 0.201805,-0.47696 -2.363506,-0.77426 -0.661132,-0.0768 -0.910695,-0.17434 -0.976699,-0.38243 -0.17577,-0.55417 -0.426891,-0.61406 -1.52434,-0.36357 l -1.046804,0.23896 -1.025933,-1.10887 -1.025938,-1.10886 -0.358876,0.33738 c -0.383306,0.36036 -1.285449,0.5917 -2.350126,0.60268 -0.509491,0.005 -0.770557,-0.095 -1.177263,-0.45235 -0.521049,-0.45782 -0.524951,-0.45853 -1.339423,-0.24355 l -0.816831,0.21564 -0.468135,-0.53356 c -0.330932,-0.37714 -0.600002,-0.53356 -0.917978,-0.53356 -0.447472,0 -0.449887,-0.004 -0.457313,-0.97133 l -0.0095,-0.97133 -1.231546,-1.32075 -1.23153,-1.32074 -0.672533,0.76478 -0.672521,0.76482 -1.117028,-0.72313 c -0.634104,-0.41049 -1.117041,-0.8327 -1.117041,-0.97664 0,-0.20548 -0.102847,-0.23425 -0.542329,-0.15174 -0.538936,0.10133 -0.54131,0.0992 -0.380007,-0.3254 0.08931,-0.23498 0.265062,-1.15969 0.39064,-2.05494 l 0.228377,-1.62767 -0.612781,-1.87612 c -0.518648,-1.58811 -0.651495,-2.28178 -0.865269,-4.51822 -0.13892,-1.4531 -0.362776,-3.30644 -0.497446,-4.11848 -0.237373,-1.43127 -0.270467,-1.5058 -1.081548,-2.43492 -0.854848,-0.97929 -1.444765,-2.04894 -1.450853,-2.63085 -0.0026,-0.1791 0.143923,-0.45882 0.324011,-0.62166 0.27705,-0.25051 0.313658,-0.41267 0.238016,-1.05361 l -0.08958,-0.7575 1.325181,-1.69027 c 1.280581,-1.63333 1.345563,-1.69027 1.929594,-1.69027 l 0.604403,0 0.395682,-1.25339 c 0.217622,-0.68939 0.480513,-1.87676 0.584221,-2.63864 l 0.188523,-1.38525 0.751863,-0.27056 c 0.413519,-0.14881 0.807056,-0.34266 0.874506,-0.43082 0.06745,-0.0881 0.351661,-0.71856 0.631596,-1.40092 0.48637,-1.18551 0.504565,-1.30296 0.409736,-2.64205 -0.05471,-0.77078 -0.206692,-1.9609 -0.337956,-2.64472 l -0.238675,-1.24332 0.840286,-3.8854 0.840298,-3.88536 -0.228213,-2.56436 -0.228201,-2.56437 -0.671637,-1.01018 c -0.369361,-0.55561 -1.044682,-1.37669 -1.500696,-1.82464 l -0.829061,-0.81442 0.196542,-2.63688 0.196568,-2.63689 -0.54265,-1.082 c -0.298455,-0.59508 -0.54496,-1.24502 -0.547775,-1.44428 -0.0053,-0.27044 -0.318686,-0.59244 -1.242498,-1.27057 -0.997938,-0.73255 -1.237364,-0.98677 -1.237364,-1.31364 0,-0.2356 -0.18938,-0.60363 -0.452313,-0.87895 -0.343681,-0.35989 -0.54603,-0.84697 -0.842375,-2.02781 -0.356984,-1.42245 -0.405085,-2.03119 -0.567632,-7.1842 -0.155283,-4.9235 -0.216213,-5.74001 -0.485488,-6.50671 -0.169386,-0.4822 -0.286988,-0.89173 -0.261375,-0.91003 0.02562,-0.0183 6.546323,-2.32727 14.490478,-5.13102 7.944145,-2.80372 17.003912,-6.02367 20.132817,-7.15544 l 5.688909,-2.05775 1.597008,-1.21024 c 1.542901,-1.16923 1.605411,-1.20011 1.843691,-0.91071 4.8732,5.91879 8.40049,10.34938 8.40049,10.55178 0,0.0618 -0.48926,1.00108 -1.08717,2.08695 l -1.08718,1.97426 0,2.53507 0,2.53504 -0.55942,0.6196 -0.55938,0.61961 0.81379,0.82455 0.81375,0.82457 -0.47583,0.57766 -0.47582,0.57765 0.82005,1.18305 c 0.45106,0.65065 1.31949,1.90229 1.92988,2.7814 l 1.10981,1.59838 0,1.91606 0,1.91606 0.77654,0.72685 c 0.4271,0.39977 0.77658,0.76075 0.77658,0.80214 0,0.0415 -0.27955,0.51825 -0.62126,1.05963 -0.34167,0.5414 -0.62099,1.08167 -0.62068,1.20065 3.5e-4,0.11905 0.1481,0.45848 0.32838,0.75437 0.18028,0.29593 0.26738,0.56102 0.19355,0.5891 -0.0738,0.028 -0.83311,0.41538 -1.68729,0.86072 l -1.55314,0.80964 -0.37489,1.76691 -0.37488,1.76697 -1.68297,1.83494 -1.683,1.83494 0.004,1.52682 c 0.004,1.42363 0.0381,1.58841 0.50474,2.43785 0.46066,0.83873 0.58043,0.94396 1.50861,1.3254 0.99301,0.40809 1.00972,0.42484 1.1084,1.10935 0.0552,0.38228 0.38221,1.30492 0.72691,2.05035 0.62257,1.3464 0.63348,1.35871 1.64837,1.8595 l 1.02165,0.50413 -2.9e-4,1.55967 -3.4e-4,1.55964 -1.70809,1.29396 -1.70807,1.294 0,1.2881 c 0,1.2741 0.009,1.31234 1.07398,3.52389 0.59065,1.2297 1.28173,2.77685 1.53565,3.43812 0.25394,0.66127 0.91515,1.88516 1.46938,2.71976 0.86409,1.30119 1.03395,1.67421 1.19181,2.61731 l 0.18405,1.09987 1.90795,1.11481 c 1.80471,1.05448 1.95952,1.1148 2.86168,1.1148 0.9275,0 0.95974,0.0139 1.1729,0.5051 0.18547,0.42746 0.86459,0.88733 4.41815,2.99175 2.30944,1.36766 4.2036,2.52574 4.20925,2.57349 0.005,0.0479 -0.0816,0.21245 -0.19363,0.36599 -0.19551,0.26755 -0.25207,0.26554 -1.36887,-0.0481 -0.64077,-0.1799 -1.24209,-0.32711 -1.33629,-0.32711 -0.0943,0 -0.55219,0.54203 -1.01772,1.20447 -1.27429,1.81339 -1.01686,1.70198 -4.22711,1.8294 l -2.79568,0.11116 -1.73487,-1.55853 c -1.55537,-1.39732 -1.82669,-1.57907 -2.62264,-1.75734 l -0.8878,-0.19882 -0.45972,0.57347 -0.45972,0.57344 -2.23981,0 -2.23975,0 -1.53286,-0.76973 c -1.46863,-0.73753 -1.54352,-0.75792 -1.78777,-0.48787 -0.16318,0.18047 -0.30966,0.77897 -0.40703,1.66339 -0.4807,4.36663 -1.09963,7.36498 -1.52025,7.36498 -0.0748,0 -0.597619,-0.34967 -1.161805,-0.77708 -0.564175,-0.42738 -1.084603,-0.77708 -1.156471,-0.77708 -0.07193,0 -0.38903,0.26476 -0.704804,0.58836 l -0.574109,0.58834 0.856606,1.23151 0.856574,1.23147 -1.392334,1.40502 -1.392344,1.40504 0.384251,1.31639 c 0.211343,0.72401 0.364636,1.41674 0.340641,1.53939 -0.02667,0.13643 -0.556142,0.3611 -1.363786,0.57873 -1.177065,0.31719 -1.336979,0.32964 -1.475457,0.11497 -0.08546,-0.13246 -0.422713,-0.62013 -0.749555,-1.08377 l -0.594219,-0.84304 -0.803568,0.57861 c -1.820872,1.31104 -1.903978,1.398 -2.082663,2.17941 -0.157147,0.68721 -0.13356,0.83463 0.293532,1.83549 0.255411,0.59854 0.472494,1.19319 0.482395,1.32141 0.0105,0.12818 -0.181337,0.53363 -0.424937,0.90093 l -0.442932,0.66776 0.65368,0.92757 0.653728,0.92759 -0.289363,1.03726 c -0.308654,1.10648 -0.350214,1.14795 -0.999321,0.99793 l 0,0 z" />
</svg>
