<?xml version="1.0" encoding="UTF-8" standalone="no"?>
<!--?xml version="1.0" encoding="UTF-8" standalone="no"?-->

<!--?xml version="1.0" encoding="UTF-8" standalone="no"?-->

<!--
************* Copyright (c) 2015 Pareto Softare, LLC DBA Simplemaps.com *******************		
************* Free for Commercial Use, full terms at  http://simplemaps.com/resources/svg-license ************
************* Attribution is appreciated! http://simplemaps.com ***************************
-->

<svg
   xmlns:dc="http://purl.org/dc/elements/1.1/"
   xmlns:cc="http://creativecommons.org/ns#"
   xmlns:rdf="http://www.w3.org/1999/02/22-rdf-syntax-ns#"
   xmlns:svg="http://www.w3.org/2000/svg"
   xmlns="http://www.w3.org/2000/svg"
   xmlns:sodipodi="http://sodipodi.sourceforge.net/DTD/sodipodi-0.dtd"
   xmlns:inkscape="http://www.inkscape.org/namespaces/inkscape"
   enable_background="new 0 0 1000 1585"
   height="549.01257"
   pretty_print="True"
   style="fill:none;stroke:#000000;stroke-linejoin:round"
   version="1.1"
   viewBox="0 0 354.46857 549.01257"
   width="354.46857"
   id="svg2"
   inkscape:version="0.91 r13725"
   sodipodi:docname="Madre de Dios.svg"><sodipodi:namedview
   pagecolor="#ffffff"
   bordercolor="#666666"
   borderopacity="0.05098039"
   objecttolerance="10"
   gridtolerance="10"
   guidetolerance="10"
   inkscape:pageopacity="0"
   inkscape:pageshadow="2"
   inkscape:window-width="1920"
   inkscape:window-height="1017"
   id="namedview37"
   showgrid="false"
   inkscape:zoom="1.431634"
   inkscape:cx="7.6405734"
   inkscape:cy="327.95124"
   inkscape:window-x="-8"
   inkscape:window-y="-8"
   inkscape:window-maximized="1"
   inkscape:current-layer="svg2"
   showborder="true"
   fit-margin-top="10"
   fit-margin-left="10"
   fit-margin-right="10"
   fit-margin-bottom="10"
   borderlayer="false"
   inkscape:showpageshadow="false"
   inkscape:snap-to-guides="false"
   inkscape:snap-grids="false"
   showguides="false" />

























utf-8<defs
   id="defs4">
  <style
     type="text/css"
     id="style6">path { fill-rule: evenodd; }utf-8utf-8</style>
</defs>

























utf-8<metadata
   id="metadata8">
utf-8utf-8<views>
utf-8utf-8utf-8<view
   h="1585.21431143"
   padding="0"
   w="1000">
utf-8utf-8utf-8utf-8<proj
   flip="auto"
   id="robinson"
   lon0="-80.0286400104" />

























utf-8utf-8utf-8utf-8<bbox
   h="307.01"
   w="193.79"
   x="-1203.32"
   y="0.49" />

























utf-8utf-8utf-8</view>

























utf-8utf-8</views>

























utf-8<rdf:rdf>
  <cc:work
     rdf:about="">
    <dc:format>image/svg+xml</dc:format>
    <dc:type
       rdf:resource="http://purl.org/dc/dcmitype/StillImage" />
  </cc:work>
</rdf:rdf>
<rdf:rdf>
  <cc:work
     rdf:about="">
    <dc:format>image/svg+xml</dc:format>
    <dc:type
       rdf:resource="http://purl.org/dc/dcmitype/StillImage" />
    <dc:title />
  </cc:work>
</rdf:rdf>
<rdf:RDF>
  <cc:Work
     rdf:about="">
    <dc:format>image/svg+xml</dc:format>
    <dc:type
       rdf:resource="http://purl.org/dc/dcmitype/StillImage" />
    <dc:title />
  </cc:Work>
</rdf:RDF>
</metadata>

























utf-8<path
   inkscape:label="EDUCACION_MADRE_DE_DIOS"
   inkscape:connector-curvature="0"
   id="EDUCACION_MADRE_DE_DIOS"
   d="m 71.283413,180.8629 -1.791668,-4.18953 3.881934,-2.09503 0.298674,-5.68578 3.881976,-4.18955 0.597186,-3.29193 -3.284729,-1.19696 -1.194433,-3.59102 6.868159,0 4.777768,0.59857 0.895912,-4.18968 4.777806,0 3.583334,1.79552 3.882036,2.69334 11.347322,-1.19705 8.36125,0.2993 10.45147,-2.39409 7.46541,-10.77308 -0.59719,-5.98519 2.68754,-5.3866 5.07639,-6.58371 4.77784,-2.39392 8.95848,-8.37927 2.9862,-3.29173 1.79162,-11.970387 0.89578,-2.992566 7.16681,-5.984941 4.47935,-2.992708 0.29845,70.025942 3.28489,-3.29184 7.16669,0.29933 2.6875,3.59109 5.37502,2.99251 12.24334,-0.89782 5.9722,-2.69327 7.76413,-4.48886 6.56932,-1.79542 6.27096,1.79542 4.18063,1.49635 7.16682,-1.49635 31.65326,49.37733 28.66705,54.76395 -1.19464,2.09465 -2.98611,3.89038 -1.49308,2.39399 2.38892,2.99274 -1.49305,2.394 c 0,0 -2.68749,-3.2918 -3.88212,0.89786 -1.19432,4.18954 -2.68734,6.88276 -2.68734,6.88276 l -2.09042,2.0948 0,8.37924 -50.16729,24.83836 -49.86865,-15.86062 -0.29858,3.59092 -4.77787,-2.99242 -4.47921,-0.89788 -2.68748,-2.39391 -12.2433,-0.29921 -2.9862,-0.89791 -5.6736,0 -6.56949,8.3792 -0.89587,2.99259 -3.88206,-0.5986 -2.3889,-0.59842 -3.58326,-7.48135 0.89571,-8.67838 -0.89571,-2.09491 -5.97244,0.29918 -5.37502,-3.591 -5.97224,-2.39399 -3.88202,-6.88301 -1.79169,-4.1895 -5.07647,-1.49627 -5.97233,3.29175 -0.89583,3.59108 -3.28471,0.2993 -0.29863,-2.09489 -2.388971,-0.29917 -0.298581,-1.7956 -5.3751,-0.59855 -2.6875,-2.99243 -2.090348,0 -0.59723,-4.48894 -3.284725,-5.98513 -4.180591,-1.79549 3.88195,-4.48887 5.972272,-8.9776 -11.645995,-4.48883 1.194524,-5.08736 -0.597224,-4.18969 -6.270969,-1.19703 -5.076439,0 -1.194426,-5.38661 -3.284751,-1.79552 -1.194446,-6.88287 -3.881979,-4.18967 1.791614,-5.08733 3.583367,-1.49628 -1.791629,-3.59102 2.388875,-0.8978 2.090348,-8.07997 0.895809,-0.29929 -0.895809,-4.18956 z"
   style="fill:#ffffff;fill-opacity:1;fill-rule:evenodd;stroke:#808080;stroke-width:0.49999997;stroke-linecap:butt;stroke-linejoin:miter;stroke-miterlimit:4;stroke-dasharray:none;stroke-opacity:1">
  <title
     id="title4135" />
</path>
EDUCACION_MADRE_DE_DIOS</svg>
