<?xml version="1.0" encoding="UTF-8" standalone="no"?>
<!--?xml version="1.0" encoding="UTF-8" standalone="no"?-->

<!--?xml version="1.0" encoding="UTF-8" standalone="no"?-->

<!--
************* Copyright (c) 2015 Pareto Softare, LLC DBA Simplemaps.com *******************		
************* Free for Commercial Use, full terms at  http://simplemaps.com/resources/svg-license ************
************* Attribution is appreciated! http://simplemaps.com ***************************
-->

<svg
   xmlns:dc="http://purl.org/dc/elements/1.1/"
   xmlns:cc="http://creativecommons.org/ns#"
   xmlns:rdf="http://www.w3.org/1999/02/22-rdf-syntax-ns#"
   xmlns:svg="http://www.w3.org/2000/svg"
   xmlns="http://www.w3.org/2000/svg"
   xmlns:sodipodi="http://sodipodi.sourceforge.net/DTD/sodipodi-0.dtd"
   xmlns:inkscape="http://www.inkscape.org/namespaces/inkscape"
   enable_background="new 0 0 1000 1585"
   height="549.01257"
   pretty_print="True"
   style="fill:none;stroke:#000000;stroke-linejoin:round"
   version="1.1"
   viewBox="0 0 354.46857 549.01257"
   width="354.46857"
   id="svg2"
   inkscape:version="0.91 r13725"
   sodipodi:docname="Moquegua.svg"><sodipodi:namedview
   pagecolor="#ffffff"
   bordercolor="#666666"
   borderopacity="0.05098039"
   objecttolerance="10"
   gridtolerance="10"
   guidetolerance="10"
   inkscape:pageopacity="0"
   inkscape:pageshadow="2"
   inkscape:window-width="1920"
   inkscape:window-height="1017"
   id="namedview37"
   showgrid="false"
   inkscape:zoom="1.431634"
   inkscape:cx="-100.89172"
   inkscape:cy="313.81331"
   inkscape:window-x="-8"
   inkscape:window-y="-8"
   inkscape:window-maximized="1"
   inkscape:current-layer="svg2"
   showborder="true"
   fit-margin-top="10"
   fit-margin-left="10"
   fit-margin-right="10"
   fit-margin-bottom="10"
   borderlayer="false"
   inkscape:showpageshadow="false"
   inkscape:snap-to-guides="false"
   inkscape:snap-grids="false"
   showguides="false" />























utf-8<defs
   id="defs4">
  <style
     type="text/css"
     id="style6">path { fill-rule: evenodd; }utf-8utf-8</style>
</defs>























utf-8<metadata
   id="metadata8">
utf-8utf-8<views>
utf-8utf-8utf-8<view
   h="1585.21431143"
   padding="0"
   w="1000">
utf-8utf-8utf-8utf-8<proj
   flip="auto"
   id="robinson"
   lon0="-80.0286400104" />























utf-8utf-8utf-8utf-8<bbox
   h="307.01"
   w="193.79"
   x="-1203.32"
   y="0.49" />























utf-8utf-8utf-8</view>























utf-8utf-8</views>























utf-8<rdf:rdf>
  <cc:work
     rdf:about="">
    <dc:format>image/svg+xml</dc:format>
    <dc:type
       rdf:resource="http://purl.org/dc/dcmitype/StillImage" />
  </cc:work>
</rdf:rdf>
<rdf:rdf>
  <cc:work
     rdf:about="">
    <dc:format>image/svg+xml</dc:format>
    <dc:type
       rdf:resource="http://purl.org/dc/dcmitype/StillImage" />
    <dc:title />
  </cc:work>
</rdf:rdf>
<rdf:RDF>
  <cc:Work
     rdf:about="">
    <dc:format>image/svg+xml</dc:format>
    <dc:type
       rdf:resource="http://purl.org/dc/dcmitype/StillImage" />
    <dc:title />
  </cc:Work>
</rdf:RDF>
</metadata>























utf-8<path
   inkscape:label=""
   inkscape:connector-curvature="0"
   style="fill:#ffffff;fill-opacity:1;stroke:#808080;stroke-width:0.49999976;stroke-miterlimit:4;stroke-dasharray:none;stroke-opacity:1"
   id="EDUCACION_MARISCAL_NIETO"
   d="m 148.61542,356.88593 c -4.89956,-1.74205 -10.69146,-4.8346 -13.09324,-6.9903 -2.32925,-2.09104 -2.47396,-2.3559 -2.47396,-4.52579 l 0,-2.30497 -3.35431,-2.06686 -3.35449,-2.06626 0,-4.91346 0,-4.91309 -2.77936,0 -2.77951,0 -3.71373,-4.31382 -3.71357,-4.31393 -2.36229,1.98848 -2.36245,1.9889 -4.68153,-1.79748 -4.681685,-1.79731 -7.266283,0.32457 c -6.759472,0.30235 -7.283419,0.26491 -7.514039,-0.54267 -0.136309,-0.47641 -0.602596,-2.51172 -1.036654,-4.52256 l -0.788686,-3.65642 -4.2759,-1.95567 c -5.036558,-2.30339 -4.841871,-1.69939 -3.065152,-9.50979 0.230677,-1.01598 0.09468,-1.07608 -2.409027,-1.07608 -2.505103,0 -2.640065,-0.009 -2.408764,-1.07674 1.795844,-7.89543 2.025204,-7.30191 -3.122403,-8.07767 l -4.333154,-0.65342 9.244854,-9.74657 c 5.084667,-5.36053 10.397039,-11.01458 11.805048,-12.56519 l 2.56005,-2.8186 -1.010989,-6.09305 c -0.556732,-3.35101 -1.128129,-6.66487 -1.270834,-7.36423 -0.200627,-0.98066 -0.992863,-1.65456 -3.465639,-2.94689 -1.763447,-0.92167 -4.392171,-2.04743 -5.841867,-2.50187 -2.669095,-0.83703 -3.833364,-1.74952 -3.833364,-3.00385 0,-0.55844 0.63897,-0.64533 3.339236,-0.45184 l 3.339237,0.23925 0.756092,-2.68611 c 0.416338,-1.47756 0.841468,-2.94063 0.946347,-3.2524 0.127699,-0.37887 1.068523,-0.0952 2.828071,0.85964 l 2.637537,1.42628 8.051189,-3.78605 c 10.238089,-4.81358 14.037699,-6.30563 16.063579,-6.30563 1.43902,0 1.68953,-0.20094 2.25193,-1.79365 1.09342,-3.10028 9.80611,-15.27935 15.93422,-22.27309 l 1.59501,-1.82102 3.5109,0.74521 c 5.40687,1.1481 13.23756,1.69165 24.43409,1.69622 l 10.21541,0 5.49293,-3.9224 c 3.23904,-2.31257 5.5811,-4.32515 5.70686,-4.9035 0.12038,-0.53942 0.54538,-3.56493 0.94918,-6.72228 0.40422,-3.1577 0.86053,-6.54896 1.01226,-7.53527 l 0.27618,-1.79429 2.72938,0 c 2.66942,0 2.78321,-0.009 5.12725,-2.51153 4.53467,-4.75114 4.41607,-4.47474 2.41999,-5.65071 -0.95424,-0.5619 -1.72835,-1.16218 -1.72017,-1.33339 0,-0.17189 1.36446,-1.21887 3.01333,-2.32838 l 2.99819,-2.01648 5.68372,0.46171 c 6.1578,0.49984 8.88409,1.07502 10.67815,2.24873 1.05482,0.68976 1.29915,0.68296 2.9131,-0.0843 1.31013,-0.62403 3.79046,-0.94483 9.67394,-1.25103 l 7.91215,-0.41241 2.156,-2.41117 2.1567,-2.41149 3.65713,1.3e-4 3.65684,1.5e-4 4.31932,-4.51063 c 2.37537,-2.48089 5.02452,-5.38699 5.8875,-6.45861 1.77719,-2.2084 2.36227,-2.42313 2.37279,-0.87126 0,0.59158 0.16562,1.30689 0.35988,1.58771 0.19222,0.28225 2.86191,1.71102 5.93007,3.17592 6.67845,3.18969 10.64428,5.79417 14.66791,9.6335 l 2.99505,2.85772 0,4.17306 0,4.174 7.87151,4.6013 c 4.32892,2.53074 8.1568,4.59813 8.50554,4.59426 0.34905,0 2.24371,-0.88219 4.21069,-1.95236 3.77621,-2.05518 4.4268,-2.11565 7.74431,-0.72118 l 1.73666,0.72986 -1.00105,4.10467 -1.00093,4.10491 1.27629,1.05684 1.27622,1.0564 -8.36151,8.95832 -8.36131,8.9583 0,6.14756 0,6.14808 -2.21482,2.83473 c -1.21784,1.55882 -2.41497,2.77683 -2.65988,2.70643 -0.24459,-0.0682 -1.85518,-1.01644 -3.57744,-2.10257 l -3.13159,-1.97469 -4.69005,4.6649 -4.68964,4.66477 -1.27255,-0.83256 -1.27198,-0.83185 0.13476,-5.96888 0.13276,-5.96903 5.87037,-2.43088 5.86989,-2.43165 0,-3.44399 0,-3.44434 -2.03668,-0.83982 c -1.12001,-0.46102 -3.77245,-0.9399 -5.8946,-1.06326 l -3.85796,-0.22434 -0.9498,-2.45698 -0.94964,-2.45647 -5.56341,-0.13713 -5.56314,-0.13476 -5.07712,2.37285 c -2.79266,1.30553 -6.96638,3.6005 -9.27603,5.10019 -5.31531,3.45297 -11.62674,8.73816 -11.62339,9.73484 0.001,0.41925 -0.34418,7.01992 -0.76974,14.66858 l -0.77279,13.90574 1.48805,2.94275 1.48765,2.94242 -1.48363,1.68702 c -0.85991,0.97766 -2.4443,2.02779 -3.76853,2.49726 l -2.28507,0.81011 -4.01719,8.10298 c -3.88237,7.8312 -4.08615,8.13284 -6.07713,8.9933 -3.49914,1.5118 -7.6262,2.37227 -12.71058,2.64973 -4.20347,0.22922 -5.29306,0.47303 -7.89435,1.77198 -2.89226,1.44331 -3.11471,1.68509 -5.34118,5.81205 -1.27762,2.36789 -2.8955,5.91996 -3.59503,7.89319 -0.69991,1.97346 -2.46308,5.47093 -3.91791,7.77198 l -2.64569,4.18283 0.46464,5.86364 0.4648,5.86334 -10.94808,11.00342 -10.94845,11.0035 -3.37899,7.30208 c -1.85825,4.0158 -3.37885,7.94483 -3.37885,8.73097 0,1.64357 0.009,1.63491 -3.12121,0.50608 l 0,0 z" />
<path
   inkscape:label=""
   inkscape:connector-curvature="0"
   style="fill:#ffffff;fill-opacity:1;stroke:#808080;stroke-width:0.49999976;stroke-miterlimit:4;stroke-dasharray:none;stroke-opacity:1"
   id="EDUCACION_ILO"
   d="m 107.84196,388.15642 c -0.65353,-0.98698 -1.5345,-2.46327 -1.9575,-3.28133 -0.64026,-1.23677 -3.35257,-2.87834 -16.127768,-9.75913 l -15.358476,-8.27223 1.705234,-3.04395 1.705064,-3.0438 -2.452762,-13.50975 c -1.348839,-7.43051 -3.198282,-17.3656 -4.109887,-22.07893 l -1.657514,-8.56881 -3.463753,-3.65511 c -3.282922,-3.46435 -4.496166,-5.25749 -5.595467,-8.27041 -0.436428,-1.19464 -0.699476,-1.31586 -2.859456,-1.31586 -1.308946,0 -2.516432,-0.22212 -2.683363,-0.49051 -0.52185,-0.84416 -0.850562,-5.55421 -0.51182,-7.35574 0.320033,-1.70127 0.351264,-1.72118 2.698076,-1.72118 1.790921,0 2.374171,0.17749 2.374171,0.71728 0,0.55002 0.608721,0.71732 2.603119,0.71732 2.074702,0 2.648704,0.17088 2.826728,0.83734 0.122894,0.46063 0.610541,2.39809 1.083003,4.30557 0.850996,3.43367 0.875727,3.4687 2.444369,3.4687 l 1.585074,0 0,2.86931 0,2.8692 5.261021,6.57993 5.261196,6.57904 0.005,2.75105 c 0,1.51283 0.123612,2.75068 0.265421,2.75068 0.140121,0 0.733942,-0.3029 1.3178,-0.67042 1.566587,-0.98894 5.639227,-1.71806 11.449698,-2.04994 l 5.149857,-0.29368 2.118285,1.73274 2.11747,1.73241 4.52716,-0.85532 4.52704,-0.85575 0.79226,2.22702 c 0.76002,2.13596 0.89639,2.24986 3.35432,2.79902 1.40912,0.31422 3.35356,0.79091 4.32072,1.05764 l 1.75834,0.48487 0,4.24966 0,4.2495 3.35459,1.80888 3.35438,1.80873 0,2.24377 c 0,2.10751 0.1561,2.38788 2.62694,4.64021 5.49705,5.01576 11.96907,8.22416 16.59113,8.22416 l 1.86641,0 0,2.39194 c 0,1.59637 -0.19897,2.39086 -0.59962,2.38924 -0.32905,0 -3.06992,-0.42842 -6.09048,-0.94762 l -5.4913,-0.94365 -2.18647,1.84068 c -2.56162,2.15625 -6.101,4.03123 -9.12086,4.83101 -4.2611,1.12935 -8.04219,3.28707 -9.81035,5.59906 -0.92539,1.20969 -1.68689,2.54529 -1.69231,2.96779 -0.006,2.70371 -4.14745,11.05463 -5.4431,11.05463 -0.35627,0 -1.18382,-0.80755 -1.83726,-1.79379 l 0,0 z" />
<path
   inkscape:label=""
   inkscape:connector-curvature="0"
   style="fill:#ffffff;fill-opacity:1;stroke:#808080;stroke-width:0.49999976;stroke-miterlimit:4;stroke-dasharray:none;stroke-opacity:1"
   id="EDUCACION_SANCHEZ_CERRO"
   d="m 67.518648,234.47663 -0.782174,-2.68619 -2.413022,0.31969 c -1.327294,0.17373 -3.083795,0.4232 -3.903448,0.54996 -1.178091,0.18204 -0.952126,-0.004 1.078303,-0.97832 1.729484,-0.81417 2.484551,-1.42687 2.311793,-1.87652 -0.140486,-0.36786 -0.728939,-3.43691 -1.306487,-6.82122 -1.219177,-7.14618 -1.085059,-14.97675 0.36597,-21.41068 l 0.851624,-3.77538 3.191128,-0.94776 3.191232,-0.94724 4.13291,2.68967 c 2.273323,1.4791 4.275613,2.68929 4.449971,2.68929 0.173402,0 2.197677,-1.23573 4.496365,-2.74623 l 4.179977,-2.74638 0.158192,-7.65887 0.15869,-7.65968 3.642129,-7.67732 3.642205,-7.67749 0.351669,-7.39233 c 0.193031,-4.06617 0.412528,-7.45278 0.485143,-7.52607 0.07223,-0.0705 6.504552,-0.26958 14.292572,-0.43628 l 14.15984,-0.30202 2.76647,2.46178 c 1.52168,1.35399 3.60862,2.8778 4.6378,3.38604 1.75346,0.86595 2.02662,0.87852 4.33507,0.19315 1.355,-0.40164 3.95073,-1.39426 5.76826,-2.20553 l 3.30416,-1.47501 -0.30746,-3.85576 c -0.81653,-10.21186 -2.47018,-20.60195 -3.95289,-24.83594 -0.49926,-1.42574 -0.51017,-1.7924 -0.008,-1.61644 0.32695,0.12398 1.84111,0.61883 3.36419,1.09848 l 2.76839,0.87035 2.75599,-2.72296 c 2.72226,-2.68932 2.79097,-2.72288 5.61744,-2.74691 l 2.86115,-0.004 3.20463,-4.47911 3.20447,-4.47906 -2.62,-12.599759 c -1.44106,-6.930099 -2.72415,-12.941138 -2.85179,-13.357338 -0.1574,-0.509399 0.8884,-1.641592 3.20069,-3.468414 1.88824,-1.4914 3.67037,-2.711577 3.96018,-2.711577 0.29041,3.16e-4 1.65917,0.429219 3.04297,0.954992 1.3839,0.524626 2.51469,0.901561 2.51342,0.837077 -10e-4,-0.06797 -0.54051,-2.907415 -1.19829,-6.317024 -0.65727,-3.409561 -1.19534,-6.275257 -1.19534,-6.36899 0,-0.09525 1.35597,0.978413 3.01283,2.382072 l 3.01263,2.551882 6.23521,1.121451 6.23495,1.12263 2.85177,-1.436434 c 3.9966,-2.011347 10.93554,-4.254576 16.05699,-5.190278 l 4.34303,-0.793077 1.52852,1.394339 c 0.84073,0.767121 2.93048,2.694895 4.6434,4.284223 l 3.11443,2.889744 5.60878,1.130608 5.60859,1.130837 3.44022,3.457472 3.44043,3.458272 -0.8769,2.433706 -0.87635,2.433739 1.65099,3.465297 c 0.90843,1.906361 2.44824,4.255426 3.42168,5.220577 1.19051,1.179083 2.02619,2.631633 2.54998,4.430443 l 0.77937,2.67601 3.49976,0 3.49998,0 -1.84381,3.46849 -1.84439,3.46811 -0.003,7.9298 -0.004,7.93024 -2.62522,1.87742 c -1.44345,1.03318 -2.62428,2.09315 -2.62344,2.35611 9e-4,0.2636 0.4941,2.41624 1.0958,4.7842 l 1.09456,4.30588 3.54813,0.24024 3.54846,0.23929 0.59659,2.8706 c 0.76677,3.69631 0.77163,3.58795 -0.1569,3.58795 -0.43729,0 -3.12819,2.39925 -5.9807,5.3309 l -5.18722,5.33117 -4.48533,0.47641 -4.48522,0.47638 -1.262,2.08613 -1.26219,2.08592 -18.94925,0 -18.94914,0 -2.98366,1.21041 c -3.47206,1.40887 -6.58122,3.3561 -6.58122,4.12216 0,0.29365 0.7672,1.25766 1.70525,2.14085 l 1.70555,1.60577 -1.76167,2.1038 -1.76114,2.10422 -1.39726,-0.78333 c -1.35267,-0.75777 -1.42775,-0.74458 -2.37094,0.41234 -0.53497,0.65744 -1.30039,1.93001 -1.69997,2.82764 -0.76715,1.72271 -3.03522,11.98732 -3.04163,13.76534 0,0.77458 -1.27696,1.96031 -4.92861,4.58639 l -4.92483,3.54106 -7.17504,0.32233 c -9.87895,0.44416 -23.31713,-0.37114 -30.96198,-1.8827 -1.11238,-0.21909 -1.63352,0.19812 -4.31281,3.47125 -6.37812,7.78825 -12.50895,16.30794 -13.97181,19.41514 l -1.52027,3.22918 -3.36743,0 c -3.03266,0 -3.414667,0.10641 -3.840715,1.07677 -1.203408,2.73851 -14.145496,6.57065 -22.210956,6.57599 l -2.570216,0 0.322627,2.15352 0.322994,2.15241 -3.370307,0 -3.370346,0 -0.782132,-2.6862 0,0 z" />
</svg>
