<?xml version="1.0" encoding="UTF-8" standalone="no"?>
<!--?xml version="1.0" encoding="UTF-8" standalone="no"?-->

<!--?xml version="1.0" encoding="UTF-8" standalone="no"?-->

<!--
************* Copyright (c) 2015 Pareto Softare, LLC DBA Simplemaps.com *******************		
************* Free for Commercial Use, full terms at  http://simplemaps.com/resources/svg-license ************
************* Attribution is appreciated! http://simplemaps.com ***************************
-->

<svg
   xmlns:dc="http://purl.org/dc/elements/1.1/"
   xmlns:cc="http://creativecommons.org/ns#"
   xmlns:rdf="http://www.w3.org/1999/02/22-rdf-syntax-ns#"
   xmlns:svg="http://www.w3.org/2000/svg"
   xmlns="http://www.w3.org/2000/svg"
   xmlns:sodipodi="http://sodipodi.sourceforge.net/DTD/sodipodi-0.dtd"
   xmlns:inkscape="http://www.inkscape.org/namespaces/inkscape"
   enable_background="new 0 0 1000 1585"
   height="549.01257"
   pretty_print="True"
   style="fill:none;stroke:#000000;stroke-linejoin:round"
   version="1.1"
   viewBox="0 0 354.46857 549.01257"
   width="354.46857"
   id="svg2"
   inkscape:version="0.91 r13725"
   sodipodi:docname="Pasco.svg"><sodipodi:namedview
   pagecolor="#ffffff"
   bordercolor="#666666"
   borderopacity="0.05098039"
   objecttolerance="10"
   gridtolerance="10"
   guidetolerance="10"
   inkscape:pageopacity="0"
   inkscape:pageshadow="2"
   inkscape:window-width="1920"
   inkscape:window-height="1017"
   id="namedview37"
   showgrid="false"
   inkscape:zoom="1.431634"
   inkscape:cx="-198.71504"
   inkscape:cy="272.89598"
   inkscape:window-x="-8"
   inkscape:window-y="-8"
   inkscape:window-maximized="1"
   inkscape:current-layer="svg2"
   showborder="true"
   fit-margin-top="10"
   fit-margin-left="10"
   fit-margin-right="10"
   fit-margin-bottom="10"
   borderlayer="false"
   inkscape:showpageshadow="false"
   inkscape:snap-to-guides="false"
   inkscape:snap-grids="false"
   showguides="false" />
























utf-8<defs
   id="defs4">
  <style
     type="text/css"
     id="style6">path { fill-rule: evenodd; }utf-8utf-8</style>
</defs>
























utf-8<metadata
   id="metadata8">
utf-8utf-8<views>
utf-8utf-8utf-8<view
   h="1585.21431143"
   padding="0"
   w="1000">
utf-8utf-8utf-8utf-8<proj
   flip="auto"
   id="robinson"
   lon0="-80.0286400104" />
























utf-8utf-8utf-8utf-8<bbox
   h="307.01"
   w="193.79"
   x="-1203.32"
   y="0.49" />
























utf-8utf-8utf-8</view>
























utf-8utf-8</views>
























utf-8<rdf:rdf>
  <cc:work
     rdf:about="">
    <dc:format>image/svg+xml</dc:format>
    <dc:type
       rdf:resource="http://purl.org/dc/dcmitype/StillImage" />
  </cc:work>
</rdf:rdf>
<rdf:rdf>
  <cc:work
     rdf:about="">
    <dc:format>image/svg+xml</dc:format>
    <dc:type
       rdf:resource="http://purl.org/dc/dcmitype/StillImage" />
    <dc:title />
  </cc:work>
</rdf:rdf>
<rdf:RDF>
  <cc:Work
     rdf:about="">
    <dc:format>image/svg+xml</dc:format>
    <dc:type
       rdf:resource="http://purl.org/dc/dcmitype/StillImage" />
    <dc:title />
  </cc:Work>
</rdf:RDF>
</metadata>
























utf-8<path
   inkscape:label=""
   inkscape:connector-curvature="0"
   id="EDUCACION_OXAPAMPA"
   d="m 119.56151,285.73744 6.98219,-9.04619 -0.36841,-4.98428 5.32843,-4.61517 5.87959,-6.09229 0,-3.50749 8.63587,-1.66158 6.06329,-2.95363 0.18355,-4.06131 1.28621,-7.5692 2.20491,-7.0151 2.57238,-2.95379 7.16573,-2.39978 -0.36795,-6.83042 3.12359,1.29236 7.5332,2.39978 2.93985,-0.55375 3.12364,-4.61525 2.38854,-1.66156 2.38858,-0.18415 0.91873,-4.61512 4.96082,-2.76925 7.16591,0 2.75615,0 3.30722,0 6.61463,4.43061 4.5934,4.61536 3.12355,8.30732 0.73491,11.07626 6.79842,9.23043 3.6748,1.66151 0.73491,12.36898 4.04224,8.12271 3.8586,11.63041 2.02103,4.7998 -2.38854,3.87689 -0.18339,6.09205 -5.8797,6.27648 -3.12342,2.76941 -2.93997,-1.66165 -7.16577,8.49212 -10.28941,-2.76932 -5.14458,5.72308 -0.18357,6.2766 -8.63584,6.83044 -4.04212,-3.32287 -11.39191,5.72289 -2.93984,-5.35357 4.04227,-2.95367 0.18392,-6.46151 -12.86175,-3.50753 -2.75611,-1.10765 0.55116,-3.50759 -1.28615,-1.84598 -2.57238,-4.06143 c 0,0 -0.55113,-2.21541 -1.28613,-2.39992 -0.73496,-0.18564 -2.93983,1.66166 -2.93983,1.66166 l -2.57228,-3.13854 -2.38862,0.18376 -2.57237,0.55407 -5.69591,-2.03096 -1.46982,-1.84609 -2.57232,0.55406 -3.49109,-3.69246 -1.28618,-0.92289 -3.49099,1.84596 -1.6537,-4.24609 -0.73491,-1.47657 -4.40977,1.47657 -1.46993,-3.32258 -1.10242,-1.47691 z"
   style="fill:#ffffff;fill-opacity:1;fill-rule:evenodd;stroke:#808080;stroke-width:0.50000012;stroke-linecap:butt;stroke-linejoin:miter;stroke-miterlimit:4;stroke-dasharray:none;stroke-opacity:1" />
<path
   inkscape:label=""
   inkscape:connector-curvature="0"
   id="EDUCACION_PASCO"
   d="m 234.88188,305.37415 7.87802,-6.59633 0.43795,-8.35511 1.75056,-3.95749 -3.93895,-7.47563 -2.62601,-11.43336 -3.50141,-7.03571 -0.43792,-7.91545 0,-3.07834 -5.25206,-3.07814 -4.81424,-7.91532 -1.31303,-9.23446 -0.87533,-7.03591 -4.37661,-6.59615 -5.25207,-2.19863 -5.68973,-4.39747 -1.31304,-6.59616 7.00277,5.71672 7.44035,2.19851 3.93911,1.75904 8.31564,-3.07811 3.50137,1.31907 5.68965,-3.51789 5.68972,-7.91535 7.44039,0.43957 6.12738,-2.19865 3.06363,-8.79483 3.50145,-7.91536 3.93898,-4.3974 -1.75061,-6.15631 2.62603,-5.71678 1.7506,-2.6383 7.00269,3.51785 4.37673,3.07822 1.31301,9.23449 5.25201,3.07823 4.3767,4.83715 1.31298,11.43333 2.18847,1.31928 0.87531,10.11405 4.8144,8.35506 0.87524,17.14978 7.44049,8.35538 10.50403,13.63169 0.87529,4.3975 -3.50132,3.95784 -1.75071,7.91535 -0.87537,7.9152 8.31565,0.44014 c 0,0 3.5015,0.43954 3.93919,5.27663 0.43777,4.83704 3.06359,10.11397 3.06359,10.11397 l 2.6261,3.95789 -0.87529,3.51812 -7.87819,-1.31972 -6.56497,4.39759 -4.81438,1.3193 -7.87803,11.87313 -0.43791,3.07814 -14.00543,2.63841 0.87539,6.5962 -4.37675,-0.87966 -5.68957,2.19897 -4.81447,-4.39766 -4.81433,0.87955 -7.00271,-5.27684 -7.87806,-0.87947 -6.56513,-12.31285 -3.06371,-0.87948 -0.43784,7.03603 -3.50129,-3.07817 -5.68986,-0.44 -3.0635,-8.79492 z"
   style="fill:#ffffff;fill-opacity:1;fill-rule:evenodd;stroke:#808080;stroke-width:0.50000012;stroke-linecap:butt;stroke-linejoin:miter;stroke-miterlimit:4;stroke-dasharray:none;stroke-opacity:1" />
<path
   inkscape:label=""
   inkscape:connector-curvature="0"
   style="fill:#ffffff;fill-opacity:1;stroke:#808080;stroke-width:0.50000012;stroke-miterlimit:4;stroke-dasharray:none;stroke-opacity:1"
   id="EDUCACION_DANIEL_A_CARRION"
   d="m 51.85883,313.67769 c -0.250118,-0.65932 -0.4567,-1.4426 -0.460593,-1.74009 -0.0096,-1.46923 -0.701811,-1.71295 -2.752016,-0.98247 -1.866041,0.6648 -2.0463,0.66007 -2.467428,-0.0641 -1.120687,-1.9209 -3.227985,-3.9264 -5.922741,-5.63638 -1.604834,-1.01806 -3.076077,-1.85236 -3.269708,-1.85328 -0.192933,-10e-4 -1.134454,-1.53338 -2.090729,-3.40508 -0.971699,-1.90174 -2.120282,-3.52487 -2.603351,-3.67886 -0.918698,-0.2929 -1.18833,-1.07603 -2.638235,-7.66332 l -0.884598,-4.01813 1.887285,-1.19134 c 1.037928,-0.65521 3.00175,-2.18641 4.36399,-3.40236 2.182721,-1.94881 2.72002,-2.2111 4.525797,-2.2111 1.716056,0 2.310444,-0.25301 3.658757,-1.5627 1.48364,-1.44028 1.948477,-1.60314 5.927521,-2.08056 7.804743,-0.93576 7.383075,-0.71612 8.280689,-4.31078 0.429922,-1.7213 0.845799,-3.19421 0.924189,-3.27343 0.202235,-0.20333 14.120721,-2.93316 14.257161,-2.79628 0.0623,0.0641 0.698313,3.19191 1.413815,6.95455 1.277253,6.71751 1.323057,6.8435 2.528901,6.98537 0.921677,0.10664 1.228169,0.39713 1.228169,1.15591 0,0.62949 1.020145,2.0259 2.701008,3.69703 2.499981,2.48551 2.653157,2.75421 2.05826,3.60786 -0.582625,0.83556 -0.499213,1.09831 0.890423,2.80215 l 1.533361,1.8801 -1.287075,0.57232 c -0.735829,0.32735 -2.225599,1.95575 -3.477884,3.80176 -1.742487,2.56818 -2.220577,3.03047 -2.336043,2.25928 -0.173897,-1.16003 -0.0061,-1.14795 -3.12131,-0.24088 -1.986155,0.5801 -2.684322,1.04753 -3.410045,2.28345 -0.715516,1.21812 -1.206765,1.55353 -2.276329,1.55353 -0.961894,0 -1.84986,0.48819 -3.012104,1.65564 -1.633655,1.64141 -1.673984,1.65349 -4.643873,1.40375 l -2.995975,-0.25123 -0.869719,2.57037 c -0.857851,2.53582 -3.730859,7.46067 -4.705224,8.06582 -0.289361,0.18036 -0.691843,-0.19534 -0.954346,-0.88785 l 0,0 z" />
<path
   inkscape:label="UGEL PASCO"
   inkscape:connector-curvature="0"
   style="fill:#ffffff;fill-opacity:1;stroke:#808080;stroke-width:0.50000012;stroke-miterlimit:4;stroke-dasharray:none;stroke-opacity:1"
   id="UGEL_PASCO"
   d="m 82.753333,364.02382 c -2.059087,-1.50249 -3.971505,-3.83037 -4.451042,-5.41775 -0.3359,-1.11257 -0.426071,-1.13674 -7.980748,-2.15964 -4.35904,-0.59031 -5.114065,-0.57587 -8.72266,0.16999 l -3.950664,0.81592 -4.383871,-4.73669 -4.383752,-4.73679 0.535801,-3.0749 c 0.514082,-2.95075 0.460633,-3.39093 -1.323536,-10.88482 -1.022634,-4.29517 -1.859217,-7.94253 -1.859217,-8.10532 0,-0.16266 -0.818154,-0.296 -1.817997,-0.296 l -1.817984,0 0,-2.97853 c 0,-2.56483 -0.251849,-3.48227 -1.817985,-6.6111 -1.464201,-2.92617 -1.817982,-4.12291 -1.817982,-6.1519 l 0,-2.51905 2.882249,2.08299 c 1.585294,1.14584 3.374784,2.88586 3.976775,3.86675 1.042652,1.69875 1.206327,1.7839 3.450025,1.79577 1.975417,0.004 2.40349,0.1647 2.653421,0.95558 0.163417,0.51876 0.922311,1.65761 1.685219,2.53066 l 1.387444,1.58748 0.964069,-0.90987 c 0.530224,-0.50058 2.079039,-3.18051 3.441825,-5.95564 l 2.477774,-5.04545 2.537623,0 c 2.361674,0 2.660667,-0.12657 4.312733,-1.82673 1.516657,-1.56076 2.054398,-1.82655 3.692983,-1.82655 1.800308,0 1.950913,-0.10071 2.460006,-1.65136 0.525624,-1.60023 0.597157,-1.64237 2.307719,-1.36999 5.937991,0.94645 5.401265,0.98462 5.401265,-0.38308 0,-0.89557 0.759383,-2.03578 2.726898,-4.09424 3.036587,-3.17764 3.121128,-3.51967 2.07702,-8.41098 -0.576413,-2.70061 -0.827432,-3.09048 -3.733572,-5.80044 l -3.115644,-2.90539 1.477118,-0.005 c 1.466692,-0.005 1.477188,-0.009 1.477188,-2.3043 l 0,-2.28315 2.253056,1.25539 c 1.9647,1.09518 2.376509,1.17937 3.217022,0.659 0.632651,-0.39224 1.146981,-0.44568 1.496466,-0.15681 0.292366,0.24285 3.191182,1.61675 6.44088,3.05385 3.249592,1.43757 6.856102,3.30573 8.014442,4.15182 1.83226,1.33868 2.45858,1.53874 4.81676,1.53874 l 2.71076,0 0.8198,1.82659 c 0.87982,1.96057 1.14588,2.09793 2.57568,1.32893 0.76545,-0.41149 1.13758,-0.29293 2.15385,0.68507 1.58296,1.52374 1.93811,1.4902 2.9801,-0.2821 l 0.86133,-1.46493 0.67173,2.42633 c 0.74076,2.67505 0.4474,2.57948 4.95301,1.61885 1.59919,-0.34025 1.55424,-0.3949 2.37511,2.83167 l 0.48145,1.89259 2.15432,-0.57696 2.15431,-0.57673 2.39311,2.32874 c 2.05019,1.99558 2.51309,2.25365 3.23116,1.80305 0.69547,-0.43639 1.58141,-0.14059 5.20889,1.73866 4.32643,2.24137 4.38512,2.25684 5.80032,1.52149 l 1.42958,-0.74294 2.0038,1.97598 c 1.96037,1.93321 2.03029,1.96051 3.23959,1.26736 l 1.23601,-0.70798 1.36353,2.54005 c 0.74993,1.39727 1.82357,2.74325 2.38612,2.99114 0.98388,0.43331 1.02254,0.67181 1.02254,6.29789 l 0,5.84755 -1.47709,1.99009 -1.4771,1.99054 -4.09039,0.38745 c -3.56299,0.33786 -4.12944,0.29264 -4.39275,-0.34565 -0.32113,-0.78 -3.48056,-2.23427 -4.85428,-2.23427 -0.45113,0 -1.30095,0.51396 -1.888,1.14178 -0.93322,0.99791 -1.45129,1.1416 -4.12257,1.1416 -2.95054,0 -3.10535,0.0569 -4.52246,1.67951 -0.80715,0.92324 -1.77453,2.41299 -2.14989,3.31024 -0.6489,1.55107 -0.70163,1.58074 -1.06479,0.60414 -0.35607,-0.95858 -0.6504,-1.02753 -4.38207,-1.02753 -3.77749,0 -4.03795,0.0639 -4.6878,1.13944 l -0.68823,1.1395 -3.84834,-4.27318 -3.84837,-4.27355 -5.63072,5.30285 c -3.09688,2.91692 -6.67594,6.44803 -7.95352,7.84732 -2.31762,2.53882 -2.33183,2.54584 -6.138645,3.11628 -4.271545,0.64002 -4.341608,0.60708 -4.824337,-2.2636 l -0.276985,-1.6443 -3.722525,0.16966 c -6.94025,0.31711 -6.552692,0.0897 -6.921368,4.04251 -0.298084,3.19639 -0.209527,3.7387 1.32737,8.09195 1.707639,4.83788 2.720821,10.56446 2.470499,13.9625 l -0.143729,1.96423 -1.884708,-1.37528 z" />
</svg>
