<?xml version="1.0" encoding="UTF-8" standalone="no"?>
<!--?xml version="1.0" encoding="UTF-8" standalone="no"?-->

<!--?xml version="1.0" encoding="UTF-8" standalone="no"?-->

<!--
************* Copyright (c) 2015 Pareto Softare, LLC DBA Simplemaps.com *******************		
************* Free for Commercial Use, full terms at  http://simplemaps.com/resources/svg-license ************
************* Attribution is appreciated! http://simplemaps.com ***************************
-->

<svg
   xmlns:dc="http://purl.org/dc/elements/1.1/"
   xmlns:cc="http://creativecommons.org/ns#"
   xmlns:rdf="http://www.w3.org/1999/02/22-rdf-syntax-ns#"
   xmlns:svg="http://www.w3.org/2000/svg"
   xmlns="http://www.w3.org/2000/svg"
   xmlns:sodipodi="http://sodipodi.sourceforge.net/DTD/sodipodi-0.dtd"
   xmlns:inkscape="http://www.inkscape.org/namespaces/inkscape"
   enable_background="new 0 0 1000 1585"
   height="549.01257"
   pretty_print="True"
   style="fill:none;stroke:#000000;stroke-linejoin:round"
   version="1.1"
   viewBox="0 0 354.46857 549.01257"
   width="354.46857"
   id="svg2"
   inkscape:version="0.91 r13725"
   sodipodi:docname="Piura.svg"><sodipodi:namedview
   pagecolor="#ffffff"
   bordercolor="#666666"
   borderopacity="0.05098039"
   objecttolerance="10"
   gridtolerance="10"
   guidetolerance="10"
   inkscape:pageopacity="0"
   inkscape:pageshadow="2"
   inkscape:window-width="1920"
   inkscape:window-height="1017"
   id="namedview37"
   showgrid="false"
   inkscape:zoom="1.431634"
   inkscape:cx="-100.89172"
   inkscape:cy="328.77618"
   inkscape:window-x="-8"
   inkscape:window-y="-8"
   inkscape:window-maximized="1"
   inkscape:current-layer="svg2"
   showborder="true"
   fit-margin-top="10"
   fit-margin-left="10"
   fit-margin-right="10"
   fit-margin-bottom="10"
   borderlayer="false"
   inkscape:showpageshadow="false"
   inkscape:snap-to-guides="false"
   inkscape:snap-grids="false"
   showguides="false" />























utf-8<defs
   id="defs4">
  <style
     type="text/css"
     id="style6">path { fill-rule: evenodd; }utf-8utf-8</style>
</defs>























utf-8<metadata
   id="metadata8">
utf-8utf-8<views>
utf-8utf-8utf-8<view
   h="1585.21431143"
   padding="0"
   w="1000">
utf-8utf-8utf-8utf-8<proj
   flip="auto"
   id="robinson"
   lon0="-80.0286400104" />























utf-8utf-8utf-8utf-8<bbox
   h="307.01"
   w="193.79"
   x="-1203.32"
   y="0.49" />























utf-8utf-8utf-8</view>























utf-8utf-8</views>























utf-8<rdf:rdf>
  <cc:work
     rdf:about="">
    <dc:format>image/svg+xml</dc:format>
    <dc:type
       rdf:resource="http://purl.org/dc/dcmitype/StillImage" />
  </cc:work>
</rdf:rdf>
<rdf:rdf>
  <cc:work
     rdf:about="">
    <dc:format>image/svg+xml</dc:format>
    <dc:type
       rdf:resource="http://purl.org/dc/dcmitype/StillImage" />
    <dc:title />
  </cc:work>
</rdf:rdf>
<rdf:RDF>
  <cc:Work
     rdf:about="">
    <dc:format>image/svg+xml</dc:format>
    <dc:type
       rdf:resource="http://purl.org/dc/dcmitype/StillImage" />
    <dc:title />
  </cc:Work>
</rdf:RDF>
</metadata>























utf-8<path
   style="fill:#ffffff;fill-opacity:1;fill-rule:evenodd;stroke:#808080;stroke-width:0.49999994;stroke-linecap:butt;stroke-linejoin:miter;stroke-miterlimit:4;stroke-dasharray:none;stroke-opacity:1"
   d="m 240.26104,302.23209 3.61551,-5.18183 2.71164,0.45075 3.84155,-4.73123 1.58175,-4.28077 0.90393,-1.12632 5.42328,7.20945 1.80776,0.45074 2.71168,-3.1542 0.22595,-5.63235 -0.67797,-2.02777 -9.03881,-2.92876 -4.74528,-2.47836 1.58187,-2.47831 2.93755,-1.80231 7.00504,1.35179 13.78414,7.43483 5.87519,1.57712 9.2648,0.22521 11.52444,-1.57703 3.38955,1.12645 1.35586,6.08307 -12.65431,-0.22522 -2.93755,1.12643 3.84144,9.913 -3.84144,15.99621 7.23094,14.86965 -7.23094,10.81418 -6.10126,-1.80237 -4.06742,-3.60473 -5.6493,-0.67581 -3.84152,3.37946 -4.97132,-1.35186 -2.71167,-9.01188 -0.45201,-5.18188 -5.87527,2.70346 -7.00497,1.12665 2.71167,-12.16609 -4.29352,-4.95655 0.45209,-3.83003 -2.48566,-2.253 -4.29337,0.90125 z"
   id="EDUCACION_UGEL_HUARMACA"
   inkscape:connector-curvature="0"
   inkscape:label="" />
<path
   style="fill:#ffffff;fill-opacity:1;fill-rule:evenodd;stroke:#808080;stroke-width:0.69999999;stroke-linecap:butt;stroke-linejoin:miter;stroke-miterlimit:4;stroke-dasharray:none;stroke-opacity:1"
   d="m 254.3387,272.52059 2.93753,-4.50599 -2.25974,-8.33595 -3.84136,-5.85782 0.67789,-4.28058 0.22609,-1.80238 -1.58165,-0.90122 0.45204,-4.0554 1.35588,-3.37938 1.35587,1.57698 1.8076,5.40724 1.58187,-1.80239 1.58187,-2.25307 1.58166,-3.60468 3.16356,-0.22547 -0.22612,-3.83011 1.58178,-1.12653 6.32717,2.70359 2.71161,1.57706 3.16366,-2.25295 0.67788,-6.30829 4.06743,-11.94071 3.84152,-1.80242 2.25972,-6.75895 1.80768,-1.80234 2.93761,5.18175 4.06753,0.9012 5.42322,7.66017 5.64933,2.02761 -2.48573,5.85776 -3.1636,2.92888 -2.93758,6.53356 -5.19727,2.47836 -3.16357,6.7589 -2.48582,1.12642 2.48582,3.1543 2.03363,4.95645 -1.80772,4.05535 3.16357,5.85773 2.71161,4.95651 1.3558,6.30835 1.12993,4.28065 -5.42325,-2.02761 -8.36091,1.80228 -5.6493,-0.67588 -4.97125,0 -2.93765,-1.80234 -4.51937,-1.80242 -3.61554,-1.12646 -3.61551,-2.70359 -4.51942,-1.12643 z"
   id="UGEL_HUANCABAMBA"
   inkscape:connector-curvature="0"
   inkscape:label="" />
<path
   inkscape:label=""
   inkscape:connector-curvature="0"
   id="EDUCACION_UGEL_MORROPON"
   d="m 201.55716,246.42703 3.12403,-3.1169 0.75398,-2.68705 1.40036,-0.96735 3.12405,-1.71969 1.61589,-1.8273 1.72363,-1.82718 1.61579,-1.82722 0.75398,-2.04214 2.26233,-0.32171 3.01632,-1.39735 1.72354,-0.64483 1.40048,-0.75242 0,-1.50472 -0.32296,-0.96731 3.01617,-1.07483 1.07724,0 0.43123,-2.04225 0,-1.50466 0.9695,0.32199 1.07733,2.79446 0.75398,1.61229 3.01628,0.64493 2.04679,-0.32207 1.50817,0.10829 1.50815,2.04209 1.07717,1.71973 0.75408,0.32207 1.07724,-0.75231 1.07732,-0.32202 0.21555,1.39727 -0.32335,1.93468 2.15456,1.28977 3.98582,2.68715 1.40046,0.85976 2.15433,1.50472 1.61595,1.39726 -0.53863,2.04224 -1.29267,1.39726 -0.86183,1.07492 -0.32356,-0.96748 -0.64642,-2.04207 -0.64645,-1.71971 -0.64632,-0.75257 -2.26203,0.43006 -1.07735,1.61217 c 0,0 -0.43113,1.28977 -0.43113,2.14971 0,0.85991 -0.86177,3.33192 -0.86177,3.33192 l 0.53857,2.57954 1.40039,0.645 -0.21575,3.8694 0.32297,2.57941 1.0773,1.39736 1.72352,3.65441 1.5082,2.25705 0.96947,2.14966 0.43115,2.68717 -1.07724,1.28986 -1.72352,2.14951 -1.40049,1.07489 -1.2926,0.32201 -1.72361,-0.85981 -1.72366,-0.53738 -2.04671,1.28979 -1.50814,2.47204 -1.61584,0.96741 0.75408,1.3971 1.40053,0.86 1.93896,0.85989 3.23167,1.1822 2.90849,0.8599 2.04681,0.8598 1.7236,0.64497 0.64631,0.21531 0,2.25717 -0.32333,1.71967 -0.10797,1.50477 -1.18506,1.71976 -0.21551,0.42954 -0.86193,-0.85981 -1.29272,-1.39729 -1.07721,-0.85983 -1.18496,-1.50478 -1.50805,-1.3973 -1.18498,-1.28975 -0.86172,0.75232 -0.21554,1.93473 -1.07731,2.47203 -2.80085,3.22451 -1.29265,2.04217 -1.29272,0.42965 -1.40029,-0.2155 -0.96959,1.07479 -1.50814,1.6122 -0.9695,1.93471 -0.21552,-0.96739 -1.29276,-1.82703 -0.43114,-1.28986 -0.43116,-0.75241 0.86183,-3.43944 0.86176,-2.5796 -1.40031,-1.39733 -1.93911,-2.57956 -2.04679,-2.14959 -1.07721,-1.39724 -1.07716,-0.21533 -0.9695,1.28982 -1.50824,1.18234 -0.53859,0.75237 -0.86178,0.53733 0,0 -0.64633,0 -0.21553,-2.04207 -0.43112,-3.22458 1.18498,-2.90194 -0.21535,-2.25719 -1.40046,-1.82711 -1.61579,-2.68708 -1.4004,-1.07483 -1.40047,-2.25714 -0.32234,-2.04216 -1.50813,-1.82725 -0.96955,-0.96734 -0.5386,-0.32203 1.61578,-1.71978 0.53873,-1.7196 -0.32332,-2.36468 -1.40045,-0.85982 -0.32298,-2.47218 -1.50821,-1.28975 -1.07717,-1.28985 -2.15447,-0.42989 -2.37,-0.32201 z"
   style="fill:#ffffff;fill-opacity:1;fill-rule:evenodd;stroke:#808080;stroke-width:0.49999994;stroke-linecap:butt;stroke-linejoin:miter;stroke-miterlimit:4;stroke-dasharray:none;stroke-opacity:1" />
<path
   inkscape:label=""
   inkscape:connector-curvature="0"
   id="EDUCACION_ALTO_PIURA"
   d="m 194.28211,218.83334 -6.08015,3.55109 -2.96589,0.44395 -4.30061,-2.36743 -0.74144,-0.44386 -1.77958,2.95935 -0.88979,2.81124 1.92798,2.66334 1.33457,2.95925 -0.44474,1.18373 -4.30059,1.33159 -3.7074,2.66334 -3.70734,4.14298 -2.66929,7.10223 -1.63124,5.62267 2.37264,1.33176 0.14804,3.55086 3.26243,1.92362 4.59724,2.81124 3.41072,3.4032 3.41085,5.7705 5.04204,6.80637 c 0,0 4.4488,5.91854 5.33861,6.51044 0.88983,0.59183 5.48685,6.36235 5.48685,6.36235 l 2.81779,1.77554 4.7454,0.88783 3.11417,1.03581 1.48288,-0.44394 0.14808,-4.14296 1.483,-3.69909 2.22442,-2.36726 0.88974,-4.29109 -0.44476,-2.95908 0.59322,-3.40323 -0.59322,-1.62763 -1.92783,-1.77553 -0.29663,-1.47958 -1.77959,-1.33182 -0.88968,-1.62749 -1.18641,-2.36734 -0.2966,-1.62764 -2.6693,-2.07156 2.96598,-3.10719 -0.44471,-1.47973 -1.48296,-1.18365 -0.59319,-1.33166 -0.14794,-1.77555 -0.88979,-1.47961 -0.29668,-0.73978 -1.18646,0 -1.77955,0 -1.48292,0 -2.22447,-1.03579 -1.48287,-1.33168 2.66924,-2.21947 2.07617,-2.36742 0.29667,-2.21942 5.48683,-3.69905 1.48299,-2.2194 1.92783,-1.33173 1.18646,-2.81124 -0.5933,-0.73992 -4.59704,-1.03565 -3.41077,-0.88785 -3.85578,-0.44385 -1.33465,-0.44383 0,-2.07158 0.29636,-1.62761 -0.8898,-2.66344 z"
   style="fill:#ffffff;fill-opacity:1;fill-rule:evenodd;stroke:#808080;stroke-width:0.49999994;stroke-linecap:butt;stroke-linejoin:miter;stroke-miterlimit:4;stroke-dasharray:none;stroke-opacity:1" />
<path
   inkscape:label=""
   sodipodi:nodetypes="cccccccccccccccccccccccccccccccccccccccccccccccccccccsssscccccscscsscsscccccccsscsccssscccscscsscccscssssccsscscscsscscccsscsssscsscsssscssssccccc"
   inkscape:connector-curvature="0"
   id="EDUCACION_PIURA"
   d="m 192.01727,326.54068 -2.96429,3.16911 -1.44571,2.09799 -4.33693,0.39362 -4.59971,0.52447 -3.15403,0.26254 -1.44552,0.52449 -3.81126,1.96683 -3.41694,1.31127 -1.18281,1.04907 -6.96526,7.21179 -2.36558,3.67159 -8.41073,13.37481 -9.85654,14.81723 -3.67975,5.50728 -2.89131,3.80254 -2.49695,3.01595 -8.80527,-3.93377 -4.86241,-2.49136 -3.41706,-1.83577 -1.44548,-0.65562 -7.35959,-6.16298 -5.913867,-4.72046 -2.102713,-1.70467 -3.41691,-2.36021 -11.302063,-5.90073 -6.17686,-4.58933 -4.862539,-7.4742 0.129903,-11.53906 2.497019,-6.03173 3.679724,-0.26253 0.919888,-4.98282 4.074161,3.40934 10.382056,3.01592 6.439623,-2.36024 6.176818,-12.45693 -0.13108,-13.89935 -1.577,-5.11388 -0.92,-1.96681 -1.0514,-2.49144 -1.44555,-3.40922 -1.182805,-2.75367 -1.314165,-2.88485 -2.234085,-3.1469 -2.62842,-2.6226 -2.234217,-2.75357 -1.314127,-2.22915 2.102657,-3.40923 1.314271,-1.83571 -1.263417,-4.25384 -2.408866,-1.9116 c -3.191923,-3.10421 -3.862584,-3.84867 -3.876008,-4.16356 -0.0039,-0.24536 4.312064,-0.19623 6.259232,0.0721 2.339527,0.32237 3.856287,0.86855 5.885863,2.11802 1.944153,1.19713 7.618267,4.4048 7.791697,4.4048 0.0618,0 0.40992,-0.46601 0.7722,-1.03564 0.95939,-1.50752 1.35304,-3.08914 1.35304,-5.4354 l 0,-2.03161 1.58424,-0.003 1.58414,-0.003 4.19032,-7.34986 4.19027,-7.34964 2.86522,-8.63631 c 1.57578,-4.74991 2.98414,-8.78366 3.12972,-8.96374 0.15604,-0.19323 1.65152,-0.62139 3.65121,-1.04511 l 3.38679,-0.71786 1.39199,-1.21936 c 2.53073,-2.217 6.99763,-7.23866 8.61777,-9.68817 l 1.56382,-2.36455 1.5332,0.12744 c 0.84323,0.0707 3.28942,0.237 5.43614,0.37064 l 3.90263,0.24382 5.32629,-2.57 5.32645,-2.5703 -0.56768,-0.96629 -0.5676,-0.9664 1.14233,-3.92064 1.14241,-3.92062 -1.06527,-1.12296 c -0.58584,-0.61764 -1.48821,-1.57417 -2.00533,-2.12556 l -0.94032,-1.00266 1.54275,-0.92999 c 0.8485,-0.51148 1.54203,-0.99239 1.54162,-1.06845 -4.3e-4,-0.0756 -0.29181,-0.57568 -0.64687,-1.11008 -0.35495,-0.53426 -0.6253,-0.98549 -0.59987,-1.00266 0.5809,-0.39488 12.40152,-6.63749 12.5677,-6.63749 0.12998,0 1.2018,0.61332 2.37981,1.36263 l 2.14177,1.36266 2.82343,0.10939 2.8234,0.10949 1.56767,3.98156 c 0.8623,2.1898 1.6103,4.02394 1.6622,4.07577 0.0527,0.0523 2.50079,-0.49046 5.44177,-1.20527 l 5.34708,-1.29947 1.02537,1.14798 c 1.76631,1.97772 1.77381,1.75762 -0.15322,4.50161 l -1.69328,2.41165 -2.83035,0.0609 -2.83027,0.0606 -0.78015,1.25462 c -0.73169,1.17663 -0.75765,1.27891 -0.41897,1.6522 0.19778,0.21835 0.3613,0.44664 0.3613,0.50636 0,0.0597 0.44244,0.58952 0.98337,1.1772 0.54073,0.58778 0.98318,1.12974 0.98318,1.20468 0,0.0748 -0.22361,0.46921 -0.49596,0.87676 -0.63979,0.95556 -1.75093,1.50299 -3.05136,1.50354 l -1.03463,3.6e-4 0.13387,1.3627 c 0.17443,1.79193 0.83988,3.32813 1.69176,3.91433 0.37441,0.25748 0.71535,0.49389 0.75795,0.52533 0.009,0.009 -0.57748,1.12643 -1.37802,2.43334 l -1.45558,2.37629 0.65625,2.59072 c 0.36131,1.42479 0.63695,2.60469 0.61322,2.62186 -0.38864,0.28281 -7.9337,4.23286 -8.08517,4.23286 -0.117,0 -1.49028,-0.84045 -3.05179,-1.86769 -1.56161,-1.02727 -2.91711,-1.78752 -3.01219,-1.68969 -0.095,0.0973 -1.01518,1.94328 -2.04437,4.10068 l -1.87116,3.9227 1.98467,1.98859 1.98475,1.98844 -0.38979,1.2353 c -0.43969,1.39127 -0.20105,1.27415 -3.55462,1.74748 l -2.26486,0.31951 -1.55899,1.67914 c -4.02575,4.33601 -5.67032,7.27387 -7.25839,12.96642 -0.48051,1.72262 -1.40204,5.8865 -1.40204,6.33517 0,0.10664 0.49168,0.19405 1.09253,0.19405 1.08585,0 1.09249,0.002 1.09785,0.70862 0.003,1.16686 0.4199,2.62012 0.98274,3.47456 0.61658,0.93601 3.56325,2.9399 6.64716,4.52051 l 2.1034,1.07793 2.06675,3.11377 c 4.93511,7.43508 11.8446,16.38454 18.51475,23.98056 1.87484,2.13523 2.11345,2.33166 2.99045,2.46293 1.84635,0.27624 6.80639,1.59961 8.601,2.29475 l 1.81598,0.70345 -0.13836,1.77768 c -0.24495,3.16568 -0.55258,5.17815 -1.53756,10.06227 -0.53194,2.63798 -1.04236,5.0525 -1.13409,5.36544 -0.0918,0.31295 -1.69699,2.14501 -3.56693,4.07117 l -3.39988,3.5022 -1.25142,-0.66803 0,0 0.22685,0.40682 z"
   style="fill:#ffffff;fill-opacity:1;fill-rule:evenodd;stroke:#808080;stroke-width:0.49999994;stroke-linecap:butt;stroke-linejoin:miter;stroke-miterlimit:4;stroke-dasharray:none;stroke-opacity:1" />
<path
   inkscape:label=""
   inkscape:connector-curvature="0"
   style="fill:#ffffff;fill-opacity:1;stroke:#808080;stroke-width:0.49999994;stroke-miterlimit:4;stroke-dasharray:none;stroke-opacity:1"
   id="EDUCACION_UGEL_DE_PAITA"
   d="m 74.910755,261.48864 -1.622631,-0.004 -1.622413,-0.004 -4.420159,-4.73565 c -2.430997,-2.60477 -4.713052,-5.06194 -5.071191,-5.46053 l -0.650996,-0.72473 1.078934,-1.27898 1.078901,-1.27886 0.291819,-5.87439 c 0.278912,-5.63024 0.306196,-5.87628 0.646672,-5.91981 0.195189,-0.007 2.310995,0.22412 4.701971,0.55337 2.390804,0.32871 4.360034,0.58854 4.375957,0.57629 0.0053,-0.004 0.74823,-1.3603 1.62746,-2.99601 l 1.598486,-2.97387 -0.770041,-4.05063 -0.77008,-4.05052 -2.553279,-2.97797 c -1.404338,-1.63802 -3.432163,-4.05354 -4.506399,-5.36807 -1.822712,-2.23059 -2.368013,-2.97451 -4.02455,-5.4922 -0.353895,-0.53779 -1.552465,-2.01158 -2.663699,-3.2751 l -2.020287,-2.29734 1.437532,-0.13574 c 2.352636,-0.22104 9.03439,-1.29451 17.923641,-2.87875 l 8.354649,-1.48901 1.744388,1.7357 1.744178,1.73583 -1.256387,3.59477 c -0.691059,1.97722 -1.256329,3.68481 -1.256329,3.79482 0,0.11017 0.661651,0.85665 1.470181,1.65932 l 1.470399,1.45936 2.65499,0.51791 c 1.460289,0.28514 3.772818,0.69115 5.139108,0.90276 3.30483,0.51191 4.34716,0.79831 4.34716,1.19455 0,0.17043 -0.23274,1.2633 -0.51605,2.42932 -1.21703,4.99993 -1.6616,8.65367 -3.21802,26.44529 -0.67015,7.66094 -1.11993,11.89335 -1.3421,12.63074 -0.21547,0.7144 -1.82978,0.0662 -4.923001,-1.97723 l -1.925977,-1.27203 -4.816465,-0.33831 c -2.649123,-0.18688 -5.235661,-0.37593 -5.748012,-0.42043 l -0.931525,-0.0817 0,1.90466 0,1.90469 1.286282,1.24357 c 1.466409,1.41765 2.439482,1.97766 3.693863,2.12585 0.99768,0.11724 0.792276,-0.30322 1.77663,3.64332 l 0.563951,2.26128 -1.004038,1.05038 c -0.552343,0.57771 -1.159819,1.39242 -1.349946,1.81048 -0.344591,0.7581 -0.475778,1.91069 -0.216823,1.91069 z" />
<path
   inkscape:label=""
   inkscape:connector-curvature="0"
   style="fill:#ffffff;fill-opacity:1;stroke:#808080;stroke-width:0.49999994;stroke-miterlimit:4;stroke-dasharray:none;stroke-opacity:1"
   id="EDUCACION_UGEL_AYABACA"
   d="m 281.2888,202.8897 c -0.12945,0 -0.77919,2.45829 -1.46712,5.55408 l -0.51999,2.34028 -2.40016,0.88132 -2.40009,0.88136 -0.98758,2.86364 c -1.22626,3.55608 -2.5365,7.68956 -2.92151,9.21662 -0.16123,0.63592 -0.34494,1.77435 -0.4112,2.52986 -0.0657,0.75551 -0.20628,1.68128 -0.31162,2.05734 -0.39142,1.39681 -1.11713,3.48715 -1.2102,3.48715 -0.0534,0 -2.4551,-1.00864 -5.33851,-2.24145 l -5.2424,-2.2413 -0.67265,0.41345 c -0.36955,0.22727 -0.838,0.66182 -1.03977,0.96603 -0.3188,0.48026 -0.37298,0.71974 -0.41453,1.81919 l -0.0476,1.26622 -1.39192,0.53653 c -0.76558,0.2955 -1.62274,0.61918 -1.90477,0.72005 l -0.51304,0.18286 -0.65201,-0.72061 c -0.59196,-0.65416 -0.7547,-0.7493 -1.76533,-1.03125 -1.72504,-0.48141 -3.06812,-1.31489 -6.45912,-4.00849 l -1.26781,-1.00687 0,-2.04397 0,-2.04405 -0.85666,0.32564 c -0.47113,0.17934 -1.26401,0.47995 -1.76199,0.66891 l -0.90544,0.34389 -1.00224,-1.79861 c -0.55117,-0.98907 -1.01335,-1.81448 -1.02675,-1.83428 -0.004,-0.005 -1.43693,-0.19183 -3.16338,-0.38261 -1.72659,-0.19062 -3.2658,-0.40921 -3.42072,-0.48564 -0.45111,-0.22226 -1.08292,-1.43351 -1.64983,-3.16374 l -0.52667,-1.60684 -1.13519,0 -1.13513,0 0,1.88366 0,1.88375 -2.32995,0.6047 -2.33004,0.60475 0,1.32096 0,1.32108 -2.98646,1.38707 c -1.64251,0.76299 -3.06236,1.38719 -3.15532,1.38719 -0.0922,0 -0.65903,-0.2454 -1.25804,-0.54641 -1.93021,-0.96838 -4.57735,-1.59589 -10.28062,-2.43696 -3.16025,-0.46592 -3.49858,-0.54096 -3.53143,-0.78304 -0.005,-0.14731 0.23927,-1.95439 0.57714,-4.01581 0.3369,-2.06137 0.58892,-3.7881 0.55854,-3.83722 -0.008,-0.0488 -0.69103,-0.32602 -1.4681,-0.61479 -0.77704,-0.28951 -1.47245,-0.57886 -1.54518,-0.64353 -0.0723,-0.0648 -0.3863,-1.08964 -0.69597,-2.27723 l -0.56375,-2.15929 1.21311,-0.73027 c 0.87464,-0.52653 1.19498,-0.7912 1.14885,-0.94951 -0.15797,-0.54482 -1.20926,-7.41081 -1.14393,-7.47597 0.009,-0.009 0.77434,-0.34213 1.63131,-0.67004 l 1.558,-0.59693 0.009,-2.47314 0.009,-2.47339 -1.16816,0 c -0.64248,0 -1.16799,-0.008 -1.16799,-0.0702 0,-0.009 0.13847,-0.28344 0.30862,-0.54269 0.53894,-0.82543 1.96513,-1.42352 4.90003,-2.05502 0.94212,-0.20235 2.00952,-0.43932 2.37171,-0.52548 l 0.65872,-0.15706 1.3676,-3.00324 1.36758,-3.00339 -1.88916,-1.86833 -1.88913,-1.86841 -4.04331,0.86758 c -2.22364,0.4771 -4.57672,0.98389 -5.22896,1.12622 l -1.18589,0.2582 -1.47932,-3.77581 c -0.8136,-2.07664 -1.48817,-3.79147 -1.49901,-3.81073 -0.004,-0.007 -6.05626,-1.26414 -6.1727,-1.26414 -0.003,0 -0.0691,-0.35397 -0.12127,-0.7864 -0.0513,-0.43251 -0.33693,-2.66314 -0.63519,-4.95726 -0.29789,-2.29389 -0.63526,-5.21703 -0.74996,-6.49569 -0.24544,-2.73305 -0.44288,-3.62796 -1.08765,-4.92292 -0.78127,-1.56937 -0.59165,-1.46044 -4.11218,-2.36274 -3.01511,-0.7728 -3.15413,-0.82311 -3.19379,-1.15247 -0.009,-0.33314 -0.004,-0.34636 0.89078,-0.41136 3.08315,-0.222 7.6422,-4.67915 11.52317,-11.26684 l 0.97534,-1.6552 0.72726,-0.0872 c 1.17411,-0.14083 4.82979,-0.1019 6.79294,0.0705 l 1.81697,0.1613 1.55886,1.73121 c 2.6802,2.97667 5.08083,4.83594 11.01795,8.53366 l 2.36778,1.4747 1.1147,-0.14972 c 1.55874,-0.20871 3.73272,-0.18643 4.9843,0.0532 0.5825,0.11083 1.74599,0.42781 2.58529,0.70348 l 1.52629,0.50117 0.4597,1.54948 c 0.76917,2.59198 1.7037,4.26185 3.62233,6.47289 l 1.07387,1.23743 4.21103,0 4.21121,0 2.11622,-0.73868 c 4.14234,-1.44604 5.96778,-2.29774 7.68331,-3.58506 1.67759,-1.25878 2.6741,-1.65442 3.56428,-1.41523 1.17407,0.31529 2.12549,1.18116 6.40549,5.82891 l 4.19895,4.55951 3.74433,0 c 3.50103,0 3.73972,0.004 3.67478,0.23874 -0.009,0.12994 -0.38352,1.81773 -0.76798,3.7472 l -0.69855,3.5079 1.51364,3.77757 c 2.84194,7.09277 5.79371,13.96957 9.51387,22.16342 l 1.30393,2.87177 1.39444,0.068 z" />
<path
   inkscape:label=""
   inkscape:connector-curvature="0"
   style="fill:#ffffff;fill-opacity:1;stroke:#808080;stroke-width:0.49999994;stroke-miterlimit:4;stroke-dasharray:none;stroke-opacity:1"
   id="EDUCACION_LUCIANO_CASTILLO_COLONNA"
   d="m 101.97875,256.61566 c 0.009,-0.35709 0.23126,-2.77251 0.41766,-5.36746 1.12204,-15.52593 2.72149,-29.68916 4.23879,-37.53352 0.18829,-0.9753 0.29788,-1.81354 0.24311,-1.86252 -0.0555,-0.0488 -3.09166,-0.53822 -6.74772,-1.08671 -3.656016,-0.54873 -6.695981,-1.0391 -6.755488,-1.08985 -0.05911,-0.0508 0.0044,-2.04294 0.171213,-4.42701 0.383883,-5.95318 0.487559,-5.22169 -0.854834,-6.02295 -0.619891,-0.36983 -1.143805,-0.6841 -1.164014,-0.69775 -0.0059,-0.004 0.245389,-0.48672 0.591515,-1.05105 l 0.628456,-1.02613 2.286679,-0.0816 c 2.813614,-0.10049 4.285161,-0.39278 7.075673,-1.40671 1.13245,-0.41149 2.10577,-0.79463 2.16304,-0.85166 0.0565,-0.0571 -0.44708,-1.54305 -1.11976,-3.30233 l -1.22385,-3.19875 -4.063289,-4.05584 -4.063263,-4.05586 2.924089,-1.76534 2.923938,-1.76547 0.0095,-0.93098 c 0.06847,-1.56252 -0.658792,-2.79182 -3.210063,-5.42644 l -1.422207,-1.46892 1.914728,-1.80571 c 2.920757,-2.75452 3.831987,-4.00595 3.945657,-5.419 l 0.0706,-0.88045 1.14615,0 1.14626,0 0,-1.11076 c 0,-1.52629 0.6248,-3.34057 2.20392,-6.39992 0.67647,-1.31049 1.18198,-2.42779 1.12345,-2.48299 -0.0593,-0.0554 -0.6308,-0.2048 -1.27146,-0.33076 -1.95151,-0.3876 -3.60547,-1.20287 -5.2011,-2.5647 l -0.442009,-0.37745 0.896629,-0.96627 c 1.0927,-1.17758 1.45694,-2.0308 1.45694,-3.41263 l 0,-0.95219 -3.052298,0 -3.05223,0 -1.288621,-1.29115 -1.288598,-1.29112 1.378457,-3.63097 1.378765,-3.63099 -1.286547,-2.45019 c -0.707541,-1.34775 -1.286591,-2.49152 -1.286591,-2.54178 0,-0.25142 2.330075,0.51292 4.195484,1.37676 l 1.311756,0.60747 6.212623,-0.95857 c 3.41696,-0.52714 6.38813,-0.95845 6.60249,-0.95845 0.54108,0 5.15878,1.40083 6.82493,2.07041 2.02217,0.81275 3.88552,1.80373 5.93354,3.15594 l 1.81901,1.20093 2.2749,0 2.27479,0 1.37733,-1.26504 c 2.98092,-2.73748 5.23746,-5.69896 10.03077,-13.16295 1.72449,-2.68524 2.28225,-3.45936 2.35147,-3.26385 0.4185,1.18243 1.77526,3.68492 2.28529,4.21605 0.54063,0.56291 0.65637,0.62121 1.23496,0.62121 l 0.63839,0 0.009,4.60666 0.008,4.6068 3.28934,0.72157 c 1.80919,0.39686 3.40422,0.72401 3.54446,0.72665 0.14045,0.001 0.77931,-0.31137 1.42002,-0.69726 l 1.16494,-0.70209 1.64641,1.64261 1.64626,1.64262 -3.34086,3.81158 c -6.09614,6.95526 -8.45847,9.9126 -9.67791,12.11509 l -0.71558,1.29251 0.75359,4.63777 c 0.41453,2.55076 0.76928,4.68763 0.78833,4.74855 0.005,0.0609 0.72752,0.41303 1.57422,0.78234 2.32668,1.01484 3.39338,1.77013 3.72174,2.6348 0.16333,0.42991 0.848,0.77967 1.52554,0.77967 1.02931,0 4.63325,-1.50299 10.20292,-4.25535 l 3.42638,-1.69322 2.96175,0.009 2.96179,0.009 0.0858,0.82128 c 0.0476,0.45165 0.1819,2.63467 0.29851,4.85086 0.23508,4.44686 0.43966,5.64483 1.15765,6.76106 0.60342,0.93824 0.82611,1.70034 0.82611,2.82649 l 0,1.00846 -2.26197,0 -2.26207,0 -6.50967,3.17418 -6.50969,3.17428 0,2.02386 0,2.02408 -0.788,0.49221 c -0.43336,0.27042 -1.02141,0.64158 -1.30654,0.82382 l -0.51853,0.33108 1.9773,2.1576 1.97753,2.15748 -0.75269,4.43572 c -0.41418,2.43972 -0.79296,4.47748 -0.84208,4.5284 -0.0488,0.0511 -1.72405,0.7825 -3.72162,1.62538 l -3.63215,1.53271 -5.57989,0.17338 c -5.23454,0.1628 -5.60351,0.19086 -5.962,0.45078 -1.25121,0.90727 -5.74413,5.87629 -9.6799,10.70612 l -1.62273,1.99132 -4.52449,1.3498 c -2.48846,0.7423 -4.60214,1.41356 -4.69702,1.49138 -0.0954,0.079 -0.46643,1.52639 -0.82574,3.21865 -1.40339,6.60974 -2.90904,10.89202 -5.86142,16.67176 -2.40411,4.70595 -3.79273,7.02892 -5.52493,9.24257 -1.21186,1.54829 -2.01345,2.27598 -3.34942,3.0401 l -1.16491,0.66631 -0.009,2.24929 -0.009,2.24929 -1.07983,0.64955 c -0.59391,0.3571 -1.11692,0.6496 -1.16232,0.6496 -0.0459,0 -0.0482,-0.29215 -0.002,-0.6496 l 0,0 z" />
<path
   inkscape:label=""
   inkscape:connector-curvature="0"
   style="fill:#ffffff;fill-opacity:1;stroke:#808080;stroke-width:0.49999994;stroke-miterlimit:4;stroke-dasharray:none;stroke-opacity:1"
   id="EDUCACION_UGEL_DE_TALARA"
   d="m 55.588265,197.39141 c -4.396487,-4.8917 -5.534166,-6.21815 -7.855591,-9.1584 l -1.783928,-2.2596 1.26024,-2.49713 c 1.820034,-3.60663 2.37308,-5.48993 2.375103,-8.0904 l 0.0011,-1.26499 1.165031,0 c 0.88588,0 1.16486,-0.0457 1.16486,-0.18342 0,-0.27606 -0.641121,-3.12106 -1.037077,-4.60194 -0.458542,-1.71423 -1.156769,-3.84798 -2.074286,-6.33643 -0.411243,-1.11612 -0.727877,-2.04566 -0.702922,-2.06576 0.01216,-0.005 0.851394,-0.48698 1.836505,-1.03725 l 1.791159,-1.00042 1.38833,-4.18164 1.388244,-4.18171 -0.125495,-1.9829 c -0.20506,-3.22647 -0.31913,-8.72099 -0.211833,-10.13054 l 0.09987,-1.31036 8.182879,-6.20861 8.182672,-6.20875 0.6806,-2.17501 c 0.782823,-2.50153 0.46444,-2.1548 3.404188,-3.70613 l 1.76407,-0.93094 1.66232,0.37777 c 3.261006,0.74122 5.43921,1.62694 6.898595,2.80521 l 0.835731,0.67479 -0.669784,2.09006 c -0.36843,1.1497 -0.670684,2.13635 -0.671742,2.19273 -0.0011,0.0562 0.980466,0.10259 2.181099,0.10259 1.799447,0 4.212584,0.18363 4.363363,0.33343 0.0056,0.007 -0.06208,3.40433 -0.182044,7.52129 -0.120285,4.11729 -0.197582,7.5016 -0.173188,7.52095 0.0078,0.006 1.489082,0.53673 3.25397,1.14981 1.764829,0.61306 3.233613,1.13975 3.264404,1.17023 0.0095,0.009 -0.195014,1.00582 -0.501889,2.16716 -0.306539,1.16143 -0.557442,2.1829 -0.557442,2.26995 0,0.0986 0.255093,0.15752 0.671173,0.15752 0.500324,0 0.912877,0.12363 1.62056,0.48732 1.05584,0.54194 3.87588,2.57604 3.87588,2.79565 0,0.0784 -0.31259,0.69411 -0.69503,1.37068 -1.19856,2.12136 -1.77297,3.47076 -1.89,4.4399 -0.0591,0.49271 -0.18095,0.9684 -0.26997,1.05699 -0.0887,0.0885 -0.56224,0.18701 -1.05208,0.21775 l -0.890473,0.0561 0,1.67053 0,1.67063 -2.949604,2.31349 -2.949738,2.31329 0.01,1.63793 0.01,1.63773 2.124497,1.83037 c 1.168399,1.00667 2.298499,1.96697 2.511365,2.13417 l 0.387076,0.30416 -1.346463,0.79791 c -2.875899,1.70437 -4.597634,3.08392 -4.786689,3.83555 -0.200626,0.79777 1.657867,3.18289 6.89469,8.84884 l 2.370639,2.56497 0,1.7581 0,1.75806 -1.37869,0.2922 c -2.397882,0.50953 -7.829504,1.45816 -18.494527,3.23024 -17.079509,2.83795 -19.265079,3.24327 -20.28321,3.76147 l -0.494405,0.25119 -3.64636,-4.05686 z" />
</svg>
