<?xml version="1.0" encoding="UTF-8" standalone="no"?>
<!--?xml version="1.0" encoding="UTF-8" standalone="no"?-->

<!--?xml version="1.0" encoding="UTF-8" standalone="no"?-->

<!--
************* Copyright (c) 2015 Pareto Softare, LLC DBA Simplemaps.com *******************		
************* Free for Commercial Use, full terms at  http://simplemaps.com/resources/svg-license ************
************* Attribution is appreciated! http://simplemaps.com ***************************
-->

<svg
   xmlns:dc="http://purl.org/dc/elements/1.1/"
   xmlns:cc="http://creativecommons.org/ns#"
   xmlns:rdf="http://www.w3.org/1999/02/22-rdf-syntax-ns#"
   xmlns:svg="http://www.w3.org/2000/svg"
   xmlns="http://www.w3.org/2000/svg"
   xmlns:sodipodi="http://sodipodi.sourceforge.net/DTD/sodipodi-0.dtd"
   xmlns:inkscape="http://www.inkscape.org/namespaces/inkscape"
   enable_background="new 0 0 1000 1585"
   height="549.01257"
   pretty_print="True"
   style="fill:none;stroke:#000000;stroke-linejoin:round"
   version="1.1"
   viewBox="0 0 354.46857 549.01257"
   width="354.46857"
   id="svg2"
   inkscape:version="0.91 r13725"
   sodipodi:docname="Puno.svg"><sodipodi:namedview
   pagecolor="#ffffff"
   bordercolor="#666666"
   borderopacity="0.05098039"
   objecttolerance="10"
   gridtolerance="10"
   guidetolerance="10"
   inkscape:pageopacity="0"
   inkscape:pageshadow="2"
   inkscape:window-width="1920"
   inkscape:window-height="1017"
   id="namedview37"
   showgrid="false"
   inkscape:zoom="1.0123181"
   inkscape:cx="-151.669"
   inkscape:cy="333.56995"
   inkscape:window-x="-8"
   inkscape:window-y="-8"
   inkscape:window-maximized="1"
   inkscape:current-layer="svg2"
   showborder="true"
   fit-margin-top="10"
   fit-margin-left="10"
   fit-margin-right="10"
   fit-margin-bottom="10"
   borderlayer="false"
   inkscape:showpageshadow="false"
   inkscape:snap-to-guides="false"
   inkscape:snap-grids="false"
   showguides="false" />























utf-8<defs
   id="defs4">
  <style
     type="text/css"
     id="style6">path { fill-rule: evenodd; }utf-8utf-8</style>
</defs>























utf-8<metadata
   id="metadata8">
utf-8utf-8<views>
utf-8utf-8utf-8<view
   h="1585.21431143"
   padding="0"
   w="1000">
utf-8utf-8utf-8utf-8<proj
   flip="auto"
   id="robinson"
   lon0="-80.0286400104" />























utf-8utf-8utf-8utf-8<bbox
   h="307.01"
   w="193.79"
   x="-1203.32"
   y="0.49" />























utf-8utf-8utf-8</view>























utf-8utf-8</views>























utf-8<rdf:rdf>
  <cc:work
     rdf:about="">
    <dc:format>image/svg+xml</dc:format>
    <dc:type
       rdf:resource="http://purl.org/dc/dcmitype/StillImage" />
  </cc:work>
</rdf:rdf>
<rdf:rdf>
  <cc:work
     rdf:about="">
    <dc:format>image/svg+xml</dc:format>
    <dc:type
       rdf:resource="http://purl.org/dc/dcmitype/StillImage" />
    <dc:title />
  </cc:work>
</rdf:rdf>
<rdf:RDF>
  <cc:Work
     rdf:about="">
    <dc:format>image/svg+xml</dc:format>
    <dc:type
       rdf:resource="http://purl.org/dc/dcmitype/StillImage" />
    <dc:title />
  </cc:Work>
</rdf:RDF>
</metadata>























utf-8<path
   inkscape:label=""
   inkscape:connector-curvature="0"
   style="fill:#ffffff;fill-opacity:1;stroke:#808080;stroke-width:0.49999997;stroke-miterlimit:4;stroke-dasharray:none;stroke-dashoffset:0;stroke-opacity:1"
   id="EDUCACION_MELGAR"
   d="m 107.26981,222.93642 c -0.49637,-1.12024 -0.90264,-2.1865 -0.90264,-2.36957 0,-0.34472 -0.22625,-0.43252 -2.85534,-1.11026 -1.23265,-0.31762 -1.7788,-0.29415 -2.58433,0.11151 -0.56189,0.283 -1.18752,0.46357 -1.39054,0.40088 -0.20285,-0.0626 -1.07537,-0.29509 -1.93829,-0.5164 -1.50702,-0.38629 -1.5691,-0.45894 -1.5691,-1.83129 0,-1.276 -0.227148,-1.63 -2.122954,-3.30814 -1.294826,-1.14689 -3.623117,-2.60234 -5.968942,-3.73215 l -3.846116,-1.85261 -1.691987,1.63444 c -1.359009,1.3129 -2.042274,1.68391 -3.473058,1.88624 -2.110658,0.29817 -6.647123,2.07668 -7.721868,3.02707 l -0.758885,0.67126 0.238863,-7.33517 c 0.131414,-4.03441 0.23886,-8.88332 0.23886,-10.77556 0,-3.19511 0.05224,-3.44076 0.738423,-3.44076 0.693375,0 0.738294,-0.24532 0.738294,-4.03673 l 0,-4.03682 -1.601515,-0.9366 c -1.977427,-1.15638 -2.281176,-1.15981 -3.750009,-0.0426 l -1.175439,0.89458 -2.879368,-3.86288 c -2.701466,-3.6239 -2.849622,-3.91843 -2.396818,-4.76292 0.398689,-0.74301 0.763234,-0.89982 2.093031,-0.89982 1.37808,0 1.773881,-0.18631 2.744929,-1.28942 0.973448,-1.10648 1.364945,-1.28935 2.757789,-1.28935 1.376912,0 1.623135,-0.11173 1.623135,-0.73693 0,-0.40507 0.240805,-0.73675 0.536353,-0.73675 0.95776,0 2.397614,-0.8322 2.613377,-1.50993 0.115925,-0.36391 -0.213437,-2.20358 -0.731054,-4.08863 -1.163157,-4.23488 -1.163003,-4.39915 0.0056,-6.17155 0.95014,-1.43281 0.952099,-1.45096 0.420412,-4.02997 l -0.534182,-2.59067 2.971517,-1.7684 c 2.81116,-1.67305 2.995904,-1.86285 3.418277,-3.51486 0.245541,-0.96067 0.978474,-2.5738 1.628647,-3.58494 l 1.182296,-1.83841 -0.823678,-1.98324 c -0.63938,-1.53902 -0.768093,-2.35491 -0.574397,-3.64296 0.245512,-1.63511 0.294569,-1.68375 3.276005,-3.26939 2.985803,-1.58826 3.043547,-1.64604 4.314223,-4.31733 l 1.288002,-2.70738 3.145971,0.25897 c 1.730098,0.14267 3.270476,0.33462 3.422787,0.42689 0.15271,0.0921 0.276511,0.70622 0.276511,1.3648 0,1.70175 0.659958,2.32076 2.757448,2.58692 1.44133,0.18241 2.13196,0.5225 3.22117,1.58354 l 1.38632,1.3508 2.35962,-0.43379 c 1.29784,-0.23894 2.53165,-0.43374 2.74179,-0.43374 0.21037,0 0.58125,0.8288 0.825,1.84182 0.24402,1.01314 0.63387,1.84307 0.86749,1.84408 0.23357,0 1.04783,0.17457 1.80912,0.38588 0.99599,0.27619 1.38453,0.58536 1.38453,1.10302 0,0.59912 0.25848,0.71942 1.54608,0.71942 1.27679,0 1.92073,-0.2933 3.69612,-1.68533 l 2.14971,-1.68542 1.25272,0.77252 c 1.13448,0.6995 1.41254,0.72966 2.94965,0.31957 1.44597,-0.38595 1.69685,-0.58968 1.69685,-1.37888 0,-0.8408 0.22166,-0.70728 2.39994,1.44736 l 2.39966,2.37327 0,2.12887 c 0,2.03537 0.0416,2.12879 0.93978,2.12879 0.92423,0 0.93827,0.0426 0.83088,2.45753 l -0.10973,2.45735 -2.07196,0.68776 -2.07207,0.68769 -0.44683,4.45236 c -0.24556,2.4492 -0.75681,5.66227 -1.13564,7.14031 -0.7473,2.91548 -2.01031,5.69472 -2.58793,5.69472 -0.78964,0 -0.28662,0.96815 0.933,1.79724 1.46967,0.99879 1.57769,1.33869 0.59259,1.86446 -0.56949,0.30425 -1.01292,0.0949 -2.42869,-1.14907 l -1.73206,-1.52137 -1.33228,1.32953 -1.3326,1.3295 1.95033,3.72103 c 2.29132,4.37221 2.29962,4.22171 -0.49883,9.20652 -3.74251,6.66658 -3.60187,6.23282 -2.97826,9.19002 l 0.54672,2.59368 -1.3206,2.39699 c -1.27454,2.31378 -1.37028,2.39722 -2.75633,2.39722 -1.5436,0 -1.49961,-0.0661 -1.99421,3.01299 -0.15489,0.96574 -0.60068,1.66162 -1.55056,2.42203 l -1.33261,1.06677 0.45772,1.9046 c 0.43523,1.81046 0.40942,1.98702 -0.52474,3.57777 l -0.9827,1.67334 1.10061,1.78497 c 0.81125,1.31532 0.9922,1.89341 0.68816,2.19688 -0.3038,0.30335 -0.1931,0.8614 0.41958,2.12073 l 0.83218,1.70905 -1.01218,1.05427 c -0.55654,0.5796 -1.23947,1.054 -1.51717,1.054 -0.27762,0 -0.91125,-0.91661 -1.40765,-2.0366 z" />
<path
   inkscape:label=""
   inkscape:connector-curvature="0"
   style="fill:#ffffff;fill-opacity:1;stroke:#808080;stroke-width:0.49999997;stroke-miterlimit:4;stroke-dasharray:none;stroke-dashoffset:0;stroke-opacity:1"
   id="EDUCACION_SAN_ROMAN"
   d="m 96.871762,302.54359 c -0.650887,-0.38779 -1.814504,-0.79092 -2.585837,-0.89583 l -1.402222,-0.19069 -0.505714,-1.66011 c -0.278172,-0.913 -0.538777,-1.70832 -0.579044,-1.76717 -0.04042,-0.0592 -0.703341,0.10696 -1.473586,0.36916 -0.770152,0.26219 -1.491109,0.47604 -1.60239,0.47604 -0.111524,0 -0.272032,-0.76393 -0.358126,-1.6976 -0.08574,-0.9337 -0.526382,-2.64531 -0.978982,-3.80324 l -0.822994,-2.10567 -1.577148,-0.37739 c -1.644314,-0.39373 -1.835967,-0.65594 -1.144389,-1.56673 0.227414,-0.29995 0.347315,-0.71916 0.265627,-0.93165 -0.09324,-0.24491 0.177629,-0.45761 0.743649,-0.58153 0.490704,-0.10708 1.361216,-0.71384 1.934662,-1.34704 l 1.042527,-1.1515 1.230291,0.43309 c 1.883353,0.66307 2.101362,0.59698 1.881511,-0.57144 -0.215033,-1.1424 -0.401671,-1.03648 3.190593,-1.80832 2.220086,-0.47732 2.326064,-0.47429 3.550721,0.10091 0.694169,0.32678 1.837544,0.68503 2.540799,0.79623 1.27365,0.20151 1.28711,0.19427 3.4454,-1.894 1.19162,-1.15289 2.28054,-2.09179 2.41992,-2.08669 0.13947,0.004 0.49699,0.19311 0.79431,0.41817 0.47741,0.36099 0.78927,0.27622 2.66311,-0.72663 1.95473,-1.046 2.22746,-1.11498 3.45371,-0.87413 0.73242,0.14357 1.4092,0.26807 1.50408,0.27398 0.0946,0.004 0.11464,-0.68483 0.0453,-1.53759 -0.15317,-1.84425 -0.14733,-1.85082 3.59777,-4.03742 l 2.62981,-1.53555 0.93485,0.90459 c 0.89633,0.86683 1.03913,0.90351 3.43628,0.892 l 2.50113,-0.004 5.7544,-5.63661 5.75455,-5.6367 -0.49174,-1.87014 c -0.27007,-1.02861 -0.8344,-2.38752 -1.25369,-3.01968 -0.41939,-0.63206 -0.83975,-1.6664 -0.93454,-2.29802 -0.13306,-0.88621 -0.57492,-1.5607 -1.93353,-2.95026 -1.52639,-1.56138 -1.74849,-1.93031 -1.66519,-2.7661 0.0801,-0.80458 0.28072,-1.03754 1.21334,-1.40688 1.08659,-0.43074 1.13728,-0.42149 1.83534,0.32987 0.39479,0.42504 0.90313,0.7729 1.12983,0.7729 0.56545,0 1.31851,-0.884 1.71135,-2.00868 0.29771,-0.85205 0.2408,-1.04545 -0.62514,-2.13696 l -0.95254,-1.19969 0.68052,-0.72273 c 0.37438,-0.39781 0.89481,-0.72303 1.15696,-0.72303 0.26217,0 1.19951,0.73077 2.08345,1.62403 1.3854,1.39984 1.76181,1.62393 2.72693,1.62393 1.08643,0 1.11981,0.009 1.11981,1.05333 0,0.86492 0.0922,1.02562 0.51789,0.89906 0.28458,-0.084 1.14714,-0.30825 1.91635,-0.49611 l 1.39867,-0.34194 1.49678,1.25066 1.49717,1.25094 2.09527,-2.10322 c 1.15238,-1.15688 2.27747,-2.10345 2.50026,-2.10345 0.2226,0 0.8121,0.80479 1.30941,1.78796 0.88526,1.74971 0.90006,1.85001 0.70161,4.72396 l -0.20201,2.93644 1.1557,0 1.15588,0 0.8499,2.49783 0.84991,2.49772 -4.5096,4.66228 c -4.26999,4.4143 -4.58301,4.67304 -5.88406,4.86764 -0.91169,0.136 -1.57388,0.4424 -1.96635,0.90887 l -0.59165,0.70341 -2.27588,-1.72078 c -1.25164,-0.94649 -2.36389,-1.72085 -2.47157,-1.72085 -0.16556,0 -4.33417,3.78747 -9.22834,8.38419 l -1.25215,1.17604 -3.66643,0.35452 c -5.6204,0.54334 -6.0262,0.63974 -6.2375,1.47938 -0.0995,0.39703 -0.30909,2.72156 -0.46514,5.16502 -0.15644,2.44351 -0.35401,4.55678 -0.44017,4.69599 -0.0866,0.13936 -0.55477,0.34027 -1.0411,0.44677 -0.85,0.18675 -0.88426,0.25634 -0.88426,1.80495 l 0,1.61083 -1.33148,0.5694 -1.33166,0.56948 0,1.57217 0,1.572 -1.55679,0.94156 c -0.85611,0.51755 -1.98795,1.02739 -2.51515,1.13258 -0.60069,0.11987 -0.95837,0.3673 -0.95837,0.66302 0,0.3678 -0.0948,0.33659 -0.42928,-0.1405 -0.42509,-0.60529 -0.45398,-0.60674 -2.88504,-0.11027 -1.35064,0.27587 -3.32126,0.66355 -4.37899,0.86183 -1.05787,0.19783 -3.11016,0.94907 -4.56043,1.66844 -1.450286,0.71947 -2.781781,1.29537 -2.959002,1.28001 -0.177073,-0.004 -0.854567,-0.34496 -1.505471,-0.73307 z" />
<path
   inkscape:label=""
   inkscape:connector-curvature="0"
   style="fill:#ffffff;fill-opacity:1;stroke:#808080;stroke-width:0.49999997;stroke-miterlimit:4;stroke-dasharray:none;stroke-dashoffset:0;stroke-opacity:1"
   id="EDUCACION_LAMPA"
   d="m 80.726278,285.88524 c -0.4566,-0.81132 -1.27188,-2.05226 -1.811775,-2.758 l -0.981515,-1.28307 1.587373,-2.03972 c 1.396153,-1.79377 1.58773,-2.20484 1.589861,-3.41122 0,-1.07847 -0.154103,-1.51984 -0.732223,-2.06661 -0.665329,-0.6296 -0.735315,-0.92489 -0.739903,-3.12425 l -0.0053,-2.42913 -1.50003,-1.18298 c -0.824978,-0.65105 -2.056771,-1.4323 -2.737046,-1.73659 -1.678985,-0.75102 -4.071954,-3.21193 -3.903527,-4.01466 0.245039,-1.16936 1.092261,-9.60203 0.99214,-9.87702 -0.05634,-0.1529 -0.92365,-0.93181 -1.928961,-1.73166 l -1.827834,-1.45377 2.271726,-3.43635 2.271706,-3.43623 1.89014,-0.004 1.890095,-0.004 -0.199941,-1.69755 c -0.143767,-1.22491 -0.433427,-1.9886 -1.039937,-2.74254 l -0.840753,-1.04497 -0.292809,-7.02285 c -0.272571,-6.54671 -0.337208,-7.08291 -0.949944,-7.90987 -0.361618,-0.48765 -0.612327,-0.92614 -0.557183,-0.97428 0.05507,-0.0486 1.364946,-0.5893 2.911132,-1.20302 3.277839,-1.30119 5.393647,-1.90248 6.711017,-1.90752 0.749409,0 0.960361,-0.13897 1.035651,-0.66776 0.05901,-0.40955 0.510997,-0.88695 1.180121,-1.24437 l 1.085383,-0.5798 2.761258,0.87452 c 2.551058,0.80836 2.958151,1.0505 5.350216,3.18163 l 2.589143,2.30706 0,2.06521 0,2.06541 0.887488,-0.52333 c 0.875523,-0.516 0.909893,-0.5112 2.532703,0.3525 l 1.64519,0.87537 0.54771,-0.66421 c 0.43499,-0.52778 0.8524,-0.6644 2.02958,-0.6644 2.05885,0 2.34167,0.1652 3.20607,1.86685 0.83426,1.64279 2.99779,4.62877 3.35377,4.62877 0.30543,0 4.14308,-4.30059 4.14308,-4.64306 0,-0.15013 -0.33248,-0.58529 -0.73967,-0.96687 -0.63686,-0.59689 -0.73962,-0.95136 -0.73962,-2.55079 0,-1.66534 -0.0965,-1.96759 -0.93944,-2.92493 l -0.93936,-1.06769 0.92999,-1.88184 0.93036,-1.88216 -0.50203,-1.35132 -0.50212,-1.35143 1.82493,-1.62183 c 1.75471,-1.56002 1.81277,-1.65616 1.5126,-2.51535 -0.17102,-0.49123 -0.25768,-0.94723 -0.19137,-1.01334 0.0668,-0.0662 1.97895,0.73021 4.25072,1.76982 3.95382,1.8092 4.20291,1.97579 5.82683,3.89955 l 1.69644,2.00995 0.003,6.5694 c 0,3.61317 0.12125,6.56951 0.26268,6.56951 0.4918,0 9.04981,0.92163 9.07504,0.97742 0.004,0.009 0.53053,0.75763 1.14842,1.61558 1.16714,1.62013 1.23255,2.20381 0.56192,5.00971 -0.13903,0.58054 -0.044,0.66429 0.76094,0.66429 0.89009,0 0.91994,0.0423 0.91994,1.30286 l 0,1.30276 2.0251,0.77258 c 1.19998,0.45734 2.2445,0.68814 2.56292,0.56629 0.45817,-0.17493 0.50465,-0.10038 0.31658,0.50847 -0.12138,0.39268 -0.29277,1.81028 -0.38051,3.14988 -0.0884,1.33972 -0.21984,2.43587 -0.29276,2.43587 -0.0735,0 -0.93092,-0.61225 -1.9057,-1.36091 -2.13956,-1.64296 -6.72722,-4.54498 -7.17889,-4.54172 -0.17849,0 -0.78366,0.86483 -1.34485,1.91888 l -1.01991,1.91626 0.94606,0.97406 c 0.89104,0.91755 1.25987,1.97925 0.68739,1.97925 -0.14215,0 -0.8414,-0.20694 -1.55349,-0.46103 l -1.29491,-0.4613 -1.40529,1.51515 c -0.80531,0.86818 -1.40574,1.7972 -1.40574,2.17546 0,0.36312 0.665,1.60218 1.47788,2.75326 0.81248,1.15095 1.58335,2.60478 1.71289,3.23114 0.20658,0.99872 0.34897,1.1496 1.16156,1.22902 0.86126,0.084 0.98263,0.24506 1.72738,2.28249 l 0.80115,2.19168 -4.19173,4.16112 c -2.75368,2.7332 -4.24758,4.43853 -4.35427,4.96992 -0.1501,0.74987 -0.34271,0.84631 -2.64042,1.32276 l -2.47851,0.51425 -1.67658,-1.07027 -1.6762,-1.07003 -3.11785,1.42335 c -3.20985,1.46508 -3.20765,1.46295 -4.95579,4.38806 -0.26326,0.44161 -0.40953,0.4628 -1.00117,0.14694 -0.64565,-0.34475 -0.79667,-0.25267 -2.23855,1.35536 l -1.54627,1.72506 -1.54083,-0.49171 -1.54105,-0.49151 -0.96879,1.08606 c -0.53273,0.59759 -1.37649,1.54913 -1.8749,2.11495 l -0.90626,1.02851 -1.434248,-0.40569 c -0.788766,-0.22292 -3.074379,-0.46983 -5.078715,-0.548 -3.588321,-0.14023 -3.656892,-0.13019 -4.438521,0.60815 -0.436689,0.41297 -1.526318,1.07734 -2.421311,1.47643 -0.895199,0.39918 -2.153809,1.2736 -2.797173,1.94289 -0.643392,0.66937 -1.242477,1.2171 -1.331585,1.21703 -0.0885,-1.3e-4 -0.535406,-0.66411 -0.991959,-1.47524 l 0,0 z" />
<path
   inkscape:label=""
   inkscape:connector-curvature="0"
   style="fill:#ffffff;fill-opacity:1;stroke:#808080;stroke-width:0.49999997;stroke-miterlimit:4;stroke-dasharray:none;stroke-dashoffset:0;stroke-opacity:1"
   id="EDUCACION_AZANGARO"
   d="m 148.32293,244.29583 c -0.54695,-0.65718 -1.14624,-1.13277 -1.33159,-1.0567 -1.3774,0.56553 -1.32729,0.74531 -0.74162,-2.66807 0.30078,-1.75413 0.54831,-3.28404 0.54967,-3.39947 0,-0.11556 -1.159,-0.24844 -2.57899,-0.29541 l -2.58154,-0.0858 -0.19594,-1.18108 c -0.95943,-5.78814 -0.79063,-5.30617 -2.68253,-7.67061 l -1.77627,-2.22046 -3.78966,0 -3.78952,0 -0.36042,-2.53343 c -0.3564,-2.50677 -0.35181,-2.54927 0.43316,-3.98827 l 0.79321,-1.45469 -0.904,-1.09422 -0.90398,-1.0945 0.88432,-0.91031 c 1.1062,-1.13891 1.10579,-1.32517 0,-1.32517 -0.85111,0 -0.88755,-0.0534 -0.88755,-1.29305 0,-1.21923 -0.11942,-1.405 -2.08788,-3.25807 -1.89102,-1.7801 -2.17677,-1.94861 -3.03291,-1.79031 -0.83133,0.154 -1.15024,-0.004 -2.64668,-1.34201 -0.93568,-0.8343 -1.70143,-1.68857 -1.70143,-1.89864 0,-0.59831 1.07856,-2.86793 1.86664,-3.92836 l 0.71507,-0.96174 -0.56669,-2.46216 -0.56683,-2.4623 3.09499,-5.80144 3.09497,-5.80155 -0.31,-1.99422 c -0.29256,-1.87959 -0.38622,-2.0511 -1.63425,-2.98866 -0.97816,-0.735 -1.22051,-1.05893 -0.92763,-1.23936 0.31581,-0.19532 0.27171,-0.3828 -0.21741,-0.92431 -1.17723,-1.30379 -1.14064,-1.4183 0.45159,-1.4183 1.46069,0 1.49726,0.009 2.28947,1.40263 0.44275,0.77131 0.85074,1.46094 0.90695,1.53229 0.15661,0.1984 3.04733,-2.72133 3.04733,-3.07785 0,-0.17292 -0.40689,-0.80578 -0.90426,-1.40759 l -0.90448,-1.09487 1.03414,-3.1922 c 1.26501,-3.90433 2.17701,-8.26307 2.43809,-11.65147 l 0.19591,-2.54654 2.02919,-0.90558 2.02932,-0.90512 0,-1.7844 0,-1.78425 0.6657,0.63786 c 0.36618,0.35048 1.33153,0.95115 2.14531,1.33463 l 1.47954,0.6973 0.0878,-2.06147 c 0.0469,-1.13387 0.15471,-2.0615 0.23794,-2.0615 0.0822,0 0.60972,0.36552 1.1706,0.81211 0.91709,0.72986 1.02007,0.96063 1.02223,2.28801 0,1.47447 0.003,1.4778 1.72084,2.58082 3.14349,2.02041 5.74894,2.65945 13.06662,3.20431 4.54856,0.33827 4.59027,0.34813 5.7908,1.3296 0.66514,0.54394 1.95441,1.3292 2.86497,1.7451 l 1.65577,0.7564 0.34574,2.0449 c 0.19053,1.12476 0.27622,2.15704 0.19114,2.29417 -0.0841,0.13671 -1.19453,0.56674 -2.46573,0.95451 -1.27148,0.38798 -2.67274,0.95093 -3.11428,1.25121 -0.86604,0.58853 -5.2638,5.40706 -5.26248,5.7656 2.9e-4,0.12014 0.49983,0.77963 1.10955,1.4669 l 1.10893,1.24928 2.3151,-0.55213 2.31491,-0.5524 3.52132,1.51748 3.52124,1.51735 0.003,4.21183 c 0.003,4.14689 0.007,4.23631 0.91385,5.81437 l 0.90633,1.60215 -0.90633,0.46734 c -0.85578,0.44185 -0.90631,0.56474 -0.90631,2.21075 l 0,1.7429 -2.21932,1.38031 -2.21904,1.38019 0,1.44573 c 0,0.79499 -0.0791,1.44575 -0.17922,1.44575 -0.0992,0 -0.58152,-0.33764 -1.07307,-0.75024 -0.49123,-0.41289 -0.98063,-0.71181 -1.08729,-0.66439 -0.10532,0.0474 -1.22792,0.47139 -2.49237,0.9428 -1.36677,0.50929 -2.24536,0.99507 -2.1672,1.19829 0.4172,1.08476 1.1449,5.72505 1.63317,10.41562 l 0.56084,5.38463 1.66278,1.79203 c 0.91443,0.98562 1.66284,2.0385 1.66284,2.33959 0,0.52554 0.87905,1.4203 2.34104,2.38213 l 0.68895,0.45338 -0.57274,2.27701 -0.57272,2.27678 0.33455,5.28833 -1.55479,0.004 c -1.40537,0.004 -1.85415,0.20652 -4.65936,2.00703 l -3.10433,1.99309 0,2.63201 c 0,2.51648 0.0509,2.72677 1.18245,4.78396 0.65083,1.18372 1.18357,2.22464 1.18357,2.31358 0,0.0887 -0.85874,0.16171 -1.90838,0.16171 l -1.90805,0 -0.51311,-1.62394 -0.51296,-1.62392 -1.83235,0 c -1.7609,0 -1.83892,0.009 -2.00065,0.81187 -0.11291,0.54578 -0.59649,1.07837 -1.47355,1.62386 -0.71791,0.44668 -1.35776,0.8096 -1.42209,0.80696 -0.0646,0 -0.56447,-0.54325 -1.11132,-1.20039 l 0,0 z" />
<path
   inkscape:label="UGEL PUNO"
   inkscape:connector-curvature="0"
   style="fill:#ffffff;fill-opacity:1;stroke:#808080;stroke-width:0.49999997;stroke-miterlimit:4;stroke-dasharray:none;stroke-dashoffset:0;stroke-opacity:1"
   id="UGEL_PUNO"
   d="m 149.91185,358.41554 -2.88501,-1.7932 0,-2.11235 0,-2.11228 -2.80194,-2.45513 c -2.5302,-2.21701 -3.05953,-2.54114 -5.45725,-3.34372 -2.8259,-0.94564 -2.79627,-0.91454 -3.11791,-3.27877 -0.18539,-1.36002 -0.27677,-1.4674 -3.14164,-3.66871 l -2.95105,-2.26763 1.34131,-0.73609 1.34156,-0.73584 0,-4.47458 c 0,-4.40727 0.004,-4.49857 0.88419,-6.10347 l 0.88432,-1.62907 -0.61566,-1.81867 c -0.33869,-1.00041 -0.71985,-1.81884 -0.84706,-1.81884 -0.12747,0 -0.79757,0.20009 -1.48938,0.44295 -0.69192,0.24378 -1.30792,0.44276 -1.36882,0.44276 -0.0621,0 -0.11048,-0.51532 -0.11048,-1.14547 0,-0.99939 -0.16963,-1.28414 -1.33152,-2.23416 l -1.33141,-1.08858 0,-2.39264 0,-2.39245 -1.94863,-3.05011 c -1.07179,-1.67745 -2.09674,-3.04971 -2.27779,-3.04971 -0.18162,0 -1.45426,0.16189 -2.82896,0.36061 l -2.49967,0.36038 -1.40258,-1.58729 -1.40259,-1.58727 1.39241,-0.69223 c 0.76557,-0.38078 1.94873,-1.16763 2.6291,-1.74874 1.18714,-1.01401 1.23707,-1.12569 1.23707,-2.7614 l 0,-1.7046 1.92103,-0.51904 1.92095,-0.51886 -0.50694,-0.85625 c -0.50218,-0.84832 -0.49381,-0.88277 0.88999,-3.66238 l 1.39691,-2.8062 0,-3.35446 0,-3.35457 0.92478,-0.18503 c 0.50865,-0.1006 2.56458,-0.18444 4.56906,-0.18444 2.00414,0 3.72073,-0.12332 3.81426,-0.27484 0.0929,-0.1512 2.48558,-2.27318 5.31503,-4.7157 l 5.14461,-4.44073 1.53529,1.98442 c 0.84437,1.0914 1.67253,1.98449 1.83996,1.98449 0.1681,0 0.65982,-0.66433 1.09384,-1.47619 l 0.78947,-1.47636 1.97033,0.0873 1.97066,0.0865 2.73792,-3.41322 c 2.89345,-3.60695 2.61863,-3.41683 6.2217,-4.30357 1.19604,-0.29478 1.54467,-0.56959 2.57212,-2.03115 l 1.18838,-1.69088 2.15033,0.25661 c 1.18235,0.14079 2.1652,0.28394 2.18374,0.31769 1.0033,1.83464 1.95241,3.1702 3.61019,5.08093 l 2.04974,2.3621 0.53641,3.33436 c 0.52885,3.28753 0.55329,3.34925 1.74028,4.3627 0.66191,0.56563 1.37187,0.96393 1.57719,0.88522 0.34926,-0.13367 1.27734,0.8651 1.27734,1.37446 0,0.12639 -0.43816,0.22916 -0.97426,0.22916 -0.7754,0 -1.48443,-0.42795 -3.4767,-2.0984 -1.37616,-1.15405 -2.59727,-2.18512 -2.71294,-2.29126 -0.11546,-0.1054 -0.003,-0.89186 0.24557,-1.74593 l 0.4563,-1.55241 -2.14127,-2.2825 c -2.31802,-2.47115 -3.23021,-3.76133 -3.23189,-4.57073 0,-0.44915 -0.31136,-0.51684 -2.36818,-0.51684 -1.302,0 -2.3671,0.0463 -2.3671,0.10186 0,0.054 0.24988,0.82524 0.55443,1.70997 0.54383,1.57684 1.38188,5.83299 1.17696,5.9765 -3.27486,2.29362 -3.21093,2.21887 -3.21093,3.75203 0,0.79816 -0.0621,1.4513 -0.13818,1.4513 -0.0758,0 -0.76745,-0.39867 -1.53733,-0.8858 -0.76994,-0.48715 -1.48853,-0.88582 -1.59686,-0.88582 -0.10841,0 -0.81425,0.49823 -1.56849,1.10736 l -1.37118,1.10687 0,2.30406 c -4.7e-4,1.26708 0.20934,3.22691 0.46655,4.35485 l 0.46771,2.05135 1.30764,0 c 1.19782,0 1.30789,0.0625 1.30789,0.73808 0,0.6187 -0.1397,0.73818 -0.86331,0.73818 -1.12791,0 -1.79967,0.26975 -1.79967,0.72261 0,0.61087 1.80105,4.00134 2.12552,4.00134 0.16754,0 1.0753,-0.19862 2.01827,-0.44304 l 1.71384,-0.44316 1.52499,1.02416 c 1.45325,0.97565 3.13605,1.62857 4.20778,1.63221 0.30357,7.5e-4 0.56687,0.32983 0.68161,0.85273 0.10197,0.46825 0.67152,1.41548 1.26338,2.10534 l 1.07601,1.25414 0.70488,-0.85062 c 2.164,-2.61139 3.6211,-4.97937 3.6211,-5.88499 0,-0.9401 -0.005,-0.95195 -1.03556,-0.72277 l -1.03556,0.23316 0,-1.96199 c 0,-1.89725 0.0339,-1.98956 1.0616,-2.80696 0.58367,-0.46503 1.16801,-0.73064 1.29862,-0.59037 0.12968,0.13982 0.78468,0.89368 1.45366,1.67491 l 1.21623,1.42057 0,2.82576 c 0,4.29677 0.88965,5.40533 4.33703,5.40533 1.21424,0 1.83832,-0.16043 2.42186,-0.61978 l 0.78644,-0.61945 0.1476,1.72073 0.14764,1.72112 2.19974,0.84118 c 2.12404,0.81269 2.24017,0.82577 3.38125,0.37825 0.65024,-0.25523 1.24506,-0.39998 1.32235,-0.3231 0.0773,0.0771 -0.0951,1.00583 -0.38137,2.06368 l -0.52168,1.92334 -1.27354,0 -1.27331,0 -0.50948,2.15605 -0.50924,2.1561 -2.17887,1.42277 c -1.19849,0.78259 -2.17897,1.51899 -2.17897,1.6365 0,0.11707 0.28105,0.46671 0.62357,0.77616 0.34301,0.30952 0.87748,0.91772 1.1876,1.35174 l 0.56384,0.78931 -1.55725,3.54975 -1.55764,3.54977 -1.75525,0.0885 -1.75525,0.0905 -1.23055,2.9524 c -1.22604,2.94287 -1.23389,2.95312 -2.33592,3.04567 -1.09402,0.0915 -1.10385,0.10437 -0.94394,1.18096 0.0884,0.5985 0.24933,2.84015 0.35555,4.98152 l 0.19447,3.89337 -1.81912,0.20527 c -1.00037,0.11242 -1.91212,0.35415 -2.02606,0.53554 -0.11454,0.18199 -1.3116,2.64647 -2.66122,5.4775 -1.34989,2.83064 -2.5144,5.20712 -2.58795,5.28054 -0.074,0.074 -0.45652,-0.0777 -0.85084,-0.33497 -0.71112,-0.46498 -0.75114,-0.43384 -5.00211,3.89074 -2.35687,2.39776 -4.37159,4.63098 -4.47709,4.96284 -0.13605,0.42899 -0.38261,0.56805 -0.85119,0.481 -0.36271,-0.0687 -1.64296,0.28359 -2.84541,0.78044 -1.20211,0.49654 -2.26734,0.89973 -2.36699,0.89636 -0.0999,0 -1.47956,-0.81356 -3.06632,-1.80003 l 0,0 z" />
<path
   inkscape:label=""
   inkscape:connector-curvature="0"
   style="fill:#ffffff;fill-opacity:1;stroke:#808080;stroke-width:0.49999997;stroke-miterlimit:4;stroke-dasharray:none;stroke-dashoffset:0;stroke-opacity:1"
   id="EDUCACION_PUTINA"
   d="m 169.94552,218.75466 c -0.46966,-1.68558 -0.57441,-1.81204 -2.6052,-3.14738 l -2.11582,-1.39122 -0.008,-3.77036 c -0.003,-2.25394 -0.2619,-5.22198 -0.61474,-7.37854 l -0.59115,-3.60799 3.42583,-0.0822 c 2.06533,-0.0501 3.41054,-0.20024 3.38716,-0.37784 -0.006,-0.16205 -0.1258,-0.89944 -0.23139,-1.63756 l -0.19194,-1.34236 1.85873,-1.35251 c 1.7157,-1.24865 1.95878,-1.57167 3.1674,-4.21418 l 1.30922,-2.86171 -0.77197,-1.57034 c -0.68302,-1.39002 -0.79628,-2.07533 -0.98433,-5.95846 -0.18808,-3.89182 -0.29109,-4.51326 -0.91071,-5.49522 -0.69079,-1.09508 -1.28292,-1.44129 -1.28292,-0.75073 0,0.19664 -0.60807,-0.23487 -1.35147,-0.95957 -1.34799,-1.31217 -1.35331,-1.31424 -1.85777,-0.70014 -0.44484,0.5419 -0.94066,0.63754 -4.12236,0.79731 l -3.61648,0.1816 0,-1.41931 0,-1.41906 3.25051,-2.25704 c 2.98762,-2.07434 3.36956,-2.25695 4.72093,-2.25695 1.44724,0 1.47329,-0.005 1.66561,-1.03737 0.10653,-0.5705 0.13143,-1.36801 0.0535,-1.77147 l -0.14044,-0.73416 2.46654,0 c 2.44123,0 2.47107,0.004 2.92548,0.88585 0.52011,1.00375 0.7803,1.05364 2.44426,0.4677 1.18461,-0.41704 1.18903,-0.41578 2.18238,0.61703 2.83502,2.94686 4.32739,3.97097 6.53202,4.48224 l 2.14282,0.49675 1.23789,3.09468 c 0.68093,1.70212 1.53548,4.33505 1.89886,5.85116 0.3873,1.61632 0.83513,2.82337 1.08246,2.91808 0.23187,0.0895 1.57983,-0.38753 2.99533,-1.05885 1.41543,-0.67107 2.99113,-1.22015 3.50158,-1.22015 0.76083,0 0.98268,-0.1565 1.23135,-0.8686 0.24132,-0.69143 0.53371,-0.90997 1.43455,-1.07322 0.62191,-0.11208 1.62495,-0.45277 2.22872,-0.75558 0.60387,-0.30276 1.4828,-0.55061 1.95303,-0.55061 0.78896,0 2.98767,1.306 3.44721,2.0475 0.12477,0.20151 1.92211,0.3144 5.0173,0.3144 l 4.82219,0 0.66711,-3.91231 c 0.96768,-5.67397 1.43147,-7.54082 2.34915,-9.45478 l 0.81714,-1.70466 -0.52271,-2.71607 -0.52309,-2.71606 1.31165,-1.7613 c 1.23299,-1.65564 1.31211,-1.87557 1.31211,-3.6613 0,-1.58862 0.0676,-1.84394 0.4111,-1.5592 0.85325,0.70644 1.64969,3.30128 2.23495,7.28042 0.33318,2.26254 0.60611,4.21347 0.6071,4.33539 0,0.12159 1.01293,0.22125 2.24933,0.22125 l 2.24779,0 1.90875,1.6723 1.90904,1.67215 -1.16055,1.20651 c -1.04108,1.08251 -1.21334,1.48553 -1.67542,3.92342 l -0.51493,2.71686 -1.96337,-0.1917 c -3.60024,-0.3524 -3.21698,-0.5997 -4.45672,2.87793 -0.60772,1.70514 -1.52727,3.92681 -2.04314,4.9373 -0.51574,1.01012 -0.93771,1.97763 -0.93771,2.14967 0,0.17202 0.59225,1.19397 1.31627,2.27067 1.92742,2.86721 1.58979,3.26711 -3.32642,3.93692 l -2.75001,0.37456 -1.83633,1.97068 c -1.04692,1.12319 -2.46037,2.2788 -3.28756,2.68736 -0.79763,0.39448 -1.72141,1.08239 -2.05285,1.52867 -1.06234,1.43241 -1.55638,1.08639 -2.10607,-1.47603 -0.27003,-1.2587 -0.53793,-2.43419 -0.59504,-2.61253 -0.17761,-0.55337 -2.71845,-1.57783 -4.40425,-1.77555 -1.91738,-0.22431 -1.66999,-0.72725 -2.70714,5.49521 -0.979,5.87304 -1.55423,7.9725 -2.18351,7.96968 -0.26322,0 -1.27765,-0.12167 -2.2541,-0.26809 -0.97648,-0.14637 -2.34138,-0.34595 -3.03311,-0.44411 l -1.25754,-0.17851 0,1.77501 0,1.77512 -3.67953,0 c -4.13943,0 -5.03997,0.2188 -5.31018,1.29419 -0.10354,0.41071 -0.3234,1.1017 -0.48839,1.53568 l -0.30077,0.78929 -1.7463,-1.66187 c -1.73027,-1.6462 -1.76353,-1.6619 -3.54815,-1.6619 l -1.80132,0 0.4481,1.06925 c 0.2455,0.58827 0.44766,1.18607 0.44766,1.32864 0,0.14268 -0.64476,0.25902 -1.4329,0.25902 l -1.43287,0 -1.13968,2.43576 c -0.62671,1.33973 -1.83901,3.88822 -2.69385,5.66294 l -1.55377,3.22718 -0.48934,-1.75598 0,0 z" />
<path
   inkscape:label=""
   inkscape:connector-curvature="0"
   style="fill:#ffffff;fill-opacity:1;stroke:#808080;stroke-width:0.49999997;stroke-miterlimit:4;stroke-dasharray:none;stroke-dashoffset:0;stroke-opacity:1"
   id="EDUCACION_HUANCANE"
   d="m 165.22737,261.28771 c -0.39557,-0.22959 -0.51795,-0.69108 -0.51795,-1.9482 0,-1.47643 -0.11017,-1.76916 -1.06449,-2.82302 -0.98738,-1.09059 -2.47681,-3.80332 -2.48349,-4.52335 0,-0.17259 1.20669,-0.55744 2.68488,-0.85696 l 2.68722,-0.54455 -0.19077,-1.06193 c -0.10481,-0.58407 -0.75066,-2.32432 -1.43583,-3.86704 -1.15317,-2.5962 -1.22751,-2.91755 -1.00124,-4.31878 l 0.24477,-1.514 4.79148,-2.20095 4.79176,-2.20098 0.0792,-1.45202 c 0.044,-0.79878 0.2715,-3.71891 0.50695,-6.48964 l 0.42714,-5.03747 1.31613,-2.19629 c 0.72376,-1.20787 1.62688,-3.09297 2.00715,-4.18892 l 0.69149,-1.99322 1.734,0 c 1.46466,0 1.70597,-0.0737 1.55307,-0.47036 -0.99822,-2.59541 -0.1403,-2.49502 2.7618,0.32278 1.25449,1.21796 2.36135,2.21439 2.46007,2.21439 0.0989,0 0.34378,-0.73223 0.54447,-1.62716 0.20094,-0.89515 0.51004,-1.7434 0.68692,-1.88505 0.1769,-0.14147 1.26333,-0.59366 2.41404,-1.00438 2.00387,-0.71537 2.17222,-0.72957 3.99477,-0.33988 3.04473,0.6514 2.93823,0.70443 2.93823,-1.45997 l 0,-1.88767 1.11239,0.24966 c 0.61159,0.13698 2.10959,0.58733 3.32876,1.00009 1.21904,0.41271 2.24989,0.75155 2.29047,0.75229 0.0414,0 0.0752,-0.79152 0.0752,-1.76172 0,-1.66113 0.0525,-1.79042 0.88775,-2.22199 1.0371,-0.53483 1.03081,-0.48987 0.40233,-2.98736 l -0.48517,-1.92765 1.43092,-1.44977 1.43109,-1.44978 -0.47471,-1.48113 c -0.5739,-1.79081 -0.40555,-1.8486 1.97937,-0.68156 1.41456,0.69229 1.63406,0.91344 1.63406,1.64534 0,0.90271 0.95976,2.69016 2.3071,4.29739 l 0.82575,0.98448 2.28816,-2.31303 2.28816,-2.31352 -0.14946,2.21435 c -0.082,1.21801 -0.22422,4.54801 -0.31684,7.40025 l -0.16756,5.18552 0.97456,1.04652 c 0.53608,0.57575 2.03607,3.07994 3.33323,5.56541 2.74495,5.25945 3.66183,6.38097 5.45074,6.66636 1.12581,0.1794 1.55135,0.52887 4.24145,3.48068 4.1228,4.52405 5.85113,6.63162 5.85113,7.13478 0,0.30028 -0.34442,0.42749 -1.15911,0.42749 -1.10134,0 -1.18456,-0.0662 -1.66758,-1.3287 -0.48871,-1.27677 -0.55591,-1.32885 -1.72584,-1.3294 -1.18151,-8.9e-4 -1.24378,-0.051 -2.10498,-1.6975 -0.78812,-1.50561 -1.01072,-1.71575 -1.9817,-1.86918 -1.11552,-0.17623 -1.54299,-0.42202 -2.96685,-1.70605 l -0.80548,-0.72659 -3.26309,1.44678 -3.26279,1.44684 0,1.0521 0,1.05232 -2.56969,0.49431 c -2.15502,0.4143 -2.74021,0.65485 -3.62485,1.48952 -0.58005,0.54755 -1.55298,1.36244 -2.16163,1.81107 -1.34084,0.98842 -2.27495,0.86082 -3.69843,-0.5059 l -0.95812,-0.91991 -0.77017,0.71912 c -1.33113,1.24273 -2.78767,3.4259 -2.78767,4.17838 0,0.70989 -0.0608,0.69215 -3.32874,-0.96931 -1.83086,-0.93094 -3.89577,-1.86016 -4.58844,-2.06487 -0.69321,-0.2051 -1.80143,-0.83493 -2.4629,-1.40002 -1.19906,-1.02405 -1.21057,-1.02669 -3.40146,-0.84196 -2.01726,0.16997 -3.48236,0.59733 -4.52673,1.32013 -0.33862,0.23386 -0.31584,0.43488 0.13593,1.19801 0.50655,0.85619 0.51171,0.99988 0.0747,2.17452 -0.40816,1.09819 -0.57176,1.24985 -1.29156,1.19575 -0.45437,-0.0338 -1.59631,-0.66021 -2.54525,-1.39546 l -1.72094,-1.33379 -3.04159,1.05275 c -2.97939,1.03118 -4.9651,2.16951 -4.9651,2.84637 0,0.18673 0.40624,0.7582 0.9031,1.26971 l 0.90291,0.92957 -1.04451,0.91525 c -0.57468,0.50334 -1.49958,1.00028 -2.0552,1.10435 -0.93933,0.17566 -1.04544,0.3134 -1.50636,1.95187 l -0.49569,1.76277 1.4822,3.50193 c 0.8153,1.92589 1.57763,4.01044 1.69437,4.6321 0.19034,1.0118 0.16263,1.08949 -0.25926,0.7406 -0.53153,-0.4394 -0.93922,-0.28422 -3.07761,1.17145 -1.33247,0.90727 -1.73281,0.98979 -2.53555,0.52316 l 0,0 z" />
<path
   inkscape:label=""
   inkscape:connector-curvature="0"
   style="fill:#ffffff;fill-opacity:1;stroke:#808080;stroke-width:0.49999997;stroke-miterlimit:4;stroke-dasharray:none;stroke-dashoffset:0;stroke-opacity:1"
   id="EDUCACION_MOHO"
   d="m 222.63413,262.7278 c 0,-1.52994 -0.6932,-3.05977 -1.67824,-3.70382 -0.72848,-0.47643 -1.49272,-0.41676 -4.2727,0.33391 -0.31948,0.0865 -1.52755,-1.0432 -3.65937,-3.42143 -2.87873,-3.2109 -3.27799,-3.54995 -4.18339,-3.54995 -1.15982,0 -1.1259,0.0748 -0.56896,-1.2548 0.23794,-0.56778 0.34856,-1.11528 0.24633,-1.2173 -0.10092,-0.10092 -0.71129,-0.18485 -1.35371,-0.18485 -1.00156,0 -1.32725,-0.1787 -2.28534,-1.25505 l -1.11743,-1.25487 -1.17232,0.93853 -1.17214,0.93845 -1.67131,-1.68516 c -1.67082,-1.68489 -1.67116,-1.68537 -1.67116,-3.52206 l 0,-1.8367 -0.96172,-0.009 -0.96165,-0.008 0.83295,-0.30308 c 0.72601,-0.26376 1.21824,-0.11324 3.84651,1.17539 3.1506,1.54507 5.40497,2.34906 5.716,2.03873 0.10102,-0.0999 -0.009,-0.71974 -0.29545,-1.37598 l -0.47861,-1.19319 0.86717,0 c 0.801,0 0.88248,-0.10164 1.06699,-1.32865 0.10961,-0.7307 0.27959,-1.32866 0.37779,-1.32866 0.097,0 0.78185,0.59227 1.51979,1.31588 l 1.34167,1.31599 1.28927,-0.57776 c 1.28876,-0.57703 4.42488,-2.91356 5.48818,-4.08852 0.46833,-0.51742 0.90444,-0.62291 2.57229,-0.62291 l 2.00838,0 0.0909,-1.22968 0.0911,-1.22944 2.51501,-0.84262 2.51513,-0.84236 2.58917,0.95673 2.58903,0.95664 0,1.06866 c 0,1.04945 0.009,1.07797 1.77546,1.60475 1.48737,0.44932 1.77551,0.64489 1.77551,1.2033 0,0.36674 0.15743,0.71925 0.34991,0.78328 0.60296,0.20089 -1.41583,4.05662 -2.69669,5.15058 -0.62869,0.53708 -1.84516,2.06837 -2.70299,3.40283 l -1.5597,2.42597 0.35591,2.07112 c 0.19591,1.13919 0.68429,2.63013 1.08567,3.31309 1.19368,2.0324 0.84283,2.07764 -1.16847,0.14998 -1.04376,-1.00017 -2.00955,-1.81841 -2.14595,-1.81841 -0.13619,0 -0.7634,0.82196 -1.39279,1.82671 -0.8541,1.36364 -1.20273,2.29562 -1.37417,3.67619 -0.21959,1.76456 -0.84455,3.05618 -1.90455,3.93387 -0.40068,0.33193 -0.45759,0.22321 -0.45759,-0.86738 z" />
<path
   inkscape:label=""
   inkscape:connector-curvature="0"
   style="fill:#ffffff;fill-opacity:1;stroke:#808080;stroke-width:0.49999997;stroke-miterlimit:4;stroke-dasharray:none;stroke-dashoffset:0;stroke-opacity:1"
   id="EDUCACION_CHUCUITO_-_JULI"
   d="m 204.98498,404.57719 c -0.20324,-0.54453 -1.3545,-5.37348 -1.35744,-5.69414 0,-0.12754 0.2558,-0.093 0.5703,0.0744 0.91569,0.48905 1.14996,0.38925 2.84811,-1.21339 l 1.60972,-1.51921 0,-4.85553 0,-4.85584 -0.96167,-1.1202 -0.9616,-1.11995 0.16171,-4.43862 0.16166,-4.43873 1.24298,-1.76798 c 0.68371,-0.97268 1.63053,-2.58562 2.10413,-3.5848 l 0.86086,-1.81652 -1.13231,-2.41846 c -0.62267,-1.3302 -1.22282,-2.90976 -1.33422,-3.5102 l -0.20182,-1.09151 1.72576,-0.0906 1.7257,-0.0904 0.36399,-1.62389 c 0.20056,-0.8931 0.49279,-3.48405 0.65007,-5.75737 0.18728,-2.70466 0.55326,-5.14606 1.05909,-7.06186 l 0.77322,-2.92832 -0.79468,-2.17403 c -0.43714,-1.19569 -0.87513,-2.21693 -0.97365,-2.26945 -0.44703,-0.23847 -5.96763,0.50997 -7.42839,1.00695 l -1.62735,0.55331 -2.92831,-0.79696 c -2.8696,-0.78136 -2.95159,-0.82802 -4.10195,-2.3445 l -1.17372,-1.54699 0.93911,-1.06706 c 0.86029,-0.97798 0.90039,-1.10966 0.47708,-1.57628 -0.25422,-0.28013 -0.46188,-0.59408 -0.46188,-0.69776 0,-0.40351 3.21129,-2.58077 4.4483,-3.01619 1.35706,-0.47787 2.4746,-1.34657 3.03416,-2.35874 0.17944,-0.32438 0.46778,-2.38416 0.64014,-4.57626 l 0.31368,-3.98611 2.05219,0.0686 c 1.90598,0.064 2.12758,0.14267 3.11764,1.10716 0.97955,0.95441 1.2096,1.03864 2.84256,1.03864 1.68312,0 1.83768,-0.0626 2.93263,-1.18115 0.63551,-0.64961 1.31804,-1.18109 1.51684,-1.18109 0.70192,0 2.13602,1.50378 3.93968,4.13141 l 1.82543,2.6594 2.72083,0.004 2.72085,0.004 0.96325,1.24569 c 0.52968,0.68522 1.22693,1.5576 1.54983,1.93847 l 0.58646,0.69275 1.40933,-1.2421 c 1.46059,-1.28724 2.3709,-1.76722 3.35161,-1.76722 0.50005,0 0.5726,0.21625 0.5726,1.70579 l 0,1.70549 2.51525,1.24476 2.51504,1.24475 0,3.10227 c 0,3.37872 8.7e-4,3.38016 1.73126,2.77828 0.83059,-0.28915 0.93193,-0.44942 0.93193,-1.47632 0,-0.72631 0.13635,-1.15112 0.36979,-1.14941 0.55264,0 3.16818,1.61465 4.4921,2.76605 l 1.16327,1.01181 -1.42386,1.57883 c -1.5273,1.69412 -3.71365,4.76576 -3.71365,5.21744 0,0.1515 0.22189,0.4577 0.49321,0.68057 1.0958,0.90031 2.16991,2.73039 2.16991,3.6973 0,0.93924 0.0534,0.9892 1.06756,0.9892 0.97337,0 1.05243,0.0621 0.89307,0.69411 -0.10686,0.42789 0.27763,2.03735 1.00386,4.19369 0.64776,1.92451 1.17799,3.66989 1.17799,3.87844 0,0.83153 -8.05197,4.10147 -11.48576,4.66466 -0.91288,0.14981 -1.35046,0.39047 -1.53379,0.84422 -1.39395,3.44943 -2.4809,5.81849 -3.3051,7.20315 -0.54194,0.91074 -3.14921,3.87378 -5.79361,6.58415 l -4.80856,4.92817 -0.005,1.73676 -0.005,1.73669 -1.98073,0.9628 c -1.08945,0.52947 -2.4364,1.35542 -2.99317,1.83534 l -1.01251,0.87237 0.49859,2.74133 0.49861,2.74091 -1.23782,1.06325 c -1.16067,0.99663 -1.30903,1.04521 -2.37739,0.77431 -1.12434,-0.28446 -1.18162,-0.25689 -4.31079,2.11096 l -3.17142,2.39964 -1.84325,0 c -1.70924,0 -1.87445,0.0593 -2.27379,0.81204 -0.32207,0.60752 -0.47193,0.70014 -0.5959,0.36886 l 0,0 z" />
<path
   inkscape:label=""
   inkscape:connector-curvature="0"
   style="fill:#ffffff;fill-opacity:1;stroke:#808080;stroke-width:0.49999997;stroke-miterlimit:4;stroke-dasharray:none;stroke-dashoffset:0;stroke-opacity:1"
   id="EDUCACION_COLLAO"
   d="m 187.59975,414.51964 c -0.51063,-0.5403 -1.25834,-1.60306 -1.66202,-2.36213 l -0.73358,-1.38011 -2.99271,0 -2.99269,0 -3.96139,-1.82433 c -3.21384,-1.47992 -4.38032,-2.1967 -6.18075,-3.79676 -1.97969,-1.75954 -5.93006,-4.4176 -6.56496,-4.4176 -0.1328,0 -0.24032,-1.28509 -0.24032,-2.85575 l 0,-2.85594 -2.21926,-2.04057 c -2.11509,-1.94481 -2.21905,-2.10112 -2.21905,-3.33872 0,-1.21358 -0.0963,-1.36989 -1.47479,-2.3967 -1.35222,-1.0073 -1.44211,-1.14867 -1.08462,-1.7034 0.21453,-0.33263 0.87803,-1.48132 1.47469,-2.55263 1.02231,-1.83573 1.08472,-2.0989 1.08472,-4.586 l 0,-2.63821 2.82706,-3.4599 c 2.74139,-3.35491 2.86269,-3.4598 3.99467,-3.4598 0.64201,0 1.16839,-0.0997 1.16978,-0.2216 0,-0.12193 0.14555,-1.085 0.32047,-2.14058 0.23523,-1.41922 0.22325,-2.7521 -0.0455,-5.11761 l -0.36307,-3.19826 -1.21657,-0.58976 -1.21683,-0.58994 4.34762,-4.41678 4.34759,-4.41668 1.09931,0.45836 c 0.60491,0.25175 1.13031,0.42357 1.16733,0.38073 0.0371,-0.0439 0.69631,-1.24322 1.4647,-2.66815 1.10129,-2.04211 1.32417,-2.67782 1.05327,-3.0034 -0.27569,-0.33157 -0.21064,-0.43246 0.32939,-0.50988 0.55582,-0.0794 0.82907,-0.54605 1.57073,-2.67904 l 0.89774,-2.5824 1.79491,0 1.795,0 0.83192,-1.73691 0.83204,-1.73685 -0.9559,-3.14479 -0.95562,-3.14459 1.32087,-1.16049 c 0.92447,-0.81183 1.62194,-1.82828 2.32351,-3.38516 l 1.00248,-2.225 1.63203,-2e-4 1.63174,-3.7e-4 2.31208,-4.62554 c 1.76477,-3.53074 2.21919,-4.67898 1.91893,-4.85174 -0.21633,-0.12386 -0.82795,-0.54986 -1.35952,-0.94546 l -0.96638,-0.71932 2.22023,-1.44108 c 2.09785,-1.36212 2.2202,-1.50156 2.22388,-2.53053 0,-1.01083 0.1301,-1.16739 1.76685,-2.17509 l 1.7632,-1.0859 0.0866,-1.99132 0.0864,-1.99092 3.6987,1.00281 c 2.03432,0.5517 4.80782,1.33778 6.16375,1.74717 l 2.4648,0.74419 0.72854,1.64387 c 0.40075,0.90408 0.65695,1.71538 0.56929,1.80288 -0.0876,0.0864 -0.49886,0.004 -0.91416,-0.18461 -0.41511,-0.18859 -0.81522,-0.34319 -0.88891,-0.34319 -0.074,0 -0.13372,0.93516 -0.13372,2.07811 l 0,2.07815 -2.3434,3.0288 c -1.28884,1.66588 -2.57852,3.52093 -2.86582,4.1224 l -0.52257,1.09334 -2.31238,0 c -1.45437,0 -2.3124,0.11831 -2.3124,0.31798 0,0.40382 -1.15035,8.18274 -1.33305,9.01446 -0.0876,0.4024 -0.58282,0.79393 -1.39908,1.10801 -2.03614,0.7837 -4.89026,2.73871 -5.38146,3.68603 -0.24991,0.48201 -0.73162,1.88561 -1.07075,3.11923 l -0.61671,2.24246 1.82188,2.0305 1.82188,2.03045 2.26489,0.17941 c 7.87681,0.6243 7.44321,0.63013 7.44321,-0.10091 0,-0.58713 0.11152,-0.64418 0.96157,-0.49371 0.52894,0.0927 1.64863,0.25684 2.48813,0.36244 1.41652,0.17831 1.55638,0.26977 1.9413,1.26526 0.38716,1.00208 0.33594,1.37631 -0.77948,5.68172 l -1.19385,4.60934 0.4788,1.9965 c 0.45735,1.90719 0.45221,2.07442 -0.10786,3.73192 l -0.58737,1.73515 -1.67423,0 c -1.54693,0 -1.71239,0.0684 -2.17513,0.88054 -0.49332,0.86495 -0.48235,0.91898 0.69934,3.43519 1.95673,4.16635 1.9083,4.62511 -0.92708,8.82126 l -1.39651,2.06686 -0.19769,4.39494 -0.19775,4.39483 1.0386,1.26478 1.0385,1.26448 0,4.47267 c 0,4.36988 -0.005,4.49593 -0.77475,5.48635 -0.71281,0.93266 -0.902,1.01371 -2.36029,1.01371 -1.36608,0 -1.65293,0.10186 -2.07165,0.74009 -0.46723,0.71142 -0.43789,0.85204 0.75495,3.61699 0.6825,1.58225 1.45014,3.10782 1.7056,3.3901 0.42991,0.47498 0.31037,0.66447 -1.6082,2.54478 -1.93428,1.89578 -2.10718,2.17247 -2.58984,4.13696 l -0.51703,2.10563 -3.40238,0 c -3.27675,0 -3.42385,0.009 -3.98418,0.73799 -0.78968,1.00199 -1.62162,0.92756 -2.72874,-0.24383 z" />
<path
   inkscape:label=""
   inkscape:connector-curvature="0"
   style="fill:#ffffff;fill-opacity:1;stroke:#808080;stroke-width:0.49999997;stroke-miterlimit:4;stroke-dasharray:none;stroke-dashoffset:0;stroke-opacity:1"
   id="EDUCACION_YUNGUYO"
   d="m 249.14369,333.4075 0.48412,-0.73685 -3.1626,-1.4734 c -3.0258,-1.40999 -3.19944,-1.45461 -4.01263,-1.03516 l -0.84984,0.43861 -0.0888,-1.54214 -0.0897,-1.54216 -2.21896,-1.27243 c -1.22075,-0.69972 -2.37959,-1.36916 -2.57564,-1.48775 -0.49801,-0.30184 0.11037,-2.61217 0.75725,-2.87657 0.26802,-0.10939 1.59809,-0.57918 2.95626,-1.044 2.2059,-0.75464 2.62434,-0.81176 3.92058,-0.5344 l 1.45117,0.31046 0,1.26414 c 0,1.21724 0.0469,1.28202 1.2716,1.74853 0.69921,0.26613 1.84764,1.07056 2.55208,1.78659 l 1.28079,1.30241 -0.21588,3.43905 c -0.20595,3.29402 -0.24555,3.45109 -0.9439,3.71577 -1.0284,0.39008 -1.05736,0.36427 -0.51569,-0.46076 l 0,0 z" />
<path
   inkscape:label=""
   inkscape:connector-curvature="0"
   id="EDUCACION_CRUCERO"
   d="m 188.2215,164.28646 -0.51333,-2.30496 -1.79662,-2.04891 -1.53992,-0.7684 -2.0536,-0.76832 -0.76994,-4.09788 -0.51319,-2.8172 -2.31009,0 -1.0267,-2.04896 -0.25658,-2.56107 -2.30992,-0.25633 -3.08008,-0.76808 -0.25658,-3.84165 3.33664,-6.40288 0.51325,-3.32945 2.05337,-3.84166 4.10677,-3.84166 1.54002,-0.25638 -0.51337,-3.07354 4.62009,-5.89052 1.02672,-3.07326 -1.02672,-1.53673 -2.31006,-1.53672 -2.5667,-1.28056 -1.79659,-3.07336 -1.28339,-2.81729 -0.51337,-2.04878 1.79676,-2.5611 0.76993,-1.792853 0.25657,-4.097781 1.28326,-5.122044 1.7967,-4.35398 -1.7967,-1.0247 0.25656,-2.048648 2.05328,0 1.54005,-3.073266 1.02678,0 1.53999,-2.049104 1.79662,-5.634322 -0.25656,-1.536744 -36.4472,-11.525085 -1.54005,1.5366 -1.027,1.792728 2.31022,2.561161 -2.56668,1.28063 -0.51328,3.329389 0.51328,1.280654 0.25657,1.536676 -0.25657,3.073323 2.56668,3.32954 1.02669,3.841538 2.82333,1.792793 1.02687,2.304957 -0.51352,3.073503 -1.28327,2.817291 3.84992,1.792831 2.31016,2.56114 3.08012,-1.536861 2.30998,3.329413 -0.5132,1.792931 2.82326,2.30495 1.79674,0.25639 -3.08029,3.84171 -4.87649,4.60996 -3.33677,3.8416 -0.77014,1.28046 -4.36316,0.25631 -2.31023,2.0489 -0.25658,1.79273 -1.79667,0.25634 -2.30992,2.04892 1.02663,2.56119 -2.31006,0 -2.31016,-1.79289 c 0,0 0.51346,1.02438 -0.7697,1.28045 -1.28355,0.25632 -1.79693,2.30508 -1.79693,2.30508 l -2.05332,2.04892 2.8234,3.84145 3.08014,2.81751 3.33663,2.81713 0.25684,1.79285 -2.82351,1.79277 0.51348,2.81725 -3.08021,2.305 -1.53984,3.5856 -0.51337,1.28056 5.90337,3.58554 6.16018,1.28063 3.08009,0 2.82324,0.25609 3.59346,2.04896 4.61991,4.09784 6.16014,1.79282 5.13347,1.7927 2.82352,2.04904 1.79652,1.79251 z"
   style="fill:#ffffff;fill-opacity:1;fill-rule:evenodd;stroke:#808080;stroke-width:0.49999997;stroke-linecap:butt;stroke-linejoin:miter;stroke-miterlimit:4;stroke-dasharray:none;stroke-opacity:1" />
<path
   inkscape:label=""
   inkscape:connector-curvature="0"
   id="EDUCACION_CARABAYA_-_MACUSANI"
   d="m 84.066833,122.07679 0.76991,-6.14674 2.310094,-1.53664 0.769967,-3.58561 -1.02675,-5.63444 -3.07993,-1.53675 5.389981,1.28051 4.620148,2.04913 2.823387,1.5368 0,-4.35402 0.25661,-3.58569 -2.823428,-3.5855 0,-2.30502 0.256589,-4.610189 1.796649,-0.256059 4.36346,-0.256343 4.36341,-2.817141 3.08003,-2.560925 3.07985,-0.512479 -0.51319,-3.58552 0,-2.049077 3.08011,-1.536731 3.8501,-5.890447 -0.25686,-2.048929 1.54009,-2.561085 0,-2.305091 3.85,-0.256001 2.30999,-3.841798 3.59342,-0.76845 -3.07994,-4.609939 -2.82347,-0.768274 1.02672,-2.305035 1.02666,-7.939515 26.18043,9.476223 -2.82334,3.329355 1.02659,2.048976 1.54016,0 -3.08019,4.097738 0.25664,3.585554 1.02686,3.073327 2.56663,6.146659 1.28343,2.561224 2.82322,2.048822 1.28332,3.329633 -1.79652,2.304945 0.5132,4.353855 4.10665,1.792804 2.31017,1.536598 2.31,-1.024353 0.77004,2.817288 2.56673,3.07332 -0.51339,2.04894 c 0,0 -5.39009,5.63442 -6.16003,6.91502 -0.76996,1.28042 -2.56682,2.56101 -2.56682,2.56101 l -3.84996,0.51228 -4.10685,2.04884 0.5135,1.53668 -1.54008,0.51238 -2.8235,2.30484 1.02686,3.32944 -3.08026,-3.32944 -2.56659,2.30515 -2.56658,3.07306 -1.54006,3.07359 2.82326,2.04896 2.82351,2.8172 3.84986,2.81711 1.28346,2.56121 -4.36353,1.02441 1.02696,3.07322 -2.05346,2.30513 -1.79672,4.0978 -3.0801,-1.53667 -1.54006,1.79296 -3.33655,-1.79296 -1.54014,-2.56113 -0.2566,-2.56121 -2.05351,-3.32928 -4.36316,-1.79281 -3.33668,0.51207 -5.13359,2.56123 -1.28325,0.25636 -2.31006,0 -2.5667,-1.28049 -2.0532,-2.56125 -1.54008,0 -4.10672,0.51233 -2.05349,-1.79311 -2.56661,-1.0241 -2.05347,-2.30497 0,-1.0248 -1.796617,-1.02426 -4.876727,-0.76839 -3.079993,-0.51209 z"
   style="fill:#ffffff;fill-opacity:1;fill-rule:evenodd;stroke:#808080;stroke-width:0.49999997;stroke-linecap:butt;stroke-linejoin:miter;stroke-miterlimit:4;stroke-dasharray:none;stroke-opacity:1" />
<path
   inkscape:label=""
   inkscape:connector-curvature="0"
   style="fill:#ffffff;fill-opacity:1;stroke:#808080;stroke-width:0.49999997;stroke-miterlimit:4;stroke-dasharray:none;stroke-dashoffset:0;stroke-opacity:1"
   id="EDUCACION_SANDIA"
   d="m 194.83779,176.04994 c -0.17418,-1.81245 -1.86145,-5.65971 -4.08639,-9.31957 l -1.25374,-2.06225 1.40514,-1.62175 c 0.77277,-0.89181 1.40989,-1.79293 1.41594,-2.0018 0.004,-0.20835 -0.9492,-1.32779 -2.12251,-2.48655 -1.545,-1.52585 -2.41096,-2.10678 -3.13837,-2.10678 l -1.0045,0 0,-3.10301 0,-3.1027 -1.29254,-0.42565 c -1.79933,-0.59235 -3.3126,-2.22744 -3.85689,-4.16714 -0.41722,-1.48729 -0.58802,-1.6633 -1.80918,-1.86477 -0.74158,-0.12218 -1.95528,-0.22433 -2.69688,-0.22689 l -1.34821,0 0.46364,-1.56557 c 0.25519,-0.86109 0.85201,-3.55505 1.32683,-5.98639 0.59718,-3.05754 1.06249,-4.56468 1.50927,-4.88685 0.35848,-0.25868 0.75638,-1.20367 0.8948,-2.12472 0.20305,-1.35174 0.55455,-1.92678 1.90032,-3.10852 0.90799,-0.79741 2.38387,-1.80405 3.27981,-2.23683 l 1.62903,-0.78691 0,-2.39402 0,-2.39392 2.76904,-3.00281 c 2.54391,-2.7588 2.76889,-3.13055 2.76889,-4.57614 0,-1.56532 -0.004,-1.57922 -2.33572,-2.72282 -1.75889,-0.86525 -2.58856,-1.5478 -3.35895,-2.76293 -0.56261,-0.88771 -1.67156,-2.39653 -2.46379,-3.35345 -0.79237,-0.9571 -1.44086,-2.00024 -1.44086,-2.31873 0,-0.31864 0.58731,-1.147 1.3048,-1.84083 l 1.30458,-1.26179 -0.24179,-2.973526 c -0.23136,-2.842527 -0.19197,-3.062128 0.88028,-4.981329 0.97578,-1.746255 3.02895,-8.801173 3.02895,-10.407851 0,-0.424057 1.96939,-2.27141 3.24066,-3.040175 0.0559,-0.0337 -0.068,-0.51048 -0.27736,-1.05895 -0.33834,-0.888464 -0.30443,-0.973391 0.31142,-0.778102 0.591,0.186889 0.77738,-0.121926 1.28277,-2.130586 0.32537,-1.292209 0.70046,-3.273464 0.83339,-4.402482 0.20409,-1.729877 0.37442,-2.086461 1.08412,-2.263955 1.36336,-0.341529 10.86614,-4.819097 32.10616,-15.127983 17.8626,-8.66958 32.62602,-15.662684 33.06703,-15.662774 0.0876,0 0.13279,5.595065 0.0968,12.433373 l -0.0625,12.433546 -1.13998,3.868248 c -0.627,2.127408 -1.61912,5.998224 -2.20436,8.601634 -1,4.447908 -1.14473,4.799425 -2.39633,5.828941 -1.16505,0.958227 -1.33234,1.300874 -1.33234,2.730723 0,0.8992 -0.35049,2.379042 -0.77887,3.288893 -0.71864,1.524766 -0.88651,1.65382 -2.1563,1.65382 -1.27644,0 -1.41209,0.105413 -1.8584,1.455366 -0.45782,1.384221 -0.56409,1.460999 -2.166,1.56564 -1.62869,0.106957 -1.73177,0.186524 -3.1201,2.405244 l -1.43596,2.294801 1.70887,1.941872 c 0.93959,1.067802 1.80309,2.310142 1.91874,2.760742 0.20033,0.78109 0.65559,0.95597 3.45762,1.32991 0.42923,0.0567 0.52618,0.49807 0.43059,1.96127 l -0.12312,1.88751 2.52322,0.8227 c 1.38751,0.45246 2.66985,0.95679 2.84938,1.12117 0.49789,0.45515 -1.4181,3.43725 -3.20495,4.98832 l -1.5845,1.37535 0.62939,4.59292 0.62955,4.59295 2.2998,2.31528 c 1.26471,1.27347 2.86062,2.6167 3.54645,2.98514 0.94668,0.50879 1.42899,1.1563 2.00383,2.68957 1.00267,2.67399 2.40212,7.55035 2.72707,9.50285 l 0.26112,1.56587 -4.51729,0 -4.51703,0 -1.69957,1.3522 c -0.93461,0.74385 -1.84059,1.4732 -2.01322,1.62137 -0.17313,0.14769 -0.0925,0.87974 0.17797,1.62644 0.48346,1.33446 0.47047,1.37565 -0.75905,2.37673 -1.1816,0.96228 -1.23804,1.11303 -1.01752,2.71805 0.12809,0.93448 0.54327,2.61508 0.92204,3.73443 l 0.68851,2.03499 -4.03128,3.00432 c -2.33237,1.73821 -4.41367,3.60863 -4.93816,4.43794 l -0.90679,1.43327 -1.1872,-1.2465 c -0.81311,-0.85361 -2.00183,-1.51213 -3.77165,-2.08887 -1.42153,-0.46348 -2.62533,-0.87441 -2.67494,-0.91347 -0.0513,-0.0392 -0.49194,-2.04296 -0.98273,-4.45261 -0.85215,-4.18598 -0.95889,-4.44407 -2.38727,-5.7737 -2.1368,-1.98871 -2.63139,-1.86395 -2.63139,0.66314 0,1.79939 -0.17815,2.30336 -1.43938,4.06038 l -1.43987,2.00601 0.54463,2.08101 c 0.59754,2.28287 0.61526,2.16969 -1.36402,8.7705 -0.60747,2.02613 -1.21146,4.88836 -1.3419,6.36015 l -0.2377,2.67637 -1.69932,-0.18086 c -0.93437,-0.0996 -2.98653,-0.28244 -4.56027,-0.40536 -2.66069,-0.20814 -3.3931,-0.52665 -2.49196,-1.08225 0.92635,-0.57135 0.17778,-0.92088 -1.97208,-0.92088 -3.13565,0 -4.83279,0.56548 -9.76402,3.25378 -2.29198,1.24972 -4.22288,2.27211 -4.29109,2.27211 -0.0676,0 -0.20076,-0.79567 -0.29396,-1.76843 l 0,0 z" />
</svg>
