<?xml version="1.0" encoding="UTF-8" standalone="no"?>
<!--?xml version="1.0" encoding="UTF-8" standalone="no"?-->

<!--?xml version="1.0" encoding="UTF-8" standalone="no"?-->

<!--
************* Copyright (c) 2015 Pareto Softare, LLC DBA Simplemaps.com *******************		
************* Free for Commercial Use, full terms at  http://simplemaps.com/resources/svg-license ************
************* Attribution is appreciated! http://simplemaps.com ***************************
-->

<svg
   xmlns:dc="http://purl.org/dc/elements/1.1/"
   xmlns:cc="http://creativecommons.org/ns#"
   xmlns:rdf="http://www.w3.org/1999/02/22-rdf-syntax-ns#"
   xmlns:svg="http://www.w3.org/2000/svg"
   xmlns="http://www.w3.org/2000/svg"
   xmlns:sodipodi="http://sodipodi.sourceforge.net/DTD/sodipodi-0.dtd"
   xmlns:inkscape="http://www.inkscape.org/namespaces/inkscape"
   enable_background="new 0 0 1000 1585"
   height="549.01257"
   pretty_print="True"
   style="fill:none;stroke:#000000;stroke-linejoin:round"
   version="1.1"
   viewBox="0 0 354.46857 549.01257"
   width="354.46857"
   id="svg2"
   inkscape:version="0.91 r13725"
   sodipodi:docname="San Martín.svg"><sodipodi:namedview
   pagecolor="#ffffff"
   bordercolor="#666666"
   borderopacity="0.05098039"
   objecttolerance="10"
   gridtolerance="10"
   guidetolerance="10"
   inkscape:pageopacity="0"
   inkscape:pageshadow="2"
   inkscape:window-width="1920"
   inkscape:window-height="1017"
   id="namedview37"
   showgrid="false"
   inkscape:zoom="0.85844576"
   inkscape:cx="-291.92293"
   inkscape:cy="298.3252"
   inkscape:window-x="-8"
   inkscape:window-y="-8"
   inkscape:window-maximized="1"
   inkscape:current-layer="svg2"
   showborder="true"
   fit-margin-top="10"
   fit-margin-left="10"
   fit-margin-right="10"
   fit-margin-bottom="10"
   borderlayer="false"
   inkscape:showpageshadow="false"
   inkscape:snap-to-guides="false"
   inkscape:snap-grids="false"
   showguides="false" />
























utf-8<defs
   id="defs4">
  <style
     type="text/css"
     id="style6">path { fill-rule: evenodd; }utf-8utf-8</style>
</defs>
























utf-8<metadata
   id="metadata8">
utf-8utf-8<views>
utf-8utf-8utf-8<view
   h="1585.21431143"
   padding="0"
   w="1000">
utf-8utf-8utf-8utf-8<proj
   flip="auto"
   id="robinson"
   lon0="-80.0286400104" />
























utf-8utf-8utf-8utf-8<bbox
   h="307.01"
   w="193.79"
   x="-1203.32"
   y="0.49" />
























utf-8utf-8utf-8</view>
























utf-8utf-8</views>
























utf-8<rdf:rdf>
  <cc:work
     rdf:about="">
    <dc:format>image/svg+xml</dc:format>
    <dc:type
       rdf:resource="http://purl.org/dc/dcmitype/StillImage" />
  </cc:work>
</rdf:rdf>
<rdf:rdf>
  <cc:work
     rdf:about="">
    <dc:format>image/svg+xml</dc:format>
    <dc:type
       rdf:resource="http://purl.org/dc/dcmitype/StillImage" />
    <dc:title />
  </cc:work>
</rdf:rdf>
<rdf:RDF>
  <cc:Work
     rdf:about="">
    <dc:format>image/svg+xml</dc:format>
    <dc:type
       rdf:resource="http://purl.org/dc/dcmitype/StillImage" />
    <dc:title />
  </cc:Work>
</rdf:RDF>
</metadata>
























utf-8<path
   inkscape:label=""
   inkscape:connector-curvature="0"
   id="EDUCACION_HUALLAGA_CENTRAL"
   d="m 49.774196,198.83823 2.795974,-3.71971 -1.242699,-7.1292 -0.931944,-2.78961 1.242623,-5.26942 -1.242623,-4.95953 0.621259,-5.88939 1.863993,-4.02953 4.038576,-0.92993 2.48519,0.92993 4.038676,-3.40971 8.387761,4.64952 -0.311014,1.85986 3.72784,1.23987 1.553364,4.64951 5.591816,-3.4097 2.795882,1.23994 4.659985,1.85975 -2.485293,-5.57937 -1.553322,-5.26944 7.45579,-5.26941 3.10656,-3.40962 0,-5.26948 1.24265,-4.64951 3.41726,-4.33949 2.48533,-1.85979 0,-4.64944 3.72788,-1.54988 3.72785,2.78974 4.65995,1.23985 6.83449,2.16973 4.03855,2.16973 5.59195,-0.61995 2.79586,0 3.10655,-1.85974 1.2427,6.81926 3.10654,3.71959 2.17464,0.92987 2.17455,0.31052 3.10664,6.50931 4.34915,8.98904 c 0,0 0.93206,8.67903 0.93206,9.91885 0,1.23985 1.55327,4.33959 1.55327,4.33959 l 3.1066,2.1698 3.72794,3.09957 0.93189,3.09976 2.48532,6.50925 2.48531,4.02961 2.79587,4.95947 -0.31099,2.78965 0.62131,3.09964 2.48531,4.95952 -2.48531,6.19929 1.24269,4.02951 1.86387,3.0998 -0.62125,4.33944 3.72786,3.40957 3.41729,3.71969 -0.31102,5.57942 0.6214,13.01849 0.62143,8.98912 c 0,0 -1.86408,0 -1.86408,1.85977 0,1.85979 -1.86394,2.78967 -1.86394,2.78967 l 1.86394,5.57938 1.86408,4.64948 -4.03865,2.78973 -1.86394,-0.61992 -3.72793,0.61992 -2.17461,4.02958 -8.6985,0 -3.10651,0 -0.31102,6.81921 0.93202,2.4798 2.17454,0.92983 0.93208,4.95948 0,1.54989 -5.59185,3.40963 -3.1067,0.31052 -4.34919,-0.92998 -8.69838,-8.05912 -2.17466,-2.16972 -4.65991,-2.16984 -4.65991,-1.23984 -0.31094,5.5794 -3.72794,0.31055 -4.65982,11.77873 -2.7959,2.78967 1.55326,2.47971 2.17462,3.71956 0,2.78979 -4.65994,-0.92991 c 0,0 -3.10658,-0.92997 -5.59188,-0.92997 -2.48528,0 -6.52385,-0.31051 -6.52385,-0.31051 0,0 -0.62126,3.71961 -2.79589,4.33955 -2.1746,0.61996 -10.56244,0.31051 -10.56244,0.31051 l -1.863913,-3.40954 -1.242631,-2.78977 0,-5.8893 2.174598,-5.2694 -3.727917,-4.02961 -2.174563,-4.9595 -4.970545,-3.71953 -3.417277,-2.1698 1.553306,-4.02955 4.0386,-5.57946 -6.213257,-3.09964 -0.310979,-4.95951 2.485237,-1.23981 -4.038467,-5.26942 1.242565,-5.88942 -2.174642,-3.40962 -2.174526,-1.85985 -5.28127,-2.16962 -4.038558,-6.19943 0.931997,-9.60888 -0.931997,-6.50933 1.24264,-3.40961 2.174584,-3.40963 -1.863907,-3.09969 -2.485276,-2.47973 -5.902499,-2.16976 -2.795932,-4.02959 1.24256,-3.71961 -2.485259,-2.78965 -1.242588,-4.64956 z"
   style="fill:#ffffff;fill-opacity:1;fill-rule:nonzero;stroke:#808080;stroke-width:0.49999988;stroke-linecap:butt;stroke-linejoin:miter;stroke-miterlimit:4;stroke-dasharray:none;stroke-opacity:1" />
<path
   inkscape:label=""
   inkscape:connector-curvature="0"
   id="EDUCACION_BAJO_MAYO"
   d="m 145.67936,132.12263 -2.12032,-3.81073 1.06013,-5.08104 2.54433,-1.27004 11.87323,0 -1.69614,6.7745 c 0,0 -1.06012,2.11706 -0.21225,3.17554 0.84811,1.05858 3.39251,3.59913 3.39251,3.59913 l 2.75613,0.63506 5.51276,-0.21163 1.69609,-3.17555 1.48421,-1.05857 2.12021,5.08094 2.3323,5.92781 2.96833,6.98635 2.12028,4.02245 3.81628,4.02246 3.60448,0.42323 2.75624,0.2114 0.84823,2.54068 -2.1204,2.11712 -0.42414,3.17549 0.21201,2.11717 4.24049,0.21137 6.57274,0.42317 2.96836,-2.32876 5.5126,-3.38729 0.84804,-1.6936 -1.90825,-2.96401 -3.60432,-3.5989 -1.48415,-3.38738 -2.75629,-1.48199 0.21203,-1.69364 0.21204,-1.05848 -2.54435,-2.54047 -0.21157,-0.84697 2.33211,-0.63495 1.48422,-3.81078 1.27208,-4.86927 1.06017,-3.17553 0.6361,-1.48202 6.14878,1.27019 1.69616,-1.05851 -1.27218,-3.38733 0,-1.05855 2.54433,0.84691 3.18029,3.38729 2.33226,5.50433 2.75627,3.1757 3.18035,0.42322 3.39246,-0.42322 2.12029,0.84679 0.42415,7.19808 0.42419,0.63509 4.66451,0 2.75626,-1.05855 1.06017,-2.75226 11.8733,4.65756 2.96834,-1.05846 7.84499,-5.71618 0.42409,-0.84678 -7.20879,-16.93656 -0.42418,-2.11704 3.8165,-7.40976 0.63598,-2.96386 -0.21178,-1.27025 1.27211,-1.69372 8.26879,-0.63509 3.60451,-1.4819 1.48423,-0.84693 2.96833,2.96392 6.99669,-1.69369 4.02845,-1.27023 0.21223,-2.11705 4.66446,0 1.27221,-4.65752 1.48409,-3.599062 2.96827,-1.270132 c 0,0 2.33232,4.657484 2.96849,6.562824 0.63603,1.90531 0,9.31515 0,9.31515 l 0,2.32873 4.24042,2.32881 0.84802,4.44578 -0.4241,3.17574 -3.39248,3.38722 -2.54422,1.48201 0.21178,5.08094 0.2116,6.77452 1.06026,2.32893 2.33227,4.02242 0,5.08095 -3.39253,6.35119 -0.8481,2.54047 2.33235,3.38743 0.21204,6.98632 0.42416,5.71604 2.54424,3.81063 -10.38915,4.86931 -7.20883,0.42319 -5.08852,4.86923 c 0,0 -5.5126,-1.27016 -6.3607,-1.90533 -0.84806,-0.63508 -9.11702,-6.77465 -9.11702,-6.77465 l -21.83852,0.42335 -2.12009,0.84673 4.45239,7.62151 0.42422,4.02239 -3.81644,2.7522 1.06021,6.56298 3.60439,1.27027 0.21137,10.16187 -4.45252,3.38727 0.21179,4.02255 -10.17713,5.50431 -2.1202,-13.97263 -14.2056,-2.75221 -6.14873,-2.32879 -2.75636,-3.38731 -8.90497,0.63511 -8.48093,-5.29266 -1.69613,-4.44584 5.30044,-4.86933 2.3323,-7.83317 -4.45245,-8.04478 -1.69623,-2.11708 -2.75623,4.02237 -3.18046,3.17558 -2.12012,0.21162 -2.1203,-1.27026 -6.99677,3.59897 -4.02842,-0.84674 -5.72462,-5.71606 -2.12025,-1.27029 -1.27212,-11.22039 -3.39245,-7.6215 -4.87646,-9.73859 -1.06018,-1.27026 -3.18047,-0.21162 -3.18025,-4.02238 -1.06014,-3.17569 1.27211,-4.23416 z"
   style="fill:#ffffff;fill-opacity:1;fill-rule:nonzero;stroke:#808080;stroke-width:0.49999988;stroke-linecap:butt;stroke-linejoin:miter;stroke-miterlimit:4;stroke-dasharray:none;stroke-opacity:1" />
<path
   inkscape:label=""
   inkscape:connector-curvature="0"
   style="fill:#ffffff;fill-opacity:1;stroke:#808080;stroke-width:0.49999988;stroke-miterlimit:4;stroke-dasharray:none;stroke-opacity:1"
   id="EDUCACION_ALTO_HUALLAGA"
   d="m 220.65195,405.07637 c -0.65256,-2.10635 -1.58812,-5.87958 -2.07903,-8.38481 -1.09898,-5.60761 -2.15783,-7.93505 -5.00973,-11.01078 l -2.16111,-2.33068 0.63064,-2.01752 c 0.34663,-1.10975 0.63283,-2.04331 0.63569,-2.07453 0.001,-0.009 -0.52737,-0.38536 -1.1778,-0.7867 l -1.18269,-0.72988 0,-2.62274 0,-2.62283 -1.77401,-1.67402 c -2.43182,-2.29449 -3.44762,-2.91435 -4.32233,-2.63714 -0.39757,0.12666 -2.26779,1.51708 -4.156,3.09121 -3.42024,2.85136 -3.43739,2.87335 -4.53435,5.78801 -1.78909,4.75409 -3.11716,9.49496 -3.34486,11.94126 -0.19577,2.09977 -0.27677,2.28771 -0.98923,2.28771 -1.02243,0 -1.34846,-0.56772 -0.4831,-0.84203 0.61187,-0.19445 0.6807,-0.50515 0.6807,-3.08184 l 0,-2.86617 -3.16362,-3.24732 -3.16372,-3.24727 -7.39617,1.82187 c -4.06791,1.00205 -8.06379,2.15904 -8.87962,2.57131 l -1.48335,0.74957 -1.21995,-0.97391 c -1.20834,-0.96485 -1.2745,-0.97596 -6.96453,-1.17952 -3.15945,-0.11253 -6.06012,-0.26888 -6.44574,-0.34497 -0.54401,-0.10906 -1.06183,0.35069 -2.30792,2.04507 -1.52669,2.07608 -1.67674,2.18526 -3.01581,2.19529 -0.7943,0.002 -2.14634,0.3724 -3.0987,0.84035 -0.92925,0.45647 -1.79756,0.8313 -1.92941,0.83299 -0.13156,10e-4 -0.4238,-0.6102 -0.64895,-1.35989 l -0.40875,-1.36284 -5.92796,0.0431 -5.928,0.043 -1.95557,-1.58046 -1.95542,-1.58056 0,-1.99207 0,-1.99194 -2.70342,0 -2.70325,0 0,-1.01236 c 0,-0.9982 0.0105,-1.01218 1.80471,-1.01218 l 1.80483,0 0.39966,-1.77144 c 0.66385,-2.93987 0.21898,-2.77517 7.46429,-2.76296 l 6.43559,0.004 0,-1.61844 c 0,-1.40648 0.0909,-1.61838 0.69266,-1.61838 1.98826,0 3.7097,-1.86085 5.75727,-6.22345 l 1.32217,-2.81738 0,-4.40189 0,-4.40185 -1.01372,-0.59799 c -0.55762,-0.32849 -1.01379,-0.70404 -1.01379,-0.83369 0,-0.13017 0.46904,-1.46261 1.04247,-2.9619 1.03087,-2.6952 1.03625,-2.74248 0.48222,-4.19083 -0.51215,-1.33918 -0.79512,-1.57846 -3.29353,-2.78575 -3.25101,-1.571 -5.32733,-2.99848 -5.32733,-3.66248 0,-0.26432 -1.23308,-1.78224 -2.74008,-3.37202 l -2.74017,-2.89041 -3.27438,0 -3.2745,0 -0.75513,-3.34366 c -0.4386,-1.94218 -1.09968,-3.8507 -1.57677,-4.55276 l -0.82158,-1.20873 2.55359,-4.97919 c 1.47932,-2.88481 2.62941,-5.5768 2.73416,-6.4 0.17845,-1.40627 0.20293,-1.42776 2.33452,-2.1363 l 2.15368,-0.71564 0,-1.99695 c 0,-1.09833 0.0813,-1.99688 0.17932,-1.99688 0.0992,0 1.83008,0.69134 3.84762,1.53648 l 3.66802,1.53651 5.07522,5.04292 c 3.62512,3.60203 5.30154,5.04457 5.86748,5.04841 0.43593,10e-4 2.22294,0.30673 3.97138,0.6752 l 3.17892,0.66988 1.72081,-1.27233 c 3.04777,-2.25324 4.63231,-3.16358 5.8507,-3.36106 l 1.19172,-0.1927 -0.18038,-1.74625 c -0.16356,-1.58883 -2.10564,-8.89843 -2.45649,-9.24869 -0.0812,-0.0802 -0.5283,0.008 -0.99367,0.23771 l -0.84625,0.38528 0,-1.99529 c 0,-1.09732 -0.14848,-2.38474 -0.32939,-2.86074 l -0.32936,-0.86548 6.17521,0 6.17518,0 0.41287,-1.1401 c 0.49808,-1.37535 2.29682,-3.92106 2.77063,-3.92106 0.18684,0 -0.19677,1.06461 -0.85321,2.36584 l -1.19304,2.36566 0.69813,2.73068 c 0.67039,2.62181 0.67395,2.74921 0.0905,3.19247 -0.33448,0.2532 -0.87366,0.55209 -1.19894,0.66235 -0.32606,0.1107 -0.59133,0.36716 -0.59133,0.57006 0,0.20279 1.27774,2.06814 2.83944,4.1442 l 2.83942,3.77458 -2.03002,3.6275 -2.02993,3.62757 2.00851,4.26794 2.00864,4.26784 2.00503,0.0982 c 1.89014,0.0922 2.15987,0.21994 4.70709,2.22232 2.40163,1.88762 2.91314,2.14565 4.60052,2.31951 1.04415,0.10696 2.40979,0.45489 3.03465,0.772 0.62494,0.31705 3.01352,2.47627 5.30795,4.79839 l 4.17157,4.22208 3.33174,-0.55262 c 4.24735,-0.70415 4.03815,-0.72921 4.03815,0.482 0,1.19717 -0.5029,2.26031 -1.41962,3.00156 -0.53718,0.43424 -0.62739,0.88631 -0.54175,2.7133 l 0.10238,2.19209 2.19642,0.56749 c 1.33117,0.34394 3.59419,0.57697 5.74453,0.59176 l 3.54807,0.007 0.59134,1.43621 c 0.32569,0.79 0.59144,1.61186 0.59144,1.82651 0,0.21514 0.11735,0.44059 0.26172,0.50249 0.14327,0.0614 1.00121,1.73666 1.90557,3.72176 1.52175,3.34034 1.72038,3.61684 2.66637,3.71143 0.94134,0.0945 1.08396,0.28854 1.80834,2.46413 1.18221,3.55087 1.86779,4.9412 2.3461,4.75776 0.23337,-0.0893 0.83393,0.37362 1.33457,1.02884 l 0.90993,1.19139 -1.39206,9.35494 c -0.76566,5.14519 -1.39225,9.65795 -1.39225,10.0286 0,0.3706 0.45621,1.11016 1.01371,1.64354 0.97487,0.93252 1.0138,1.08287 1.0138,3.91579 l 0,2.94599 -1.12888,0.69676 c -1.06532,0.65731 -1.20079,0.97058 -2.39878,5.54448 l -1.26981,4.84788 -1.57169,0.3794 c -0.86458,0.20819 -1.90481,0.47437 -2.31153,0.59032 -0.68685,0.19605 -0.82468,-0.0628 -1.92612,-3.61919 l 0,0 z" />
<path
   inkscape:label=""
   inkscape:connector-curvature="0"
   style="fill:#ffffff;fill-opacity:1;stroke:#808080;stroke-width:0.49999988;stroke-miterlimit:4;stroke-dasharray:none;stroke-opacity:1"
   id="EDUCACION_BELLAVISTA"
   d="m 233.43197,359.34278 c -0.224,-1.08333 -0.64054,-2.75349 -0.9255,-3.71159 -0.48879,-1.64367 -0.58127,-1.74184 -1.63931,-1.74184 -1.11872,0 -1.12388,-0.003 -2.26519,-3.3741 -1.07221,-3.16281 -1.20116,-3.37405 -2.05956,-3.37405 l -0.9158,0 0.55906,-1.50638 c 0.30691,-0.82836 0.49027,-1.57432 0.4063,-1.65747 -0.31712,-0.31342 -8.3694,-1.85108 -10.88153,-2.07761 -1.44046,-0.13059 -2.61894,-0.36091 -2.61894,-0.51231 0,-0.74605 0.76822,-2.10679 1.88802,-3.3445 l 1.2424,-1.3731 -0.84103,-2.27165 -0.8412,-2.27172 -1.89898,0.0652 c -1.04453,0.009 -2.59555,0.37287 -3.44685,0.74892 l -1.54792,0.6836 -1.07867,-1.25183 c -2.7127,-3.1479 -4.04389,-4.405 -5.40468,-5.10387 -1.24346,-0.63861 -3.18653,-2.63639 -4.27616,-4.39678 -0.23748,-0.38299 -0.50983,-0.3353 -1.52937,0.2648 l -1.24115,0.7312 -2.79143,-1.85474 c -1.70022,-1.12942 -3.75763,-2.1535 -5.26239,-2.61896 l -2.47072,-0.76428 -1.49662,-3.0815 -1.49657,-3.08151 1.92391,-3.49787 1.92383,-3.49809 -2.07978,-4.0489 -2.07968,-4.04889 0.004,-3.78841 c 0.004,-3.39478 0.10608,-3.97693 0.9054,-5.60374 0.85319,-1.7371 1.03544,-1.88605 4.22394,-3.45252 1.83277,-0.90037 3.33209,-1.79497 3.33199,-1.98797 -2.9e-4,-0.19271 -0.37898,-1.8812 -0.84141,-3.75159 -0.4626,-1.87029 -1.04945,-4.50128 -1.30412,-5.84657 l -0.46326,-2.44603 1.30691,-0.8636 1.307,-0.86359 -0.18212,-5.09903 c -0.10018,-2.8045 -0.32726,-9.50234 -0.50452,-14.88402 l -0.32136,-9.7849 -1.36382,-2.59032 c -1.30951,-2.48694 -1.43432,-2.61296 -3.13053,-3.16247 -0.97163,-0.31473 -1.89822,-0.6926 -2.05886,-0.83961 -0.1621,-0.14784 -0.009,-0.94837 0.29099,-1.79279 0.57841,-1.51202 0.57522,-1.54743 -0.34384,-3.99319 -1.28525,-3.41898 -2.20384,-4.99828 -2.90737,-4.99828 -0.49487,0 -0.28864,-0.64808 1.2375,-3.89143 l 1.83122,-3.89161 -1.80573,-3.82272 -1.80602,-3.82289 0.96857,-0.57134 c 0.53272,-0.31345 0.96856,-0.68712 0.96856,-0.82881 0,-0.14144 -0.84086,-1.53374 -1.86846,-3.09332 -3.35168,-5.08698 -7.93117,-14.88164 -7.93117,-16.96357 l 0,-0.86778 1.88371,0.64705 1.88376,0.64703 3.30549,-1.65628 3.30564,-1.65625 2.39681,0.61553 2.39688,0.61563 1.99798,-2.07756 c 1.09892,-1.1427 2.32616,-2.71991 2.72725,-3.50483 0.40127,-0.78494 0.83997,-1.42219 0.97567,-1.41602 0.96183,0.044 2.95228,2.8885 4.3983,6.28585 l 0.74153,1.74211 -0.81851,3.65653 -0.81847,3.65645 -2.94078,2.78713 -2.94076,2.7872 0.20729,1.51039 c 0.40838,2.97474 2.59741,5.12491 8.72818,8.57401 l 1.9173,1.07856 4.16518,-0.22062 4.16509,-0.21979 2.36537,2.0154 2.36543,2.01511 6.26104,1.53752 c 3.44353,0.84561 7.58691,1.64488 9.20759,1.77618 l 2.94663,0.23841 0.32665,1.21899 c 0.30198,1.12645 1.1166,7.18661 1.46581,10.89828 0.13075,1.3993 0.009,1.68847 -0.82118,2.50937 -0.71779,0.68677 -0.96976,1.24483 -0.96976,2.14832 0,1.24227 -0.96213,3.03639 -3.19165,5.95211 -0.93248,1.21941 -1.13176,1.81453 -1.30631,3.90256 -0.11325,1.35501 -0.70052,4.0415 -1.30491,5.96991 l -1.0988,3.50639 2.32822,4.5915 c 2.31913,4.57351 2.34843,4.61199 7.51642,9.84521 l 5.18804,5.25378 0.2558,4.36243 0.25578,4.36254 -1.12438,1.42329 -1.12455,1.42318 0.65356,4.72136 0.65367,4.72111 2.17406,2.13906 c 3.66384,3.60471 6.41771,8.33819 6.90139,11.86255 0.18232,1.3315 0.33042,1.52589 1.51317,1.98961 1.48427,0.58225 1.4557,0.43741 0.83656,4.24001 l -0.46046,2.82826 4.94451,-0.16271 4.94467,-0.16285 2.71105,-1.36595 c 2.54098,-1.28011 2.76876,-1.33557 3.63258,-0.88365 l 0.9216,0.48206 0,5.87861 0,5.87873 -1.09821,0.20132 c -0.6041,0.11035 -2.67703,0.45881 -4.60661,0.77446 l -3.50823,0.57362 -0.96921,2.52503 c -0.93149,2.42734 -0.96898,2.75027 -0.96898,8.34222 l 0,5.8172 1.01371,0.52346 c 0.9945,0.51348 1.01362,0.57304 1.00858,3.12975 l -0.002,2.60626 -4.84275,2.78365 c -4.17938,2.40221 -5.05961,2.78354 -6.42588,2.78354 -3.24765,0 -8.42949,2.42563 -10.81533,5.06246 -0.671,0.74157 -1.2659,1.34833 -1.32218,1.34833 -0.0563,0 -0.28517,-0.88627 -0.50965,-1.96958 l 0,0 z" />
<path
   inkscape:label=""
   inkscape:connector-curvature="0"
   style="fill:#ffffff;fill-opacity:1;stroke:#808080;stroke-width:0.49999988;stroke-miterlimit:4;stroke-dasharray:none;stroke-opacity:1"
   id="EDUCACION_LAMAS"
   d="m 260.45419,105.75378 c -1.09072,0.68958 -1.12512,0.78508 -1.12512,3.12643 0,2.34844 -0.0577,2.50575 -2.07727,5.70738 -1.14253,1.81081 -2.24983,3.61419 -2.4607,4.0076 -0.55281,1.03135 0.37743,4.36132 1.86853,6.68895 0.65967,1.02971 1.54801,3.04263 1.97391,4.47323 0.42588,1.43049 1.4662,4.08011 2.31149,5.88811 0.84534,1.80787 1.41658,3.40115 1.2692,3.54031 -0.14759,0.1398 -2.40256,1.49749 -5.01189,3.01823 l -4.74416,2.76518 -1.97927,-0.99934 c -1.61394,-0.81492 -9.80003,-3.42224 -10.74458,-3.42224 -0.13956,0 -0.30342,0.49898 -0.36329,1.1088 -0.10175,1.03605 -0.28097,1.17202 -2.72685,2.07278 -1.43959,0.53025 -2.87493,0.97206 -3.18956,0.98195 -0.87505,0.008 -1.85663,-3.96816 -1.57091,-6.39553 0.26982,-2.28991 0.52786,-2.16366 -5.0998,-2.49161 l -4.10182,-0.23872 -1.18183,-1.61341 c -0.64979,-0.88734 -2.22499,-3.59636 -3.50024,-6.01977 -2.55022,-4.84685 -2.04506,-4.44094 -6.2601,-5.03017 -1.55032,-0.21644 -1.67899,-0.18067 -1.50169,0.41798 0.55996,1.89039 1.30229,5.10284 1.20232,5.20269 -0.0635,0.0636 -1.68165,-0.18883 -3.59677,-0.56014 -1.91524,-0.37093 -3.57859,-0.67516 -3.6966,-0.67578 -0.11771,-6.3e-4 -0.30566,0.66538 -0.41979,1.47986 -0.11302,0.81455 -0.83721,2.98706 -1.6089,4.82757 -0.77173,1.84052 -1.50704,4.22905 -1.63404,5.30764 l -0.23068,1.96097 -1.76239,0.65646 -1.76228,0.6564 1.87845,1.98331 1.87852,1.9833 -0.64855,1.20227 c -0.35634,0.66145 -0.58389,1.25652 -0.50515,1.3226 0.079,0.0669 1.12498,0.63576 2.32454,1.26617 2.12664,1.11736 2.18135,1.18134 2.18135,2.55479 0,1.29221 0.23366,1.64825 2.83414,4.308 2.37775,2.43234 2.76438,2.98338 2.40041,3.42143 -0.23873,0.28714 -0.56487,0.52219 -0.72463,0.52219 -0.7609,0 -4.9111,2.2673 -6.40241,3.49764 l -1.67358,1.38101 -4.27039,0 c -3.87927,0 -4.33052,-0.067 -4.92605,-0.72333 -0.64549,-0.71228 -0.63562,-0.76239 0.64385,-3.24423 1.48548,-2.88135 1.49965,-2.97834 0.72862,-4.99411 l -0.57087,-1.49269 -2.9023,0 -2.90252,0 -2.62076,-3.02973 c -2.21112,-2.55621 -2.7365,-3.41428 -3.36072,-5.48861 -0.40669,-1.35228 -2.11647,-5.75193 -3.79892,-9.77681 -1.68243,-4.02495 -3.15663,-7.59253 -3.27596,-7.92805 -0.12028,-0.3353 -0.55428,-0.60971 -0.96628,-0.60971 -0.85593,0 -2.8563,2.02767 -3.47735,3.52484 l -0.41727,1.00536 -3.55129,0 -3.5514,0 -1.29228,-1.32152 c -1.19864,-1.22577 -1.29202,-1.47194 -1.28999,-3.39763 0.001,-2.39599 0.90517,-6.41965 2.41546,-10.77216 1.05439,-3.03833 1.0546,-3.04037 0.41331,-4.31574 -1.06371,-2.11593 -1.73574,-4.54476 -2.47416,-8.9425 -0.38641,-2.30005 -0.70299,-4.27052 -0.70402,-4.37903 -0.001,-0.10906 -0.66947,-0.5642 -1.48519,-1.01277 -0.81575,-0.4486 -1.53012,-0.85105 -1.58751,-0.89427 -0.058,-0.0438 0.40796,-1.11644 1.03468,-2.384853 1.12495,-2.277821 1.15635,-2.306215 2.55733,-2.306215 1.2825,0 1.63394,-0.21685 3.66683,-2.265125 l 2.24841,-2.265109 2.14852,0 2.14883,0 1.99155,2.265109 c 1.9449,2.211929 2.03214,2.265125 3.71008,2.265125 1.67891,0 1.73112,-0.0084 2.27685,-1.393988 0.55123,-1.375727 0.58195,-1.393673 2.35287,-1.383088 2.42446,0.0042 6.48403,0.560821 9.1744,1.234545 l 2.21198,0.553775 8.11163,-4.219972 c 4.46151,-2.320873 8.34727,-4.174535 8.63535,-4.119166 0.56243,0.108843 3.63992,4.056084 4.71354,6.04673 0.62592,1.160392 0.62822,1.289529 0.0557,3.104994 l -0.59801,1.89402 3.87734,3.758398 3.87748,3.7584 4.07631,1.46125 4.07631,1.46127 6.67992,0.005 6.67986,0.006 1.5216,-2.25398 c 0.83691,-1.23978 1.75721,-2.26734 2.04522,-2.28356 0.28841,-0.004 3.07452,-0.3 6.19248,-0.63067 l 5.66906,-0.60129 0.51036,1.75218 c 0.80052,2.74852 0.94558,3.02574 4.42976,3.28458 z" />
<path
   inkscape:label=""
   inkscape:connector-curvature="0"
   style="fill:#ffffff;fill-opacity:1;stroke:#808080;stroke-width:0.49999988;stroke-miterlimit:4;stroke-dasharray:none;stroke-opacity:1"
   id="EDUCACION_RIOJA"
   d="m 114.69751,114.60824 c -1.51165,-0.95564 -1.53297,-1.02322 -0.8992,-2.8369 0.51091,-1.46165 0.52184,-2.2338 0.0507,-3.61908 -0.55647,-1.63805 -0.76263,-1.77174 -2.94953,-1.91439 -2.1345,-0.13979 -2.35122,-0.27007 -2.35122,-1.41757 0,-0.96216 -0.2107,-1.20569 -0.88174,-1.01874 -0.48514,0.13472 -1.36719,0.38446 -1.96033,0.55344 -0.75015,0.21423 -2.16853,-0.34718 -4.66116,-1.84431 -3.26592,-1.96184 -3.58277,-2.29699 -3.58277,-3.79006 0,-1.459397 -0.15448,-1.637835 -1.41475,-1.637835 -1.14689,0 -1.57635,-0.357454 -2.269034,-1.886786 -0.47009,-1.037762 -1.277442,-2.430658 -1.794492,-3.095132 l -0.939875,-1.208196 -1.819236,1.385501 -1.819081,1.385524 -1.396577,-1.644603 c -0.768225,-0.904491 -1.696899,-2.065614 -2.064114,-2.580088 -0.627857,-0.88015 -0.82173,-0.796992 -3.275405,1.407167 -1.986847,1.785033 -2.646608,2.147517 -2.770819,1.522348 -0.12673,-0.637449 -0.771358,-0.82039 -2.890702,-0.82039 -2.641083,0 -2.751161,-0.05613 -3.464684,-1.76103 -0.803045,-1.919178 -1.122506,-2.045953 -3.001401,-1.191239 -1.095667,0.498522 -1.50284,0.372125 -3.25294,-1.012335 -1.848376,-1.461712 -1.960182,-1.688909 -1.468706,-2.988938 0.446841,-1.182124 0.187214,-2.447861 -1.626567,-7.918832 C 61.006768,73.09432 59.9672,70.083749 59.88379,69.985745 59.80055,69.888595 58.084642,69.493982 56.071003,69.110804 54.057501,68.727971 52.119846,68.124683 51.765296,67.770632 51.360636,67.366371 50.99576,64.944669 50.785273,61.264454 L 50.450145,55.401952 52.0501,53.384763 53.650062,51.367694 53.320696,38.123855 c -0.215737,-8.68557 -0.158184,-13.070737 0.165658,-12.740655 0.272211,0.276768 2.471467,2.708519 4.886178,5.404102 l 4.390401,4.900802 -0.575916,3.794461 -0.576105,3.794504 1.54865,2.334508 c 0.85171,1.284009 1.548595,3.000388 1.548595,3.814315 0,1.091789 0.879255,2.519954 3.354074,5.448395 1.844884,2.182771 3.537664,3.968751 3.761836,3.968751 1.193417,0 5.454053,-1.781659 6.946533,-2.904834 l 1.716516,-1.291847 3.03227,0.811135 c 2.157795,0.577278 3.306678,0.66475 3.983489,0.303745 0.790502,-0.422399 1.510239,-0.0056 4.265532,2.419022 1.823055,1.610196 4.019993,3.541028 4.882073,4.290689 0.95559,0.830937 2.17538,1.371212 3.12428,1.383707 1.18652,0.0053 2.29512,0.711173 4.66122,2.924679 l 3.10448,2.904256 0,3.837419 0,3.837434 3.61874,3.869171 c 3.77663,4.038072 4.08582,4.166409 7.16512,2.977571 0.89135,-0.343898 0.93348,-0.186718 0.60676,2.272914 -0.1932,1.453329 -0.61116,3.05839 -0.92888,3.566469 -0.82753,1.32309 0.25851,9.866332 1.82341,14.334462 0.67808,1.93713 1.37551,4.31471 1.54984,5.28315 0.30043,1.67088 0.17823,1.86776 -2.40642,3.84339 l -2.7237,2.08219 -1.54847,-0.979 z" />
<path
   inkscape:label=""
   inkscape:connector-curvature="0"
   style="fill:#ffffff;fill-opacity:1;stroke:#808080;stroke-width:0.49999988;stroke-miterlimit:4;stroke-dasharray:none;stroke-opacity:1"
   id="EDUCACION_SAN_MARTIN"
   d="m 128.94138,132.81948 c -0.60763,-0.67044 -1.55205,-1.00643 -2.82942,-1.00643 -1.79192,0 -1.95568,-0.12896 -2.50603,-1.96195 -0.48361,-1.61197 -0.44342,-2.38769 0.22495,-4.34685 0.80427,-2.35676 0.79775,-2.41408 -0.55362,-4.89335 -0.7521,-1.37973 -1.89413,-2.74816 -2.53791,-3.041 -0.90797,-0.41326 -1.13655,-0.86957 -1.01948,-2.03543 0.13259,-1.31319 0.46897,-1.60849 2.67052,-2.34001 l 2.51956,-0.83696 0.14433,-4.30378 c 0.12334,-3.70594 -0.0134,-4.70476 -1.1337,-7.19043 -1.21372,-2.74042 -1.27863,-3.34409 -1.27863,-11.905916 l 0,-9.019216 -2.91432,0.329144 -2.91449,0.329167 -2.39962,-3.603241 c -1.93758,-2.909617 -2.60634,-4.520405 -3.47331,-8.366236 -1.06231,-4.712596 -1.1023,-4.786441 -3.78551,-6.991956 -2.25151,-1.850858 -2.90859,-2.154603 -3.87042,-1.78947 -1.00487,0.38128 -1.58421,0.0053 -4.36544,-2.790956 -2.4004,-2.418391 -3.55648,-3.230779 -4.59749,-3.230779 -1.041536,0 -1.465704,-0.298381 -1.689492,-1.188555 -0.265131,-1.056684 -0.672203,-1.223786 -3.662876,-1.505773 -7.184367,-0.677663 -8.598423,-0.492229 -10.955767,1.436477 -1.183726,0.968649 -2.334767,1.761076 -2.55788,1.761076 -0.222302,0 -1.816466,-1.396454 -3.541134,-3.103173 -2.609116,-2.582003 -3.05185,-3.259343 -2.636514,-4.03412 0.402101,-0.750505 0.0266,-1.528801 -1.873931,-4.01053 l -2.373161,-3.079317 0.89877,-2.320615 c 1.654605,-4.272562 1.80027,-3.916238 -4.095821,-10.021894 l -5.455427,-5.649641 2.546828,0.0052 c 1.955293,0.0051 3.10128,0.360108 4.933611,1.520021 2.905928,1.840153 7.168053,4.023362 7.854499,4.023362 0.276901,0 1.26851,-0.671152 2.204076,-1.49131 l 1.701037,-1.491295 2.913232,2.592601 2.9133,2.592665 -0.339577,4.181767 -0.339884,4.181875 2.265348,0 c 1.952028,0 2.381854,0.196683 3.107147,1.422859 0.829131,1.401484 0.900154,1.419555 4.707477,1.199552 3.63357,-0.21009 3.963629,-0.140961 5.499169,1.149038 l 1.63365,1.372576 5.55076,-0.993279 5.55092,-0.993259 2.45528,2.750735 2.4553,2.750714 3.52886,-0.594384 c 3.10076,-0.52215 3.68489,-0.492214 4.81586,0.24763 0.70775,0.463151 3.26619,1.477472 5.68524,2.254364 3.80626,1.222241 4.86534,1.834781 7.86498,4.549674 2.94956,2.669524 4.05236,3.316503 7.39478,4.338143 l 3.92837,1.200747 1.0076,2.628645 c 1.09632,2.859936 1.27777,2.933767 5.41646,2.203048 l 2.01554,-0.355284 3.20006,6.562518 c 2.84179,5.827589 3.2426,7.026322 3.57895,10.705508 0.20789,2.278589 0.24254,4.400528 0.0754,4.71556 -0.16582,0.31472 -1.27186,1.616904 -2.45544,2.89311 -1.57703,1.700539 -2.53117,2.320461 -3.57112,2.320461 -1.19164,0 -1.81539,0.573853 -3.8905,3.579224 l -2.47143,3.579078 2.3404,2.08129 c 1.98443,1.76478 2.39172,2.4495 2.67651,4.50126 0.51589,3.71486 1.74353,8.03021 2.53201,8.90007 0.59467,0.65625 0.60621,1.18863 0.0709,3.28525 l -0.63869,2.50213 -7.38978,0.1398 c -8.32265,0.15682 -8.04045,0.005 -8.68091,4.28237 -0.31845,2.11733 -0.17163,2.76531 1.20998,5.35346 1.88593,3.53315 2.03254,4.66919 0.40549,3.143 -1.53265,-1.43766 -1.95662,-1.38411 -3.28917,0.41545 -1.08604,1.46662 -1.23629,1.50953 -5.30772,1.50953 -3.55005,0 -4.32934,-0.15417 -5.10212,-1.00636 l 0,0 z" />
</svg>
