<?xml version="1.0" encoding="UTF-8" standalone="no"?>
<!--?xml version="1.0" encoding="UTF-8" standalone="no"?-->

<!--?xml version="1.0" encoding="UTF-8" standalone="no"?-->

<!--
************* Copyright (c) 2015 Pareto Softare, LLC DBA Simplemaps.com *******************		
************* Free for Commercial Use, full terms at  http://simplemaps.com/resources/svg-license ************
************* Attribution is appreciated! http://simplemaps.com ***************************
-->

<svg
   xmlns:dc="http://purl.org/dc/elements/1.1/"
   xmlns:cc="http://creativecommons.org/ns#"
   xmlns:rdf="http://www.w3.org/1999/02/22-rdf-syntax-ns#"
   xmlns:svg="http://www.w3.org/2000/svg"
   xmlns="http://www.w3.org/2000/svg"
   xmlns:sodipodi="http://sodipodi.sourceforge.net/DTD/sodipodi-0.dtd"
   xmlns:inkscape="http://www.inkscape.org/namespaces/inkscape"
   enable_background="new 0 0 1000 1585"
   height="549.01257"
   pretty_print="True"
   style="fill:none;stroke:#000000;stroke-linejoin:round"
   version="1.1"
   viewBox="0 0 354.46857 549.01257"
   width="354.46857"
   id="svg2"
   inkscape:version="0.91 r13725"
   sodipodi:docname="Tacna.svg"><sodipodi:namedview
   pagecolor="#ffffff"
   bordercolor="#666666"
   borderopacity="0.05098039"
   objecttolerance="10"
   gridtolerance="10"
   guidetolerance="10"
   inkscape:pageopacity="0"
   inkscape:pageshadow="2"
   inkscape:window-width="1920"
   inkscape:window-height="1017"
   id="namedview37"
   showgrid="false"
   inkscape:zoom="0.61438544"
   inkscape:cx="-479.19062"
   inkscape:cy="119.60872"
   inkscape:window-x="-8"
   inkscape:window-y="-8"
   inkscape:window-maximized="1"
   inkscape:current-layer="svg2"
   showborder="true"
   fit-margin-top="10"
   fit-margin-left="10"
   fit-margin-right="10"
   fit-margin-bottom="10"
   borderlayer="false"
   inkscape:showpageshadow="false"
   inkscape:snap-to-guides="false"
   inkscape:snap-grids="false"
   showguides="false" />
























utf-8<defs
   id="defs4">
  <style
     type="text/css"
     id="style6">path { fill-rule: evenodd; }utf-8utf-8</style>
</defs>
























utf-8<metadata
   id="metadata8">
utf-8utf-8<views>
utf-8utf-8utf-8<view
   h="1585.21431143"
   padding="0"
   w="1000">
utf-8utf-8utf-8utf-8<proj
   flip="auto"
   id="robinson"
   lon0="-80.0286400104" />
























utf-8utf-8utf-8utf-8<bbox
   h="307.01"
   w="193.79"
   x="-1203.32"
   y="0.49" />
























utf-8utf-8utf-8</view>
























utf-8utf-8</views>
























utf-8<rdf:rdf>
  <cc:work
     rdf:about="">
    <dc:format>image/svg+xml</dc:format>
    <dc:type
       rdf:resource="http://purl.org/dc/dcmitype/StillImage" />
  </cc:work>
</rdf:rdf>
<rdf:rdf>
  <cc:work
     rdf:about="">
    <dc:format>image/svg+xml</dc:format>
    <dc:type
       rdf:resource="http://purl.org/dc/dcmitype/StillImage" />
    <dc:title />
  </cc:work>
</rdf:rdf>
<rdf:RDF>
  <cc:Work
     rdf:about="">
    <dc:format>image/svg+xml</dc:format>
    <dc:type
       rdf:resource="http://purl.org/dc/dcmitype/StillImage" />
    <dc:title />
  </cc:Work>
</rdf:RDF>
</metadata>
























utf-8<path
   inkscape:label=""
   inkscape:connector-curvature="0"
   id="EDUCACION_TACNA"
   d="m 37.66542,290.67594 4.837135,-7.74205 7.738844,-6.29054 7.739155,-1.93547 4.83693,-3.38726 8.222831,-0.48384 2.902173,-0.48396 1.450909,-9.19381 2.902257,-9.1937 6.771701,-7.2581 13.543371,-13.06488 4.353204,-5.80665 0.4838,-5.80652 0,-6.77439 6.28808,-9.19377 0.4838,-10.16151 6.77162,-4.83874 7.73927,-1.93556 6.28786,-1.45171 9.67392,-1.45167 4.83685,-10.16146 3.38597,-7.25822 5.3206,-6.29058 0.4837,-6.29045 -1.93472,-6.77422 0.9675,-8.22594 0.48363,-7.74215 0.48383,-9.67779 12.57603,-4.83873 11.60868,-5.32264 6.77159,-0.96782 5.32063,3.87103 8.22265,1.45166 3.3859,4.35491 -10.15747,6.77437 -3.38584,6.77428 1.93476,7.74223 2.41861,2.41945 8.70642,-8.22602 8.22275,1.45153 0.96729,5.32282 3.38603,4.83881 2.41831,4.83864 1.93487,4.35503 6.28798,4.83888 1.93473,5.3227 -0.96747,4.83883 5.80435,3.8709 13.05967,10.16162 10.64124,3.87118 9.19014,3.38711 5.32064,1.45163 4.35333,4.83881 5.32061,3.87106 8.70636,-4.83881 12.09232,2.41938 9.6739,4.35486 12.09225,8.22607 5.32068,7.2583 -0.96756,7.25811 -7.2553,-3.38707 -5.32065,-3.38726 -4.83678,-1.45166 -6.7717,1.45166 -3.38593,2.41956 -2.4184,-2.41956 -8.22283,5.80663 -1.93472,3.87105 -1.45108,0.9678 -20.31514,-1.93557 -5.32055,1.93557 -3.86959,15.96812 -3.86951,5.80652 -11.12494,-0.96767 -7.25539,3.8709 -4.35313,4.83881 -0.48374,2.90342 -13.54335,15.96804 -5.3206,5.80664 -8.22282,0.48397 -1.45113,-1.93552 6.28803,-8.22587 2.90219,-4.35507 0.48377,-11.61312 -0.48377,-6.29052 -5.80423,-1.45163 -4.83703,0.96781 -6.77163,0 -2.41834,-2.4195 -8.22299,-7.74207 1.93488,-8.70982 -2.41844,-4.8388 -4.83684,0 -9.1903,0.48392 -4.83692,4.35488 -2.41839,4.83879 -8.70658,1.93563 -3.38578,2.41931 -1.45109,1.45156 -6.28797,4.35512 -50.787695,56.61418 -3.385901,8.70975 -1.934546,4.35497 -0.483751,1.93558 -4.353327,2.41926 -8.222705,-9.19356 -2.418585,-2.90342 -9.189957,-2.90327 -7.255358,0 -8.22276,-1.45156 -4.353189,-4.35501 z"
   style="fill:#ffffff;fill-opacity:1;fill-rule:evenodd;stroke:#808080;stroke-width:0.49999997;stroke-linecap:butt;stroke-linejoin:miter;stroke-miterlimit:4;stroke-dasharray:none;stroke-opacity:1" />
<path
   inkscape:label="UGEL TACNA"
   inkscape:connector-curvature="0"
   style="fill:#ffffff;fill-opacity:1;stroke:#808080;stroke-width:0.49999997;stroke-miterlimit:4;stroke-dasharray:none;stroke-opacity:1"
   id="UGEL_TACNA"
   d="m 160.38235,383.61992 c -12.5052,-8.357 -22.75963,-14.59302 -37.209,-22.62985 l -8.07226,-4.48984 -8.77152,-9.02079 -8.7717,-9.0205 -8.840509,-4.03494 -8.840594,-4.03462 -0.163203,-1.9978 -0.164416,-1.9976 3.425827,-0.99619 3.426074,-0.99665 0.334295,-2.43279 c 0.18433,-1.33782 1.056929,-3.87826 1.940214,-5.64568 3.145621,-6.2943 17.448672,-22.86616 44.568412,-51.63609 l 14.04854,-14.904 7.69218,-3.27672 7.69259,-3.27646 1.88168,-3.43243 1.88152,-3.43255 5.05899,-0.70528 5.05848,-0.70601 1.58038,1.84839 1.58054,1.84811 -0.95484,3.80625 -0.95472,3.80593 5.8654,6.24067 5.86538,6.24094 8.37218,0 8.37164,0 -0.20142,8.57538 -0.2012,8.57606 -4.28535,5.67859 c -2.35645,3.12361 -4.36041,5.85294 -4.45266,6.06527 -0.0914,0.21068 0.39657,1.23755 1.08397,2.27862 l 1.25115,1.89346 5.85734,0 5.85695,0 11.65867,-12.4843 c 11.37675,-12.18262 11.63813,-12.50715 10.80615,-13.4276 -0.97865,-1.08276 -1.19628,-0.80837 3.72167,-4.69339 l 3.68779,-2.91267 7.8007,-0.13277 7.80121,-0.13274 0.2761,-2.88598 c 0.19102,-2.01202 1.04107,-4.61171 2.80203,-8.58469 2.99426,-6.75808 3.86342,-9.13031 3.86342,-10.54693 l 0,-1.05005 10.79737,1.35912 10.79755,1.35926 2.9652,-0.91918 c 3.15474,-0.97843 3.20532,-1.06237 2.49852,-4.15727 -0.31796,-1.39201 -0.19083,-1.55311 2.61627,-3.28711 l 2.9505,-1.82355 2.57811,0.98808 2.57787,0.98771 1.06319,-1.89398 1.06321,-1.89366 4.13617,0 4.13599,0 6.06759,3.60932 6.06793,3.60956 0,4.42141 0,4.42128 -3.93329,3.3508 c -8.80237,7.4999 -18.63527,15.04021 -25.64184,19.66314 l -3.48714,2.30071 -10.98231,-1.13146 c -6.03952,-0.62237 -11.05943,-1.03557 -11.15455,-0.91966 -0.0953,0.11588 -1.71583,2.39405 -3.60192,5.06089 l -3.42908,4.84874 0,5.71068 0,5.71089 1.43321,0.84738 c 1.69997,1.00558 1.60445,0.61475 2.88761,11.81926 l 1.01584,8.86587 3.14675,5.75082 c 1.73104,3.16298 3.74889,6.82924 4.48408,8.1472 l 1.33667,2.39616 -7.27199,15.2351 -7.27182,15.23458 -12.06587,10.88365 -12.066,10.88333 -7.43135,-0.38627 -7.43027,-0.38502 -6.78167,4.57851 -6.78205,4.57959 -10.07804,0 -10.078,0 -3.98371,-1.5054 -3.98376,-1.50526 -4.65674,2.19125 c -2.56167,1.20522 -5.65547,2.61931 -6.87524,3.14201 l -2.2182,0.95032 -6.638,-4.43585 0,0 z" />
</svg>
