<?xml version="1.0" encoding="UTF-8" standalone="no"?>
<!--?xml version="1.0" encoding="UTF-8" standalone="no"?-->

<!--?xml version="1.0" encoding="UTF-8" standalone="no"?-->

<!--
************* Copyright (c) 2015 Pareto Softare, LLC DBA Simplemaps.com *******************		
************* Free for Commercial Use, full terms at  http://simplemaps.com/resources/svg-license ************
************* Attribution is appreciated! http://simplemaps.com ***************************
-->

<svg
   xmlns:dc="http://purl.org/dc/elements/1.1/"
   xmlns:cc="http://creativecommons.org/ns#"
   xmlns:rdf="http://www.w3.org/1999/02/22-rdf-syntax-ns#"
   xmlns:svg="http://www.w3.org/2000/svg"
   xmlns="http://www.w3.org/2000/svg"
   xmlns:sodipodi="http://sodipodi.sourceforge.net/DTD/sodipodi-0.dtd"
   xmlns:inkscape="http://www.inkscape.org/namespaces/inkscape"
   enable_background="new 0 0 1000 1585"
   height="549.01257"
   pretty_print="True"
   style="fill:none;stroke:#000000;stroke-linejoin:round"
   version="1.1"
   viewBox="0 0 354.46857 549.01257"
   width="354.46857"
   id="svg2"
   inkscape:version="0.91 r13725"
   sodipodi:docname="Tumbes.svg"><sodipodi:namedview
   pagecolor="#ffffff"
   bordercolor="#666666"
   borderopacity="0.05098039"
   objecttolerance="10"
   gridtolerance="10"
   guidetolerance="10"
   inkscape:pageopacity="0"
   inkscape:pageshadow="2"
   inkscape:window-width="1920"
   inkscape:window-height="1017"
   id="namedview37"
   showgrid="false"
   inkscape:zoom="1.431634"
   inkscape:cx="252.81497"
   inkscape:cy="328.77618"
   inkscape:window-x="-8"
   inkscape:window-y="-8"
   inkscape:window-maximized="1"
   inkscape:current-layer="svg2"
   showborder="true"
   fit-margin-top="10"
   fit-margin-left="10"
   fit-margin-right="10"
   fit-margin-bottom="10"
   borderlayer="false"
   inkscape:showpageshadow="false"
   inkscape:snap-to-guides="false"
   inkscape:snap-grids="false"
   showguides="false" />
























utf-8<defs
   id="defs4">
  <style
     type="text/css"
     id="style6">path { fill-rule: evenodd; }utf-8utf-8</style>
</defs>
























utf-8<metadata
   id="metadata8">
utf-8utf-8<views>
utf-8utf-8utf-8<view
   h="1585.21431143"
   padding="0"
   w="1000">
utf-8utf-8utf-8utf-8<proj
   flip="auto"
   id="robinson"
   lon0="-80.0286400104" />
























utf-8utf-8utf-8utf-8<bbox
   h="307.01"
   w="193.79"
   x="-1203.32"
   y="0.49" />
























utf-8utf-8utf-8</view>
























utf-8utf-8</views>
























utf-8<rdf:rdf>
  <cc:work
     rdf:about="">
    <dc:format>image/svg+xml</dc:format>
    <dc:type
       rdf:resource="http://purl.org/dc/dcmitype/StillImage" />
  </cc:work>
</rdf:rdf>
<rdf:rdf>
  <cc:work
     rdf:about="">
    <dc:format>image/svg+xml</dc:format>
    <dc:type
       rdf:resource="http://purl.org/dc/dcmitype/StillImage" />
    <dc:title />
  </cc:work>
</rdf:rdf>
<rdf:RDF>
  <cc:Work
     rdf:about="">
    <dc:format>image/svg+xml</dc:format>
    <dc:type
       rdf:resource="http://purl.org/dc/dcmitype/StillImage" />
    <dc:title />
  </cc:Work>
</rdf:RDF>
</metadata>
























utf-8<path
   inkscape:label=""
   inkscape:connector-curvature="0"
   style="fill:#ffffff;fill-opacity:1;stroke:#808080;stroke-width:0.49999991;stroke-miterlimit:4;stroke-dasharray:none;stroke-opacity:1"
   id="EDUCACION_UGEL_CONTRALMIRANTE_VILLAR"
   d="m 156.41244,322.44226 c -1.63252,-1.25265 -4.89242,-3.79438 -7.24399,-5.64818 l -4.2758,-3.37077 -14.04131,-0.24362 c -9.33579,-0.16261 -17.55648,-0.11139 -24.52937,0.16262 -14.165052,0.54525 -17.435958,0.30583 -34.194813,-2.50955 l -1.053392,-0.17772 -0.111607,-3.7455 c -0.01158,-3.3776 -0.213305,-3.96143 -1.153471,-5.94909 -0.647645,-1.372 -1.889301,-3.10384 -3.287617,-4.58938 l -2.245581,-2.38629 -3.58135,0 c -3.994333,0 -5.932671,-0.49547 -7.382761,-1.88754 -2.019346,-1.93905 -2.009704,-1.99276 1.738838,-9.5017 7.550151,-15.12605 13.206624,-24.02943 18.405166,-28.97376 2.592756,-2.46546 5.848787,-4.50831 7.928861,-4.97487 2.42214,-0.54422 4.420931,-1.83839 7.749903,-5.02194 4.162832,-3.9811 6.739041,-5.53647 13.022014,-7.86364 l 3.33038,-1.2335 2.11478,-6.21117 c 1.16323,-3.41603 4.21447,-11.70535 6.78078,-18.4204 2.56662,-6.71514 4.82651,-12.70306 5.02224,-13.30662 0.61119,-1.88877 10.80066,-10.25532 17.8877,-14.68974 6.82251,-4.26885 18.50431,-10.4207 25.48265,-13.41911 2.01766,-0.86705 4.3882,-1.94307 5.26776,-2.39104 l 1.59916,-0.81361 3.90259,7.6944 c 4.149,8.18062 7.76243,14.05412 9.33791,15.17854 1.41912,1.01271 2.03489,2.89703 2.03489,6.22761 l 0,2.85004 -3.55422,3.90119 c -4.3329,4.75539 -5.20156,5.91944 -6.64376,8.901 -0.95656,1.97935 -1.12535,2.68415 -1.12535,4.71397 l 0,2.38661 5.5781,0.17286 c 6.46938,0.20047 8.36763,0.64948 10.03935,2.37945 l 1.11193,1.15012 -2.5608,4.87775 c -1.40863,2.68269 -2.51285,5.00628 -2.4537,5.16357 0.007,0.15691 1.94354,1.81799 4.18734,3.68974 2.24395,1.87225 4.07986,3.53374 4.07986,3.69311 0,0.15806 -0.61121,1.8839 -1.36533,3.8327 l -1.3657,3.54292 2.22999,12.07738 c 1.22643,6.64258 2.30515,12.40962 2.39743,12.81607 0.16439,0.71717 0.008,0.74038 -3.06281,0.8338 l -3.23073,0.009 -6.57835,17.02317 -6.57891,17.02327 -3.79498,3.03348 c -3.88693,3.10689 -7.40096,6.61355 -9.05768,9.0377 -0.51385,0.75037 -1.43668,2.52736 -2.05306,3.94787 -0.61635,1.42009 -1.25807,2.72121 -1.4273,2.89055 -0.18816,0.19088 -1.46138,-0.57568 -3.27569,-1.96913 l 0,0 z" />
<path
   inkscape:label=""
   inkscape:connector-curvature="0"
   style="fill:#ffffff;fill-opacity:1;stroke:#808080;stroke-width:0.49999991;stroke-miterlimit:4;stroke-dasharray:none;stroke-opacity:1"
   id="EDUCACION_UGEL_TUMBES"
   d="m 166.30207,327.65338 c -0.73156,-0.39088 -1.82192,-1.04947 -2.42681,-1.46089 l -1.09952,-0.74777 8.26753,-7.69359 8.26739,-7.6934 1.62409,-3.61303 c 6.48564,-14.42396 10.09056,-23.40253 11.87015,-29.56537 l 0.74795,-2.58656 3.95683,0 3.95645,0 -0.18835,-1.58563 c -0.009,-0.87193 -0.78337,-9.02064 -1.50798,-18.10802 -0.72784,-9.08749 -1.40407,-17.12337 -1.50555,-17.85771 -0.17113,-1.24794 -0.35632,-1.44194 -2.83874,-2.97252 -2.53254,-1.56291 -2.64593,-1.6849 -2.48201,-2.67021 0.27018,-1.63846 1.50428,-13.55288 1.50428,-14.54812 l 0,-0.89844 -8.0763,-1.43189 c -4.44198,-0.78781 -8.14416,-1.49238 -8.22711,-1.56634 -0.009,-0.008 2.65204,-2.947 6.07826,-6.38386 l 6.22873,-6.24988 0,-7.25665 0,-7.25663 -1.37064,0 c -1.18763,0 -1.54378,-0.19088 -2.66471,-1.41851 -3.17786,-3.4839 -8.25497,-16.44207 -8.28153,-21.13662 -0.001,-0.97335 0.27645,-1.19285 5.40625,-4.24492 l 5.412,-3.21933 7.82648,-15.53096 c 7.66504,-15.21096 7.85036,-15.53778 8.99195,-15.85143 8.44093,-2.32017 16.97818,-2.80193 24.88663,-1.40442 l 4.40466,0.77629 3.25526,-2.84647 c 1.79049,-1.56555 3.37548,-2.89245 3.52205,-2.94857 0.14729,-0.0202 0.3259,0.91546 0.39722,2.16009 0.15658,2.73429 1.06,7.35569 3.04144,15.59504 2.03587,8.46336 2.77925,12.34454 3.01603,15.74662 0.1799,2.56606 0.12195,3.03157 -0.50497,4.09368 l -0.70375,1.19803 7.31866,4.82088 c 7.07057,4.65793 7.31845,4.85821 7.32351,5.92009 0.001,0.60429 -0.39037,7.96001 -0.87552,16.34548 l -0.88004,15.24682 6.25088,7.95174 c 3.43789,4.37331 6.38553,8.12473 6.55077,8.3362 0.18138,0.2322 -0.005,4.37486 -0.57247,10.46172 -0.48065,5.54234 -0.82429,10.11751 -0.76542,10.16737 0.007,0.005 3.18044,1.11023 6.93551,2.35535 6.44093,2.13645 12.3404,4.58213 12.30759,5.10221 -10e-4,0.12995 -1.11926,1.01053 -2.46945,1.95992 l -2.45465,1.72532 -3.35859,-0.75836 c -2.40431,-0.54373 -3.4399,-0.65437 -3.64487,-0.39052 -0.15722,0.20131 -1.30257,2.09554 -2.54456,4.20685 -3.36306,5.71658 -5.30486,8.47528 -7.87354,11.18539 -1.85692,1.95937 -2.73677,2.61054 -4.46693,3.30449 -1.18476,0.47502 -2.34767,0.86449 -2.58409,0.86449 -0.23532,0 -4.39406,-2.117 -9.23874,-4.70458 l -8.80823,-4.70429 -9.56059,0.31531 -9.56076,0.31558 -1.26106,0.96344 c -3.46069,2.64546 -7.22679,7.92018 -11.77663,16.49368 -5.83675,10.9994 -5.10308,9.93315 -9.30465,13.52101 -7.79858,6.65973 -10.8725,10.12271 -11.78884,13.28154 -0.97415,3.35612 -8.30571,13.51362 -15.40479,21.34005 -2.76973,3.0538 -6.21708,6.26493 -6.72528,6.26493 -0.1236,0 -0.82504,-0.32016 -1.55472,-0.71352 l 0,0 z" />
<path
   inkscape:label=""
   inkscape:connector-curvature="0"
   style="fill:#ffffff;fill-opacity:1;stroke:#808080;stroke-width:0.49999991;stroke-miterlimit:4;stroke-dasharray:none;stroke-opacity:1"
   id="EDUCACION_UGEL_ZARUMILLA"
   d="m 295.43745,238.98034 c -0.72323,-0.7232 -1.74608,-2.08727 -2.27383,-3.02924 l -0.95935,-1.71247 -7.11613,-5e-4 -7.11584,-3.3e-4 0.25445,-2.25303 c 0.33071,-2.91656 0.23244,-16.91946 -0.13047,-18.86741 -0.23295,-1.25104 -1.27834,-2.77058 -6.31588,-9.17961 l -6.03659,-7.68076 0.65353,-15.30615 c 0.35966,-8.41856 0.65668,-15.85893 0.66003,-16.53415 0.001,-1.20957 -0.009,-1.28371 -5.38462,-5.00664 -2.96383,-2.07861 -5.51584,-3.86605 -5.67109,-3.97178 -0.15371,-0.0189 -2.08354,-7.24071 -4.28517,-15.85507 -2.20203,-8.61444 -4.435,-17.16471 -4.9622,-19.00053 -0.52658,-1.83552 -1.00738,-3.5723 -1.06615,-3.85905 -0.008,-0.32785 2.1722,-2.53333 6.05401,-5.95907 l 6.16124,-5.43754 1.70091,-5.390002 1.70098,-5.390005 3.70426,-0.03938 c 4.13858,-0.03938 6.44469,0.34429 9.97358,1.94904 2.33537,1.061295 7.73598,4.287897 7.72472,4.615847 -10e-4,0.11324 -1.93173,3.13428 -4.28429,6.71406 -2.35221,3.5799 -4.22906,6.59703 -4.17006,6.70465 0.007,0.11191 2.43695,1.89749 5.28353,3.97712 l 5.17619,3.78116 0,7.90374 c 0,4.34641 0.009,9.725 0.21706,11.95151 l 0.21707,4.04835 2.89903,1.91231 2.89902,1.91227 0.19641,5.19008 c 0.11163,2.85458 0.38722,13.74054 0.61647,24.19049 l 0.4189,19.00016 4.25982,6.5345 4.26019,6.53475 8.3e-4,8.00481 7.1e-4,8.00477 3.02618,3.0454 3.02613,3.04579 -4.60222,3.25923 c -2.53129,1.79303 -4.78079,3.32832 -4.99872,3.41199 -0.21813,0.009 -0.98844,-0.43858 -1.71015,-1.16462 l 0,0 z" />
</svg>
