<?xml version="1.0" encoding="UTF-8" standalone="no"?>
<!--?xml version="1.0" encoding="UTF-8" standalone="no"?-->

<!--?xml version="1.0" encoding="UTF-8" standalone="no"?-->

<!--
************* Copyright (c) 2015 Pareto Softare, LLC DBA Simplemaps.com *******************		
************* Free for Commercial Use, full terms at  http://simplemaps.com/resources/svg-license ************
************* Attribution is appreciated! http://simplemaps.com ***************************
-->

<svg
   xmlns:dc="http://purl.org/dc/elements/1.1/"
   xmlns:cc="http://creativecommons.org/ns#"
   xmlns:rdf="http://www.w3.org/1999/02/22-rdf-syntax-ns#"
   xmlns:svg="http://www.w3.org/2000/svg"
   xmlns="http://www.w3.org/2000/svg"
   xmlns:sodipodi="http://sodipodi.sourceforge.net/DTD/sodipodi-0.dtd"
   xmlns:inkscape="http://www.inkscape.org/namespaces/inkscape"
   enable_background="new 0 0 1000 1585"
   height="549.01257"
   pretty_print="True"
   style="fill:none;stroke:#000000;stroke-linejoin:round"
   version="1.1"
   viewBox="0 0 354.46857 549.01257"
   width="354.46857"
   id="svg2"
   inkscape:version="0.91 r13725"
   sodipodi:docname="Ucayali.svg"><sodipodi:namedview
   pagecolor="#ffffff"
   bordercolor="#666666"
   borderopacity="0.05098039"
   objecttolerance="10"
   gridtolerance="10"
   guidetolerance="10"
   inkscape:pageopacity="0"
   inkscape:pageshadow="2"
   inkscape:window-width="1920"
   inkscape:window-height="1017"
   id="namedview37"
   showgrid="false"
   inkscape:zoom="1.0123181"
   inkscape:cx="-151.669"
   inkscape:cy="412.59649"
   inkscape:window-x="-8"
   inkscape:window-y="-8"
   inkscape:window-maximized="1"
   inkscape:current-layer="svg2"
   showborder="true"
   fit-margin-top="10"
   fit-margin-left="10"
   fit-margin-right="10"
   fit-margin-bottom="10"
   borderlayer="false"
   inkscape:showpageshadow="false"
   inkscape:snap-to-guides="false"
   inkscape:snap-grids="false"
   showguides="false" />























utf-8<defs
   id="defs4">
  <style
     type="text/css"
     id="style6">path { fill-rule: evenodd; }utf-8utf-8</style>
</defs>























utf-8<metadata
   id="metadata8">
utf-8utf-8<views>
utf-8utf-8utf-8<view
   h="1585.21431143"
   padding="0"
   w="1000">
utf-8utf-8utf-8utf-8<proj
   flip="auto"
   id="robinson"
   lon0="-80.0286400104" />























utf-8utf-8utf-8utf-8<bbox
   h="307.01"
   w="193.79"
   x="-1203.32"
   y="0.49" />























utf-8utf-8utf-8</view>























utf-8utf-8</views>























utf-8<rdf:rdf>
  <cc:work
     rdf:about="">
    <dc:format>image/svg+xml</dc:format>
    <dc:type
       rdf:resource="http://purl.org/dc/dcmitype/StillImage" />
  </cc:work>
</rdf:rdf>
<rdf:rdf>
  <cc:work
     rdf:about="">
    <dc:format>image/svg+xml</dc:format>
    <dc:type
       rdf:resource="http://purl.org/dc/dcmitype/StillImage" />
    <dc:title />
  </cc:work>
</rdf:rdf>
<rdf:RDF>
  <cc:Work
     rdf:about="">
    <dc:format>image/svg+xml</dc:format>
    <dc:type
       rdf:resource="http://purl.org/dc/dcmitype/StillImage" />
    <dc:title />
  </cc:Work>
</rdf:RDF>
</metadata>























utf-8<path
   inkscape:label=""
   inkscape:connector-curvature="0"
   style="fill:#ffffff;fill-opacity:1;stroke:#808080;stroke-width:0.5;stroke-miterlimit:4;stroke-dasharray:none;stroke-opacity:1"
   id="EDUCACION_PADRE_ABAD"
   d="m 77.612777,194.54253 c -0.614773,0.13155 -0.888239,0.004 -2.026204,-0.92099 -1.268464,-1.03467 -1.356315,-1.06807 -2.461651,-0.93703 -0.630471,0.0748 -1.84657,0.4592 -2.702522,0.85424 -1.387545,0.64036 -1.683502,0.90068 -2.729366,2.4006 l -1.173261,1.68239 0,1.94895 c 0,1.84154 -0.03358,1.97328 -0.6045,2.38988 -0.536508,0.39132 -0.57812,0.5161 -0.370161,1.10928 0.221279,0.63147 0.149073,0.75696 -1.317673,2.2748 l -1.55189,1.60646 0.292383,2.06545 c 0.227124,1.60499 0.231226,2.14225 0.01216,2.40972 -0.150602,0.18926 -0.977094,1.14463 -1.836258,2.12288 l -1.562088,1.7786 -2.729642,0 c -1.907812,0 -2.977311,-0.10365 -3.552422,-0.34428 -1.068822,-0.44715 -1.267735,-0.43703 -2.863387,0.14582 -1.308505,0.47773 -1.341358,0.51073 -1.341358,1.34561 0,0.72619 -0.199715,1.06866 -1.317881,2.25993 -1.313884,1.39974 -1.326204,1.40629 -4.068257,2.1788 -2.566882,0.72317 -2.783035,0.75021 -3.240562,0.40596 -0.896122,-0.67427 -2.377729,-2.86444 -3.570454,-5.27797 -0.689629,-1.39544 -1.344564,-2.42807 -1.578906,-2.48944 -0.29329,-0.0769 -0.475328,-0.52447 -0.680338,-1.67292 -0.153921,-0.8623 -0.341947,-1.66359 -0.417866,-1.78052 -0.07566,-0.11697 -0.55012,-0.30856 -1.053735,-0.42606 -0.806282,-0.18778 -1.03222,-0.4035 -1.890845,-1.80312 -0.817154,-1.33196 -0.975236,-1.78192 -0.975236,-2.77656 0,-1.02071 -0.08235,-1.24101 -0.587481,-1.57245 -0.32308,-0.21201 -0.793233,-0.86929 -1.044806,-1.46072 -0.25154,-0.59146 -0.850528,-1.48845 -1.331076,-1.99333 -0.777563,-0.81696 -0.904482,-1.11995 -1.153452,-2.75395 -0.153938,-1.00977 -0.797945,-3.37942 -1.431208,-5.26582 -1.134531,-3.37977 -1.146578,-3.44505 -0.823641,-4.47515 0.320617,-1.02281 0.309182,-1.09111 -0.529802,-3.16475 l -0.857484,-2.11937 2.103201,-1.3056 c 1.15674,-0.71804 2.773638,-1.54111 3.592982,-1.82909 1.32707,-0.46635 1.50585,-0.60212 1.63703,-1.24332 0.08117,-0.39584 0.462328,-1.04597 0.8475,-1.44466 0.621073,-0.64294 0.731247,-0.97142 0.974121,-2.90512 0.38894,-3.09627 0.410308,-3.1347 1.855564,-3.33266 1.958797,-0.26824 2.105941,-0.3818 2.920945,-2.25343 l 0.751773,-1.72655 2.117648,-0.51126 2.117679,-0.51116 4.238309,1.18801 c 4.124431,1.15603 4.261141,1.17847 5.087417,0.83277 l 0.849041,-0.35524 -0.06654,-1.76122 -0.06697,-1.76121 -1.031356,-0.24965 c -1.020901,-0.24717 -1.03205,-0.26038 -1.100139,-1.30373 -0.06195,-0.94688 -0.184115,-1.15134 -1.203331,-2.01186 -1.630619,-1.3768 -1.576058,-1.89264 0.398511,-3.7658 l 1.533062,-1.45431 1.389234,0.85954 c 1.349695,0.83502 1.495174,0.87008 5.111265,1.2318 l 3.722065,0.37234 1.158025,-0.58757 1.157957,-0.58755 0.648136,0.46216 c 0.356471,0.25414 1.580245,0.72985 2.719463,1.05705 1.845549,0.53007 2.215633,0.56822 3.395231,0.34988 0.728169,-0.13494 1.457216,-0.24512 1.620126,-0.24512 0.163057,0 0.852792,0.74877 1.53297,1.66389 l 1.236716,1.66383 0.138822,3.24748 c 0.155405,3.6393 0.501309,4.90871 1.992313,7.30937 1.253017,2.01747 1.377295,3.4456 0.470045,5.40233 -0.378061,0.81543 -0.969478,2.41204 -1.314294,3.54797 -0.734433,2.41946 -0.835113,5.0039 -0.341343,8.76185 0.295929,2.25279 0.344677,2.3828 1.37175,3.65487 0.58571,0.72536 1.1938,1.36099 1.351474,1.41251 z" />
<path
   inkscape:label=""
   inkscape:connector-curvature="0"
   style="fill:#ffffff;fill-opacity:1;stroke:#808080;stroke-width:0.5;stroke-miterlimit:4;stroke-dasharray:none;stroke-opacity:1"
   id="EDUCACION_ATALAYA"
   d="m 218.39819,338.98006 c 0,-0.63866 -0.0254,-0.65406 -1.07757,-0.65406 -0.84736,0 -1.29359,-0.14614 -2.08836,-0.68294 -0.60493,-0.40887 -1.39603,-0.72654 -1.97028,-0.79132 l -0.95955,-0.10851 0,-1.17065 0,-1.1706 -1.39814,0 c -1.35596,0 -1.42009,0.0258 -2.12527,0.85074 l -0.72716,0.85054 -1.96443,-0.29249 c -2.3232,-0.34569 -5.06104,-0.94458 -5.59342,-1.2234 -0.51579,-0.27017 -0.95216,-1.19457 -1.09602,-2.32215 -0.0921,-0.72426 -0.34725,-1.18141 -1.11853,-2.00711 -0.90804,-0.97217 -0.99885,-1.16738 -0.99885,-2.14727 0,-1.00195 -0.0461,-1.09407 -0.6537,-1.30602 -0.62846,-0.21945 -0.72665,-0.1584 -2.55805,1.58279 l -1.90441,1.81106 -4.68071,0.67171 c -2.57439,0.36947 -6.00325,0.83046 -7.61975,1.02454 -1.61652,0.19421 -3.2469,0.39839 -3.62306,0.45438 -0.5353,0.0793 -1.05065,0.52733 -2.3688,2.05837 l -1.6847,1.95666 -0.78801,-0.46819 c -2.93678,-1.7452 -3.34491,-2.16346 -2.26691,-2.3234 0.38985,-0.0583 0.48397,-0.33338 0.74486,-2.1798 0.16455,-1.16263 0.26892,-2.50613 0.23254,-2.98584 -0.0821,-1.0791 -1.08685,-7.70613 -1.37415,-9.05981 l -0.21106,-0.99411 -1.55371,-0.31382 -1.5537,-0.31383 -0.94075,-2.60567 c -0.85935,-2.38011 -0.94067,-2.78376 -0.94067,-4.66665 l 0,-2.06116 -0.88462,-1.14813 c -0.4865,-0.63139 -1.15677,-1.24304 -1.48953,-1.35918 -0.33279,-0.11581 -1.18384,-0.86219 -1.89125,-1.658 -0.99284,-1.11686 -1.74545,-1.69561 -3.29993,-2.53785 -1.94284,-1.05271 -2.01381,-1.11768 -2.01381,-1.84643 0,-0.41542 -0.1028,-0.75537 -0.22852,-0.75537 -0.38886,0 -1.56968,0.66576 -2.76628,1.55928 -1.09511,0.81794 -1.13879,0.8895 -1.01726,1.66409 0.12073,0.77045 0.0748,0.84823 -0.95292,1.61215 l -1.0799,0.80264 0.10883,2.35828 0.10873,2.35829 -1.33156,2.28787 -1.33168,2.28781 0,5.51659 0,5.51634 -0.72807,-0.55602 c -0.4483,-0.3424 -1.0106,-0.55606 -1.46316,-0.55606 -0.60234,0 -0.9615,-0.22431 -1.98835,-1.24181 -1.16725,-1.15649 -1.22927,-1.26823 -0.90518,-1.62676 0.32122,-0.3555 0.27394,-0.62456 -0.61208,-3.48618 -0.84704,-2.73579 -1.02329,-3.11791 -1.49593,-3.2431 -0.29465,-0.0782 -2.86043,-0.2071 -5.70175,-0.28639 l -5.16589,-0.14407 -0.42833,0.84073 c -0.39611,0.77732 -0.51504,0.85093 -1.58296,0.97936 -0.6351,0.0767 -1.52376,0.13957 -1.97469,0.14057 -0.50879,0 -1.5895,0.36197 -2.84754,0.95066 l -2.02759,0.94866 -1.43957,-0.53274 -1.43959,-0.53281 0.1129,-1.0155 0.11266,-1.01539 -1.21625,-0.87191 c -0.66893,-0.47963 -1.5495,-0.97005 -1.95687,-1.09001 -0.43894,-0.12942 -1.02171,-0.57245 -1.43089,-1.08833 -0.87954,-1.10886 -1.01668,-1.18945 -2.06912,-1.21542 -0.8416,-0.0216 -0.8272,-0.0317 0.42572,-0.33541 0.71312,-0.17271 1.37288,-0.43425 1.46618,-0.58135 0.0931,-0.14672 0.17089,-0.6842 0.17315,-1.19392 0,-0.61353 0.14227,-1.0652 0.41376,-1.33738 0.53927,-0.54002 2.47297,-1.25352 4.22458,-1.55898 1.3949,-0.24321 1.40531,-0.2505 1.90387,-1.31624 0.27576,-0.58949 0.72969,-1.22166 1.00881,-1.40468 0.2792,-0.18302 0.5075,-0.43777 0.5075,-0.56583 0,-0.42229 2.02844,-2.61957 3.62174,-3.92334 0.86153,-0.70484 1.77862,-1.62528 2.03798,-2.04553 0.46494,-0.75329 0.49274,-0.76396 1.96497,-0.76396 0.82243,0 1.55776,0.10417 1.63675,0.2323 0.3054,0.49489 1.93225,1.51161 2.41863,1.51161 0.51024,0 0.51149,-0.004 0.51048,-2.7794 l 0,-2.77947 -1.414,-2.47833 c -1.31918,-2.31209 -1.41398,-2.56832 -1.41398,-3.82073 l 0,-1.34239 -2.74164,-1.19319 -2.74158,-1.19306 0.10674,-0.80608 c 0.0587,-0.44326 0.62228,-1.8656 1.25243,-3.1609 1.12471,-2.31193 1.14731,-2.39746 1.24377,-4.69933 l 0.0981,-2.34437 -3.07197,-3.24229 c -2.48024,-2.61792 -3.07242,-3.36314 -3.07398,-3.8685 0,-0.5252 -0.21191,-0.76143 -1.30621,-1.46726 -1.28854,-0.83139 -1.30435,-0.85402 -1.30435,-1.8621 0,-1.09177 -0.58415,-5.94678 -0.80239,-6.6686 -0.11406,-0.37699 -0.0858,-0.39614 0.21608,-0.14582 0.29583,0.24584 0.46412,0.19698 1.13583,-0.32875 0.73668,-0.57678 0.78058,-0.67814 0.66796,-1.54359 -0.0664,-0.50952 -0.17174,-1.14705 -0.2346,-1.41696 -0.0966,-0.41629 0.0863,-0.60482 1.2069,-1.24394 1.69016,-0.96389 3.24748,-2.52558 3.89169,-3.90275 0.49357,-1.05515 0.56719,-1.1098 2.95194,-2.19142 l 2.44576,-1.10924 2.47888,-0.001 c 2.23745,-0.001 2.67272,0.0673 4.46789,0.70119 l 1.98904,0.70235 2.3533,-1.0578 c 2.64645,-1.18961 2.21382,-1.1493 9.25838,-0.8614 l 3.398,0.13899 0.14758,-0.58998 c 0.0817,-0.32448 0.99085,-1.4656 2.02128,-2.53585 l 1.87331,-1.94587 1.65622,0.004 1.65622,0.004 2.93826,3.50735 c 1.93413,2.30876 3.31067,3.74589 4.02802,4.20542 0.59942,0.38393 1.38355,1.0738 1.7425,1.53302 0.35896,0.45921 1.31374,1.48799 2.12177,2.28618 1.04058,1.02792 1.57057,1.74937 1.81694,2.47329 0.27171,0.79846 0.47418,1.05 0.92565,1.15016 1.24293,0.27559 3.49194,1.22575 5.23932,2.2135 l 1.8313,1.03515 0.91598,2.39798 c 0.85286,2.23275 0.99673,2.46221 2.08745,3.3297 2.36413,1.88036 4.75336,3.35926 5.61446,3.47491 l 0.84884,0.11407 0.14283,-1.71543 c 0.0785,-0.94346 0.16141,-1.85425 0.18413,-2.02424 0.0228,-0.16991 0.45906,-0.44822 0.96933,-0.61848 1.28812,-0.42983 1.52523,-0.95245 0.84132,-1.85468 -0.29427,-0.38821 -0.60529,-1.09814 -0.69121,-1.57779 -0.11612,-0.6493 -0.69011,-1.53991 -2.24721,-3.4879 l -2.09098,-2.61597 -1.57855,-4.57786 -1.57848,-4.57778 -0.32882,-7.08482 c -0.1807,-3.89661 -0.32885,-7.35454 -0.32907,-7.68419 l -2.2e-4,-0.59958 13.24947,0 13.24949,0 1.63674,0.75726 c 1.43067,0.66186 4.55669,1.42273 5.84549,1.42273 0.21852,0 0.75816,0.24524 1.19927,0.54498 0.51289,0.34849 1.10498,0.54496 1.64247,0.54496 0.69532,0 0.84051,0.0753 0.84051,0.436 0,0.42204 0.1449,0.43595 4.53835,0.43595 l 4.53839,0 1.06759,1.5224 1.06752,1.52247 1.14301,0.003 1.14292,0.003 0,1.95546 0,1.95535 0.86915,0.49704 0.86921,0.49699 -0.004,1.85294 c -0.004,1.69559 -0.0752,2.24163 -0.53227,4.27702 -0.14521,0.64638 -0.11429,0.68743 0.62057,0.82549 0.46608,0.0873 1.04628,0.43499 1.4602,0.87444 0.6046,0.6418 0.86286,0.7465 2.15537,0.87406 l 1.46844,0.14478 0.37685,2.69982 0.37691,2.6997 -0.87323,1.2875 -0.87317,1.28747 0.97642,0.97775 0.97638,0.97771 -0.88354,0.39901 -0.8836,0.39892 0,2.01929 0,2.0192 1.11133,0.81682 c 1.05447,0.77505 1.10469,0.85687 0.98214,1.59899 -0.0712,0.43028 -0.13007,1.39537 -0.1314,2.14469 l 0,1.36259 -0.94776,0 c -0.52131,0 -1.53433,0.0621 -2.25119,0.13619 -1.19984,0.12579 -1.33487,0.19486 -1.69901,0.87208 -0.448,0.83291 -0.51418,0.84234 -3.01881,0.43157 l -1.71219,-0.28077 -2.64202,1.66789 c -4.92949,3.11218 -4.91971,3.1047 -4.92404,3.78891 0,0.41932 -0.25857,0.87635 -0.78741,1.40573 -0.77082,0.77195 -0.77907,0.79888 -0.51148,1.66771 0.14966,0.48567 0.28253,1.53524 0.2955,2.33232 0.0233,1.43136 0.0404,1.47044 1.38241,3.20418 1.24749,1.61165 1.35876,1.84369 1.35876,2.83461 l 0,1.07933 -1.08857,0.26149 c -1.16093,0.27876 -1.28718,0.49084 -0.74959,1.25932 0.25733,0.36797 0.5585,0.48578 1.25183,0.48937 0.50206,0 1.3047,0.19183 1.7837,0.42098 1.56646,0.74857 1.55654,0.72937 0.96576,1.84437 -0.46541,0.87845 -0.49282,1.05331 -0.23123,1.47275 0.25982,0.4167 0.24776,0.51193 -0.0972,0.76442 -0.21671,0.15839 -0.47328,0.28855 -0.57012,0.28855 -0.0967,0 -0.17659,0.49047 -0.17659,1.09002 0,0.85198 -0.0755,1.08975 -0.34694,1.08975 -0.19075,0 -0.39734,-0.19262 -0.45888,-0.42866 -0.11016,-0.42168 -0.85284,-0.81695 -1.0896,-0.57983 -0.0662,0.0666 -0.63267,1.3462 -1.25799,2.84359 l -1.13697,2.72252 0.61405,0.58909 0.61415,0.58892 -0.64601,0.73682 c -1.08655,1.23907 -0.92859,1.99664 0.78724,3.77628 1.4119,1.46442 1.43614,1.50966 1.62958,3.05278 0.19279,1.53707 0.22483,1.59785 1.71976,3.25836 0.83784,0.93047 1.65715,1.80308 1.82087,1.93917 0.16332,0.13593 2.02668,0.41144 4.14018,0.61219 l 3.84282,0.36491 0,0.59995 c 0,0.81068 1.01798,2.01073 1.58061,1.86334 0.39339,-0.10333 0.41539,-0.0268 0.29227,1.0188 -0.11819,1.0045 -0.06,1.24521 0.52135,2.1657 0.61823,0.97812 0.70731,1.03535 1.60871,1.03535 0.7705,0 1.02111,0.10186 1.30118,0.53021 0.33776,0.51606 0.32556,0.54322 -0.46371,1.03168 -0.44584,0.27596 -1.47241,1.07195 -2.28129,1.76905 l -1.47054,1.26731 -0.007,2.33332 -0.007,2.3332 -1.17365,1.04503 -1.17363,1.04512 -1.07021,-0.54308 -1.07022,-0.54299 -5.96252,2.91836 c -5.67185,2.7758 -6.00373,2.97185 -6.80594,4.02115 l -0.84332,1.10317 -1.49704,0 -1.49708,0 0,-0.65403 0,0 z" />
<path
   inkscape:label=""
   inkscape:connector-curvature="0"
   style="fill:#ffffff;fill-opacity:1;stroke:#808080;stroke-width:0.5;stroke-miterlimit:4;stroke-dasharray:none;stroke-opacity:1"
   id="EDUCACION_PURUS"
   d="m 243.70656,317.42425 c -0.18582,-0.35962 -0.43321,-0.65402 -0.54982,-0.65402 -0.1171,0 -0.20054,-0.073 -0.1864,-0.16339 0.0989,-0.62587 -0.0887,-0.70842 -1.60419,-0.70641 -0.8681,0 -2.67555,-0.20484 -4.01654,-0.45764 l -2.43814,-0.45934 -1.12682,-1.5466 c -1.1599,-1.59188 -1.50394,-2.39476 -1.51306,-3.53186 -0.004,-0.49528 -0.3764,-1.08169 -1.52357,-2.39944 -0.83514,-0.95917 -1.51856,-1.80549 -1.51866,-1.88073 -2.5e-4,-0.0754 0.14535,-0.48605 0.32339,-0.91285 0.17802,-0.42695 0.51928,-1.99579 0.75811,-3.48658 0.55046,-3.43597 0.57103,-3.48886 1.28799,-3.31404 1.65565,0.40405 1.4557,0.57549 2.1988,-1.88516 0.37444,-1.23977 0.8223,-2.68852 0.99513,-3.21939 0.17297,-0.53091 0.31433,-1.13216 0.31433,-1.33589 0,-0.60627 -2.14681,-1.94624 -3.15865,-1.97149 -0.71966,-0.009 -0.77546,-0.048 -0.32476,-0.17285 0.51735,-0.14347 0.54752,-0.24014 0.60776,-1.95184 l 0.0636,-1.8008 -1.40124,-1.79704 c -1.39642,-1.79053 -1.40025,-1.79932 -1.09749,-2.52025 0.41075,-0.9783 0.38655,-1.20657 -0.20056,-1.88981 l -0.50422,-0.58701 1.42791,-2.11512 c 1.34003,-1.98481 1.53478,-2.17421 3.16184,-3.07652 0.95363,-0.52887 2.14126,-1.2697 2.6392,-1.64626 l 0.90532,-0.6847 2.85942,0.37669 2.85948,0.37654 0,-0.9705 0,-0.97061 1.25186,0.14303 c 0.68847,0.0785 1.65567,0.19721 2.14925,0.26368 0.89685,0.12062 0.89801,0.12026 1.5784,-1.07064 0.37448,-0.65548 0.68092,-1.31263 0.68092,-1.46065 0,-0.1476 -0.2519,-0.56863 -0.55969,-0.9349 l -0.55964,-0.66613 0.68815,-0.28967 0.68818,-0.28967 -1.55089,-1.71991 c -1.46281,-1.62215 -1.53619,-1.7524 -1.29101,-2.29111 l 0.25999,-0.57131 22.60364,0 22.60376,0 0.71047,-0.7668 0.7105,-0.76703 0.94133,0.63027 0.94139,0.6302 1.94739,-0.86051 c 1.08402,-0.47894 2.46154,-0.91358 3.10725,-0.98033 l 1.15984,-0.1199 0.71129,-1.44451 c 0.90369,-1.83521 2.53825,-4.37314 2.89328,-4.49238 0.14982,-0.0506 0.66918,-0.19267 1.15454,-0.31699 0.48524,-0.12375 1.26906,-0.5565 1.74161,-0.96091 0.77658,-0.66449 1.07151,-0.76229 3.06263,-1.01582 l 2.20329,-0.28038 0.71582,-1.69563 0.71577,-1.69553 1.90391,-0.79018 c 1.5207,-0.63113 1.93095,-0.89806 2.03824,-1.32609 0.0742,-0.29473 0.94052,-1.41594 1.92595,-2.49161 1.73133,-1.88997 1.82453,-1.95647 2.77129,-1.97629 0.91949,-0.009 1.05083,-0.10291 2.13696,-1.35712 0.63652,-0.73513 1.21201,-1.61087 1.27894,-1.9462 0.10862,-0.5442 0.21434,-0.60968 0.98298,-0.60968 0.80249,0 0.88445,-0.0592 1.20323,-0.87193 0.31108,-0.79316 0.41307,-0.87201 1.12828,-0.87201 0.72101,0 1.0392,-0.2536 3.82832,-3.05191 l 3.04208,-3.05187 1.01672,0 1.0166,0 0.15652,1.13647 0.15639,1.13649 -1.49633,1.42873 c -0.82304,0.78585 -1.86399,1.60341 -2.31328,1.81686 l -0.81681,0.38807 0.14008,2.22401 c 0.15851,2.5201 0.81667,4.21374 2.03518,5.24025 0.37035,0.31213 0.89777,0.9632 1.17225,1.44682 0.48809,0.86041 0.49171,0.91252 0.16887,2.41943 -0.29683,1.38476 -0.37563,1.52739 -0.77988,1.41447 -0.24717,-0.0689 -0.65962,-0.18195 -0.91641,-0.25073 -0.36302,-0.0972 -0.81067,0.19967 -2.01382,1.33606 l -1.54688,1.46122 0,1.61336 c 0,1.45539 -0.0877,1.78807 -0.89557,3.39684 -0.7235,1.44061 -0.84899,1.85834 -0.65328,2.17228 0.34202,0.54807 0.34278,0.54705 -0.6827,1.00698 -1.11817,0.50151 -2.35923,1.43312 -5.66967,4.25584 -2.13105,1.8171 -2.63302,2.3706 -3.29735,3.63667 -0.75697,1.44216 -0.7986,1.64443 -1.21881,5.92226 -0.23934,2.43607 -0.48639,4.74591 -0.54913,5.13275 -0.16094,0.99231 -2.09254,3.79145 -2.96215,4.29233 -0.3993,0.22981 -1.99963,1.50991 -3.55621,2.84484 -3.45397,2.96191 -4.90841,4.06968 -7.03786,5.35985 -1.53614,0.93085 -1.76647,1.17684 -3.67136,3.92392 -1.11786,1.6119 -2.47202,3.6752 -3.00925,4.58499 l -0.97683,1.65414 0,2.88157 0,2.88155 -1.01787,2.06669 c -1.11712,2.26858 -3.90744,6.59364 -4.4248,6.85902 -0.17947,0.092 -2.62881,0.48027 -5.44268,0.86279 -4.23386,0.57569 -6.5052,0.74729 -13.17129,0.99513 l -8.05523,0.29953 -0.97969,-1.08489 -0.97968,-1.08484 -3.70102,-0.40537 -3.70104,-0.40525 -1.52396,1.02824 c -1.81549,1.22501 -3.6462,2.17943 -4.18365,2.181 -0.21343,5.4e-4 -0.85396,-0.166 -1.42328,-0.3705 -0.98444,-0.35328 -1.11496,-0.35152 -2.66687,0.0349 -0.89758,0.22378 -1.63186,0.48466 -1.63186,0.57992 0,0.2173 -0.89385,1.06192 -1.12402,1.06192 -0.0945,0 -0.32304,-0.29426 -0.50877,-0.65393 z" />
<path
   inkscape:label=""
   inkscape:connector-curvature="0"
   style="fill:#ffffff;fill-opacity:1;stroke:#808080;stroke-width:0.5;stroke-miterlimit:4;stroke-dasharray:none;stroke-opacity:1"
   id="EDUCACION_CORONEL_PORTILLO"
   d="m 79.943873,189.64176 c 0.0337,-0.22375 -0.19057,-0.71926 -0.636785,-1.34251 -0.934728,-1.3053 -1.112597,-1.9099 -1.628831,-5.53819 l -0.463166,-3.25534 0.996515,-3.06333 c 0.548042,-1.68482 1.216241,-3.49469 1.48489,-4.02197 0.371297,-0.72883 0.488409,-1.37585 0.488409,-2.69895 0,-1.67445 -0.03485,-1.78606 -0.916341,-2.95554 -0.504053,-0.66846 -1.123885,-1.8189 -1.377261,-2.55649 -0.253446,-0.73767 -0.665976,-1.68925 -0.91655,-2.11467 l -0.455838,-0.77344 0.68705,-0.23983 c 0.634204,-0.22133 0.687005,-0.32427 0.687005,-1.33843 0,-0.91864 -0.09403,-1.16021 -0.573018,-1.47459 -0.461848,-0.30301 -0.572984,-0.5644 -0.572984,-1.34762 0,-0.81102 -0.169357,-1.17828 -1.023191,-2.22067 -0.562766,-0.68697 -1.08158,-1.51243 -1.152931,-1.83436 l -0.129654,-0.58533 -2.800672,-0.008 c -1.5404,-0.005 -3.393737,-0.14627 -4.118567,-0.30319 -1.164503,-0.25217 -1.317891,-0.35023 -1.317891,-0.84281 0,-0.67468 0.04545,-0.67323 -2.454995,-0.0782 -1.595552,0.37986 -2.419376,0.45053 -3.962484,0.33971 -3.366939,-0.24176 -4.839782,-0.58185 -5.802087,-1.34006 l -0.874342,-0.68888 0.759734,-0.80389 c 0.479626,-0.50743 1.883813,-1.34923 3.807888,-2.28284 2.988525,-1.4501 3.059643,-1.47149 3.637422,-1.09238 0.324053,0.2125 0.640465,0.58261 0.70304,0.8222 0.09574,0.36616 0.330865,0.43565 1.474837,0.43565 l 1.361015,0 0.58649,-1.31964 c 0.322636,-0.72574 0.804303,-2.30646 1.070527,-3.51255 l 0.483976,-2.19294 3.717926,-1.30684 c 2.0449,-0.71881 3.8802,-1.30689 4.078505,-1.30689 0.198452,0 2.109642,0.56798 4.24748,1.26224 3.560282,1.15611 4.06404,1.26222 5.993717,1.26222 1.745089,0 2.365588,-0.10428 3.614483,-0.60694 0.829324,-0.33389 2.509688,-0.89695 3.734346,-1.25139 1.75824,-0.50885 2.61334,-0.91574 4.06558,-1.93483 1.80835,-1.26875 1.88244,-1.36003 4.43023,-5.45611 2.56477,-4.12329 2.60097,-4.16769 3.5552,-4.35668 l 0.96398,-0.19086 0,-1.24197 0,-1.24202 -1.50656,-1.20885 -1.50657,-1.20884 0.0611,-2.27185 0.0611,-2.27182 -1.99226,-1.92876 -1.99243,-1.92879 0,-1.85075 c 0,-1.66526 0.0537,-1.89295 0.53462,-2.27173 0.29396,-0.23158 1.24546,-1.92463 2.11439,-3.76236 1.15964,-2.45263 1.68805,-3.34137 1.98663,-3.34137 0.30705,0 0.40561,-0.18285 0.40217,-0.74583 -0.004,-0.612246 0.20681,-0.933279 1.17606,-1.791836 l 1.18057,-1.045958 2.99557,0.641861 c 2.78424,0.596569 3.06106,0.704542 3.92355,1.530095 0.7424,0.710588 1.31774,0.995458 2.87617,1.424248 2.09642,0.57675 2.5059,0.90072 6.14776,4.86423 l 1.2125,1.31961 2.85959,0 c 2.56578,0 2.97063,0.0562 3.94063,0.55105 0.59457,0.30302 1.31567,0.80293 1.60236,1.11084 0.28674,0.30796 1.03443,0.80053 1.66167,1.09469 1.12198,0.52619 1.14042,0.55174 1.14629,1.58572 0.003,1.00422 0.058,1.08598 1.17104,1.84259 1.7892,1.21562 7.76168,7.16929 7.76168,7.73723 0,0.42873 0.23639,0.51509 2.28781,0.83557 2.09403,0.32709 2.4236,0.45103 3.88909,1.46332 l 1.60119,1.10594 0.004,2.15582 0.004,2.15571 -2.03669,-0.1539 -2.03666,-0.15375 -0.45664,1.67004 -0.45662,1.67015 0.558,0.59975 c 0.30687,0.32982 0.80698,1.20765 1.11135,1.95067 0.30433,0.7431 0.68531,1.34194 0.84657,1.33083 0.16143,-0.006 0.66603,-0.0794 1.12151,-0.15249 0.78395,-0.12556 0.85656,-0.0816 1.35634,0.82334 0.2905,0.52574 1.69984,2.73355 3.13184,4.90634 l 2.60373,3.95046 -0.26508,2.06957 -0.26507,2.06962 1.29002,1.5789 c 1.26847,1.55241 1.29,1.60337 1.29,3.04679 0,1.42521 0.0439,1.53295 1.4932,3.70374 l 1.49321,2.23583 1.09078,0 c 1.07264,0 1.11123,0.0258 2.31856,1.54914 0.67528,0.852 1.38222,1.87237 1.57099,2.26754 0.31356,0.65649 0.48641,0.74292 2.0073,1.00343 0.91534,0.15708 1.77132,0.35135 1.90233,0.43239 0.1619,0.10018 0.17315,1.12979 0.0348,3.22276 l -0.20372,3.07527 1.30874,1.41227 c 0.71993,0.77675 1.66986,2.04952 2.11099,2.8284 l 0.80222,1.41606 2.12769,0.002 c 1.81599,0.002 2.29443,0.0872 3.26607,0.58008 1.10648,0.56147 1.13834,0.60602 1.13834,1.5929 0,0.93311 0.2041,1.29044 2.52007,4.41397 4.32351,5.83075 5.07084,6.71568 6.68848,7.92018 0.8648,0.64392 1.61781,1.38743 1.67336,1.65227 0.0557,0.26486 0.27062,2.06625 0.47805,4.00305 l 0.37699,3.52147 -0.74316,0.76778 c -0.40872,0.42229 -1.29581,0.99237 -1.97135,1.26692 l -1.22811,0.49909 0.14355,1.54662 0.14342,1.54664 -1.23304,0.15658 c -2.78188,0.35259 -2.52091,0.15871 -3.852,2.85993 l -1.20926,2.45421 -2.0395,1.34403 -2.03957,1.34406 0,1.08995 c 0,0.82113 -0.11027,1.1676 -0.44798,1.40482 -0.24634,0.17327 -0.51544,0.59888 -0.59788,0.94596 -0.12591,0.52973 -0.0753,0.63114 0.31304,0.63114 0.45641,0 0.46128,0.0939 0.34862,6.71273 l -0.11418,6.71278 0.80446,2.88429 c 1.3707,4.91408 3.07981,9.36856 4.08854,10.656 1.65047,2.10647 2.78482,3.86646 3.20399,4.9711 l 0.41513,1.0941 -1.01557,0.69964 c -1.29996,0.89561 -1.34475,0.98287 -0.96982,1.88855 0.26229,0.63337 0.26332,0.87699 0.004,1.50177 -0.1685,0.41028 -0.33191,0.74144 -0.36302,0.73573 -0.0314,-0.004 -1.34814,-0.92878 -2.92663,-2.05161 l -6e-5,0 0.004,2.8e-4 -2.87006,-2.04137 -0.98763,-2.40826 c -0.94722,-2.30952 -1.0551,-2.46388 -2.63067,-3.76818 -1.61198,-1.33423 -2.00045,-1.51089 -5.13077,-2.33222 -0.76402,-0.20046 -1.04574,-0.42065 -1.34426,-1.05066 -0.36772,-0.77596 -7.15181,-8.05226 -11.71386,-12.56381 l -2.26899,-2.24386 -1.56724,0.32888 c -1.49604,0.31404 -1.64882,0.41021 -3.36737,2.12099 -0.99017,0.98564 -1.96459,2.13867 -2.16533,2.56236 l -0.36507,0.77035 -1.52859,-0.15207 c -0.84073,-0.0833 -2.63957,-0.29265 -3.99732,-0.46465 l -2.46868,-0.31272 -3.23715,1.18028 -3.23708,1.18024 -1.39925,-0.50249 c -1.17867,-0.42319 -1.88864,-0.50242 -4.50347,-0.50237 l -3.10429,1e-4 -2.45212,0.98711 -2.45211,0.98711 -0.95585,1.59471 c -1.58992,2.65242 -1.93736,3.01213 -3.47626,3.59898 -1.26151,0.48113 -1.42176,0.61383 -1.47196,1.21855 -0.0306,0.37322 -0.16695,1.2208 -0.30289,1.88342 -0.37298,1.82189 -0.90136,1.6162 -2.56194,-0.99713 l -1.0346,-1.62834 0.33064,-1.917 0.33063,-1.91699 -0.69365,-1.75769 c -0.38153,-0.96672 -0.95026,-3.02391 -1.26386,-4.57151 -0.31359,-1.54758 -0.60096,-2.84142 -0.6386,-2.87524 -0.0373,-0.0337 -1.22883,-0.64212 -2.64694,-1.35185 -1.41814,-0.70972 -2.57844,-1.33006 -2.57844,-1.37864 0,-0.0485 0.16176,-0.87182 0.35951,-1.82943 l 0.35972,-1.74117 -0.63583,-1.13254 -0.63584,-1.13259 -2.26451,-0.65063 c -2.12382,-0.61024 -2.28486,-0.69923 -2.59181,-1.43178 -0.17981,-0.42957 -0.30002,-0.80017 -0.26687,-0.82343 0.0331,-0.0232 0.52443,-0.35758 1.09167,-0.74283 0.56721,-0.38532 1.72754,-1.42477 2.57848,-2.30987 l 1.54705,-1.60929 0,-2.07107 0,-2.07109 -0.8199,-0.6767 c -0.81213,-0.67026 -0.8236,-0.70498 -1.21038,-3.63132 -0.35738,-2.70405 -0.46089,-3.05848 -1.22092,-4.18115 l -0.83052,-1.22665 0.62214,-1.87153 c 0.60543,-1.82151 0.61303,-1.90972 0.284,-3.29741 l -0.33816,-1.42578 0.76077,-1.67242 c 0.59456,-1.30708 0.79061,-2.09698 0.8974,-3.61618 l 0.13659,-1.94383 3.03458,-1.72814 3.03459,-1.72811 0,-2.68375 0,-2.68372 -0.96171,-1.6007 c -0.91432,-1.52182 -1.03747,-1.63046 -2.49848,-2.20445 l -1.53686,-0.60376 -5.46599,0.24944 c -5.183018,0.23651 -5.535541,0.28146 -6.808452,0.86855 -1.271331,0.5863 -1.38966,0.7132 -2.234664,2.39613 -0.793134,1.57949 -0.892255,1.96286 -0.892255,3.45089 l 0,1.67402 -1.948191,1.9406 -1.948124,1.94055 0,1.28641 c 0,1.56148 -0.426328,3.80712 -0.776121,4.08825 z" />
</svg>
